<?xml version="1.0" standalone="no"?>
<!DOCTYPE svg PUBLIC "-//W3C//DTD SVG 20010904//EN"
 "http://www.w3.org/TR/2001/REC-SVG-20010904/DTD/svg10.dtd">
<svg version="1.0" xmlns="http://www.w3.org/2000/svg"
 width="700.000000pt" height="700.000000pt" viewBox="0 0 700.000000 700.000000"
 preserveAspectRatio="xMidYMid meet">
<metadata>
Created by potrace 1.11, written by Peter Selinger 2001-2013
</metadata>
<g transform="translate(0.000000,700.000000) scale(0.100000,-0.100000)"
fill="#000000" stroke="none">
<path d="M4364 5183 c-37 -64 -73 -133 -80 -153 -33 -96 48 -200 156 -200 48
0 106 29 134 67 24 33 33 121 16 154 -36 71 -144 249 -150 249 -5 0 -38 -52
-76 -117z"/>
<path d="M4751 4665 c-40 -69 -78 -141 -84 -160 -22 -72 33 -162 113 -186 104
-31 210 48 210 157 0 32 -15 66 -76 170 -41 71 -78 132 -82 136 -5 5 -41 -48
-81 -117z"/>
<path d="M5740 4685 c-178 -33 -358 -169 -434 -327 -71 -148 -81 -294 -30
-448 68 -201 229 -344 452 -400 l42 -11 0 -109 0 -110 -27 12 c-103 45 -281
148 -408 236 -222 153 -364 285 -666 617 -290 320 -409 419 -578 484 -116 45
-183 54 -338 48 -292 -10 -442 -99 -732 -430 -87 -100 -170 -193 -184 -206
l-26 -24 -125 112 -124 111 -61 0 -61 0 -410 -312 c-226 -172 -415 -313 -419
-313 -4 0 -62 63 -129 140 l-121 140 47 42 c26 22 45 43 42 46 -3 3 -93 36
-200 75 -171 61 -195 67 -198 52 -3 -17 66 -401 73 -409 2 -2 25 15 51 38 26
23 50 38 54 34 147 -171 231 -276 224 -283 -5 -4 -101 -78 -213 -163 l-204
-155 -464 -169 -463 -168 2 -99 3 -100 1936 -704 1937 -705 1453 529 1454 529
3 285 2 285 -437 159 c-241 88 -455 166 -475 174 l-38 14 0 149 0 149 28 5
c239 52 424 224 482 451 36 139 23 258 -42 394 -118 246 -403 387 -678 335z
m-1808 -196 c86 -17 224 -91 315 -168 45 -39 161 -159 259 -268 438 -487 701
-700 1127 -909 l137 -67 0 -159 0 -158 90 0 90 0 0 120 c0 66 3 120 8 120 13
0 662 -235 662 -240 0 -3 -184 -71 -408 -152 -224 -81 -598 -217 -831 -302
l-424 -155 -371 136 c-439 160 -555 206 -696 278 -137 71 -252 144 -408 259
-232 171 -328 225 -489 271 -123 36 -284 55 -511 62 -180 5 -203 8 -199 22 25
91 262 821 266 821 5 0 176 -152 526 -465 l78 -70 58 65 c33 35 59 68 59 71 0
4 -72 71 -160 150 -88 78 -160 144 -160 146 0 2 23 27 51 56 29 29 105 113
170 188 65 75 146 162 181 193 71 64 214 140 293 154 70 14 224 14 287 1z
m-1618 -601 c-107 -341 -324 -1022 -328 -1025 -5 -6 -706 250 -706 257 0 7
294 230 302 230 4 0 34 -33 69 -72 34 -40 66 -75 71 -76 4 -2 36 20 71 49 34
29 64 54 66 56 2 1 -25 36 -59 76 -34 41 -63 78 -63 83 0 8 563 442 576 443 5
1 5 -9 1 -21z m-872 -1023 c191 -66 344 -122 342 -124 -3 -3 -162 -62 -354
-132 l-350 -127 -349 127 -350 127 342 126 c188 69 349 125 357 125 9 -1 171
-56 362 -122z m1318 -86 c120 -21 263 -67 324 -103 22 -13 67 -44 98 -68 l58
-45 -110 -41 -110 -41 -318 116 c-174 63 -332 121 -351 127 l-34 12 99 37
c113 41 151 42 344 6z m-352 -272 c183 -66 329 -123 325 -127 -5 -4 -160 -62
-346 -129 l-339 -123 -336 123 c-185 67 -341 125 -345 129 -11 9 674 260 693
253 8 -2 165 -59 348 -126z m1320 -259 c85 -43 152 -78 150 -78 -2 0 -138 49
-303 109 -330 120 -312 107 -205 145 33 12 37 11 120 -43 47 -31 154 -91 238
-133z m-362 -89 c184 -67 334 -125 334 -128 0 -10 -676 -253 -692 -249 -35 8
-678 243 -678 248 0 7 661 248 684 249 10 1 169 -54 352 -120z m964 -350 c184
-67 338 -124 342 -128 4 -3 -149 -63 -339 -132 l-345 -125 -344 125 c-190 68
-341 128 -337 132 9 8 662 248 678 249 5 0 160 -55 345 -121z"/>
<path d="M3988 4214 c-92 -155 -98 -168 -98 -217 0 -105 111 -181 213 -148 72
24 127 113 112 180 -3 15 -41 87 -84 160 l-79 134 -64 -109z"/>
<path d="M4802 2739 c-165 -16 -280 -50 -338 -101 -58 -51 -38 -99 60 -144
254 -116 819 -88 946 48 56 60 -12 125 -176 167 -139 36 -320 47 -492 30z"/>
<path d="M1945 2415 c-99 -13 -189 -24 -199 -24 -35 -1 -6 -15 147 -72 l152
-56 24 21 c12 11 50 51 83 89 l60 67 -43 -1 c-24 -1 -125 -12 -224 -24z"/>
<path d="M2934 2110 c-137 -21 -188 -96 -91 -135 49 -20 191 -31 270 -21 63 8
120 41 125 73 9 59 -160 105 -304 83z"/>
<path d="M3828 1742 c-87 -31 -158 -60 -158 -63 0 -3 72 -32 159 -63 l159 -58
161 59 c88 32 157 61 153 64 -5 5 -263 101 -307 115 -5 1 -81 -23 -167 -54z"/>
</g>
</svg>
