<?xml version="1.0" standalone="no"?>
<!DOCTYPE svg PUBLIC "-//W3C//DTD SVG 20010904//EN"
 "http://www.w3.org/TR/2001/REC-SVG-20010904/DTD/svg10.dtd">
<svg version="1.0" xmlns="http://www.w3.org/2000/svg"
 width="700.000000pt" height="700.000000pt" viewBox="0 0 700.000000 700.000000"
 preserveAspectRatio="xMidYMid meet">
<metadata>
Created by potrace 1.11, written by Peter Selinger 2001-2013
</metadata>
<g transform="translate(0.000000,700.000000) scale(0.100000,-0.100000)"
fill="#000000" stroke="none">
<path d="M2898 5693 c-10 -2 -18 -9 -18 -15 0 -6 111 -230 248 -497 l247 -486
5 -310 5 -310 118 -3 117 -3 0 297 0 297 251 509 c138 280 248 512 245 516
-10 10 -149 15 -199 8 l-42 -7 -180 -389 c-99 -214 -183 -390 -186 -390 -3 0
-88 175 -189 389 -141 301 -188 391 -204 395 -24 7 -193 6 -218 -1z"/>
<path d="M1902 4883 l3 -808 115 0 115 0 3 368 2 367 254 0 254 0 6 23 c7 29
7 135 0 165 l-6 22 -254 0 -254 0 0 230 0 230 304 0 304 0 6 23 c7 29 7 135 0
165 l-6 22 -424 0 -424 0 2 -807z"/>
<path d="M4236 5668 c-11 -41 -6 -154 7 -171 11 -15 47 -17 354 -19 l342 -3
-400 -687 c-220 -378 -398 -692 -394 -698 4 -7 189 -10 554 -10 l549 0 6 31
c8 40 8 98 0 138 l-6 31 -375 2 -374 3 404 690 c287 491 401 694 394 703 -7 9
-126 12 -532 12 l-523 0 -6 -22z"/>
<path d="M1170 3500 l0 -110 735 0 735 0 0 110 0 110 -735 0 -735 0 0 -110z"/>
<path d="M2760 3500 l0 -110 740 0 740 0 0 110 0 110 -740 0 -740 0 0 -110z"/>
<path d="M4360 3500 l0 -110 735 0 735 0 0 110 0 110 -735 0 -735 0 0 -110z"/>
<path d="M2381 2910 c-263 -69 -444 -257 -523 -545 -19 -69 -22 -106 -22 -275
0 -228 13 -292 90 -450 89 -179 245 -300 454 -350 157 -37 487 -21 626 31 l54
20 0 394 0 393 -22 6 c-30 8 -147 8 -187 0 l-31 -7 0 -312 c0 -288 -1 -313
-17 -320 -32 -14 -266 -18 -324 -6 -134 28 -251 113 -316 230 -53 94 -74 176
-80 321 -15 346 113 588 351 663 97 30 273 30 395 -1 46 -12 87 -20 91 -17 9
6 46 115 53 157 5 33 -11 41 -142 68 -134 27 -345 27 -450 0z"/>
<path d="M4355 2920 c-59 -13 -124 -37 -171 -65 -62 -37 -139 -127 -163 -191
-28 -74 -37 -183 -21 -259 33 -161 120 -240 375 -341 280 -110 339 -165 339
-314 0 -85 -19 -133 -76 -187 -62 -60 -117 -77 -268 -81 -135 -3 -175 3 -347
54 -20 5 -24 -1 -47 -76 -39 -123 -39 -123 48 -149 118 -35 199 -44 371 -39
141 4 169 8 238 31 95 33 168 78 224 139 85 93 117 192 111 347 -3 94 -7 114
-35 173 -58 124 -145 187 -397 288 -158 64 -208 91 -253 144 -73 82 -52 232
41 292 59 39 106 49 226 47 88 -1 136 -7 205 -26 50 -14 93 -22 97 -18 14 13
50 173 41 181 -4 5 -44 18 -88 30 -63 17 -115 23 -245 25 -91 2 -183 0 -205
-5z"/>
<path d="M3413 2913 l-33 -4 0 -809 0 -808 60 -7 c33 -4 87 -4 120 0 l60 7 0
808 0 807 -46 7 c-48 6 -104 6 -161 -1z"/>
</g>
</svg>
