<?xml version="1.0" encoding="UTF-8" standalone="no"?>
<svg
   width="390"
   height="150"
   viewBox="0 0 103.18776 39.688"
   version="1.1"
   id="svg170"
   xmlns:xlink="http://www.w3.org/1999/xlink"
   xmlns="http://www.w3.org/2000/svg"
   xmlns:svg="http://www.w3.org/2000/svg">
  <style
     id="style2"><![CDATA[.B{fill:#22c55e}.C{stroke:#22c55e}.D{stroke-width:1.5}.E{fill:#2e3a3a}.F{font-weight:400}.G{font-family:Aller}.H{word-spacing:1.197px}.I{fill-rule:evenodd}.J{fill:#92400e}.K{fill:#38bff8}.L{stroke-linejoin:bevel}.M{font-size:8.819px}.N{font-family:Clear Sans}.O{word-spacing:0px}]]></style>
  <defs
     id="defs24">
    <path
       id="C"
       d="m 71.436,7.836 q 0.3,-0.035 0.723,-0.062 0.423,-0.035 0.829,-0.035 1.667,0 2.487,0.847 0.829,0.847 0.829,2.434 0,1.658 -0.847,2.461 -0.838,0.803 -2.505,0.803 -0.415,0 -0.82,-0.035 -0.406,-0.026 -0.697,-0.071 z m 0.9,5.6 q 0.123,0.018 0.3,0.035 0.185,0.009 0.388,0.009 0.52,0 0.944,-0.115 0.432,-0.123 0.741,-0.406 0.309,-0.282 0.476,-0.758 0.168,-0.485 0.168,-1.208 0,-0.661 -0.168,-1.129 -0.168,-0.467 -0.476,-0.758 -0.3,-0.3 -0.723,-0.432 -0.423,-0.132 -0.935,-0.132 -0.168,0 -0.37,0.009 -0.194,0 -0.344,0.026 z" />
    <path
       id="D"
       d="m 77.592,7.836 h 3.484 q 0.026,0.176 0.026,0.388 0,0.097 -0.009,0.203 0,0.106 -0.018,0.194 h -2.584 v 1.817 h 2.064 q 0.018,0.088 0.026,0.194 0.009,0.097 0.009,0.194 0,0.097 -0.009,0.203 -0.009,0.106 -0.026,0.194 h -2.064 v 2.17 h 2.655 q 0.026,0.176 0.026,0.388 0,0.097 -0.009,0.203 0,0.106 -0.018,0.194 h -3.554 z" />
    <path
       id="E"
       d="m 82.319,7.827 q 0.132,-0.018 0.309,-0.035 0.185,-0.018 0.379,-0.026 0.203,-0.018 0.397,-0.026 0.203,-0.009 0.388,-0.009 0.485,0 0.917,0.097 0.441,0.097 0.767,0.335 0.335,0.238 0.529,0.635 0.194,0.388 0.194,0.979 0,0.617 -0.212,1.032 -0.203,0.406 -0.547,0.653 -0.335,0.247 -0.767,0.353 -0.432,0.097 -0.882,0.097 -0.168,0 -0.3,0 -0.123,-0.009 -0.273,-0.026 v 2.293 q -0.212,0.026 -0.45,0.026 -0.106,0 -0.229,-0.009 -0.115,0 -0.22,-0.018 z m 0.9,3.272 q 0.141,0.018 0.247,0.026 0.106,0.009 0.309,0.009 0.273,0 0.538,-0.053 0.273,-0.062 0.485,-0.212 0.212,-0.15 0.335,-0.406 0.132,-0.265 0.132,-0.679 0,-0.362 -0.115,-0.609 Q 85.044,8.928 84.85,8.778 84.656,8.628 84.383,8.566 84.11,8.504 83.792,8.504 q -0.326,0 -0.573,0.026 z" />
    <path
       id="F"
       d="m 89.983,12.713 h -2.408 l -0.432,1.464 q -0.115,0.018 -0.229,0.026 -0.115,0.009 -0.229,0.009 -0.123,0 -0.247,-0.009 -0.115,-0.009 -0.212,-0.026 L 88.29,7.836 q 0.115,-0.018 0.247,-0.026 0.132,-0.009 0.273,-0.009 0.123,0 0.256,0.009 0.132,0.009 0.256,0.026 l 2.055,6.341 q -0.106,0.018 -0.238,0.026 -0.132,0.009 -0.256,0.009 -0.115,0 -0.238,-0.009 -0.115,-0.009 -0.22,-0.026 z m -2.17,-0.785 h 1.931 l -0.97,-3.237 z" />
    <path
       id="G"
       d="m 92.32,7.827 q 0.194,-0.018 0.353,-0.035 0.159,-0.018 0.309,-0.026 0.159,-0.018 0.326,-0.026 0.168,-0.009 0.37,-0.009 0.45,0 0.891,0.088 0.441,0.088 0.785,0.309 0.344,0.22 0.556,0.6 0.22,0.37 0.22,0.944 0,0.344 -0.115,0.626 -0.115,0.282 -0.291,0.503 -0.176,0.22 -0.406,0.388 -0.22,0.159 -0.432,0.265 l -0.106,0.053 1.843,2.672 q -0.238,0.026 -0.538,0.026 -0.238,0 -0.476,-0.026 l -2.028,-2.937 v -0.035 l 0.071,-0.018 q 0.238,-0.062 0.503,-0.168 0.265,-0.106 0.485,-0.273 0.229,-0.176 0.379,-0.415 0.15,-0.247 0.15,-0.591 0,-0.635 -0.379,-0.944 -0.37,-0.309 -1.005,-0.309 -0.15,0 -0.282,0.009 -0.123,0.009 -0.282,0.026 v 5.653 q -0.097,0.009 -0.22,0.018 -0.115,0.009 -0.22,0.009 -0.106,0 -0.229,-0.009 -0.123,0 -0.229,-0.018 z" />
    <path
       id="H"
       d="M 98.538,8.621 H 96.889 Q 96.871,8.533 96.863,8.427 96.854,8.321 96.854,8.224 q 0,-0.097 0.009,-0.194 0.009,-0.106 0.026,-0.194 h 4.198 q 0.018,0.088 0.026,0.185 0.009,0.097 0.009,0.194 0,0.097 -0.009,0.212 -0.009,0.106 -0.026,0.194 h -1.649 v 5.556 q -0.203,0.026 -0.441,0.026 -0.247,0 -0.459,-0.026 z" />
    <path
       id="I"
       d="m 102.26,7.836 q 0.106,-0.018 0.238,-0.026 0.141,-0.009 0.265,-0.009 0.123,0 0.265,0.009 0.15,0.009 0.247,0.026 l 1.64,3.969 1.649,-3.969 q 0.088,-0.018 0.22,-0.026 0.132,-0.009 0.256,-0.009 0.115,0 0.256,0.009 0.141,0.009 0.238,0.026 l 0.3,6.341 q -0.106,0.018 -0.22,0.026 -0.106,0.009 -0.22,0.009 -0.115,0 -0.229,-0.009 -0.106,-0.009 -0.203,-0.026 l -0.203,-4.93 -1.552,3.616 q -0.176,0.026 -0.362,0.026 -0.168,0 -0.335,-0.026 l -1.499,-3.642 -0.203,4.957 q -0.097,0.018 -0.203,0.026 -0.106,0.009 -0.203,0.009 -0.115,0 -0.22,-0.009 -0.106,-0.009 -0.203,-0.026 z" />
    <path
       id="J"
       d="m 133.163,7.836 h 3.316 q 0.018,0.088 0.026,0.194 0.009,0.097 0.009,0.194 0,0.097 -0.009,0.203 -0.009,0.106 -0.026,0.194 h -2.417 v 1.861 h 2.02 q 0.018,0.097 0.026,0.203 0.009,0.097 0.009,0.194 0,0.097 -0.009,0.203 -0.009,0.097 -0.026,0.194 h -2.02 v 2.902 q -0.106,0.018 -0.22,0.026 -0.106,0.009 -0.229,0.009 -0.115,0 -0.238,-0.009 -0.115,-0.009 -0.212,-0.026 z" />
    <path
       id="K"
       d="m 76.419,17.714 q 0.106,-0.018 0.22,-0.026 0.115,-0.009 0.229,-0.009 0.115,0 0.229,0.009 0.115,0.009 0.22,0.026 v 2.611 h 2.699 v -2.611 q 0.097,-0.018 0.212,-0.026 0.115,-0.009 0.229,-0.009 0.115,0 0.229,0.009 0.123,0.009 0.229,0.026 v 6.341 q -0.097,0.018 -0.212,0.026 -0.115,0.009 -0.238,0.009 -0.115,0 -0.238,-0.009 -0.115,-0.009 -0.212,-0.026 v -2.937 h -2.699 v 2.937 q -0.106,0.018 -0.22,0.026 -0.106,0.009 -0.229,0.009 -0.115,0 -0.238,-0.009 -0.115,-0.009 -0.212,-0.026 z" />
    <path
       id="L"
       d="m 83.862,21.735 -2.011,-4.022 q 0.115,-0.018 0.247,-0.026 0.132,-0.009 0.265,-0.009 0.115,0 0.247,0.009 0.141,0.009 0.247,0.026 l 1.482,3.149 1.464,-3.149 q 0.115,-0.018 0.229,-0.026 0.115,-0.009 0.238,-0.009 0.123,0 0.247,0.009 0.123,0.009 0.238,0.026 l -1.984,4.022 v 2.32 q -0.115,0.018 -0.229,0.026 -0.115,0.009 -0.229,0.009 -0.115,0 -0.238,-0.009 -0.115,-0.009 -0.212,-0.026 z" />
    <path
       id="M"
       d="m 87.355,23.093 q 0.291,0.106 0.609,0.185 0.317,0.079 0.776,0.079 0.723,0 1.076,-0.291 0.362,-0.3 0.362,-0.803 0,-0.247 -0.079,-0.423 -0.071,-0.176 -0.22,-0.3 -0.15,-0.132 -0.379,-0.238 -0.22,-0.106 -0.52,-0.229 L 88.477,20.87 q -0.256,-0.106 -0.467,-0.229 -0.212,-0.132 -0.37,-0.317 -0.15,-0.185 -0.238,-0.423 -0.088,-0.247 -0.088,-0.582 0,-0.803 0.547,-1.252 0.547,-0.459 1.535,-0.459 0.423,0 0.803,0.071 0.379,0.071 0.67,0.176 -0.044,0.37 -0.194,0.732 -0.238,-0.088 -0.556,-0.159 -0.309,-0.071 -0.706,-0.071 -0.556,0 -0.855,0.229 -0.3,0.22 -0.3,0.67 0,0.185 0.071,0.335 0.079,0.141 0.203,0.256 0.123,0.106 0.291,0.194 0.168,0.088 0.353,0.159 l 0.494,0.194 q 0.353,0.141 0.626,0.3 0.273,0.15 0.467,0.362 0.194,0.203 0.291,0.485 0.106,0.282 0.106,0.661 0,0.908 -0.626,1.438 -0.626,0.52 -1.755,0.52 -0.273,0 -0.494,-0.018 -0.22,-0.018 -0.415,-0.053 -0.185,-0.035 -0.362,-0.088 -0.176,-0.053 -0.362,-0.115 0.018,-0.194 0.079,-0.397 0.062,-0.203 0.132,-0.397 z" />
    <path
       id="N"
       d="m 92.32,17.714 q 0.106,-0.018 0.22,-0.026 0.115,-0.009 0.229,-0.009 0.115,0 0.229,0.009 0.115,0.009 0.22,0.026 v 6.341 q -0.106,0.018 -0.22,0.026 -0.106,0.009 -0.229,0.009 -0.115,0 -0.238,-0.009 -0.115,-0.009 -0.212,-0.026 z" />
    <path
       id="O"
       d="m 98.82,23.129 q 0.194,0.379 0.247,0.732 -0.37,0.159 -0.758,0.229 -0.388,0.071 -0.838,0.071 -0.688,0 -1.244,-0.22 -0.547,-0.229 -0.926,-0.644 -0.379,-0.423 -0.582,-1.023 -0.203,-0.6 -0.203,-1.349 0,-0.758 0.203,-1.367 0.203,-0.617 0.582,-1.05 0.379,-0.432 0.926,-0.661 0.547,-0.238 1.226,-0.238 0.503,0 0.864,0.071 0.362,0.071 0.644,0.168 -0.018,0.203 -0.079,0.379 -0.053,0.168 -0.132,0.362 -0.132,-0.044 -0.256,-0.079 -0.123,-0.035 -0.265,-0.062 -0.141,-0.026 -0.317,-0.035 -0.168,-0.018 -0.388,-0.018 -0.961,0 -1.499,0.653 -0.529,0.653 -0.529,1.879 0,0.626 0.15,1.085 0.15,0.459 0.423,0.758 0.273,0.3 0.653,0.45 0.388,0.15 0.864,0.15 0.37,0 0.67,-0.062 0.3,-0.062 0.564,-0.176 z" />
    <path
       id="P"
       d="m 115.789,20.774 q 0.106,-0.018 0.22,-0.026 0.115,-0.009 0.229,-0.009 0.115,0 0.229,0.009 0.115,0.009 0.212,0.026 v 3.096 q -0.185,0.079 -0.406,0.141 -0.22,0.053 -0.459,0.079 -0.238,0.035 -0.476,0.053 -0.238,0.018 -0.45,0.018 -0.706,0 -1.27,-0.22 -0.564,-0.22 -0.953,-0.635 -0.388,-0.423 -0.6,-1.023 -0.203,-0.6 -0.203,-1.358 0,-0.758 0.212,-1.367 0.212,-0.617 0.6,-1.05 0.397,-0.432 0.935,-0.661 0.547,-0.238 1.208,-0.238 0.503,0 0.873,0.071 0.37,0.062 0.67,0.176 -0.018,0.203 -0.079,0.379 -0.053,0.168 -0.132,0.362 -0.247,-0.079 -0.538,-0.141 -0.282,-0.062 -0.714,-0.062 -0.467,0 -0.855,0.168 -0.379,0.168 -0.653,0.494 -0.265,0.317 -0.415,0.794 -0.15,0.467 -0.15,1.076 0,0.626 0.15,1.085 0.159,0.45 0.441,0.758 0.282,0.3 0.661,0.45 0.388,0.141 0.855,0.141 0.282,0 0.494,-0.026 0.212,-0.035 0.362,-0.079 z" />
    <path
       id="Q"
       d="m 125.296,24.161 q -0.688,0 -1.191,-0.238 -0.503,-0.247 -0.838,-0.679 -0.326,-0.441 -0.494,-1.041 -0.159,-0.6 -0.159,-1.314 0,-0.714 0.159,-1.314 0.168,-0.6 0.494,-1.032 0.335,-0.441 0.838,-0.688 0.503,-0.247 1.191,-0.247 0.688,0 1.191,0.247 0.503,0.247 0.829,0.688 0.335,0.432 0.494,1.032 0.159,0.6 0.159,1.314 0,0.714 -0.159,1.314 -0.159,0.6 -0.494,1.041 -0.326,0.432 -0.829,0.679 -0.503,0.238 -1.191,0.238 z m 0,-0.776 q 0.441,0 0.758,-0.168 0.326,-0.176 0.538,-0.503 0.212,-0.326 0.317,-0.785 0.106,-0.459 0.106,-1.041 0,-0.573 -0.106,-1.032 -0.106,-0.467 -0.317,-0.785 -0.212,-0.326 -0.538,-0.494 -0.317,-0.176 -0.758,-0.176 -0.441,0 -0.767,0.176 -0.317,0.168 -0.529,0.494 -0.212,0.317 -0.317,0.785 -0.106,0.459 -0.106,1.032 0,0.582 0.106,1.041 0.106,0.459 0.317,0.785 0.212,0.326 0.529,0.503 0.326,0.168 0.767,0.168 z" />
    <path
       id="R"
       d="m 76.868,27.591 q 0.097,-0.018 0.203,-0.026 0.115,-0.009 0.212,-0.009 0.097,0 0.203,0.009 0.115,0.009 0.212,0.026 l 2.76,4.762 v -4.762 q 0.106,-0.018 0.22,-0.026 0.115,-0.009 0.229,-0.009 0.097,0 0.203,0.009 0.106,0.009 0.203,0.026 v 6.341 q -0.097,0.018 -0.212,0.026 -0.106,0.009 -0.203,0.009 -0.097,0 -0.212,-0.009 -0.106,-0.009 -0.203,-0.026 l -2.769,-4.736 v 4.736 q -0.097,0.018 -0.212,0.026 -0.106,0.009 -0.212,0.009 -0.115,0 -0.229,-0.009 -0.106,-0.009 -0.194,-0.026 z" />
  </defs>
  <g
     class="E"
     id="g168"
     transform="translate(-61.592842)">
    <use
       xlink:href="#C"
       id="use76"
       x="0"
       y="0"
       width="100%"
       height="100%" />
    <use
       xlink:href="#D"
       id="use78"
       x="0"
       y="0"
       width="100%"
       height="100%" />
    <use
       xlink:href="#E"
       id="use80"
       x="0"
       y="0"
       width="100%"
       height="100%" />
    <use
       xlink:href="#F"
       id="use82"
       x="0"
       y="0"
       width="100%"
       height="100%" />
    <use
       xlink:href="#G"
       id="use84"
       x="0"
       y="0"
       width="100%"
       height="100%" />
    <use
       xlink:href="#H"
       id="use86"
       x="0"
       y="0"
       width="100%"
       height="100%" />
    <use
       xlink:href="#I"
       id="use88"
       x="0"
       y="0"
       width="100%"
       height="100%" />
    <use
       xlink:href="#D"
       x="31.688"
       id="use90"
       y="0"
       width="100%"
       height="100%" />
    <path
       d="m 114.007,7.836 q 0.097,-0.018 0.203,-0.026 0.115,-0.009 0.212,-0.009 0.097,0 0.203,0.009 0.115,0.009 0.212,0.026 l 2.76,4.763 V 7.836 q 0.106,-0.018 0.22,-0.026 0.115,-0.009 0.229,-0.009 0.097,0 0.203,0.009 0.106,0.009 0.203,0.026 v 6.341 q -0.097,0.018 -0.212,0.026 -0.106,0.009 -0.203,0.009 -0.097,0 -0.212,-0.009 -0.106,-0.009 -0.203,-0.026 l -2.769,-4.736 v 4.736 q -0.097,0.018 -0.212,0.026 -0.106,0.009 -0.212,0.009 -0.115,0 -0.229,-0.009 -0.106,-0.009 -0.194,-0.026 z"
       id="path92" />
    <use
       xlink:href="#H"
       x="22.559999"
       id="use94"
       y="0"
       width="100%"
       height="100%" />
    <path
       d="m 129.176,14.283 q -0.688,0 -1.191,-0.238 -0.503,-0.247 -0.838,-0.679 -0.326,-0.441 -0.494,-1.041 -0.159,-0.6 -0.159,-1.314 0,-0.714 0.159,-1.314 0.168,-0.6 0.494,-1.032 0.335,-0.441 0.838,-0.688 0.503,-0.247 1.191,-0.247 0.688,0 1.191,0.247 0.503,0.247 0.829,0.688 0.335,0.432 0.494,1.032 0.159,0.6 0.159,1.314 0,0.714 -0.159,1.314 -0.159,0.6 -0.494,1.041 -0.326,0.432 -0.829,0.679 -0.503,0.238 -1.191,0.238 z m 0,-0.776 q 0.441,0 0.758,-0.168 0.326,-0.176 0.538,-0.503 0.212,-0.326 0.317,-0.785 0.106,-0.459 0.106,-1.041 0,-0.573 -0.106,-1.032 -0.106,-0.467 -0.317,-0.785 -0.212,-0.326 -0.538,-0.494 -0.317,-0.176 -0.758,-0.176 -0.441,0 -0.767,0.176 -0.317,0.168 -0.529,0.494 -0.212,0.318 -0.317,0.785 -0.106,0.459 -0.106,1.032 0,0.582 0.106,1.041 0.106,0.459 0.317,0.785 0.212,0.326 0.529,0.503 0.326,0.168 0.767,0.168 z"
       id="path96" />
    <use
       xlink:href="#J"
       id="use98"
       x="0"
       y="0"
       width="100%"
       height="100%" />
    <use
       xlink:href="#E"
       x="-10.892"
       y="9.8780003"
       id="use100"
       width="100%"
       height="100%" />
    <use
       xlink:href="#K"
       id="use102"
       x="0"
       y="0"
       width="100%"
       height="100%" />
    <use
       xlink:href="#L"
       id="use104"
       x="0"
       y="0"
       width="100%"
       height="100%" />
    <use
       xlink:href="#M"
       id="use106"
       x="0"
       y="0"
       width="100%"
       height="100%" />
    <use
       xlink:href="#N"
       id="use108"
       x="0"
       y="0"
       width="100%"
       height="100%" />
    <use
       xlink:href="#O"
       id="use110"
       x="0"
       y="0"
       width="100%"
       height="100%" />
    <use
       xlink:href="#F"
       x="13.361"
       y="9.8780003"
       id="use112"
       width="100%"
       height="100%" />
    <path
       d="m 105.664,17.714 q 0.097,-0.018 0.203,-0.026 0.115,-0.009 0.238,-0.009 0.115,0 0.229,0.009 0.115,0.009 0.22,0.026 v 5.547 h 2.487 q 0.018,0.097 0.018,0.203 0.009,0.106 0.009,0.194 0,0.212 -0.026,0.397 h -3.378 z"
       id="path114" />
    <use
       xlink:href="#P"
       id="use116"
       x="0"
       y="0"
       width="100%"
       height="100%" />
    <use
       xlink:href="#D"
       x="40.534"
       y="9.8780003"
       id="use118"
       width="100%"
       height="100%" />
    <use
       xlink:href="#Q"
       id="use120"
       x="0"
       y="0"
       width="100%"
       height="100%" />
    <path
       d="m 132.951,20.774 q 0.106,-0.018 0.22,-0.026 0.115,-0.009 0.229,-0.009 0.115,0 0.229,0.009 0.115,0.009 0.212,0.026 v 3.096 q -0.185,0.079 -0.406,0.141 -0.22,0.053 -0.459,0.079 -0.238,0.035 -0.476,0.053 -0.238,0.018 -0.45,0.018 -0.706,0 -1.27,-0.22 -0.564,-0.22 -0.952,-0.635 -0.388,-0.423 -0.6,-1.023 -0.203,-0.6 -0.203,-1.358 0,-0.758 0.212,-1.367 0.212,-0.617 0.6,-1.05 0.397,-0.432 0.935,-0.661 0.547,-0.238 1.208,-0.238 0.503,0 0.873,0.071 0.37,0.062 0.67,0.176 -0.018,0.203 -0.079,0.379 -0.053,0.168 -0.132,0.362 -0.247,-0.079 -0.538,-0.141 -0.282,-0.062 -0.714,-0.062 -0.467,0 -0.855,0.168 -0.379,0.168 -0.653,0.494 -0.265,0.317 -0.415,0.794 -0.15,0.467 -0.15,1.076 0,0.626 0.15,1.085 0.159,0.45 0.441,0.758 0.282,0.3 0.661,0.45 0.388,0.141 0.855,0.141 0.282,0 0.494,-0.026 0.212,-0.035 0.362,-0.079 z"
       id="path122" />
    <use
       xlink:href="#G"
       x="42.986"
       y="9.8780003"
       id="use124"
       width="100%"
       height="100%" />
    <use
       xlink:href="#F"
       x="53.693001"
       y="9.8780003"
       id="use126"
       width="100%"
       height="100%" />
    <use
       xlink:href="#E"
       x="63.675999"
       y="9.8780003"
       id="use128"
       width="100%"
       height="100%" />
    <use
       xlink:href="#K"
       x="74.568001"
       id="use130"
       y="0"
       width="100%"
       height="100%" />
    <use
       xlink:href="#L"
       x="74.569"
       id="use132"
       y="0"
       width="100%"
       height="100%" />
    <use
       xlink:href="#F"
       x="-15.434"
       y="19.756001"
       id="use134"
       width="100%"
       height="100%" />
    <use
       xlink:href="#R"
       id="use136"
       x="0"
       y="0"
       width="100%"
       height="100%" />
    <use
       xlink:href="#C"
       x="11.438"
       y="19.754999"
       id="use138"
       width="100%"
       height="100%" />
    <use
       xlink:href="#P"
       x="-20.999001"
       y="9.8780003"
       id="use140"
       width="100%"
       height="100%" />
    <use
       xlink:href="#D"
       x="19.535"
       y="19.754999"
       id="use142"
       width="100%"
       height="100%" />
    <use
       xlink:href="#Q"
       x="-20.999001"
       y="9.8769999"
       id="use144"
       width="100%"
       height="100%" />
    <use
       xlink:href="#N"
       x="15.963"
       y="9.8769999"
       id="use146"
       width="100%"
       height="100%" />
    <use
       xlink:href="#R"
       x="33.867001"
       id="use148"
       y="0"
       width="100%"
       height="100%" />
    <use
       xlink:href="#J"
       x="-16.431"
       y="19.754999"
       id="use150"
       width="100%"
       height="100%" />
    <use
       xlink:href="#Q"
       x="-1.676"
       y="9.8769999"
       id="use152"
       width="100%"
       height="100%" />
    <use
       xlink:href="#G"
       x="35.304001"
       y="19.756001"
       id="use154"
       width="100%"
       height="100%" />
    <use
       xlink:href="#I"
       x="30.788"
       y="19.754999"
       id="use156"
       width="100%"
       height="100%" />
    <use
       xlink:href="#F"
       x="53.208"
       y="19.756001"
       id="use158"
       width="100%"
       height="100%" />
    <use
       xlink:href="#H"
       x="47.500999"
       y="19.754999"
       id="use160"
       width="100%"
       height="100%" />
    <use
       xlink:href="#N"
       x="57.264999"
       y="9.8769999"
       id="use162"
       width="100%"
       height="100%" />
    <use
       xlink:href="#O"
       x="57.264999"
       y="9.8780003"
       id="use164"
       width="100%"
       height="100%" />
    <use
       xlink:href="#M"
       x="69.973"
       y="9.8780003"
       id="use166"
       width="100%"
       height="100%" />
  </g>
  <g
     fill="none"
     stroke-width="1.5"
     id="g98"
     transform="translate(-2.6666667e-5,0.69450013)">
    <path
       d="m 3.66,26.039 v 9.966"
       stroke="#92400e"
       id="path92-3" />
    <path
       d="m 3.66,15.207 v 9.966"
       stroke="#22c55e"
       id="path94" />
    <path
       d="m 3.66,4.375 v 9.966"
       stroke="#38bff8"
       id="path96-6" />
  </g>
</svg>
