<svg xmlns="http://www.w3.org/2000/svg" xmlns:xlink="http://www.w3.org/1999/xlink" width="360" height="150" viewBox="0 0 95.25 39.688" xmlns:v="https://vecta.io/nano"><defs><path id="A" d="M82.692 8.605h-1.649q-.018-.088-.026-.194-.009-.106-.009-.203 0-.097.009-.194.009-.106.026-.194h4.198q.018.088.026.185.009.097.009.194 0 .097-.009.212-.009.106-.026.194h-1.649v5.556q-.203.026-.441.026-.247 0-.459-.026z"/><path id="B" d="M86.238 7.82h3.484q.026.176.026.388 0 .097-.009.203 0 .106-.018.194h-2.584v1.817h2.064q.018.088.026.194.009.097.009.194 0 .097-.009.203-.009.106-.026.194h-2.064v2.17h2.655q.026.176.026.388 0 .097-.009.203 0 .106-.018.194h-3.554z"/><path id="C" d="M97.147 7.811q.194-.018.353-.035.159-.018.309-.026.159-.018.326-.026.168-.009.37-.009.45 0 .891.088.441.088.785.309.344.22.556.6.22.37.22.944 0 .344-.115.626-.115.282-.291.503-.176.22-.406.388-.22.159-.432.265l-.106.053 1.843 2.672q-.238.026-.538.026-.238 0-.476-.026l-2.028-2.937v-.035l.071-.018q.238-.062.503-.168.265-.106.485-.273.229-.176.379-.415.15-.247.15-.591 0-.635-.379-.944-.37-.309-1.005-.309-.15 0-.282.009-.123.009-.282.026v5.653q-.097.009-.22.018-.115.009-.22.009-.106 0-.229-.009-.123 0-.229-.018z"/><path id="D" d="M105.517 12.697h-2.408l-.432 1.464q-.115.018-.229.026-.115.009-.229.009-.123 0-.247-.009-.115-.009-.212-.026l2.064-6.341q.115-.018.247-.026.132-.009.273-.009.123 0 .256.009.132.009.256.026l2.055 6.341q-.106.018-.238.026-.132.009-.256.009-.115 0-.238-.009-.115-.009-.22-.026zm-2.17-.785h1.931l-.97-3.237z"/><path id="E" d="M71.421 17.762h3.316q.018.088.026.194.009.097.009.194 0 .097-.009.203-.009.106-.026.194H72.32v1.861h2.02q.018.097.026.203.009.097.009.194 0 .097-.009.203-.009.097-.026.194h-2.02v2.902q-.106.018-.22.026-.106.009-.229.009-.115 0-.238-.009-.115-.009-.212-.026z"/><path id="F" d="M77.259 21.784l-2.011-4.022q.115-.018.247-.026.132-.009.265-.009.115 0 .247.009.141.009.247.026l1.482 3.149 1.464-3.149q.115-.018.229-.026.115-.009.238-.009.123 0 .247.009.123.009.238.026l-1.984 4.022v2.32q-.115.018-.229.026-.115.009-.229.009-.115 0-.238-.009-.115-.009-.212-.026z"/><path id="G" d="M86.079 17.762q.106-.018.22-.026.115-.009.229-.009.115 0 .229.009.115.009.22.026v6.341q-.106.018-.22.026-.106.009-.229.009-.115 0-.238-.009-.115-.009-.212-.026z"/><path id="H" d="M95.145 20.884l2.037-3.122q.123-.018.238-.026.123-.009.22-.009.115 0 .247.009.132.009.273.026l-2.011 3.043 2.267 3.298q-.141.018-.282.026-.132.009-.256.009-.106 0-.229-.009-.123-.009-.256-.026zm-1.164-3.122q.106-.018.22-.026.115-.009.229-.009.115 0 .229.009.115.009.22.026v6.341q-.106.018-.22.026-.115.009-.229.009-.123 0-.238-.009-.115-.009-.212-.026z"/><path id="I" d="M114.458 20.822q.106-.018.22-.026.115-.009.229-.009.115 0 .229.009.115.009.212.026v3.096q-.185.079-.406.141-.22.053-.459.079-.238.035-.476.053-.238.018-.45.018-.706 0-1.27-.22-.564-.22-.953-.635-.388-.423-.6-1.023-.203-.6-.203-1.358 0-.758.212-1.367.212-.617.6-1.05.397-.432.935-.661.547-.238 1.208-.238.503 0 .873.071.37.062.67.176-.018.203-.079.379-.053.168-.132.362-.247-.079-.538-.141-.282-.062-.714-.062-.467 0-.855.168-.379.168-.653.494-.265.317-.415.794-.15.467-.15 1.076 0 .626.15 1.085.159.45.441.758.282.3.661.45.388.141.855.141.282 0 .494-.026.212-.035.362-.079z"/><path id="J" d="M123.965 24.209q-.688 0-1.191-.238-.503-.247-.838-.679-.326-.441-.494-1.041-.159-.6-.159-1.314 0-.714.159-1.314.168-.6.494-1.032.335-.441.838-.688.503-.247 1.191-.247.688 0 1.191.247.503.247.829.688.335.432.494 1.032.159.6.159 1.314 0 .714-.159 1.314-.159.6-.494 1.041-.326.432-.829.679-.503.238-1.191.238zm0-.776q.441 0 .758-.168.326-.176.538-.503.212-.326.317-.785.106-.459.106-1.041 0-.573-.106-1.032-.106-.467-.317-.785-.212-.326-.538-.494-.317-.176-.758-.176-.441 0-.767.176-.317.168-.529.494-.212.317-.317.785-.106.459-.106 1.032 0 .582.106 1.041.106.459.317.785.212.326.529.503.326.168.767.168z"/></defs><g transform="translate(-61.587 -.214)" fill="#2e3a3a"><path d="M72.585 10.942l2.037-3.122q.123-.018.238-.026.123-.009.22-.009.115 0 .247.009.132.009.273.026l-2.011 3.043 2.267 3.298q-.141.018-.282.026-.132.009-.256.009-.106 0-.229-.009-.123-.009-.256-.026zM71.421 7.82q.106-.018.22-.026.115-.009.229-.009.115 0 .229.009.115.009.22.026v6.341q-.106.018-.22.026-.115.009-.229.009-.123 0-.238-.009-.115-.009-.212-.026zm8.423 4.877h-2.408l-.432 1.464q-.115.018-.229.026-.115.009-.229.009-.123 0-.247-.009-.115-.009-.212-.026L78.15 7.82q.115-.018.247-.026.132-.009.273-.009.123 0 .256.009.132.009.256.026l2.055 6.341q-.106.018-.238.026-.132.009-.256.009-.115 0-.238-.009-.115-.009-.22-.026zm-2.17-.785h1.931l-.97-3.237z"/><use xlink:href="#A"/><use xlink:href="#B"/><path d="M90.974 7.82q.3-.035.723-.062.423-.035.829-.035 1.667 0 2.487.847.829.847.829 2.434 0 1.658-.847 2.461-.838.803-2.505.803-.415 0-.82-.035-.406-.026-.697-.071zm.9 5.6q.123.018.3.035.185.009.388.009.52 0 .944-.115.432-.123.741-.406.309-.282.476-.758.168-.485.168-1.208 0-.661-.168-1.129-.168-.467-.476-.758-.3-.3-.723-.432-.423-.132-.935-.132-.168 0-.37.009-.194 0-.344.026z"/><use xlink:href="#C"/><use xlink:href="#D"/><use xlink:href="#E"/><use xlink:href="#F"/><path d="M80.523 24.024l3.193-5.477H80.92q-.018-.079-.026-.185-.009-.106-.009-.203 0-.097.009-.203.009-.106.026-.194h4.119l.062.079-3.201 5.477h2.972q.018.079.026.194.009.106.009.203 0 .097-.009.203-.009.106-.026.185h-4.295z"/><use xlink:href="#G"/><path d="M92.579 23.177q.194.379.247.732-.37.159-.758.229-.388.071-.838.071-.688 0-1.244-.22-.547-.229-.926-.644-.379-.423-.582-1.023-.203-.6-.203-1.349 0-.758.203-1.367.203-.617.582-1.05.379-.432.926-.661.547-.238 1.226-.238.503 0 .864.071.362.071.644.168-.018.203-.079.379-.053.168-.132.362-.132-.044-.256-.079-.123-.035-.265-.062-.141-.026-.317-.035-.168-.018-.388-.018-.961 0-1.499.653-.529.653-.529 1.879 0 .626.15 1.085.15.459.423.758.273.3.653.45.388.15.864.15.37 0 .67-.062.3-.062.564-.176z"/><use xlink:href="#H"/><use xlink:href="#B" x="13.044" y="9.942"/><path d="M105.094 18.547h-1.111q-.018-.088-.026-.194-.009-.106-.009-.203 0-.097.009-.194.009-.106.026-.194h2.011v4.577q0 .529-.115.891-.115.362-.335.582-.22.212-.538.3-.317.097-.714.097-.212 0-.423-.035-.212-.026-.388-.071 0-.176.035-.37.035-.194.106-.397.106.026.238.062.141.026.291.026.159 0 .317-.026.168-.026.309-.115.141-.088.229-.265.088-.176.088-.476z"/><use xlink:href="#I"/><use xlink:href="#B" x="30.557" y="9.942"/><use xlink:href="#J"/><path d="M131.62 20.822q.106-.018.22-.026.115-.009.229-.009.115 0 .229.009.115.009.212.026v3.096q-.185.079-.406.141-.22.053-.459.079-.238.035-.476.053-.238.018-.45.018-.706 0-1.27-.22-.564-.22-.952-.635-.388-.423-.6-1.023-.203-.6-.203-1.358 0-.758.212-1.367.212-.617.6-1.05.397-.432.935-.661.547-.238 1.208-.238.503 0 .873.071.37.062.67.176-.018.203-.079.379-.053.168-.132.362-.247-.079-.538-.141-.282-.062-.714-.062-.467 0-.855.168-.379.168-.653.494-.265.317-.415.794-.15.467-.15 1.076 0 .626.15 1.085.159.45.441.758.282.3.661.45.388.141.855.141.282 0 .494-.026.212-.035.362-.079z"/><use xlink:href="#C" x="36.828" y="9.942"/><use xlink:href="#D" x="36.828" y="9.942"/><use xlink:href="#E" x="73.243"/><use xlink:href="#G" x="63.03"/><use xlink:href="#B" x="65.323" y="9.942"/><use xlink:href="#D" x="-30.974" y="19.884"/><use xlink:href="#I" x="-30.639" y="9.943"/><use xlink:href="#B" x="-.082" y="19.884"/><use xlink:href="#J" x="-30.639" y="9.942"/><use xlink:href="#G" x="11.234" y="9.942"/><path d="M99.764 27.704q.097-.018.203-.026.115-.009.212-.009.097 0 .203.009.115.009.212.026l2.76 4.763v-4.762q.106-.018.22-.026.115-.009.229-.009.097 0 .203.009.106.009.203.026v6.341q-.097.018-.212.026-.106.009-.203.009-.097 0-.212-.009-.106-.009-.203-.026l-2.769-4.736v4.736q-.097.018-.212.026-.106.009-.212.009-.115 0-.229-.009-.106-.009-.194-.026z"/><use xlink:href="#E" x="34.341" y="9.942"/><use xlink:href="#J" x="-11.315" y="9.942"/><use xlink:href="#C" x="19.507" y="19.884"/><path d="M122.077 27.704q.106-.018.238-.026.141-.009.265-.009.123 0 .265.009.15.009.247.026l1.64 3.969 1.649-3.969q.088-.018.22-.026.132-.009.256-.009.115 0 .256.009.141.009.238.026l.3 6.341q-.106.018-.22.026-.106.009-.22.009-.115 0-.229-.009-.106-.009-.203-.026l-.203-4.93-1.552 3.616q-.176.026-.362.026-.168 0-.335-.026l-1.499-3.642-.203 4.957q-.097.018-.203.026-.106.009-.203.009-.115 0-.22-.009-.106-.009-.203-.026z"/><use xlink:href="#D" x="26.703" y="19.884"/><use xlink:href="#A" x="52.376" y="19.884"/><use xlink:href="#G" x="52.535" y="9.942"/><use xlink:href="#H" x="47.085" y="9.942"/><use xlink:href="#F" x="70.501" y="9.942"/></g><g stroke-width="1.5" fill="none"><path d="M4.718 25.719v10" stroke="#92400e"/><path d="M4.718 15.719v10" stroke="#22c55e"/><path d="M4.718 5.719v10" stroke="#38bff8"/></g></svg>