<?xml version="1.0" encoding="UTF-8" standalone="no"?>
<svg
   xmlns:osb="http://www.openswatchbook.org/uri/2009/osb"
   xmlns:dc="http://purl.org/dc/elements/1.1/"
   xmlns:cc="http://creativecommons.org/ns#"
   xmlns:rdf="http://www.w3.org/1999/02/22-rdf-syntax-ns#"
   xmlns:svg="http://www.w3.org/2000/svg"
   xmlns="http://www.w3.org/2000/svg"
   xmlns:sodipodi="http://sodipodi.sourceforge.net/DTD/sodipodi-0.dtd"
   xmlns:inkscape="http://www.inkscape.org/namespaces/inkscape"
   class="gridItem__media"
   version="1.1"
   id="Layer_1"
   x="0px"
   y="0px"
   width="1349.1045"
   height="892.24927"
   viewBox="0 0 1349.1045 892.24927"
   style="fill:none"
   xml:space="preserve"
   sodipodi:docname="desert.svg"
   inkscape:version="0.92.5 (2060ec1f9f, 2020-04-08)"><metadata
   id="metadata165"><rdf:RDF><cc:Work
       rdf:about=""><dc:format>image/svg+xml</dc:format><dc:type
         rdf:resource="http://purl.org/dc/dcmitype/StillImage" /><dc:title></dc:title></cc:Work></rdf:RDF></metadata><defs
   id="defs163"><linearGradient
     id="linearGradient974"
     osb:paint="solid"><stop
       style="stop-color:#4d61fc;stop-opacity:1;"
       offset="0"
       id="stop972" /></linearGradient></defs><sodipodi:namedview
   pagecolor="#ffffff"
   bordercolor="#666666"
   borderopacity="1"
   objecttolerance="10"
   gridtolerance="10"
   guidetolerance="10"
   inkscape:pageopacity="0"
   inkscape:pageshadow="2"
   inkscape:window-width="1920"
   inkscape:window-height="1016"
   id="namedview161"
   showgrid="false"
   fit-margin-top="5"
   fit-margin-right="5"
   fit-margin-bottom="5"
   fit-margin-left="5"
   inkscape:zoom="0.55048947"
   inkscape:cx="901.88263"
   inkscape:cy="572.8972"
   inkscape:window-x="0"
   inkscape:window-y="0"
   inkscape:window-maximized="1"
   inkscape:current-layer="Layer_1" />
<path
   d="m 147.02648,887.24925 -140.39,-568.59 c -5.51,-22.3 3.17,-45.71 21.88,-59.03 l 342.84,-244.239996 c 13.15,-9.3700002 29.7,-12.6000001 45.41,-8.8800002 L 1194.1965,190.79925 c 19.76,4.68 35.44,19.7 40.97,39.24 l 106.82,377.44 c 5.47,19.32 0.17,40.1 -13.88,54.44 l -220.61,225.17 z"
   id="path2"
   style="fill:#f2eae6;fill-opacity:1"
   inkscape:connector-curvature="0" /><path
   d="m 147.02648,887.10925 -91.31,-369.67 c 40.59,-2.76 115.38,-13.18 234.67,-48.15 189.94,-55.67 402.68,-125.36 483.92,-179.71 81.24,-54.35 128,29.07 268.29002,69.51 90.01,25.95 184.51,36.6 240.67,40.91 l 58.72,207.48 c 5.47,19.32 0.17,40.1 -13.88,54.44 l -220.61,225.17 H 147.02648 Z"
   id="path4"
   inkscape:connector-curvature="0"
   style="opacity:0.31300001;fill:#92400e;fill-opacity:1" /><path
   d="m 1334.6965,581.74925 c -33.48,0.3 -92.25,6.98 -172.23,39.51 -82.78,33.67 -152.19,107.88 -232.96002,155.59 2.01,-5.76 8.34,-23.15 15.01,-33.84 0,0 -11.18,12.75 -18.16,27.85 3.24,-12.97 9.74,-37.54 16.11,-53.21 0,0 -13.51,23.98 -21.48,52.2 0.71,-12 2.18,-31.79 4.62,-44.69 0,0 -3.84,11.86 -6.65,28.32 -0.25,-15.83 -0.17,-35.41 1.24,-49.25 0,0 -4.58,19.23 -6.23,45 -0.78,-16.85 -1.36,-36.98 -0.65,-51.37 0,0 -4.75,29.21 -3.83,65.08 -2.42,-12.58 -5.29,-28.95 -6.27,-40.29 0,0 -0.67,20.55 3.48,45.82 -9.57,-27.19 -22.85,-47.82 -22.85,-47.82 8.16,17.53 17.59,48.16 20.68,58.49 -7.28,-16.92 -21.01,-29.78 -21.01,-29.78 6.6,9.19 15.59,32.82 18.99,42.12 -38.87,19.12 -80.779,30.91 -128.219,28.63 -160.59,-7.73 -169.97,-53.48 -381.42,-103.59 -55.29,-13.1 -103.98,-15.84 -145.78,-12.77 0.94,-4.17 3.74,-15.83 7.12,-22.71 0,0 -7.6,9.94 -10.52,21.83 0.9,-7.1 3.72,-28.23 7.16,-40.62 0,0 -6.45,14.99 -9.75,33.87 -0.04,-17.02 -2.73,-30.43 -2.73,-30.43 0.6,7.55 0.51,18.61 0.3,27.12 -3.33,-23.64 -9.64,-42.28 -9.64,-42.28 2.04,9.36 3.86,22.63 5.2,33.76 -3.9,-16.73 -9.01,-28.83 -9.01,-28.83 2.44,8.92 4.64,21.75 6.21,32.17 -3.65,-10.49 -7.46,-17.85 -7.46,-17.85 3.01,8.19 6.14,21.01 7.92,28.8 -8.32,-17.63 -19.8,-31.88 -19.8,-31.88 5.91,9.61 12.88,25.06 16.42,33.19 -6.23,-9.17 -14.99,-16.34 -14.99,-16.34 6.72,7.61 14.2,21.75 14.2,21.75 h 2.87 c -56.11,6.41 -92.32,20.01 -119.98,34.52 l 36.4,147.28 h 960.45902 l 220.61,-225.17 c 14.05,-14.35 19.35,-35.12 13.88,-54.44 z"
   id="path24"
   inkscape:connector-curvature="0"
   style="opacity:0.2;fill:#000000" />

<path
   d="m 1000.6465,727.91925 c 0.02,-0.02 0.04,-0.03 0.06,-0.05 -0.02,0.02 -0.04,0.04 -0.06,0.05 z"
   id="path6"
   inkscape:connector-curvature="0"
   style="opacity:0.2;fill:#000000" />
<path
   d="m 1037.5865,699.62925 c -0.07,0.05 -0.14,0.1 -0.2,0.16 0.06,-0.06 0.13,-0.11 0.2,-0.16 z"
   id="path8"
   inkscape:connector-curvature="0"
   style="opacity:0.2;fill:#000000" />
<path
   d="m 1283.2765,400.03925 c -53.51,-4.12 -142.45,-14.23 -233.05,-38.79 -30.0041,-8.13337 -76.10886,-26.15886 -99.33155,-38.65736 -37.91172,-20.40415 -72.3339,-38.62705 -85.26847,-42.85264 0,0 30.25,19.56 4.68,68.05 -25.569,48.49 -8.82,62.09 100.51,79.09 109.32002,17.01 206.31002,-16.16 219.53002,55.08 13.05,70.31 -158.17,170.15 -402.07902,203.28 20.53,4.69 42.43,8.44 66.019,10.78 87.96,8.72 150.94002,4.14 190.80002,-2.12 37.85,-28.77 75.94,-55.79 117.38,-72.65 79.99,-32.54 138.76,-39.21 172.24,-39.51 z"
   id="path10"
   inkscape:connector-curvature="0"
   style="opacity:0.45;fill:#ffffff"
   sodipodi:nodetypes="ccscccccccccc" />
<path
   d="m 1041.3665,696.73925 c -0.03,0.03 -0.07,0.05 -0.1,0.07 0.03,-0.02 0.06,-0.04 0.1,-0.07 z"
   id="path12"
   inkscape:connector-curvature="0"
   style="opacity:0.2;fill:#000000" />
<path
   d="m 913.96648,749.23925 c 1.65,-25.78 6.23,-45 6.23,-45 -1.41,13.84 -1.5,33.42 -1.24,49.25 2.81,-16.46 6.65,-28.32 6.65,-28.32 -2.44,12.9 -3.91,32.69 -4.62,44.69 7.97,-28.22 21.48,-52.2 21.48,-52.2 -6.37,15.67 -12.87,40.24 -16.11,53.21 6.98,-15.11 18.16,-27.85 18.16,-27.85 -6.67,10.69 -13,28.08 -15.01,33.84 0.19,-0.11 0.39,-0.23 0.58,-0.34 1.06,-0.63 2.11,-1.25 3.16,-1.89 0.08,-0.05 0.16,-0.1 0.25,-0.15 7.42,-4.48 14.75,-9.18 22,-14.04 0.06,-0.04 0.12,-0.08 0.18,-0.12 1.13,-0.76 2.25,-1.51 3.37,-2.28 0.13,-0.09 0.25,-0.17 0.38,-0.26 1.09,-0.74 2.19,-1.49 3.28,-2.24 0.15,-0.1 0.29,-0.2 0.44,-0.3 1.08,-0.75 2.16,-1.5 3.24,-2.25 0.15,-0.11 0.3,-0.21 0.46,-0.32 1.09,-0.76 2.17,-1.52 3.25,-2.29 0.13,-0.09 0.26,-0.18 0.38,-0.27 1.12,-0.79 2.23,-1.58 3.35,-2.38 0.07,-0.05 0.14,-0.1 0.21,-0.15 24.08,-17.22 47.52002,-35.78 71.05002,-53.66 -30.31,4.76 -74.00002,8.54 -131.85002,6.25 -0.56,14.17 0,33.09 0.73,49.07 z"
   id="path14"
   style="opacity:0.24800002;fill:#858990"
   inkscape:connector-curvature="0" />
<path
   d="m 234.25648,684.29025 c -1.05,-8.73 -2.39,-18.76 -3.91,-27.2 -0.46,0.03 -0.92,0.06 -1.38,0.08 -1,0.05 -1.97,0.11 -2.97,0.17 1.57,4.02 5.27,14.12 8.26,26.95 z"
   id="path16"
   inkscape:connector-curvature="0"
   style="fill:#858990;font-variant-east_asian:normal;opacity:0.24800002;vector-effect:none;fill-opacity:1;stroke-width:1;stroke-linecap:butt;stroke-linejoin:miter;stroke-miterlimit:4;stroke-dasharray:none;stroke-dashoffset:0;stroke-opacity:1" />
<path
   d="m 238.69848,692.81025 c 0.21,-8.52 0.299,-19.58 -0.301,-27.12 0,0 2.69,13.41 2.73,30.43 3.3,-18.88 9.75,-33.87 9.75,-33.87 -3.44,12.4 -6.27,33.52 -7.16,40.62 2.92,-11.89 10.521,-21.831 10.521,-21.831 -3.39,6.88 -6.191,18.551 -7.121,22.711 1.03,-0.08 2.081,-0.151 3.121,-0.211 0.59,-0.04 1.16,-0.09 1.75,-0.12 0.57,-0.04 1.14,-0.069 1.71,-0.099 0.36,-0.02 0.719,-0.04 1.079,-0.06 0.64,-0.04 1.281,-0.07 1.921,-0.1 0.85,-0.04 1.69,-0.09 2.54,-0.13 0.56,-0.03 1.119,-0.05 1.689,-0.08 0.54,-0.02 1.1,-0.03 1.64,-0.05 0.85,-0.03 1.7,-0.06 2.55,-0.08 0.99,-0.03 1.98,-0.07 2.98,-0.1 0.12,0 0.241,0 0.361,-0.01 0.65,-0.02 1.319,-0.02 1.979,-0.03 1.02,-0.02 2.05,-0.03 3.09,-0.05 0.59,-0.01 1.18,-0.021 1.78,-0.031 0.64,0 1.29,-0.009 1.94,-0.009 0.38,0 0.761,0 1.141,0 1.18,0 2.37,-10e-4 3.56,0.009 0.38,0 0.759,0 1.139,0 0.56,0.01 1.13,0.011 1.69,0.021 0.53,0.01 1.081,0.03 1.611,0.04 1.35,0.02 2.719,0.05 4.079,0.09 0.61,0.02 1.2,0.019 1.81,0.039 0.36,0.01 0.73,0.031 1.1,0.041 0.33,0.01 0.67,0.03 1,0.04 1.57,0.06 3.16,0.12 4.75,0.19 0.26,0.01 0.51,0.02 0.77,0.03 0.33,0.02 0.66,0.03 0.98,0.05 0.35,0.02 0.7,0.03 1.05,0.05 0.04,0 0.081,0 0.121,0.01 0.06,0 0.13,0.01 0.19,0.01 1.88,0.1 3.759,0.209 5.659,0.329 0.13,0.01 0.25,0.011 0.38,0.021 0.54,0.04 1.08,0.07 1.62,0.1 0.13,0.01 0.26,0.02 0.38,0.03 2.16,0.15 4.341,0.32 6.521,0.51 0.32,0.03 0.63,0.05 0.94,0.07 0.34,0.03 0.679,0.059 1.019,0.089 5.37,0.47 10.821,1.041 16.351,1.721 0.4,0.05 0.79,0.09 1.19,0.14 0.2,0.02 0.4,0.05 0.59,0.08 2.46,0.31 4.93,0.639 7.41,0.989 0.06,0.01 0.12,0.021 0.19,0.021 0.19,0.03 0.379,0.06 0.569,0.08 6.04,0.86 12.171,1.839 18.391,2.959 0.17,0.03 0.35,0.061 0.52,0.091 0.2,0.04 0.41,0.08 0.61,0.12 9.24,1.68 18.67,3.64 28.31,5.93 1.71,0.4 3.4,0.81 5.08,1.21 0.54,0.13 1.08,0.26 1.62,0.39 1.13,0.27 2.26,0.55 3.38,0.82 0.66,0.16 1.309,0.32 1.959,0.48 0.99,0.24 1.981,0.48 2.961,0.73 0.69,0.17 1.38,0.34 2.06,0.51 0.93,0.23 1.869,0.46 2.799,0.7 0.7,0.17 1.38,0.349 2.07,0.519 0.9,0.23 1.8,0.451 2.69,0.681 0.71,0.18 1.421,0.36 2.131,0.54 0.86,0.22 1.72,0.439 2.57,0.659 0.71,0.18 1.42,0.371 2.13,0.551 0.84,0.22 1.68,0.43 2.51,0.65 0.7,0.18 1.389,0.36 2.079,0.54 0.84,0.22 1.67,0.44 2.5,0.66 0.68,0.18 1.351,0.359 2.031,0.539 0.83,0.22 1.659,0.441 2.479,0.661 0.66,0.18 1.32,0.349 1.98,0.529 0.82,0.22 1.64,0.441 2.46,0.661 0.65,0.18 1.301,0.35 1.951,0.53 0.8,0.22 1.599,0.44 2.399,0.66 0.65,0.18 1.3,0.36 1.94,0.53 0.79,0.22 1.58,0.44 2.37,0.66 0.63,0.18 1.26,0.35 1.89,0.53 0.8,0.22 1.59,0.449 2.38,0.669 0.6,0.17 1.21,0.34 1.81,0.51 0.82,0.23 1.62,0.461 2.43,0.691 0.56,0.16 1.13,0.32 1.69,0.48 0.88,0.25 1.75,0.499 2.62,0.759 0.48,0.14 0.97,0.281 1.45,0.421 1.28,0.37 2.55,0.75 3.82,1.12 0.06,0.02 0.11,0.03 0.17,0.05 0.01,0 0.031,0.01 0.041,0.01 1.45,0.43 2.88,0.849 4.31,1.279 0.46,0.14 0.91,0.271 1.37,0.411 0.99,0.3 1.97,0.59 2.95,0.89 0.51,0.16 1.019,0.31 1.529,0.47 0.95,0.29 1.901,0.58 2.841,0.87 0.47,0.14 0.939,0.29 1.399,0.43 1.33,0.41 2.64,0.82 3.95,1.22 0.04,0.01 0.09,0.03 0.13,0.04 0.02,0.01 0.03,0.01 0.05,0.02 1.75,0.55 3.47,1.09 5.18,1.63 0.35,0.11 0.691,0.219 1.041,0.329 1.65,0.53 3.289,1.051 4.909,1.581 0.33,0.11 0.65,0.21 0.98,0.32 1.62,0.52 3.22,1.05 4.81,1.57 0.07,0.02 0.14,0.05 0.21,0.07 1.64,0.54 3.251,1.08 4.851,1.61 0.32,0.11 0.639,0.21 0.959,0.32 1.55,0.52 3.09,1.04 4.61,1.56 0.28,0.1 0.561,0.19 0.851,0.29 1.48,0.51 2.949,1.01 4.409,1.51 0.11,0.04 0.231,0.08 0.341,0.12 1.51,0.52 2.999,1.04 4.489,1.56 0.32,0.11 0.631,0.22 0.951,0.33 1.44,0.51 2.869,1.01 4.279,1.51 0.26,0.09 0.531,0.189 0.791,0.279 1.37,0.49 2.72,0.971 4.06,1.451 0.13,0.05 0.269,0.1 0.399,0.14 1.42,0.51 2.821,1.019 4.221,1.529 0.29,0.11 0.58,0.211 0.87,0.321 1.36,0.5 2.72,0.989 4.06,1.489 0.22,0.08 0.439,0.16 0.669,0.25 1.27,0.47 2.521,0.931 3.771,1.401 0.17,0.06 0.34,0.13 0.51,0.19 1.32,0.49 2.619,0.979 3.919,1.469 0.29,0.11 0.57,0.22 0.86,0.32 1.28,0.48 2.55,0.96 3.81,1.44 0.2,0.08 0.401,0.151 0.601,0.231 1.2,0.46 2.399,0.91 3.589,1.37 0.16,0.06 0.321,0.12 0.481,0.18 1.25,0.48 2.5,0.96 3.73,1.43 0.27,0.11 0.55,0.21 0.82,0.32 1.21,0.47 2.419,0.93 3.609,1.39 0.19,0.07 0.38,0.15 0.56,0.22 1.18,0.46 2.351,0.909 3.511,1.359 0.11,0.04 0.22,0.081 0.32,0.131 1.24,0.48 2.47,0.959 3.69,1.429 0.25,0.1 0.49,0.191 0.74,0.291 1.14,0.45 2.279,0.889 3.409,1.329 1.23,0.48 2.46,0.961 3.68,1.431 0.17,0.07 0.35,0.139 0.52,0.199 1.16,0.45 2.311,0.901 3.461,1.351 0.22,0.09 0.439,0.17 0.659,0.26 1.18,0.46 2.35,0.91 3.51,1.36 0.1,0.04 0.19,0.07 0.29,0.11 1.09,0.42 2.17,0.84 3.25,1.26 0.19,0.07 0.39,0.149 0.58,0.219 1.11,0.43 2.21,0.851 3.31,1.271 0.22,0.09 0.45,0.17 0.67,0.26 1.13,0.43 2.25,0.86 3.38,1.29 0.09,0.03 0.17,0.06 0.26,0.1 1.06,0.4 2.11,0.799 3.17,1.199 0.21,0.08 0.421,0.161 0.621,0.231 1.08,0.41 2.17,0.809 3.25,1.209 0.22,0.08 0.429,0.161 0.649,0.241 1.11,0.41 2.221,0.82 3.331,1.23 0.06,0.02 0.109,0.04 0.169,0.06 1.07,0.39 2.151,0.78 3.221,1.17 0.2,0.07 0.399,0.14 0.599,0.22 1.08,0.39 2.16,0.78 3.24,1.16 0.21,0.07 0.42,0.15 0.63,0.22 2.23,0.79 4.461,1.569 6.701,2.329 0.21,0.07 0.43,0.151 0.64,0.221 1.08,0.37 2.16,0.73 3.25,1.1 0.2,0.07 0.399,0.13 0.599,0.2 1.09,0.36 2.19,0.73 3.29,1.08 0.04,0.01 0.08,0.03 0.13,0.04 1.11,0.36 2.231,0.72 3.351,1.07 0.23,0.07 0.45,0.139 0.68,0.219 1.09,0.34 2.179,0.691 3.279,1.021 0.2,0.06 0.411,0.13 0.611,0.19 1.09,0.33 2.179,0.67 3.269,0.99 0.07,0.02 0.141,0.039 0.221,0.059 1.13,0.34 2.269,0.67 3.409,1 0.23,0.07 0.47,0.141 0.7,0.201 1.12,0.32 2.251,0.64 3.381,0.96 0.19,0.05 0.38,0.11 0.57,0.16 1.1,0.31 2.21,0.61 3.32,0.91 0.11,0.03 0.21,0.06 0.32,0.09 1.16,0.31 2.329,0.619 3.509,0.929 0.24,0.06 0.481,0.121 0.721,0.191 1.17,0.3 2.34,0.6 3.52,0.89 0.19,0.05 0.37,0.09 0.56,0.14 1.13,0.28 2.259,0.55 3.399,0.83 0.14,0.03 0.28,0.07 0.42,0.1 1.2,0.29 2.42,0.569 3.64,0.839 0.25,0.06 0.5,0.111 0.75,0.171 1.22,0.27 2.441,0.55 3.671,0.81 0.19,0.04 0.37,0.08 0.56,0.12 1.17,0.25 2.36,0.5 3.55,0.75 0.16,0.03 0.33,0.07 0.49,0.1 1.26,0.26 2.529,0.51 3.799,0.76 0.27,0.05 0.54,0.11 0.81,0.16 1.28,0.25 2.57,0.49 3.87,0.73 0.17,0.03 0.351,0.059 0.521,0.089 1.24,0.23 2.49,0.451 3.75,0.671 0.19,0.03 0.38,0.07 0.58,0.1 1.33,0.23 2.669,0.46 4.019,0.68 0.28,0.05 0.561,0.09 0.841,0.14 1.37,0.22 2.74,0.44 4.13,0.65 0.15,0.02 0.309,0.049 0.459,0.069 1.32,0.2 2.651,0.401 3.991,0.591 0.23,0.03 0.46,0.069 0.69,0.099 1.41,0.2 2.829,0.401 4.259,0.591 0.29,0.04 0.59,0.08 0.88,0.12 1.46,0.19 2.931,0.38 4.421,0.57 0.14,0.02 0.28,0.03 0.42,0.05 1.41,0.17 2.84,0.34 4.27,0.51 0.27,0.03 0.53,0.06 0.8,0.09 1.49,0.17 2.999,0.34 4.529,0.5 0.31,0.03 0.63,0.07 0.95,0.1 1.56,0.16 3.14,0.32 4.74,0.48 0.11,0.01 0.22,0.02 0.32,0.03 1.54,0.15 3.1,0.29 4.68,0.43 0.29,0.03 0.57,0.05 0.86,0.08 1.6,0.14 3.231,0.28 4.861,0.41 0.33,0.03 0.66,0.05 0.98,0.08 1.69,0.13 3.39,0.26 5.12,0.38 0.07,0 0.139,0.01 0.199,0.01 1.68,0.12 3.39,0.23 5.1,0.34 0.33,0.02 0.66,0.04 0.99,0.06 1.72,0.11 3.451,0.21 5.211,0.31 0.34,0.02 0.69,0.04 1.03,0.06 1.83,0.1 3.669,0.2 5.539,0.29 0,0 0,0 0.01,0 1.6,0.08 3.201,0.14 4.791,0.18 0.19,0.01 0.379,0.01 0.569,0.01 0.33,0.01 0.66,0.01 1,0.02 1.07,0.02 2.151,0.039 3.211,0.049 0.56,0 1.129,0 1.689,0 0.04,0 0.09,0 0.13,0 0.98,0 1.961,10e-4 2.931,-0.009 0.63,-0.01 1.259,-0.02 1.899,-0.03 0.96,-0.02 1.911,-0.04 2.861,-0.07 0.62,-0.02 1.24,-0.04 1.86,-0.06 0.98,-0.04 1.959,-0.091 2.939,-0.141 0.4,-0.02 0.8,-0.04 1.21,-0.06 0.17,-0.01 0.34,-0.019 0.52,-0.029 1.14,-0.07 2.27,-0.15 3.4,-0.23 0.17,-0.01 0.351,-0.02 0.521,-0.04 0.23,-0.02 0.459,-0.03 0.679,-0.05 1.52,-0.12 3.03,-0.251 4.53,-0.401 0.44,-0.04 0.881,-0.089 1.321,-0.139 1.07,-0.11 2.15,-0.22 3.22,-0.35 0.59,-0.07 1.19,-0.15 1.78,-0.22 0.91,-0.11 1.82,-0.231 2.72,-0.351 0.64,-0.09 1.27,-0.179 1.91,-0.269 0.86,-0.12 1.719,-0.25 2.579,-0.39 0.65,-0.1 1.291,-0.2 1.931,-0.31 0.85,-0.14 1.699,-0.29 2.549,-0.43 0.15,-0.03 0.301,-0.05 0.451,-0.08 0.48,-0.08 0.959,-0.17 1.439,-0.25 0.89,-0.16 1.781,-0.33 2.671,-0.51 0.33,-0.06 0.66,-0.13 0.99,-0.19 0.25,-0.05 0.5,-0.091 0.74,-0.141 1.18,-0.24 2.35,-0.489 3.51,-0.739 0.62,-0.13 1.239,-0.27 1.849,-0.41 0.01,0 0.011,0 0.021,0 1.05,-0.24 2.1,-0.48 3.15,-0.73 0.25,-0.06 0.49,-0.121 0.73,-0.181 0.38,-0.09 0.77,-0.189 1.15,-0.279 0.8,-0.2 1.609,-0.401 2.409,-0.601 0.38,-0.1 0.75,-0.199 1.12,-0.299 0.3,-0.08 0.6,-0.16 0.9,-0.24 0.749,-0.2 1.489,-0.4 2.239,-0.6 0.69,-0.19 1.37,-0.38 2.06,-0.58 0.73,-0.21 1.45,-0.42 2.17,-0.63 0.69,-0.2 1.38,-0.41 2.07,-0.62 0.72,-0.22 1.43,-0.44 2.15,-0.66 0.2,-0.06 0.4,-0.12 0.6,-0.19 0.49,-0.15 0.97,-0.3 1.46,-0.46 0.73,-0.23 1.46,-0.481 2.19,-0.721 0.23,-0.08 0.46,-0.149 0.69,-0.229 0.52,-0.17 1.03,-0.341 1.54,-0.511 1.21,-0.41 2.42,-0.83 3.62,-1.26 0.71,-0.25 1.43,-0.519 2.14,-0.779 0.65,-0.24 1.31,-0.471 1.96,-0.711 0.12,-0.05 0.24,-0.089 0.37,-0.139 0.61,-0.23 1.22,-0.46 1.83,-0.69 0.62,-0.24 1.25,-0.48 1.87,-0.72 0.74,-0.29 1.49,-0.58 2.23,-0.88 0.6,-0.24 1.2,-0.48 1.8,-0.72 0.12,-0.05 0.25,-0.1 0.37,-0.15 0.63,-0.26 1.25,-0.511 1.88,-0.771 0.58,-0.24 1.16,-0.479 1.74,-0.729 0.56,-0.24 1.12,-0.471 1.68,-0.711 0.2,-0.09 0.41,-0.169 0.61,-0.259 0.54,-0.23 1.07,-0.47 1.6,-0.7 0.68,-0.3 1.35,-0.59 2.02,-0.89 0.12,-0.05 0.25,-0.11 0.37,-0.16 0.34,-0.15 0.67,-0.31 1.01,-0.46 0,0 0,0 0.01,0 1.8,-0.81 3.6,-1.65 5.39,-2.49 0.01,0 0.01,-0.01 0.02,-0.01 0.37,-0.17 0.74,-0.351 1.11,-0.521 0.31,-0.15 0.62,-0.299 0.93,-0.449 0.51,-0.25 1.01,-0.491 1.52,-0.741 0.37,-0.18 0.74,-0.359 1.1,-0.539 -2.16,-5.91 -6.58,-17.58 -11.2,-27.68 -0.33,-0.72 -0.66,-1.43 -0.99,-2.14 -0.14,-0.29 -0.27,-0.57 -0.41,-0.85 -0.3,-0.64 -0.61,-1.26 -0.91,-1.87 -0.07,-0.14 -0.14,-0.29 -0.21,-0.43 -1.82,-3.65 -3.62,-6.85 -5.27,-9.15 0,0 13.73,12.859 21.01,29.779 -3.09,-10.33 -12.52,-40.959 -20.68,-58.489 0,0 13.28,20.64 22.85,47.82 -4.15,-25.26 -3.48,-45.82 -3.48,-45.82 0.98,11.33 3.85,27.71 6.27,40.29 -0.03,-1.04 -0.05,-2.07 -0.06,-3.1 -0.01,-0.33 -0.01,-0.66 -0.01,-0.99 -0.01,-0.7 -0.02,-1.41 -0.02,-2.1 0,-0.37 0,-0.741 -0.01,-1.111 0,-0.66 -0.01,-1.309 -0.01,-1.959 0,-0.37 0,-0.74 0,-1.11 0,-0.69 0.01,-1.371 0.01,-2.051 0,-0.3 0,-0.609 0.01,-0.909 0.02,-1.97 0.06,-3.91 0.1,-5.81 0.01,-0.26 0.01,-0.52 0.02,-0.79 0.02,-0.69 0.04,-1.381 0.06,-2.051 0.01,-0.31 0.02,-0.609 0.03,-0.909 0.02,-0.64 0.05,-1.281 0.07,-1.911 0.01,-0.29 0.02,-0.589 0.04,-0.879 0.03,-0.67 0.06,-1.331 0.09,-1.991 0.01,-0.23 0.02,-0.46 0.03,-0.69 0.09,-1.79 0.18,-3.539 0.28,-5.229 0.01,-0.17 0.02,-0.34 0.03,-0.51 0.04,-0.67 0.08,-1.33 0.13,-1.98 0.02,-0.23 0.03,-0.46 0.05,-0.69 0.04,-0.59 0.08,-1.18 0.12,-1.76 0.02,-0.23 0.03,-0.45 0.05,-0.68 0.04,-0.61 0.09,-1.2 0.14,-1.79 0.01,-0.17 0.03,-0.34 0.04,-0.5 0.12,-1.53 0.25,-3.011 0.38,-4.421 0.01,-0.1 0.02,-0.189 0.03,-0.289 0.05,-0.59 0.11,-1.17 0.16,-1.74 0.02,-0.17 0.03,-0.34 0.05,-0.5 0.05,-0.5 0.1,-0.99 0.15,-1.46 0.02,-0.17 0.03,-0.34 0.05,-0.5 0.05,-0.49 0.1,-0.97 0.15,-1.44 0.01,-0.13 0.03,-0.251 0.04,-0.381 0.06,-0.55 0.12,-1.089 0.18,-1.609 0,-0.04 0.01,-0.07 0.01,-0.11 0.06,-0.56 0.12,-1.09 0.18,-1.61 0.01,-0.12 0.03,-0.23 0.04,-0.35 0.05,-0.39 0.09,-0.77 0.13,-1.13 0.02,-0.16 0.04,-0.31 0.06,-0.46 0.04,-0.3 0.07,-0.6 0.11,-0.89 0.02,-0.17 0.04,-0.33 0.06,-0.49 0.03,-0.25 0.06,-0.5 0.09,-0.74 0.02,-0.17 0.04,-0.331 0.06,-0.491 0.03,-0.21 0.05,-0.399 0.08,-0.589 0.05,-0.4 0.1,-0.78 0.15,-1.12 0.01,-0.07 0.02,-0.14 0.03,-0.21 0.03,-0.22 0.06,-0.42 0.09,-0.62 0.01,-0.04 0.01,-0.09 0.02,-0.13 -18.17,-0.72 -37.71,-2.04 -58.7,-4.12 -166.499,-16.51 -249.709,-103.17 -350.589,-97.88 -100.31,5.26 -151.72,51.78 -272.65,58.9 2.1,7.53 5.471,20.65 7.611,35.85 z"
   id="path18"
   style="opacity:0.24800002;fill:#858990"
   inkscape:connector-curvature="0" />
<path
   d="m 114.05748,738.13925 c 0.04,-0.02 0.08,-0.04 0.12,-0.06 0.09,-0.04 0.17,-0.08 0.26,-0.12 0.91,-0.44 1.83,-0.87 2.76,-1.31 0.06,-0.03 0.12,-0.06 0.18,-0.09 0.12,-0.05 0.24,-0.11 0.36,-0.17 2.65,-1.24 5.4,-2.47 8.26,-3.71 0.18,-0.08 0.35,-0.16 0.54,-0.23 0.16,-0.07 0.33,-0.14 0.49,-0.21 0.98,-0.42 1.97,-0.84 2.97,-1.25 0.1,-0.04 0.2,-0.09 0.31,-0.13 0.07,-0.03 0.15,-0.06 0.22,-0.09 1.72,-0.71 3.47,-1.42 5.26,-2.13 0.08,-0.03 0.16,-0.06 0.24,-0.1 0.07,-0.03 0.14,-0.06 0.22,-0.08 1.04,-0.41 2.09,-0.82 3.16,-1.23 0.11,-0.04 0.22,-0.09 0.33,-0.13 0.21,-0.08 0.4,-0.16 0.61,-0.23 0.13,-0.05 0.27,-0.1 0.4,-0.15 2.96,-1.12 6.01,-2.22 9.14,-3.3 0.29,-0.1 0.59,-0.21 0.89,-0.31 0.08,-0.03 0.17,-0.06 0.25,-0.09 1.24,-0.43 2.5,-0.85 3.77,-1.27 0.22,-0.07 0.44,-0.15 0.66,-0.22 0.07,-0.02 0.14,-0.04 0.21,-0.07 1.66,-0.54 3.35,-1.08 5.05,-1.61 0.35,-0.11 0.69,-0.21 1.04,-0.32 0.03,-0.01 0.06,-0.02 0.1,-0.03 1.22,-0.37 2.45,-0.74 3.69,-1.11 0.03,-0.01 0.06,-0.02 0.1,-0.03 0.42,-0.12 0.84,-0.25 1.26,-0.37 0.02,0 0.03,-0.01 0.05,-0.01 1.62,-0.47 3.25,-0.93 4.91,-1.39 0.08,-0.02 0.15,-0.04 0.23,-0.06 0.23,-0.06 0.46,-0.12 0.68,-0.18 0.13,-0.04 0.27,-0.07 0.4,-0.11 1.32,-0.36 2.65,-0.71 3.99,-1.06 0.09,-0.02 0.18,-0.05 0.26,-0.07 0.35,-0.09 0.71,-0.18 1.07,-0.27 1.93,-0.49 3.88,-0.98 5.85,-1.45 0.03,-0.01 0.05,-0.01 0.08,-0.02 0.08,-0.02 0.17,-0.04 0.25,-0.06 1.59,-0.38 3.2,-0.75 4.82,-1.11 0.19,-0.04 0.38,-0.09 0.57,-0.13 0.32,-0.07 0.64,-0.14 0.95,-0.21 0.07,-0.02 0.14,-0.03 0.21,-0.05 1.47,-0.32 2.95,-0.64 4.44,-0.95 0.06,-0.01 0.12,-0.03 0.18,-0.04 0.06,-0.01 0.11,-0.02 0.17,-0.04 2.14,-0.44 4.31,-0.87 6.5,-1.28 0.26,-0.05 0.51,-0.1 0.77,-0.15 0.3,-0.06 0.6,-0.11 0.9,-0.16 1.47,-0.27 2.94,-0.53 4.43,-0.79 0.25,-0.04 0.5,-0.09 0.76,-0.13 0.24,-0.04 0.49,-0.08 0.73,-0.12 2.26,-0.38 4.54,-0.74 6.86,-1.08 0.08,-0.01 0.17,-0.03 0.25,-0.04 0.11,-0.02 0.21,-0.03 0.32,-0.05 1.61,-0.24 3.24,-0.47 4.87,-0.69 0.25,-0.03 0.49,-0.07 0.75,-0.11 0.12,-0.02 0.24,-0.03 0.36,-0.05 0.27,-0.04 0.54,-0.06 0.81,-0.1 1.89,-0.25 3.79,-0.48 5.71,-0.71 0.2,-0.02 0.39,-0.05 0.59,-0.07 h -2.87 c 0,0 -7.47,-14.13 -14.2,-21.75 0,0 8.75,7.17 14.99,16.34 -3.54,-8.13 -10.51,-23.58 -16.42,-33.19 0,0 11.49,14.25 19.8,31.88 -1.78,-7.79 -4.91,-20.61 -7.92,-28.8 0,0 3.81,7.36 7.46,17.85 -1.46,-9.69 -3.46,-21.48 -5.7,-30.26 -72.1,4.04 -108.84,8.42 -132.31,12.77 l 17.26,69.63 c 2.99,-1.55 -0.03,0.04 3.34,-1.58 z"
   id="path20"
   style="opacity:0.24800002;fill:#858990"
   inkscape:connector-curvature="0" />
<path
   d="m 1235.9919,559.0533 c -1.145,0 -1.8964,1.33282 -1.6191,4.37415 0.2863,3.04132 0.5725,8.26524 0.5725,10.07215 0,1.8069 -0.7603,2.75508 -1.9948,2.75508 -1.2344,0 -1.7085,-0.57248 -1.7085,-2.28099 0,-1.70851 -0.3846,-30.79789 -0.3846,-35.08258 0,-4.27575 -2.6656,-3.70326 -3.7033,-3.70326 -1.0465,0 -1.3328,2.75508 -1.3328,4.56199 0,1.8069 0.098,30.23434 0.098,32.2291 0,1.99475 -0.8587,2.56723 -2.0931,2.56723 -1.2345,0 -3.0324,-1.23442 -3.0324,-3.22917 0,-1.99475 -0.1968,-37.70348 -0.01,-44.26917 0.1879,-6.56568 -3.1397,-6.18104 -5.036,-5.98425 -1.9053,0.18784 -3.1398,1.61906 -3.1398,6.46729 0,4.84823 0.5725,43.69668 0.7604,47.87403 0.2236,4.83928 -7.0309,2.1826 -7.4155,0 -0.3757,-2.1826 -0.6977,-21.13721 -0.8587,-24.93887 -0.2415,-5.75168 -2.3794,-6.27049 -4.4636,-5.70695 -2.0932,0.57248 -3.5154,3.04132 -3.426,5.8948 0.098,2.85348 1.0466,27.13041 1.4223,29.31301 0.3846,2.18259 1.4223,4.66038 5.0361,5.03607 3.6138,0.38464 10.9309,0.0984 10.9309,0.0984 l 0.5993,16.62889 7.3349,-2.16471 -0.8945,-14.75042 c 0,0 1.2344,-0.76033 5.6086,-1.04658 4.3741,-0.28624 10.0721,-0.47409 10.6446,-2.37939 0.5725,-1.9053 0.8588,-12.1653 0.8588,-17.01353 0,-4.84823 -1.6191,-5.32232 -2.7551,-5.32232 z"
   id="path22"
   inkscape:connector-curvature="0"
   style="fill:#000000;stroke-width:0.99999994" />

<path
   d="m 380.78548,322.16925 c 60.022,0 108.68,-48.658 108.68,-108.68 0,-60.023 -48.658,-108.68 -108.68,-108.68 -60.022,0 -108.68,48.657 -108.68,108.68 0,60.022 48.658,108.68 108.68,108.68 z"
   id="path26"
   inkscape:connector-curvature="0"
   style="fill:#ffffff" />
<path
   d="m 302.02848,492.17025 c -2.75,0 -4.34,1.23 -4.34,9.71 0,8.7 1.15,75.09 1.15,81.73 0,6.63 0.43,10.53 -2.99,10.53 -3.42,0 -4.27,-2.15 -4.27,-6.24 0,-4.1 0,-44.08 0,-48.62 0,-4.55 -0.61,-6.25 -2.93,-6.25 -2.32,0 -4.26,0.45 -4.26,4.5 0,4.05 0.78,22.47 0.78,25.98 0,3.51 0.21,5.07 -2.56,5.07 -2.78,0 -3.84,-1.17 -3.84,-4.88 0,-3.71 0,-114.64 0,-117.09 0,-2.44 -1.29,-4.89 -4.4,-4.89 -3.11,0 -3.36,1.93 -3.36,5.34 0,3.41 -0.42,102.91 -0.42,115.66 0,12.75 0.92,16.48 9.66,18.17 v 24.16 c 0,0 0.02,7.02 -5.53,6.44 -5.55,-0.59 -10.25,-1.37 -10.25,-16.19 0,-14.83 0.71,-94.37 0.71,-99.05 0,-4.68 -0.28,-6.89 -3.44,-6.89 -3.17,0 -5.25,2.18 -5.25,8.68 0,6.5 0,100.71 0,109.16 0,8.45 4.68,18.47 22.78,20.03 v 75.97 h 22.78 v -78.3 c 0,0 22.09,-0.39 22.09,-13.01 0,-12.62 0,-79.68 0,-84.08 0,-4.4 -1.29,-5.79 -4.08,-5.79 -2.79,0 -5.07,1.62 -5.07,6.02 0,4.4 0,66.16 0,69.64 0,3.48 -0.63,5.56 -2.54,5.56 -1.9,0 -4.57,0.81 -4.57,-6.14 0,-6.95 0,-94.91 0,-98.62 -0.03,-3.7 -2.45,-6.31 -5.85,-6.31 z"
   id="path28"
   inkscape:connector-curvature="0"
   style="fill:#000000" />






























































</svg>