<svg xmlns="http://www.w3.org/2000/svg" xmlns:xlink="http://www.w3.org/1999/xlink" width="1351.017" height="1035.751" fill="none" xmlns:v="https://vecta.io/nano"><style><![CDATA[.B{fill:#000}.C{fill:#1db956}.D{opacity:.15}.E{fill:#fff}.F{opacity:.2}.G{fill:#21252b}.H{opacity:.027}.I{stroke-miterlimit:10}.J{stroke-linecap:round}.K{opacity:.3}.L{fill:#3f4249}.M{fill:#db9c94}.N{stroke:#21252b}.O{stroke-width:1.04}.P{fill:#dadddf}.Q{stroke:#000}.R{opacity:.1}.S{fill:#61656d}.T{fill:#f89999}.U{fill:#868a91}.V{fill:#fc9d9d}.W{fill:#f59696}]]></style><path d="M59.427 1022.991l-49.21-603.199c-1.26-15.356 2.995-30.659 12-43.161l245.58-339.82c6.561-9.083 15.369-16.306 25.561-20.962s21.418-6.585 32.579-5.597l840.571 74.11a64.68 64.68 0 0 1 56.94 48.18l115.49 444.49c2.84 10.928 2.77 22.41-.21 33.301l-113 414.169z" fill="#f4f4f4"/><path d="M55.508 975.251h1187l-15 49-1169-1z" fill="#b2b6bb"/><path d="M1256.048 1025.751H28.969a1.51 1.51 0 0 1-1.061-.44c-.281-.28-.439-.66-.439-1.06s.158-.78.439-1.06a1.51 1.51 0 0 1 1.061-.44h1227.079a1.5 1.5 0 0 1 1.5 1.5 1.5 1.5 0 0 1-1.5 1.5z" class="U"/><path d="M1336.858 569.081l-113.42-436.54c-3.05-11.726-9.35-22.355-18.16-30.67-122.68-.93-256.2 3.77-256.2 3.77s14.26 166.26 29.62 231.42c16.65 70.61 43.45 138.84 85.08 190.66s99.35 85.73 157.84 81.54l-42.78 198.31c-.47 2.18-.94 4.53-.34 6.66.77 2.74 3 4.27 5.16 5.46 7.59 4.324 15.69 7.702 24.1 10.06 3.25 20.32-11.09 41-6.1 60.78 5.15 20.4 26.18 24.78 43.19 25.55l.61 33.55c0 .77 0 1.54.06 2.32l92.35-338.45-1.01-44.42z" class="P"/><path d="M1222.178 581.021c-71.25-71.1-113.15-179.07-140.48-288.14-11.93-47.64-21.62-97.25-18.66-147.06.88-14.8 3-29.94 8-43.24l-81 1.75c-6.28 20.09-6.5 44.25-4.7 66.27 6.09 74.65 27.74 147.2 62.2 208.47 16.81 29.89 36.51 57 56.16 84l38 52.29c26.27 36.13 53.36 73 88.17 95 5.51 3.48 12.33 6.49 17.55 2.37-5.69-13.23-15.84-22.33-25.24-31.71zm52.11 26.97c-36.13-98.45-56.23-204.75-68.23-311.66-6.29-56-10.24-114.47 4.61-168 1.17-4.361 2.61-8.646 4.3-12.83l-71.69-.14c.24.83.47 1.66.68 2.5 3.55 14.1 3.68 29.1 4 43.85 3 151.66 28.26 307.7 100.2 431.25 6.19 10.62 17.16 22.16 26.13 15.03zm16.94-21.07c1.9 3.89 4.63 8 8.26 8 7 0 7.85-12.88 6.3-21.5-7-39-12.08-78.55-15.65-118.29-2.62-29.12-4.44-58.33-5.65-87.59l-26.62-102.45c2 92.87 5.63 185.88 21 276.63 2.64 15.64 5.7 31.53 12.36 45.2z" class="F B"/><g class="P"><path d="M1157.878 245.461c5.32 2.22 7.4 10.09 8.78 16.91 13.65 67.221 31.16 133.601 52.44 198.81 16 48.9 34.81 98.12 66 133.56-1.31-1.48-18.12 11.66-24.72 5.61-7-6.41-12.91-22.75-17.58-31.86a639.83 639.83 0 0 1-31.69-73c-18.34-50.22-31.42-103.31-40.74-157.25-5.28-30.65-9.37-61.64-12.49-92.78zm134.41 309.41a1043.51 1043.51 0 0 1-36.27-226.59c-1-21-1.42-42.28 1.55-63.06 3.07 32.666 6.69 65.283 10.85 97.85 7.81 62.091 20.81 123.418 38.86 183.34 5.56 18.3 11.72 26.53 17.62 39.1.67 1.42 6.57-.53 6.33 1.07-.32 2-2 3.31-3.58 4.12-22.74 11.61-30.14-16.83-35.36-35.83z"/><path d="M1269.508 611.871c1.84 35.59-3.35 71.1-8.51 106.17l-27.1 174.43c-1.21 7.06-2.49 14.26-5.5 20.4l-.5 1a87.84 87.84 0 0 0 17 2.28l.16 8.64c9.73-49.38 17.17-99.46 22.26-149.92 2.48-24.51 4.4-49.1 6.32-73.69l6.12-78.36c.37-4.69.59-10-1.91-13.51s-8.58-2.19-8.34 2.56zm67.39-42.65l-.68-2.61a29.74 29.74 0 0 0-3 2.37l-25.48 22.42c-4.1 3.61-8.3 7.35-11 12.63-2.87 5.58-3.81 12.35-4.56 18.93-3.36 29.54-4.35 59.303-2.94 89l2.47 70.74 46.22-169.38-1.03-44.1zm-128.91 261.98c15.17-58 28.28-116.75 39.33-176.25 2.48-13.34 4.83-27.39 1.81-40.55-3.84.8-5.26 6.71-5.92 11.54-9.4 68.64-27.8 135.32-54.2 196.56 6.02 3.007 12.3 5.435 18.78 7.25.08.48.14.96.2 1.45z"/></g><path d="M1278.328 609.251a4.82 4.82 0 0 0-2.97-1.887c-1.2-.23-2.43.001-3.46.647.51.324.96.745 1.31 1.24 2.5 3.52 2.28 8.81 1.91 13.51l-6.12 78.35-6.32 73.7c-4.79 47.45-11.66 94.57-20.55 141.08l3.25.19.16 8.64c9.72-49.37 17.16-99.45 22.26-149.91 2.47-24.51 4.39-49.11 6.31-73.7l6.13-78.35c.36-4.7.58-9.99-1.91-13.51zm-28.7 5.15c-2 .43-3.37 2.26-4.29 4.6 1.64 11.8-.45 24.16-2.64 36a2480.06 2480.06 0 0 1-38.63 173.52c1.4.46 2.81.89 4.22 1.28l.19 1.45c15.18-58 28.29-116.75 39.34-176.25 2.47-13.38 4.83-27.44 1.81-40.6z" class="F B"/><path d="M1231.248 636.071c2.67.937 5.12 2.391 7.23 4.279s3.82 4.171 5.04 6.721c.45.94.94 2 1.8 2.27 1.58.47 2.52-2.08 3-4.05 1.7-7.78 5.58-15.14 11.37-18.6 1.43-.877 3.01-1.462 4.66-1.722 1.66-.261 3.35-.19 4.97.207 1.63.397 3.16 1.113 4.51 2.106 1.34.993 2.48 2.244 3.34 3.679.37.59.74 1.26 1.32 1.47 1 .36 1.9-.92 2.54-2 6.12-10.29 17-14.26 27.16-15s20.47 1.12 30.61-.46c.38-10.666.52-21.333.43-32 0-2.53-.41-5.69-2.34-6.42a3.77 3.77 0 0 0-2 0c-16 2.68-31.09 10.9-46.3 17.82a318.68 318.68 0 0 1-54.83 19.19 107.59 107.59 0 0 0-11.08 3.12c-7.69 2.82-7.09 10.82-6.61 19.08 5.11-.81 10.09-1.43 15.18.31z" class="B F"/><path d="M1333.668 556.801l-4.58 3.9c-18.08 16.4-39 27.11-60.54 34.72-10.9 3.87-22 7-33.1 9.71-7.63 1.89-24.09 1.75-28.81 10.9-8.32 16.16 15.19 16.47 21.93 14.42 28.48-8.68 56.36-20.11 84.09-31.92 7.74-3.3 15.49-6.63 23-10.58 1.61-.85 3.23-1.75 4.81-2.75a64.81 64.81 0 0 0-1.57-8.17z" class="S"/><path d="M1031.168 107.731c-16.28.3-32.6.95-48.71 3.93-25.4 4.68-35.1 24.66-27.06 55.47.51 1.94 1.19 4 2.65 4.92 2 1.23 4.31-.39 6.21-1.85 14.58-11.13 32.72-14.64 49.28-9.54 11.31 3.48 21.86 10.76 33.42 12.41 13.41 1.91 26.63-3.93 39.74-8 16.91-5.258 34.59-7.604 52.28-6.94 7.32.29 14.73 1.13 21.6 4.31 5.29 2.44 10.19 6.25 15.67 8 11.5 3.59 23.3-2.5 34.56-7.11 6.16-2.564 12.55-4.556 19.08-5.95l-6.45-24.82c-1.51-5.827-3.83-11.415-6.89-16.6-61.73-5.61-123.52-9.38-185.38-8.23z" class="B K"/><path d="M1188.328 90.251h-249.82v56.4h288.6l-3.67-14.11c-2.39-9.196-6.77-17.752-12.84-25.062s-13.67-13.191-22.27-17.228z" class="L"/><g class="B"><path d="M938.508 133.491v13.16h288.6l-3.42-13.16z" class="K"/><path d="M1257.508 278.251l-33-137.91c-.84-3.544-1.95-7.02-3.31-10.4-.66-1.67-1.39-3.3-2.17-4.89-1.92-3.932-4.19-7.678-6.8-11.19l-1.59-2a68.3 68.3 0 0 0-3.36-3.88c-2.06-2.196-4.26-4.251-6.6-6.15-121.39-.78-251.58 3.8-251.58 3.8s5.75 67 13.88 132.63l13.26-1.18c6.06-.54 13.27-.67 17 3.67 1.94 2.28 2.39 5.35 4.19 7.73 2.68 3.52 7.7 4.84 12.32 5.92 18.49 4.29 37.94 8.6 56.46 4.41 7.22-1.63 14.73-4.54 21.81-2.5 6.4 1.85 10.56 7.23 16 10.69s12.46 5 19.2 6c25.94 4 52.49 3.3 78.81 2.55 4.29-.12 20.42-12.13 43.12-2.67 4.36 1.81 8.36 3.51 12.36 5.37z" class="F"/></g><path d="M87.908 966.781c3.15-1.34 6.48-3 8.29-6.55 1.57-3.08 1.69-7 1.76-10.65l.59-33.55c16.77-.77 37.5-5.15 42.58-25.55 4.92-19.75-9.22-40.46-6-60.78 8.301-2.361 16.278-5.74 23.75-10.06 2.08-1.19 4.32-2.72 5.08-5.46.6-2.13.13-4.48-.33-6.66l-42.18-198.31c57.65 4.19 114.54-29.73 155.58-81.54s67.46-120 83.86-190.66c15.14-65.16 29.2-231.42 29.2-231.42l-169.35-3.65-198.47 274.69a64.67 64.67 0 0 0-10.57 23.24l-.67 29.78 44.53 546c11.136-1.47 22.02-4.46 32.35-8.87z" class="P"/><path d="M120.898 581.021c70.23-71.1 111.53-179.07 138.46-288.15 11.77-47.64 21.32-97.25 18.4-147.06-.87-14.8-3-29.94-7.91-43.24l79.82 1.75c6.19 20.09 6.4 44.25 4.63 66.27-6 74.65-27.34 147.2-61.31 208.47-16.56 29.89-36 57-55.35 84l-37.49 52.31c-25.9 36.13-52.6 73-86.91 95-5.43 3.48-12.15 6.49-17.3 2.37 5.69-13.24 15.69-22.34 24.96-31.72zm-51.39 26.91c8.84 7.32 19.65-4.53 25.77-15.48 70.91-126.94 95.79-287.25 98.77-443.06l.23-10.87-52.05 72c-.44 25.77-2.73 51.71-5.47 77.17-11.8 109.89-31.61 219.09-67.25 320.24zm-30.999-34.56c-1.53 8.62-.72 21.5 6.21 21.5 3.57 0 6.27-4.06 8.13-8 6.57-13.67 9.61-29.56 12.23-45.25 13.78-82.75 18-167.4 20.11-252.09l-24.29 33.61c-1 44.07-3.08 88.08-7 131.89-3.51 39.84-8.5 79.33-15.39 118.34z" class="F B"/><g class="P"><path d="M115.586 608.011a28.85 28.85 0 0 0 5.58 2.18h0c-.042-.198-.038-.402.012-.598a1.3 1.3 0 0 1 .759-.881 1.31 1.31 0 0 1 .589-.101c57.06 3.4 113.23-30.36 153.86-81.66 34.22-43.2 58.27-97.83 74.83-155.73-37 85.94-95 157.28-164.31 199.87-17 10.43-34.8 19.27-53.37 22.84zm68.694-362.55c-5.24 2.22-7.29 10.09-8.66 16.91-13.444 67.196-30.698 133.573-51.68 198.81-15.76 48.9-34.31 98.12-65.08 133.56 1.29-1.48 17.86 11.66 24.36 5.61 6.9-6.41 12.73-22.75 17.34-31.86a647.42 647.42 0 0 0 31.23-73c18.07-50.22 31-103.31 40.16-157.25 5.23-30.65 9.25-61.64 12.33-92.78zM56.229 552.271c17.671-67.292 28.196-136.26 31.4-205.76.9-19.1 1.24-38.39-1.33-57.26-2.667 29.687-5.8 59.303-9.4 88.85a1061.08 1061.08 0 0 1-33.65 166.49c-4.81 16.61-10.15 24.09-15.26 35.5-.58 1.29-5.69-.48-5.47 1 .184.825.561 1.595 1.1 2.247s1.224 1.167 2 1.503c19.69 10.48 26.06-15.33 30.61-32.57zm18.019 59.599c-1.82 35.59 3.3 71.1 8.39 106.17l26.71 174.43c1.19 7.06 2.45 14.26 5.42 20.4.15.33.32.65.49 1-5.497 1.29-11.108 2.03-16.75 2.211l-.15 8.64c-9.59-49.381-16.93-99.461-22-149.921l-6.22-73.69-6-78.36c-.36-4.69-.58-10 1.88-13.51s8.49-2.12 8.23 2.63z"/><path d="M51.926 622.961c-.74-6.58-1.66-13.35-4.49-18.93-2.68-5.28-6.82-9-10.86-12.63l-13.33-11.9 30.26 370.37c-2.79-79.24-2.34-158.66 1.36-237.84 1.376-29.721.393-59.504-2.94-89.07zm82.963 208.24c-14.96-58-27.884-116.75-38.77-176.25-2.44-13.34-4.77-27.39-1.79-40.55 3.79.8 5.19 6.71 5.84 11.54 9.27 68.64 27.41 135.32 53.43 196.56a103.77 103.77 0 0 1-18.52 7.25l-.19 1.45z"/></g><path d="M65.509 609.251c.697-.98 1.743-1.655 2.923-1.886a4.69 4.69 0 0 1 3.417.646 4.47 4.47 0 0 0-1.29 1.24c-2.46 3.52-2.25 8.81-1.88 13.51l6 78.35 6.23 73.7c4.79 47.45 11.6 94.57 20.32 141.06l-3.2.19-.15 8.64c-9.59-49.37-16.92-99.45-22-149.91l-6.22-73.7-6-78.35c-.35-4.68-.57-9.97 1.85-13.49zm28.342 5.15c2 .43 3.31 2.26 4.22 4.6-1.62 11.8.45 24.16 2.6 36 10.7 58.52 23.393 116.36 38.08 173.52a86.77 86.77 0 0 1-4.16 1.28l-.19 1.45c-14.96-58-27.884-116.75-38.77-176.25-2.44-13.38-4.76-27.44-1.78-40.6z" class="F B"/><path d="M36.168 615.451c10.05.74 20.74 4.71 26.77 15 .63 1.07 1.49 2.35 2.51 2 .56-.21.93-.88 1.29-1.47.833-1.43 1.945-2.678 3.27-3.671s2.835-1.709 4.442-2.107 3.277-.47 4.912-.211 3.201.844 4.606 1.719c5.71 3.46 9.54 10.82 11.21 18.6.42 2 1.36 4.52 2.91 4.05.84-.25 1.33-1.33 1.78-2.27a21.29 21.29 0 0 1 12.09-11c5-1.74 9.93-1.12 15-.3.47-8.26 1.06-16.26-6.52-19.08-3.585-1.242-7.233-2.29-10.93-3.14-18.552-4.721-36.629-11.145-54-19.19-10.66-4.92-21.25-10.49-32.16-14.27l2.88 35.25a95.26 95.26 0 0 1 9.94.09z" class="B K"/><path d="M114.598 630.451c6.65 2 29.82 1.74 21.62-14.42-4.65-9.15-20.88-9-28.4-10.9a340.24 340.24 0 0 1-32.63-9.71c-18.59-6.68-36.78-15.75-53-28.95l2.32 28.93 7.17 3.13c27.37 11.81 54.83 23.24 82.92 31.92z" class="S"/><path d="M181.619 162.461c6.77-3.18 14.08-4 21.29-4.31a151.98 151.98 0 0 1 51.53 6.94c12.92 4.05 25.95 9.89 39.17 8 11.4-1.65 21.8-8.93 32.94-12.41 16.33-5.1 34.21-1.59 48.57 9.54 1.88 1.46 4.16 3.08 6.13 1.85 1.44-.89 2.11-3 2.61-4.92 7.92-30.81-1.63-50.79-26.67-55.47-15.88-3-32-3.63-48-3.93-31.29-.59-62.58.12-93.84 1.7l-41.4 57.31c2.56-1.5 5.05-3.07 7.67-4.3z" class="B K"/><path d="M400.508 90.251h-171.32l-40.75 56.4h212.07z" class="L"/><g class="B"><path d="M400.508 133.491h-202.56l-9.51 13.16h212.07z" class="K"/><path d="M91.508 283.461c31 4 64.5 8.75 96.2 4.41 14.94-2 29.07-7.68 41.89-15.62 7.83-4.85 16.53-6 26.26-3 3.185.962 6.464 1.579 9.78 1.84 13.45 1.13 28.52.21 42.07-3.57 9.25-2.57 17.18-8.25 23.5-15.48 3.59-4.11 8.92-5.72 15.59-5 1.45.16 2.91.21 4.37.24 7.72.14 15.73 1 23.85 1.93 8.73-68.9 15.05-143.63 15.05-143.63l-168.74-3.64z" class="F"/></g><g class="P"><path d="M267.798 36.811l-160.29 221.84c9.75 1.25 16.5 5.06 19 5.1 26.31.36 52.83.72 78.67-3.33 6.71-1.05 13.55-2.47 19.08-5.78s9.49-8.26 15.85-10c7-2 14.58.61 21.82 2 18.57 3.63 37.92-.58 56.32-4.76 4.59-1 9.59-2.32 12.2-5.6 1.76-2.21 2.16-5 4.06-7.17 3.6-4 10.8-4 16.86-3.58l55.89 3.89c13.69.95 28.61 1.65 39.93-4.75 5.18-2.93 9.17-7.15 14.47-9.93 23.29-12.24 54.12 8.83 80.78 2.86 14.46-3.23 25.36-14.06 40.12-16.19 9.45-1.36 19 1.08 28.33 3 22.164 4.484 44.824 6.018 67.39 4.56l1-57.26a19.23 19.23 0 0 0-.79-7l-.58-103.38-352-31a64.69 64.69 0 0 0-32.55 5.57 64.68 64.68 0 0 0-25.56 20.91z"/><path d="M646.25 151.791l2 57.24c22.57 1.171 45.195-.644 67.29-5.4 9.28-2 18.8-4.56 28.28-3.32 14.79 1.95 25.89 12.64 40.41 15.69 26.77 5.63 57.21-15.82 80.72-3.87 5.35 2.72 9.42 6.89 14.648 9.76 11.44 6.25 26.35 5.36 40 4.24l55.81-4.58c6-.5 13.25-.61 16.93 3.38 1.94 2.1 2.39 4.92 4.19 7.11 2.67 3.25 7.69 4.46 12.31 5.45 18.47 3.95 37.89 7.92 56.39 4.06 7.21-1.5 14.71-4.18 21.79-2.3 6.38 1.7 10.54 6.66 16 9.84s12.45 4.57 19.18 5.54c25.91 3.73 52.42 3 78.72 2.35 4.28-.11 20.39-11.16 43.07-2.46 4.4 1.69 8.41 3.26 12.36 5l-33-126.94a64.7 64.7 0 0 0-3.3-9.57 62.19 62.19 0 0 0-2.17-4.5c-1.93-3.641-4.21-7.09-6.8-10.3-.51-.64-1-1.26-1.58-1.88-1.07-1.227-2.19-2.417-3.36-3.57a64.93 64.93 0 0 0-7.47-6.32c-1.33-.96-2.69-1.867-4.07-2.72-8.54-5.254-18.2-8.445-28.19-9.32L646.11 38.471l.81 106.29c-.659 2.281-.886 4.665-.67 7.03z"/></g><path d="M257.447 213.101c1.32 10.18 2.78 23.59 2.52 33.81 5.6-.16 11.39-1.37 17-.28 8 1.57 16.21-1.33 24.4-2.05-1.64-3-3-3.18-4.28-6.29-22.51-54.57-35.13-131.88-37.4-189.47l-9.74 13.46c-.63 43.68 1.87 107.39 7.5 150.82zm228.59-179.07a904.15 904.15 0 0 1-5 168.06c-.5 4-.73 3-1.56 7.16 25 5 36.86 7 56.71 10.38-2.033-1.875-3.903-3.919-5.59-6.11-7.52-9.8-11.6-21.78-14.65-33.75-8.63-33.83-10-69.14-8.37-104 .79-16.81 1.87-32.89-1.89-49l-20-1.76a89.05 89.05 0 0 0 .35 9.02zm-135.529 191.19c3.82-3.8 10.35-.75 15.92-.28l34.16 2.93c-2.067-2.544-3.971-5.216-5.7-8-8.7-14-13.11-30.24-16.3-46.42-6.6-33.56-8.39-67.86-10.17-102l-2.18-57.19h-4.56c-16.67 70.42-3.34 138.61-11.17 210.96zm249.898-23.89c8.53-.71 17.12 1.88 25.51 4 8.066 1.981 16.24 3.49 24.48 4.52-13.969-56.852-22.227-114.957-24.65-173.45l-18.78-1.66-1 121c-.1 15.35-.31 31.19-5.56 45.59zm440.482 41.47c8.14.732 16.35.312 24.38-1.25 5.58-1.16 11.34-3 16.94-2.93-.45-10.21.82-20.64 2-30.84 4.81-43.233 6.52-86.753 5.13-130.23l-10.45-.92c-2.68 53.768-14.1 106.74-33.83 156.83a99.22 99.22 0 0 1-4.17 9.34zM831.95 97.071c2.16 28.71 1.31 57.83-6.8 85.81-2.87 9.91-6.77 19.83-14.14 28a44.77 44.77 0 0 1-5.49 5.11c19.79-3.05 40-11.85 57-5-.9-3.41-1.58-6.84-2.14-10.17-7.705-45.717-10.225-92.158-7.51-138.44.11-1.86.2-3.77.23-5.68l-20-1.77c-3.59 13.36-2.2 28.26-1.15 42.14zm130.558 82.2c-2.94 13.37-7.1 26.8-15.59 38.45-1.71 2.333-3.57 4.548-5.58 6.63l34.14-2.8c5.57-.46 12.1-.58 16 2.5-7.74-51.48 1.06-104.91-7.88-155.82l-11.19-1-1.24 27.83c-1.32 28.18-2.59 56.46-8.66 84.21zm-256.34 26.4c14.53-52.39 22-104.1 22.32-157.84l18-.23 3.23 114.91c.36 12.7.81 25.74 6.27 37.55-8.54-.48-17.09-2.24-25.45-.43-8.03 1.74-16.15 5.08-24.37 6.04zm469.34 51.83l25.53-.52c2.42-.06 8.63-3.62 17.67-5.13-.23-2.26-.37-4.53-.5-6.77l-7.92-138c-5.58-6.63-12.43-12.071-20.15-16-3.43 55.79 10.57 114.79-14.63 166.42z" class="F B"/><path d="M665.039 539.183c0 4.149-2.161 7.563-4.775 7.563s-4.775-3.371-4.775-7.563 2.161-7.563 4.775-7.563 4.775 3.403 4.775 7.563z" class="G"/><use xlink:href="#B" class="C"/><use xlink:href="#B" class="E F"/><use xlink:href="#C" class="C"/><use xlink:href="#C" opacity=".4" class="E"/><g class="C"><use xlink:href="#D"/><use xlink:href="#E"/><path d="M677.327 694.166h-36.863v262.793h36.863z"/></g><g class="E"><path d="M646.05 694.166h-5.586v262.793h5.586zm31.276 0h-5.586v262.793h5.586z" class="F"/><use xlink:href="#D" class="K"/></g><path d="M701.191 732.228l.432-51.47h-85.459l.432 51.47z" class="B F"/><use xlink:href="#F" fill="url(#A)"/><use xlink:href="#F" class="C"/><use xlink:href="#F" class="E K"/><path d="M747.701 656.741H570.075v24.017h177.627z" class="B F"/><use xlink:href="#G" class="C"/><g class="E"><use xlink:href="#E" class="K"/><use xlink:href="#G" opacity=".09"/></g><use xlink:href="#H" class="C"/><use xlink:href="#H" class="E F"/><path d="M503.707 558.177l6.979-29.775 38.645 8.395a10.27 10.27 0 0 0 4.548-.184l2.064-.54c.488-.003.973-.083 1.437-.238l22.937-5.099a23.48 23.48 0 0 1 7.465-.659l29.235 2.366c.576.051 1.114.307 1.516.722a2.41 2.41 0 0 1 .677 1.536c-.049.642-.337 1.24-.808 1.679s-1.088.684-1.731.687l-27.345.281 27.723 6.309a2.29 2.29 0 0 1 .905.354 2.28 2.28 0 0 1 .675.699c.173.279.283.592.323.917s.011.656-.089.968c-.179.622-.567 1.164-1.099 1.533a2.82 2.82 0 0 1-1.818.498l-27.269-2.874 24.644 2.561a2.33 2.33 0 0 1 .899.245 2.31 2.31 0 0 1 .731.579c.202.24.352.519.444.819s.12.616.086.928c-.077.657-.39 1.262-.882 1.704a2.71 2.71 0 0 1-1.787.695l-24.406.076h20.97a1.9 1.9 0 0 1 .756.116c.241.091.461.228.648.406s.334.392.434.63a1.92 1.92 0 0 1 .149.75c.011.27-.037.539-.134.791a2.02 2.02 0 0 1-.431.676c-.187.194-.412.349-.659.455s-.515.162-.785.163l-27.291-.292c-.119.508 0 0 0 0-13.915 1.491-27.582 0-33.492.4-2.723.162-5.402.411-8.189.432z" class="V"/><path d="M613.452 547.891l-23.142-4.613m-2.548 7.833l21.446 1.739" class="D I J Q" stroke-width="1.38"/><path d="M610.482 556.718a1.75 1.75 0 0 0 0-.475l-21.705-1.556-37.295-1.837-46.64.583-1.08 4.7h37.284l8.351-.4c6.072-.357 20.138.843 34.302-.67l25.054.529c1.199.032 1.739.367 1.729-.875z" class="B R"/><path d="M741.477 508.403l-6.428-16.822-32.876 4.008c-1.202.371-2.471.473-3.717.303l-1.739-.238c-.398.063-.802.063-1.199 0l-19.134-1.837c-2.047-.267-4.124-.194-6.147.216l-23.563 4.797a1.95 1.95 0 0 0-1.188.781c-.285.4-.408.892-.346 1.38.1.517.393.979.821 1.288s.957.443 1.48.376l22.288-2.528-21.921 7.93c-.259.075-.499.204-.703.38s-.367.394-.48.64-.169.512-.169.782a1.87 1.87 0 0 0 .174.78 2.33 2.33 0 0 0 1.052 1.134c.469.247 1.009.327 1.53.227l21.856-5.143-19.804 4.57a1.88 1.88 0 0 0-.711.282 1.9 1.9 0 0 0-.54.542c-.14.216-.236.458-.279.712a1.88 1.88 0 0 0 .028.765c.129.528.445.991.891 1.301a2.22 2.22 0 0 0 1.529.385l19.868-2.398-17.07 2.085c-.212.013-.419.069-.607.166s-.355.231-.489.396-.233.354-.29.559-.07.419-.04.629c.02.219.084.433.188.628s.245.366.416.505a1.65 1.65 0 0 0 .58.304c.212.062.433.081.653.055l22.159-2.993c.14.4 0 0 0 0 11.485-.184 22.461-2.766 27.345-3.068 2.236-.13 4.484-.205 6.709-.465z" class="M"/><path d="M651.095 511.104l18.367-6.093m2.861 6.115l-17.286 3.565" class="D I J Q" stroke-width="1.13"/><g class="B"><path d="M654.399 517.986a1.65 1.65 0 0 1 0-.4l17.502-3.446 30.164-5.218 38.03-4.224 1.361 3.706-30.413 3.771-6.839.508c-4.981.324-16.314 2.712-28.004 2.917l-20.257 2.96c-1.026.108-1.426.443-1.545-.573z" class="R"/><path d="M676.387 516.041c.14.4 0 0 0 0z" class="R"/></g><path d="M412.684 963.073a28.94 28.94 0 0 1 1.318 10.523l.097 29.613c-.215 5.164-1.648 10.21-4.181 14.715l-.616 1.015a8.51 8.51 0 0 1-3.091 3.166 8.45 8.45 0 0 1-4.266 1.156h-8.481c-1.898-.022-3.736-.67-5.23-1.837a8.68 8.68 0 0 1-3.035-4.646 30.91 30.91 0 0 1-.432-13.408l7.152-31.666a36.78 36.78 0 0 1 2.55-8.578z" class="C"/><g class="T"><path d="M436.237 337.399l-1.08 37.63a7.03 7.03 0 0 1-1.514 4.074c-.922 1.165-2.189 2.007-3.618 2.408l-4.322 1.394 9.821 5.823a36.59 36.59 0 0 0 15.848 5.327 36.6 36.6 0 0 0 16.563-2.281 35.59 35.59 0 0 0 5.618-2.733l10.674-5.877-4.808-1.858a6.95 6.95 0 0 1-3.398-2.168c-.895-1.041-1.461-2.325-1.626-3.687l-4.916-44.739z"/><path d="M462.888 367.985l-1.783.108c-3.041.133-6.079-.335-8.94-1.376a23.16 23.16 0 0 1-13.076-11.993 23.17 23.17 0 0 1-2.141-8.789l-1.35-32.52c-.042-1.017.117-2.031.468-2.985s.885-1.831 1.574-2.579 1.52-1.352 2.443-1.778a7.75 7.75 0 0 1 2.938-.707l30.413-1.361a10.06 10.06 0 0 1 10.458 9.626l1.264 30.251a23.38 23.38 0 0 1-6.194 16.614c-4.167 4.51-9.94 7.2-16.073 7.489z"/></g><path d="M460.394 334.947c.498.002.985-.144 1.401-.418s.74-.668.931-1.128.244-.966.148-1.455-.335-.939-.686-1.292a2.53 2.53 0 0 0-1.289-.691 2.52 2.52 0 0 0-1.456.142c-.46.19-.854.512-1.131.927a2.52 2.52 0 0 0-.425 1.399c0 .667.264 1.305.734 1.776a2.51 2.51 0 0 0 1.773.741z" class="G"/><path d="M461.472 332.451a.54.54 0 0 0 .202-.037c.064-.026.123-.064.172-.111a.53.53 0 0 0 .116-.17c.027-.064.04-.133.04-.201a.54.54 0 0 0-.54-.54.54.54 0 0 0-.54.54c0 .07.014.14.042.205s.07.124.121.173.113.086.179.11a.53.53 0 0 0 .209.03z" class="E"/><path d="M479.94 334.947c.498 0 .984-.147 1.398-.424s.737-.67.927-1.13a2.51 2.51 0 0 0 .144-1.454 2.52 2.52 0 0 0-1.978-1.978 2.51 2.51 0 0 0-1.454.144c-.46.19-.853.513-1.13.927s-.424.901-.424 1.398a2.52 2.52 0 0 0 2.517 2.517z" class="G"/><path d="M480.975 332.332c.069.001.138-.011.202-.037a.49.49 0 0 0 .172-.111.52.52 0 0 0 .116-.17c.027-.064.04-.132.04-.201a.53.53 0 0 0-.154-.375c-.099-.098-.234-.154-.375-.154-.068 0-.137.014-.201.04a.52.52 0 0 0-.17.116c-.048.05-.085.108-.111.172a.54.54 0 0 0-.037.202.53.53 0 0 0 .037.2.5.5 0 0 0 .112.17c.049.049.106.087.17.112a.51.51 0 0 0 .2.037z" class="E"/><g class="B"><path d="M470.832 347.08l-3.338.313a.73.73 0 0 1-.286-.014.75.75 0 0 1-.26-.123.74.74 0 0 1-.153-1.031.74.74 0 0 1 .484-.291l3.338-.324a1.5 1.5 0 0 0 .569-.171 1.53 1.53 0 0 0 .459-.377c.126-.154.22-.333.278-.525s.077-.392.055-.591c-.056-.405-.257-.776-.564-1.046s-.701-.419-1.111-.424a.73.73 0 0 1-.547-.137.73.73 0 0 1-.193-.213c-.05-.083-.082-.175-.097-.271s-.009-.193.015-.287.065-.183.122-.259.131-.144.214-.193a.74.74 0 0 1 .27-.097c.788-.061 1.568.189 2.173.696a3.02 3.02 0 0 1 1.069 2.016c.103.388.117.794.041 1.188s-.241.766-.481 1.088-.549.586-.905.771a2.67 2.67 0 0 1-1.151.301z" opacity=".023"/><path d="M435.945 347.285h3.554l-3.76 7.563zm37.489 17.632a25.82 25.82 0 0 1-11.884 3.241h-2.809a3.48 3.48 0 0 1-1.08-.108h-.205c-.519-.108-1.08-.108-1.675-.205-.205 0-.411-.108-.616-.108a23.97 23.97 0 0 1-8.168-2.874.69.69 0 0 0-.52-.106.67.67 0 0 0-.439.299.69.69 0 0 0-.098.253c-.016.09-.012.183.011.271a.68.68 0 0 0 .313.428 26.75 26.75 0 0 0 10.674 3.457 20.63 20.63 0 0 0 12.23 4.181c1.759.005 3.511-.204 5.218-.627z" class="D"/></g><path d="M525.909 812.435l3.306 136.345c0 5.207 1.329 10.717 3.371 13.483l24.708 42.999-5.715 7.833-22.375-11.139-19.912-35.945c.097-6.137-.616-9.799-1.642-18.075l-19.339-142.06z" class="T"/><path d="M472.723 351.045a.47.47 0 0 1 .211.057.46.46 0 0 1 .161.148c.041.062.067.131.076.204s0 .148-.026.217a7.2 7.2 0 0 1-2.655 2.97 7.19 7.19 0 0 1-7.656 0 7.2 7.2 0 0 1-2.655-2.97c-.108-.324 0-.627.421-.627zm7.841-26.027c-1.503.139-2.958.603-4.263 1.361a10.41 10.41 0 0 0-3.3 3.025 9.3 9.3 0 0 0-6.277.108 10 10 0 0 0-4.018-3.748c-1.664-.85-3.531-1.218-5.392-1.06a10.12 10.12 0 0 0-5.474 2.138c-1.573 1.238-2.744 2.916-3.364 4.82a10.12 10.12 0 0 0 3.048 10.829c1.521 1.301 3.395 2.122 5.384 2.358a10.13 10.13 0 0 0 5.787-1.031 10.12 10.12 0 0 0 5.5-9.812 11.85 11.85 0 0 0-.843-3.241c1.623-.537 3.369-.575 5.013-.108a10.11 10.11 0 0 0-1.072 4.488 10.06 10.06 0 0 0 1.033 4.497 10.1 10.1 0 0 0 2.924 3.57 10.12 10.12 0 0 0 8.816 1.734 10.12 10.12 0 0 0 4.057-2.197c1.166-1.036 2.075-2.326 2.659-3.772s.825-3.006.707-4.559a10.33 10.33 0 0 0-3.551-6.92 10.32 10.32 0 0 0-7.371-2.479zm-21.532 18.496a8.75 8.75 0 0 1-4.96-1.096 8.76 8.76 0 0 1-3.517-3.665 8.74 8.74 0 0 1-.888-5.001 8.75 8.75 0 0 1 2.04-4.652c1.125-1.315 2.613-2.268 4.279-2.736s3.433-.433 5.079.102a8.76 8.76 0 0 1 4.166 2.906 8.75 8.75 0 0 1 1.85 4.731 8.76 8.76 0 0 1-8.049 9.41zm23.088.432a8.77 8.77 0 0 1-4.968-1.097 8.76 8.76 0 0 1-4.408-8.681 8.75 8.75 0 0 1 2.045-4.659 8.76 8.76 0 0 1 9.374-2.63c1.647.538 3.097 1.553 4.169 2.915a8.76 8.76 0 0 1 1.846 4.741 8.78 8.78 0 0 1-2.087 6.368 8.79 8.79 0 0 1-5.972 3.042z" class="E"/><path d="M524.247 773.163l4.592 152.227h-.378l.691 23.585c.097 3.781.821 9.799 3.371 13.483l24.708 42.999-3.479 5.823-24.687-43.507c-2.689-4.646-4.653-9.669-5.823-14.909l-2.615-19.717-.972-8.449-8.913-151.535z" class="B D"/><path d="M568.94 1012.501l-11.744-7.141c-4.176.691-8.457.27-12.419-1.221a24.21 24.21 0 0 1-10.15-7.26l-25.432-30.845c-4.609 9.832-6.242 20.808-4.7 31.558l3.673 25.53h3.003l.821-26.243a1.99 1.99 0 0 1 .394-1.178c.251-.346.602-.605 1.006-.745.403-.13.838-.14 1.246-.011a2.03 2.03 0 0 1 1.027.702l15.514 18.993a23.4 23.4 0 0 0 8.014 6.353c3.109 1.491 6.513 2.269 9.963 2.29h24.211a2.68 2.68 0 0 0 1.255-.313c.387-.205.715-.497.958-.864s.392-.778.434-1.221a2.64 2.64 0 0 0-.196-1.275 13.17 13.17 0 0 0-6.882-7.109z" class="C"/><path d="M433.578 348.268s-11.116-.292-12.315-11.376 12.543-11.765 13.3-.562l.248 12.165z" class="T"/><path d="M425.26 331.479c.501-.314 1.062-.523 1.648-.613s1.183-.057 1.756.094a4.05 4.05 0 0 1 1.47.917c.417.408.741.903.95 1.449.662 1.369.927 2.897.767 4.408l-.108 1.145c-.054.843-1.577.983-1.48-.065v-1.264c.095-1.236-.105-2.476-.583-3.619-.11-.385-.313-.737-.591-1.025a2.46 2.46 0 0 0-1.003-.629c-.38-.124-.785-.154-1.18-.086s-.767.232-1.084.476a.81.81 0 0 1-.557.034c-.185-.055-.342-.174-.447-.336a.87.87 0 0 1 .076-.516c.08-.159.209-.288.367-.37z" class="B D"/><path d="M433.104 344.465c.071-.418.018-.848-.152-1.236a2.16 2.16 0 0 0-.809-.946c-.357-.229-.772-.349-1.197-.344s-.836.136-1.187.375a2.16 2.16 0 0 0-.783.967c-.161.393-.203.824-.12 1.24a2.15 2.15 0 0 0 .583 1.099 2.16 2.16 0 0 0 1.957.599 2.16 2.16 0 0 0 .795-.333c.24-.164.444-.374.602-.618a2.18 2.18 0 0 0 .312-.804z" class="C"/><path d="M431.549 346.075a2.39 2.39 0 0 1-1.638-.869c-.201-.246-.351-.53-.441-.836s-.118-.626-.082-.942c.077-.431.267-.834.552-1.167a2.41 2.41 0 0 0-.775.717 2.42 2.42 0 0 0-.393.979 2.09 2.09 0 0 0 .077.861c.083.279.221.537.407.762s.415.408.673.541a2.17 2.17 0 0 0 .832.234 1.94 1.94 0 0 0 1.328-.281.8.8 0 0 0-.54 0z" class="B D"/><path d="M413.805 949.698c-1.255 10.642-1.804 21.348-1.642 32.066l.205 12.759a10.46 10.46 0 0 1-3.17 7.152 10.44 10.44 0 0 1-7.245 2.96h-1.729c-1.493 0-2.969-.313-4.328-.929-1.359-.627-2.569-1.523-3.548-2.658-.979-1.124-1.703-2.452-2.124-3.879a10.43 10.43 0 0 1-.318-4.419l2.96-15.125a94.53 94.53 0 0 0 1.631-23.38l-1.08-168.8 35.944 3.554z" class="T"/><path d="M488.658 312.766l-10.058-14.304-11.517 7.563c7.444 0 15.352 1.372 16.822 11.128l.421 6.752z" class="G"/><path d="M427.897 788.926l-11.69 138.149h-.324l-3.306 35.912c-.411 6.223-.519 12.457-.411 18.691l.205 12.759a10.38 10.38 0 0 1-2.986 6.947 10.37 10.37 0 0 1-6.91 3.068c4.905-3.781 4.494-9.907 4.602-14.51l.821-56.061.681-8.513 7.098-137.663z" class="B D"/><path d="M385.989 421.507c-1.707-14.693 3.652-19.944 3.652-19.944l48.261 46.37s9.151 50.303 11.636 50.324c0 0-24.233 24.611-32.919 13.213-14.639-19.123-28.933-75.303-30.629-89.964z" class="C"/><path d="M449.286 498.042s-3.544-6.255-8.816-36.539c-.583-3.392-2.55-13.537-2.55-13.537l-16.832-12.511c-.215-.163-.476-.25-.745-.247a1.21 1.21 0 0 0-1.164.924 1.21 1.21 0 0 0 .072.782l16.552 56.515c.929 2.323 13.483 4.613 13.483 4.613z" class="B D"/><path d="M490.202 486.352l23.909 73.466-123.488-.745c2.301-33.222-3.09-85.459-4.538-93.173-5.791-30.813-5.64-50.541-5.64-50.541-.627-12.543 7.563-24.266 19.447-27.01l28.825-6.05 54.646.616 16.065 2.831c12.543 3.976 5.305 14.845 5.11 27.993l-2.161 16.692z" class="E"/><path d="M460.393 377.644a11.04 11.04 0 0 0 10.21-6.812 11.04 11.04 0 0 0-2.391-12.038 11.04 11.04 0 0 0-12.039-2.391c-2.017.836-3.741 2.254-4.955 4.071a11.04 11.04 0 0 0-1.856 6.139 11.03 11.03 0 0 0 3.231 7.799c2.068 2.069 4.874 3.231 7.799 3.231z" class="G"/><path d="M693.758 501.402c-4.181-.702-17.286-6.331-17.286-6.331-1.966-1.567-1.966-3.144-1.675-4.127a1 1 0 0 1 .209-.361c.094-.105.209-.188.337-.246a1.01 1.01 0 0 1 .816-.009c3.403 1.372 16.476 2.431 16.476 2.431l19.771 4.429-6.201 3.059z" class="M"/><path d="M513.05 355.939c2.693-2.293 4.475-5.473 5.024-8.967a14.92 14.92 0 0 0-2.389-11.169c-2.246-3.26-5.695-5.493-9.587-6.209a14.92 14.92 0 0 0-11.169 2.389c-3.26 2.246-5.493 5.695-6.209 9.587-.502 2.423-.392 4.933.321 7.302s2.007 4.525 3.763 6.267a11.74 11.74 0 0 0-4.051 4.451c-1.841-2.481-4.407-4.329-7.342-5.29s-6.099-.986-9.05-.074a14.93 14.93 0 0 0-7.427 5.172c-1.881 2.45-2.954 5.426-3.072 8.512s.725 6.134 2.414 8.722 4.138 4.587 7.011 5.723 6.027 1.352 9.029.618 5.7-2.381 7.725-4.715a7.08 7.08 0 0 1 3.404-2.193c1.325-.385 2.732-.373 4.05.032 1.157.368 2.362.565 3.576.583 2.377.029 4.705-.668 6.675-1.999a11.66 11.66 0 0 0 4.345-5.445 11.82 11.82 0 0 0 .573-6.482c-.244-1.246-.151-2.535.269-3.733s1.151-2.263 2.119-3.084z" class="G"/><path d="M436.623 337.086l-1.35 38.127a7.14 7.14 0 0 1-1.575 4.085c-.941 1.163-2.222 2.001-3.665 2.397l-4.322 1.199 13.073 7.757c4.847 3.052 10.332 4.943 16.03 5.524s11.452-.163 16.814-2.175h.065c3.248-1.263 6.18-3.221 8.589-5.737l4.765-4.937-4.862-1.404a7.03 7.03 0 0 1-3.423-2.225c-.897-1.063-1.457-2.368-1.612-3.75l-4.624-45.376z" class="W"/><path d="M508.797 330.733c-5.985-3.241-11.214-6.482-10.804-12.576.119-1.599.594-4.322.594-4.322l-8.362-6.828-17.708-2.161-2.755 48.509 20.614 10.296z" class="G"/><path d="M463.429 368.277l-1.804.097a23.49 23.49 0 0 1-9.056-1.473c-2.892-1.081-5.543-2.723-7.8-4.83a23.49 23.49 0 0 1-5.353-7.451c-1.277-2.812-1.986-5.848-2.088-8.934l-1.08-32.952c-.037-1.03.129-2.056.489-3.021s.906-1.849 1.61-2.602 1.547-1.36 2.485-1.786 1.95-.661 2.979-.695l30.823-1.134c2.698-.091 5.32.892 7.293 2.733s3.135 4.39 3.23 7.087l1.08 30.629a23.68 23.68 0 0 1-22.807 24.33z" class="W"/><path d="M461.171 334.785c.505 0 .997-.149 1.417-.429s.745-.678.939-1.144a2.56 2.56 0 0 0 .145-1.474c-.098-.495-.341-.949-.698-1.305a2.55 2.55 0 0 0-2.779-.553 2.55 2.55 0 0 0-1.144.939c-.28.419-.43.913-.43 1.416a2.55 2.55 0 0 0 .748 1.803c.478.479 1.126.747 1.802.747z" class="G"/><path d="M462.221 332.246a.54.54 0 0 0 .54-.54.54.54 0 0 0-.54-.54.54.54 0 0 0-.54.54.54.54 0 0 0 .54.54z" class="E"/><path d="M690.332 459.591H584.065v141.693h106.267z" class="C"/><path d="M683.245 466.938h-92.103v127.001h92.103z" class="E"/><path d="M600.596 502.882h73.207m-73.207 4.333h73.207m-73.207 14.174h73.207m-49.675-9.842h49.676m-73.208 0h17.956m31.72 4.721h-49.676m73.205 0h-17.967M600.596 526.5h73.207m-73.207 4.332h73.207m-73.207 14.175h73.207m-49.675-9.843h49.676m-73.208 0h17.956m31.72 4.722h-49.676m49.676 10.231h-49.676m73.205-10.231h-17.967" stroke-width=".73" class="I J Q"/><g class="C"><path d="M659.737 579.59c4.898 0 8.87-3.972 8.87-8.87s-3.971-8.87-8.87-8.87-8.87 3.972-8.87 8.87 3.972 8.87 8.87 8.87z"/><path d="M662.209 580.368c-.488-.027-.969-.13-1.426-.303-.325-.156-.682-.237-1.043-.237s-.717.081-1.043.237a3.35 3.35 0 0 1-2.064.205 3.31 3.31 0 0 1-1.577-1.415 2.28 2.28 0 0 0-.675-.771c-.281-.202-.604-.337-.945-.395a3.39 3.39 0 0 1-1.815-1.08 3.24 3.24 0 0 1-.454-2.042c.024-.362-.011-.726-.086-1.08-.13-.308-.305-.595-.519-.854a2.65 2.65 0 0 1-.639-.892 2.66 2.66 0 0 1-.226-1.074c0-.369.077-.735.226-1.074a2.67 2.67 0 0 1 .639-.892c.211-.255.386-.539.519-.843a3.82 3.82 0 0 0 .086-1.08 3.24 3.24 0 0 1 .454-2.042 3.46 3.46 0 0 1 1.815-1.08c.335-.084.656-.218.951-.4a3.75 3.75 0 0 0 .67-.767 3.32 3.32 0 0 1 1.577-1.415c.693-.15 1.414-.079 2.064.205.325.157.682.238 1.043.238a2.4 2.4 0 0 0 1.043-.238c.649-.284 1.371-.355 2.064-.205a3.32 3.32 0 0 1 1.577 1.415c.184.287.409.547.67.767.294.184.615.319.951.4.704.158 1.341.537 1.815 1.08a3.24 3.24 0 0 1 .454 2.042c-.023.363.011.727.086 1.08a3.54 3.54 0 0 0 .519.843c.272.251.489.554.639.892s.226.704.226 1.074a2.66 2.66 0 0 1-.226 1.074c-.149.339-.366.643-.639.892-.214.258-.389.546-.519.854-.081.354-.11.718-.086 1.08a3.24 3.24 0 0 1-.486 2.053 3.39 3.39 0 0 1-1.815 1.08c-.334.09-.654.224-.951.4a3.46 3.46 0 0 0-.67.767 3.31 3.31 0 0 1-1.577 1.415c-.197.057-.401.086-.605.086zm-2.474-1.945c.507.027 1.006.133 1.48.313.377.165.789.236 1.199.205.368-.217.671-.53.875-.908.266-.412.597-.777.983-1.08a4.73 4.73 0 0 1 1.34-.605 1.33 1.33 0 0 0 .622-.138 1.34 1.34 0 0 0 .487-.409c.127-.174.211-.376.243-.589a1.35 1.35 0 0 0-.056-.635 4.6 4.6 0 0 1 .162-1.48c.177-.447.421-.866.724-1.242.296-.315.498-.709.583-1.134-.098-.404-.299-.776-.583-1.08a3.5 3.5 0 0 1-.732-1.267c-.152-.469-.205-.965-.153-1.455.069-.203.089-.421.056-.634s-.116-.415-.243-.589-.295-.314-.487-.411a1.35 1.35 0 0 0-.622-.138 4.67 4.67 0 0 1-1.34-.605 4.4 4.4 0 0 1-.983-1.08c-.292-.411-.573-.799-.875-.897a2.38 2.38 0 0 0-1.199.194c-.465.206-.967.313-1.475.313s-1.01-.107-1.475-.313a2.38 2.38 0 0 0-1.199-.194c-.303.097-.583.486-.875.897-.252.425-.588.793-.987 1.084a3.61 3.61 0 0 1-1.335.602 2.38 2.38 0 0 0-1.08.551c-.171.384-.233.805-.184 1.221.051.49-.001.986-.154 1.455s-.402.901-.731 1.267a1.4 1.4 0 0 0-.43.497c-.102.198-.154.416-.154.637s.053.441.154.639a1.39 1.39 0 0 0 .43.496c.303.376.547.795.724 1.242a4.63 4.63 0 0 1 .162 1.48c-.07.204-.089.422-.056.635s.116.415.243.589.294.314.487.409a1.32 1.32 0 0 0 .622.138 3.63 3.63 0 0 1 1.335.603 3.61 3.61 0 0 1 .987 1.083c.292.411.573.799.875.908.411.03.822-.04 1.199-.205.457-.194.942-.319 1.437-.367z"/></g><path d="M659.736 578.596c-1.557-.002-3.078-.466-4.372-1.332s-2.301-2.098-2.895-3.537-.75-3.023-.444-4.55 1.056-2.93 2.158-4.03a7.88 7.88 0 0 1 4.033-2.153c1.528-.303 3.11-.146 4.55.451a7.88 7.88 0 0 1 4.859 7.275 7.87 7.87 0 0 1-2.313 5.569 7.89 7.89 0 0 1-5.574 2.307zm0-15.287a7.41 7.41 0 0 0-6.846 4.575 7.41 7.41 0 0 0-.422 4.282c.286 1.438.992 2.758 2.029 3.795a7.41 7.41 0 0 0 3.794 2.028c1.438.286 2.928.139 4.283-.421a7.41 7.41 0 0 0 4.574-6.847 7.41 7.41 0 0 0-2.174-5.238c-1.389-1.389-3.272-2.17-5.238-2.174z" class="E"/><path d="M480.976 334.947c.505 0 .997-.15 1.417-.43a2.55 2.55 0 0 0 .939-1.144c.192-.466.243-.979.145-1.474a2.55 2.55 0 0 0-2.003-2.003c-.495-.098-1.008-.048-1.474.145s-.864.521-1.144.94a2.55 2.55 0 0 0 .318 3.22 2.55 2.55 0 0 0 1.802.747z" class="G"/><path d="M482.002 332.3a.54.54 0 0 0 .382-.158c.1-.102.158-.239.158-.382s-.057-.28-.158-.381a.54.54 0 0 0-.765 0c-.1.102-.158.239-.158.381s.057.281.158.382a.54.54 0 0 0 .382.158z" class="E"/><g class="B"><path d="M471.64 347.155l-3.382.292a.76.76 0 0 1-.292-.016c-.095-.025-.184-.068-.261-.127s-.145-.133-.194-.218-.082-.178-.095-.275-.008-.196.017-.291a.73.73 0 0 1 .126-.263.75.75 0 0 1 .218-.193c.084-.05.178-.082.275-.096l3.392-.303c.202-.016.399-.072.578-.166a1.51 1.51 0 0 0 .468-.378c.129-.156.225-.336.283-.53a1.54 1.54 0 0 0 .054-.6 1.71 1.71 0 0 0-.555-1.065c-.308-.277-.705-.431-1.119-.436a.74.74 0 0 1-.553-.144c-.159-.12-.263-.297-.29-.494a.75.75 0 0 1 .144-.553c.12-.158.297-.261.494-.29.793-.049 1.574.213 2.179.729a3.07 3.07 0 0 1 1.062 2.037c.098.394.107.805.027 1.204a2.73 2.73 0 0 1-.495 1.097 2.72 2.72 0 0 1-2.082 1.081z" opacity=".023"/><path d="M474.126 365.252a26.18 26.18 0 0 1-12.1 3.241h-2.863a3.91 3.91 0 0 1-1.08-.108h-.205c-.529-.108-1.08-.108-1.696-.227-.205 0-.432-.108-.637-.108a24.55 24.55 0 0 1-8.243-3.025.7.7 0 0 0-.518-.093c-.178.039-.334.146-.433.298-.05.077-.083.162-.099.252s-.014.18.011.269.058.173.111.246a.68.68 0 0 0 .198.184c3.301 1.959 6.986 3.178 10.804 3.576a20.85 20.85 0 0 0 12.36 4.322c1.785.015 3.565-.18 5.305-.583z" class="D"/></g><path d="M473.508 351.196a.47.47 0 0 1 .215.057c.066.035.121.089.163.151a.46.46 0 0 1 .075.209c.008.075 0 .15-.031.22a7.29 7.29 0 0 1-2.715 2.986 7.28 7.28 0 0 1-3.887 1.085c-1.372-.011-2.714-.409-3.87-1.148a7.28 7.28 0 0 1-2.665-3.03c-.097-.313 0-.637.421-.637zm8.159-26.308a10.61 10.61 0 0 0-7.66 4.397 9.51 9.51 0 0 0-6.363.054c-.965-1.627-2.365-2.953-4.043-3.828a10.16 10.16 0 0 0-5.454-1.12c-2.022.142-3.959.881-5.562 2.122a10.26 10.26 0 0 0-3.445 4.855 10.25 10.25 0 0 0-.166 5.951 10.26 10.26 0 0 0 3.167 5.04 10.25 10.25 0 0 0 11.303 1.434c1.814-.905 3.319-2.329 4.325-4.09a10.24 10.24 0 0 0 1.323-5.804 12.13 12.13 0 0 0-.821-3.295c1.65-.518 3.415-.54 5.078-.065a10.26 10.26 0 0 0-.122 9.115 10.24 10.24 0 0 0 2.935 3.647 10.25 10.25 0 0 0 4.25 1.963 10.24 10.24 0 0 0 4.68-.133 10.25 10.25 0 0 0 4.134-2.199 10.26 10.26 0 0 0 2.725-3.807 10.24 10.24 0 0 0 .748-4.622 10.48 10.48 0 0 0-11.031-9.615zm-21.964 18.583a8.87 8.87 0 0 1-8.562-4.886c-.784-1.57-1.085-3.336-.864-5.078a8.88 8.88 0 0 1 2.104-4.702c1.151-1.325 2.669-2.277 4.362-2.74a8.87 8.87 0 0 1 9.349 3.128c1.075 1.387 1.712 3.063 1.834 4.813.163 2.344-.61 4.656-2.153 6.429a8.86 8.86 0 0 1-6.069 3.024zm23.401.616a8.87 8.87 0 0 1-8.554-4.893 8.87 8.87 0 0 1 1.247-9.776 8.86 8.86 0 0 1 4.362-2.738 8.88 8.88 0 0 1 5.148.148c1.664.557 3.124 1.596 4.197 2.983a8.86 8.86 0 0 1 1.833 4.812 8.89 8.89 0 0 1-2.175 6.432c-1.546 1.772-3.733 2.859-6.079 3.022z" class="E"/><path d="M498.597 313.966c1.405-9.227-2.485-16.573-11.182-17.027-2.247-.119-4.592.627-6.201.767-1.796.122-3.596-.192-5.243-.916s-3.096-1.837-4.221-3.243c-3.9-4.819-9.983-10.48-17.437-10.285-8.708.238-14.607 8.567-14.24 14.261-19.987-2.161-26.459 11.636-27.431 17.049a3.35 3.35 0 0 1-.845 1.698c-.439.473-1.004.81-1.629.97a10.89 10.89 0 0 0-7.912 8.049 10.89 10.89 0 0 0 3.471 10.739c2.258 2.161 4.419 4.624 4.203 8.027a9.82 9.82 0 0 1-1.178 4.062 20.23 20.23 0 0 0-2.485 5.791c-3.436 24.708 25.173 25.454 28.728 25.519 12.403.248 16.065-8.643 15.471-13.429-.486-3.889-3.933-6.893-7.087-9.118-2.142-1.463-3.679-3.656-4.322-6.169-.253-1.023-.344-2.081-.27-3.133a10.73 10.73 0 0 1 .897-3.684c.324-.713-.864-1.502-.411-2.161l-.821-.054c1.513-1.847-1.621-3.079-1.459-5.64l.519-8.535s10.545-1.286 12.36-17.826a15.37 15.37 0 0 0 4.322.908 15.75 15.75 0 0 0 7.413-1.343 15.74 15.74 0 0 0 5.941-4.632h.14c.247 3.831 1.882 7.441 4.599 10.153a15.78 15.78 0 0 0 10.159 4.583c2.293.221 4.598-.248 6.621-1.347s3.672-2.779 4.734-4.822z" class="G"/><path d="M439.261 347.782s-11.258.486-13.256-10.631 11.884-12.792 13.397-1.513l1.08 12.284z" class="W"/><path d="M429.669 331.371a4.34 4.34 0 0 1 3.392-.767c.572.161 1.102.443 1.555.827s.818.861 1.071 1.399c.769 1.333 1.144 2.859 1.08 4.397v1.167c0 .854-1.513 1.08-1.491 0l-.065-1.296a8 8 0 0 0-.853-3.608c-.351-.736-.976-1.305-1.739-1.588-.818-.115-1.648.095-2.312.583a.81.81 0 0 1-.588.094c-.2-.044-.377-.162-.493-.332-.029-.174 0-.352.079-.51s.206-.285.364-.365z" class="B D"/><path d="M436.334 345.956a2.23 2.23 0 0 0 2.067-1.38c.169-.409.213-.859.126-1.293a2.23 2.23 0 0 0-.611-1.144c-.313-.313-.711-.526-1.145-.613a2.23 2.23 0 0 0-1.292.127 2.24 2.24 0 0 0-1.004.823c-.245.368-.377.801-.377 1.242 0 .593.236 1.163.655 1.582a2.24 2.24 0 0 0 1.582.655z" class="C"/><path d="M437.056 345.718c-.323-.005-.641-.076-.937-.205s-.561-.318-.782-.553-.393-.51-.507-.812-.164-.623-.151-.946c.043-.441.203-.862.465-1.221-.3.2-.553.463-.739.771s-.304.654-.341 1.011c-.018.295.025.59.125.868s.257.53.459.745a2.17 2.17 0 0 0 .717.501c.271.117.564.177.859.176.472.045.944-.094 1.318-.389-.162-.032-.378-.054-.486.054z" class="B D"/><path d="M449.59 498.269l51.178 24.017-12.867 22.116s-11.636-2.777-24.654-6.698-28.609-9.421-35.458-12.878c-12.889-6.482-18.907-26.361-22.861-34.237" class="C"/><path d="M497.981 520.871l-5.121-3.187-14.175 24.503 5.078 1.642z" opacity=".6" class="B"/><path d="M528.772 518.634l-17.286-121.23-13.397 24.363-14.272 56.04c-3.868 10.156 5.791 83.816 16.649 83.33 0 0 32.498 31.72 45.614 34.929a1.07 1.07 0 0 0 .465.013c.154-.029.3-.092.428-.183a1.1 1.1 0 0 0 .311-.347c.077-.137.123-.288.136-.445l1.264-11.711c2.161-20.527 2.496-34.691-.745-58.222z" class="L"/><path d="M511.453 401.337l5.51 120.442 21.608 6.137 1.556 11.279 8.643.951c3.706.411 6.363-2.766 10.091-3.068l24.784-3.241v18.367h-83.276z" class="B D"/><path d="M491.046 559.678l10.523-28.025 36.452 12.965c1.429.456 2.942.593 4.43.4l2.074-.27c.473.068.953.068 1.426 0l22.85-2.074a22.39 22.39 0 0 1 7.325.303l28.09 5.964a2.34 2.34 0 0 1 1.88 2.474 2.48 2.48 0 0 1-.987 1.531c-.512.367-1.143.527-1.768.446l-26.578-3.166 26.102 9.605c.307.091.591.247.833.458s.434.471.567.763.2.609.199.93a2.24 2.24 0 0 1-.205.928 2.76 2.76 0 0 1-1.26 1.353 2.77 2.77 0 0 1-1.83.257l-26.102-6.212 23.617 5.575a2.28 2.28 0 0 1 .846.347 2.29 2.29 0 0 1 .64.654 2.26 2.26 0 0 1 .33.851c.052.304.041.615-.032.914-.156.628-.537 1.177-1.071 1.543a2.65 2.65 0 0 1-1.825.445l-23.736-2.982 20.355 2.593a1.83 1.83 0 0 1 .721.205c.224.117.42.279.579.475s.273.424.34.668a1.84 1.84 0 0 1 .045.748 1.98 1.98 0 0 1-2.161 1.772l-26.459-3.717c-.173.475 0 0 0 0-13.689-.303-26.772-3.446-32.595-3.835-2.669-.184-5.402-.281-8.006-.605z" class="V"/><path d="M598.854 563.503l-21.889-7.411m-3.443 7.292l20.592 4.322" class="D I J Q" stroke-width="1.35"/><path d="M594.858 571.692a1.75 1.75 0 0 0 0-.475l-20.873-4.234-35.934-6.418-45.376-5.306-1.642 4.419 36.193 4.7 8.157.649c5.931.421 19.447 3.348 33.373 3.672L593 572.362c1.242.14 1.707.54 1.858-.67zm-26.22-2.474c-.205.475 0 0 0 0z" class="R B"/><path d="M386.194 392.24c4.354-4.478 10.185-7.227 16.411-7.736l26.135-3.003 39.423 50.541 15.223-49.892 12.576 1.999c4.257.407 8.214 2.37 11.113 5.514s4.535 7.248 4.596 11.523l-1.005 119.048 23.941 308.213H381.872l7.563-330.372-10.437-84.443c-.483-3.873-.084-7.806 1.165-11.505s3.319-7.067 6.052-9.854" class="L"/><path d="M428.804 381.663s36.733 49.568 34.918 127.907v209.012h-23.109l.778-208.612s4.732-55.1-32.801-126.157zm53.349 0s-6.904 22.04-7.368 127.907v209.012h23.109l-.767-208.612 2.895-125.325z" class="C"/><g class="B"><path d="M385.707 441.117l48.617 92.47 82.012 59.421.951 12.208-85.491-59.497a25.43 25.43 0 0 1-8.989-11.171l-38.44-92.838c-.049-.112-.068-.236-.057-.357a.74.74 0 0 1 .119-.341c.068-.103.16-.186.268-.243s.229-.086.351-.085c.139.004.274.046.39.123a.75.75 0 0 1 .269.309z" class="D"/><path d="M466.587 432.041l2.366 390.452s.756 5.542-4.322 5.921c0 0 6.709 1.156 6.709-5.921l-2.355-390.452z" class="D"/><path d="M511.334 529.384l-54.981-19.447-30.002-81.937a.36.36 0 0 1 .011-.278.38.38 0 0 1 .474-.208.38.38 0 0 1 .21.183l37.176 74.374 46.554 16.886z" class="D"/></g><path d="M530.954 604.007a1.24 1.24 0 0 0 .599.212 1.23 1.23 0 0 0 .623-.113 1.24 1.24 0 0 0 .485-.409 1.23 1.23 0 0 0 .216-.596l.4-4.916c1.718-21.5 3.101-43.118 1.005-64.596v-3.144l-73.996-22.04-31.882-72.818-42.751 4.797 42.535 88.592a25.52 25.52 0 0 0 8.643 10.048zM412.502 311.546s42.276-4.667 75.735-15.568l-12.414-18.626-59.724 11.117z" class="L"/><g class="C"><path d="M425.801 285.714h-1.739v13.289h1.739z"/><path d="M424.862 302.157c1.306 0 2.366-1.059 2.366-2.366s-1.06-2.366-2.366-2.366-2.366 1.06-2.366 2.366 1.059 2.366 2.366 2.366z"/><path d="M424.859 301.368c.73 0 1.432.291 1.948.807a2.76 2.76 0 0 1 .807 1.948v27.161h-5.51v-27.161c0-.73.29-1.43.806-1.948a2.76 2.76 0 0 1 1.949-.807z"/></g><path d="M494.201 269.747l-95.173 17.743c-1.285.239-2.133 1.473-1.894 2.754s1.475 2.126 2.759 1.887l95.174-17.743c1.285-.239 2.133-1.473 1.893-2.754s-1.474-2.126-2.758-1.887z" class="L"/><path d="M572.191 538.805c4.959-1.469 18.367-9.097 18.367-9.097 2.161-2.161 1.912-4.084 1.405-5.24-.073-.154-.177-.294-.307-.406s-.28-.197-.444-.247a1.22 1.22 0 0 0-.507-.048 1.23 1.23 0 0 0-.482.161c-3.922 2.161-18.864 5.283-18.864 5.283l-20.149 6.018-2.161-.897 1.08 9.205 1.545-.13c7.401-.627 14.531-.097 20.517-4.602z" class="V"/><path d="M821.969 384.915l44.166.119-26.88 88.473z" fill="#f4f4f4"/><path d="M888.422 306.954c8.395-6.469 9.594-18.967 2.69-27.915s-19.298-10.956-27.684-4.487-9.587 18.967-2.685 27.915 19.295 10.956 27.678 4.487z" class="G"/><path d="M873.448 321.732c7.174-6.182 7.023-18.136-.346-26.702-7.376-8.565-19.174-10.497-26.355-4.316s-7.027 18.135.346 26.701 19.17 10.498 26.355 4.317z" class="C"/><g class="M"><path d="M866.136 385.034l-5.153-40.947-34.821-11.042c-.875 3.695.735 50.238-4.192 51.448 2.669 27.118 43.756 16.087 44.166.54z"/><path d="M836.735 369.984c-2.943.238-5.903-.138-8.694-1.105a21.3 21.3 0 0 1-7.512-4.513 24.53 24.53 0 0 1-7.757-16.271l-2.334-31.007c-.211-2.717.602-5.415 2.28-7.563a9.44 9.44 0 0 1 2.916-2.487 9.43 9.43 0 0 1 3.664-1.121l29.084-2.496c.972-.087 1.952.035 2.874.357a7.35 7.35 0 0 1 2.539 1.513c.747.689 1.355 1.515 1.793 2.431.445.941.712 1.955.789 2.993l2.485 33.406a24.97 24.97 0 0 1-5.207 17.416 21.82 21.82 0 0 1-6.732 5.722 21.83 21.83 0 0 1-8.448 2.586l-1.707.14z"/></g><path d="M837.33 337.702c0-.513-.152-1.014-.438-1.44a2.58 2.58 0 0 0-1.164-.955c-.473-.197-.995-.248-1.497-.148a2.59 2.59 0 0 0-1.328.71c-.363.363-.609.824-.71 1.328s-.049 1.024.148 1.497.528.879.954 1.164.928.438 1.441.438c.687 0 1.347-.273 1.833-.76s.76-1.146.76-1.833z" class="G"/><path d="M833.863 338.361a.58.58 0 0 0-.09-.314c-.061-.094-.148-.167-.25-.212a.56.56 0 0 0-.616.115.56.56 0 0 0-.127.614.56.56 0 0 0 .207.254c.092.063.201.095.313.095a.56.56 0 0 0 .393-.16c.105-.104.165-.243.169-.391z" class="E"/><path d="M806.202 323.516l42.502-3.155 5.51 12.597 6.299 7.779 2.366 14.261s10.806-5.045 15.873-23.25a40.06 40.06 0 0 0 .897-16.098c-.799-5.371-2.669-10.525-5.521-15.147-6.484-9.994-19.86-20.592-46.459-12.965.054.011-21.467 4.84-21.467 35.977zm11.259 16.077c0-.513-.152-1.014-.436-1.44a2.59 2.59 0 0 0-2.662-1.103c-.503.1-.965.347-1.328.71a2.6 2.6 0 0 0-.71 1.328 2.59 2.59 0 0 0 .148 1.497 2.6 2.6 0 0 0 .955 1.164 2.59 2.59 0 0 0 3.274-.322c.486-.486.76-1.146.76-1.833z" class="G"/><path d="M814.188 340.338c0-.111-.034-.219-.095-.312a.56.56 0 0 0-.252-.206.57.57 0 0 0-.325-.032.56.56 0 0 0-.287.154c-.079.078-.132.178-.153.287s-.011.221.031.324.115.191.207.253a.56.56 0 0 0 .709-.07.56.56 0 0 0 .165-.398z" class="E"/><path d="M824.055 348.841a3.07 3.07 0 0 1-.959-1.545c-.157-.6-.13-1.233.08-1.816a3.07 3.07 0 0 1 1.091-1.455c.501-.364 1.102-.568 1.722-.586a.78.78 0 0 1 .54.194.76.76 0 0 1 .227.54c0 .1-.021.201-.059.293a.76.76 0 0 1-.167.247c-.066.075-.145.135-.234.178a.7.7 0 0 1-.284.07c-.207.015-.409.07-.594.163s-.351.22-.486.377c-.256.301-.39.686-.378 1.08.003.203.048.403.13.588s.199.353.346.493c.29.282.675.444 1.08.454l3.5-.162c.092-.022.188-.022.281 0 .095.033.183.084.259.151.069.068.124.149.162.238s.067.184.076.281a.79.79 0 0 1-.194.551.8.8 0 0 1-.529.238l-3.49.151a3.02 3.02 0 0 1-2.118-.724z" opacity=".09" class="B"/><path d="M857.976 345.762l1.016-12.446c1.545-11.409 15.601-9.886 13.624 1.48s-13.397 10.901-13.397 10.901z" class="M"/><path d="M886.067 965.98h17.286a33.26 33.26 0 0 1 2.474 8.222l6.882 30.359c.789 4.246.659 8.611-.389 12.803h0a8.08 8.08 0 0 1-2.874 4.44c-1.437 1.124-3.198 1.729-5.013 1.718h-8.103a8.13 8.13 0 0 1-4.095-1.07c-1.242-.713-2.28-1.739-2.993-2.982l-.573-1.015a29.88 29.88 0 0 1-3.987-14.045l.065-28.339a27.01 27.01 0 0 1 1.253-10.123z" class="C"/><path d="M809.974 893.172l-9.432 58.341c-1.08 7.854-1.664 11.42-1.61 17.286l-19.058 34.41-21.381 10.696-5.467-7.498 19.631-39.974c1.891-2.69 3.479-6.547 3.814-12.965l5.056-54.073z" class="M"/><path d="M804.054 929.83l-25.369.13-.301 3.144 13.991 2.161a4.79 4.79 0 0 1 3.123 1.869 4.78 4.78 0 0 1 .896 3.533l-3.241 23.65-21.251 30.694s-6.968 9.281-18.593 10.977l-.108.238 6.936 6.936 19.782-9.896 19.014-34.464c-.054-5.845.541-9.41 1.611-17.286z" class="B D"/><path d="M735.277 1019.945a2.62 2.62 0 0 0-.194 1.221 2.61 2.61 0 0 0 .411 1.167 2.54 2.54 0 0 0 .908.832 2.45 2.45 0 0 0 1.199.303h23.142a22.15 22.15 0 0 0 9.518-2.161c3.006-1.415 5.659-3.479 7.768-6.05l14.823-18.14c.27-.292.614-.497.994-.605a2.1 2.1 0 0 1 1.156 0c.377.13.708.367.951.681s.392.691.421 1.08l.767 25.141h2.787l3.544-24.46a53.27 53.27 0 0 0-4.473-30.164L774.7 998.272c-2.575 3.122-5.927 5.521-9.72 6.936-3.792 1.426-7.892 1.826-11.888 1.156l-11.247 6.828c-2.963 1.34-5.31 3.749-6.569 6.752z" class="C"/><path d="M880.719 908.654l25.465-.421-2.787 49.341c-.421 7.487.086 15.007 1.523 22.364l2.809 14.488c.205 1.415.097 2.852-.313 4.224a9.98 9.98 0 0 1-2.02 3.717c-.929 1.08-2.085 1.945-3.382 2.539a10.06 10.06 0 0 1-4.127.897h-1.664c-2.582 0-5.078-.994-6.936-2.798a9.96 9.96 0 0 1-3.036-6.828l.184-12.252c.162-10.242-.357-20.495-1.556-30.672z" class="M"/><path d="M907.275 554.741l-1.394 6.655c9.324 47.138 12.77 95.252 10.231 143.238l-8.902 225.12-26.956.205-29.017-312.07c-.076-1.066-.537-2.068-1.296-2.82a3.92 3.92 0 0 0-5.402-.108c-.75.684-1.236 1.609-1.372 2.615l-36.83 312.329h-28.663l3.598-236.789a999.81 999.81 0 0 1 3.176-58.417l1.232-14.639a304.26 304.26 0 0 1 6.752-43.053l5.164-22.267z" class="L"/><g class="B"><path d="M907.858 716.324l-9.983 213.495 8.794-.065 9.399-225.12a550.55 550.55 0 0 0-10.804-143.238l1.448-6.569-15.039-.086s20.117 71.846 16.184 161.583zm-65.396-98.748a4.32 4.32 0 0 1 1.335-2.487 4.33 4.33 0 0 1 2.586-1.132c-1.08-.508-10.923-5.737-12.424 23.65l-35.404 292.299 8.179-.076zm26.319-288.625a.68.68 0 0 1 .198.196.7.7 0 0 1 .105.258.75.75 0 0 1-.097.54c-.105.161-.267.277-.454.324a.76.76 0 0 1-.291.009.74.74 0 0 1-.271-.106c-.305-.281-.676-.479-1.08-.573a2.34 2.34 0 0 0-1.221 0 2.52 2.52 0 0 0-1.073.576 2.51 2.51 0 0 0-.677 1.012c-.55 1.152-.845 2.408-.864 3.684v1.307c0 1.08-1.523.843-1.523-.054v-1.232a8.83 8.83 0 0 1 1.08-4.43c.242-.566.611-1.07 1.08-1.469a3.96 3.96 0 0 1 1.621-.832 3.89 3.89 0 0 1 1.824-.023c.601.137 1.161.415 1.634.811z" class="K"/><path d="M889.308 1002.864v.184a9.97 9.97 0 0 0 6.882 2.755h1.664a10.06 10.06 0 0 0 4.127-.897c1.296-.594 2.452-1.458 3.382-2.539a9.98 9.98 0 0 0 2.02-3.717c.411-1.372.519-2.809.313-4.224l-2.82-14.488c-1.426-7.368-1.934-14.877-1.513-22.364l1.556-27.615h-21.986v2.658l12.543 2.658a4.06 4.06 0 0 1 2.334 1.415 4.07 4.07 0 0 1 .908 2.561v28.976l3.933 24.406s3.144 15.741-13.343 10.231z" class="D"/></g><path d="M815.713 327.784a9.81 9.81 0 0 0-5.629 1.556c-1.699 1.1-3.04 2.673-3.857 4.527-.822 1.872-1.096 3.941-.789 5.964a10.41 10.41 0 0 0 2.55 5.402c1.329 1.49 3.082 2.538 5.024 3.003 1.928.465 3.953.33 5.802-.389a10.15 10.15 0 0 0 4.635-3.673 10.66 10.66 0 0 0 1.891-5.694 10.44 10.44 0 0 0-1.275-5.402 7.88 7.88 0 0 1 4.916-.151c-.647 1.718-.842 3.574-.564 5.388a10.7 10.7 0 0 0 2.152 4.973c1.52 1.949 3.725 3.247 6.168 3.628s4.938-.183 6.98-1.575a10.39 10.39 0 0 0 4.224-5.953 10.7 10.7 0 0 0-.659-7.325 10.13 10.13 0 0 0-5.207-5.002 9.72 9.72 0 0 0-7.109-.13c-2.327.884-4.249 2.59-5.402 4.797-2.027-.677-4.23-.597-6.201.227-.883-1.234-2.035-2.25-3.371-2.971s-2.81-1.117-4.322-1.167zm16.206 15.017c-1.588-1.777-2.425-4.101-2.334-6.482a9.3 9.3 0 0 1 1.653-4.981c.993-1.465 2.405-2.594 4.051-3.241a8.38 8.38 0 0 1 5.067-.346c1.672.419 3.178 1.334 4.322 2.625 1.188 1.317 1.963 2.956 2.226 4.71a9.35 9.35 0 0 1-.681 5.207c-.716 1.614-1.887 2.984-3.371 3.943a8.44 8.44 0 0 1-4.905 1.361c-1.139-.042-2.258-.312-3.291-.792a8.55 8.55 0 0 1-2.727-2.006zm-16.962 4.376c-1.151-.045-2.281-.322-3.322-.814s-1.973-1.19-2.739-2.049a9.16 9.16 0 0 1-2.323-6.482 9.29 9.29 0 0 1 1.653-4.97 8.8 8.8 0 0 1 4.041-3.241c1.616-.636 3.39-.757 5.078-.346s3.213 1.322 4.376 2.615c1.185 1.319 1.959 2.957 2.226 4.71a9.35 9.35 0 0 1-.681 5.207c-.715 1.617-1.887 2.992-3.371 3.954-1.462.942-3.176 1.417-4.916 1.361z" class="E"/><path d="M864.341 341.57a2.27 2.27 0 0 0-1.402-2.097c-.416-.172-.872-.216-1.313-.127a2.27 2.27 0 0 0-1.161.623c-.317.319-.533.724-.618 1.165a2.27 2.27 0 0 0 .973 2.328c.375.247.815.379 1.263.377a2.27 2.27 0 0 0 1.598-.669c.424-.425.66-1 .66-1.6z" class="C"/><path d="M860.83 343.482a2.24 2.24 0 0 0 1.307.357c.299-.016.592-.09.864-.216a2.43 2.43 0 0 0 .713-.519 2.31 2.31 0 0 0 .454-.756 2.25 2.25 0 0 0 .14-.886 2.27 2.27 0 0 0-.292-1.024 2.29 2.29 0 0 0-.724-.78 2.44 2.44 0 0 1 .443 1.296 2.36 2.36 0 0 1-.14.94 2.48 2.48 0 0 1-.497.821c-.217.239-.478.432-.767.573a2.74 2.74 0 0 1-.929.227 2.54 2.54 0 0 1-.573-.032zm.959 7.022l-4.041-4.559 3.425-.378zm-37.108 17.524a31.5 31.5 0 0 0 12.77 1.232l2.841-.357a11.34 11.34 0 0 0 1.08-.205h.238c.616-.13 1.08-.281 1.621-.432l.637-.194a26.58 26.58 0 0 0 8.016-4.051.61.61 0 0 1 .248-.14.78.78 0 0 1 .281 0c.094.012.186.041.27.086a.9.9 0 0 1 .205.194.6.6 0 0 1 .13.259c.022.092.022.188 0 .281a.64.64 0 0 1-.097.27.92.92 0 0 1-.194.205 27.59 27.59 0 0 1-10.458 4.851 19.86 19.86 0 0 1-7.563 5.099 24.69 24.69 0 0 1-10.112 1.178z" class="D B"/><path d="M837.211 352.384c.075-.015.151-.015.227 0 .068.031.129.08.173.14s.073.132.086.205c.022.075.022.153 0 .227a7.35 7.35 0 0 1-2.301 3.41 7.34 7.34 0 0 1-3.772 1.638c-1.388.176-2.797-.048-4.062-.645a7.34 7.34 0 0 1-3.078-2.728c-.045-.059-.072-.131-.076-.205-.023-.074-.023-.152 0-.227a.4.4 0 0 1 .14-.184c.059-.045.131-.076.205-.086z" class="E"/><g class="C"><path d="M866.62 384.364l-27.626 88.992-17.221-88.992-22.991 7.563 2.161 72.386 4.646 36.679-18.302 81.31c-.052.236-.05.479 0 .713.055.234.161.454.311.643a1.63 1.63 0 0 0 .556.446c.216.106.454.162.695.164l122.862 1.005c.227.002.465-.047.67-.14.216-.095.411-.233.562-.408s.27-.379.335-.602.086-.456.054-.686l-9.605-69.577a71.3 71.3 0 0 1 .648-23.466l14.185-72.98a22.75 22.75 0 0 0-3.63-16.602c-3.306-4.859-8.373-8.247-14.121-9.457z"/><path d="M799.528 392.132l.292-.194c-3.774 1.158-7.182 3.276-9.893 6.144a22.83 22.83 0 0 0-5.578 10.224l-17.124 72.948-57.261 11.506 2.161 18.367 80.132-7.908 10.804-36.733z"/></g><path d="M823.588 479.449l-16.649 3.338-5.143-53.771v42.135l2.161 16.206.14-.119-.022 1.934h22.753l49.741-62.673zm-86.431 27.009l59.421-17.286 1.08-5.402-61.582 15.125-27.431-2.042a11.45 11.45 0 0 0-3.436.281l-14.693 4.322v9.723z" class="F B"/><path d="M779.109 513.849l-6.374-19.902-35.296 8.449c-1.343.36-2.749.419-4.116.174l-1.891-.335c-.442.029-.887-.008-1.318-.109l-20.981-2.885a20.66 20.66 0 0 0-6.774 0l-26.156 4.322a2.16 2.16 0 0 0-1.322.738c-.337.397-.521.902-.514 1.423.089.574.39 1.091.846 1.45a2.28 2.28 0 0 0 1.607.484l24.654-1.782-24.492 7.745c-.287.071-.555.204-.787.388s-.42.415-.554.678-.211.552-.224.847a2.05 2.05 0 0 0 .149.863c.21.548.601 1.007 1.108 1.302s1.099.407 1.679.319l24.341-4.613-21.997 4.138a2.08 2.08 0 0 0-.795.279c-.244.146-.455.34-.619.572a2.09 2.09 0 0 0-.341.771c-.059.277-.062.564 0 .842.115.588.441 1.113.917 1.475s1.068.538 1.665.492l21.964-1.761-18.907 1.524c-.233.004-.463.057-.675.156s-.402.238-.556.413a1.68 1.68 0 0 0-.346.601c-.072.221-.098.456-.076.688.012.243.072.481.178.699s.254.414.436.574.395.282.626.359.473.106.715.086l24.568-2.279c.14.443 0 0 0 0 12.641.313 24.849-2.02 30.251-2.161 2.474-.054 4.948 0 7.411-.216z" class="M"/><path d="M680.468 517.197l20.527-5.877m2.84 6.817l-19.177 3.144" class="D I J Q" stroke-width="1.25"/><g class="B"><path d="M683.797 524.879c-.016-.147-.016-.295 0-.443l19.447-3.003 33.416-4.322 41.055-6.093 1.329 4.149-32.574 5.921c-2.506.216-5.035.194-7.563.259-5.488.13-18.064 2.247-30.942 1.945l-22.515 2.334c-1.113.022-1.567.378-1.653-.745z" class="R"/><path d="M815.972 386.622l-2.139 35.772 9.335 1.437-7.898 7.898 23.985 42.859-17.286-89.672z" class="F"/><path d="M872.659 385.639l-.993 36.009-8.643 1.08 7.563 7.563-31.634 43.064 27.312-89.521zm32.325 68.745l-64.108 65.039-40.147 3.446 2.334-12.09z" class="F"/></g><path d="M877.704 425.267l-51.674 58.146-87.555 16.498 2.874 22.958 97.602-9.324 66.032-60.286z" class="C"/><path d="M832.047 585.694l4.322-21.629 3.954 21.694z" class="L"/><path d="M1138.328 729.391l-8.07 199.45m-50.57-112.76l35.84 42.07m47.59 7.94l-32.3 49.01m48.02-131.31l-44.47 50.85" class="I J N O"/><use xlink:href="#I" class="C"/><use xlink:href="#J" class="B H"/><use xlink:href="#K" class="C"/><path d="M1071.898 806.31l29.32 34.42-.14.14c-5.1 4.25-15.72-.14-23.8-9.77-7.65-9.35-10.06-20.4-5.38-24.79" class="B H"/><path d="M1085.068 873.171l37.82 29.46" class="I J N O"/><path d="M1111.068 893.091c4.15-5.19-.41-15.74-10.18-23.56s-21.07-9.95-25.22-4.75.4 15.74 10.18 23.56 21.06 9.94 25.22 4.75z" class="C"/><path d="M1075.438 865.23l35.7 27.77-.15.14c-4.1 5.24-15.44 3.12-25.21-4.68-9.49-7.64-14-18-10.34-23.23z" class="B H"/><use xlink:href="#L" class="C"/><use xlink:href="#M" class="B H"/><use xlink:href="#N" class="C"/><path d="M1144.418 870.33c-6.94 10.77-7.79 22.67-2.12 26.78l25.92-39.67-1.56-.7c-6.09-2.27-15.72 3.4-22.24 13.59" class="B H"/><path d="M1126.718 926.431l-22.1-137.69" class="I J N O"/><use xlink:href="#O" class="C"/><use xlink:href="#P" class="B H"/><g class="U"><path d="M1116.938 975.161h26.49c1.17 0 2.33-.22 3.42-.67a8.87 8.87 0 0 0 2.9-1.93 8.94 8.94 0 0 0 1.94-2.91c.45-1.08.67-2.25.67-3.42v-35.13h-44.48v35.13c.04 2.38 1.01 4.64 2.71 6.31 1.69 1.67 3.97 2.61 6.35 2.62z"/><path d="M1153.508 926.431h-46.46a2.29 2.29 0 0 0-.97.14c-.31.11-.6.28-.84.51a2.27 2.27 0 0 0-.56.8c-.13.3-.2.63-.2.95a2.43 2.43 0 0 0 .2.96 2.27 2.27 0 0 0 .56.8c.24.23.53.4.84.51a2.46 2.46 0 0 0 .97.14h46.46a2.43 2.43 0 0 0 .92-.18c.29-.12.56-.29.78-.52a2.3 2.3 0 0 0 .53-.78c.12-.29.18-.6.18-.92-.04-.63-.31-1.21-.75-1.66-.45-.44-1.04-.71-1.66-.75z"/></g><path d="M1152.508 931.101h-40.51a2.46 2.46 0 0 1-.97-.14c-.31-.11-.6-.28-.84-.51a2.27 2.27 0 0 1-.56-.8c-.13-.3-.2-.63-.2-.95a2.43 2.43 0 0 1 .2-.96 2.27 2.27 0 0 1 .56-.8c.24-.23.53-.4.84-.51a2.46 2.46 0 0 1 .97-.14h-5a2.46 2.46 0 0 0-.97.14c-.31.11-.6.28-.84.51a2.27 2.27 0 0 0-.56.8 2.43 2.43 0 0 0-.2.96c0 .32.07.65.2.95a2.27 2.27 0 0 0 .56.8c.24.23.53.4.84.51a2.46 2.46 0 0 0 .97.14h1v35c-.01 1.17.22 2.34.67 3.42a8.82 8.82 0 0 0 1.93 2.9c.83.83 1.81 1.49 2.9 1.93a8.69 8.69 0 0 0 3.42.67h14.45a13.11 13.11 0 0 1-8.37-2.98c-2.35-1.94-3.95-4.64-4.52-7.64l-6.37-32.72h40.4z" class="S"/><path d="M212.328 729.391l-8.07 199.45m-50.57-112.76l35.84 42.07m47.589 7.94l-32.3 49.01m48.02-131.31l-44.47 50.85" class="I J N O"/><use xlink:href="#I" x="-926.004" class="C"/><use xlink:href="#J" x="-926.001" class="B H"/><use xlink:href="#K" x="-926.003" class="C"/><path d="M145.896 806.31l29.32 34.42-.14.14c-5.1 4.25-15.72-.14-23.8-9.77-7.65-9.35-10.06-20.4-5.38-24.79z" class="B H"/><path d="M159.067 873.171l37.82 29.46" class="I J N O"/><path d="M185.065 893.091c4.15-5.19-.41-15.74-10.18-23.56s-21.07-9.95-25.22-4.75.4 15.74 10.18 23.56 21.06 9.94 25.22 4.75" class="C"/><path d="M149.436 865.23l35.7 27.77-.15.14c-4.1 5.24-15.44 3.12-25.21-4.68-9.49-7.64-14-18-10.34-23.23" class="B H"/><use xlink:href="#L" x="-926.001" class="C"/><use xlink:href="#M" x="-926.001" class="B H"/><use xlink:href="#N" x="-926.001" class="C"/><path d="M218.417 870.33c-6.94 10.77-7.79 22.67-2.12 26.78l25.92-39.67-1.56-.7c-6.09-2.27-15.72 3.4-22.24 13.59z" class="B H"/><path d="M200.717 926.431l-22.1-137.69" class="I J N O"/><use xlink:href="#O" x="-926.002" class="C"/><use xlink:href="#P" x="-926.004" class="B H"/><g class="U"><path d="M190.935 975.161h26.49c1.174 0 2.338-.22 3.424-.67s2.072-1.1 2.902-1.93 1.488-1.82 1.935-2.91a8.87 8.87 0 0 0 .669-3.42v-35.13h-44.48v35.13c.045 2.38 1.017 4.64 2.711 6.31s3.972 2.61 6.349 2.62z"/><path d="M227.506 926.431h-46.48a2.29 2.29 0 0 0-.969.14 2.32 2.32 0 0 0-.834.51c-.241.22-.432.49-.563.8a2.4 2.4 0 0 0-.199.95 2.41 2.41 0 0 0 .199.96c.131.31.322.58.563.8a2.32 2.32 0 0 0 .834.51 2.46 2.46 0 0 0 .969.14h46.48a2.43 2.43 0 0 0 .923-.18c.293-.12.56-.29.784-.52.224-.22.402-.49.522-.78a2.34 2.34 0 0 0 .181-.92 2.6 2.6 0 0 0-.752-1.66c-.444-.44-1.032-.71-1.658-.75"/></g><path d="M226.507 931.101h-40.52a2.46 2.46 0 0 1-.969-.14 2.32 2.32 0 0 1-.834-.51c-.241-.22-.432-.49-.563-.8a2.4 2.4 0 0 1-.199-.95 2.41 2.41 0 0 1 .199-.96c.131-.31.322-.58.563-.8a2.32 2.32 0 0 1 .834-.51 2.46 2.46 0 0 1 .969-.14h-5a2.46 2.46 0 0 0-.969.14 2.32 2.32 0 0 0-.834.51c-.241.22-.432.49-.563.8a2.41 2.41 0 0 0-.199.96 2.4 2.4 0 0 0 .199.95c.131.31.322.58.563.8a2.32 2.32 0 0 0 .834.51 2.46 2.46 0 0 0 .969.14h1v35c-.01 1.17.222 2.34.668 3.42s1.104 2.07 1.933 2.9 1.815 1.49 2.899 1.93a8.73 8.73 0 0 0 3.42.67h14.45c-3.044 0-5.994-1.06-8.34-3s-3.941-4.64-4.51-7.63l-6.37-32.72h40.37z" class="S"/><defs><linearGradient id="A" x1="658.893" y1="715.946" x2="658.893" y2="656.741" gradientUnits="userSpaceOnUse"><stop stop-color="#fff"/><stop offset=".62" stop-color="#e2ebed"/><stop offset="1" stop-color="#cfdde0"/></linearGradient><path id="B" d="M761.108 670.138l-13.408 7.141H570.074l-13.408-7.141z"/><path id="C" d="M738.487 963.387H579.292l6.709-12.986h145.788z"/><path id="D" d="M701.623 694.166l-3.349 262.793h-78.76l-3.349-262.793z"/><path id="E" d="M738.487 963.387H579.292v25.973h159.195z"/><path id="F" d="M747.701 656.741H570.075v59.205h177.627z"/><path id="G" d="M761.108 633.275H556.666v36.863h204.442z"/><path id="H" d="M570.075 715.946l8.643 5.207h37.749l-.032-2.604h84.908l-.022 2.604h37.749l8.632-5.207z"/><path id="I" d="M1175.838 811.091c10.55-12.39 13.74-27 7.12-32.63s-20.52-.14-31.07 12.25-13.73 27-7.11 32.63 20.52.14 31.06-12.25z"/><path id="J" d="M1183.378 778.971l-38.81 44.19c.14 0 .14.15.28.15 6.66 5.66 20.54.14 31-12.19 10.34-12 13.6-26.2 7.51-32.15"/><path id="K" d="M1101.128 840.871c5.12-4.23 2.81-15.49-5.17-25.14s-18.6-14-23.72-9.79-2.81 15.5 5.17 25.14 18.59 14 23.72 9.79z"/><path id="L" d="M1153.108 744.391c.74-16.26-5.57-29.75-14.09-30.14s-16 12.48-16.76 28.74 5.57 29.74 14.09 30.13 16-12.48 16.76-28.73z"/><path id="M" d="M1122.328 743.13c.7-16.15 8.21-29 16.71-28.61l-2.69 58.78c-8.5-.56-14.73-14-14-30.17"/><path id="N" d="M1166.558 884.591c7.08-11.07 7.85-23.23 1.72-27.14s-16.83 1.87-23.91 12.94-7.86 23.23-1.73 27.15 16.84-1.88 23.92-12.95z"/><path id="O" d="M1106.708 808.02c7.57-1.21 11.84-13.9 9.52-28.35s-10.32-25.17-17.89-24-11.83 13.9-9.52 28.35 10.32 25.17 17.89 24z"/><path id="P" d="M1088.758 784.071c-2.27-14.45 2-27.201 9.49-28.471l8.35 52.411c-7.5 1.41-15.58-9.35-17.84-23.94"/></defs></svg>