<svg xmlns="http://www.w3.org/2000/svg" xmlns:xlink="http://www.w3.org/1999/xlink" width="2127.804" height="1395.376" xmlns:v="https://vecta.io/nano"><style><![CDATA[.O{fill:#f5ceb9}.P{fill:#6e300a}.Q{fill:#b75011}.R{fill:#f0b596}.S{fill:#34dc71}.T{fill:#22c55e}.U{fill:#3f4b55}.V{fill:#617483}.W{fill:#5fcbf9}.X{fill:#86d8fa}.Y{fill:#e7eaed}.Z{fill:#b9c3cb}.a{fill:#229e4b}.b{fill:#92400e}.c{overflow:visible}.d{fill-rule:evenodd}.e{stroke-width:1pt}.f{stroke-opacity:1}.g{fill-opacity:1}.h{stroke:#b9c3cb}.i{stroke:#3f4b55}]]></style><g transform="rotate(71.607 98.8 2841.912)"><path d="M-1464.729 1301.942h0c4.89 0 8.9 3.166 8.9 7.045l.033 750.039c0 3.871-4 7.045-8.9 7.045h0c-4.89 0-8.9-3.166-8.9-7.045l-.033-750.039c0-3.879 4.01-7.045 8.9-7.045z" class="Y"/><g class="P"><use xlink:href="#C"/><use xlink:href="#C" y="229.819"/><use xlink:href="#C" y="459.637"/></g></g><path d="M2042.903 1169.036h-304.615c-26.463 0-48.11-21.647-48.11-48.11V405.781c0-26.463 21.647-48.11 48.11-48.11h304.615c26.463 0 48.11 21.647 48.11 48.11v715.145c0 26.452-21.647 48.11-48.11 48.11z" class="Z"/><path d="M2017.468 1093.34h-253.744c-26.463 0-48.11-21.647-48.11-48.11V433.046c0-26.463 21.647-48.11 48.11-48.11h253.744c26.463 0 48.11 21.647 48.11 48.11v612.183c0 26.452-21.647 48.11-48.11 48.11z" class="Y"/><g transform="matrix(1.070064 0 0 1.070064 -146.50383 -81.906834)" fill="#e3e5fc"><path d="M1939.003 428.126h-70.57a3.13 3.13 0 0 1-3.12-3.12h0a3.13 3.13 0 0 1 3.12-3.12h70.57a3.13 3.13 0 0 1 3.12 3.12h0a3.13 3.13 0 0 1-3.12 3.12z"/><circle cx="1903.713" cy="1131.326" r="19.43"/></g><ellipse cx="1890.963" cy="1359.846" rx="216.84" ry="15.53" fill-opacity=".784" class="Y"/><path d="M429.831 1187.77c1.33-2.98 2.2-6.14 2.42-9.53 2.03-30.74-30.18-25.75-49.25-34.71-17.81-8.37-18.56-27.78-19.83-44.9-1.69-22.92-3.22-39.15-19.01-57.47-33.71-39.12-25.76-81.85-43.62-127.28-11.54-29.35-38.72-52.1-68.55-62.82-8.84-3.18-19.13-5.58-29.97-2.38-19.71 5.81-30.29 26.86-28.64 42.25 1.65 15.38 11.17 27.91 14.06 42.91s-4.16 35.68-23.16 44.26c-9.53 4.3-22.39 6.23-26.48 14.33-1.83 3.62-.96 7.2.32 10.31 5.66 13.8 18.79 23.52 23.78 37.55 5.88 16.54-1.54 29.14-7.79 44.26-2.8 6.79-4.24 14.92-.47 21.23 6.96 11.63 23.94 8.53 31.9 18.92 9.47 12.37-6.84 31.98-20.42 47.06s-24.88 37.97-9.04 44.8c4.93 2.13 11.39 1.88 17.18 2.7 26.02 3.66 34.87 27.14 40.69 48.14 6.28 22.64 30.65 30.01 47.12 43.4 18.57 15.09 24.5 44.69 55.52 31.73 21.24-8.87 30.9-31.49 42.93-49.43 13.18-19.66 27.21-39.09 35.58-61.42 6.52-16.6 27.5-27.7 34.73-43.91z" class="T"/><g class="Q"><path d="M314.911 1345.23a1.4 1.4 0 0 1-1.37-1.11l-70.67-331.16c-.16-.76.32-1.51 1.08-1.67.76-.17 1.5.32 1.67 1.08l70.67 331.16c.16.76-.32 1.51-1.08 1.67-.1.02-.2.03-.3.03z"/><path d="M269.891 1127.67c-.08 0-.17-.01-.25-.02-.76-.14-1.27-.87-1.13-1.63l12.64-70.39c.14-.76.87-1.26 1.63-1.13.76.14 1.27.87 1.13 1.63l-12.64 70.39c-.12.67-.71 1.15-1.38 1.15zm25.07 124.03a1.4 1.4 0 0 1-1.15-.6l-38.37-55.16a1.41 1.41 0 0 1 .35-1.96 1.41 1.41 0 0 1 1.96.35l38.37 55.16a1.41 1.41 0 0 1-.35 1.96c-.26.17-.54.25-.81.25z"/></g><ellipse ry="15.05" rx="618.91" cy="1357.67" cx="744.621" class="a"/><path d="M1224.991 1312.56c5.08-6.49 15.2-10.62 14.66-18.84-.46-6.98-9.1-12.29-7.41-19.08 1.6-6.39 10.33-7.03 16.88-6.26 1.29-4.42.32-9.12-.13-13.7s-.19-9.68 2.94-13.06 9.93-3.2 11.39 1.16l6.97-19.64c.95-2.69 2.34-5.77 5.13-6.35 4.07-.85 6.82 4.51 6.18 8.62s-3.05 7.92-2.9 12.08c.19 5.28 5.22 9.88 10.5 9.61-5.43 4.23-11.43 11.3-7.64 17.04 1.91 2.89 6.17 5.29 4.91 8.51-1.25 3.21-7.02 2.92-7.73 6.3-.96 4.5 8.61 6.59 6.81 10.83-5.9-.93-11 6.9-7.76 11.92 3.56 5.52 12.29 4.7 17.04 9.24 3.41 3.26 3.94 8.68 2.54 13.18-5.5 17.7-26.2 38.97-45.62 32.02-15.43-5.54-41.53-24.73-26.76-43.58z" class="R"/><g class="P"><path d="M1257.151 1358.76h-.11c-.77-.06-1.35-.73-1.3-1.51l7.29-97.27c.05-.77.63-1.34 1.51-1.3.77.06 1.35.73 1.3 1.51l-7.29 97.27c-.05.73-.67 1.3-1.4 1.3z"/><path d="M1260.211 1317.92c-.31 0-.63-.1-.89-.32l-17.89-14.58a1.41 1.41 0 0 1-.2-1.98 1.41 1.41 0 0 1 1.98-.2l17.89 14.58a1.41 1.41 0 0 1 .2 1.98c-.28.34-.68.52-1.09.52zm-.63 26.92c-.41 0-.82-.18-1.09-.52-.49-.6-.39-1.49.21-1.98l28.26-22.82c.6-.48 1.48-.39 1.98.21.49.6.39 1.49-.21 1.98l-28.26 22.82a1.44 1.44 0 0 1-.89.31z"/></g><path d="M308.031 1148.12c-1.87-6.51-7.72-11.96-12.07-17.82-4.34-5.85-7.17-13.18-2.78-19.01 2.05-2.71 5.41-4.74 8.24-7.06 12.92-10.59 13.64-26.5 9.55-40.36s-12.22-27.05-14.68-41.12c-2.27-13.03 2.43-28.52 18.63-34.26 11.89-4.21 27.09-1.47 36.46 5.33 9.37 6.81 13.26 16.95 12.29 26.57-.39 3.85-1.38 8.06 1.48 11.31 5.64 6.43 20.34 3.52 28.36 8.42 6.86 4.19 5.86 12.07 2.97 18.25-2.89 6.17-7.11 12.64-4.71 18.93 2.97 7.76 15.29 12.61 16.54 20.62.51 3.28-.99 6.65 0 9.87 2.77 9.07 23.45 13.79 19.13 22.54-3.35 6.79-18.68 5.96-23.41 12.3-5.03 6.73 6.08 14.51 4.69 22.11-.47 2.59-2.38 4.9-4.24 7.13l-38.02 45.5c-2.29 2.74-4.62 5.52-7.78 7.75-19.46 13.75-49.09 4.9-52.4-12.76-1.58-8.41-3.65-18.34-4.27-26.85-.9-12.62 9.61-24.88 6.02-37.39z" class="S"/><g class="Q"><path d="M346.252 1083.364l2.805-.168 16.092 268.166-2.805.168z"/><path d="M351.313 1160.552l38.94-46.618 2.157 1.801-38.94 46.618zm-31.365 26.578l1.877-2.091 34.851 31.282-1.877 2.091z"/></g><path d="M211.045 1327.184c-3.54-4.19-6.58-9.03-7.37-14.45-.19-1.31-.21-2.76.58-3.82.68-.92 1.84-1.36 2.96-1.59 7.94-1.7 15.39 4.12 21.13 9.87 10.13 10.16 19.17 21.4 26.92 33.47-4.64-7.22-7.08-21.07-5.98-29.56.04-.33.11-.7.37-.91.27-.22.65-.2.98-.14 2.44.47 3.98 2.84 5.15 5.04a111.94 111.94 0 0 1 8.88 22.29c-1.32-4.79 2.59-10.56 6.13-13.42 6.34-5.1 4.99 2.02 3.61 6.2-1.35 4.1-10.31 20.16-16.7 16.57-1.17-.66-1.46-4.24-2.42-5.4-1.67-2-4-2.66-6.4-3.4-6.44-2-13.15-2.83-19.22-5.97-7.08-3.68-13.47-8.69-18.62-14.78z" class="T"/><path d="M338.716 1355.088c.81-8.26.79-15.92 3.5-23.98.91-2.72 2.21-5.62 4.79-6.86.49-.24 1.07-.4 1.56-.18.43.19.7.62.92 1.05 14.04 26.9-23.64 42.03-40.83 21.8-1.06-1.25-2.06-2.68-2.21-4.32-.27-3 2.59-5.59 5.58-5.94s5.92 1.01 8.39 2.72c6.54 4.53 10.89 11.51 15.05 18.28-5.8-8.72-8.79-19.27-8.44-29.73.05-1.57.58-3.58 2.15-3.71.75-.06 1.44.37 2.04.83 4.28 3.29 6.69 8.56 7.59 13.89.9 5.32.43 10.77-.09 16.15z" class="S"/><path d="M427.77 1307.379c.38.01.76.11 1.15.32 1.22.66 1.67 2.16 1.96 3.52 2.65 12.43 2.58 9.38 1.26 25.69 2.78-10.18 1.68-8.4 6.88-17.59 1.01-1.79 2.13-3.62 3.88-4.69 11.35-6.95.36 23.84-1.56 27.37-7.12 13.1-20.97 16.34-34.41 11.52-11.79-4.23-23.05-13.41-27.27-25.42-.38-1.08-.66-2.44.15-3.26.56-.56 1.43-.64 2.22-.65 7.12-.01 13.79 3.61 19.24 8.19 5.44 4.59 9.95 10.17 15.07 15.11 3.63 3.5 11.64 3.3 16.64 3.9 8.51 1.03 11.87-2.27 19.26-6.62 1.61-.95 3.37-1.81 5.24-1.79s3.85 1.19 4.2 3.03c.21 1.09-.17 2.21-.65 3.22-6.05 12.78-22.54 11.06-29.81.86-6.93-9.73-11.4-25.93-8.08-37.6.67-2.36 2.53-5.15 4.63-5.11z" class="T"/><path d="M1173.686 1322.465c.26.01.53.07.8.22.85.46 1.16 1.51 1.36 2.46 1.85 8.68 1.8 6.55.88 17.93 1.94-7.11 1.17-5.86 4.8-12.28.7-1.25 1.49-2.53 2.71-3.28 7.92-4.85.25 16.63-1.09 19.1-4.97 9.14-14.64 11.41-24.01 8.04-8.23-2.95-16.09-9.36-19.03-17.74-.27-.76-.46-1.7.11-2.28.39-.39 1-.45 1.55-.45 4.97-.01 9.63 2.52 13.42 5.72s6.94 7.1 10.52 10.55c2.53 2.44 8.12 2.3 11.61 2.72 5.94.72 8.28-1.59 13.44-4.62 1.12-.66 2.35-1.27 3.66-1.25 1.3.01 2.68.83 2.93 2.11.15.76-.12 1.54-.45 2.24-4.22 8.92-15.73 7.72-20.8.6-4.84-6.79-7.95-18.1-5.64-26.24.47-1.63 1.77-3.58 3.23-3.55z" class="S"/><g class="Q"><path d="M560.925 848.5h-6.76l114.9-128.3-16.24 37.91z"/><path d="M617.565 979.36l-76.97-29.62c-13.43-5.17-20.19-20.39-15.02-33.82l22.34-58.06c5.17-13.43 20.39-20.19 33.82-15.02l76.97 29.62c13.43 5.17 20.19 20.39 15.02 33.82l-22.34 58.06c-5.17 13.43-20.38 20.19-33.82 15.02z"/></g><path d="M847.095 765.43l45.38-76.32s17.7-10.09 13.91 3.49-43.84 79.4-43.84 79.4z" fill="#8b9ba9"/><path d="M718.755 704.31l-13.52 43.42-37.83 4.55s28.41-25.06 31.74-52.95c3.34-27.88 19.61 4.98 19.61 4.98z" class="R"/><path d="M772.385 622.04s4.99 11.85-10.07 40.48c-15.05 28.63-33.54 51.66-42.26 47.49-24.12-11.52-28.48-31.73-33.39-49.38-6.01-21.64 27.12-62.3 27.12-62.3l23.03-5.79z" class="O"/><path d="M693.085 635.38s-2.44 17.62-2.47 38.92c0 .8-.07 1.46-.58 2.07-1.26 1.49-10.75-14.41-11.46-15.64-4.66-8.02-11.78-17.82-8.96-27.53.79-2.71 2.21-5.26 2.46-8.06.46-5.28-3.61-8.63-4.55-13.37-.88-4.4.3-9.42 1.66-13.58 2.59-7.9 7.85-16.55 15.07-21.02 5.69-3.52 10.51-1.8 16.2-3.78 3-1.04 4.35-4.42 6.37-6.87 3.11-3.76 8.17-5.48 13.05-5.61 6.02-.17 14.71 1.03 19.84 4.51 6.53 4.43 7.18 16.14 13.35 19.41 1.06.56 2.28.69 3.47.8 11.51 1.12 22.43.6 31.65 8.48 14.56 12.44 4.58 56.44-16.9 43.99-2.46-1.43-4.55-3.41-6.9-5.02-11.3-7.77-25.65 5.25-33.26-14.4-1.36-3.51-24.85-4.76-25.16 4.83-.39 12.52-12.88 11.87-12.88 11.87z" class="P"/><path d="M698.315 635.09s-6.68-12.95-9.75 3.45 4.54 21.87 4.54 21.87z" class="O"/><path d="M527.765 1242.21l-34.28 47.81-17.16-9.82 38.73-47.76c0 .01 10.14 4.02 12.71 9.77z" class="R"/><path d="M536.235 1349.25c-.86 1.02-7.45-.53-8.45-.68-10.32-1.53-26.26-3.36-34.15-10.76-7.68-7.21-11.6-18.09-18.07-26.32-4.56-5.79-10.91-9.89-16.68-14.41-6.36-4.99 13.08-34.58 20.73-28.04 6.19 5.3.92 16.33 18.69 17.68 15.22 1.16 2.19 21.04 17.56 36.66 13.58 13.82 29.74 14.74 20.37 25.87z" class="P"/><path d="M634.145 1044.12c-11.63 41.47-4.87 42.15-33.51 74.5-13.97 15.78-91.33 80.94-105.73 96.36-20.54 21.99.88 32.1 16.12 38.54 9.97 4.21 15.92 26.12 31.07 9.99 1.5-1.59 27.58-35.26 35.41-50.01 8.96-16.89 60.35-63.09 78.06-79.33 42.16-38.65 20.85-57.22 46.65-107.82 9.82-19.27 7.64-39.78 10.55-61.94 1.78-13.56-18.91-77.03-47.69-65.81-17.91 6.99-11.07 43.32-10.31 57.65.53 9.91 1.96 20.84-.5 30.43-5.05 19.68-14.62 37.85-20.12 57.44z" class="U"/><path d="M725.035 1263.43l13.01 59.19-19.34 6.38-9.91-62.57c.01.01 10.06-5 16.24-3z" class="O"/><path d="M817.245 1345.95s-14.47 4.94-42.21 7-58.7 3.09-64.32-1.03c-5.63-4.12-9.25-39.11 0-39.11s12.84 13.38 29.15 1.44c13.97-10.23 25.13 9.06 49.45 14.2s34.16 7.2 27.93 17.5z" class="b"/><path d="M773.955 1286.48c-.93-2.17-3.37-3.79-5.49-5.48-19.37-15.44-9.26-38.88-11.54-59.57-7.11-64.46 5.13-102.17-19.11-168.02-16.5-44.81-20.95-74.38-24.94-124.16-1.39-17.28 32.84-39.61 6.73-34.67-12.37 2.34-24.58 1.88-36.91-.28-6.49-1.14.13-3.25-6.49-1.14-22.55 7.2-39.33 47.57-39.61 63.12-.63 34.86 26.13 57.74 33.44 88.23 12.84 53.55 33.02 91.43 27.75 135.49l-8.46 64.67c-1.68 12.57-12.19 40.11-5.14 51.49 9.68 15.62 52.81 2.38 67.22 2.03 10.83-.27 25.71-4.34 22.55-11.71z" class="V"/><path d="M724.785 812.06c-6.54-26.54.56-71.18-18.15-90.87-1.92-2.02-3.95-4.01-6.49-5.16-23.51-10.59-37.69 8.71-47.8 25.44-10.12 16.75-9.89 34.87-14.83 53.65-5.62 21.35-4.49 43.55-4.89 65.59-.25 13.42 1.39 26.75.63 40.19a162.3 162.3 0 0 1-4 27.84c-1.42 6.08-9.37 18.15-7.05 24.34 1.84 4.9 10.26 3.05 14.4 3.19 16.01.53 31.7-4.22 45.94-11.26 13.01-6.43 26.76-6.18 41.77-7.42 7.45-.62 17.11-7.04 13.74-20.58-7.99-32.09-5.66-60.2-8.96-82.86-1.08-7.32-2.5-14.73-4.31-22.09z" fill="#38bff8"/><path d="M683.065 755.49s33.47 76.37 49.75 86.66 30.38 8.82 59.08-9.97c28.71-18.79 54.52-41.23 57.25-43.79s26.27-5.36 28.33-15.52 11.01-43.03 2.39-36.58-16.05 27.73-23.23 28.1 2.99-21.98-3.54-18.38-6.99 9.52-9.34 14.55.75 10.7-13.52 23.2-60.94 45.13-74.37 42.7c-13.43-2.44-62.63-74.81-64.64-80.35-2.02-5.53-8.16 9.38-8.16 9.38z" class="O"/><path d="M729.195 780.63s-20.34-60.88-44.52-48.61 11.69 76.96 11.69 76.96l39.28-20.66z" class="W"/><path d="M1019.413 1294.858c-2.55-4.97-4.68-10.41-4.38-15.94.53-10.06 8.58-17.5 15.52-24.49s13.72-16.48 10.93-26.23c-2.67-9.37-12.7-14.07-21.2-18.61s-17.63-12.55-15.89-22.03c2.49-13.58 24.44-15.41 26.64-29.05.8-4.94-1.43-9.89-3.59-14.46l-22.17-46.84c-3.38-7.15-6.46-16.59-1.03-22 3.66-3.64 9.49-3.48 14.32-5.23 12.54-4.55 16.11-20.41 18.83-33.77s9.25-29.06 22.62-29.87c5.15-.31 10.22 1.85 14.71 4.6 17.8 10.92 28.97 32.43 27.69 53.32-.55 8.94-2.92 18.9 2.35 26.23 2.74 3.81 7.03 6.04 10.84 8.72 14.55 10.26 22.76 29.28 20.24 46.87-1.72 12-7.82 24.71-2.15 35.57 6.34 12.15 24.09 14.44 30.13 26.74 4.97 10.13-.37 22.01-6.6 31.06s-13.79 18.44-13.37 29.65c.22 5.8 2.61 11.35 3.31 17.12 1.77 14.72-7.71 28.21-18.79 37.41-14.31 11.89-36.09 24.42-55.28 17.68-21.98-7.7-42.92-25.43-53.68-46.45z" class="S"/><g class="Q"><path d="M1090.943 1272.918c-.7 0-1.3-.52-1.39-1.22l-27.01-206.12c-.1-.77.44-1.47 1.21-1.58.81-.12 1.47.44 1.58 1.21l27.01 206.12c.1.77-.44 1.47-1.21 1.58-.07.01-.13.01-.19.01z"/><path d="M1074.543 1137.328c-.19 0-.38-.04-.56-.12-.71-.31-1.04-1.14-.72-1.85l20.67-47.36c.31-.72 1.15-1.04 1.85-.73.71.31 1.04 1.14.72 1.85l-20.67 47.36a1.41 1.41 0 0 1-1.29.85zm8.77 77.38a1.37 1.37 0 0 1-1.01-.43l-29.91-30.92c-.54-.56-.52-1.45.03-1.99.56-.54 1.45-.53 1.99.03l29.91 30.92c.54.56.52 1.45-.03 1.99-.27.27-.63.4-.98.4z"/></g><g class="a"><path d="M1079.783 1278.378c-5.93-6.6-11.75-13.23-13.55-21.86-.93-4.47.62-10.59 5.17-10.85 2.29-.13 4.3 1.38 6.33 2.45 7.81 4.14 7.86-5.17 5.71-10.1-3.78-8.69-9.56-17.36-8.28-26.75.08-.59.21-1.21.62-1.65.61-.65 1.63-.65 2.51-.54 6.01.79 12.2 8.6 18.39 6.05 15.12-6.22 2.04-40.95 1.01-51.67-.2-2.05-.37-4.24.62-6.04 1.92-3.5 7.17-3.57 10.61-1.56 5.28 3.09 8.28 9.09 14.04 11.53 4.54 1.92 9.71-.28 13.05-3.52 10.05-9.74 12.39-25.65 20.31-36.95 6.48-9.25 24.5-23.32 34.59-10.8 4.62 5.73 1.86 14.09-.03 21.2-1.76 6.59-3.2 14.34-2.53 21.15.5 4.99 2.63 10.05 6.72 12.95 7.95 5.63 22.89 5.81 14.67 19.21-2.52 4.1-6.43 7.14-9.44 10.9s-5.11 8.95-3.16 13.35c3.55 8.03 27.36 10.99 18.24 23.6-2.28 3.16-5.91 5-9.28 6.95-16.3 9.42-1.67 17.69-4.82 30.64-1.13 4.66-4.66 8.45-8.74 10.95-6.56 4.02-14.52 5.55-21.54 8.61-14.26 6.23-27.01 15.5-38.93 25.4-8.74 7.26-22.45 23.47-35.34 15.64-7.95-4.83-2.99-18.39-2.26-25.45 1.43-13.73-5.95-23.11-14.69-32.84z"/><path d="M1102.403 1346.758a1.92 1.92 0 0 1-.66-.12 1.86 1.86 0 0 1-1.09-2.41l59.85-159.14c.36-.97 1.45-1.46 2.41-1.09a1.86 1.86 0 0 1 1.09 2.41l-59.85 159.14c-.28.75-.99 1.21-1.75 1.21z"/><path d="M1144.783 1236.738c-.6 0-1.2-.29-1.56-.83a1.88 1.88 0 0 1 .52-2.6l29.12-19.42c.85-.57 2.02-.35 2.6.52a1.88 1.88 0 0 1-.52 2.6l-29.12 19.42c-.32.21-.68.31-1.04.31zm-21.1 57.92c-.6 0-1.2-.29-1.56-.83a1.88 1.88 0 0 1 .52-2.6l29.12-19.42c.85-.57 2.02-.34 2.6.52a1.88 1.88 0 0 1-.52 2.6l-29.12 19.42c-.32.21-.68.31-1.04.31zm6.96-28.46a1.88 1.88 0 0 1-1.58-.86l-18.53-28.92c-.56-.87-.3-2.03.57-2.59a1.87 1.87 0 0 1 2.59.57l18.53 28.92c.56.87.3 2.03-.57 2.59a1.85 1.85 0 0 1-1.01.29z"/></g><path d="M1036.483 1338.858c-25.13 2.85-49.44.04-59.48-25.93-3.61-9.35-8.9-13.03-18.3-15.68-4.57-1.29-9.36-2.77-12.61-6.24-3.24-3.47-4.15-9.59-.63-12.78 2.81-2.55 7.08-2.3 10.85-1.91l18.76 1.97c.89.09 1.83.18 2.63-.21 2.66-1.29.99-5.33-.98-7.53-7.36-8.23-14.94-16.27-22.72-24.09-2.88-2.89-5.89-5.93-7.07-9.84s.21-8.93 4.04-10.35c5.31-1.98 11.53 3.78 16.54 1.14 3.59-1.89 4.03-6.9 3.09-10.84s-2.79-7.88-2.08-11.87c.68-3.81 3.89-7.03 7.7-7.71 3.8-.69 7.94 1.21 9.9 4.54 2.16 3.66 2.02 8.89 5.57 11.23 2.98 1.96 7.05.72 10.01-1.26 2.97-1.98 5.55-4.68 8.93-5.83 5.73-1.96 12.72 1.85 14.19 7.72 1.46 5.85-1.91 12.59 1.12 17.81 2.82 4.86 9.64 5.52 15.15 4.41s11.05-3.4 16.57-2.31c1.9.37 3.89 1.31 4.66 3.08.84 1.94-.03 4.18-1.07 6.02-3.15 5.53-7.93 10.01-10.93 15.62s-3.71 13.34.9 17.72c2.42 2.31 5.8 3.21 8.86 4.58s6.14 3.67 6.57 6.99c.73 5.61-5.98 8.85-9.44 13.32-4.5 5.8-3.39 13.95-3.56 21.29-.49 20.89-20.92 20.44-36.45 16.62" class="T"/><g class="R"><path d="M1039.993 1343.088c-.76 0-1.47-.46-1.75-1.21l-34.66-92.15a1.86 1.86 0 0 1 1.09-2.41c.96-.37 2.05.12 2.41 1.09l34.66 92.15a1.86 1.86 0 0 1-1.09 2.41 1.92 1.92 0 0 1-.66.12z"/><path d="M1015.453 1279.378c-.36 0-.72-.1-1.04-.31l-16.86-11.24a1.88 1.88 0 0 1-.52-2.6c.57-.86 1.75-1.09 2.6-.52l16.86 11.24a1.88 1.88 0 0 1 .52 2.6 1.89 1.89 0 0 1-1.56.83zm12.22 33.54c-.36 0-.72-.1-1.04-.31l-16.87-11.24a1.88 1.88 0 0 1-.52-2.6 1.88 1.88 0 0 1 2.6-.52l16.87 11.24a1.88 1.88 0 0 1 .52 2.6 1.89 1.89 0 0 1-1.56.83zm-4.04-16.48a1.86 1.86 0 0 1-1.01-.3c-.87-.56-1.13-1.72-.57-2.59l10.73-16.74a1.87 1.87 0 0 1 2.59-.57c.87.56 1.13 1.72.57 2.59l-10.73 16.74a1.85 1.85 0 0 1-1.58.87z"/></g><path d="M864.139 310.86c76.06 2.17 152.69 4.3 227.74-8.23 12.32-2.06 27.05-6.82 29.48-19.08 3-15.13-16.25-25.53-31.62-24.27s-30.51 8.54-45.65 5.59c-11.51-2.24-21.01-10.05-30.18-17.36-14.23-11.34-29.79-22.44-47.82-24.88s-38.91 6.78-43.59 24.36c-19.59-4.01-37.1-14.58-55.54-22.31s-39.74-12.6-58.18-4.87-30.35 32.38-18.91 48.78c-10.46-15.01-79.26 19.44-89.6 26.48-16.11 10.98-25.07 16.27-5.69 20.69 18.81 4.29 46.21-5.89 65.49-6.97 34.47-1.9 69.57 1.09 104.07 2.07zm522.33 108.4c5.04-.79 11.61-3.94 10.08-8.8-.47-1.51-1.71-2.66-2.99-3.6-18.17-13.28-43.93 5.14-65.84.02-6.59-1.54-12.52-5.18-19.02-7.05-3.76-1.08-7.69-1.55-11.34-2.98-12.16-4.75-18.3-18.68-29.63-25.18-14.42-8.27-35.5-.13-40.63 15.67-2.8 8.62-2.18 19.72-9.86 24.53-9.42 5.9-25.89-2.65-29.23 11.26 27.05 11.32 53.86.66 81.56 1.23 39.42.82 77.77 1 116.9-5.1zm-383.62 16.49c3.99-.62 20.818-3.443 19.618-7.293-.38-1.2-10.394-4.048-11.414-4.788-14.39-10.52-19.286 7.3-36.646 3.25-5.22-1.22-23.153-7.986-28.313-9.456-2.98-.85-15.134 4.261-18.024 3.131-9.63-3.76-3.185-11.237-12.165-16.387-11.42-6.55-35.216-6.247-39.276 6.273-2.22 6.83-9.805 10.129-15.885 13.939-7.46 4.67-24.376 1.453-27.026 12.463 21.42 8.97 54.611 2.468 76.541 2.918 31.23.64 61.61.78 92.59-4.05z" class="X"/><path d="M431.719 397.35c-3.99-.62-9.19-3.12-7.99-6.97.38-1.2 1.35-2.11 2.37-2.85 14.39-10.52 34.79 4.07 52.15.02 5.22-1.22 9.91-4.11 15.07-5.58 2.98-.85 6.09-1.23 8.98-2.36 9.63-3.76 14.49-14.79 23.47-19.94 11.42-6.55 28.11-.11 32.17 12.41 2.22 6.83 1.73 15.62 7.81 19.43 7.46 4.67 20.5-2.1 23.15 8.91-21.42 8.97-42.66.53-64.59.98-31.23.64-61.6.79-92.59-4.05z" class="W"/><g transform="matrix(1.201814 0 0 1.201814 -297.38405 -153.02506)"><path d="M1295.425 563.439l-3.22-6.74 11.07-2.31z" class="R"/><path d="M1249.659 588.26c-3.07 3.72-6.23 8.15-10.05 11.45-3.79 3.27-10.89 3.92-13.78 7.46 8.87 9.68 30.76 2.81 40.33-2.21 12.77-6.69 23.16-18.18 27.68-31.95 2.41-7.35 2.79-16.56-3.02-21.67-2.82-2.48-6.6-3.5-10.27-4.32-5.74-1.28-12.8-2.66-18.48-.36-8.64 3.5.79 2.98 2.72 6.95 2.28 4.69-2.46 13.62-4.51 17.62-3.06 5.95-6.33 11.85-10.62 17.03z" class="b"/><circle cx="1283.499" cy="555.92" r="2.31" class="O"/><path d="M1244.819 559.69c-5.95-2.16-12.62-3.34-17.13-7.79-2.48-2.45-4.55-6-8.02-6.29-.53-.05-1.11.01-1.5.38-.48.46-.48 1.21-.45 1.87.2 3.96.42 8.02 1.99 11.66s4.81 6.83 8.76 7.17c.48.04 1 .05 1.41.3 1.19.73.54 2.64-.53 3.55s-2.52 1.62-2.82 2.98c-.32 1.44.94 2.85 2.36 3.25s2.93.05 4.37-.3c-.53 2.52-.64 5.89 1.74 6.87 2.07.86 4.9-.82 6.5.74.6.58.8 1.45 1.13 2.21 1.09 2.48 3.77 3.99 6.47 4.26 2.69.27 5.39-.53 7.86-1.63 6.37-2.83 13.37-9.12 8.27-15.66-4.79-6.14-13.23-10.97-20.41-13.57z" class="Q"/></g><g transform="matrix(1.208572 0 0 1.208572 -343.83742 -50.475892)"><path d="M1584.877 198.831l5.83 6.71 2.39-5z" class="R"/><path d="M1624.833 224.352c2.28 2.76 4.62 6.05 7.45 8.5 2.81 2.43 8.08 2.91 10.23 5.53-6.58 7.19-22.82 2.09-29.93-1.64-9.47-4.97-17.18-13.49-20.54-23.71-1.79-5.45-2.07-12.29 2.24-16.08 2.09-1.84 4.9-2.59 7.62-3.2 4.26-.95 9.5-1.98 13.71-.27 6.41 2.6-.58 2.21-2.02 5.16-1.69 3.48 1.82 10.11 3.35 13.07 2.28 4.42 4.71 8.8 7.89 12.64z" class="b"/><circle cx="1599.723" cy="200.362" r="1.71" class="O"/><path d="M1628.423 203.162c4.42-1.6 9.37-2.48 12.71-5.78 1.84-1.82 3.37-4.45 5.95-4.67.39-.03.83.01 1.11.28.35.34.36.9.33 1.39-.15 2.94-.31 5.95-1.48 8.65s-3.57 5.07-6.5 5.32c-.36.03-.74.04-1.05.23-.89.54-.4 1.96.4 2.63.79.67 1.87 1.2 2.09 2.21.24 1.07-.69 2.12-1.75 2.41s-2.18.04-3.24-.22c.39 1.87.48 4.37-1.29 5.1-1.54.64-3.63-.61-4.83.55-.44.43-.59 1.07-.84 1.64-.81 1.84-2.8 2.96-4.8 3.16s-4-.39-5.83-1.21c-4.73-2.1-9.92-6.77-6.13-11.62 3.56-4.56 9.82-8.14 15.15-10.07z" class="Q"/></g><path d="M1774.255 1060.109h232.68c16.258 0 29.558-15.643 29.558-34.765v-98.9c0-19.123-13.3-34.766-29.558-34.766h-232.68c-16.259 0-29.558 15.643-29.558 34.766v98.9c-.011 19.123 13.293 34.765 29.558 34.765z" class="O"/><path d="M1776.197 1013.819c20.9 28.768 61.161 35.147 89.92 14.247l-75.681-104.168c-28.759 20.892-35.139 61.152-14.238 89.92z" fill="#fae6db"/><path d="M1797.212 918.971l34.672 47.723 48.647-35.341c-19.73-26.057-56.752-31.68-83.32-12.382z" class="S"/><path d="M1903.13 927.279c-.317-.44-.686-.827-1.012-1.258l-65.323 47.45 48.454 66.696c36.116-26.242 44.114-76.781 17.882-112.888z" class="X"/><path d="M2019.078 668.888h-74.508a13.408 13.408 0 0 1-13.365-13.365h0a13.408 13.408 0 0 1 13.365-13.365h74.508a13.408 13.408 0 0 1 13.365 13.365h0a13.408 13.408 0 0 1-13.365 13.365z" class="a"/><path d="M1932.116 626.501h74.637c16.247 0 29.538-19.718 29.538-43.824V458.001c0-24.106-13.29-43.827-29.538-43.827h-46.972c-.014.032-.03.062-.044.094a270.929 270.929 0 0 0-5.344 13.102 292.32 292.32 0 0 0-4.734 13.527 316.792 316.792 0 0 0-4.147 13.935c-1.286 4.711-2.478 9.49-3.58 14.331a378.792 378.792 0 0 0-3.039 14.707 416.351 416.351 0 0 0-2.519 15.069c-1.51 10.163-2.687 20.56-3.563 31.166s-1.45 21.421-1.752 32.426-.332 22.201-.119 33.565c.187 9.993.633 20.165 1.175 30.405z" class="W"/><path d="M1823.115 531.204c-6.083 1.832-12.167 3.599-18.249 5.706-9.064 3.139-18.127 6.598-27.191 10.416s-18.129 7.996-27.193 12.577c-1.929.975-3.858 2.044-5.787 3.056v19.717c-.011 24.106 13.285 43.825 29.54 43.825h88.084l-2.924-6.291-12.805-29.145-12.297-30.058a1067.89 1067.89 0 0 1-11.177-29.803z" class="P"/><path d="M1774.235 414.174c-16.247 0-29.54 19.72-29.54 43.827v104.958l5.787-3.056c9.064-4.581 18.129-8.759 27.193-12.577s18.127-7.277 27.191-10.416c6.083-2.107 12.167-3.874 18.249-5.706l-.508-1.354a1003.345 1003.345 0 0 1-10.97-32.443 976.069 976.069 0 0 1-10.153-33.918 975.941 975.941 0 0 1-9.227-35.582c-1.068-4.46-1.989-9.187-3.01-13.731v-.002z" class="Q"/><path d="M1789.247 414.175l3.01 13.731a975.941 975.941 0 0 0 9.227 35.582 976.069 976.069 0 0 0 10.153 33.918 1003.345 1003.345 0 0 0 10.97 32.444c3.782 10.589 7.682 20.965 11.685 31.157a1173.63 1173.63 0 0 0 12.297 30.058l12.805 29.144 2.923 6.291h69.799c-.542-10.239-.988-20.413-1.175-30.405-.213-11.364-.183-22.559.119-33.565s.875-21.821 1.752-32.426 2.053-21.002 3.563-31.166a416.351 416.351 0 0 1 2.519-15.069 378.792 378.792 0 0 1 3.039-14.707 345.203 345.203 0 0 1 3.581-14.331c1.287-4.713 2.668-9.358 4.147-13.935s3.055-9.087 4.734-13.527 3.458-8.807 5.344-13.102c.014-.032.03-.062.044-.094z" class="S"/><path d="M1745.819 507.312c27.221-15.488 51.791-37.055 81.663-46.463 14.569-4.588 38.772-7.321 45.366 6.456 23.282 48.642 31.866 50.368 62.116 64.416" fill="none" stroke="#38bff8" stroke-width="6"/><path d="M1919.458 593.471c-47.35 0-85.873-38.522-85.873-85.873s38.522-85.873 85.873-85.873 85.873 38.522 85.873 85.873-38.522 85.873-85.873 85.873zm0-163.72c-42.931 0-77.858 34.927-77.858 77.847 0 42.931 34.927 77.858 77.858 77.858s77.847-34.927 77.847-77.858-34.916-77.847-77.847-77.847zm0 135.652c-31.877 0-57.805-25.928-57.805-57.805s25.928-57.805 57.805-57.805 57.805 25.928 57.805 57.805-25.928 57.805-57.805 57.805zm0-107.584c-27.447 0-49.79 22.332-49.79 49.779s22.332 49.79 49.79 49.79c27.447 0 49.779-22.332 49.779-49.79 0-27.447-22.322-49.779-49.779-49.779zm0 82.93c-18.277 0-33.15-14.874-33.15-33.151s14.863-33.151 33.15-33.151 33.151 14.874 33.151 33.151-14.874 33.151-33.151 33.151zm0-58.276c-13.857 0-25.125 11.268-25.125 25.125s11.268 25.125 25.125 25.125 25.125-11.268 25.125-25.125-11.268-25.125-25.125-25.125z" fill="#8b9ba9"/><path d="M1946.01 513.441h-28.545c-3.823 0-2.02-1.798-2.02-4.013s3.102-4.013 6.926-4.013h23.639c3.823 0 6.926 1.798 6.926 4.013s-3.102 4.013-6.926 4.013zm-30.926-1.503l2.713-30.858c.107-2.215 1.958-3.916 4.184-3.831 2.215.096 3.927 1.98 3.831 4.184l-2.008 18.965 103.886-95.198a4.013 4.013 0 0 1 5.489 1.423c1.123 1.905.482 4.366-1.423 5.489l-109.007 97.414z" class="U"/><path d="M1932.433 1027.4h0a9.556 9.556 0 0 1 9.524-9.524h64.707a9.556 9.556 0 0 1 9.524 9.524h0a9.556 9.556 0 0 1-9.524 9.524h-64.707a9.556 9.556 0 0 1-9.524-9.524z" class="V"/><path d="M1515.723 777.896s-22.76 30.08-24.13 51.93 56.35 30.57 56.35 30.57zm64.34-83.69l-2.44 45.42-35.55 13.71s21.38-31.28 17.75-59.13c-3.61-27.85 20.24 0 20.24 0z" class="R"/><path d="M1611.833 601.276s7.74 10.26.19 41.71c-7.55 31.46-19.81 58.32-29.29 56.42-26.21-5.24-35.41-23.76-44.5-39.66-11.14-19.5 10.98-67.06 10.98-67.06l20.9-11.28z" class="O"/><path d="M1639.743 592.796c2.29-7.38-1.73-16.82-7.1-21.38-2.07-1.76-4.68-2.88-7.29-2.62-1.96.19-3.88 1.14-5.83.82-5.84-.97-6.54-9.58-11.96-11.33-4.04-1.3-7.92 2.36-12.04 3.33-3.11.73-6.33-.11-9.46-.76-8.81-1.85-16.98-6.08-26.01-7.17-7.62-.92-15.57-.06-22.46 3.64-7.2 3.86-12.36 10.96-15.11 19.16-1.64 4.9-2.17 10.36-.85 15.38-1.08-4.13-8.51.31-9.72 1.93-4.73 6.38-5.53 20.21-3.02 27.63 1.99 5.88 5.26 11.08 7.08 17.04 2.16 7.11 3.06 15 7 21.3 4.51 7.23 13.47 10.91 21.18 8.91-2.38-6.54-4.74-13.23-5.18-20.25s-9.73-38.75 24.85-45.6c13.75-2.72 30.31 8.74 44.08 9.29 6.54.26 13.09-1.01 19.22-3.5 4.74-1.92 9.35-8.99 11.96-14.16a9.57 9.57 0 0 0 .66-1.66z" class="P"/><path d="M1539.023 625.546s-9.66-10.91-8.6 5.74 9.78 20.09 9.78 20.09z" class="O"/><path d="M1456.623 1263.476l-20.94 54.98-19.1-5.11 25.26-56.07c-.01 0 10.82 1.29 14.78 6.2z" class="R"/><path d="M1484.613 1369.726c-.68 1.14-7.44.68-8.45.69-10.43.15-26.46.91-35.43-5.12-8.74-5.88-14.36-15.98-22.08-23.06-5.43-4.98-12.36-8-18.78-11.53-7.09-3.9 7.33-36.24 15.93-31.01 6.96 4.24 3.54 15.96 21.29 14.44 15.21-1.31 5.55 20.41 23.24 33.35 15.64 11.44 31.74 9.74 24.28 22.24z" class="P"/><path d="M1495.263 1067.176c-8.5 46.25-26.24 88.34-52.58 127.16-12.85 18.93-26.6 37.18-39.91 55.79-18.98 26.54 45.35 32.75 61.19 37.54 10.36 3.13 25.77 3.93 25.08-4.06-.2-2.35-2.01-4.66-3.5-6.92-13.57-20.73-1.71-41.61 7.68-60.19 28.13-55.71 47.12-119.94 69.19-177.99 8.4-22.1 4.62-43.87 5.84-68.11.75-14.84-24.98-80.21-53.09-64.1-17.49 10.03-7.8 48.15-5.93 63.47 1.3 10.59 3.58 22.14 1.84 32.81-3.56 21.86-11.79 42.75-15.81 64.6z" class="U"/><path d="M1563.773 1281.976l13.01 59.19-19.34 6.38-9.91-62.57c.01.01 10.07-4.99 16.24-3z" class="O"/><path d="M1655.993 1364.496s-14.47 4.94-42.21 7-58.7 3.09-64.32-1.03c-5.63-4.12-9.25-39.11 0-39.11s12.84 13.38 29.15 1.44c13.97-10.23 25.13 9.06 49.45 14.2 24.31 5.15 34.16 7.21 27.93 17.5z" class="b"/><path d="M1614.143 1298.556c-.93-2.17-3.37-3.79-5.49-5.48-19.37-15.44-14.64-38.99-11.54-59.57 7.35-48.82-.52-98.03-3.46-146.86-2.86-47.66 1.91-95.49 12.8-141.95 3.96-16.88 9.42-42.98-16.69-38.04-12.37 2.34-24.58 1.88-36.91-.28-6.49-1.14.13-3.25-6.49-1.14-22.55 7.2-30.98 49.82-26.35 64.67 9.22 29.57 12.22 57.95 13.72 89.26 2.12 44.4 9.51 88.85 4.24 132.91l-8.46 64.67c-1.68 12.57-12.19 40.11-5.14 51.49 9.68 15.62 52.81 2.38 67.22 2.03 10.82-.28 25.7-4.34 22.55-11.71z" class="V"/><path d="M1594.943 824.136c-6.54-26.54.56-71.18-18.15-90.87-1.92-2.02-3.95-4.01-6.49-5.16-23.51-10.59-37.69 8.71-47.8 25.44-10.12 16.75-9.89 34.87-14.83 53.65-5.62 21.35-4.49 43.55-4.89 65.59-.25 13.42 1.39 26.75.63 40.19a162.3 162.3 0 0 1-4 27.84c-1.42 6.08-9.37 18.15-7.05 24.34 1.84 4.9 10.26 3.05 14.4 3.19 16.01.53 31.7-4.22 45.94-11.26 13.01-6.43 24.41-16.4 39.41-17.64 7.45-.62 30.91 2.44 27.54-11.11-7.99-32.09-17.1-59.45-20.41-82.11-1.07-7.33-2.49-14.73-4.3-22.09z" fill="#38bff8"/><path d="M1609.973 807.296s-18.94-61.33-43.39-49.62 9.92 77.21 9.92 77.21l39.74-19.75z" class="W"/><g transform="rotate(356.419 -25739.088 77.123)"><path d="M139.422 1674.875c7.522-.591 15.09 1.033 22.644.725 9.823-.399 19.202-4.012 28.37-7.596l49.488-19.31c4.616-1.804 9.931-3.576 14.322-1.277 2.865 1.499 4.651 4.432 6.286 7.225l15.274 26.105c2.712 4.619 5.491 9.875 4.12 15.045-1.529 5.793-7.612 8.979-13.074 11.468l-69.692 31.76c-2.199.996-4.557 2.027-6.932 1.643-2.191-.355-4.004-1.856-5.642-3.35-6.912-6.28-12.945-13.55-17.842-21.516-3.522-5.736-6.562-11.949-11.661-16.335-7.927-6.83-5.3-8.256-12.59-14.173-10.614-8.641-10.448-9.83-3.071-10.415z" class="V"/><g transform="rotate(339.452)" class="X"><circle r="8.26" cy="1665.319" cx="-420.041"/><circle r="8.26" cy="1665.319" cx="-385.487"/><circle r="8.26" cy="1665.319" cx="-349.372"/></g><path d="M68.517 1695.46c-5.594 5.393-9.513 12.333-14.911 17.943-7.019 7.297-16.21 12.054-25.235 16.67l-48.688 24.939c-4.544 2.324-9.54 5.209-10.768 10.163-.803 3.232.237 6.611 1.273 9.779l9.679 29.604c1.707 5.245 3.858 10.977 8.777 13.453 5.508 2.779 12.119.269 17.769-2.239l72.084-32.001c2.27-1.014 4.676-2.127 6.001-4.218 1.224-1.931 1.305-4.353 1.273-6.636a102.59 102.59 0 0 0-4.388-28.447c-2.013-6.633-4.724-13.219-4.619-20.145.152-10.774-2.74-9.724-2.319-19.384.594-14.082-.437-14.766-5.927-9.481z" class="V"/><g transform="matrix(-.883851 .467768 .467768 .883851 0 0)" class="X"><circle r="8.506" cy="1580.085" cx="770.918"/><circle r="8.506" cy="1580.085" cx="806.501"/><circle r="8.506" cy="1580.085" cx="843.692"/></g><path d="M161.326 1755.869l-43.397 20.509c-7.801 3.687-18.431-3.141-23.602-15.159l-28.764-66.856c-5.171-12.018-3.015-24.888 4.786-28.574l43.397-20.509c7.801-3.687 18.431 3.141 23.602 15.159l28.764 66.856c5.183 12.047 3.033 24.879-4.786 28.574z" class="Z"/></g><path d="M343.34 106.168l-12.397 6.25c8.136 17.329 12.695 36.661 12.695 57.041 0 74.255-60.393 134.664-134.648 134.664-51.053 0-95.562-28.555-118.393-70.533l-12.377 6.24c25.122 46.495 74.316 78.156 130.77 78.156 81.899 0 148.529-66.628 148.529-148.527 0-22.624-5.093-44.08-14.18-63.291zm-43.361 21.862l-12.406 6.254a85.62 85.62 0 0 1 7.518 35.176c0 47.492-38.626 86.117-86.1 86.117-32.14 0-60.214-17.701-75.01-43.857l-12.391 6.246c17.091 30.677 49.857 51.475 87.4 51.475 55.136 0 99.982-44.844 99.982-99.98 0-14.77-3.222-28.801-8.994-41.43zm-38.125 19.22l-12.443 6.273a43.23 43.23 0 0 1 3.037 15.936c0 23.968-19.489 43.457-43.457 43.457-15.518 0-29.151-8.176-36.84-20.441l-12.428 6.266c10.015 16.784 28.347 28.057 49.268 28.057 31.612 0 57.338-25.726 57.338-57.338a57.04 57.04 0 0 0-4.475-22.209z" class="Y"/><circle cx="167.922" cy="59.471" r="7.02" class="T"/><circle cx="181.29" cy="90.162" r="7.02" class="Q"/><defs><marker orient="auto" refY="0.0" refX="0.0" id="A" class="c"><path d="M5.77 0l-8.65 5V-5l8.65 5z" transform="scale(.2)" class="Z d e f g h"/></marker><marker orient="auto" refY="0.0" refX="0.0" id="B" class="c"><path d="M5.77 0l-8.65 5V-5l8.65 5z" transform="scale(-.2)" class="Z d e f g h"/></marker><path id="C" d="M-1464.712 1399.904h0c4.89 0 8.9 3.166 8.9 7.045v94.479c0 3.871-4 7.045-8.9 7.045h0c-4.89 0-8.9-3.166-8.9-7.045v-94.479c0-3.879 4.01-7.045 8.9-7.045z"/><marker orient="auto" refY="0" refX="0" id="D" class="c"><path d="M5.77 0l-8.65 5V-5z" transform="scale(-.2)" class="U d e f g i"/></marker><marker orient="auto" refY="0" refX="0" id="E" class="c"><path d="M5.77 0l-8.65 5V-5z" transform="scale(.2)" class="U d e f g i"/></marker><path id="F" d="M1811.496 755.021l-.448.013-42.375-.127-.235-.379-21.077-36.566.213-.392 21.298-36.439.448-.013 42.375.127.235.379 21.077 36.566-.213.392z"/></defs><g transform="matrix(0 1.070064 -1.070064 0 2718.3012 -1142.1309)" fill="#fff"><path d="M1982.5 773.884h-2.81v-7.73h2.81zm0-15.47h-2.81v-7.73h2.81zm0-15.47h-2.81v-7.73h2.81zm0-15.459h-2.81v-7.73h2.81z"/><path d="M1979.69 724.904v-2.34h-2.34v-2.81h5.15v5.15zm-15.234-5.153h6.306v2.81h-6.306zm-8.768 0h2.468v2.81h-2.468z"/></g><path d="M1915.014 940.803h0a9.556 9.556 0 0 1 9.524-9.524h43.305a9.556 9.556 0 0 1 9.524 9.524h0a9.556 9.556 0 0 1-9.524 9.524h-43.305a9.556 9.556 0 0 1-9.524-9.524z" class="P"/><use xlink:href="#F" class="S"/><use xlink:href="#F" x="64.135" y="37.059" class="Q"/><use xlink:href="#F" x="128.467" y="0.341" class="R"/><use xlink:href="#F" x="192.602" y="37.4" class="W"/><use xlink:href="#F" x="128.269" y="74.118" class="T"/><use xlink:href="#F" x="-0.198" y="73.776" class="P"/><use xlink:href="#F" x="63.936" y="110.835" class="a"/><use xlink:href="#F" x="192.404" y="111.177" class="X"/><g fill="none" stroke-width="6"><path d="M1854.353 757.003l-.066 71.582" marker-start="url(#B)" marker-end="url(#A)" class="h"/><path d="M1981.56 752.912l-63.363 36.846" marker-start="url(#D)" marker-end="url(#E)" class="i"/></g><path d="M1627.623 846.346s27.45 30.37 31.92 26.06 86.56-92.02 90.67-101.57 13.94-37.17 12.91-42.74-3.64-4.97 7.24-6.94 31.56-2.44 29.88 1.78-10.28 4.58-10.28 4.58 11.14 2.73 6.93 4.99-18.22 4.15-16.86 8.2 3.39 13.33 2.65 21.18-3.77 11.4-12.87 17c-9.1 5.59-10.7 1.7-16 12.77s-85.83 107.25-90.97 111.23-6.48 8.37-17.9-2.15-31.53-36.56-47.62-53.4c-14.76-15.44-20.83-37.18-20.83-37.18l23.88-3.52s2.8 16.56 27.25 39.71z" class="O"/></svg>