<svg xmlns="http://www.w3.org/2000/svg" xmlns:xlink="http://www.w3.org/1999/xlink" width="1331.33" height="881.033" fill="none" xmlns:v="https://vecta.io/nano"><style><![CDATA[.g{fill:#fff}.h{fill:#000}.i{opacity:.15}.j{fill:#92400e}.k{fill:#dadddf}.l{opacity:.4}.m{fill:#38bff8}.n{opacity:.5}.o{fill:#90e3ae}.p{fill:#efd7c9}.q{fill:#21252b}.r{fill:#f99a9a}.s{opacity:.722}.t{fill:#229e4b}.u{fill:#fa9b9b}.v{fill:#868a91}]]></style><path d="M1120.048 878.813l108.62-289.63a54.85 54.85 0 0 0 .71-36.51l-156.9-473.35c-7.09-21.39-26.54-36.27-49.04-37.5l-739.56-40.74a54.85 54.85 0 0 0-45.98 20.67l-225.02 283.63c-11.78 14.85-15.06 34.74-8.66 52.59l186.68 520.84z" fill="#dcf0fa"/><path d="M547.109 174.683s-61.89 65.47-107.33 107.88l-129.81 119.8 108.07 66.14 111.73 66.79 187.19-92.37c26.87-14.34 110.859-67.58 110.859-67.58l-162.379-105.57c-30.77-21.85-118.33-95.09-118.33-95.09z" fill="#d9dcde"/><path d="M309.969 402.363l129.81-119.8c45.43-42.41 107.33-107.88 107.33-107.88v81.62l-26.62 2.6 43.28 51.92-81.72-1.73 16.99 35.47-136.42 98.38z" class="g"/><g class="h"><path d="M484.575 553.693l-38.844-1.582 1.071-5.489 6.761 2.008-6.201-4.87.586-2.962 8.226 4.452-7.64-7.448 3.171-16.159 7.406 4.46-6.92-6.962 4.41-22.451 6.753 4.167-6.125-7.389 1.774-9.046h4.351l-3.824-2.661v-.008l1.28-6.527 5.925 2.669-5.481-4.937 3.774-19.221 7.364 37.556-5.657 3.314 6.527 1.105.644 3.28-3.69-.318 4.209 2.996 2.167 11.037-6.812 3.883 7.832 1.297 2.042 10.443-9.439 4.628 9.941-2.067.368 1.858-7.322 5.757 7.69-3.866.669 3.389-9.933 5.481 11.314 1.556z" opacity=".69"/><path d="M517.179 579.063l-46.42-1.89 1.28-6.56 8.08 2.4-7.41-5.82.7-3.54 9.83 5.32-9.13-8.9 3.79-19.31 8.85 5.33-8.27-8.32 5.27-26.83 8.07 4.98-7.32-8.83 2.12-10.81h5.2l-4.57-3.18v-.01l1.53-7.8 7.08 3.19-6.55-5.9 4.51-22.97 8.8 44.88-6.76 3.96 7.8 1.32.77 3.92-4.41-.38 5.03 3.58 2.59 13.19-8.14 4.64 9.36 1.55 2.44 12.48-11.28 5.53 11.88-2.47.44 2.22-8.75 6.88 9.19-4.62.8 4.05-11.87 6.55 13.52 1.86z" opacity=".69"/></g><use xlink:href="#A" fill="#d9dcde"/><use xlink:href="#A" opacity=".13" class="h"/><path d="M523.198 538.473l234.85-117.06c46.95-25.62 178.55-105.72 178.55-105.72l-36.32 113.06-35.26 6.53-10.49 74.45-131.714-28.363 18.572 8.136-203.084 59.78z" class="g"/><path d="M35.889 446.363l79.73-52.92c49.22-32.09 87.17-63.42 87.17-63.42l97.5 66.04c108.9 70.9 433.6 258.47 424.22 252.94l-654.2-106.84z" fill="#a3a4a5"/><path d="M35.889 446.363l79.73-52.92c49.22-32.09 87.17-63.42 87.17-63.42l16.67 69.84-59.08 21.35 45.25 25.15L57.1 506.282z" class="g"/><path d="M62.198 519.753s76.67-2.13 278.32 47.89c96.14 23.85 168.84 42.32 249.79 56.5 88.85 15.56 185.73 26.02 289.02 34.27l-140.95 79.71-611.97-39.21z" fill="#b8eccb"/><path d="M202.778 680.293l-57.67-2.34 1.6-8.15 10.03 2.98-9.2-7.22.86-4.41 12.22 6.62-11.34-11.07 4.7-23.98 11 6.62-10.27-10.33 6.54-33.33 10.03 6.18-9.09-10.97 2.63-13.43h6.46l-5.68-3.95 1.9-9.7 8.79 3.96-8.13-7.33 5.6-28.53 10.93 55.75-8.4 4.92 9.69 1.65.96 4.86-5.48-.47 6.26 4.44 3.21 16.39-10.12 5.77 11.63 1.92 3.04 15.5-14.02 6.87 14.77-3.06.54 2.75-10.87 8.55 11.42-5.74.98 5.03-14.74 8.15 16.79 2.3zm188.68 13.55l-57.68-2.34 1.6-8.15 10.03 2.98-9.2-7.22.87-4.41 12.21 6.62-11.34-11.07 4.7-23.98 11 6.62-10.27-10.33 6.54-33.33 10.03 6.18-9.09-10.97 2.63-13.43h6.46l-5.68-3.95 1.9-9.7 8.79 3.96-8.13-7.33 5.6-28.53 10.94 55.75-8.41 4.92 9.7 1.65.95 4.86-5.48-.47 6.26 4.44 3.21 16.39-10.11 5.77 11.62 1.92 3.04 15.5-14.02 6.87 14.77-3.06.54 2.75-10.87 8.55 11.42-5.74.99 5.03-14.75 8.15 16.8 2.3zm-76.91-10.36l-93.5-3.81 2.59-13.2 16.27 4.82-14.92-11.7 1.4-7.14 19.8 10.72-18.39-17.94 7.63-38.87 17.83 10.72-16.65-16.74 10.6-54.03 16.26 10.01-14.74-17.77 4.27-21.78h10.47l-9.21-6.41 3.09-15.72 14.24 6.42-13.17-11.88 9.07-46.25 17.73 90.37-13.63 7.98 15.72 2.67 1.54 7.89-8.87-.76 10.14 7.19 5.21 26.58-16.4 9.34 18.84 3.12 4.93 25.13-22.72 11.14 23.93-4.97.88 4.46-17.61 13.87 18.5-9.32 1.6 8.16-23.9 13.2 27.22 3.74z" class="h"/><path d="M117.869 675.292s20.15-19.63 52.79-19.6c67.14.08 249.88 54.65 346.39 51.59 127.34-4.03 296.91-4.48 485.319-99.36 120.91-60.88 228.9-28.21 228.9-28.21s-.93 4.29-1.35 5.69c-1.55 5.15-7.42 20.21-7.42 20.21l-102.45 273.201H190.899z" fill="#22c55e"/><path d="M454.648 838.033s-55.84-153.99-34.92-161.88c21.93-8.27 86.11 161.88 86.11 161.88z" class="t"/><path d="M507.119 838.033s37.2-180.89 16.27-188.78c-21.93-8.27-67.46 188.78-67.46 188.78z" class="q"/><path d="M755.169 878.823l-73.47-135.35a25.6 25.6 0 0 0-23.96-13.34l-106.02 6.13c-9.51.55-17.92 6.33-21.84 15.01-3.73 8.25-11.54 13.92-20.53 14.9l-11.58 1.27c-9.62 1.05-17.82 7.44-21.19 16.51l-35.32 94.86z" fill="#808a93"/><path d="M583.073 878.801l7.066-29.74c3.069-12.92 17.894-22.26 35.044-22.08l168.297.74c11.651.12 24.934 5.69 31.348 13.14l32.601 37.93H583.073z" fill="#4b5b69"/><use xlink:href="#B" fill="#5fcbf9" stroke="#22c55e" stroke-width=".378" stroke-linejoin="bevel"/><use xlink:href="#B" class="m"/><path d="M771.419 879.883a273.91 273.91 0 0 1 16.809-14.82c20.564-16.7 43.864-30.73 69.592-41.35 93.033-38.38 194.855-22.67 270.63 32.6l-8.839 23.61z" fill="#a5acb3"/><path d="M541.189 878.803c-56.72-117.831-196.27-172.321-318.73-121.861-22.96 9.46-43.74 21.96-62.08 36.84l30.51 85.041z" fill="#3b4b59"/><path d="M147.789 739.002a174.8 174.8 0 0 1 46.03-11.2c3.4-.35 6.49 2 7.08 5.36l16.3 92.56 15.71-116.43c.46-3.38 3.45-5.85 6.85-5.64 16.14 1 31.72 4.08 46.46 8.99 3.28 1.09 5.11 4.57 4.2 7.9l-5.98 21.84-16.99 61.74 49.89-42.3 19.27-16.49a6.53 6.53 0 0 1 8.4-.07 184.13 184.13 0 0 1 42.5 50.47c1.63 2.86.87 6.49-1.76 8.46l-19.21 14.38-70.44 46.441 80.35-24.941 20.359-6.5c3.51-1.12 7.28.88 8.25 4.43a182.13 182.13 0 0 1 5.971 34.531c.28 3.77-2.74 6.96-6.52 6.95l-213.57-.54-46.87-131.691c-1.18-3.31.46-6.97 3.72-8.25z" class="t"/><path d="M1060.718 817.293l-57.07-82.15c-4.84-6.96-3.24-16.521 3.6-21.531 7.5-5.5 18.11-3.269 22.77 4.781l44.62 77.07z" fill="#a4e4bc"/><path d="M1121.058 750.993v-85.94c0-5.78 4.69-10.47 10.47-10.47 6.06 0 10.86 5.13 10.45 11.18l-5.71 83.93z" fill="#a8e5be"/><path d="M1124.668 808.163l13.42-135.44c.97-9.8 9.72-16.94 19.51-15.94 10.24 1.05 17.46 10.54 15.73 20.68l-18.47 108.54-18.68 49.81z" class="t"/><path d="M1101.308 849.053l-21.72-201.75c-1.32-12.27 7.72-23.22 20.02-24.26 12.2-1.02 22.88 8.11 23.76 20.32l16.48 182.65z" fill="#8dcca2"/><path d="M1113.308 778.063a1.02 1.02 0 0 1-1.01-.93l-13.7-153.98 1.01-.11 1.01-.06 13.7 153.97a1.01 1.01 0 0 1-.92 1.1c-.03.01-.06.01-.09.01z" class="h"/><path d="M1139.848 826.023l-60.84-133.98c-4.78-10.52-16.11-16.44-27.48-14.35-15.82 2.91-24.88 19.7-18.64 34.53l35.14 83.44-49.25-40.82c-10.64-8.82-26.64-6.16-33.85 5.63-6.29 10.29-3.45 23.7 6.49 30.54l128.37 88.42z" fill="#25ad52"/><path d="M1084.138 829.923a.99.99 0 0 1-.59-.19l-97.93-70.31.55-.77.67-.85 97.89 70.28a1.01 1.01 0 0 1 .23 1.42c-.19.28-.5.42-.82.42zm19.75-14.44a1.02 1.02 0 0 1-.94-.62l-56.82-135.53.87-.35 1.03-.37 56.79 135.47a1.02 1.02 0 0 1-.54 1.33c-.13.04-.26.07-.39.07zm40.15-37.421c-.04 0-.08 0-.11-.01a1.02 1.02 0 0 1-.9-1.12l13.56-120.23 1.01.07 1.01.13-13.56 120.25c-.06.53-.5.91-1.01.91z" class="h"/><path d="M600.739 429.762l6.62-4.05" stroke-miterlimit="10" stroke="#000" stroke-linecap="round" stroke-linejoin="round" class="i"/><path d="M676.57 138.656s-7.11-1.57-11.94-6.39c-4.83-4.83-13.4-18.95-35.12-12.91-21.72 6.03-20.51 9.65-31.37 8.44s-21.72-21.42-38.61-16.9c-16.9 4.52-37.08 27.75-37.08 27.75zM188.238 270.042s4.63-1.02 7.77-4.16 8.73-12.34 22.87-8.41 13.36 6.29 20.43 5.5 14.15-13.95 25.14-11c11 2.95 24.14 18.07 24.14 18.07z" class="g"/><path d="M207.819 878.853l-32.18-111.26a1.23 1.23 0 0 1 .84-1.52 1.23 1.23 0 0 1 1.52.84l32.4 111.94zm20.53 0l24.76-135.561c.12-.67.76-1.1 1.42-.98a1.21 1.21 0 0 1 .98 1.42l-24.65 135.121zm8.42 0l-1.6.01 97.78-90.14a1.224 1.224 0 1 1 1.66 1.8l-95.82 88.34zm72.479 0l70.15-14.75c.66-.14 1.31.28 1.45.94a1.22 1.22 0 0 1-.95 1.45l-58.56 12.36c-.08.02-12.09 0-12.09 0z" class="h"/><path d="M309.753 135.053s-12.61-23.82-31.66-17.65c-18.37 5.95-20.3 22.98-20.3 22.98s-16.09-19.96-34.83-11.62c-16.88 7.52-13.63 30.61-13.63 30.61s3.51-20.53 19.81-24.01c16.31-3.49 30.49 14.23 30.49 14.23s3.49-19.51 20.62-24.44c17.11-4.94 29.5 9.9 29.5 9.9zm179.485-57.812s-8.46-18.65-24.06-13.7c-12.959 4.1-14.379 15.95-14.379 15.95s-11.57-13.64-24.48-7.5c-11.64 5.53-8.98 21.59-8.98 21.59s2.55-14.65 13.86-17.36 21.05 9.68 21.05 9.68 3.829-13.4 15.689-17.13c11.84-3.78 21.3 8.47 21.3 8.47zM216.57 219.377s-8.46-18.65-24.06-13.7c-12.96 4.1-14.38 15.95-14.38 15.95s-11.57-13.64-24.48-7.5c-11.64 5.53-8.98 21.59-8.98 21.59s2.55-14.65 13.86-17.36 21.05 9.68 21.05 9.68 3.83-13.4 15.69-17.13c11.84-3.77 21.3 8.47 21.3 8.47z" class="q"/><path d="M627.419 816.119l43.356 1.074-16.612-12.46c-1.722-1.302-3.05-3.085-3.831-5.106-.62-1.615-.821-3.373-.708-5.114l.805-12.409-23.38-.042z" class="u"/><path d="M650.34 799.627c-.628-1.615-.821-3.373-.708-5.114l.805-12.409-23.38-.042.137 13.043 13.36 1.623c1.103.135 1.996 1.006 2.189 2.156.579 3.457 2.294 10.541 6.736 12.265 1.851.719 5.231 2.975 9.006 5.757l12.29.304-16.612-12.46a11.88 11.88 0 0 1-3.823-5.123z" class="h i"/><path d="M626.268 808.367v17.041c0 2.764 2.117 4.987 4.748 4.987h55.155c1.087 0 1.988-.947 1.988-2.088 0-4.041-2.503-7.675-6.157-8.96l-12.443-4.311-15.775-12.866c-1.602-1.344-3.911-1.276-5.513.135l-6.994 6.264c-1.03.947-2.439 1.209-3.718.811l-8.853-2.899c-1.28-.338-2.439.609-2.439 1.885z" fill="#3f4249"/><path d="M631.016 830.396h55.155c1.087 0 1.988-.947 1.988-2.088 0-.744-.064-1.412-.258-2.088h-61.569c.386 2.358 2.31 4.176 4.684 4.176z" class="h"/><g class="g"><use xlink:href="#C"/><use xlink:href="#C" x="2.632" y="2.156"/><path d="M658.726 813.287a.48.48 0 0 1-.322-.135.55.55 0 0 1 0-.744l3.332-3.77a.49.49 0 0 1 .708 0 .55.55 0 0 1 0 .744l-3.332 3.77a.56.56 0 0 1-.386.135z"/></g><path d="M539.902 796.702l-37.207 16.771 12.08-16.196c2.197-2.73 4.37-5.173 5.779-10.262l4.072-15.715 23.292-5.402z" class="u"/><path d="M531.419 800.523l8.483-3.821 8.016-30.804-23.292 5.402-3.726 14.405 12.475-.085c1.368-.008 2.342 1.403 1.915 2.764z" class="h i"/><path d="M543.83 793.575l3.936 16.534c.636 2.68-.901 5.376-3.453 6.044L490.8 830.202c-1.054.279-2.149-.406-2.414-1.522-.934-3.922.652-8.09 3.903-10.262l11.074-7.354 12.338-16.5a4.22 4.22 0 0 1 5.384-1.276l8.225 4.294c1.215.651 2.648.558 3.799-.161l7.919-5.063c1.167-.642 2.511-.025 2.801 1.217z" fill="#3f4249"/><path d="M544.313 816.153L490.8 830.202c-1.054.279-2.149-.406-2.414-1.522-.169-.719-.266-1.386-.233-2.088l59.734-15.68c.177 2.384-1.272 4.641-3.573 5.241z" class="h"/><path d="M517.593 801.089a.51.51 0 0 0 .282-.211c.137-.245.064-.575-.169-.719l-4.105-2.806a.49.49 0 0 0-.684.178c-.137.245-.064.575.169.719l4.105 2.806c.137.034.274.068.402.034zm-2.053 2.764a.51.51 0 0 0 .282-.211c.137-.245.064-.575-.169-.719l-4.105-2.806a.49.49 0 0 0-.684.178c-.137.245-.064.575.169.719l4.105 2.806c.137.034.274.059.402.034zm-2.052 2.756a.51.51 0 0 0 .282-.211c.137-.245.064-.575-.169-.719l-4.105-2.806a.49.49 0 0 0-.684.178c-.137.245-.064.575.169.719l4.105 2.806c.072.051.209.085.402.034z" class="g"/><path d="M583.484 514.683l-63.315 266.229 25.32-1.386 69.996-227.886c.266-.854 1.022-1.437 1.875-1.437 1.062 0 1.932.888 1.972 2.003l7.412 238.731h24.064l9.352-276.255z" class="q"/><g class="h"><path d="M606.083 554.758L535.959 780.05l9.521-.524 69.995-227.887c.266-.854 1.022-1.436 1.875-1.436h-5.288c-2.712 0-5.127 1.842-5.98 4.555z" class="l"/><path d="M642.807 514.683l-.845 276.255h8.837l10.133-276.255z"/></g><path d="M678.147 378.106h-65.77c-.596 0-1.078-.507-1.078-1.133s.483-1.133 1.078-1.133h65.77c.596 0 1.078.507 1.078 1.133s-.483 1.133-1.078 1.133zm-29.062 8.218h-36.708c-.596 0-1.078-.507-1.078-1.133s.483-1.133 1.078-1.133h36.708c.596 0 1.078.507 1.078 1.133s-.483 1.133-1.078 1.133z" fill="#b2b6bb"/><path d="M645.922 330.271v7.143c0 .363.378.583.676.397l5.618-3.567a.48.48 0 0 0 0-.795l-5.618-3.567c-.298-.203-.676.025-.676.389z" class="g"/><path d="M784.252 377.76l-6.092 10.157 4.523 2.513 3.847-9.558c.507-1.273.01-2.726-1.167-3.391a.84.84 0 0 0-1.111.279z" class="r"/><path d="M1314.423 548.98H728.647c-7.963 0-14.414-7.587-14.414-16.949V19.438c0-9.362 6.452-16.949 14.414-16.949h585.776c7.963 0 14.414 7.587 14.414 16.949v512.593c-.012 9.362-6.461 16.949-14.414 16.949z" fill="#5c4d44"/><g class="g"><path d="M1311.949 543.387H705.295c-8.212 0-14.868-7.497-14.868-16.748V20.109c0-9.252 6.655-16.748 14.868-16.748h604.194c8.212 0 14.868 7.497 14.868 16.748v509.064c0 9.252-4.205 14.214-12.408 14.214z" opacity=".929"/><path d="M1314.423 548.98H723.312c-8.035 0-14.545-7.608-14.545-16.998V17.891c0-9.39 6.511-16.998 14.545-16.998h591.112c8.035 0 14.546 7.608 14.546 16.998v514.09c-.012 9.39-6.52 16.998-14.546 16.998z" opacity=".472"/></g><path d="M739.762 548.692h-34.284c-8.16 0-14.772-7.581-14.772-16.935V19.568c0-9.354 6.613-16.935 14.772-16.935h34.275v546.059z" fill="#7e6759"/><path d="M725.402 43.97h-20.337c-1.591 0-2.889-1.332-2.889-2.982 0-1.642 1.29-2.982 2.889-2.982h20.337c1.591 0 2.889 1.332 2.889 2.982s-1.299 2.982-2.889 2.982zm-4.833 94.686h-10.68a2.519 2.601 0 0 1-2.519-2.601v-11.024a2.519 2.601 0 0 1 2.519-2.6h10.68a2.519 2.601 0 0 1 2.519 2.6v11.024c0 1.429-1.126 2.601-2.519 2.601z" class="g"/><g transform="matrix(1.222971 0 0 1.26238 -852.03825 -201.66303)"><g class="j"><use xlink:href="#D"/><use y="41.708" xlink:href="#D"/><use xlink:href="#E"/></g><g class="g"><use xlink:href="#D" class="l"/><use y="41.708" xlink:href="#D" class="l"/><use xlink:href="#E" class="l"/></g></g><path d="M1297.458 457.72h-163.086c-4.256 0-5.994-2.027-5.994-6.994V205.29c0-4.967 1.737-6.994 5.994-6.994h163.086c4.256 0 5.994 2.027 5.994 6.994v245.434c0 4.976-1.737 6.994-5.994 6.994z" class="j"/><path d="M1297.458 457.72h-164.805c-4.256 0-4.274 1.522-4.274-9.001V203.284c0-4.967.017-4.986 4.274-4.986h164.805c4.256 0 5.994 2.027 5.994 6.994v245.434c0 4.976-1.737 6.994-5.994 6.994z" opacity=".85" class="g"/><path d="M1255.78 268.003l-.791-.863-14.825 14.026.791.863c5.951 6.451 9.226 14.863 9.226 23.711 0 19.152-15.375 34.738-34.266 34.738a34.01 34.01 0 0 1-21.935-8.046l-.894-.759-12.967 15.787.895.759c9.768 8.264 22.159 12.814 34.911 12.814 30.079 0 54.551-24.801 54.551-55.294-.012-14.06-5.228-27.468-14.695-37.736z" class="j"/><path d="M1255.78 268.177l-.791-.861-14.825 13.987.791.861c5.951 6.433 9.226 14.823 9.226 23.646 0 19.1-15.375 34.644-34.266 34.644a34.07 34.07 0 0 1-21.935-8.024l-.894-.756-12.967 15.744.895.756c9.768 8.241 22.159 12.779 34.911 12.779 30.079 0 54.551-24.733 54.551-55.142-.012-14.023-5.228-27.394-14.695-37.634z" class="g n"/><path d="M1255.78 268.177c-6.578-7.129-14.868-12.345-24.034-15.144l.012-.018-1.118-.322c-.012 0-.017-.001-.026-.01l-1.101-.312-.012.018a55.633 57.426 0 0 0-13.594-1.738c-14.179 0-27.62 5.477-37.826 15.423l-.834.817 14.059 14.761.834-.817c6.414-6.25 14.859-9.685 23.767-9.685a34.28 34.28 0 0 1 9.252 1.27c6.045 1.722 11.506 5.086 15.796 9.737l.791.861 14.825-13.988z" class="j"/><path d="M1193.971 332.431c-7.833-6.616-12.331-16.318-12.331-26.62 0-9.502 3.733-18.369 10.499-24.967l.834-.817-14.059-14.761-.834.817c-10.783 10.484-16.725 24.594-16.725 39.721 0 16.413 7.154 31.852 19.64 42.363l.894.756 12.967-15.744z" fill="#61656d"/><g transform="matrix(1.222971 0 0 1.26238 -852.03825 -201.66303)"><use xlink:href="#F" class="j"/><use xlink:href="#F" class="g l"/><g class="j"><use xlink:href="#G"/><use xlink:href="#H"/><use x="113.546" xlink:href="#H"/><use xlink:href="#V"/></g><g class="g"><use xlink:href="#G" class="s"/><use x=".001" xlink:href="#H" class="s"/><use x="113.546" xlink:href="#H" class="s"/><use xlink:href="#V" class="s"/></g></g><path d="M1108.619 457.676H764.226c-4.256 0-7.713-5.965-7.713-13.343V86.521c0-7.363 3.448-13.343 7.713-13.343h344.394c4.256 0 7.713 5.965 7.713 13.343v357.812c0 7.379-3.456 13.343-7.713 13.343z" class="j"/><path d="M1109.501 459.025H762.966c-4.283 0-7.761-6.003-7.761-13.428V85.526c0-7.41 3.47-13.428 7.761-13.428h346.535c4.283 0 7.761 6.003 7.761 13.428v360.072c0 7.425-3.478 13.428-7.761 13.428z" opacity=".949" class="g"/><g transform="matrix(1.222971 0 0 1.26238 -852.03825 -201.66303)"><use xlink:href="#I" class="v"/><use xlink:href="#J" class="j"/><use xlink:href="#J" class="g n"/><use y="18.624" xlink:href="#J" class="j"/><use y="37.249" xlink:href="#J" fill="#61656d"/><g class="j"><use xlink:href="#K"/><use y="18.623" xlink:href="#K"/><use y="37.249" xlink:href="#K"/></g><g class="g"><use xlink:href="#K" class="n"/><use y="18.623" xlink:href="#K" class="n"/><use y="37.249" xlink:href="#K" class="n"/></g><g class="j"><use xlink:href="#L"/><use y="18.623" xlink:href="#L"/><use y="37.249" xlink:href="#L"/><use xlink:href="#M"/></g><g class="g"><use xlink:href="#N" class="i"/><use xlink:href="#M" class="n"/></g><use xlink:href="#O" class="j"/><g class="g"><use xlink:href="#P" class="i"/><use xlink:href="#O" class="n"/></g><use xlink:href="#Q" class="j"/><g class="g"><use x="230.754" xlink:href="#N" class="i"/><use xlink:href="#Q" class="n"/></g><g class="j"><use x="343.611" xlink:href="#M"/><use x="343.611" xlink:href="#N"/><use xlink:href="#N"/><use xlink:href="#P"/><use x="230.754" xlink:href="#N"/><use x="343.611" xlink:href="#N"/></g><g class="g"><use xlink:href="#N" class="i"/><use xlink:href="#P" class="i"/><use x="230.754" xlink:href="#N" class="i"/><use xlink:href="#N" class="i"/><use xlink:href="#P" class="i"/><use x="230.754" xlink:href="#N" class="i"/><use x="343.611" xlink:href="#M" class="n"/><path d="M1719.887 286.062h-81.364c-1.763 0-3.184-1.429-3.184-3.184v-9.937c0-1.763 1.429-3.184 3.184-3.184h81.364c1.763 0 3.184 1.429 3.184 3.184v9.937c.01 1.756-1.422 3.184-3.184 3.184z"/></g><use xlink:href="#R" class="j"/><use xlink:href="#R" opacity=".85" class="g"/></g><g class="j"><path d="M1303.054 154.139h-174.736v.393h174.736zm0-30.071h-174.736v.393h174.736zm0-30.077h-174.736v.393h174.736z" opacity=".2"/><path d="M1128.319 139.265s24.721 9.513 42.323 0 36.596-31.224 62.438-8.651c21.496 18.778 31.708-22.573 45.954-22.573s24.024 27.907 24.024 27.907v45.245c0 2.135-1.675 3.868-3.747 3.868h-167.332c-2.073 0-3.752-1.738-3.747-3.873z" class="l"/><path d="M1151.77 143.884c-2.993-.009-5.981-.23-8.945-.66-8.327-1.182-14.581-3.566-14.644-3.588l.268-.737c.062.021 6.251 2.381 14.498 3.55 7.587 1.074 18.517 1.337 27.517-3.528 3.289-1.777 6.576-3.95 10.06-6.254 14.808-9.786 31.591-20.877 52.798-2.351 4.061 3.545 7.871 5.097 11.657 4.748 7.024-.651 12.726-7.793 18.237-14.698 5.222-6.543 10.153-12.718 15.814-12.718 14.352 0 23.982 27.015 24.384 28.166l-.719.268a84.33 84.33 0 0 0-6.64-13.887c-6.889-11.373-13.06-13.757-17.025-13.757-5.298 0-10.119 6.038-15.225 12.433-5.611 7.03-11.415 14.302-18.759 14.982-3.994.371-7.992-1.242-12.216-4.933-9.284-8.112-18.493-11.148-28.148-9.285-8.531 1.644-16.266 6.754-23.744 11.7-3.496 2.311-6.802 4.494-10.115 6.288-3.894 2.092-10.082 4.261-19.053 4.261z"/><path d="M1215.482 122.342c.5 0 .951-.311 1.142-.788s.086-1.026-.268-1.391a1.21 1.21 0 0 0-1.347-.277c-.462.198-.763.663-.763 1.179 0 .703.555 1.276 1.236 1.276zm29.296 14.464a1.23 1.23 0 0 0 1.071-.638 1.31 1.31 0 0 0 0-1.276 1.23 1.23 0 0 0-1.071-.638c-.681 0-1.236.573-1.236 1.276s.555 1.276 1.236 1.276zm34.853-27.488c.328 0 .643-.134.875-.373s.362-.564.362-.903c0-.703-.555-1.276-1.236-1.276s-1.236.573-1.236 1.276c0 .339.13.663.362.903s.547.374.875.373zm-93.25 21.486c.328 0 .643-.134.875-.373s.362-.564.362-.903c0-.703-.555-1.276-1.236-1.276s-1.236.573-1.236 1.276.555 1.276 1.236 1.276zm-29.017 13.636a1.23 1.23 0 0 0 1.071-.638 1.31 1.31 0 0 0 0-1.276 1.23 1.23 0 0 0-1.071-.638c-.681 0-1.236.573-1.236 1.276s.555 1.276 1.236 1.276zm-29.046-3.713c.328 0 .643-.134.875-.373s.362-.564.362-.903c0-.703-.555-1.276-1.236-1.276a1.23 1.23 0 0 0-1.071.638 1.31 1.31 0 0 0 0 1.276 1.23 1.23 0 0 0 1.071.638zm174.736-3.921a1.23 1.23 0 0 0 1.071-.638 1.31 1.31 0 0 0 0-1.276 1.23 1.23 0 0 0-1.071-.638c-.681 0-1.236.573-1.236 1.276 0 .339.13.663.362.903s.547.374.875.373z"/></g><use y="-99.222" x="-.316" xlink:href="#I" transform="matrix(1.222971 0 0 1.26238 -852.03825 -201.66303)" class="v"/><path d="M1050.699 395.385H920.903v11.517h129.796z" fill="#b8b8b8"/><path d="M851.43 212.228h-16.132v16.743h16.132z" class="k"/><path d="M1003.856 169.279c7.619 7.619 6.654 20.201-.966 27.82-2.67 2.67-8.659-2.67-11.33 0-3.183 3.183 1.313 9.2 0 13.506-1.866 6.119-12.943 5.852-19.948 0-11.714-9.786-2.319-16.027-.966-42.292.537-10.412 25.836-6.407 33.209.966z" class="o"/><path d="M921.56 390.1v-18.82h9.116v-19.795h16.899v38.616zm129.049-28.202h-19.841V390.1h19.841zM957.662 254.1v24.027h43.393L977.618 253.8zm-14.305-.3H921.56v22.627h21.797zm-157.635-21.205h-17.426v37.63h17.426zm24.398 0h-19.689v17.312h19.689zm90.023 69.908h-26.265v25.071h26.265z" class="k"/><path d="M900.144 297.584c5.101-5.449-3.36-16.382-1.566-25.07 1.281-6.204 8.147-18.458 6.502-20.103-7.571-7.571-30.232-5.697-37.057 1.388s-20.475 11.417-20.475 21.255c0 0-6.702 19.14 0 22.53 11.495 5.814 51.998.639 52.596 0z" class="o"/><path d="M841.748 270.225l16.131-16.743h-43.057v16.743zm154.443-158.502l22.276-25.129h43.768v25.129z" class="k"/><path d="M1095.719 86.594c-2.895-2.895-7.386 1.288-12.057.962-5.856-.409-11.563-1.574-15.193 2.055-2.376 2.376-2.62 3.884-3.09 7.678-.702 5.665-.888 10.887 2.659 14.434 3.848 3.848 10.838 1.243 17 .552 4.286-.481 8.005 2.125 10.681-.552 5.923-5.923 5.923-19.206 0-25.129zm-260.422 118.64c-7.916 9.778-3.557-45.067.247-66.98 2.737-15.77-2.831-22.426 11.164-30.192 10.823-6.006 27.52.476 39.662 2.26l48.203 7.081c42.047 6.177-23.749 62.805-58.098 87.83-11.104 8.09-1.805-.948-23.879-2.161-10.882-.598-17.299 2.163-17.299 2.163zm182.594 91.381c-6.743-.398-56.335 12.831-67.632 5.471-4.563-2.973-2.563-16.026 1.287-19.877 4.946-4.946 16.243.153 25.216 1.299 11.539 1.474 26.612 1.597 26.612 1.597 7.356 0 21.86 11.942 14.516 11.509z" class="l m"/><path d="M809.685 171.462c-2.224-6.361-11.39-6.205-19.599-7.241-8.774-1.107-21.792-5.134-21.792 2.068v39.823c0 13.941 31.964 17.858 41.822 8 11.272-11.272 5.409-25.947-.431-42.65z" class="p"/><path d="M810.12 138.166h-19.689v20.433h19.689v-20.433zm.001-6.202h-41.213l-.419-45.983h62.058l-20.426 45.983zm-24.399 20.472h-17.426v6.173h17.426v-6.173z" class="k"/><path d="M785.722 135.913c-4.107-4.107-17.426-3.556-17.426 2.253v8.221c0 5.809 13.319 4.107 17.426 0 2.409-2.409 2.409-8.065 0-10.474zm317.196 219.261c-1.537-9.413-28.811-3.521-30.865 5.793-3.226 14.624-2.319 28.436 3.213 40.187 4.062 8.629 31.694 17.725 31.906 8.19l.923-41.653c.092-4.167-4.333-7.358-5.176-12.518zM893.05 409.595c-3.853 8.861-14.611 14.404-23.581 10.812-14.161-5.67-25.826-11.444-31.831-25.467-2.338-5.459 1.704-14.141.72-22.086-1.131-9.133-6.835-17.498-2.008-22.325 8.122-8.122 21.845-7.738 34.953-6.846 10.516.715 22.636-3.669 29.152 2.846 16.471 16.471 2.577 40.109-7.406 63.067z" class="l m"/><path d="M831.09 350.528h-36.569v20.559h36.569zm0 25.862h-36.569v11.488h36.569zm-48.81 10.85h7.582v-36.713h-16.909v26.491zm116.181 37.157h-28.987v17.216h28.987z" class="k"/><path d="M856.728 423.651c6.344 3.154 13.572 18.011 6.487 18.011h-70.376c-3.729 0-7.416-.823-10.836-2.357-3.414-1.531-6.474-3.758-8.997-6.532-2.494-2.741-9.482-30.747 0-40.23 8.568-8.568 13.18-2.326 24.378 1.929 7.761 2.949 17.942-3.123 25.724.036 12.345 5.012 15.46 20.112 33.62 29.142z" class="o"/><path d="M965.195 146.06l26.371-28.752h25.163v28.752z" class="k"/><path d="M1050.903 114.733c-3.266-3.267-9.815 1.326-14.878 1.679-11.163-.383-17.26 1.79-15.36 8.972 1.066 3.823 7.966 9.967 12.443 10.54 6.773.866 12.263-4.042 16.507-8.287 3.117-3.117 4.405-9.787 1.287-12.904z" class="p"/><path d="M1029.314 138.234c-3.177-3.177-4.186-7.361-7.362-4.184-2.831 2.831-2.831 9.178 0 12.009 3.177 3.177 10.301 3.177 13.477 0 2.831-2.831-3.284-4.995-6.115-7.825z" class="l m"/><path d="M1051.866 134.051c-3.086-3.086-6.565.46-9.652 3.546-2.831 2.831-2.394 5.632.437 8.463 3.086 3.086 6.129 3.086 9.215 0 2.831-2.831 2.831-9.178 0-12.009z" class="o"/><path d="M1074.411 117.308h-18.902v28.752h18.902zm21.05 0h-16.372v19.66l7.841 9.092h8.531z" class="k"/><path d="M890.02 104.303c24.737 5.848 53.025 11.263 76.252.937 7.751-3.446 18.608-6.502 15.207-14.273-2.619-5.983-26.316-6.235-45.336-5.988l-83.687 1.085c-13.918.18 24.019 15.038 37.565 18.24z" class="p"/><path d="M794.186 327.265c-7.302 7.302-21.565 9.686-25.89.308-4.488-9.73 1.141-13.919 2.019-21.082.752-6.134-3.784-15.134-.938-23.965 1.782-5.529 11.159-11.267 16.345-8.65 6.79 3.427 11.176 11.132 13.554 18.356 3.683 11.189 3.24 26.702-5.09 35.032z" class="l m"/><path d="M810.12 285.866h-10.842l-8.847-11.99v-18.927h19.689zm11.805 26.578H804.69v15.13h17.235zm19.368-36.761v51.88h-15.49v-41.708h-10.966v-10.174zm28.177 28.221h-21.922v23.67h21.922zm-47.541-13.487h-17.254v19.129h17.254zm223.582-43.853v-81.801h52.929v27.795z" class="k"/><path d="M1040.193 164.763c-12.677 0-32.715-5.271-28.719 4.828 2.724 6.883 2.108 18.916-3.862 27.508-6.197 8.919 24.902 7.679 32.581 0 7.622-7.622 5.32-32.336 0-32.336z" class="l m"/><path d="M888.669 231.918c-17.085-.29 17.045-36.101 33.98-38.384 9.732-1.312 13.517.508 28.817 3.218 12.598 2.232 21.043 24.592 13.839 35.166-2.378 3.49-12.984 5.238-29.413 4.273-13.236-.777-30.704-3.993-47.223-4.273z" class="p"/><path d="M927.491 189.099l21.567-24.336h16.132v24.336zm64.07 26.79h-19.948v16.037h19.948zm48.633.668v36.046l-15.758 17.613-27.472-30.577v-34.983h32.571v11.903zm28.089 102.408l-27.923-31.63 31.692-32.133 17.493 19.593z" class="k"/><path d="M1075.638 251.106c-.172 8.449 9.176 15.454 16.889 18.907 3.847 1.722 12.643 4.214 12.643 0v-49.379c0-14.145-29.245 16.33-29.532 30.473z" class="o"/><path d="M1076.558 328.935l-4.151-4.618 13.822-30.712h18.941v55.745h-28.613zm28.613-54.556h-12.328v15.468h12.328zM950.518 411.577h-28.967v21.737h28.967z" class="k"/><path d="M965.656 415.761c-2.546-2.546-8.256-6.73-10.803-4.184-3.341 3.341-.565 8.497-1.054 13.075-.547 5.119-3.97 9.675-.234 13.411 2.546 2.546 9.544 6.086 12.09 3.54 1.527-1.527-2.424-11.315-1.556-13.179 3.155-6.774 7.106-7.114 1.556-12.664z" class="p"/><path d="M985.287 411.577h-15.165v11.178l15.165-5.172z" class="k"/><path d="M991.566 426.049c-5.054-5.054-16.388-5.054-21.442 0-3.666 3.666.839 8.67 4.506 12.337 5.054 5.054 10.273 5.376 15.327.322 3.666-3.666 5.276-8.992 1.609-12.659z" class="o"/><path d="M1013.745 413.722c5.622 5.658-2.185 2.805 6.432 21.097 1.103 2.341.741 6.785-2.983 6.785h-21.012c-6.283 0 4.443-14.406 0-18.849-1.378-1.378-4.469 1.378-5.847 0-2.637-2.637-2.637-8.55 0-11.187 6.331-6.331 7.817-1.286 16.56.643z" class="l m"/><path d="M1034.452 441.613l-13.764-14.289v-15.748h32.524v30.037zm70.143-25.881c-2.627 14.733-14.177 25.825-28.038 25.883v-25.883z" class="k"/><path d="M1050.609 356.633c-6.525 6.526-17.581-.594-28.105-1.36-8.314-.605-16.297 6.515-21.452 1.36-3.568-3.568-.29-19.389-1.752-24.802-3.489-12.924-3.87-20.213 4.648-28.732 5.865-5.865 14.432-1.17 21.987 2.253 11.36 5.146 20.28 16.452 24.674 28.123 2.72 7.224 5.458 17.7 0 23.158z" class="p"/><path d="M995.259 305.353h-24.222v32.51h24.222z" class="k"/><path d="M1020.799 370.901c6.649 6.649 14.521 19.973 5.149 19.199-22.594-1.865-35.199 11.008-48.138-1.931-6.449-6.449-2.725-13.608-3.732-23.451-.765-7.484-3.103-15.623 1.8-20.526 5.707-5.707 11.103-.879 16.81 4.828 4.702 4.702 1.734 11.064 6.437 15.767 7.232 7.232 14.441-1.117 21.673 6.115z" class="o"/><path d="M967.915 362.575h-17.398V390.1h17.398z" class="k"/><path d="M960.513 325.283c-1.979-1.979-7.945-1.347-10.654-2.61-12.245-5.705-19.353-7.303-28.299 1.644-5.577 5.577-5.577 18.083 0 23.66 5.702 5.702 13.816-2.192 23.054-2.442 8.463-.229 18.077 7.665 23.301 2.442 5.577-5.577-1.826-17.117-7.402-22.694z" class="p"/><path d="M967.915 351.484c-5.778 3.726-14.132-.203-17.398 0-2.555.159-1.81 3.87 0 5.68 4.101 4.101 13.297 4.101 17.398 0 1.81-1.81 2.152-7.068 0-5.68z" class="l m"/><path d="M943.357 280.949h-12.682l-9.116 8.984v26.163h21.797z" class="k"/><path d="M959.763 313.589c-.021.738-.257 1.454-.679 2.059s-1.013 1.068-1.695 1.337-1.43.327-2.145.17a3.73 3.73 0 0 1-1.882-1.053 3.608 3.724 0 0 1-.991-1.925 3.559 3.674 0 0 1 .229-2.157 3.75 3.75 0 0 1 1.373-1.669 3.72 3.72 0 0 1 2.059-.627c1.003.015 1.958.43 2.658 1.155a3.83 3.83 0 0 1 1.071 2.709z" class="m"/><path d="M857.148 94.755v35.27h31.774l7.211 13.438 7.211-13.438h31.774v-35.27z" class="g"/><g transform="matrix(1.222971 0 0 1.26238 -852.03825 -201.66303)" class="j"><use xlink:href="#S"/><use y="111.925" x="-61.304" xlink:href="#S"/><use y="112.697" x="-39.206" xlink:href="#S"/><use y="3.088" x="151.124" xlink:href="#S"/><use y="-67.155" x="-79.126" xlink:href="#S"/><path d="M1429.374 286.111c2.173 0 3.923-1.909 3.923-4.248s-1.763-4.248-3.923-4.248-3.923 1.894-3.923 4.248 1.763 4.248 3.923 4.248z"/></g><path d="M914.145 35.281H773.437a5.004 5.166 0 1 1 0-10.331h140.708a5.004 5.166 0 1 1 0 10.331zm81.073 19.899H773.794a5.004 5.166 0 1 1 0-10.331h221.424a5.004 5.166 0 1 1 0 10.331z" class="v"/><path d="M657.696 320.786c-.346.076-.451.482-.37.845.072.363.459.473.805.389l2.744-.803c1.352-.499 2.141-2.012 1.666-3.432-.306-.913-1.006-1.581-1.835-1.809-1.103-.304-1.867-1.361-2.02-2.544l-.153-1.057c-1.899-5.993-.837 8.411-.837 8.411z" class="r"/><path d="M662.541 317.786a2.8 2.8 0 0 0-1.336-1.606l.097.237c.475 1.42-.314 2.933-1.666 3.432l-1.972.575.024.355c-.346.076-.451.482-.37.845.072.363.459.473.805.389l2.744-.803c1.36-.49 2.149-2.003 1.674-3.423z" opacity=".023" class="h"/><path d="M656.883 301.183l4.483 30.228c.644 4.362-1.73 8.597-5.682 10.11l-4.394 1.555-.217 16.61-9.4.803-17.94-.634 2.431-17.278 1.843-20.625 15.171-19.4z" class="r"/><g class="q"><path d="M657.487 292.054c1.32 4.556 3.847 7.151.072 9.797l-1.634 1.141c-1.545 1.082-2.455 2.916-2.414 4.861.064 3.035-1.127 5.055-3.871 6.213-.346.144-.515.549-.41.93l.282.997.95 3.846c.193.854-.274 1.724-1.078 1.986-.781.254-1.626-.161-1.94-.955l-1.256-2.536-4.314 4.708-1.103 14.176c-.233 3.009-2.527 5.393-5.392 5.604l-8.974.49c-.467.025-.893-.262-1.062-.719-1.441-3.931-3.324-7.658-5.577-11.141-3.887-6.002-6.543-11.953-6.994-19.163 0 0 7.115-5.004 9.626-6.357l-.652-4.176c-.684-4.32-.974-2.747 2.881-4.429l7.533-3.28c7.807-3.415 14.35-4.429 22.688-2.925 3.823.702 2.64.93 2.64.93z"/><path d="M654.702 285.318c-3.614-1.074-6.72-.245-8.636 1.488-1.143 1.217-2.64 1.167-4.105.101-2.221-1.691-5.819-4.387-10.954-2.46-6.728 2.392-8.201 7.464-8.644 10.068-.097 1.158-.837 2.02-1.706 2.561-2.889 1.75-8.29 6.762-7.968 14.26.491 13.195 23.839 7.87 23.839 7.87-1.328-2.612-.233-5.858 2.318-7.092l18.712-10.262c6.044-3.356 4.346-14.286-2.857-16.534z"/></g><path d="M641.455 322.112l.427.93s1.94.473 3.863.651l-4.33 2.62z" class="h i"/><path d="M646.493 319.121c.934 2.654 1.883 4.573-1.537 4.835-6.519.482-8.41-8.453-4.917-10.786 3.074-2.037 4.652 1.124 4.652 1.124s-.008 0 1.803 4.827z" fill="#fc9d9d"/><path d="M644.521 318.199c-.241-.938-.467-1.75-1.014-2.392-.531-.524-1.046-.938-1.634-.972-.579-.034-1.135.169-1.746.744-.097.135-.177.389-.016.727.145.22.37.186.579.034.402-.423.845-.609 1.199-.541.338-.051.612.271 1.014.702.531.524.805 1.699.837 1.936l.225.811c.032.237.274.321.499.287s.306-.287.274-.524z" opacity=".3" class="h"/><g class="q"><path d="M661.696 316.577c-.314.025-.612-.186-.708-.524l-2.922-10.245c-.105-.38.105-.778.475-.888s.74.11.845.499l2.922 10.245c.105.38-.105.778-.475.888a.36.36 0 0 1-.137.025z"/><path d="M659.789 309.501l-15.115 4.683.386 1.378 15.115-4.683z"/></g><path d="M576.506 508.791l-3.26-.676c-.483-.101-.974.118-1.239.549-.419.685-.121 1.598.612 1.86l3.799 1.386c1.746.634 3.678.186 5.014-1.15l4.032-4.066c2.479-2.494 3.356-6.264 2.262-9.679l-5.634-17.54-12.966 5.866 5.239 10.693-.25 1.927c-.201 1.589-.056 3.212.435 4.734z" class="u"/><g class="h"><path d="M576.506 508.791l-3.195-.659c-.443-.093-.926.042-1.215.414a1.29 1.29 0 0 0-.241 1.09l3.678.997c.692.186 1.312-.473 1.135-1.2z" class="i"/><path d="M583.484 514.683l.394-6.83h78.205l-1.151 6.83z"/><path d="M584.53 492.848l.121.152.274-4.708-.217-.668-11.622 5.799.765 1.564 7.26-3.052c1.207-.516 2.6-.144 3.42.913zm74.961-154.192l-5.988.448c-1.256.093-2.221 1.192-2.221 2.511v1.462l4.394-1.555a8.75 8.75 0 0 0 3.815-2.866zm-4.7 22.476l-.233-1.369-29.561-1.192c-.338-.017-.628.245-.668.592-.048.397.241.752.62.769zm129.456 26.534l2.567-6.568c.507-1.31.008-2.806-1.167-3.491a5.97 5.97 0 0 1-.901 2.68l-3.324 5.258 2.825 2.122z" class="i"/></g><path d="M801.905 369.02a1.61 1.61 0 0 0-2.245-.093l-26.672 23.685-1.714 8.039 7.171 7.532 21.65-14.751a2.36 2.36 0 0 0 1.046-1.978c0-1.209-.877-2.181-1.988-2.316l-.056-.085a2.7 2.7 0 0 0 .716-1.826c0-1.454-1.119-2.629-2.503-2.629-.145 0-.282.017-.418.042a2.7 2.7 0 0 0 .628-1.733c0-1.454-1.119-2.629-2.503-2.629a2.44 2.44 0 0 0-.958.203l7.903-9.036c.604-.685.579-1.758-.056-2.426z" class="r"/><path d="M778.444 408.19l21.65-14.751a2.36 2.36 0 0 0 1.046-1.978c0-.719-.314-1.361-.805-1.784-.298 1.116-1.03 2.071-2.06 2.578l-16.402 9.307c-.62.355-1.392.161-1.803-.448l-6.173-9.307-.909.811 3.356 13.364z" class="h i"/><path d="M618.55 359.307l3.235-5.9c.491-.888 1.408-1.429 2.382-1.386l27.123 1.048c1.239.051 2.278.997 2.503 2.274l1.006 5.799 25.328 8.276c5.046 1.648 9.376 5.123 12.225 9.797l24.789 40.71 55.863-27.312 8.443 15.511-64.362 40.27c-5.28 3.305-12.072 2.029-15.927-2.992l-23.445-30.49-18.06 107.565h-76.692l6.575-114.252-22.487 23.052 18.092 56.128-12.748 6.357-30.905-59.924c-2.801-5.435-2.044-12.139 1.899-16.729l41.489-48.326c3.783-4.404 9.014-7.151 14.64-7.684z" fill="#3f342e"/><g class="g"><use xlink:href="#T"/><use xlink:href="#U"/><use xlink:href="#U" x="-30.117" y="5.597"/><use xlink:href="#U" x="-21.714" y="24.541"/><use xlink:href="#T" x="-69.473" y="2.132"/><use xlink:href="#U" x="-52.483" y="14.745"/><use xlink:href="#T" x="-122.946" y="-32.636"/><use xlink:href="#U" x="-68.805" y="-17.597"/><use xlink:href="#U" x="-80.555" y="11.591"/><use xlink:href="#U" x="-110.334" y="-8.342"/><use xlink:href="#T" x="-115.517" y="-9.922"/><use xlink:href="#T" x="-145.239" y="-44.191"/><use xlink:href="#T" x="-166.664" y="5.082"/><use xlink:href="#U" x="-129.134" y="12.385"/><use xlink:href="#U" x="-106.189" y="25.327"/><use xlink:href="#U" x="-84.41" y="45.056"/><use xlink:href="#U" x="-153.183" y="25.327"/><use xlink:href="#U" x="-126.881" y="79.308"/><use xlink:href="#T" x="-180.152" y="78.538"/><use xlink:href="#U" x="-150.712" y="88.226"/><use xlink:href="#U" x="-127.629" y="46.636"/><use xlink:href="#U" x="-90.954" y="85.233"/><use xlink:href="#U" x="-105.07" y="60.391"/><use xlink:href="#U" x="-179.83" y="-16.811"/><use xlink:href="#U" x="-201.392" y="16.671"/><use xlink:href="#U" x="-177.368" y="5.598"/><use xlink:href="#U" x="-178.116" y="33.696"/><use xlink:href="#U" x="-184.474" y="49.224"/><use xlink:href="#U" x="-168.659" y="66.679"/><use xlink:href="#T" x="-151.525" y="-17.226"/><use xlink:href="#U" x="-149.963" y="-48.019"/><use xlink:href="#U" x="-64.467" y="-43.793"/></g><path d="M677.688 414.92l-3.131-4.091c-2.342-3.052-6.978-2.096-8.048 1.657l-27.106 95.367h22.672zm-110.647 16.357l-.708-2.181c-1.014-3.128-.177-6.585 2.141-8.817l18.632-17.954c1.046-1.006 2.728-.178 2.656 1.319l-.225 4.582zm150.083-11.353l-24.789-40.71c-2.849-4.675-7.179-8.149-12.225-9.797l-4.652-1.522s8.853 7.489 11.758 12.612l23.018 40.558c.539.947 1.666 1.319 2.624.871z" class="h i"/><g stroke="#38bff8"><path d="M1065.412 438.766c-5.156-18.868 2.731-28.877.188-44.444-2.829-17.315.018-35.887.587-48.85-4.542-24.314-24.218-37.563-40.969-54.622-10.371-10.562-21.253-20.75-30.378-31.822-8.589-14.274-24.945-19.892-40.863-17.255-18.927 1.582-24.317 5.235-42.362-2.735-12.976-2.384-35.871 1.028-49.083 2.35-10.149 1.016-25.26.799-34.713-4.227-15.605-12.907-.78-32.616-7.186-54.015-5.482-18.623-5.893-51.627 8.048-67.842 8.687-14.705 15.245-13.813 17.252-31.677" stroke-width="3.8"/><path d="M1100 208.384c-32.128 11.996-39.545 51.319-68.182 67.919-3.571 2.601-6.853 6.882-13.978 7.382" stroke-width="1.9"/><path d="M908.569 441.869c1.194-13.112-2.289-26.151-1.831-38.462.462-12.397 7.569-28.712 8.595-40.998.983-11.763-4.095-19.478-4.428-32.147-.651-24.704-2.282-51.061 1.535-75.63.714-5.775 3.044-12.492-.827-15.593" stroke-width="2.7"/><path d="M1003.366 87.815c-17.608 13.848-45.278 32.252-52.335 54.476-15.919 30.125-54.269 58.663-67.023 74.551s-16.469 19.303-27.606 24.738m241.064-87.567c-28.462 3.527-69.4 3.698-93.419 4.309s-50.588-10.449-59.15-5.896M770.94 340.008c36.532 10.337 73.486-4.635 110.241-4.195 10.114 1.053 22.43 2.462 29.93-6.062" stroke-width="2.4"/><path d="M768.36 221.621c23.043 1.396 40.551 8.832 52.149-5.548"/></g><path d="M822.372 334.864c-.613-6.518-4.85-13.005-12.308-13.005s-11.685 6.507-12.298 13.005c-.959 10.06 5.464 19.177 12.298 27.491 6.844-8.294 13.247-17.41 12.308-27.491zm-12.308 7.238a6.45 6.45 0 0 1-3.728-1.197c-1.103-.781-1.963-1.891-2.471-3.19s-.64-2.727-.382-4.105.898-2.645 1.837-3.638 2.134-1.671 3.435-1.945a6.36 6.36 0 0 1 3.876.404c1.226.538 2.275 1.449 3.012 2.617s1.13 2.543 1.13 3.948c0 .935-.169 1.862-.505 2.726s-.829 1.651-1.453 2.312-1.364 1.188-2.179 1.546a6.39 6.39 0 0 1-2.573.542z" fill="#4d4d4d"/><defs><path id="A" d="M936.598 315.693l-178.55 105.72c-56.28 30.71-234.85 117.06-234.85 117.06l259.37 175.95 439.93-108.81 6.16-16.43a54.85 54.85 0 0 0 .71-36.51l-28.69-86.56-154.73-78.07c-62.29-33.29-109.35-72.35-109.35-72.35z"/><path id="B" d="M354.468 210.392c33.452 0 60.57-27.118 60.57-60.57s-27.118-60.57-60.57-60.57-60.57 27.118-60.57 60.57 27.118 60.57 60.57 60.57z"/><path id="C" d="M653.463 808.976a.48.48 0 0 1-.322-.135.55.55 0 0 1 0-.744l3.332-3.77a.49.49 0 0 1 .708 0 .55.55 0 0 1 0 .744l-3.332 3.77c-.129.068-.258.135-.386.135z"/><path id="D" d="M1285.891 311.294h-8.733a2.06 2.06 0 0 1-2.06-2.06v-8.733a2.06 2.06 0 0 1 2.06-2.06h8.733a2.06 2.06 0 0 1 2.06 2.06v8.733a2.06 2.06 0 0 1-2.06 2.06z"/><path id="E" d="M1285.891 394.711h-8.733a2.06 2.06 0 0 1-2.06-2.06v-8.726a2.06 2.06 0 0 1 2.06-2.06h8.733a2.06 2.06 0 0 1 2.06 2.06v8.733c0 1.132-.921 2.053-2.06 2.053z"/><path id="F" d="M1701.29 409.408h-20.735c-1.969 0-3.565-1.804-3.565-4.03v-6.764c0-2.226 1.596-4.03 3.565-4.03h20.735c1.969 0 3.565 1.804 3.565 4.03v6.764c.01 2.226-1.596 4.03-3.565 4.03z"/><path id="G" d="M1418.836 575.128h-97.318c-1.666 0-3.016-1.227-3.016-2.742v-37.84c0-1.515 1.35-2.742 3.016-2.742h97.325c1.666 0 3.016 1.227 3.016 2.742v37.84c0 1.515-1.35 2.742-3.023 2.742z"/><path id="H" d="M1532.388 575.128h-97.325c-1.666 0-3.016-1.227-3.016-2.742v-37.84c0-1.515 1.35-2.742 3.016-2.742h97.325c1.666 0 3.016 1.227 3.016 2.742v37.84c0 1.515-1.35 2.742-3.016 2.742z"/><path id="I" d="M1684.897 332.204h-55.054a4.09 4.09 0 1 1 0-8.184h55.054a4.09 4.09 0 1 1 0 8.184z"/><path id="J" d="M1634.74 475.324h-4.577c-1.181 0-2.145-1.081-2.145-2.424v-5.175c0-1.335.956-2.424 2.145-2.424h4.577c1.181 0 2.145 1.081 2.145 2.424v5.175c0 1.343-.963 2.424-2.145 2.424z"/><path id="K" d="M1706.943 472.749h-61.586c-1.188 0-2.151-1.089-2.151-2.432s.963-2.432 2.151-2.432h61.586c1.188 0 2.151 1.089 2.151 2.432.01 1.343-.956 2.432-2.151 2.432z"/><path id="L" d="M1751.682 472.749h-16.959c-1.188 0-2.151-1.089-2.151-2.432s.963-2.432 2.151-2.432h16.959c1.188 0 2.151 1.089 2.151 2.432s-.963 2.432-2.151 2.432z"/><path id="M" d="M1403.402 548.429h-72.392c-1.174 0-2.13-.87-2.13-1.937s.956-1.936 2.13-1.936h72.392c1.174 0 2.13.869 2.13 1.936s-.949 1.937-2.13 1.937z"/><path id="N" d="M1358.713 566.486h-26.81c-1.666 0-3.016-1.227-3.016-2.742v-4.519c0-1.515 1.35-2.742 3.016-2.742h26.81c1.666 0 3.016 1.227 3.016 2.742v4.519c0 1.515-1.35 2.742-3.016 2.742z"/><path id="O" d="M1519.922 548.429h-72.392c-1.174 0-2.13-.87-2.13-1.937s.956-1.936 2.13-1.936h72.392c1.174 0 2.13.869 2.13 1.936s-.956 1.937-2.13 1.937z"/><path id="P" d="M1475.225 566.486h-26.81c-1.666 0-3.016-1.227-3.016-2.742v-4.519c0-1.515 1.35-2.742 3.016-2.742h26.81c1.666 0 3.016 1.227 3.016 2.742v4.519c.01 1.515-1.35 2.742-3.016 2.742z"/><path id="Q" d="M1634.164 548.429h-72.392c-1.174 0-2.13-.87-2.13-1.937s.956-1.936 2.13-1.936h72.392c1.174 0 2.13.869 2.13 1.936-.01 1.067-.956 1.937-2.13 1.937z"/><path id="R" d="M1759.113 306.342h-136.827c-1.691 0-3.064-1.37-3.064-3.064v-82.176c0-1.691 1.37-3.064 3.064-3.064h136.827c1.691 0 3.065 1.37 3.065 3.064v82.176c0 1.695-1.373 3.064-3.065 3.064z"/><path id="S" d="M1420.068 384.182c1.153 0 2.081-1.013 2.081-2.254s-.935-2.254-2.081-2.254-2.081 1.005-2.081 2.254.935 2.254 2.081 2.254z"/><path id="T" d="M770.308 398.384c.418 0 .757-.355.757-.795s-.338-.795-.757-.795-.757.355-.757.795.338.795.757.795z"/><path id="U" d="M746.493 417.327c.419 0 .757-.355.757-.795s-.338-.795-.757-.795-.757.355-.757.795.338.795.757.795z"/><path id="V" d="M1759.48 575.128h-97.325c-1.666 0-3.016-1.227-3.016-2.742v-37.84c0-1.515 1.35-2.742 3.016-2.742h97.325c1.666 0 3.016 1.227 3.016 2.742v37.84c.01 1.515-1.35 2.742-3.016 2.742z"/></defs></svg>