<svg xmlns="http://www.w3.org/2000/svg" xmlns:xlink="http://www.w3.org/1999/xlink" width="1331.33" height="881.033" fill="none" xmlns:v="https://vecta.io/nano"><style><![CDATA[.B{fill:#fff}.C{fill:#000}.D{opacity:.15}.E{fill:#92400e}.F{fill:#dadddf}.G{opacity:.4}.H{fill:#38bff8}.I{opacity:.5}.J{fill:#90e3ae}.K{fill:#efd7c9}.L{fill:#21252b}.M{fill:#f99a9a}.N{opacity:.722}.O{fill:#229e4b}.P{fill:#fa9b9b}.Q{fill:#868a91}]]></style><path d="M1120.048 878.813l108.62-289.63a54.85 54.85 0 0 0 .71-36.51l-156.9-473.35c-7.09-21.39-26.54-36.27-49.04-37.5l-739.56-40.74a54.85 54.85 0 0 0-45.98 20.67l-225.02 283.63c-11.78 14.85-15.06 34.74-8.66 52.59l186.68 520.84z" fill="#dcf0fa"/><path d="M547.109 174.683s-61.89 65.47-107.33 107.88l-129.81 119.8 108.07 66.14 111.73 66.79 187.19-92.37c26.87-14.34 110.859-67.58 110.859-67.58l-162.379-105.57c-30.77-21.85-118.33-95.09-118.33-95.09z" fill="#d9dcde"/><path d="M309.969 402.363l129.81-119.8c45.43-42.41 107.33-107.88 107.33-107.88v81.62l-26.62 2.6 43.28 51.92-81.72-1.73 16.99 35.47-136.42 98.38z" class="B"/><g class="C"><path d="M484.575 553.693l-38.844-1.582 1.071-5.489 6.761 2.008-6.201-4.87.586-2.962 8.226 4.452-7.64-7.448 3.171-16.159 7.406 4.46-6.92-6.962 4.41-22.451 6.753 4.167-6.125-7.389 1.774-9.046h4.351l-3.824-2.661v-.008l1.28-6.527 5.925 2.669-5.481-4.937 3.774-19.221 7.364 37.556-5.657 3.314 6.527 1.105.644 3.28-3.69-.318 4.209 2.996 2.167 11.037-6.812 3.883 7.832 1.297 2.042 10.443-9.439 4.628 9.941-2.067.368 1.858-7.322 5.757 7.69-3.866.669 3.389-9.933 5.481 11.314 1.556z" opacity=".69"/><path d="M517.179 579.063l-46.42-1.89 1.28-6.56 8.08 2.4-7.41-5.82.7-3.54 9.83 5.32-9.13-8.9 3.79-19.31 8.85 5.33-8.27-8.32 5.27-26.83 8.07 4.98-7.32-8.83 2.12-10.81h5.2l-4.57-3.18v-.01l1.53-7.8 7.08 3.19-6.55-5.9 4.51-22.97 8.8 44.88-6.76 3.96 7.8 1.32.77 3.92-4.41-.38 5.03 3.58 2.59 13.19-8.14 4.64 9.36 1.55 2.44 12.48-11.28 5.53 11.88-2.47.44 2.22-8.75 6.88 9.19-4.62.8 4.05-11.87 6.55 13.52 1.86z" opacity=".69"/></g><use xlink:href="#B" fill="#d9dcde"/><use xlink:href="#B" opacity=".13" class="C"/><path d="M523.198 538.473l234.85-117.06c46.95-25.62 178.55-105.72 178.55-105.72l-36.32 113.06-35.26 6.53-10.49 74.45-131.714-28.363 18.572 8.136-203.084 59.78z" class="B"/><path d="M35.889 446.363l79.73-52.92c49.22-32.09 87.17-63.42 87.17-63.42l97.5 66.04c108.9 70.9 433.6 258.47 424.22 252.94l-654.2-106.84z" fill="#a3a4a5"/><path d="M35.889 446.363l79.73-52.92c49.22-32.09 87.17-63.42 87.17-63.42l16.67 69.84-59.08 21.35 45.25 25.15L57.1 506.282z" class="B"/><path d="M62.198 519.753s76.67-2.13 278.32 47.89c96.14 23.85 168.84 42.32 249.79 56.5 88.85 15.56 185.73 26.02 289.02 34.27l-140.95 79.71-611.97-39.21z" fill="#b8eccb"/><path d="M202.778 680.293l-57.67-2.34 1.6-8.15 10.03 2.98-9.2-7.22.86-4.41 12.22 6.62-11.34-11.07 4.7-23.98 11 6.62-10.27-10.33 6.54-33.33 10.03 6.18-9.09-10.97 2.63-13.43h6.46l-5.68-3.95 1.9-9.7 8.79 3.96-8.13-7.33 5.6-28.53 10.93 55.75-8.4 4.92 9.69 1.65.96 4.86-5.48-.47 6.26 4.44 3.21 16.39-10.12 5.77 11.63 1.92 3.04 15.5-14.02 6.87 14.77-3.06.54 2.75-10.87 8.55 11.42-5.74.98 5.03-14.74 8.15 16.79 2.3zm188.68 13.55l-57.68-2.34 1.6-8.15 10.03 2.98-9.2-7.22.87-4.41 12.21 6.62-11.34-11.07 4.7-23.98 11 6.62-10.27-10.33 6.54-33.33 10.03 6.18-9.09-10.97 2.63-13.43h6.46l-5.68-3.95 1.9-9.7 8.79 3.96-8.13-7.33 5.6-28.53 10.94 55.75-8.41 4.92 9.7 1.65.95 4.86-5.48-.47 6.26 4.44 3.21 16.39-10.11 5.77 11.62 1.92 3.04 15.5-14.02 6.87 14.77-3.06.54 2.75-10.87 8.55 11.42-5.74.99 5.03-14.75 8.15 16.8 2.3zm-76.91-10.36l-93.5-3.81 2.59-13.2 16.27 4.82-14.92-11.7 1.4-7.14 19.8 10.72-18.39-17.94 7.63-38.87 17.83 10.72-16.65-16.74 10.6-54.03 16.26 10.01-14.74-17.77 4.27-21.78h10.47l-9.21-6.41 3.09-15.72 14.24 6.42-13.17-11.88 9.07-46.25 17.73 90.37-13.63 7.98 15.72 2.67 1.54 7.89-8.87-.76 10.14 7.19 5.21 26.58-16.4 9.34 18.84 3.12 4.93 25.13-22.72 11.14 23.93-4.97.88 4.46-17.61 13.87 18.5-9.32 1.6 8.16-23.9 13.2 27.22 3.74z" class="C"/><path d="M117.869 675.292s20.15-19.63 52.79-19.6c67.14.08 249.88 54.65 346.39 51.59 127.34-4.03 296.91-4.48 485.319-99.36 120.91-60.88 228.9-28.21 228.9-28.21s-.93 4.29-1.35 5.69c-1.55 5.15-7.42 20.21-7.42 20.21l-102.45 273.201H190.899z" fill="#22c55e"/><path d="M454.648 838.033s-55.84-153.99-34.92-161.88c21.93-8.27 86.11 161.88 86.11 161.88z" class="O"/><path d="M507.119 838.033s37.2-180.89 16.27-188.78c-21.93-8.27-67.46 188.78-67.46 188.78z" class="L"/><path d="M755.169 878.823l-73.47-135.35a25.6 25.6 0 0 0-23.96-13.34l-106.02 6.13c-9.51.55-17.92 6.33-21.84 15.01-3.73 8.25-11.54 13.92-20.53 14.9l-11.58 1.27c-9.62 1.05-17.82 7.44-21.19 16.51l-35.32 94.86z" fill="#808a93"/><path d="M583.073 878.801l7.066-29.74c3.069-12.92 17.894-22.26 35.044-22.08l168.297.74c11.651.12 24.934 5.69 31.348 13.14l32.601 37.93H583.073z" fill="#4b5b69"/><use xlink:href="#C" fill="#5fcbf9" stroke="#22c55e" stroke-width=".378" stroke-linejoin="bevel"/><use xlink:href="#C" class="H"/><path d="M771.419 879.883a273.91 273.91 0 0 1 16.809-14.82c20.564-16.7 43.864-30.73 69.592-41.35 93.033-38.38 194.855-22.67 270.63 32.6l-8.839 23.61z" fill="#a5acb3"/><path d="M541.189 878.803c-56.72-117.831-196.27-172.321-318.73-121.861-22.96 9.46-43.74 21.96-62.08 36.84l30.51 85.041z" fill="#3b4b59"/><path d="M147.789 739.002a174.8 174.8 0 0 1 46.03-11.2c3.4-.35 6.49 2 7.08 5.36l16.3 92.56 15.71-116.43c.46-3.38 3.45-5.85 6.85-5.64 16.14 1 31.72 4.08 46.46 8.99 3.28 1.09 5.11 4.57 4.2 7.9l-5.98 21.84-16.99 61.74 49.89-42.3 19.27-16.49a6.53 6.53 0 0 1 8.4-.07 184.13 184.13 0 0 1 42.5 50.47c1.63 2.86.87 6.49-1.76 8.46l-19.21 14.38-70.44 46.441 80.35-24.941 20.359-6.5c3.51-1.12 7.28.88 8.25 4.43a182.13 182.13 0 0 1 5.971 34.531c.28 3.77-2.74 6.96-6.52 6.95l-213.57-.54-46.87-131.691c-1.18-3.31.46-6.97 3.72-8.25z" class="O"/><path d="M1060.718 817.293l-57.07-82.15c-4.84-6.96-3.24-16.521 3.6-21.531 7.5-5.5 18.11-3.269 22.77 4.781l44.62 77.07z" fill="#a4e4bc"/><path d="M1121.058 750.993v-85.94c0-5.78 4.69-10.47 10.47-10.47 6.06 0 10.86 5.13 10.45 11.18l-5.71 83.93z" fill="#a8e5be"/><path d="M1124.668 808.163l13.42-135.44c.97-9.8 9.72-16.94 19.51-15.94 10.24 1.05 17.46 10.54 15.73 20.68l-18.47 108.54-18.68 49.81z" class="O"/><path d="M1101.308 849.053l-21.72-201.75c-1.32-12.27 7.72-23.22 20.02-24.26 12.2-1.02 22.88 8.11 23.76 20.32l16.48 182.65z" fill="#8dcca2"/><path d="M1113.308 778.063a1.02 1.02 0 0 1-1.01-.93l-13.7-153.98 1.01-.11 1.01-.06 13.7 153.97a1.01 1.01 0 0 1-.92 1.1c-.03.01-.06.01-.09.01z" class="C"/><path d="M1139.848 826.023l-60.84-133.98c-4.78-10.52-16.11-16.44-27.48-14.35-15.82 2.91-24.88 19.7-18.64 34.53l35.14 83.44-49.25-40.82c-10.64-8.82-26.64-6.16-33.85 5.63-6.29 10.29-3.45 23.7 6.49 30.54l128.37 88.42z" fill="#25ad52"/><path d="M1084.138 829.923a.99.99 0 0 1-.59-.19l-97.93-70.31.55-.77.67-.85 97.89 70.28a1.01 1.01 0 0 1 .23 1.42c-.19.28-.5.42-.82.42zm19.75-14.44a1.02 1.02 0 0 1-.94-.62l-56.82-135.53.87-.35 1.03-.37 56.79 135.47a1.02 1.02 0 0 1-.54 1.33c-.13.04-.26.07-.39.07zm40.15-37.421c-.04 0-.08 0-.11-.01a1.02 1.02 0 0 1-.9-1.12l13.56-120.23 1.01.07 1.01.13-13.56 120.25c-.06.53-.5.91-1.01.91z" class="C"/><path d="M600.739 429.762l6.62-4.05" stroke-miterlimit="10" stroke="#000" stroke-linecap="round" stroke-linejoin="round" class="D"/><path d="M676.57 138.656s-7.11-1.57-11.94-6.39c-4.83-4.83-13.4-18.95-35.12-12.91-21.72 6.03-20.51 9.65-31.37 8.44s-21.72-21.42-38.61-16.9c-16.9 4.52-37.08 27.75-37.08 27.75zM188.238 270.042s4.63-1.02 7.77-4.16 8.73-12.34 22.87-8.41 13.36 6.29 20.43 5.5 14.15-13.95 25.14-11c11 2.95 24.14 18.07 24.14 18.07z" class="B"/><path d="M207.819 878.853l-32.18-111.26a1.23 1.23 0 0 1 .84-1.52 1.23 1.23 0 0 1 1.52.84l32.4 111.94zm20.53 0l24.76-135.561c.12-.67.76-1.1 1.42-.98a1.21 1.21 0 0 1 .98 1.42l-24.65 135.121zm8.42 0l-1.6.01 97.78-90.14a1.224 1.224 0 1 1 1.66 1.8l-95.82 88.34zm72.479 0l70.15-14.75c.66-.14 1.31.28 1.45.94a1.22 1.22 0 0 1-.95 1.45l-58.56 12.36c-.08.02-12.09 0-12.09 0z" class="C"/><path d="M309.753 135.053s-12.61-23.82-31.66-17.65c-18.37 5.95-20.3 22.98-20.3 22.98s-16.09-19.96-34.83-11.62c-16.88 7.52-13.63 30.61-13.63 30.61s3.51-20.53 19.81-24.01c16.31-3.49 30.49 14.23 30.49 14.23s3.49-19.51 20.62-24.44c17.11-4.94 29.5 9.9 29.5 9.9zm179.485-57.812s-8.46-18.65-24.06-13.7c-12.959 4.1-14.379 15.95-14.379 15.95s-11.57-13.64-24.48-7.5c-11.64 5.53-8.98 21.59-8.98 21.59s2.55-14.65 13.86-17.36 21.05 9.68 21.05 9.68 3.829-13.4 15.689-17.13c11.84-3.78 21.3 8.47 21.3 8.47zM216.57 219.377s-8.46-18.65-24.06-13.7c-12.96 4.1-14.38 15.95-14.38 15.95s-11.57-13.64-24.48-7.5c-11.64 5.53-8.98 21.59-8.98 21.59s2.55-14.65 13.86-17.36 21.05 9.68 21.05 9.68 3.83-13.4 15.69-17.13c11.84-3.77 21.3 8.47 21.3 8.47z" class="L"/><path d="M627.419 816.119l43.356 1.074-16.612-12.46c-1.722-1.302-3.05-3.085-3.831-5.106-.62-1.615-.821-3.373-.708-5.114l.805-12.409-23.38-.042z" class="P"/><path d="M650.34 799.627c-.628-1.615-.821-3.373-.708-5.114l.805-12.409-23.38-.042.137 13.043 13.36 1.623c1.103.135 1.996 1.006 2.189 2.156.579 3.457 2.294 10.541 6.736 12.265 1.851.719 5.231 2.975 9.006 5.757l12.29.304-16.612-12.46a11.88 11.88 0 0 1-3.823-5.123z" class="C D"/><path d="M626.268 808.367v17.041c0 2.764 2.117 4.987 4.748 4.987h55.155c1.087 0 1.988-.947 1.988-2.088 0-4.041-2.503-7.675-6.157-8.96l-12.443-4.311-15.775-12.866c-1.602-1.344-3.911-1.276-5.513.135l-6.994 6.264c-1.03.947-2.439 1.209-3.718.811l-8.853-2.899c-1.28-.338-2.439.609-2.439 1.885z" fill="#3f4249"/><path d="M631.016 830.396h55.155c1.087 0 1.988-.947 1.988-2.088 0-.744-.064-1.412-.258-2.088h-61.569c.386 2.358 2.31 4.176 4.684 4.176z" class="C"/><g class="B"><use xlink:href="#D"/><use xlink:href="#D" x="2.632" y="2.156"/><path d="M658.726 813.287a.48.48 0 0 1-.322-.135.55.55 0 0 1 0-.744l3.332-3.77a.49.49 0 0 1 .708 0 .55.55 0 0 1 0 .744l-3.332 3.77a.56.56 0 0 1-.386.135z"/></g><path d="M539.902 796.702l-37.207 16.771 12.08-16.196c2.197-2.73 4.37-5.173 5.779-10.262l4.072-15.715 23.292-5.402z" class="P"/><path d="M531.419 800.523l8.483-3.821 8.016-30.804-23.292 5.402-3.726 14.405 12.475-.085c1.368-.008 2.342 1.403 1.915 2.764z" class="C D"/><path d="M543.83 793.575l3.936 16.534c.636 2.68-.901 5.376-3.453 6.044L490.8 830.202c-1.054.279-2.149-.406-2.414-1.522-.934-3.922.652-8.09 3.903-10.262l11.074-7.354 12.338-16.5a4.22 4.22 0 0 1 5.384-1.276l8.225 4.294c1.215.651 2.648.558 3.799-.161l7.919-5.063c1.167-.642 2.511-.025 2.801 1.217z" fill="#3f4249"/><path d="M544.313 816.153L490.8 830.202c-1.054.279-2.149-.406-2.414-1.522-.169-.719-.266-1.386-.233-2.088l59.734-15.68c.177 2.384-1.272 4.641-3.573 5.241z" class="C"/><path d="M517.593 801.089a.51.51 0 0 0 .282-.211c.137-.245.064-.575-.169-.719l-4.105-2.806a.49.49 0 0 0-.684.178c-.137.245-.064.575.169.719l4.105 2.806c.137.034.274.068.402.034zm-2.053 2.764a.51.51 0 0 0 .282-.211c.137-.245.064-.575-.169-.719l-4.105-2.806a.49.49 0 0 0-.684.178c-.137.245-.064.575.169.719l4.105 2.806c.137.034.274.059.402.034zm-2.052 2.756a.51.51 0 0 0 .282-.211c.137-.245.064-.575-.169-.719l-4.105-2.806a.49.49 0 0 0-.684.178c-.137.245-.064.575.169.719l4.105 2.806c.072.051.209.085.402.034z" class="B"/><path d="M583.484 514.683l-63.315 266.229 25.32-1.386 69.996-227.886c.266-.854 1.022-1.437 1.875-1.437 1.062 0 1.932.888 1.972 2.003l7.412 238.731h24.064l9.352-276.255z" class="L"/><g class="C"><path d="M606.083 554.758L535.959 780.05l9.521-.524 69.995-227.887c.266-.854 1.022-1.436 1.875-1.436h-5.288c-2.712 0-5.127 1.842-5.98 4.555z" class="G"/><path d="M642.807 514.683l-.845 276.255h8.837l10.133-276.255z"/></g><path d="M678.147 378.106h-65.77c-.596 0-1.078-.507-1.078-1.133s.483-1.133 1.078-1.133h65.77c.596 0 1.078.507 1.078 1.133s-.483 1.133-1.078 1.133zm-29.062 8.218h-36.708c-.596 0-1.078-.507-1.078-1.133s.483-1.133 1.078-1.133h36.708c.596 0 1.078.507 1.078 1.133s-.483 1.133-1.078 1.133z" fill="#b2b6bb"/><path d="M645.922 330.271v7.143c0 .363.378.583.676.397l5.618-3.567a.48.48 0 0 0 0-.795l-5.618-3.567c-.298-.203-.676.025-.676.389z" class="B"/><path d="M784.252 377.76l-6.092 10.157 4.523 2.513 3.847-9.558c.507-1.273.01-2.726-1.167-3.391a.84.84 0 0 0-1.111.279z" class="M"/><g transform="matrix(1.222971 0 0 1.26238 -852.03825 -201.66303)"><path d="M1771.474 594.625h-478.978c-6.511 0-11.786-6.01-11.786-13.426V175.146c0-7.416 5.276-13.426 11.786-13.426h478.978c6.511 0 11.786 6.01 11.786 13.426v406.053c-.01 7.416-5.283 13.426-11.786 13.426z" fill="#5c4d44"/><g class="B"><path d="M1769.451 590.195h-496.049c-6.715 0-12.157-5.939-12.157-13.267v-401.25c0-7.329 5.442-13.267 12.157-13.267h494.038c6.715 0 12.157 5.939 12.157 13.267v403.257c0 7.329-3.438 11.26-10.146 11.26z" opacity=".929"/><path d="M1771.474 594.625h-483.34c-6.57 0-11.893-6.027-11.893-13.465V173.921c0-7.438 5.324-13.465 11.893-13.465h483.341c6.57 0 11.894 6.027 11.894 13.465V581.16c-.01 7.438-5.331 13.465-11.894 13.465z" opacity=".472"/></g><path d="M1301.585 594.397h-28.033c-6.672 0-12.079-6.005-12.079-13.415V175.249c0-7.41 5.407-13.415 12.079-13.415h28.026v432.563z" fill="#7e6759"/><path d="M1289.843 194.579h-16.629c-1.301 0-2.362-1.055-2.362-2.362 0-1.301 1.055-2.362 2.362-2.362h16.629c1.301 0 2.362 1.055 2.362 2.362s-1.062 2.362-2.362 2.362zm-3.952 75.006h-8.733a2.06 2.06 0 0 1-2.06-2.06v-8.733a2.06 2.06 0 0 1 2.06-2.06h8.733a2.06 2.06 0 0 1 2.06 2.06v8.733c0 1.132-.921 2.06-2.06 2.06z" class="B"/><g class="E"><use xlink:href="#E"/><use xlink:href="#E" y="41.708"/><use xlink:href="#F"/></g><g class="B"><use xlink:href="#E" class="G"/><use xlink:href="#E" y="41.708" class="G"/><use xlink:href="#F" class="G"/></g><path d="M1757.602 522.333H1624.25c-3.48 0-4.901-1.606-4.901-5.54V322.37c0-3.935 1.42-5.54 4.901-5.54h133.352c3.48 0 4.901 1.606 4.901 5.54v194.422c0 3.942-1.42 5.54-4.901 5.54z" class="E"/><path d="M1757.602 522.333h-134.758c-3.48 0-3.495 1.206-3.495-7.13V320.781c0-3.935.014-3.95 3.495-3.95h134.758c3.48 0 4.901 1.606 4.901 5.54v194.422c0 3.942-1.42 5.54-4.901 5.54z" opacity=".85" class="B"/><path d="M1723.523 372.048l-.647-.684-12.122 11.111.647.684c4.866 5.11 7.544 11.774 7.544 18.783 0 15.171-12.572 27.518-28.019 27.518-6.553 0-12.923-2.265-17.936-6.374l-.731-.601-10.603 12.506.732.601c7.987 6.546 18.119 10.151 28.546 10.151 24.595 0 44.605-19.646 44.605-43.801-.01-11.138-4.275-21.759-12.016-29.893z" class="E"/><path d="M1723.523 372.186l-.647-.682-12.122 11.08.647.682c4.866 5.096 7.544 11.742 7.544 18.731 0 15.13-12.572 27.443-28.019 27.443-6.553 0-12.923-2.259-17.936-6.356l-.731-.599-10.603 12.472.732.599c7.987 6.528 18.119 10.123 28.546 10.123 24.595 0 44.605-19.592 44.605-43.681-.01-11.108-4.275-21.7-12.016-29.812z" class="B I"/><path d="M1723.523 372.186c-5.379-5.647-12.157-9.779-19.652-11.996l.01-.014-.914-.255c-.01 0-.014-.001-.021-.008l-.9-.247-.01.014a45.49 45.49 0 0 0-11.116-1.377c-11.594 0-22.584 4.339-30.93 12.217l-.682.647 11.496 11.693.682-.647c5.245-4.951 12.15-7.672 19.434-7.672 2.559 0 5.105.338 7.565 1.006 4.943 1.364 9.408 4.029 12.916 7.713l.647.682 12.122-11.081z" class="E"/><path d="M1672.983 423.085c-6.405-5.241-10.083-12.926-10.083-21.087 0-7.527 3.052-14.551 8.585-19.778l.682-.647-11.496-11.693-.682.647c-8.817 8.305-13.676 19.482-13.676 31.465 0 13.002 5.85 25.232 16.059 33.558l.731.599 10.603-12.472z" fill="#61656d"/><use xlink:href="#G" class="E"/><use xlink:href="#G" class="B G"/><g class="E"><use xlink:href="#H"/><use xlink:href="#I"/><use xlink:href="#I" x="113.546"/><path d="M1759.48 575.128h-97.325c-1.666 0-3.016-1.227-3.016-2.742v-37.84c0-1.515 1.35-2.742 3.016-2.742h97.325c1.666 0 3.016 1.227 3.016 2.742v37.84c.01 1.515-1.35 2.742-3.016 2.742z"/></g><g class="B"><use xlink:href="#H" class="N"/><use xlink:href="#I" x="0.001" class="N"/><use xlink:href="#I" x="113.546" class="N"/><path d="M1759.48 575.128h-97.325c-1.666 0-3.016-1.227-3.016-2.742v-37.84c0-1.515 1.35-2.742 3.016-2.742h97.325c1.666 0 3.016 1.227 3.016 2.742v37.84c.007 1.515-1.35 2.742-3.016 2.742z" class="N"/></g><path d="M1603.192 522.298h-281.604c-3.48 0-6.307-4.725-6.307-10.57V228.286c0-5.833 2.819-10.57 6.307-10.57h281.604c3.48 0 6.307 4.725 6.307 10.57v283.442c0 5.845-2.826 10.57-6.307 10.57z" class="E"/><path d="M1603.913 523.367h-283.355c-3.502 0-6.346-4.755-6.346-10.637V227.498c0-5.87 2.837-10.637 6.346-10.637h283.355c3.502 0 6.346 4.755 6.346 10.637v285.233c0 5.882-2.844 10.637-6.346 10.637z" opacity=".949" class="B"/><use xlink:href="#J" class="Q"/><use xlink:href="#K" class="E"/><use xlink:href="#K" class="B I"/><use xlink:href="#K" y="18.624" class="E"/><use xlink:href="#K" y="37.249" fill="#61656d"/><g class="E"><use xlink:href="#L"/><use xlink:href="#L" y="18.623"/><use xlink:href="#L" y="37.249"/></g><g class="B"><use xlink:href="#L" class="I"/><use xlink:href="#L" y="18.623" class="I"/><use xlink:href="#L" y="37.249" class="I"/></g><g class="E"><use xlink:href="#M"/><use xlink:href="#M" y="18.623"/><use xlink:href="#M" y="37.249"/><use xlink:href="#N"/></g><g class="B"><use xlink:href="#O" class="D"/><use xlink:href="#N" class="I"/></g><use xlink:href="#P" class="E"/><g class="B"><use xlink:href="#Q" class="D"/><use xlink:href="#P" class="I"/></g><use xlink:href="#R" class="E"/><g class="B"><use xlink:href="#O" x="230.754" class="D"/><use xlink:href="#R" class="I"/></g><g class="E"><use xlink:href="#N" x="343.611"/><use xlink:href="#O" x="343.611"/><use xlink:href="#O"/><use xlink:href="#Q"/><use xlink:href="#O" x="230.754"/><use xlink:href="#O" x="343.611"/></g><g class="B"><use xlink:href="#O" class="D"/><use xlink:href="#Q" class="D"/><use xlink:href="#O" x="230.754" class="D"/><use xlink:href="#O" class="D"/><use xlink:href="#Q" class="D"/><use xlink:href="#O" x="230.754" class="D"/><use xlink:href="#N" x="343.611" class="I"/><path d="M1719.887 286.062h-81.364c-1.763 0-3.184-1.429-3.184-3.184v-9.937c0-1.763 1.429-3.184 3.184-3.184h81.364c1.763 0 3.184 1.429 3.184 3.184v9.937c.01 1.756-1.422 3.184-3.184 3.184z"/></g><use xlink:href="#S" class="E"/><use xlink:href="#S" opacity=".85" class="B"/><g class="E"><path d="M1762.178 281.85H1619.3v.311h142.878zm0-23.821H1619.3v.311h142.878zm0-23.826H1619.3v.311h142.878z" opacity=".2"/><path d="M1619.3 270.068s20.214 7.536 34.607 0 29.924-24.734 51.054-6.853c17.577 14.875 25.927-17.881 37.576-17.881s19.644 22.107 19.644 22.107v35.841c0 1.691-1.37 3.064-3.064 3.064h-136.824c-1.695 0-3.068-1.377-3.064-3.068z" class="G"/><path d="M1638.476 273.727a53.66 53.66 0 0 1-7.314-.523c-6.809-.936-11.923-2.825-11.974-2.842l.219-.584c.051.017 5.111 1.886 11.855 2.812 6.204.851 15.141 1.059 22.5-2.795 2.689-1.408 5.377-3.129 8.226-4.954 12.108-7.752 25.831-16.538 43.172-1.862 3.321 2.808 6.436 4.038 9.532 3.761 5.743-.516 10.406-6.173 14.912-11.643 4.27-5.183 8.302-10.075 12.931-10.075 11.735 0 19.61 21.4 19.938 22.312l-.588.212c-.02-.055-2.029-5.565-5.429-11.001-5.633-9.009-10.679-10.898-13.921-10.898-4.332 0-8.274 4.783-12.449 9.849-4.588 5.569-9.334 11.329-15.339 11.868-3.266.294-6.535-.984-9.989-3.908-7.591-6.426-15.121-8.831-23.016-7.355-6.976 1.302-13.3 5.35-19.415 9.268-2.859 1.831-5.562 3.56-8.271 4.981-3.184 1.657-8.244 3.375-15.579 3.375z"/><path d="M1690.572 256.662a1.011 1.011 0 1 0-1.011-1.011c0 .557.454 1.011 1.011 1.011zm23.955 11.458a1.011 1.011 0 1 0 0-2.022c-.557 0-1.011.454-1.011 1.011s.454 1.011 1.011 1.011zm28.499-21.775a1.01 1.01 0 0 0 1.011-1.011c0-.557-.454-1.011-1.011-1.011s-1.011.454-1.011 1.011a1.01 1.01 0 0 0 1.011 1.011zm-76.249 17.02a1.01 1.01 0 0 0 1.011-1.011c0-.557-.454-1.011-1.011-1.011s-1.011.454-1.011 1.011.454 1.011 1.011 1.011zm-23.727 10.802a1.011 1.011 0 1 0 0-2.022c-.557 0-1.011.454-1.011 1.011s.454 1.011 1.011 1.011zm-23.75-2.941a1.01 1.01 0 0 0 1.011-1.011c0-.557-.454-1.011-1.011-1.011a1.011 1.011 0 1 0 0 2.022zm142.878-3.106a1.011 1.011 0 1 0 0-2.022c-.557 0-1.011.454-1.011 1.011a1.01 1.01 0 0 0 1.011 1.011z"/></g><use xlink:href="#J" x="-0.316" y="-99.222" class="Q"/><path d="M1555.832 472.954H1449.7v9.123h106.132z" fill="#b8b8b8"/><path d="M1392.893 327.866h-13.191v13.263h13.191z" class="F"/><path d="M1516.74 290.274v25.607h-9.264v10.699h-16.311v-36.306z" class="J"/><path d="M1450.237 468.768V453.86h7.454v-15.681h13.818v30.59zm105.521-22.34h-16.224v22.34h16.224zm-76.001-85.393v19.033h35.482l-19.164-19.271zm-11.697-.238h-17.823v17.924h17.823zm-128.895-16.798h-14.249v29.809h14.249zm19.95 0h-16.099v13.714h16.099zm73.61 55.378h-21.476v19.86h21.476z" class="F"/><path d="M1432.726 395.481v-34.684h-26.265l-16.742 16.837v17.847z" class="J"/><path d="M1384.977 373.808l13.19-13.263h-35.207v13.263zm126.285-125.558l18.215-19.906h35.788v19.906z" class="F"/><path d="M1592.644 228.344h-22.634v19.906h22.634zm-212.942 93.981v-52.562l14.594-35.886 26.617 13.263h62.068l-69.608 75.184zm151.409 75.192h-51.354v-12.941h39.221z" class="G H"/><path d="M1359.112 291.475h-34.197v37.883h34.197z" class="K"/><path d="M1359.115 269.197h-16.099v16.186h16.099zm.001-4.913h-33.699l-.343-36.426h50.744zm-19.951 16.217h-14.249v4.89h14.249z" class="F"/><path d="M1339.165 269.197h-14.249v8.097h14.249zm261.207 171.139h-23.396v43.676h23.396zm-169.026 52.44h-23.702l-27.08-25.018v-30.337h50.782z" class="G H"/><path d="M1376.262 437.421h-29.902v16.286h29.902zm0 20.487h-29.902v9.1h29.902zm-39.911 8.595h6.2v-29.082h-13.826v20.985zm94.999 29.434h-23.702v13.638h23.702z" class="F"/><path d="M1402.53 492.776v16.837h-57.545a22.72 22.72 0 0 1-8.86-1.867c-2.79-1.217-5.294-2.977-7.357-5.174v-31.868h50.328z" class="J"/><path d="M1485.917 275.45l21.563-22.776h20.575v22.776z" class="F"/><path d="M1556.788 252.674h-24.462v10.477h24.462z" class="K"/><path d="M1543.346 265.937h-11.02v9.513h11.02z" class="G H"/><path d="M1556.786 265.937h-10.707v9.513h10.707z" class="J"/><path d="M1575.221 252.674h-15.456v22.776h15.456zm17.212 0h-13.387v15.574l6.411 7.202h6.976z" class="F"/><path d="M1424.448 242.372l62.35.742 13.75-15.131-106.816-.06z" class="K"/><path d="M1350.248 419.237h-25.332v-42.536h14.249l11.083 14.541z" class="G H"/><path d="M1359.115 386.198h-8.865l-7.234-9.498v-14.993h16.099zm9.653 21.054h-14.093v11.985h14.093zm15.837-29.12v41.097h-12.666V386.19h-8.967v-8.059zm23.04 22.355h-17.925v18.75h17.925zm-38.873-10.684h-14.108v15.153h14.108zm182.819-34.738v-64.799h43.279v22.018z" class="F"/><path d="M1547.241 290.266H1520.6v25.615h26.641z" class="G H"/><path d="M1423.343 343.463l27.785-30.406h34.879v30.406z" class="K"/><path d="M1455.087 309.544l17.635-19.278h13.191v19.278zm52.389 21.222h-16.311v12.704h16.311zm39.766.529v28.554l-12.885 13.952-22.463-24.222v-27.712h26.633v9.429zm22.968 81.123l-22.832-25.056 25.914-25.454 14.304 15.521z" class="F"/><path d="M1576.224 358.663l13.81 14.977h10.338v-39.116z" class="J"/><path d="M1576.976 420.316l-3.394-3.658 11.302-24.329h15.488v44.159h-23.396zm23.396-43.217h-10.08v12.253h10.08zm-126.456 108.682h-23.686V503h23.686z" class="F"/><path d="M1486.294 485.781h-8.833v23.786h8.833z" class="K"/><path d="M1502.346 485.781h-12.4v8.855h12.4z" class="F"/><path d="M1507.48 497.245h-17.533v12.322h17.533z" class="J"/><path d="M1528.435 485.773v23.794h-17.181v-14.931h-4.781v-8.862z" class="G H"/><path d="M1542.547 509.574l-11.255-11.319V485.78h26.594v23.794zm57.355-20.502c-2.148 11.671-11.592 20.457-22.926 20.503v-20.503z" class="F"/><path d="M1555.758 442.257h-40.522v-40.623h20.347l20.175 22.278z" class="K"/><path d="M1510.5 401.635h-19.806v25.753h19.806z" class="F"/><path d="M1535.594 446.421v22.347h-44.888v-38.151h19.798v15.804z" class="J"/><path d="M1488.141 446.964h-14.226v21.804h14.226z" class="F"/><path d="M1488.141 416.658h-37.904V435.4h37.904z" class="K"/><path d="M1488.141 438.178h-14.226v6.084h14.226z" class="G H"/><path d="M1468.06 382.303h-10.37l-7.454 7.117v20.725h17.823z" class="F"/><path d="M1481.475 408.159c-.017.585-.21 1.152-.555 1.631s-.828.846-1.386 1.059-1.169.259-1.754.135-1.121-.415-1.539-.834a2.95 2.95 0 0 1-.81-1.525 2.91 2.91 0 0 1 .187-1.709c.233-.539.624-.999 1.123-1.322s1.085-.496 1.684-.497c.82.012 1.601.341 2.173.915s.886 1.345.876 2.146z" class="H"/><path d="M1397.569 234.809v27.939h25.981l5.896 10.645 5.896-10.645h25.981v-27.939z" class="B"/><g class="E"><use xlink:href="#T"/><use xlink:href="#T" x="-61.304" y="111.925"/><use xlink:href="#T" x="-39.206" y="112.697"/><use xlink:href="#T" x="151.124" y="3.088"/><use xlink:href="#T" x="-79.126" y="-67.155"/><path d="M1429.374 286.111c2.173 0 3.923-1.909 3.923-4.248s-1.763-4.248-3.923-4.248-3.923 1.894-3.923 4.248 1.763 4.248 3.923 4.248z"/></g><path d="M1444.174 187.696H1329.12a4.09 4.09 0 1 1 0-8.184h115.054a4.09 4.09 0 1 1 0 8.184zm66.292 15.763h-181.054a4.09 4.09 0 1 1 0-8.184h181.054a4.09 4.09 0 1 1 0 8.184z" class="Q"/></g><path d="M657.696 320.786c-.346.076-.451.482-.37.845.072.363.459.473.805.389l2.744-.803c1.352-.499 2.141-2.012 1.666-3.432-.306-.913-1.006-1.581-1.835-1.809-1.103-.304-1.867-1.361-2.02-2.544l-.153-1.057c-1.899-5.993-.837 8.411-.837 8.411z" class="M"/><path d="M662.541 317.786c-.241-.727-.732-1.285-1.336-1.606l.097.237c.475 1.42-.314 2.933-1.666 3.432l-1.972.575.024.355c-.346.076-.451.482-.37.845.072.363.459.473.805.389l2.744-.803c1.36-.49 2.149-2.003 1.674-3.423z" opacity=".023" class="C"/><path d="M656.883 301.183l4.483 30.228c.644 4.362-1.73 8.597-5.682 10.11l-4.394 1.555-.217 16.61-9.4.803-17.94-.634 2.431-17.278 1.843-20.625 15.171-19.4z" class="M"/><g class="L"><path d="M657.487 292.054c1.32 4.556 3.847 7.151.072 9.797l-1.634 1.141c-1.545 1.082-2.455 2.916-2.414 4.861.064 3.035-1.127 5.055-3.871 6.213-.346.144-.515.549-.41.93l.282.997.95 3.846c.193.854-.274 1.724-1.078 1.986-.781.254-1.626-.161-1.94-.955l-1.256-2.536-4.314 4.708-1.103 14.176c-.233 3.009-2.527 5.393-5.392 5.604l-8.974.49c-.467.025-.893-.262-1.062-.719-1.441-3.931-3.324-7.658-5.577-11.141-3.887-6.002-6.543-11.953-6.994-19.163 0 0 7.115-5.004 9.626-6.357l-.652-4.176c-.684-4.32-.974-2.747 2.881-4.429l7.533-3.28c7.807-3.415 14.35-4.429 22.688-2.925 3.823.702 2.64.93 2.64.93z"/><path d="M654.702 285.318c-3.614-1.074-6.72-.245-8.636 1.488-1.143 1.217-2.64 1.167-4.105.101-2.221-1.691-5.819-4.387-10.954-2.46-6.728 2.392-8.201 7.464-8.644 10.068-.097 1.158-.837 2.02-1.706 2.561-2.889 1.75-8.29 6.762-7.968 14.26.491 13.195 23.839 7.87 23.839 7.87-1.328-2.612-.233-5.858 2.318-7.092l18.712-10.262c6.044-3.356 4.346-14.286-2.857-16.534z"/></g><path d="M641.455 322.112l.427.93s1.94.473 3.863.651l-4.33 2.62z" class="C D"/><path d="M646.493 319.121c.934 2.654 1.883 4.573-1.537 4.835-6.519.482-8.41-8.453-4.917-10.786 3.074-2.037 4.652 1.124 4.652 1.124s-.008 0 1.803 4.827z" fill="#fc9d9d"/><path d="M644.521 318.199c-.241-.938-.467-1.75-1.014-2.392-.531-.524-1.046-.938-1.634-.972-.579-.034-1.135.169-1.746.744-.097.135-.177.389-.016.727.145.22.37.186.579.034.402-.423.845-.609 1.199-.541.338-.051.612.271 1.014.702.531.524.805 1.699.837 1.936l.225.811c.032.237.274.321.499.287s.306-.287.274-.524z" opacity=".3" class="C"/><g class="L"><path d="M661.696 316.577c-.314.025-.612-.186-.708-.524l-2.922-10.245c-.105-.38.105-.778.475-.888s.74.11.845.499l2.922 10.245c.105.38-.105.778-.475.888a.36.36 0 0 1-.137.025z"/><path d="M659.789 309.501l-15.115 4.683.386 1.378 15.115-4.683z"/></g><path d="M576.506 508.791l-3.26-.676c-.483-.101-.974.118-1.239.549-.419.685-.121 1.598.612 1.86l3.799 1.386c1.746.634 3.678.186 5.014-1.15l4.032-4.066c2.479-2.494 3.356-6.264 2.262-9.679l-5.634-17.54-12.966 5.866 5.239 10.693-.25 1.927c-.201 1.589-.056 3.212.435 4.734z" class="P"/><g class="C"><path d="M576.506 508.791l-3.195-.659c-.443-.093-.926.042-1.215.414-.258.33-.322.727-.241 1.09l3.678.997c.692.186 1.312-.473 1.135-1.2z" class="D"/><path d="M583.484 514.683l.394-6.83h78.205l-1.151 6.83z"/><path d="M584.53 492.848l.121.152.274-4.708-.217-.668-11.622 5.799.765 1.564 7.26-3.052c1.207-.516 2.6-.144 3.42.913zm74.961-154.192l-5.988.448c-1.256.093-2.221 1.192-2.221 2.511v1.462l4.394-1.555a8.75 8.75 0 0 0 3.815-2.866zm-4.7 22.476l-.233-1.369-29.561-1.192c-.338-.017-.628.245-.668.592-.048.397.241.752.62.769zm129.456 26.534l2.567-6.568c.507-1.31.008-2.806-1.167-3.491a5.97 5.97 0 0 1-.901 2.68l-3.324 5.258 2.825 2.122z" class="D"/></g><path d="M801.905 369.02a1.61 1.61 0 0 0-2.245-.093l-26.672 23.685-1.714 8.039 7.171 7.532 21.65-14.751a2.36 2.36 0 0 0 1.046-1.978c0-1.209-.877-2.181-1.988-2.316l-.056-.085c.435-.473.716-1.116.716-1.826 0-1.454-1.119-2.629-2.503-2.629-.145 0-.282.017-.418.042a2.7 2.7 0 0 0 .628-1.733c0-1.454-1.119-2.629-2.503-2.629a2.44 2.44 0 0 0-.958.203l7.903-9.036c.604-.685.579-1.758-.056-2.426z" class="M"/><path d="M778.444 408.19l21.65-14.751a2.36 2.36 0 0 0 1.046-1.978c0-.719-.314-1.361-.805-1.784-.298 1.116-1.03 2.071-2.06 2.578l-16.402 9.307c-.62.355-1.392.161-1.803-.448l-6.173-9.307-.909.811 3.356 13.364z" class="C D"/><path d="M618.55 359.307l3.235-5.9c.491-.888 1.408-1.429 2.382-1.386l27.123 1.048c1.239.051 2.278.997 2.503 2.274l1.006 5.799 25.328 8.276c5.046 1.648 9.376 5.123 12.225 9.797l24.789 40.71 55.863-27.312 8.443 15.511-64.362 40.27c-5.28 3.305-12.072 2.029-15.927-2.992l-23.445-30.49-18.06 107.565h-76.692l6.575-114.252-22.487 23.052 18.092 56.128-12.748 6.357-30.905-59.924c-2.801-5.435-2.044-12.139 1.899-16.729l41.489-48.326c3.783-4.404 9.014-7.151 14.64-7.684z" fill="#3f342e"/><g class="B"><use xlink:href="#U"/><use xlink:href="#V"/><use xlink:href="#V" x="-30.117" y="5.597"/><use xlink:href="#V" x="-21.714" y="24.541"/><use xlink:href="#U" x="-69.473" y="2.132"/><use xlink:href="#V" x="-52.483" y="14.745"/><use xlink:href="#U" x="-122.946" y="-32.636"/><use xlink:href="#V" x="-68.805" y="-17.597"/><use xlink:href="#V" x="-80.555" y="11.591"/><use xlink:href="#V" x="-110.334" y="-8.342"/><use xlink:href="#U" x="-115.517" y="-9.922"/><use xlink:href="#U" x="-145.239" y="-44.191"/><use xlink:href="#U" x="-166.664" y="5.082"/><use xlink:href="#V" x="-129.134" y="12.385"/><use xlink:href="#V" x="-106.189" y="25.327"/><use xlink:href="#V" x="-84.41" y="45.056"/><use xlink:href="#V" x="-153.183" y="25.327"/><use xlink:href="#V" x="-126.881" y="79.308"/><use xlink:href="#U" x="-180.152" y="78.538"/><use xlink:href="#V" x="-150.712" y="88.226"/><use xlink:href="#V" x="-127.629" y="46.636"/><use xlink:href="#V" x="-90.954" y="85.233"/><use xlink:href="#V" x="-105.07" y="60.391"/><use xlink:href="#V" x="-179.83" y="-16.811"/><use xlink:href="#V" x="-201.392" y="16.671"/><use xlink:href="#V" x="-177.368" y="5.598"/><use xlink:href="#V" x="-178.116" y="33.696"/><use xlink:href="#V" x="-184.474" y="49.224"/><use xlink:href="#V" x="-168.659" y="66.679"/><use xlink:href="#U" x="-151.525" y="-17.226"/><use xlink:href="#V" x="-149.963" y="-48.019"/><use xlink:href="#V" x="-64.467" y="-43.793"/></g><path d="M677.688 414.92l-3.131-4.091c-2.342-3.052-6.978-2.096-8.048 1.657l-27.106 95.367h22.672zm-110.647 16.357l-.708-2.181c-1.014-3.128-.177-6.585 2.141-8.817l18.632-17.954c1.046-1.006 2.728-.178 2.656 1.319l-.225 4.582zm150.083-11.353l-24.789-40.71c-2.849-4.675-7.179-8.149-12.225-9.797l-4.652-1.522s8.853 7.489 11.758 12.612l23.018 40.558c.539.947 1.666 1.319 2.624.871z" class="D C"/><g stroke="#38bff8"><path d="M1065.412 438.766c-5.156-18.868 2.731-28.877.188-44.444-2.829-17.315.018-35.887.587-48.85-4.542-24.314-24.218-37.563-40.969-54.622-10.371-10.562-21.253-20.75-30.378-31.822-8.589-14.274-24.945-19.892-40.863-17.255-18.927 1.582-24.317 5.235-42.362-2.735-12.976-2.384-35.871 1.028-49.083 2.35-10.149 1.016-25.26.799-34.713-4.227-15.605-12.907-.78-32.616-7.186-54.015-5.482-18.623-5.893-51.627 8.048-67.842 8.687-14.705 15.245-13.813 17.252-31.677" stroke-width="2.5"/><path d="M1100 208.384c-32.128 11.996-39.545 51.319-68.182 67.919-3.571 2.601-6.853 6.882-13.978 7.382" stroke-width="1.5"/><path d="M908.569 441.869c1.194-13.112-2.289-26.151-1.831-38.462.462-12.397 7.569-28.712 8.595-40.998.983-11.763-4.095-19.478-4.428-32.147-.651-24.704-2.282-51.061 1.535-75.63.714-5.775 3.044-12.492-.827-15.593" stroke-width="2"/><path d="M1003.366 87.815c-17.608 13.848-45.278 32.252-52.335 54.476-15.919 30.125-54.269 58.663-67.023 74.551s-16.469 19.303-27.606 24.738" stroke-width="1.8"/><path d="M1097.466 154.013c-28.462 3.527-69.4 3.698-93.419 4.309s-50.588-10.449-59.15-5.896M770.94 340.008c36.532 10.337 73.486-4.635 110.241-4.195 10.114 1.053 22.43 2.462 29.93-6.062" stroke-width="1.2"/><path d="M768.36 221.621c23.043 1.396 40.551 8.832 52.149-5.548"/></g><path d="M822.372 334.864c-.613-6.518-4.85-13.005-12.308-13.005s-11.685 6.507-12.298 13.005c-.959 10.06 5.464 19.177 12.298 27.491 6.844-8.294 13.247-17.41 12.308-27.491zm-12.308 7.238a6.45 6.45 0 0 1-3.728-1.197c-1.103-.781-1.963-1.891-2.471-3.19s-.64-2.727-.382-4.105.898-2.645 1.837-3.638 2.134-1.671 3.435-1.945a6.36 6.36 0 0 1 3.876.404c1.226.538 2.275 1.449 3.012 2.617s1.13 2.543 1.13 3.948c0 .935-.169 1.862-.505 2.726s-.829 1.651-1.453 2.312-1.364 1.188-2.179 1.546a6.39 6.39 0 0 1-2.573.542z" fill="#4d4d4d"/><defs ><path id="B" d="M936.598 315.693l-178.55 105.72c-56.28 30.71-234.85 117.06-234.85 117.06l259.37 175.95 439.93-108.81 6.16-16.43a54.85 54.85 0 0 0 .71-36.51l-28.69-86.56-154.73-78.07c-62.29-33.29-109.35-72.35-109.35-72.35z"/><path id="C" d="M354.468 210.392c33.452 0 60.57-27.118 60.57-60.57s-27.118-60.57-60.57-60.57-60.57 27.118-60.57 60.57 27.118 60.57 60.57 60.57z"/><path id="D" d="M653.463 808.976a.48.48 0 0 1-.322-.135.55.55 0 0 1 0-.744l3.332-3.77a.49.49 0 0 1 .708 0 .55.55 0 0 1 0 .744l-3.332 3.77c-.129.068-.258.135-.386.135z"/><path id="E" d="M1285.891 311.294h-8.733a2.06 2.06 0 0 1-2.06-2.06v-8.733a2.06 2.06 0 0 1 2.06-2.06h8.733a2.06 2.06 0 0 1 2.06 2.06v8.733a2.06 2.06 0 0 1-2.06 2.06z"/><path id="F" d="M1285.891 394.711h-8.733a2.06 2.06 0 0 1-2.06-2.06v-8.726a2.06 2.06 0 0 1 2.06-2.06h8.733a2.06 2.06 0 0 1 2.06 2.06v8.733c0 1.132-.921 2.053-2.06 2.053z"/><path id="G" d="M1701.29 409.408h-20.735c-1.969 0-3.565-1.804-3.565-4.03v-6.764c0-2.226 1.596-4.03 3.565-4.03h20.735c1.969 0 3.565 1.804 3.565 4.03v6.764c.01 2.226-1.596 4.03-3.565 4.03z"/><path id="H" d="M1418.836 575.128h-97.318c-1.666 0-3.016-1.227-3.016-2.742v-37.84c0-1.515 1.35-2.742 3.016-2.742h97.325c1.666 0 3.016 1.227 3.016 2.742v37.84c0 1.515-1.35 2.742-3.023 2.742z"/><path id="I" d="M1532.388 575.128h-97.325c-1.666 0-3.016-1.227-3.016-2.742v-37.84c0-1.515 1.35-2.742 3.016-2.742h97.325c1.666 0 3.016 1.227 3.016 2.742v37.84c0 1.515-1.35 2.742-3.016 2.742z"/><path id="J" d="M1684.897 332.204h-55.054c-2.257 0-4.092-1.828-4.092-4.092 0-2.257 1.828-4.092 4.092-4.092h55.054c2.257 0 4.092 1.828 4.092 4.092s-1.835 4.092-4.092 4.092z"/><path id="K" d="M1634.74 475.324h-4.577c-1.181 0-2.145-1.081-2.145-2.424v-5.175c0-1.335.956-2.424 2.145-2.424h4.577c1.181 0 2.145 1.081 2.145 2.424v5.175c0 1.343-.963 2.424-2.145 2.424z"/><path id="L" d="M1706.943 472.749h-61.586c-1.188 0-2.151-1.089-2.151-2.432s.963-2.432 2.151-2.432h61.586c1.188 0 2.151 1.089 2.151 2.432.01 1.343-.956 2.432-2.151 2.432z"/><path id="M" d="M1751.682 472.749h-16.959c-1.188 0-2.151-1.089-2.151-2.432s.963-2.432 2.151-2.432h16.959c1.188 0 2.151 1.089 2.151 2.432s-.963 2.432-2.151 2.432z"/><path id="N" d="M1403.402 548.429h-72.392c-1.174 0-2.13-.87-2.13-1.937s.956-1.936 2.13-1.936h72.392c1.174 0 2.13.869 2.13 1.936s-.949 1.937-2.13 1.937z"/><path id="O" d="M1358.713 566.486h-26.81c-1.666 0-3.016-1.227-3.016-2.742v-4.519c0-1.515 1.35-2.742 3.016-2.742h26.81c1.666 0 3.016 1.227 3.016 2.742v4.519c0 1.515-1.35 2.742-3.016 2.742z"/><path id="P" d="M1519.922 548.429h-72.392c-1.174 0-2.13-.87-2.13-1.937s.956-1.936 2.13-1.936h72.392c1.174 0 2.13.869 2.13 1.936s-.956 1.937-2.13 1.937z"/><path id="Q" d="M1475.225 566.486h-26.81c-1.666 0-3.016-1.227-3.016-2.742v-4.519c0-1.515 1.35-2.742 3.016-2.742h26.81c1.666 0 3.016 1.227 3.016 2.742v4.519c.01 1.515-1.35 2.742-3.016 2.742z"/><path id="R" d="M1634.164 548.429h-72.392c-1.174 0-2.13-.87-2.13-1.937s.956-1.936 2.13-1.936h72.392c1.174 0 2.13.869 2.13 1.936-.01 1.067-.956 1.937-2.13 1.937z"/><path id="S" d="M1759.113 306.342h-136.827c-1.691 0-3.064-1.37-3.064-3.064v-82.176c0-1.691 1.37-3.064 3.064-3.064h136.827c1.691 0 3.065 1.37 3.065 3.064v82.176c0 1.695-1.373 3.064-3.065 3.064z"/><path id="T" d="M1420.068 384.182c1.153 0 2.081-1.013 2.081-2.254s-.935-2.254-2.081-2.254-2.081 1.005-2.081 2.254.935 2.254 2.081 2.254z"/><path id="U" d="M770.308 398.384c.418 0 .757-.355.757-.795s-.338-.795-.757-.795-.757.355-.757.795.338.795.757.795z"/><path id="V" d="M746.493 417.327c.419 0 .757-.355.757-.795s-.338-.795-.757-.795-.757.355-.757.795.338.795.757.795z"/></defs></svg>