<svg xmlns="http://www.w3.org/2000/svg" xmlns:xlink="http://www.w3.org/1999/xlink" width="625" height="150" viewBox="0 0 165.365 39.688" xmlns:v="https://vecta.io/nano"><style><![CDATA[.B{fill:#22c55e}.C{stroke:#22c55e}.D{stroke-width:1.5}.E{fill:#2e3a3a}.F{font-weight:400}.G{font-family:Aller}.H{word-spacing:1.197px}.I{fill-rule:evenodd}.J{fill:#92400e}.K{fill:#38bff8}.L{stroke-linejoin:bevel}.M{font-size:8.819px}.N{font-family:Clear Sans}.O{word-spacing:0px}]]></style><defs><marker orient="auto" refY="0" refX="0" id="A" overflow="visible"><path d="M5.77 0l-8.65 5V-5z" transform="scale(.2)" fill-opacity="1" stroke-width="1pt" stroke-opacity="1" class="B C I"/></marker><path id="B" d="M42.642 7.358l-.893 1.518c-.133.226-.26.452-.261.711 0 .621.516 1.125 1.153 1.125s1.153-.503 1.153-1.125c0-.259-.128-.485-.261-.711z"/><path id="C" d="M71.436 7.836q.3-.035.723-.062.423-.035.829-.035 1.667 0 2.487.847.829.847.829 2.434 0 1.658-.847 2.461-.838.803-2.505.803-.415 0-.82-.035-.406-.026-.697-.071zm.9 5.6q.123.018.3.035.185.009.388.009.52 0 .944-.115.432-.123.741-.406.309-.282.476-.758.168-.485.168-1.208 0-.661-.168-1.129-.168-.467-.476-.758-.3-.3-.723-.432-.423-.132-.935-.132-.168 0-.37.009-.194 0-.344.026z"/><path id="D" d="M77.592 7.836h3.484q.026.176.026.388 0 .097-.009.203 0 .106-.018.194h-2.584v1.817h2.064q.018.088.026.194.009.097.009.194 0 .097-.009.203-.009.106-.026.194h-2.064v2.17h2.655q.026.176.026.388 0 .097-.009.203 0 .106-.018.194h-3.554z"/><path id="E" d="M82.319 7.827q.132-.018.309-.035.185-.018.379-.026.203-.018.397-.026.203-.009.388-.009.485 0 .917.097.441.097.767.335.335.238.529.635.194.388.194.979 0 .617-.212 1.032-.203.406-.547.653-.335.247-.767.353-.432.097-.882.097-.168 0-.3 0-.123-.009-.273-.026v2.293q-.212.026-.45.026-.106 0-.229-.009-.115 0-.22-.018zm.9 3.272q.141.018.247.026.106.009.309.009.273 0 .538-.053.273-.062.485-.212.212-.15.335-.406.132-.265.132-.679 0-.362-.115-.609-.106-.247-.3-.397-.194-.15-.467-.212-.273-.062-.591-.062-.326 0-.573.026z"/><path id="F" d="M89.983 12.713h-2.408l-.432 1.464q-.115.018-.229.026-.115.009-.229.009-.123 0-.247-.009-.115-.009-.212-.026l2.064-6.341q.115-.018.247-.026.132-.009.273-.009.123 0 .256.009.132.009.256.026l2.055 6.341q-.106.018-.238.026-.132.009-.256.009-.115 0-.238-.009-.115-.009-.22-.026zm-2.17-.785h1.931l-.97-3.237z"/><path id="G" d="M92.32 7.827q.194-.018.353-.035.159-.018.309-.026.159-.018.326-.026.168-.009.37-.009.45 0 .891.088.441.088.785.309.344.22.556.6.22.37.22.944 0 .344-.115.626-.115.282-.291.503-.176.22-.406.388-.22.159-.432.265l-.106.053 1.843 2.672q-.238.026-.538.026-.238 0-.476-.026l-2.028-2.937v-.035l.071-.018q.238-.062.503-.168.265-.106.485-.273.229-.176.379-.415.15-.247.15-.591 0-.635-.379-.944-.37-.309-1.005-.309-.15 0-.282.009-.123.009-.282.026v5.653q-.097.009-.22.018-.115.009-.22.009-.106 0-.229-.009-.123 0-.229-.018z"/><path id="H" d="M98.538 8.621h-1.649q-.018-.088-.026-.194-.009-.106-.009-.203 0-.097.009-.194.009-.106.026-.194h4.198q.018.088.026.185.009.097.009.194 0 .097-.009.212-.009.106-.026.194h-1.649v5.556q-.203.026-.441.026-.247 0-.459-.026z"/><path id="I" d="M102.26 7.836q.106-.018.238-.026.141-.009.265-.009.123 0 .265.009.15.009.247.026l1.64 3.969 1.649-3.969q.088-.018.22-.026.132-.009.256-.009.115 0 .256.009.141.009.238.026l.3 6.341q-.106.018-.22.026-.106.009-.22.009-.115 0-.229-.009-.106-.009-.203-.026l-.203-4.93-1.552 3.616q-.176.026-.362.026-.168 0-.335-.026l-1.499-3.642-.203 4.957q-.097.018-.203.026-.106.009-.203.009-.115 0-.22-.009-.106-.009-.203-.026z"/><path id="J" d="M133.163 7.836h3.316q.018.088.026.194.009.097.009.194 0 .097-.009.203-.009.106-.026.194h-2.417v1.861h2.02q.018.097.026.203.009.097.009.194 0 .097-.009.203-.009.097-.026.194h-2.02v2.902q-.106.018-.22.026-.106.009-.229.009-.115 0-.238-.009-.115-.009-.212-.026z"/><path id="K" d="M76.419 17.714q.106-.018.22-.026.115-.009.229-.009.115 0 .229.009.115.009.22.026v2.611h2.699v-2.611q.097-.018.212-.026.115-.009.229-.009.115 0 .229.009.123.009.229.026v6.341q-.097.018-.212.026-.115.009-.238.009-.115 0-.238-.009-.115-.009-.212-.026v-2.937h-2.699v2.937q-.106.018-.22.026-.106.009-.229.009-.115 0-.238-.009-.115-.009-.212-.026z"/><path id="L" d="M83.862 21.735l-2.011-4.022q.115-.018.247-.026.132-.009.265-.009.115 0 .247.009.141.009.247.026l1.482 3.149 1.464-3.149q.115-.018.229-.026.115-.009.238-.009.123 0 .247.009.123.009.238.026l-1.984 4.022v2.32q-.115.018-.229.026-.115.009-.229.009-.115 0-.238-.009-.115-.009-.212-.026z"/><path id="M" d="M87.355 23.093q.291.106.609.185.317.079.776.079.723 0 1.076-.291.362-.3.362-.803 0-.247-.079-.423-.071-.176-.22-.3-.15-.132-.379-.238-.22-.106-.52-.229l-.503-.203q-.256-.106-.467-.229-.212-.132-.37-.317-.15-.185-.238-.423-.088-.247-.088-.582 0-.803.547-1.252.547-.459 1.535-.459.423 0 .803.071.379.071.67.176-.044.37-.194.732-.238-.088-.556-.159-.309-.071-.706-.071-.556 0-.855.229-.3.22-.3.67 0 .185.071.335.079.141.203.256.123.106.291.194.168.088.353.159l.494.194q.353.141.626.3.273.15.467.362.194.203.291.485.106.282.106.661 0 .908-.626 1.438-.626.52-1.755.52-.273 0-.494-.018-.22-.018-.415-.053-.185-.035-.362-.088-.176-.053-.362-.115.018-.194.079-.397.062-.203.132-.397z"/><path id="N" d="M92.32 17.714q.106-.018.22-.026.115-.009.229-.009.115 0 .229.009.115.009.22.026v6.341q-.106.018-.22.026-.106.009-.229.009-.115 0-.238-.009-.115-.009-.212-.026z"/><path id="O" d="M98.82 23.129q.194.379.247.732-.37.159-.758.229-.388.071-.838.071-.688 0-1.244-.22-.547-.229-.926-.644-.379-.423-.582-1.023-.203-.6-.203-1.349 0-.758.203-1.367.203-.617.582-1.05.379-.432.926-.661.547-.238 1.226-.238.503 0 .864.071.362.071.644.168-.018.203-.079.379-.053.168-.132.362-.132-.044-.256-.079-.123-.035-.265-.062-.141-.026-.317-.035-.168-.018-.388-.018-.961 0-1.499.653-.529.653-.529 1.879 0 .626.15 1.085.15.459.423.758.273.3.653.45.388.15.864.15.37 0 .67-.062.3-.062.564-.176z"/><path id="P" d="M115.789 20.774q.106-.018.22-.026.115-.009.229-.009.115 0 .229.009.115.009.212.026v3.096q-.185.079-.406.141-.22.053-.459.079-.238.035-.476.053-.238.018-.45.018-.706 0-1.27-.22-.564-.22-.953-.635-.388-.423-.6-1.023-.203-.6-.203-1.358 0-.758.212-1.367.212-.617.6-1.05.397-.432.935-.661.547-.238 1.208-.238.503 0 .873.071.37.062.67.176-.018.203-.079.379-.053.168-.132.362-.247-.079-.538-.141-.282-.062-.714-.062-.467 0-.855.168-.379.168-.653.494-.265.317-.415.794-.15.467-.15 1.076 0 .626.15 1.085.159.45.441.758.282.3.661.45.388.141.855.141.282 0 .494-.026.212-.035.362-.079z"/><path id="Q" d="M125.296 24.161q-.688 0-1.191-.238-.503-.247-.838-.679-.326-.441-.494-1.041-.159-.6-.159-1.314 0-.714.159-1.314.168-.6.494-1.032.335-.441.838-.688.503-.247 1.191-.247.688 0 1.191.247.503.247.829.688.335.432.494 1.032.159.6.159 1.314 0 .714-.159 1.314-.159.6-.494 1.041-.326.432-.829.679-.503.238-1.191.238zm0-.776q.441 0 .758-.168.326-.176.538-.503.212-.326.317-.785.106-.459.106-1.041 0-.573-.106-1.032-.106-.467-.317-.785-.212-.326-.538-.494-.317-.176-.758-.176-.441 0-.767.176-.317.168-.529.494-.212.317-.317.785-.106.459-.106 1.032 0 .582.106 1.041.106.459.317.785.212.326.529.503.326.168.767.168z"/><path id="R" d="M76.868 27.591q.097-.018.203-.026.115-.009.212-.009.097 0 .203.009.115.009.212.026l2.76 4.762v-4.762q.106-.018.22-.026.115-.009.229-.009.097 0 .203.009.106.009.203.026v6.341q-.097.018-.212.026-.106.009-.203.009-.097 0-.212-.009-.106-.009-.203-.026l-2.769-4.736v4.736q-.097.018-.212.026-.106.009-.212.009-.115 0-.229-.009-.106-.009-.194-.026z"/></defs><path d="M37.148 30.158l6.594 2.4 16.485-6v-1.6l-16.485 6-6.594-2.4z" class="J"/><path d="M32.752 33.358l2.747 1 2.747-1-2.747-1z" class="B"/><path d="M16.267 27.358l2.747 1 1.374-1.5z" class="I J"/><path d="M37.148 28.558l6.594 2.4 16.485-6v-1.6l-7.143-2.6v1.6l4.945 1.8-14.287 5.2-6.594-2.4z" class="B"/><path d="M26.02 29.808c.629-.217 1.903-.203 2.615.052.552.198.734.718-.005.998s-2.164.212-2.885-.05-.366-.779.275-1z" class="K"/><g fill="none" class="D L"><path d="M53.632 21.758c-13.188-4.4-13.188-13.2-19.782-13.2-4.396 0-5.495 3.6-8.242 5.8" class="C"/><path d="M10.772 21.358l12.089-9.2 6.044 5.4" stroke="#3b4b59"/></g><path d="M16.816 19.958l-4.945-5.8" marker-end="url(#A)" class="B C D L"/><ellipse ry="1.363" rx="4.485" cy="25.651" cx="43.77" class="K"/><path d="M10.772 20.558l-8.242 3v1.6l32.97 12 24.727-9v-1.6l-16.485 6-6.594-2.4-1.099-.8-.549.2-6.182-2.25 2.061-.75-1.374-1-2.747 1-6.045-2.2 3.846-1.4-1.923-.9-4.121 1.5zm0 1.6l6.182 2.15-6.182 2.25-6.044-2.2zm8.242 3l6.044 2.2-6.045 2.2-6.044-2.2zm8.242 3l6.044 2.2-6.044 2.2-6.045-2.2zm8.242 3l6.044 2.2-6.044 2.2-6.045-2.2z" fill="#3f4b55"/><g fill="none" class="D L"><path d="M37.697 27.958c-6.594-2.4-7.143-4.6-10.402-5.777-1.692-.611-4.435-.723-7.182-.623" class="C"/><path d="M37.697 29.558c-7.693-2.8-7.802-4.847-10.414-5.794-2.774-1.006-4.972-.806-7.719-.806" stroke="#92400e"/><path d="M19.084 24.045l3.777-11.886" stroke="#3b4b59"/></g><g stroke="#38bff8" stroke-width=".464" class="K"><use xlink:href="#B"/><use xlink:href="#B" x="-6.593" y="4"/><use xlink:href="#B" x="-3.296" y="-4.4"/></g><path d="M56.67 12.789a5.235 5.081 0 0 1-5.095 5.079 5.235 5.081 0 0 1-5.367-4.808 5.235 5.081 0 0 1 4.809-5.336 5.235 5.081 0 0 1 5.624 4.523" class="B"/><path d="M51.434 14.158v10" stroke="#92400e" class="D I J"/><text y="-30.767" x="49.464" xml:space="preserve" letter-spacing="0" class="E M N O"><tspan y="-30.767" x="49.464" font-weight="normal" class="G H">DEPARTMENT OFPHYSICAL GEOGRAPHYGEOIN</tspan><tspan y="-30.767" x="49.464" font-weight="normal" class="G H">AND </tspan><tspan y="-30.767" x="49.464" font-weight="normal" class="G H">KATEDRAFYZICKEJ GEOGRAFIEA GEOINFORMATIKY</tspan></text><g class="E"><use xlink:href="#C"/><use xlink:href="#D"/><use xlink:href="#E"/><use xlink:href="#F"/><use xlink:href="#G"/><use xlink:href="#H"/><use xlink:href="#I"/><use xlink:href="#D" x="31.688"/><path d="M114.007 7.836q.097-.018.203-.026.115-.009.212-.009.097 0 .203.009.115.009.212.026l2.76 4.763V7.836q.106-.018.22-.026.115-.009.229-.009.097 0 .203.009.106.009.203.026v6.341q-.097.018-.212.026-.106.009-.203.009-.097 0-.212-.009-.106-.009-.203-.026l-2.769-4.736v4.736q-.097.018-.212.026-.106.009-.212.009-.115 0-.229-.009-.106-.009-.194-.026z"/><use xlink:href="#H" x="22.56"/><path d="M129.176 14.283q-.688 0-1.191-.238-.503-.247-.838-.679-.326-.441-.494-1.041-.159-.6-.159-1.314 0-.714.159-1.314.168-.6.494-1.032.335-.441.838-.688.503-.247 1.191-.247.688 0 1.191.247.503.247.829.688.335.432.494 1.032.159.6.159 1.314 0 .714-.159 1.314-.159.6-.494 1.041-.326.432-.829.679-.503.238-1.191.238zm0-.776q.441 0 .758-.168.326-.176.538-.503.212-.326.317-.785.106-.459.106-1.041 0-.573-.106-1.032-.106-.467-.317-.785-.212-.326-.538-.494-.317-.176-.758-.176-.441 0-.767.176-.317.168-.529.494-.212.318-.317.785-.106.459-.106 1.032 0 .582.106 1.041.106.459.317.785.212.326.529.503.326.168.767.168z"/><use xlink:href="#J"/><use xlink:href="#E" x="-10.892" y="9.878"/><use xlink:href="#K"/><use xlink:href="#L"/><use xlink:href="#M"/><use xlink:href="#N"/><use xlink:href="#O"/><use xlink:href="#F" x="13.361" y="9.878"/><path d="M105.664 17.714q.097-.018.203-.026.115-.009.238-.009.115 0 .229.009.115.009.22.026v5.547h2.487q.018.097.018.203.009.106.009.194 0 .212-.026.397h-3.378z"/><use xlink:href="#P"/><use xlink:href="#D" x="40.534" y="9.878"/><use xlink:href="#Q"/><path d="M132.951 20.774q.106-.018.22-.026.115-.009.229-.009.115 0 .229.009.115.009.212.026v3.096q-.185.079-.406.141-.22.053-.459.079-.238.035-.476.053-.238.018-.45.018-.706 0-1.27-.22-.564-.22-.952-.635-.388-.423-.6-1.023-.203-.6-.203-1.358 0-.758.212-1.367.212-.617.6-1.05.397-.432.935-.661.547-.238 1.208-.238.503 0 .873.071.37.062.67.176-.018.203-.079.379-.053.168-.132.362-.247-.079-.538-.141-.282-.062-.714-.062-.467 0-.855.168-.379.168-.653.494-.265.317-.415.794-.15.467-.15 1.076 0 .626.15 1.085.159.45.441.758.282.3.661.45.388.141.855.141.282 0 .494-.026.212-.035.362-.079z"/><use xlink:href="#G" x="42.986" y="9.878"/><use xlink:href="#F" x="53.693" y="9.878"/><use xlink:href="#E" x="63.676" y="9.878"/><use xlink:href="#K" x="74.568"/><use xlink:href="#L" x="74.569"/><use xlink:href="#F" x="-15.434" y="19.756"/><use xlink:href="#R"/><use xlink:href="#C" x="11.438" y="19.755"/><use xlink:href="#P" x="-20.999" y="9.878"/><use xlink:href="#D" x="19.535" y="19.755"/><use xlink:href="#Q" x="-20.999" y="9.877"/><use xlink:href="#N" x="15.963" y="9.877"/><use xlink:href="#R" x="33.867"/><use xlink:href="#J" x="-16.431" y="19.755"/><use xlink:href="#Q" x="-1.676" y="9.877"/><use xlink:href="#G" x="35.304" y="19.756"/><use xlink:href="#I" x="30.788" y="19.755"/><use xlink:href="#F" x="53.208" y="19.756"/><use xlink:href="#H" x="47.501" y="19.755"/><use xlink:href="#N" x="57.265" y="9.877"/><use xlink:href="#O" x="57.265" y="9.878"/><use xlink:href="#M" x="69.973" y="9.878"/></g></svg>