<svg xmlns="http://www.w3.org/2000/svg" xmlns:xlink="http://www.w3.org/1999/xlink" width="1293.994" height="993.017" fill="none" xmlns:v="https://vecta.io/nano"><style><![CDATA[.c{fill:#000}.d{opacity:.2}.e{fill:#1db956}.f{fill:#fff}.g{opacity:.15}.h{fill:#21252b}.i{fill:#fc9d9d}.j{fill:#61656d}.k{fill:#3f4249}.l{fill:#b2b6bb}.m{stroke-miterlimit:10}.n{stroke-linecap:round}.o{fill:#38bff8}.p{fill:#92400e}]]></style><path d="M57.302 979.607l-47.1-577.37a62.01 62.01 0 0 1 11.54-41.31l235-325.27a62 62 0 0 1 24.472-20.052 61.99 61.99 0 0 1 31.178-5.368l804.612 70.93c12.73 1.132 24.8 6.171 34.56 14.429a61.98 61.98 0 0 1 19.95 31.701l110.49 425.45c2.72 10.462 2.65 21.453-.2 31.88l-108.17 396.42z" fill="#eef6fa"/><g class="l"><path d="M173.194 885.947a39.08 39.08 0 0 0 1.686 23.57c2.98 7.49 8.207 13.88 14.962 18.28 6.755 4.41 14.708 6.62 22.767 6.32 8.059-.29 15.83-3.07 22.245-7.96a47.86 47.86 0 0 0 19.88 10.09h.1l216.89 10.32c3.982.96 8.127 1.03 12.138.2a27.81 27.81 0 0 0 11.064-5 27.78 27.78 0 0 0 7.877-9.23 27.86 27.86 0 0 0 3.186-11.72c.185-4.09-.536-8.17-2.113-11.95a27.72 27.72 0 0 0-7.009-9.91 27.75 27.75 0 0 0-10.567-5.98 27.78 27.78 0 0 0-12.106-.9 18 18 0 0 0-34.41-7.21c-4.43-11.955-13.42-21.665-25-27a24.35 24.35 0 0 0-26-36.19c-3.908-10.668-11.028-19.862-20.379-26.316a54.94 54.94 0 0 0-31.835-9.716 54.93 54.93 0 0 0-31.601 10.451c-9.199 6.668-16.105 16.025-19.765 26.781a18 18 0 0 0-11.152 3.856 18.01 18.01 0 0 0-6.368 9.934c-.351 1.521-.512 3.08-.48 4.64a48.17 48.17 0 0 0-21.763 4.602c-6.796 3.211-12.747 7.967-17.377 13.888-5.25-2.531-11.001-3.852-16.829-3.867a38.99 38.99 0 0 0-16.851 3.778 39.01 39.01 0 0 0-13.566 10.684c-3.667 4.531-6.272 9.825-7.624 15.495z"/><path d="M352.914 955.127c-16.84-2-33.69-3.57-50.33-4.83l-21.41-1.45h-.47l-36.42-1.71-6.41-.23-15.06-.39-11.63-.24-44.32-.15-17.63.24-21.67.53c-40 1.2-65.38 3.3-65.38 3.3-2.379-3.95-3.462-8.55-3.1-13.15 1.25-14.65 17.47-25.24 36.38-23.82a23.29 23.29 0 0 1-.53-7.28c1.34-15.7 18.58-27 38.53-25.35 16.62 1.42 29.89 11.48 33.05 23.87a44.15 44.15 0 0 1 15.31-1.32c8.703.64 16.992 3.96 23.72 9.52 5.024.49 9.925 1.85 14.49 4 6.4-9.61 19.77-15.58 34.62-14.31 3.102.26 6.169.85 9.15 1.74a44.52 44.52 0 0 1 12.67-.7c15.14 1.3 27.51 9.74 32 20.62a43.88 43.88 0 0 1 10.8-.38c19.91 1.71 34.98 15.8 33.64 31.49zm21.188-13.71c-.24 10.57 92.7 15.86 92.92 5.8a18.16 18.16 0 0 0-4.201-12.03 18.19 18.19 0 0 0-11.069-6.32c.619-1.52.957-3.15 1-4.79.043-1.83-.276-3.65-.937-5.36-.661-1.7-1.652-3.26-2.915-4.58a13.87 13.87 0 0 0-9.758-4.31h-1.27c-2.14-9.14-11.13-16.11-22.07-16.36-12.72-.28-23.23 8.64-23.48 19.93-.07 3.28.734 6.52 2.33 9.38-11.28.53-20.33 8.56-20.55 18.64z"/></g><g class="c"><path d="M354.004 956.957c-16.81-2.21-33.64-4-50.27-5.47l-21.38-1.72h-.48l-36.39-2.17-6.41-.31-15.05-.58-11.63-.38-44.31-.72h-17.63l-21.68.24c-40 .7-65.42 2.48-65.42 2.48a22.13 22.13 0 0 1-2.93-13.18c1.43-14.64 17.78-25 36.68-23.36-.528-2.39-.676-4.85-.44-7.29 1.54-15.68 18.92-26.81 38.84-24.86 16.61 1.63 29.75 11.85 32.75 24.29 5.004-1.27 10.193-1.66 15.33-1.13a42.03 42.03 0 0 1 23.6 9.81 44.21 44.21 0 0 1 14.44 4.22c6.51-9.53 20-15.32 34.79-13.87a45.13 45.13 0 0 1 9.13 1.85 44.56 44.56 0 0 1 12.68-.53c15.12 1.48 27.38 10.08 31.69 21a44.44 44.44 0 0 1 10.81-.24c19.93 1.96 34.82 16.24 33.28 31.92z" opacity=".1"/><path d="M375.583 941.417c-.23 10.57 92.7 15.86 92.93 5.8a18.18 18.18 0 0 0-4.208-12.03c-2.808-3.38-6.741-5.62-11.072-6.32a13.7 13.7 0 0 0 1-4.79 13.94 13.94 0 0 0-3.856-9.94c-2.552-2.67-6.061-4.22-9.754-4.31h-1.27c-2.15-9.14-11.13-16.11-22.08-16.36-12.71-.28-23.23 8.64-23.48 19.93-.068 3.28.74 6.52 2.34 9.38-11.27.53-20.32 8.56-20.55 18.64z" opacity=".01"/></g><g class="l"><path d="M569.194 883.947a39.08 39.08 0 0 0 1.686 23.57c2.98 7.49 8.207 13.88 14.962 18.28 6.755 4.41 14.708 6.62 22.767 6.32 8.059-.29 15.83-3.07 22.245-7.96a47.86 47.86 0 0 0 19.88 10.09h.1l216.89 10.32c3.98.96 8.13 1.03 12.14.2a27.77 27.77 0 0 0 11.06-5c3.28-2.46 5.97-5.61 7.88-9.23 1.91-3.63 3-7.63 3.18-11.72.19-4.09-.53-8.17-2.11-11.95s-3.97-7.17-7.01-9.91a27.73 27.73 0 0 0-10.56-5.98 27.8 27.8 0 0 0-12.11-.9c-.04-4.101-1.48-8.065-4.08-11.235-2.61-3.17-6.21-5.357-10.23-6.198a18 18 0 0 0-20.1 10.223c-4.43-11.955-13.42-21.665-25-27a24.35 24.35 0 0 0-26-36.19c-3.908-10.668-11.028-19.862-20.379-26.316a54.94 54.94 0 0 0-31.835-9.716 54.93 54.93 0 0 0-31.601 10.451c-9.199 6.668-16.105 16.025-19.765 26.781a18 18 0 0 0-11.152 3.856 18.01 18.01 0 0 0-6.368 9.934c-.351 1.521-.512 3.08-.48 4.64a48.17 48.17 0 0 0-21.763 4.602c-6.796 3.211-12.747 7.967-17.377 13.888-5.25-2.531-11.001-3.852-16.829-3.867a38.99 38.99 0 0 0-16.851 3.778 39.01 39.01 0 0 0-13.566 10.684c-3.667 4.531-6.272 9.825-7.624 15.495z"/><path d="M748.914 953.127c-16.84-2-33.69-3.57-50.33-4.83l-21.41-1.45h-.47l-36.42-1.71-6.41-.23-15.06-.39-11.63-.24-44.32-.15-17.63.24-21.67.53c-40 1.2-65.38 3.3-65.38 3.3-2.379-3.95-3.462-8.55-3.1-13.15 1.25-14.65 17.47-25.24 36.38-23.82a23.29 23.29 0 0 1-.53-7.28c1.34-15.7 18.58-27 38.53-25.35 16.62 1.42 29.89 11.48 33 23.87a44.15 44.15 0 0 1 15.31-1.32c8.703.64 16.992 3.96 23.72 9.52 5.024.49 9.925 1.85 14.49 4 6.4-9.61 19.77-15.58 34.62-14.31 3.102.26 6.169.85 9.15 1.74a44.52 44.52 0 0 1 12.67-.7c15.14 1.3 27.51 9.74 32 20.62a43.88 43.88 0 0 1 10.8-.38c19.96 1.71 35.03 15.8 33.69 31.49z"/></g><path d="M750.004 954.957c-16.81-2.21-33.64-4-50.27-5.47l-21.38-1.72h-.48l-36.39-2.17-6.41-.31-15.05-.58-11.63-.38-44.31-.72h-17.63l-21.68.24c-40 .7-65.42 2.48-65.42 2.48a22.13 22.13 0 0 1-2.93-13.18c1.43-14.64 17.78-25 36.68-23.36-.528-2.39-.676-4.85-.44-7.29 1.54-15.68 18.92-26.81 38.84-24.86 16.61 1.63 29.75 11.85 32.75 24.29 5.004-1.27 10.194-1.66 15.33-1.13a42.03 42.03 0 0 1 23.6 9.81 44.21 44.21 0 0 1 14.44 4.22c6.51-9.53 20-15.32 34.79-13.87a45.13 45.13 0 0 1 9.13 1.85 44.56 44.56 0 0 1 12.68-.53c15.12 1.48 27.38 10.08 31.69 21a44.44 44.44 0 0 1 10.81-.24c19.93 1.96 34.82 16.24 33.28 31.92z" opacity=".1" class="c"/><g class="l"><path d="M1075.884 891.947c4.95 21-7.74 42.08-28.34 47.12-5.54 1.36-11.32 1.44-16.9.25a37.86 37.86 0 0 1-15.32-7.16 46.65 46.65 0 0 1-19.53 10.09h-.09l-213.029 10.32c-3.509.83-7.149.96-10.709.38a27.21 27.21 0 0 1-10.03-3.77 27.18 27.18 0 0 1-7.801-7.35 27.22 27.22 0 0 1-4.37-9.78c-3.52-14.91 5.5-29.92 20.15-33.5a26.68 26.68 0 0 1 10.34-.47 17.93 17.93 0 0 1 13.54-17.28c4.017-.95 8.24-.461 11.934 1.383s6.622 4.925 8.276 8.707a47.79 47.79 0 0 1 24.59-27 24.57 24.57 0 0 1-3.221-10.701c-.237-3.768.398-7.539 1.855-11.021a24.55 24.55 0 0 1 6.545-9.058 24.56 24.56 0 0 1 9.88-5.22c3.43-.833 7-.884 10.45-.15a54.27 54.27 0 0 1 14.68-22.044 54.26 54.26 0 0 1 23.37-12.466c27.34-6.7 54.81 9.11 63.68 35.71a17.75 17.75 0 0 1 11 3.901c3.12 2.503 5.31 5.988 6.2 9.889.35 1.521.51 3.079.48 4.64 7.42-.176 14.78 1.408 21.47 4.621a46.99 46.99 0 0 1 17.02 13.869 37.98 37.98 0 0 1 7.61-2.76c20.59-5.05 41.32 7.88 46.27 28.85z"/><path d="M1178.254 955.647c-9.89-.69-30.24-2-57.55-2.79l-21.28-.53-17.32-.24a1685.37 1685.37 0 0 0-43.52.15l-11.43.24-14.79.39-6.3.23-36.24 1.71-21 1.45c-16.34 1.26-32.9 2.84-49.43 4.83-1.32-15.69 13.48-29.78 33.07-31.49a42.44 42.44 0 0 1 10.62.38c4.37-10.88 16.51-19.32 31.39-20.62 4.16-.37 8.35-.14 12.44.7 2.93-.9 5.95-1.48 9-1.74 14.59-1.27 27.72 4.7 34 14.31a42.54 42.54 0 0 1 14.23-4 40.99 40.99 0 0 1 23.3-9.52 42.86 42.86 0 0 1 15 1.32c3.1-12.39 16.13-22.45 32.46-23.87 19.59-1.7 36.53 9.65 37.84 25.35.21 2.44.03 4.89-.52 7.28 13.93-1.06 26.38 4.62 32.25 13.72z"/></g><path d="M1178.464 954.867c-10.1-.57-30.2-1.55-57-2l-21.29-.24h-17.32c-13.64 0-28.23.27-43.52.72l-11.42.38-14.79.58-6.29.31-35.75 2.17h-.47l-21 1.72c-16.33 1.47-32.86 3.26-49.37 5.47-1.51-15.68 13.11-30 32.69-31.92 3.53-.36 7.1-.28 10.61.24 4.24-10.93 16.28-19.53 31.13-21a42.97 42.97 0 0 1 12.45.53c2.93-.93 5.94-1.55 9-1.85 14.56-1.45 27.77 4.34 34.17 13.87 4.45-2.22 9.25-3.65 14.19-4.22a40.9 40.9 0 0 1 23.18-9.81c5.03-.52 10.11-.14 15 1.13 3-12.44 15.85-22.66 32.17-24.29 19.57-2 36.64 9.18 38.15 24.86.24 2.44.09 4.9-.44 7.29 13.93-1.24 26.44 4.28 32.42 13.3l-6.54 22.79" opacity=".1" class="c"/><use xlink:href="#A" class="e"/><use xlink:href="#A" opacity=".6" class="f"/><path d="M1182.134 947.917c-.61-6.164 4.025-10.044-4.01-3.99-6.762 3.31 3.754-19.862-3.29-9.84-4.391 6.636-18.41 14.171-10.82-.41 1.733-6.296-13.399 17.703-5.69 2.22 5.103-7.95 5.686-9.324-1.491-2.714-3.155 9.681-12.239 2.036-9.882-1.086-5.624 5.373-3.501-1.453-4.426 6.29-.463.194-12.786-19.943-7.75-8.32 1.005 5.853-10.638 13.503-13.12 3.84-3.645-5.694 2.996 15.929-1.09 12.26.62-3.433-10.146-22.613-7.48-12.83 1.547 7.417-2.243 24.423-2.864 7.281-3.196-7.646-6.956-13.021-4.586-1.831.13 12.847-9.529 5.774-1.6-2.84-6.093 4.038-12.234 14.979-11.364.886 3.671-14.068-8.466 7.746-5.696 12.594-5.22-3.578 1.758-24.341-2.964-17.226-4.542 5.373-8.019 23.56-7.386 7.136 3.974-12.63-.84-2.699-5.077-.038-7.631-2.212-9.504-10.204-6.705-13.209-3.564 4.63-12.699 18.006-8.676 7.991.344 3.37-8.216-6.166-4.482.876-3.104 5.964-8.116 1.364-11.284-2.731-10.171-9.443.408 2.356 1.434 8.531-.375.178-12.816-16.559-6.11-2.56 2.912 10.436-10.909-1.318-13.47-5.46-4.007-5.87 4.849 19.984-4.675 9.206-7.316-6.666 3.369 9.506-3.245 4.047-.685-1.27-15.595-12.647-10.439-6.689 4.871 5.373 6.702 13.472-.621 5.246-7.243-4.291-6.94-29.862-8.96-9.49-8.306 10.214-13.845 2.961-12.01-7.83-2.368 6.275-10.113 21.937-12.372 9.195-6.398-7.096-6.919-7.116-3.038 1.565-1.01 3.99-13.309-2.592-2.99 3.59.817 15.089-10.029-6.192-17.16-8.87 7.848 8.604 2.029 8.431.23 7.52 6.973 5.321 1.314 13.867-2.77 4.25-3.121-5.675-5.072-18.374-5.82-4.29-4.596 8.67.855-18.752-5.599-4.726-5.242 5.456 3.13 21.737-4.331 6.636-2.291-7.045-2.166 12.555-6.811.126-4.071-6.491-8.419-16.07-5.35-2.301 2.499 8.179-9.275-6.746-2.419 5.085-.057-1.547-15.025-17.428-7.26-4.42 3.779 11.188-17.65-15.01-6.55 2.053 4.042 14.266-12.254-4.611-9.437-11.458.414 9.42-16.199 15.533-11.823 2.015.114.875-6.296 1.877-6.84-5.82 6.923 12.131-7.804 22.76-13.05 8.48-.15-6.699-4.779 5.813-7.417.131 6.642 1.652 10.22 21.778 3.986 7.019-8.506-4.157-3.375-14.362-11.418-3.314-8.871 8.171-7.667-6.94.181-9.916-8.293 2.309-13.818 12.009-16.992 8.711-1.106-11.037-3.306-6.447-4.068 1.609-1.508-1.828-9.622-6.554-10.25-5.26 4.209 2.294 11.004 17.651 3.431 9.341-8.271-10.477 4.047 9.986-6.801 3.986-.377-7.275 7.949-17.878-2.78-6.928-9.139 13.577-.121-21.913-7.755-4.74-3.864 5.394-2.51 19.78-4.995 5.57-.489-8.266 3.193-18.232-3.94-5.07-2.494 7.315-5.125 15.407-4.503 2.665 3.688-10.662-.135-6.356-4.407.355-9.343-1.181-8.87-12.756-7.81-13.32-4.34 14.737-11.7 8.965-13.03 6.93 2.098 8.751-.588 14.854-5.601 3.985-3.692-4.407-15.913-15.406-6.83-3.859 7.478 14.137 2.108 30.61 2.911 45.824l358.129 2.887 62.71-.887 11-34.15zm-405.129.35c-9.73 5.001-6.77-25.953-.905-7.82.632 2.425 3.058 5.505.905 7.82zm57.35 1.29c-3.606-14.596 7.905-1.225 0 0zm14.649-.05c-6.581-3.278 1.37-20.194 1.56-4.15-.139 1.408-.217 3.258-1.56 4.15zm25.33.07c-2.689-5.589 1.439-8.967 1.92-.04l-1.92.04zm12.53 0c-1.946-9.113 2.747-11.748 1.403-.366l-1.393.346zm94.26-1.31c-6.701 6.636-.936-18.172-1.62-5.07-1.024 1.686 2.764 3.529 1.62 5.07zm9.44-1c-4.154-2.896 8.005-17.449 2.703-3.732-1.041 1.092-1.936 2.481-2.703 3.732zm6.5 2.28c-3.605-6.868 3.621-.09 0 0zm32-2.09c-3.799-10.926 1.723-4.67 3.82 2.12-1.29-.052-3.536-.463-3.82-2.12zm22.3-4.82c-5.223 8.556-.348-13.483.281-2.038l-.241 2.048zm17 4.77c-9.071 9.62-8.489-26.067-1.559-7.055 1.012 2.197 1.567 4.636 1.559 7.055zm67.24-2c-13.185 16.16 1.083-25.66.57-4.853l-.238 2.884zm11.59-.24c-5.55-11.651 6.997-9.444 0 0zm22.79-3.22c.321 8.805-8.472 8.516-1.34.41l2.21-2.44-.8 2.08z" class="e"/><path d="M1127.474 332.507s-6.55 70.61-41.11 87.29l2.08 22.25s61.94-34.98 39.03-109.54z" class="j"/><path d="M1127.474 332.507s10.9 63.54-36.07 97.64l-2.1-12.33s28.7-9.94 38.17-85.31z" class="c d"/><path d="M1212.834 508.507l-14 53.72s35.51-12.26 72.71-49.69l-9.56-36.8c-15.53 16.13-32.18 28.33-49.15 32.77z" class="j"/><path d="M1218.574 505.507l-5.21 30.44c20.67-10.14 38.53-24 53.92-39.85l-5.28-20.19c-26.87 27.6-43.43 29.6-43.43 29.6z" class="c d"/><path d="M1036.704 344.507s67.2 119.79 140.35 134l14 39.5s-135.19-34.29-154.35-173.5z" class="j"/><path d="M1036.704 344.507s31.3 114.93 139.84 154.1l.75-20.07s-64.57-7.24-140.59-134.03z" class="c d"/><path d="M1167.854 296.447l-1.62 683.41 7.74-.01 56.08-205.53-22.04-478.63z" class="j"/><path d="M1195.164 296.247l4.97 587.72 29.92-109.65-22.04-478.63z" class="c d"/><use xlink:href="#B" class="e"/><path d="M560.354 457.947s-52.84 50.45-83.81 45.45l-14.31 18s59.07 5.11 98.12-63.45z" class="j"/><path d="M560.352 457.947s-38.12 54-88.2 55.91l8.8-11.3s21.63 7.95 79.4-44.61z" class="c d"/><path d="M332.792 445.777s-5 72.88-31.21 90.09l1.59 23s47.01-36.15 29.62-113.09z" class="j"/><path d="M332.794 445.777s8.27 65.58-27.38 100.78l-1.16-14.29s21.35-8.71 28.54-86.49z" class="c d"/><path d="M504.114 423.437s-51 123.64-106.53 138.29l-10.58 40.78s102.58-35.38 117.11-179.07z" class="j"/><path d="M504.114 423.437s-23.76 118.63-106.11 159.07l6.32-25.49s42.11-2.71 99.79-133.58z" class="c d"/><path d="M263.902 458.147s51 123.64 106.52 138.29l10.63 40.77s-102.61-35.37-117.15-179.06z" class="j"/><path d="M263.902 458.147s23.77 118.63 106.1 159.05l-6.32-25.49s-42.09-2.69-99.78-133.56z" class="c d"/><path d="M376.345 398.387l-14.13 547.42 55.62-1.72-23.91-546.27z" class="j"/><path d="M384.164 398.237l4.4 546.29 29.27-.44-23.91-546.27z" class="c d"/><use xlink:href="#C" class="e"/><use xlink:href="#C" opacity=".353" class="f"/><path d="M552.396 188.067c-15.19 73.18-115.53 129.73-237.16 129.73-65.54 0-124.91-16.44-168.13-43.05 8.24 34.19 39.06 61.36 78.83 70v2.93h312.2c52.57 0 95.16-35.94 95.16-80.3 0-40.3-35.12-73.51-80.9-79.31z" class="c d"/><use xlink:href="#D" class="e"/><use xlink:href="#D" opacity=".25" class="f"/><path d="M633.065 346.847c-11 53.1-83.79 94.1-172 94.1-47.54 0-90.6-11.93-121.94-31.23 6 24.8 28.32 44.51 57.16 50.77v2.11h226.43c38.13 0 69-26.07 69-58.24.04-29.22-25.43-53.29-58.65-57.51z" class="c d"/><use xlink:href="#E" class="e"/><use xlink:href="#E" opacity=".232" class="f"/><path d="M380.585 350.007c-11 53.08-83.79 94.11-172 94.11-47.55 0-90.61-11.93-121.94-31.23 6 24.79 28.32 44.5 57.16 50.74v2.12h226.44c38.13 0 69-26 69-58.23.03-29.22-25.44-53.31-58.66-57.51z" class="c d"/><path d="M207.516 446.507s39.93 61.17 71.24 63.4l9.82 20.8s-58.65-8.6-81.06-84.2z" class="j"/><path d="M207.516 446.507s24.81 61.27 73.11 74.58l-6-13s-22.85 2.75-67.11-61.58z" class="c d"/><use xlink:href="#B" opacity=".221" class="f"/><path d="M759.905 925.757c-10.887 11.321-18.009 19.191-15.4 3.53-3.411 18.259-15.076-14.843-12.207-2.718 1.432 8.553-11.565 12.775-14.683 2.508 3.843 8.895 1.126 24.548-2.61 4.85-8.46-20.271-1.853 13.98-5.85 10.54-4.076-18.163-7.16-17.611-7.95-2.64-10.717-12.156-7.618-7.989-6.353 4.396-9.821-1.433 3.183-14.495-9.887-1.456 1.121-4.289 5.177-12.355 6.677-13.043-11.863 7.912-10.006-.64-12.237-1.637.077 18.411-13.02-4.994-17.355-2.227 16.022 16.261-4.84 4.541-5.795 5.237-6.655 7.384-14.707 20.251-5.82 2.26 8.482-1.34-5.984-5.508-4.15-2.33-12.055 23.117-13.502-15.909-16.047-3.12-6.432-4.211-1.678 18.115-13.633 4.61-1.001-18.209-8.333 22.385-12.339 7.485 12.715-18.8-15.007 9.119-2.751-10.195-10.227 8.178-8.17 9.676-9.52 6.08-8.534 9.336 3.352-21.997-6.876-.808-7.353 18.697-5.641-12.468-11.404 8.077 3.823-2.627-6.937-29.24-5.35-6.87-3.186 5.135-1.688-18.558-5.38-.93-9.642 19.08-5.814.048-5.78-.24-9.296 5.613 9.049-16.889-6.61-1.03-6.9 16.296-13.771 2.266-5.27-.34-15.025 6.877 3.423-18.844-10.564-1.292-4.186 16.884-13.732-24.634-12.331-1.135-7.691 19.452-15.34-27.65-15.457.248-14.278 22.576-2.867-.286-7.737 2.898-14.072 15.654-7.068 1.124-11.41 2.53-11.134 7.862 3.401-23.332-10.69-3.28-15.812 15.964 1.062-18.152-11.38-.72-9.12 12.263 13.205-22.095-2.041-4.664-12.216 9.633-6.449-3.206-15.579.374 8.698 15.992-15.272-20.806-5.69-.68-9.735 16.197-19.185-12.493-13.72 10.67.481 11.727-12.747-28.977-8.34-6.15-.782 23.599-3.256-2.866-8.56-5.25 3.221 18.198-7.156 14.512-1.91 4.49-11.648 19.869-8.834-5.321-10.99-3.47-5.837 10.142-5.72 22.636-7.22 4.21 4.394-24.784-11.011 26.725-8.2 1.96 5.177-17.647-6.333 12.128-13.22-6.11 6.33-20.438-9.677 14.595-8 1.31-2.211-1.772-2.528-1.639-8.86 4.04-10.195-11.14-14.547-14.265-4.71 2.18-3.313-3.567-11.972-15.624-5.82 1.2-7.401 2.847-19.753-22.207-13.74-.261-.912 7.217-11.368-8.118-5.724 4.813-5.523-1.671-21.642-18.091-8.475-.001-7.578 8.363-12.755-36.228-14.65-10.96-10.353 17.57-11.038-8.578-12.18-6.31-5.026 15.52-9.157 12.074-16.73 1.88 6.416 4.702-4.822 9.903-2.91 8.74 11.372 18.838-16.911-10.299-12.91-4.61 7.677 12.874-8.3-3.132 1.553 12.837-9.612 2.06-10.9-28.905-12.083-4.777-3.508-10.314-1.541-17.109-7.4-2.13 4.777 21.855-5.662-15.544-5.24 6.48-6.143-7.485-14.226-26.458-8.5-3.71-11.322-11.844 2.939 10.789-8.709-5.766-11.014-12.237 8.033 18.21-8.351.376-5.229-6.931 7.423 21.782-5.81 4.24-4.905-17.341-2.114-6.603-12.52-.04-5.247-10.471-2.511-9.152-9.63-14.21 7.383 20.722-13.975 11.7-14.65 5.95-8.479 4.456-3.046-1.355.06 10.577 3.219 13.068-10.182-24.312-13.81-4.817-17.07 6.408 11.441-20.97-8.638-4.912-5.59 7.099-8.634 2.95-9.822-3.708-.887 11.838-5.127 3.952-12.7 3.11 4.42 2.304 6.809 8.152 7.83 12.85-11.697-10.254-2.282-4.13-8.03 1.66-5.214-6.849 5.949-20.391-7.586-5.43-5.747 1.353 1.619-23.289-6.534-5.47-6.979 31.539 1.333-25.816-7.86-1.51-5.344 20.533-4.299.708-3.51-4-7.715 18.838-15.733-9.757-14.38-4.97-3.446 17.617-12.452 2.132-11.56 7.04 7.338 26.395-26.166-24.021-11.7.81 9.734 13.254-6.177 43.416 8.533 47.7l596.981 1.461 94.765.539c-.329-14.919-3.925-30.042-2-44.82-1.371-2.235 8.868-14.758 5.63-12zm-675.9 19.51c-10.9 4.458-5.654-28.551-.1-5.71.544 1.615 1.82 4.208.1 5.71zm57.35 1.29c-3.493-14.93 7.553 1.034 0 0zm14.65-.05c-7.419-5.513 3.202-20.116 1.275-2.053zm25.33.07c-4.545-13.308 5.297-1.609 0 0zm12.53 0c-2.35-15.378 5.693-8.085 0 0zm94.26-1.31c-6.954 2.209-1.377-17.482.13-.22zm9.44-1c-4.535-7.288 12.116-16.209 0 0zm6.5 2.28c-4.024-8.7 4.717 1.617 0 0zm32-2.09c-7.808-18.733 10.917 8.778 0 0zm22.3-4.82c-11.903 9.429 4.414-15.622 0 0zm17 4.77c-10.186 8.33-7.259-27.834-.72-4.86.42 1.58.759 3.216.72 4.86zm67.24-2c-15.557 14.762 5.827-30.936 0 0zm11.59-.24c-6.374-11.829 7.921-9.06 0 0zm22.79-3.22c-2.786 12.994-7.5 5.519 0 0zm31.48 6c-5.641 8.276 2.064-7.659 0 0zm6.69-.3c-10.857-9.525-.953-17.835 0 0zm11.59.84c-6.932 2.326 3.26-21.946.07.02zm91.8-.69c-4.815 8.078.222-18.896 0 0zm12.06 1.7c-6.421-.561 5.123-11.878 0 0zm27.47-1c-9.511.387 2.995-23.241.188-1.086l-.118 1.186zm12.78.69c-7.539 3.467 3.062-15.424 0 0zm62.57-3.83c-14.606 14.185 5.435-30.868.01 0z" class="e"/><path d="M1104.344 187.157c-86.36 0-164.58-21.66-221.53-56.73 10.87 45.06 51.48 80.85 103.87 92.2v3.88h210.56l-11.92-45.87a497.37 497.37 0 0 1-80.98 6.52z" class="c d"/><use xlink:href="#F" class="e"/><use xlink:href="#F" opacity=".5" class="f"/><path d="M1135.794 306.097c7.87 32.66 37.32 58.64 75.32 66.88v2.79h24.89l-9.14-35.26c-34.68-6.91-65.77-18.84-91.07-34.41z" class="c d"/><path d="M962.414 333.177s52.61 59.27 93.86 61.43l12.94 20.15s-77.28-8.25-106.8-81.58z" class="j"/><path d="M962.414 333.177s32.69 59.36 96.33 72.26l-6.38-10.78s-31.63.85-89.95-61.48z" class="c d"/><use xlink:href="#G" class="e"/><use xlink:href="#G" opacity=".113" class="f"/><path d="M963.354 333.207c-62.65 0-119.35-15.7-160.67-41.16 7.86 32.67 37.32 58.63 75.32 66.86v.6l298.34 2.18a102.44 102.44 0 0 0 52.39-14l-35.87-138.07-2.9-.42c-14.51 69.94-110.4 124.01-226.61 124.01z" class="c d"/><path d="M1204.004 983.017h-1178a1.51 1.51 0 0 1-1.061-.44c-.281-.28-.439-.66-.439-1.06s.158-.78.439-1.06a1.51 1.51 0 0 1 1.061-.44h1178a1.5 1.5 0 1 1 0 3z" fill="#d4d6d8"/><g class="h"><path d="M333.374 573.567l2.5 5.59c.033.055.08.101.136.132a.37.37 0 0 0 .184.048h3.39c1.19 0 2.66-.25 2.78 1.43 0 .47.77.47.74 0-.23-3-3.94-2.17-6-2.17h-.73c-.4 0 .2.35.06 0l-.84-1.88-1.6-3.57c-.19-.43-.82-.05-.63.37z"/><path d="M336.196 578.597c-1.92 0-5.05-.6-5.18 2.17 0 .47.71.47.73 0 .05-1 .74-1.43 1.67-1.43h2.78a.37.37 0 1 0 0-.74z"/></g><use xlink:href="#H" fill="#dadddf"/><use xlink:href="#H" opacity=".1" class="c"/><path d="M318.633 569.387c.832.589 1.793.968 2.803 1.106s2.038.029 2.997-.316c0 0-1.75 1.94 1.36 2.32s9.49-2.13 9.49-2.13-1.51 2.31.8 2.17 7.08-2.78 11-6.82 9.51-10.51 6-18.12c-2.81-6.11-11.73-10.08-24.46 4.17z" fill="#dadddf"/><use xlink:href="#I" class="e"/><use xlink:href="#I" class="o"/><path d="M350.073 550.437a1.81 1.81 0 0 1-3.09 1.28 1.81 1.81 0 0 1 .275-2.785c.297-.199.647-.305 1.005-.305a1.82 1.82 0 0 1 1.277.533c.339.339.531.798.533 1.277z" class="c"/><path d="M355.154 549.087s3.76 1.86 3.85 2.62-3.64 3.24-3.64 3.24-1.68-3.57-.21-5.86z" class="k"/><g class="h"><path d="M331.655 574.147l2.5 5.58c.031.057.078.103.134.135s.121.048.186.045h3.39c1.19 0 2.66-.25 2.79 1.43 0 .47.77.48.73 0-.23-3-3.94-2.16-6-2.16h-.73c-.4 0 .2.34.06.05l-.84-1.88-1.6-3.57c-.19-.43-.82-.06-.63.37z"/><path d="M334.473 579.177c-1.92 0-5-.61-5.18 2.16 0 .48.71.47.74 0 .05-1.05.74-1.43 1.66-1.43h2.78a.37.37 0 0 0 .222-.126c.056-.067.087-.152.087-.239a.37.37 0 0 0-.309-.365z"/></g><path d="M307.324 567.857s15.68-13.28 19.68-15.35 10.48-1.56 12.13 4.09c1.81 6.22-4.39 17.3-21.87 11.31l-5.26 8.2z" class="o"/><g class="f"><path d="M318.176 563.777s.89 1.51 5.48-2.14c0 0-1.95 2.57-.37 3s5.85-2.63 5.85-2.63-2.18 2.16-.35 2.78 4.83-2 5.51-3.6 2.18-5.25-.79-6.9-8.1.29-11.64 3.13-4.55 4.67-3.69 6.36z" class="d"/><path d="M348.755 550.677a.38.38 0 0 0 0-.76.38.38 0 0 0 0 .76z"/></g><path d="M940.343 726.672c7.03-1.483 23.426-1.701 30.745-1.512 9.463-.211 18.533 7.031 19.531 16.627 2.264 6.602-8.373 32.249-9.73 38.83l-25.226-8.915 4.457-13.85-39.09 1.462-8.908 15.833-19.292-10.363c6.166-12.015 10.546-33.592 26.315-36.193z" class="k"/><path d="M929.96 705.828l.042 21.83s12.317 12.374 27.166-2.461l-6.419-32.657z" class="i"/><use xlink:href="#J" class="o"/><use xlink:href="#J" opacity=".3" class="c"/><path d="M921.143 695.562s-13.625 2.109-13.358 23.904c0 0 17.759-.155 20.564-15.242zm-8.971-31.243s-4.457 10.391 2.96 18.279l1.983-20.283z" class="h"/><path d="M947.01 708.302a.51.51 0 0 0-.15-.127.49.49 0 0 0-.187-.058.5.5 0 0 0-.195.02.49.49 0 0 0-.172.094 16.04 16.04 0 0 1-5.624 3.136l-10.546.436-.197 4.043s6.988 1.497 10.729-3.459h.056c.12 0 2.883-.612 6.243-3.382a.5.5 0 0 0 .166-.343.49.49 0 0 0-.124-.36z" class="c g"/><path d="M935.725 712.19l1.406-.098c9.843-.9 17.021-9.955 16.065-20.227l-2.461-31.131c-.302-3.445-3.227-1.012-6.524-.703l-23.362 2.025c-4.218.401-6.398-.64-5.962 3.825l1.273 29.275c1.04 10.229 9.772 17.914 19.566 17.035z" class="i"/><path d="M949.266 691.548l3.803-.858.155 3.332z" class="c g"/><path d="M934.115 688.933a2.03 2.03 0 0 1-2.078-.933c-.214-.346-.318-.747-.302-1.152a2.03 2.03 0 0 1 .395-1.123c.241-.326.574-.573.958-.709a2.03 2.03 0 0 1 2.204.575c.268.305.439.683.489 1.086a1.99 1.99 0 0 1-1.666 2.257z" class="h"/><path d="M933.046 687.027c-.108.01-.216-.023-.299-.091s-.139-.167-.15-.275a.37.37 0 0 1 .048-.225.4.4 0 0 1 .39-.206c.078.008.153.039.213.088a.41.41 0 0 1 .13.191c.024.075.025.155 0 .231a.42.42 0 0 1-.125.194c-.06.051-.133.084-.21.093z" class="f"/><path d="M919.667 689.952a2.03 2.03 0 0 1-2.077-.933c-.214-.345-.319-.746-.302-1.152a2.03 2.03 0 0 1 1.353-1.832 2.03 2.03 0 0 1 2.693 1.66c.039.258.027.52-.036.773s-.174.491-.329.7-.35.387-.572.521a1.97 1.97 0 0 1-.728.262z" class="h"/><path d="M918.605 687.956c-.083.015-.169.004-.246-.03s-.142-.091-.187-.163a.43.43 0 0 1-.063-.24.47.47 0 0 1 .083-.233c.05-.068.12-.12.2-.147s.166-.031.247-.009a.42.42 0 0 1 .21.131c.055.064.09.143.1.227a.41.41 0 0 1-.078.302c-.065.087-.16.145-.266.162zm7.818 11.671a.38.38 0 0 0-.156.072.36.36 0 0 0-.106.135.39.39 0 0 0-.035.168.36.36 0 0 0 .044.166c.545.913 1.346 1.644 2.304 2.106s2.03.632 3.083.491a5.43 5.43 0 0 0 4.511-3.926c.042-.26-.063-.499-.387-.464z" class="f"/><path d="M913.648 669.269s12.367 8.437 31.419 6.693l2.714 12.121 4.921 1.983.499 4.457 8.901.499s5.442-1.322 5.449-3.958v-13.358l-34.126-20.304-19.791 3.951z" class="h"/><path d="M947.952 692.687s8.535-.703 8.943-9.667-10.208-9.006-10.258.07l.38 9.843z" class="i"/><g class="c"><path d="M953.555 678.816a2.88 2.88 0 0 0-2.647-.286c-.432.169-.816.44-1.12.79a2.87 2.87 0 0 0-.627 1.218 6.77 6.77 0 0 0-.38 3.579l.141.921c.077.703 1.258.703 1.132-.112l-.077-1.026a6.6 6.6 0 0 1 .281-2.946 2.45 2.45 0 0 1 1.153-1.406 2.33 2.33 0 0 1 .925-.061 2.34 2.34 0 0 1 .875.307.6.6 0 0 0 .759-.281c.011-.144-.023-.289-.097-.413a.71.71 0 0 0-.318-.283z" class="g"/><path d="M927.428 696.252l2.58-.084a.7.7 0 0 0 .384-.202.71.71 0 0 0 .193-.389.7.7 0 0 0-.569-.605l-2.587.084c-.159.001-.316-.03-.463-.089a1.2 1.2 0 0 1-.659-.651 1.21 1.21 0 0 1-.094-.462 1.33 1.33 0 0 1 1.125-1.343c.145-.027.278-.098.38-.204a.7.7 0 0 0 .19-.387.7.7 0 0 0-.569-.605 2.38 2.38 0 0 0-1.602.811c-.408.47-.615 1.079-.578 1.699-.043.315-.015.636.082.939a2.15 2.15 0 0 0 .477.813c.217.232.484.413.78.529a2.14 2.14 0 0 0 .932.144z" opacity=".023"/></g><path d="M1008.589 795.475l-19.271-58.888-28.495 24.438 22.034 49.284z" class="k"/><path d="M989.811 738.07s.991 4.45-.499 11.875l1.976 6.433 12.866 41.649 4.436-2.559z" class="c d"/><g fill="#73b8bd"><path d="M965.97 956.311c25.036-3.326 98.962-23.271 98.962-23.271l-3.452-25.732c-43.048 2.953-95.489 10.693-95.489 10.693l50.992-51.681a35.01 35.01 0 0 0 8.842-17.986 35 35 0 0 0-2.473-19.888l-14.764-32.973a29.25 29.25 0 0 1-14.202-2.976 29.26 29.26 0 0 1-11.024-9.433c-19.285-25.732-18.42-57.995-18.42-57.995l-5.308.098-.998 26.716-27.707 2.96-2.96-27.068-4.921.344-2.995 42.577c-.506 21.795 20.768 25.739 20.768 25.739l17.787 47.997-41.937 69.715a59.09 59.09 0 0 0-4.303 8.915c-7.087 18.673.26 27.173 6.637 32.003 3.403 2.573 12.535 3.93 16.796 3.705-.014 0 15.327-.485 30.168-2.461z"/><path d="M951.544 823.216l-85.069-30.014c-2.864-.692-5.851-.691-8.716.001a18.54 18.54 0 0 0-7.753 3.981 18.56 18.56 0 0 0-5.078 7.083 18.55 18.55 0 0 0-1.282 8.62l-.359 103.757 26.716.998 5.969-70.74 63.767 30.407 34.189-34.351zm15.046-150.46s7.874-22.238-10.841-29.676-30.934-2.292-38.886 10.3z"/></g><path d="M962.94 844.139l-3.586-2.292-14.764 19.341a4.56 4.56 0 0 1-2.331 1.606c-.928.274-1.919.246-2.83-.081l-67.887-24.255 4.45 8.437 63.809 30.231 7.98-12.507-.844-.288z" class="c d"/><use xlink:href="#K" fill="#73b8bd"/><use xlink:href="#K" opacity=".3" class="f"/><path d="M871.599 908.208l-28.825-.598a1.74 1.74 0 0 0-.728.134 1.81 1.81 0 0 0-.614.415 1.8 1.8 0 0 0-.396.625c-.087.234-.125.483-.112.732l1.336 26.422s-31.905-.703-30.231 24.368l58.81-.773 2.552-49.411c.013-.244-.025-.489-.109-.719a1.81 1.81 0 0 0-.974-1.038 1.82 1.82 0 0 0-.71-.155z" class="k"/><path d="M871.037 955.137l-.211 4.359-58.782.731-.035-4.352z" class="h"/><path d="M865.79 918.771c.013-2.182-4.405-3.978-9.868-4.01s-9.903 1.711-9.915 3.893 4.405 3.977 9.868 4.01 9.903-1.711 9.915-3.892z" class="l"/><path d="M955.023 688.932s19.475 5.624 10.7 30.998c0 0-22.406-7.108-14.293-28.017z" class="h"/><path d="M951.242 692.048a29.59 29.59 0 0 0 8.985-.584l2.151 2.067s-7.67 1.976-11.762.492z" class="e"/><path d="M865.012 887.208l-.569 20.74 7.361.274 1.434-30.927z" class="c d"/><path d="M871.244 880.375h33.511v80.985h-33.511z" fill="#88898c"/><path d="M897.755 880.375h7v80.985h-7z" opacity=".258" fill="#222329"/><path d="M933.159 679.012a6.43 6.43 0 0 0-2.61 1.05c-.782.539-1.434 1.244-1.911 2.064-1.289-.38-2.672-.283-3.895.274-.63-.994-1.531-1.787-2.598-2.286s-2.253-.681-3.42-.527a6.54 6.54 0 0 0-5.399 7.396c.09.84.345 1.655.75 2.396s.952 1.397 1.611 1.927 1.414.925 2.225 1.163a6.42 6.42 0 0 0 2.501.223 6.54 6.54 0 0 0 4.206-2.601c1.008-1.384 1.434-3.107 1.186-4.802a7.71 7.71 0 0 0-.633-2.109c.989-.399 2.077-.48 3.115-.232a6.88 6.88 0 0 0-.464 3.515c.182 1.696 1.031 3.25 2.358 4.32s3.026 1.57 4.722 1.389c1.688-.296 3.197-1.232 4.211-2.615a6.64 6.64 0 0 0-1.208-9.118c-1.339-1.071-3.039-1.583-4.746-1.429zm-12.725 12.782c-.726.081-1.461.018-2.163-.186s-1.355-.544-1.925-1.001-1.043-1.023-1.394-1.663a5.55 5.55 0 0 1-.649-2.071c-.223-1.467.143-2.961 1.017-4.16s2.187-2.002 3.651-2.238c.726-.081 1.461-.018 2.162.186a5.53 5.53 0 0 1 1.926 1.001c.569.457 1.043 1.022 1.394 1.663s.571 1.344.649 2.07c.366 3.143-1.758 6.06-4.668 6.419zm14.37-.492a5.55 5.55 0 0 1-2.163-.186c-.701-.204-1.356-.544-1.925-1.001s-1.043-1.023-1.394-1.663a5.55 5.55 0 0 1-.649-2.071c-.223-1.467.144-2.963 1.019-4.162a5.63 5.63 0 0 1 3.656-2.236c.726-.08 1.46-.016 2.16.188a5.54 5.54 0 0 1 1.924 1.002c.569.457 1.042 1.022 1.392 1.662a5.55 5.55 0 0 1 .648 2.069 5.62 5.62 0 0 1-4.654 6.419z" class="f"/><path d="M919.59 670.261s5.435 7.424 20.283 7.431" stroke="#21252b" stroke-width="1.06" class="m n"/><use xlink:href="#L" opacity=".5" class="f"/><path d="M942.825 794.313l33.128-8.148a.5.5 0 0 1 .598.366l4.218 17.471a.49.49 0 0 1-.018.307.48.48 0 0 1-.2.234l-15.362 9.498a.51.51 0 0 1-.351.063l-16.395-2.918c-.086-.015-.166-.054-.233-.111s-.117-.13-.147-.212l-5.624-15.903c-.023-.067-.032-.14-.025-.212s.031-.14.068-.202a.47.47 0 0 1 .146-.155.49.49 0 0 1 .198-.079z" opacity=".3" class="c"/><path d="M910.914 863.016c8.88-14.434 37.543-47.597 37.543-47.597l14.574-51.752 18.188 7.67-15.467 50.437a15.94 15.94 0 0 1-3.923 6.559l-40.313 40.651-1.097 2.454-7.916 20.1c-.277.732-.655 1.42-1.125 2.046l-2.889 3.424a16.7 16.7 0 0 1-1.09 1.406l-.921 1.083a1.08 1.08 0 0 1-.434.322 1.09 1.09 0 0 1-.536.072 1.03 1.03 0 0 1-.433-.167 1.05 1.05 0 0 1-.318-.338c-.08-.136-.127-.286-.139-.442a1.04 1.04 0 0 1 .068-.459l.26-.703a14.87 14.87 0 0 1-2.763 3.642h0l-.106.042a1.05 1.05 0 0 1-1.055-.183h0a1.03 1.03 0 0 1-.197-1.357l.555-.837-1.315 1.554a1.19 1.19 0 0 1-.594.396c-.234.068-.483.063-.714-.016a1.14 1.14 0 0 1-.771-1.023 1.15 1.15 0 0 1 .068-.446l.253-.38-1.062 1.118c-.359.374-.831.621-1.343.703h0c-.167.028-.339.01-.496-.052s-.295-.166-.399-.3a.93.93 0 0 1-.187-.463.96.96 0 0 1 .077-.493l5.055-11.143.569-12.472-4.964 4.844c-3.101 2.285-4.092 3.361-5.512 3.431a1.41 1.41 0 0 1-.785-.203c-.236-.143-.424-.352-.542-.602a1.41 1.41 0 0 1 .222-1.536l8.662-11.586a13.29 13.29 0 0 1 4.359-3.164z" class="i"/><path d="M898.343 899.238l4.865-8.521 1.547-10.342m-3.852 19.157l5.723-8.423 2.355-9.245m-3.994 15.974l4.148-6.011 2.636-7.909" stroke="#000" stroke-width=".61" class="g m n"/><path d="M921.558 868.986l40.313-40.651c1.82-1.836 3.167-4.088 3.923-6.559l14.019-45.741-5.041-1.61-12.205 43.006a19.42 19.42 0 0 1-4.675 8.155l-37.965 39.568a8.92 8.92 0 0 0-1.954 3.171l-7.727 21.605s-1.694 4.218-4.282 2.109c0 0-3.691 5.744-5.132 2.812 0 0-2.861 4.338-3.874.429l-2.025 4.492a.94.94 0 0 0-.079.484.93.93 0 0 0 .177.458c.099.134.232.24.385.305a.94.94 0 0 0 .486.067 2.41 2.41 0 0 0 1.406-.703l1.062-1.118-.253.38a1.15 1.15 0 0 0-.068.446 1.19 1.19 0 0 0 .11.437 1.13 1.13 0 0 0 .271.361 1.14 1.14 0 0 0 .389.226 1.19 1.19 0 0 0 1.308-.38l1.315-1.554-.555.837a1.03 1.03 0 0 0 .197 1.357h0c.143.121.317.202.503.234a1.07 1.07 0 0 0 .552-.051l.105-.042a14.88 14.88 0 0 0 2.763-3.642l-.26.703a1.04 1.04 0 0 0-.067.459 1.06 1.06 0 0 0 .139.442 1.04 1.04 0 0 0 .318.338 1.05 1.05 0 0 0 .433.167 1.05 1.05 0 0 0 .536-.072 1.09 1.09 0 0 0 .434-.322l.921-1.083a16.68 16.68 0 0 0 1.09-1.406l2.89-3.424a8.31 8.31 0 0 0 1.125-2.046l7.916-20.1z" class="c g"/><path d="M967.052 743.504l-7.431 25.725 20.775 6.44 8.915-29.675z" class="k"/><path d="M1052.312 907.906c-40.974 2.489-86.321 10.096-86.321 10.096l50.992-51.681a35.01 35.01 0 0 0 6.37-37.874l-14.764-32.972c-1.789.051-3.578-.047-5.35-.296h0l14.061 32.509s8.437 19.299-3.48 33.149l-54.494 57.285a3.51 3.51 0 0 0-.736 3.917 3.52 3.52 0 0 0 3.393 2.087l90.694-11.508z" class="c d"/><path d="M1047.658 907.583l2.861 28.663a1.83 1.83 0 0 0 .222.703c.122.218.286.408.484.555.197.155.424.26.666.323a1.87 1.87 0 0 0 .737.028l26.069-4.507s3.121 29.282 27.827 24.607l-7.839-55.794-49.354 3.403a1.82 1.82 0 0 0-.701.196c-.218.112-.411.267-.567.456s-.273.407-.342.642a1.79 1.79 0 0 0-.062.724z" class="k"/><path d="M1094.341 902.499l4.352-.309 7.783 55.802-4.317.555z" class="h"/><path d="M1061.072 931.803c2.165-.246 3.417-4.851 2.791-10.279-.619-5.428-2.882-9.625-5.048-9.377-2.172.249-3.424 4.85-2.798 10.278.619 5.426 2.882 9.623 5.055 9.377z" class="l"/><path d="M921.424 749.451l-12.887 23.306 3.586 2.39 8.908-16.325zm61.553-20.458s9.02 8.676-6.433 45.481l4.345 1.195s11.664-28.34 8.809-37.916c0 0-.696-4.478-6.721-8.76z" class="c d"/><path d="M866.066 895.736l.267 1.062a1.39 1.39 0 0 0 .184.553 1.4 1.4 0 0 0 .927.666 1.45 1.45 0 0 0 .583 0h0c.283-.079.531-.256.697-.498a1.26 1.26 0 0 0 .216-.83l-.112-1.202c.158.347.399.65.702.882s.658.385 1.035.446c.366-.042.707-.211.963-.476a1.6 1.6 0 0 0 .443-.979l1.406-8.282 4.528-10.026 2.869 5.786c1.406 3.593 1.406 4.162 2.58 4.985a1.4 1.4 0 0 0 .778.252 1.39 1.39 0 0 0 .786-.223 1.41 1.41 0 0 0 .529-.623 1.42 1.42 0 0 0 .094-.812l-3.185-12.845-3.916-10.356c3.255-10.068 10.166-33.908 13.745-53.545a6.98 6.98 0 0 1 .668-1.856l18.701-33.184-18.216-9.386-17.38 37.1a6.09 6.09 0 0 0-.506 1.68l-9.344 60.167-5.16 17.211c-.155.766-.205 1.549-.148 2.327l.373 5.856a16.9 16.9 0 0 0 .155 1.793l.19 1.406a1.04 1.04 0 0 0 .471.766.96.96 0 0 0 .464.141 1.26 1.26 0 0 0 1.266-1.019h0l-.105 2.454a1.24 1.24 0 0 0 .131.622c.097.192.243.356.424.475h0c.25.167.551.238.848.202s.573-.177.776-.399z" class="i"/><path d="M868.78 895.103l1.027-9.744 3.431-8.064m-7.186 17.682l.752-10.265 2.974-7.909m-5.948 15.334l.148-8.43 2.222-6.728" stroke="#000" stroke-width=".61" class="g m n"/><path d="M889.822 805.809l-13.871 54.592a9.03 9.03 0 0 0 1.076 6.996c3.023 4.921 7.867 13.92 8.057 20.389a1.36 1.36 0 0 0 .435-.598c.087-.236.107-.491.057-.738l-3.185-12.844-2.721-7.812c-1.23-2.58-1.23-2.58-.38-5.273 3.55-11.172 9.604-32.797 12.894-50.851.134-.648.359-1.273.668-1.856l18.701-33.185-3.628-1.596z" class="c g"/><use xlink:href="#L" x="-38.099" y="4.935" opacity=".5" class="f"/><path d="M97.104 911.787c-4.16-4.95-8.89-9.89-12.51-15.26-.8-1.19-4.95-8.82-1.52-7.88s6.45 6.68 7.9 9.48 3 5.59 4.33 8.45c.679 1.23 1.245 2.51 1.69 3.84 0 .17.4 1.71.11 1.37z" class="e"/><path d="M117.354 952.627c.55-8.79.73-17.6.47-26.41-.267-8.87-.984-17.73-2.15-26.53-1.08-8.374-2.581-16.688-4.5-24.91a136.61 136.61 0 0 0-7-21.8 89.07 89.07 0 0 0-11.31-19.71l-1.71-2.14c-.37-.45-1 .2-.63.64 4.767 5.845 8.741 12.294 11.82 19.18a126.83 126.83 0 0 1 7.32 21.59 237.29 237.29 0 0 1 4.69 24.34c1.259 8.73 2.07 17.52 2.43 26.34.36 8.71.29 17.44-.17 26.14l-.19 3.27c0 .57.86.57.9 0z" class="k"/><use xlink:href="#M" class="e"/><g class="c"><use xlink:href="#M" class="d"/><path d="M100.353 844.687c-2.429-.712-4.585-2.145-6.181-4.109a12.49 12.49 0 0 1-2.759-6.891c-1.24 1.48-1.3 4 1.22 8.43 3.16 5.55 5.84 6.09 8 4.84a3.75 3.75 0 0 0 1.8-2c-.702.006-1.402-.085-2.08-.27z" class="g"/></g><path d="M117.565 951.707c-.406-2.92-.503-5.87-.29-8.81.22-3.88.671-7.75 1.35-11.58a144.01 144.01 0 0 1 7.47-27.14 181.23 181.23 0 0 1 8.36-18.32c3.048-5.856 6.43-11.532 10.13-17 5.07-7.5 10.63-14.64 16.39-21.6l2.58-3.07c.37-.44-.27-1.08-.64-.64-6.12 7.25-12 14.69-17.48 22.48a176.98 176.98 0 0 0-10.77 17.56c-3 5.59-5.73 11.34-8.15 17.19-3.664 8.9-6.425 18.15-8.24 27.6-.789 4.01-1.36 8.06-1.71 12.13a54.61 54.61 0 0 0-.08 9.56 29.25 29.25 0 0 0 .24 1.88c.1.62 1 .33.87-.24z" class="k"/><use xlink:href="#N" class="e"/><g class="c"><use xlink:href="#N" class="d"/><path d="M152.317 857.087c2.466-.592 4.693-1.92 6.386-3.808s2.772-4.246 3.094-6.762c1.16 1.55 1.09 4.08-1.65 8.36-3.44 5.39-6.14 5.79-8.27 4.43-.808-.47-1.413-1.221-1.7-2.11a7.72 7.72 0 0 0 2.14-.11z" class="g"/></g><use xlink:href="#O" class="e"/><use xlink:href="#O" class="c d"/><use xlink:href="#P" class="e"/><use xlink:href="#P" class="c d"/><g class="e"><path d="M115.937 953.267h.84c0-.56-.11-1.14-.13-1.59-.107-2.48-.364-4.94-.77-7.39-.86-5.34-2.458-10.53-4.75-15.42-4.27-9-10.57-17.17-19.44-21.9-.84-.45-10.7-4.81-11-3.48-.17.64 3.24 2.5 3.78 2.89 1.75 1.27 3.48 2.59 5.16 4 7.39 6 14.49 12.62 19.15 21 3.632 6.83 6.055 14.23 7.16 21.89z"/><use xlink:href="#Q"/></g><use xlink:href="#Q" class="d f"/><use xlink:href="#R" class="e"/><use xlink:href="#R" class="c d"/><g class="e"><path d="M115.264 864.667l.76 9.27c1.06 13.85 1.66 27.76 1.46 41.65l-.16 37.69h1.09v-5.61l.58-11.62 1.88-23.24c.91-13.46 1.74-27-1.18-40.25-.628-2.957-1.436-5.872-2.42-8.73-.48-1.37-1-2.72-1.6-4.06-.14-.33-.58-1.91-1-1.38-.28.32.1 1.76.13 2.16l.46 4.12z"/><path d="M119.335 953.267c.46-4 1-9.25 1.37-11.08 1.05-5.32 2.26-10.61 3.68-15.84 2.28-8.38 5.79-16.52 9.36-24.43l2.84-6.16c.26-.53 2-3.4 1-3.35-.5 0-1.73 1.47-2.13 1.83a32.64 32.64 0 0 0-2.33 2.39 40.16 40.16 0 0 0-3.91 5.12c-4.92 7.66-6.86 16.5-8.52 25.33-1.447 8.67-2.405 17.41-2.87 26.19z"/><use xlink:href="#S"/></g><use xlink:href="#S" class="d f"/><use xlink:href="#T" class="e"/><use xlink:href="#T" class="c d"/><g transform="matrix(.841879 0 0 .841879 652.73628 23.20592)"><path d="M-130.374 705.359h7v-87.53h-6.32c-5.55 0-10.05 4.85-10.05 10.84l-.71 65.82c.03 6.01 4.55 10.87 10.08 10.87z" class="k"/><path d="M-125.396 707.489h7v-89.66h-7.71c-5.55 0-8.63 3.83-8.63 10l-.71 68.57c0 6.12 4.54 11.09 10.05 11.09z" class="h"/><path d="M-115.905 552.409h70.7c8.72 0 15.79 6.35 15.79 14.18v128.86c0 7.83-7.07 14.17-15.79 14.17h-73c-8.72 0-15.78-6.34-15.78-14.17l2.29-128.86c-.03-7.83 7.04-14.18 15.79-14.18z" class="k"/><g class="h"><path d="M-100.279 557.319l59.75-2.06c3.572.071 6.97 1.557 9.447 4.131a13.48 13.48 0 0 1 3.763 9.599v124.05a13.48 13.48 0 0 1-.91 5.191c-.642 1.654-1.604 3.165-2.832 4.446s-2.695 2.308-4.32 3.02a13.47 13.47 0 0 1-5.148 1.133l-61.08 2.84a13.48 13.48 0 0 1-9.446-4.132c-2.477-2.574-3.831-6.026-3.764-9.598l1.33-124.83c-.041-1.774.269-3.538.911-5.192a13.48 13.48 0 0 1 2.831-4.446c1.228-1.281 2.696-2.307 4.32-3.02s3.375-1.097 5.148-1.132z"/><path d="M-59.69 562.729a2.13 2.13 0 0 1-1.211-.369 2.14 2.14 0 0 1-.789-.991l-2.54-6.54a6.47 6.47 0 0 0-2.394-2.575c-1.019-.621-2.191-.948-3.385-.945H-84.18a6.54 6.54 0 0 0-6.11 4.25l-1.48 5.55a2.13 2.13 0 0 1-.367.746 2.11 2.11 0 0 1-.625.549 2.1 2.1 0 0 1-.787.268 2.13 2.13 0 0 1-.83-.053c-.271-.072-.525-.197-.747-.368a2.12 2.12 0 0 1-.549-.625 2.13 2.13 0 0 1-.268-.787 2.11 2.11 0 0 1 .054-.83l1.56-5.81c.748-2.093 2.125-3.903 3.942-5.183a10.78 10.78 0 0 1 6.207-1.967h14.171c2.007-.003 3.975.558 5.679 1.619s3.077 2.578 3.96 4.381l.08.18 2.591 6.6a2.15 2.15 0 0 1-.228 1.989c-.197.288-.462.523-.771.686s-.653.246-1.001.245z"/></g><path d="M-17.545 564.879l32.38 9.841a17.16 17.16 0 0 1 7.96 5.392c2.086 2.519 3.408 5.582 3.811 8.827l9.12 63.171h-18.44v70.289H-87.605v-70.72h-35.24l2.071-61.72c.044-3.762 1.319-7.406 3.631-10.375s5.532-5.099 9.168-6.065l39.891-9.21z" class="e"/><g class="d f"><path d="M15.632 688.539h-103v1.3h103.04zm.35 10.67h-103.35v1.3h103.39zm.34 10.66h-103.69v1.31h103.73zm-7.98-138.67h-90.29l-.17 1.3h90.76zm1.608 10.67h-93.32l-.17 1.3h93.79zm3.181 10.66h-97.85l-.18 1.31h98.34zm.824 10.67h-100.12l-.18 1.31h100.61zm1.697 10.67h-103.02v1.3h103.06zm.66 10.67h-103.68v1.3h103.72zm.36 10.66h-104.04v1.31h104.08zm.3 10.67h-104.34v1.31h104.38zm.36 10.67h-104.7v1.3h104.74zm.35 10.66h-105.05v1.31h105.1zm-2.4 10.67h-102.65v1.31h102.7z" opacity=".779"/><path d="M16.672 720.539h-104.04v1.31h104.08z" class="d"/></g><g class="c"><path d="M-32.846 474.189a17.46 17.46 0 0 1 9.98-.936c3.347.67 6.424 2.306 8.85 4.706 8.6 8.42 2.53 14 10.11 18.2s2 15.72 10.9 21 3 18.2-6.09 20.05c0 0-4.37 12-14 10.87 0 0-8.87 10.27-26.17 3.74l-6.36-2.69zm-39.209 3.54s-11.62 1.55-13.87 12.19-1.43 8.12-7.82 13.53 1.69 11.54-3.37 17c-2.59 2.76-3.84 5-4.05 7.63a9.79 9.79 0 0 0 1.73 6.26c1.247 1.803 3.093 3.107 5.21 3.68 3 .86 5.34 3.72 7.09 7.63 3.47 7.73 15.87 4.37 15.87 4.37s11.71 7 18.88 1.81-3.63-77.15-3.63-77.15z"/><path d="M-21.86 473.939s-4.86-11.11-22.31-11.11-22.87 17.11-22.87 17.11l25.4 13.84z"/></g><use xlink:href="#U" class="e"/><path d="M-16.97 526.699c-.276-.001-.551.03-.82.09.916.195 1.737.699 2.326 1.427a4.09 4.09 0 0 1-2.326 6.573c.27.056.545.083.82.08.555.027 1.11-.058 1.63-.252a4.11 4.11 0 0 0 1.399-.873 4.09 4.09 0 0 0 .942-1.355c.219-.51.332-1.06.332-1.615a4.1 4.1 0 0 0-1.274-2.97c-.402-.383-.878-.68-1.399-.874a4.08 4.08 0 0 0-1.63-.251z" class="c d"/><g class="i"><path d="M-70.04 564.829s9.17-1.48 8.06-6.82l1-35.58 31.53-6.37 4.64 42.3c.16 1.28.692 2.483 1.532 3.461s1.948 1.688 3.188 2.039l4.64 1.48-3.65 36.49z"/><path d="M-17.819 526.879l-1.09-28.56c-.082-2.484-1.112-4.843-2.88-6.59a8.65 8.65 0 0 0-2.96-1.922c-1.108-.43-2.293-.627-3.48-.578l-27.13 1.28c-.911.039-1.803.267-2.62.67-.832.409-1.573.98-2.18 1.68-.619.716-1.094 1.544-1.4 2.44a7.68 7.68 0 0 0-.42 2.82l1.18 30.71a23.22 23.22 0 0 0 1.91 8.31 21.82 21.82 0 0 0 4.76 6.9c1.98 1.926 4.326 3.436 6.9 4.44a19.77 19.77 0 0 0 8 1.3l1.58-.1a20.35 20.35 0 0 0 7.903-2.078c2.467-1.22 4.66-2.929 6.447-5.022 3.752-4.362 5.72-9.98 5.51-15.73z"/></g><path d="M-39.474 522.189c.471.002.933-.137 1.326-.397s.699-.633.88-1.068a2.37 2.37 0 0 0-3.112-3.112 2.38 2.38 0 0 0-1.068.881c-.26.393-.398.854-.396 1.326 0 .628.249 1.231.694 1.675s1.047.695 1.676.695z" class="c"/><path d="M-38.485 520.739a.49.49 0 0 0 .269-.088.48.48 0 0 0 .176-.222c.036-.089.044-.188.024-.282s-.067-.181-.136-.248-.156-.113-.251-.132-.193-.007-.282.03-.165.1-.218.18a.49.49 0 0 0-.044.461.48.48 0 0 0 .109.161c.046.045.102.081.162.105a.5.5 0 0 0 .191.035z" class="f"/><path d="M-20.998 522.189c.472.002.933-.137 1.326-.397a2.38 2.38 0 0 0 .881-1.068c.181-.435.229-.915.138-1.377s-.319-.888-.652-1.221a2.37 2.37 0 0 0-2.598-.514c-.436.181-.807.488-1.068.881s-.399.854-.397 1.326a2.37 2.37 0 0 0 2.37 2.37z" class="c"/><path d="M-20.006 520.649c.131-.002.255-.056.347-.15a.5.5 0 0 0-.711-.703.5.5 0 0 0-.146.353c0 .067.013.133.039.194a.49.49 0 0 0 .111.163.5.5 0 0 0 .165.108.48.48 0 0 0 .195.035z" class="f"/><g class="c"><path d="M-61.376 537.259l3.55-7.12h-3.36z" class="g"/><path d="M-26.299 526.829a2.86 2.86 0 0 0-3.06-2.57c-.172.039-.323.143-.42.29s-.142.317-.12.49a.78.78 0 0 0 .25.45.71.71 0 0 0 .48.15 1.67 1.67 0 0 1 1 .4 1.59 1.59 0 0 1 .53 1 1.43 1.43 0 0 1-.049.556c-.054.181-.142.348-.261.494a1.43 1.43 0 0 1-.446.368c-.172.091-.36.146-.554.162l-3.16.3c-.17.039-.319.139-.42.28s-.14.325-.11.5a.69.69 0 0 0 .24.44.72.72 0 0 0 .49.16l3.16-.3a2.59 2.59 0 0 0 1.09-.28 2.5 2.5 0 0 0 .85-.73 2.43 2.43 0 0 0 .46-1c.089-.371.089-.759 0-1.13z" opacity=".023"/></g><path d="M-57.904 530.039l-2.37-11.27c-2.67-10.27-15.32-7.31-12.25 2.87s13.44 8.4 13.44 8.4z" class="i"/><path d="M-70.08 516.829a.74.74 0 0 0 .47.23c.183.02.367-.026.52-.13.248-.295.569-.522.93-.66s.747-.188 1.13-.14a2.33 2.33 0 0 1 1.06.42c.312.224.563.524.73.87.649.977 1.057 2.095 1.19 3.26l.2 1.19c.09 1 1.48.59 1.38-.2l-.1-1.09c-.109-1.445-.622-2.831-1.48-4a3.79 3.79 0 0 0-1.14-1.18 3.84 3.84 0 0 0-1.53-.6c-.56-.037-1.121.038-1.65.22-.526.189-1.006.485-1.41.87a.88.88 0 0 0-.3.39.85.85 0 0 0 0 .5z" class="c g"/><path d="M-21.067 509.829c-1.301.126-2.559.531-3.688 1.189s-2.102 1.552-2.853 2.621a8.08 8.08 0 0 0-5.44.09 8.74 8.74 0 0 0-3.49-3.25 8.61 8.61 0 0 0-4.68-.92 8.78 8.78 0 0 0-5.73 2.713c-1.506 1.586-2.365 3.677-2.41 5.864a8.78 8.78 0 0 0 7.781 8.903 8.87 8.87 0 0 0 5-.89c1.546-.789 2.825-2.018 3.676-3.532a8.81 8.81 0 0 0 1.103-4.978c-.102-.971-.348-1.921-.73-2.82a7.54 7.54 0 0 1 4.36-.09 8.76 8.76 0 0 0-.919 3.905c0 1.356.315 2.693.919 3.905.597 1.215 1.466 2.276 2.54 3.1s2.323 1.389 3.65 1.65a8.74 8.74 0 0 0 4.007-.139c1.306-.355 2.513-1.009 3.524-1.911s1.802-2.021 2.308-3.277a8.77 8.77 0 0 0 .611-3.963 9 9 0 0 0-3.102-6.017c-1.777-1.525-4.08-2.297-6.418-2.153zm-18.721 16.06a7.6 7.6 0 0 1-5.263-1.551c-1.5-1.155-2.515-2.828-2.847-4.692a7.6 7.6 0 0 1 1.055-5.385c1.01-1.601 2.581-2.768 4.405-3.272 1.444-.4 2.973-.364 4.396.102a7.59 7.59 0 0 1 3.604 2.518 7.61 7.61 0 0 1 1.561 3.739 7.62 7.62 0 0 1-.58 4.01c-.552 1.259-1.434 2.346-2.554 3.144a7.61 7.61 0 0 1-3.806 1.387zm20 .36c-1.114.086-2.233-.076-3.277-.474s-1.988-1.02-2.764-1.825a7.58 7.58 0 0 1-1.723-2.828c-.36-1.058-.481-2.182-.356-3.293.171-1.497.788-2.908 1.771-4.05a7.57 7.57 0 0 1 3.717-2.378c1.448-.406 2.984-.372 4.413.098a7.52 7.52 0 0 1 3.62 2.53 7.6 7.6 0 0 1 1.562 3.73c.175 1.362-.023 2.745-.572 4.004a7.6 7.6 0 0 1-2.544 3.143c-1.116.799-2.428 1.28-3.797 1.393z" fill="#f4f4f4"/><path d="M-25.253 552.829c-5.66 1.44-11 1-15.67-2.53-1.86-.2-11.76-2.1-9.87-4.43 3.828 1.984 8.098 2.966 12.408 2.852s8.523-1.319 12.242-3.502z" class="c g"/><path d="M-38.356 533.699c-.39 0-.49.29-.39.59a6.8 6.8 0 0 0 2.509 2.805c1.083.681 2.337 1.041 3.616 1.041a6.79 6.79 0 0 0 3.616-1.041 6.8 6.8 0 0 0 2.509-2.805.34.34 0 0 0 0-.2.48.48 0 0 0-.07-.2c-.04-.056-.091-.104-.15-.14a.46.46 0 0 0-.2-.05z" class="f"/><path d="M83.096 1091.039c-7.31-3.92-39.28-9.38-43-18.86h-.281l-6-124.69h-37.66l20.531 128.66 1 19.24c.29 11.51 15.369 3.39 20.329 3.75l45.401 2c.68-1.38 1.81-9.13-.32-10.1z" class="i"/><path d="M-92.266 1093.829h34.55v5.8a1.47 1.47 0 0 1-.297.89 1.48 1.48 0 0 1-.773.54 58.88 58.88 0 0 1-32.4 0 1.48 1.48 0 0 1-.773-.54 1.47 1.47 0 0 1-.297-.89z" class="e"/><path d="M-55.904 982.909l-32.8-.34 4.1 80.26c.151 3.13-.111 6.26-.78 9.32l-2.08 9.41h26.56l-1.32-10.16a35.06 35.06 0 0 1-.15-7.73z" class="i"/><path d="M-87.465 1081.569h5.32c3.82-9 1.91-21 1.91-21v-77.92l-8.43-.08 4.06 80.26c.151 3.13-.111 6.26-.78 9.32z" class="c g"/><path d="M-87.087 1080.909a73.64 73.64 0 0 0-4.89 10.69h34s-1.47-5.51-3.2-10.69l-1.62-.41c-7.992-2-16.37-1.86-24.29.41z" class="p"/><path d="M-63.763 1089.119s-5.18-.62-11.19-.84c-6 .22-11.19.84-11.19.84-6.91.74-6.05 5.13-6.05 5.13 0 1.28 5.65 1.82 10.32 2 2.31.11 4.63.13 6.94.06s4.63 0 6.94-.06c4.67-.22 10.32-.76 10.32-2-.04 0 .82-4.42-6.09-5.13z" class="i"/><path d="M-61.988 1060.569l-23.45.04.013 8.69 23.45-.04z" class="p"/><g class="c"><path d="M-84.206 1087.559l-2 .25c-6.91.87-6.05 6-6.05 6 0 1.52 5.65 2.15 10.32 2.41 1.61.09 3.23.11 4.85.1-13.39-.62-7.12-8.75-7.12-8.76zm107.787-9.16l-10.36-86.85-11.48-9 14.94 93.62 1 18.93h21.07c-9.81-.11-15.17-16.7-15.17-16.7z" class="g"/><path d="M-22.905 482.179s-1.15 11.56-14.2 13.44c-13.33 1.88-10.45 9.67-26.69 7.8 0 0-5.86-8.48 2.83-17.23 5.74-5.79 17-10.61 25-9.81 2.75.27 9.18 5.02 13.06 5.8z"/><path d="M-24.605 482.999s-8.3 8.35 14.7 23.49c.517-3.287-.004-6.653-1.49-9.63-2.51-4.87-13.21-13.86-13.21-13.86z"/><path d="M17.369 650.829l-1.68-44.34a1.36 1.36 0 0 1 .076-.536c.061-.172.156-.329.279-.464s.272-.242.438-.318.345-.117.527-.122c.313.008.614.125.85.331s.391.489.44.799l8 44.65z" class="d"/></g><use xlink:href="#U" x="-44.727" class="e"/><path d="M-61.689 526.699a3.66 3.66 0 0 0-.82.09c.916.195 1.737.699 2.327 1.427a4.09 4.09 0 0 1 0 5.145 4.1 4.1 0 0 1-2.327 1.428 3.71 3.71 0 0 0 .82.08 4.1 4.1 0 0 0 2.768-6.922c-.726-.762-1.717-1.216-2.768-1.268zm96.945 87.506H11.452a.97.97 0 0 0-.463.117.96.96 0 0 0-.351.323l-16.093 42.966a.97.97 0 0 0 .781 1.487l25.014.957 15.752-44.385a.97.97 0 0 0 .135-.486.96.96 0 0 0-.484-.847.97.97 0 0 0-.487-.13z" class="c d"/><g class="h"><path d="M35.256 614.206H12.255c-.407-.004-.807.095-1.165.287s-.661.472-.881.813L-5.455 657.59a.97.97 0 0 0-.04.969.97.97 0 0 0 .821.518l25.014.957 15.752-44.385a.98.98 0 0 0 .123-.481.97.97 0 0 0-.131-.479c-.085-.145-.206-.266-.351-.351s-.31-.13-.477-.131z"/><path d="M35.921 615.631H12.975a1.85 1.85 0 0 0-.884.232 1.88 1.88 0 0 0-.667.626l-15.796 42.449 24.354 1.529zM-88.065 722.499s-11.42 70-8 122.65l7.5 203.79h30.48l19.7-266.69c.11-2.51 1.21-4.49 3.72-4.49a4.7 4.7 0 0 1 3.106 1.175c.858.757 1.411 1.8 1.554 2.935l40.1 267.07h31l-23.41-326.44zm15.679-158.15s31.39 56.549 39.18 99.209c0 0 8.33 20.901-55.74 52.711v-4.17s35.56-26.86 44.25-38.06l-1.3-12.87s-15.16-58.61-40-93.44z"/></g><path d="M85.367 1100.329a3.3 3.3 0 0 1-3.06 2.08l-38.2.18c-.661.01-1.308-.19-1.858-.55-.549-.37-.975-.9-1.222-1.51l-.26-.67c-.037-.1-.102-.19-.186-.25a.61.61 0 0 0-.292-.11c-.105 0-.211.02-.303.07a.56.56 0 0 0-.219.22l-.65 1.17c-.294.52-.722.95-1.24 1.24s-1.106.44-1.7.42l-17.46-.3c-.843-.01-1.651-.34-2.251-.93a3.26 3.26 0 0 1-.969-2.24l-.06-3.75 71.18.74c-.283 1.43-.702 2.84-1.25 4.19z" class="e"/><g class="p"><path d="M68.022 1095.949c.74-4 5.25-8.15 5.25-8.15l-10.81-3.8c-4 3-6.51 11.94-6.51 11.94zm-26.42-35.19l-27.712 1.45.456 8.68 27.712-1.46z"/><path d="M17.922 1070.459l11.58 25.78h-13.21l-1.23-26z"/></g><path d="M-33.845 777.759h.17c1.144 0 2.249.418 3.107 1.175a4.7 4.7 0 0 1 1.554 2.935l38.56 267.07h9.7l-33.611-262.11c-.24-2.19-1.054-4.277-2.361-6.051a12.49 12.49 0 0 0-5.079-4.049c-6.18-2.57-12.04 1.03-12.04 1.03zm-48.67 48.07c-.49-16.16 2.22-81.72 10-103.31h-15.55s-11.42 70-8 122.65l6.91 203.79h8.1l-1.17-201.64a694.84 694.84 0 0 0-.29-21.49z" opacity=".3" class="c"/><g class="i"><path d="M24.001 643.929c.189-.118.329-.3.393-.514a.91.91 0 0 0-.043-.646l-1.26-5.729-5-9.481a2.17 2.17 0 0 1 .005-1.556c.194-.501.566-.912 1.045-1.153.41-.204.879-.251 1.321-.133a1.87 1.87 0 0 1 1.079.772l7.16 9.931 3.231 10.509c-3.23 9.69-14.541 17-14.541 17h-2.89c-1.786-.009-3.529-.556-5-1.569l-6.25-4.33c-1.302-.895-2.339-2.125-3-3.56l-3.29-7.131c-.16-.347-.211-.735-.144-1.112a1.88 1.88 0 0 1 .514-.997h0c.19-.187.417-.331.666-.423s.515-.132.78-.115a1.89 1.89 0 0 1 .759.213 1.89 1.89 0 0 1 .605.505l4.351 5.599 5.19 4.44c.135.118.302.194.48.217s.359-.007.52-.087l.099-.05c.121-.059.226-.145.31-.25a.92.92 0 0 0 .182-.756c-.027-.131-.082-.255-.162-.363l-5.82-8-3.43-8.921a1.86 1.86 0 0 1 .001-1.346c.169-.433.493-.788.909-.994l.2-.1a1.88 1.88 0 0 1 2.42.66l4.75 7.47 6 5.241a.92.92 0 0 0 .481.216c.178.023.359-.007.519-.087l.2-.1a.9.9 0 0 0 .293-.226.91.91 0 0 0 .179-.323.9.9 0 0 0 .038-.368.92.92 0 0 0-.109-.353l-3.581-6.43-5.37-7.389c-.29-.398-.412-.894-.339-1.381a1.87 1.87 0 0 1 .73-1.22 2.65 2.65 0 0 1 1.718-.529c.618.029 1.205.273 1.661.69l6.45 6.599 3.671 7.331c.056.115.135.218.234.301a.92.92 0 0 0 .337.178.91.91 0 0 0 .381.024c.127-.019.249-.064.358-.133z"/><path d="M35.296 657.298v-21.43l-3.39-7.519-2 12.19c-1.58-.41 1.28.3-2.67 3s-15.62 18.35-15.62 18.35a57.51 57.51 0 0 0 5.68 3.09l-4.2 17.5c-1 4.65-2.05 18.479 4.25 20.389 12.34 3.75 17.3-4.999 19.28-12.599 1.13-4.434 1.432-9.038.89-13.581z"/></g><g class="c"><path d="M-2.585 643.589c-.303.298-.509.682-.589 1.1a2.1 2.1 0 0 0 .139 1.24c1.22 2.83 4.17 9.29 6.54 10.87l9.15 6.09s5.08 2 4.66 2.08l-4.25 17.51c-1.01 4.7-2.05 18.48 4.25 20.39 9.67 2.94 14.81-1.8 17.53-7.65-29 12.89-14.23-30.15-14.23-30.15l-6.09-3.69c-.57-.35-1.13-.71-1.68-1.1l-8.53-6a4.86 4.86 0 0 1-1.32-1.42l-5.58-9.31z" class="g"/><path d="M-88.065 721.529h13.63l-7.67-110.5a1.78 1.78 0 0 0-1.78-1.67h0c-.472 0-.925.188-1.258.522s-.522.786-.522 1.258v40.54h-4zm-27.841-129.01c0-13 8.19-19 8.19-19l-.05-.06-.24.06c-3.636.965-6.857 3.095-9.168 6.064a17.23 17.23 0 0 0-3.632 10.376l-2.07 61.72h7z" class="d"/></g><g class="i"><path d="M-52.138 682.759h12.26c.674.036 1.35-.038 2-.22l9.32-2.59a3.8 3.8 0 0 0 2.16-1.56 4.5 4.5 0 0 0-.45-5.69s1.9-2.52-.63-5.68c0 0 2.53-3.15-.63-5.68 0 0 1-4.1-2.21-5.37l-13.92-.14c-1.647.093-3.223.706-4.5 1.75l-8.45 6.92"/><path d="M-55.53 663.359l-32 6.48v-18.36h-32.34s-.26 14.69-2.27 41.21a11.5 11.5 0 0 0 .685 4.866 11.49 11.49 0 0 0 2.655 4.134h0a12 12 0 0 0 4.951 2.98c1.868.575 3.849.685 5.769.32 13.64-2.61 7.33-2 55.93-22.28"/></g><path d="M-86.904 651.879l-3-.8-1.21 17.54c-12.13 3.24-14 5.45-14 5.45s-.72-.6 18.29-4.15z" class="c g"/><path d="M-34.149 661.609l5.68-.64m-4.727 6.63l5.68-.63m-5.047 6.32l5.68-.64" stroke="#000" stroke-width="1.128" class="g m n"/><path d="M-52.11 682.759c-36.84 15.69-44.41 20.19-55.31 21.89-5 .79-10.16-.25-13-5.12a12.22 12.22 0 0 1-1.64-5.81 12.69 12.69 0 0 1 .2-2.53l.3-6.85s-.32 13.56 11 15.82c1.712.389 3.488.41 5.21.06 16.45-3.8 35.69-13.93 52-20.06l.3-.24h12.63l6.59-.69c1.083-.117 2.079-.649 2.778-1.484a4.21 4.21 0 0 0 .972-2.996c-.037-.493-.117-.982-.24-1.46 0 0 1.58-3.79-.95-5.69 0 0 1.26-2.52-.63-6 .353-.934.48-1.939.371-2.931a6.33 6.33 0 0 0-1.001-2.779h2.21c3.16 1.27 2.21 5.37 2.21 5.37 3.16 2.53.63 5.68.63 5.68 2.53 3.16.63 5.68.63 5.68a4.5 4.5 0 0 1 1.242 2.764c.082 1.038-.198 2.071-.792 2.926a3.81 3.81 0 0 1-2.16 1.56l-9.35 2.62c-.651.181-1.326.256-2 .22h-12.26" class="c g"/></g><defs><path id="A" d="M801.005 942.737c-56.26-8.9-671.67-1.11-748.2-.1l4.5 37.44 1116.339 1 10.07-37.43c-116.16 2.49-382.709-.91-382.709-.91z"/><path id="B" d="M1117.004 81.167l-226.62-20c-6.87 14.09-10.45 29.555-10.47 45.23 0 56 45.4 102.91 106.81 116.21v3.9h210.56l-25.77-99.18c-3.22-12.376-10.18-23.455-19.94-31.719a62 62 0 0 0-34.57-14.441z"/><path id="C" d="M538.133 187.057a112.75 112.75 0 0 0-22.71 2.36c-20.24-42.17-69.16-72-126.4-72-46.69 0-88 19.93-112.52 50.28a124.2 124.2 0 0 0-23.7-2.3c-59.62 0-107.94 40.82-107.94 91.08 0 42.53 34.46 78.1 81.07 88.2v2.93h312.2c52.57 0 95.16-35.94 95.16-80.3s-42.59-80.25-95.16-80.25z"/><path id="D" d="M622.355 344.747a81.67 81.67 0 0 0-16.46 1.76c-14.68-30.6-50.16-52.2-91.68-52.2-33.86 0-63.82 14.46-81.62 36.46a90.22 90.22 0 0 0-17.18-1.66c-43.26 0-78.29 29.61-78.29 66.06 0 30.84 25 56.65 58.8 64v2.13h226.43c38.14 0 69-26.07 69-58.25s-30.86-58.3-69-58.3z"/><path id="E" d="M370.244 349.267a83.15 83.15 0 0 0-16.47 1.72c-14.66-30.58-50.16-52.19-91.67-52.19-33.87 0-63.82 14.45-81.63 36.46-5.661-1.1-11.413-1.659-17.18-1.67-43.23 0-78.29 29.6-78.29 66.07 0 30.85 25 56.65 58.8 64v2.12h226.44c38.13 0 69-26 69-58.23s-30.87-58.28-69-58.28z"/><path id="F" d="M1133.184 289.027c0 40.64 32.92 74.64 77.47 84.29v2.8h25.47l-43.12-166.08c-35.35 13.83-59.82 44.02-59.82 78.99z"/><path id="G" d="M1154.644 210.507c-19.32-40.29-66.1-68.76-120.77-68.76-44.63 0-84.1 19-107.56 48a120.28 120.28 0 0 0-22.63-2.2c-57 0-103.16 39-103.16 87.05 0 40.65 32.93 74.64 77.48 84.29v.62l298.34 2.18a102.44 102.44 0 0 0 52.39-14l-35.9-138.18a107.53 107.53 0 0 0-16.49-1.26 109.49 109.49 0 0 0-21.7 2.26z"/><path id="H" d="M314.563 564.127s13.23-12.1 17.64-17 10.06-7.57 15.6-6 9.2 7.73 7.2 15.38-10.82 19-22.84 18.43-15.91-8.55-17.6-10.81z"/><path id="I" d="M347.803 541.167c-5.54-1.58-11.19 1.13-15.6 6-1.57 1.74-4.27 4.39-7.09 7.09l3 3 5.62-4.23s0-4.51 3.75-4.88c5.45-.54 4.64 10.64 18 4.79.27-5.93-3.03-10.43-7.68-11.77z"/><path id="J" d="M968.088 687.439c2.383-6.467-9.138-16.667-25.733-22.783s-31.98-5.831-34.364.636 9.138 16.667 25.733 22.782 31.98 5.831 34.364-.636z"/><path id="K" d="M953.378 694.354c23.482 4.781 44.911-4.542 14.511-24.698-12.81-8.275-31.701-14.94-47.231-16.796-31.954-4.218-34.949 12.838-7.03 27.953-.865-2.482-2.756-4.921-2.721-7.586-6.461-7.551 4.767-10.996 11.467-10.328 8.24.246 17.436 2.742 25.535 6.243 8.943 4.218 20.62 10.757 17.956 17.267a5.52 5.52 0 0 1-1.568 2.109h0a28.13 28.13 0 0 1-9.301 5.259z"/><path id="L" d="M964.079 755.379c1.367 0 2.475-1.108 2.475-2.475s-1.108-2.475-2.475-2.475-2.475 1.108-2.475 2.475 1.108 2.475 2.475 2.475z"/><path id="M" d="M100.604 837.547c3.25 5.7 2.27 8.13.07 9.38s-4.88.71-8-4.84-2.27-8.13-.07-9.38 4.93-.56 8 4.84z"/><path id="N" d="M160.143 854.878c2.437-3.811 2.682-8.007.546-9.373s-5.842.616-8.279 4.427-2.682 8.007-.546 9.372 5.842-.616 8.279-4.426z"/><path id="O" d="M115.875 953.267a21.55 21.55 0 0 0-.8-5.23c-1.002-3.45-2.581-6.71-4.67-9.64-4.36-6.27-10.44-12.17-17.67-14.86-1.677-.65-3.426-1.09-5.21-1.32-.84-.1-3.44-.49-4.1.25s.18.57.81.84a27.27 27.27 0 0 1 3.69 2c11 6.75 24 14.66 26.91 28z"/><path id="P" d="M115.433 952.267c-.78-12.62-4.54-24.79-8.65-36.67-1.88-5.41-3.71-10.89-6-16.13-2.8-6.35-6.24-12.51-9.6-18.57-1.58-2.86-3.23-5.7-5-8.45-.81-1.25-1.64-2.48-2.53-3.68-.34-.46-2-2-2-2.54 0-.8.76-.14 1.2.13 1.122.716 2.188 1.515 3.19 2.39a50.12 50.12 0 0 1 6.63 7c4.284 5.364 7.794 11.302 10.43 17.64a195.68 195.68 0 0 1 6.25 19.24 183.46 183.46 0 0 1 5.39 22.9 98.91 98.91 0 0 1 1.15 10.47c.08 1.48.11 3 .1 4.45 0 .35.16 1.39 0 1.66-.08-.01-.51.88-.56.16z"/><path id="Q" d="M116.866 953.267h.65v-3.1l-.13-8.75c-.16-6.56-.5-13.11-1.1-19.65-1.1-12-2.38-24-6.56-35.42a74.9 74.9 0 0 0-3.26-7.72c-.22-.44-1.88-4.25-2.4-3.49-.19.27.23 1.7.28 2 .16 1.1.36 2.2.54 3.29l1.41 7.93c2.21 11.84 5.11 23.52 7 35.43 1.48 9.82 2.59 19.64 3.57 29.48z"/><path id="R" d="M119.136 919.347c-1-6.83-.38-13.8.75-20.58.573-4.017 1.545-7.966 2.9-11.79a49.7 49.7 0 0 1 5.58-10.12l2.57-3.89c.25-.39 1.57-3.19 2-3.23 1.46-.15-.21 6.52-.5 7.47-1.203 3.622-2.803 7.099-4.77 10.37-1.957 3.497-3.456 7.231-4.46 11.11-1.172 4.03-2.12 8.12-2.84 12.26a61.54 61.54 0 0 0-.67 5.58c.059.73.032 1.47-.08 2.2.11-.31-.31 1.76-.48.62z"/><path id="S" d="M160.075 885.797c-1-.08-2.73.86-3.6 1.21a37.69 37.69 0 0 0-3.52 1.65c-2.185 1.183-4.269 2.544-6.23 4.07-9.6 7.44-15.2 18.44-19.81 29.43-3.58 8.53-7.78 21-8 31.12h1.07v-1.16a32.15 32.15 0 0 1 .54-3.88 64.34 64.34 0 0 1 2.6-9.21c2.276-6.23 4.972-12.29 8.07-18.15 5.498-10.47 12.726-19.94 21.38-28 2.08-2 4.28-3.8 6.54-5.56.69-.52 2.45-1.4.96-1.52z"/><path id="T" d="M160.325 915.527c-.63-.85-4.4-.42-5.28-.33a22.68 22.68 0 0 0-4.68 1c-8.47 2.69-14.83 9.4-20.21 16.2-4.28 5.4-8.91 13.61-10.81 20.9h1.32c.209-.93.466-1.84.77-2.74.946-2.13 2.066-4.17 3.35-6.11a71.03 71.03 0 0 1 9-11 82.86 82.86 0 0 1 20.12-14.77c1.566-.83 3.19-1.55 4.86-2.15.42-.16 2.06-.33 1.56-1z"/><path id="U" d="M-16.963 534.899a4.1 4.1 0 1 0 0-8.2 4.1 4.1 0 1 0 0 8.2z"/></defs><path d="M871.24 910.664h33.489v3.9H871.24zm0 12.252h33.489v3.9H871.24zm0 21.174h33.489v11.047H871.24z" opacity=".258" fill="#222329"/></svg>