<svg xmlns="http://www.w3.org/2000/svg" xmlns:xlink="http://www.w3.org/1999/xlink" width="1293.994" height="993.017" fill="none" xmlns:v="https://vecta.io/nano"><style><![CDATA[.B{fill:#000}.C{opacity:.2}.D{fill:#1db956}.E{fill:#fff}.F{opacity:.15}.G{fill:#21252b}.H{fill:#fc9d9d}.I{fill:#61656d}.J{fill:#3f4249}.K{fill:#b2b6bb}.L{fill:#38bff8}.M{stroke-miterlimit:10}.N{stroke-linecap:round}.O{fill:#92400e}]]></style><path d="M57.302 979.607l-47.1-577.37a62.01 62.01 0 0 1 11.54-41.31l235-325.27a62 62 0 0 1 24.472-20.052 61.99 61.99 0 0 1 31.178-5.368l804.612 70.93c12.73 1.132 24.8 6.171 34.56 14.429a61.98 61.98 0 0 1 19.95 31.701l110.49 425.45c2.72 10.462 2.65 21.453-.2 31.88l-108.17 396.42z" fill="#f4f4f4"/><g class="K"><path d="M173.194 885.947a39.08 39.08 0 0 0 1.686 23.57c2.98 7.49 8.207 13.88 14.962 18.28 6.755 4.41 14.708 6.62 22.767 6.32 8.059-.29 15.83-3.07 22.245-7.96a47.86 47.86 0 0 0 19.88 10.09h.1l216.89 10.32c3.982.96 8.127 1.03 12.138.2a27.81 27.81 0 0 0 11.064-5 27.78 27.78 0 0 0 7.877-9.23 27.86 27.86 0 0 0 3.186-11.72c.185-4.09-.536-8.17-2.113-11.95a27.72 27.72 0 0 0-7.009-9.91 27.75 27.75 0 0 0-10.567-5.98 27.78 27.78 0 0 0-12.106-.9 18 18 0 0 0-14.307-17.433 18 18 0 0 0-20.103 10.223c-4.43-11.955-13.42-21.665-25-27a24.35 24.35 0 0 0-1.202-26.571 24.35 24.35 0 0 0-24.798-9.619c-3.908-10.668-11.028-19.862-20.379-26.316a54.94 54.94 0 0 0-31.835-9.716 54.93 54.93 0 0 0-31.601 10.451c-9.199 6.668-16.105 16.025-19.765 26.781a18 18 0 0 0-11.152 3.856 18.01 18.01 0 0 0-6.368 9.934c-.351 1.521-.512 3.08-.48 4.64a48.17 48.17 0 0 0-21.763 4.602c-6.796 3.211-12.747 7.967-17.377 13.888-5.25-2.531-11.001-3.852-16.829-3.867a38.99 38.99 0 0 0-16.851 3.778 39.01 39.01 0 0 0-13.566 10.684c-3.667 4.531-6.272 9.825-7.624 15.495z"/><path d="M352.914 955.127c-16.84-2-33.69-3.57-50.33-4.83l-21.41-1.45h-.47l-36.42-1.71-6.41-.23-15.06-.39-11.63-.24-44.32-.15-17.63.24-21.67.53c-40 1.2-65.38 3.3-65.38 3.3-2.379-3.95-3.462-8.55-3.1-13.15 1.25-14.65 17.47-25.24 36.38-23.82a23.29 23.29 0 0 1-.53-7.28c1.34-15.7 18.58-27 38.53-25.35 16.62 1.42 29.89 11.48 33.05 23.87a44.15 44.15 0 0 1 15.31-1.32c8.703.64 16.992 3.96 23.72 9.52 5.024.49 9.925 1.85 14.49 4 6.4-9.61 19.77-15.58 34.62-14.31 3.102.26 6.169.85 9.15 1.74a44.52 44.52 0 0 1 12.67-.7c15.14 1.3 27.51 9.74 32 20.62a43.88 43.88 0 0 1 10.8-.38c19.91 1.71 34.98 15.8 33.64 31.49zm21.188-13.71c-.24 10.57 92.7 15.86 92.92 5.8a18.16 18.16 0 0 0-4.201-12.03 18.19 18.19 0 0 0-11.069-6.32c.619-1.52.957-3.15 1-4.79.043-1.83-.276-3.65-.937-5.36-.661-1.7-1.652-3.26-2.915-4.58a13.87 13.87 0 0 0-9.758-4.31h-1.27c-2.14-9.14-11.13-16.11-22.07-16.36-12.72-.28-23.23 8.64-23.48 19.93-.07 3.28.734 6.52 2.33 9.38-11.28.53-20.33 8.56-20.55 18.64z"/></g><g class="B"><path d="M354.004 956.957c-16.81-2.21-33.64-4-50.27-5.47l-21.38-1.72h-.48l-36.39-2.17-6.41-.31-15.05-.58-11.63-.38-44.31-.72h-17.63l-21.68.24c-40 .7-65.42 2.48-65.42 2.48a22.13 22.13 0 0 1-2.93-13.18c1.43-14.64 17.78-25 36.68-23.36-.528-2.39-.676-4.85-.44-7.29 1.54-15.68 18.92-26.81 38.84-24.86 16.61 1.63 29.75 11.85 32.75 24.29 5.004-1.27 10.193-1.66 15.33-1.13a42.03 42.03 0 0 1 23.6 9.81 44.21 44.21 0 0 1 14.44 4.22c6.51-9.53 20-15.32 34.79-13.87a45.13 45.13 0 0 1 9.13 1.85 44.56 44.56 0 0 1 12.68-.53c15.12 1.48 27.38 10.08 31.69 21a44.44 44.44 0 0 1 10.81-.24c19.93 1.96 34.82 16.24 33.28 31.92z" opacity=".1"/><path d="M375.583 941.417c-.23 10.57 92.7 15.86 92.93 5.8a18.18 18.18 0 0 0-4.208-12.03c-2.808-3.38-6.741-5.62-11.072-6.32a13.7 13.7 0 0 0 1-4.79 13.94 13.94 0 0 0-3.856-9.94c-2.552-2.67-6.061-4.22-9.754-4.31h-1.27c-2.15-9.14-11.13-16.11-22.08-16.36-12.71-.28-23.23 8.64-23.48 19.93-.068 3.28.74 6.52 2.34 9.38-11.27.53-20.32 8.56-20.55 18.64z" opacity=".01"/></g><g class="K"><path d="M569.194 883.947a39.08 39.08 0 0 0 1.686 23.57c2.98 7.49 8.207 13.88 14.962 18.28 6.755 4.41 14.708 6.62 22.767 6.32 8.059-.29 15.83-3.07 22.245-7.96a47.86 47.86 0 0 0 19.88 10.09h.1l216.89 10.32c3.98.96 8.13 1.03 12.14.2a27.77 27.77 0 0 0 11.06-5c3.28-2.46 5.97-5.61 7.88-9.23 1.91-3.63 3-7.63 3.18-11.72.19-4.09-.53-8.17-2.11-11.95s-3.97-7.17-7.01-9.91a27.73 27.73 0 0 0-10.56-5.98 27.8 27.8 0 0 0-12.11-.9c-.04-4.101-1.48-8.065-4.08-11.235-2.61-3.17-6.21-5.357-10.23-6.198a18 18 0 0 0-20.1 10.223c-4.43-11.955-13.42-21.665-25-27a24.35 24.35 0 0 0-1.202-26.571 24.35 24.35 0 0 0-24.798-9.619c-3.908-10.668-11.028-19.862-20.379-26.316a54.94 54.94 0 0 0-31.835-9.716 54.93 54.93 0 0 0-31.601 10.451c-9.199 6.668-16.105 16.025-19.765 26.781a18 18 0 0 0-11.152 3.856 18.01 18.01 0 0 0-6.368 9.934c-.351 1.521-.512 3.08-.48 4.64a48.17 48.17 0 0 0-21.763 4.602c-6.796 3.211-12.747 7.967-17.377 13.888-5.25-2.531-11.001-3.852-16.829-3.867a38.99 38.99 0 0 0-16.851 3.778 39.01 39.01 0 0 0-13.566 10.684c-3.667 4.531-6.272 9.825-7.624 15.495z"/><path d="M748.914 953.127c-16.84-2-33.69-3.57-50.33-4.83l-21.41-1.45h-.47l-36.42-1.71-6.41-.23-15.06-.39-11.63-.24-44.32-.15-17.63.24-21.67.53c-40 1.2-65.38 3.3-65.38 3.3-2.379-3.95-3.462-8.55-3.1-13.15 1.25-14.65 17.47-25.24 36.38-23.82a23.29 23.29 0 0 1-.53-7.28c1.34-15.7 18.58-27 38.53-25.35 16.62 1.42 29.89 11.48 33 23.87a44.15 44.15 0 0 1 15.31-1.32c8.703.64 16.992 3.96 23.72 9.52 5.024.49 9.925 1.85 14.49 4 6.4-9.61 19.77-15.58 34.62-14.31 3.102.26 6.169.85 9.15 1.74a44.52 44.52 0 0 1 12.67-.7c15.14 1.3 27.51 9.74 32 20.62a43.88 43.88 0 0 1 10.8-.38c19.96 1.71 35.03 15.8 33.69 31.49z"/></g><path d="M750.004 954.957c-16.81-2.21-33.64-4-50.27-5.47l-21.38-1.72h-.48l-36.39-2.17-6.41-.31-15.05-.58-11.63-.38-44.31-.72h-17.63l-21.68.24c-40 .7-65.42 2.48-65.42 2.48a22.13 22.13 0 0 1-2.93-13.18c1.43-14.64 17.78-25 36.68-23.36-.528-2.39-.676-4.85-.44-7.29 1.54-15.68 18.92-26.81 38.84-24.86 16.61 1.63 29.75 11.85 32.75 24.29 5.004-1.27 10.194-1.66 15.33-1.13a42.03 42.03 0 0 1 23.6 9.81 44.21 44.21 0 0 1 14.44 4.22c6.51-9.53 20-15.32 34.79-13.87a45.13 45.13 0 0 1 9.13 1.85 44.56 44.56 0 0 1 12.68-.53c15.12 1.48 27.38 10.08 31.69 21a44.44 44.44 0 0 1 10.81-.24c19.93 1.96 34.82 16.24 33.28 31.92z" opacity=".1" class="B"/><g class="K"><path d="M1075.884 891.947c4.95 21-7.74 42.08-28.34 47.12-5.54 1.36-11.32 1.44-16.9.25a37.86 37.86 0 0 1-15.32-7.16 46.65 46.65 0 0 1-19.53 10.09h-.09l-213.029 10.32c-3.509.83-7.149.96-10.709.38a27.21 27.21 0 0 1-10.03-3.77 27.18 27.18 0 0 1-7.801-7.35 27.22 27.22 0 0 1-4.37-9.78c-3.52-14.91 5.5-29.92 20.15-33.5a26.68 26.68 0 0 1 10.34-.47 17.93 17.93 0 0 1 13.54-17.28c4.017-.95 8.24-.461 11.934 1.383s6.622 4.925 8.276 8.707a47.79 47.79 0 0 1 24.59-27 24.57 24.57 0 0 1-3.221-10.701c-.237-3.768.398-7.539 1.855-11.021a24.55 24.55 0 0 1 6.545-9.058 24.56 24.56 0 0 1 9.88-5.22c3.43-.833 7-.884 10.45-.15a54.27 54.27 0 0 1 14.68-22.044 54.26 54.26 0 0 1 23.37-12.466c27.34-6.7 54.81 9.11 63.68 35.71a17.75 17.75 0 0 1 11 3.901c3.12 2.503 5.31 5.988 6.2 9.889.35 1.521.51 3.079.48 4.64 7.42-.176 14.78 1.408 21.47 4.621a46.99 46.99 0 0 1 17.02 13.869 37.98 37.98 0 0 1 7.61-2.76c20.59-5.05 41.32 7.88 46.27 28.85z"/><path d="M1178.254 955.647c-9.89-.69-30.24-2-57.55-2.79l-21.28-.53-17.32-.24a1685.37 1685.37 0 0 0-43.52.15l-11.43.24-14.79.39-6.3.23-36.24 1.71-21 1.45c-16.34 1.26-32.9 2.84-49.43 4.83-1.32-15.69 13.48-29.78 33.07-31.49a42.44 42.44 0 0 1 10.62.38c4.37-10.88 16.51-19.32 31.39-20.62 4.16-.37 8.35-.14 12.44.7 2.93-.9 5.95-1.48 9-1.74 14.59-1.27 27.72 4.7 34 14.31a42.54 42.54 0 0 1 14.23-4 40.99 40.99 0 0 1 23.3-9.52 42.86 42.86 0 0 1 15 1.32c3.1-12.39 16.13-22.45 32.46-23.87 19.59-1.7 36.53 9.65 37.84 25.35.21 2.44.03 4.89-.52 7.28 13.93-1.06 26.38 4.62 32.25 13.72z"/></g><path d="M1178.464 954.867c-10.1-.57-30.2-1.55-57-2l-21.29-.24h-17.32c-13.64 0-28.23.27-43.52.72l-11.42.38-14.79.58-6.29.31-35.75 2.17h-.47l-21 1.72c-16.33 1.47-32.86 3.26-49.37 5.47-1.51-15.68 13.11-30 32.69-31.92 3.53-.36 7.1-.28 10.61.24 4.24-10.93 16.28-19.53 31.13-21a42.97 42.97 0 0 1 12.45.53c2.93-.93 5.94-1.55 9-1.85 14.56-1.45 27.77 4.34 34.17 13.87 4.45-2.22 9.25-3.65 14.19-4.22a40.9 40.9 0 0 1 23.18-9.81c5.03-.52 10.11-.14 15 1.13 3-12.44 15.85-22.66 32.17-24.29 19.57-2 36.64 9.18 38.15 24.86.24 2.44.09 4.9-.44 7.29 13.93-1.24 26.44 4.28 32.42 13.3l-6.54 22.79" opacity=".1" class="B"/><use xlink:href="#B" class="D"/><use xlink:href="#B" opacity=".6" class="E"/><path d="M1182.134 947.917l-.31-1.09a7.2 7.2 0 0 1 0-2.45c.16-.74.44-1.45.82-2.1l.25-.43.28-.38c.14-.22.31-.42.49-.61l.47-.52-.91.37c-.34.13-.67.29-1 .46l-.63.31c-.22.11-.42.24-.65.37a16.42 16.42 0 0 0-2.82 2.08 12.81 12.81 0 0 0-1.23 1.32 20.91 20.91 0 0 1-.81-3.3c-.18-1.35-.22-2.71-.11-4.07a18.7 18.7 0 0 1 .68-3.55l.22-.74.25-.66c.13-.37.28-.73.45-1.08l.43-.93-.93.84c-.31.27-.64.61-1 1l-.61.62-.63.71a28.66 28.66 0 0 0-2.64 3.55l-.86.39-1.08.54c-1.69.84-3.33 1.79-4.91 2.84a31.36 31.36 0 0 0-2.9 2.18c-.07-.53-.11-1.07-.13-1.61a20.58 20.58 0 0 1 .29-3.76c.2-1.11.5-2.19.89-3.25.15-.44.32-.87.52-1.29l.46-1 .44-.85-.93.75c-.31.25-.65.55-1 .9l-1.28 1.19a34.18 34.18 0 0 0-2.83 3.18c-.95 1.24-1.81 2.55-2.55 3.93h0-.07l.24-1a36.71 36.71 0 0 1 1.83-4.88c.68-1.44 1.44-2.83 2.29-4.18l1.09-1.63.91-1.25.83-1.08-1.29 1-1.46 1.11-1.82 1.49c-1.32 1.11-2.73 2.45-4.18 3.93-1 1-2 2.16-2.91 3.31l-3.62-2-1.4-.71-.25-.11c0-.28.08-.55.13-.8l.3-1.44.3-1.1.3-1-.8.89-.89 1.05-1.07 1.38-.11.16-.42-.18-1-.41-2-.77 1.67 1 .86.52.54.37c-.61.88-1.2 1.87-1.8 2.94l-.4.81a42.33 42.33 0 0 0-2.49-5c-.94-1.56-1.97-3.07-3.09-4.51l-1.43-1.75-1.17-1.33-1.06-1.15.59 1.27c.2.4.4.89.62 1.45l.68 1.89a24.93 24.93 0 0 1 .79 2.81l-.64.37-.93.53-1 .62c-1.52.96-2.98 2.02-4.36 3.18-.86.73-1.7 1.52-2.5 2.35l-.78-1.23-2.56-3.45-1.14-1.34c-.35-.34-.65-.75-.92-1l-.83-.88.35 1 .37 1.15.41 1.48c.3 1.22.53 2.45.67 3.7.14 1.39.19 2.79.14 4.19 0 .82-.12 1.64-.23 2.44l-.18.33-.62 1.3-.25-1.45a36.21 36.21 0 0 0-1.34-4.68 39.66 39.66 0 0 0-2-4.58c-.71-1.34-1.49-2.63-2.34-3.89l-1.08-1.52-.88-1.15-.8-1 .32 1.1.31 1.26.33 1.63a30.7 30.7 0 0 1 .42 4.06c.04 1.53-.03 3.06-.22 4.58-.2 1.51-.51 3-.93 4.47l-1 3 .07-2c-.04-1.53-.22-3.06-.55-4.56-.37-1.53-.87-3.03-1.51-4.47a27.59 27.59 0 0 0-2.08-3.76c-.31-.51-.64-1-1-1.47l-.86-1.1-.79-1 .31 1.06c.1.33.19.74.29 1.21a13.89 13.89 0 0 1 .26 1.57c.17 1.28.22 2.57.14 3.86-.11 1.45-.36 2.89-.76 4.29l-.34 1a14.71 14.71 0 0 1-.24 1.87c-.26 1.34-3.81 1.2-3.77-.15.08-1.21.27-2.41.58-3.58.3-1.08.69-2.13 1.17-3.15.21-.47.44-.89.65-1.27l.57-1 .54-.85-1 .69-1.08.79-1.34 1.07c-1.05.88-2.05 1.82-3 2.8-1.02 1.08-1.98 2.22-2.85 3.42l-.46.68c-.32-.75-.6-1.54-.85-2.34a22.3 22.3 0 0 1-.76-4.29c-.08-1.29-.03-2.58.14-3.86.06-.53.15-1.05.26-1.57l.29-1.21.31-1.06-.79 1c-.26.3-.54.67-.86 1.1-.36.47-.69.96-1 1.47a28.71 28.71 0 0 0-2.08 3.76 27.02 27.02 0 0 0-1.51 4.47c-.33 1.5-.51 3.03-.55 4.56l.07 2a24.52 24.52 0 0 1-1-3c-.42-1.47-.73-2.96-.93-4.47-.19-1.52-.26-3.05-.22-4.58a30.7 30.7 0 0 1 .42-4.06l.33-1.63.31-1.26.32-1.1-.8 1-.88 1.15-1.08 1.52c-.85 1.26-1.63 2.55-2.34 3.89a39.66 39.66 0 0 0-2 4.58c-.55 1.53-.99 3.09-1.34 4.68l-.25 1.45-.62-1.3c-.05-.11-.12-.22-.18-.33l-.23-2.44c-.05-1.4 0-2.8.14-4.19.14-1.25.37-2.48.67-3.7.12-.54.27-1 .41-1.48l.37-1.15.35-1-.83.88-.92 1c-.35.37-.74.84-1.14 1.34-.83 1-1.69 2.17-2.56 3.45l-.78 1.23-2.5-2.35c-1.38-1.16-2.84-2.22-4.36-3.18l-1-.62-.93-.53-.64-.37c.21-.95.48-1.89.79-2.81.21-.7.45-1.33.68-1.89l.62-1.45.59-1.27-1.06 1.15c-.35.36-.74.81-1.17 1.33l-1.43 1.75c-1.12 1.44-2.15 2.95-3.09 4.51a42.33 42.33 0 0 0-2.49 5l-.4-.81-1.8-2.94.54-.37.86-.52 1.67-1-2 .77-1 .41-.42.18-.11-.16-1.07-1.38-.89-1.05-.8-.89.3 1a13.65 13.65 0 0 1 .3 1.1c.13.47.23.96.3 1.44 0 .25.09.52.13.8l-.25.11-1.4.71-3.62 2-2.91-3.31-4.18-3.93-1.82-1.49c-.56-.49-1-.81-1.46-1.11l-1.29-1 .83 1.08.91 1.25 1.09 1.63c.85 1.35 1.61 2.74 2.29 4.18.73 1.58 1.34 3.21 1.83 4.88l.24 1h-.07c-.74-1.38-1.59-2.69-2.55-3.93a34.18 34.18 0 0 0-2.83-3.18l-1.28-1.19-1-.9-.93-.75.44.85.46 1c.2.42.37.85.52 1.29.39 1.06.69 2.14.89 3.25a20.58 20.58 0 0 1 .29 3.76c0 .54-.06 1.08-.13 1.61l-2.9-2.18c-1.58-1.05-3.21-2-4.91-2.84l-1.08-.54-.86-.39c-.78-1.25-1.67-2.44-2.64-3.55l-.63-.71-.61-.62-1-1-.93-.84.43.93c.15.3.29.66.45 1.08l.25.66.22.74a18.7 18.7 0 0 1 .68 3.55c.11 1.36.07 2.72-.11 4.07a20.91 20.91 0 0 1-.81 3.3 12.81 12.81 0 0 0-1.23-1.32 16.42 16.42 0 0 0-2.82-2.08l-.65-.37-.63-.31c-.32-.17-.66-.33-1-.46l-.91-.37.47.52c.18.19.35.39.49.61l.28.38c.09.13.16.28.25.43.39.65.66 1.36.82 2.1a7.2 7.2 0 0 1 0 2.45c-.08.37-.19.73-.31 1.09l-2.35-2.41a53.03 53.03 0 0 0-4-3.43l-3.87-2.76-1.64-1-1.29-.77-1.14-.65.69.8a14.99 14.99 0 0 1 .76.92l.93 1.21a30.98 30.98 0 0 1 3.79 6.7l.83 2.38a27.44 27.44 0 0 1-3-2 25.41 25.41 0 0 1-2.63-2.34c-.8-.83-1.53-1.71-2.2-2.65-2.19-3.3-3.66-7.02-4.32-10.93-.3-1.54-.49-2.83-.62-3.72l-.19-1.41-.32 1.39c-.2.88-.49 2.14-.76 3.69a35.94 35.94 0 0 0-.48 4.14h-.07l-.89.49-.94.58a35.52 35.52 0 0 0-4.08 2.91c-1.06.91-2.06 1.88-3 2.92-.93-1.51-1.71-3.12-2.31-4.79-.54-1.59-.87-3.25-1-4.93 0-.36-.06-.72-.07-1.06s0-.66 0-1v-.85c0-.26.06-.5.08-.72l.2-1.38-.7 1.31c-.11.21-.24.44-.36.7s-.22.53-.35.83l-.39.94c-.12.34-.23.69-.34 1.06-.32.98-.56 1.98-.71 3-1.16 1.09-4 3.73-6.41 6.5a38.48 38.48 0 0 0-1.07 1.2 11.94 11.94 0 0 0-1.27-5 15.51 15.51 0 0 0-3.08-4.15 22.7 22.7 0 0 0-3.11-2.5l-1.35-.83.89 1a14.66 14.66 0 0 1 1.78 2.7c.62 1.25.99 2.61 1.06 4 .04.75-.01 1.49-.14 2.23-1.27-.49-2.57-.87-3.9-1.16l-.88-.18-.8-.13c-.5-.08-.92-.14-1.29-.17l-1.1-.1.82.35a7.56 7.56 0 0 1 .91.43l.54.27.55.33c.82.5 1.59 1.07 2.3 1.72a10.75 10.75 0 0 1 1.62 2h0c-.26.38-.45.77-.75 1.13a20.81 20.81 0 0 1-1.76 2c1.76-2-1.25 1.21-1.89 1.8l-.39-.94a30.01 30.01 0 0 0-2.61-4.49c-1.06-1.47-2.24-2.86-3.51-4.16-1.17-1.18-2.42-2.28-3.73-3.31a26.52 26.52 0 0 0-1.64-1.22c-.51-.35-.93-.67-1.32-.91l-1.18-.77.72.9c.27.32.53.65.77 1l.46.64c.14.23.3.47.45.73a22.1 22.1 0 0 1 2.79 6.51c-.89-.65-1.75-1.23-2.55-1.72-.49-.31-1-.58-1.38-.82s-.78-.45-1.09-.61l-1-.51a26.87 26.87 0 0 0 .51.65c.17.2.35.46.55.75s.44.62.66 1c.52.8.97 1.63 1.36 2.5.41.95.74 1.93 1 2.93a20.6 20.6 0 0 1 .25 1.28.74.74 0 0 1 0 .21c-.11 1-2.5 1.2-3.25.33a28.35 28.35 0 0 1-2.79-4c-.75-1.39-1.42-2.82-2-4.29-.54-1.39-1-2.71-1.36-3.84l-1.14-3.76s-.33 1.47-.75 3.72c-.21 1.12-.4 2.45-.57 3.88a37.65 37.65 0 0 0-.17 3.12c-.52-.69-.98-1.42-1.39-2.19a13.52 13.52 0 0 1-1.18-3.61c-.17-1.11-.17-2.24 0-3.35.03-.24.06-.48.11-.72l.16-.65c.08-.36.19-.72.33-1.07l.37-.93-.83.8a14.11 14.11 0 0 0-.89 1l-.53.6c-.17.21-.33.43-.51.67-.77 1.03-1.43 2.14-1.95 3.32-.54 1.28-.91 2.62-1.09 4-.14 1.36-.09 2.73.16 4.07a14.74 14.74 0 0 0 1.21 3.53l.2.42-.86-1.21c-1.24-1.84-2.27-3.82-3.07-5.89a23.96 23.96 0 0 1-.68-2.05l-.21-.79-.3.75c-.19.48-.44 1.16-.69 2-.54 1.84-.88 3.74-1 5.65l-2.29-3.07c-2.25-3.15-4.29-6.38-5.69-8.83-.72-1.23-1.27-2.26-1.66-3l-.6-1.14s0 .42.09 1.17.14 1.81.29 3.08c.32 2.71.77 5.41 1.36 8.08-.78-.79-1.61-1.53-2.48-2.23a14.09 14.09 0 0 0-1.35-1c-.42-.27-.77-.55-1.09-.75l-1-.63.5.75a9.61 9.61 0 0 1 .53.87 12.38 12.38 0 0 1 .6 1.14c.45.93.82 1.91 1.09 2.91.07.28.14.57.19.87-.3-.66-.63-1.31-1-1.94a24.11 24.11 0 0 0-2.74-3.76c-.96-1.08-2-2.08-3.11-3l-.71-.58-.69-.5c-.42-.32-.79-.58-1.13-.79l-1-.67.55.79c.18.25.37.56.58.91.1.18.21.37.33.56s.21.42.32.64a16.76 16.76 0 0 1 1.15 3.05 15.89 15.89 0 0 1 .45 3.37l-.46-.4a79.81 79.81 0 0 0-6.59-5l-2.33-1.52-.9-.56a60.29 60.29 0 0 0 1.48 2.48 41.01 41.01 0 0 1 2.55 5.56 9.1 9.1 0 0 1 .64 3c0 1.1-2.61 1.46-3.48.48-.35-.4-.71-.82-1.07-1.26-.98-1.25-1.88-2.57-2.7-3.94-.77-1.34-1.44-2.73-2-4.17-.46-1.24-.83-2.51-1.1-3.8-.12-.51-.21-1.03-.27-1.55a13.71 13.71 0 0 1-.14-1.21l-.08-1.06-.43 1c-.15.32-.29.72-.45 1.17s-.35 1-.51 1.53c-.26.87-.47 1.75-.63 2.64l-.53.33c-.39.24-.83.52-1.28.84a33.37 33.37 0 0 0-2.93 2.24c-.75.64-1.47 1.32-2.17 2l-1.73-2.36c-1-1.33-1.87-2.68-2.72-4v-.08c.62-1.29 1.18-2.37 1.57-3.12l.62-1.17-1.08 1-2 2a89.27 89.27 0 0 1-2.12-3.51 81.03 81.03 0 0 1-1.66-3l-.6-1.14s0 .42.09 1.17.14 1.81.3 3.08c.2 1.83.54 4.09 1 6.47l-1.62 1.79c-1.13 1.33-2.27 2.76-3.31 4.25l-1.38-1a61.6 61.6 0 0 0-5.56-3.25l-.41-.21c-.17-.14-.42-.35-.58-.5-.63-1.05-1.16-2.17-1.58-3.32-.16-.43-.3-.87-.41-1.32a8.56 8.56 0 0 1-.24-1l-.16-.92-.35.88a9.12 9.12 0 0 0-.35 1c-.15.43-.28.87-.37 1.32a15.41 15.41 0 0 0-.33 1.9c-1-.43-1.91-.78-2.72-1.08a39.41 39.41 0 0 0-1.72-.61l-1.52-.51 1.15.72a19.38 19.38 0 0 1 1.29.84l1.58 1.11c.58.42 1.21.91 1.83 1.43a19.73 19.73 0 0 0 .33 3.43c.28 1.32.69 2.61 1.22 3.85.38.85.82 1.67 1.29 2.47h-.4c-.08-.23-.15-.46-.24-.69a22.23 22.23 0 0 0-2-3.84c-.82-1.26-1.75-2.44-2.78-3.54a28.22 28.22 0 0 0-3-2.78 14.09 14.09 0 0 0-1.35-1c-.42-.27-.77-.56-1.09-.76.12-.29.25-.57.37-.83a19.38 19.38 0 0 1 .56-1.12l.53-1-1 .83c-.32.26-.68.59-1.09 1s-.87.81-1.339 1.29a37.57 37.57 0 0 0-3 3.33 38.87 38.87 0 0 0-2.07 2.95c-1.77-1.5-3.64-2.92-5.29-4.09.36-.7.76-1.39 1.18-2.06.895-1.33 1.898-2.58 3-3.75.26-.27.49-.54.74-.78l.72-.69c.45-.43.86-.81 1.22-1.11l1.14-.95-1.51.75c-.48.23-1 .53-1.68.89l-1 .56-1.07.65a48.53 48.53 0 0 0-4.75 3.28l-1.21 1-.37-.24-.9-.56a36.29 36.29 0 0 0 .77 1.24c-1 .87-1.92 1.78-2.79 2.71-.4.45-.77.9-1.14 1.35a32.14 32.14 0 0 1-1.43-3.14c-.459-1.24-.827-2.51-1.1-3.8a16.43 16.43 0 0 1-.27-1.55c-.06-.46-.12-.88-.14-1.21l-.08-1.07-.43 1c-.15.32-.29.71-.45 1.17a15.27 15.27 0 0 0-.5 1.53 24.84 24.84 0 0 0-.84 3.87c-.08.61-.14 1.25-.17 1.89a48.1 48.1 0 0 0-3.27-2.41l-1.08-.71c-.37-.22-.73-.44-1.07-.66s-.71-.41-1-.61-.66-.38-1-.52c-.508-.26-1.045-.46-1.6-.6a3.35 3.35 0 0 0-1 0 2.29 2.29 0 0 0-.58.1l-.19.06h.15a1.31 1.31 0 0 1 .39.09.75.75 0 0 1 .2.1l.21.14c.282.21.543.45.78.71l.53.62c.2.23.41.46.6.71l.59.75.58.8c.758 1.1 1.427 2.26 2 3.46a16.09 16.09 0 0 1 1.75 5.47c-2.78-2.08-4.71-4.76-8-6.83 1.273 1.63 2.217 3.5 2.78 5.49.31 1.13-.41 2.81-2.81 3-3.51.34-2.55-2.08-2.46-3.52.083-1.21.277-2.41.58-3.58.3-1.08.694-2.14 1.18-3.15a13.97 13.97 0 0 1 .64-1.27c.2-.37.39-.7.57-1l.54-.85-1 .69c-.31.21-.67.48-1.08.79s-.87.67-1.33 1.07a37.62 37.62 0 0 0-3 2.8 34.16 34.16 0 0 0-2.85 3.42l-.46.68c-.32-.75-.6-1.54-.85-2.34a21.92 21.92 0 0 1-.76-4.29c-.078-1.29-.031-2.58.14-3.86a14.6 14.6 0 0 1 .26-1.57c.079-.41.179-.81.3-1.21l.3-1.06-.79 1c-.26.3-.54.67-.86 1.1s-.68.92-1 1.47c-.842 1.25-1.581 2.56-2.21 3.93-.634 1.44-1.139 2.94-1.51 4.47-.327 1.5-.511 3.03-.55 4.56 0 .67 0 1.32.07 2-.37-.91-.72-1.93-1.05-3a32.85 32.85 0 0 1-.93-4.47 31.02 31.02 0 0 1-.22-4.58c.052-1.36.192-2.72.42-4.06.1-.59.21-1.14.33-1.63s.21-.91.32-1.26l.31-1.1-.8 1a23.56 23.56 0 0 0-.88 1.15c-.33.45-.71 1-1.08 1.52-.847 1.26-1.628 2.55-2.34 3.89a40.54 40.54 0 0 0-2 4.58 37.36 37.36 0 0 0-1.34 4.68l-.25 1.45c-.19-.43-.39-.86-.62-1.3-.05-.11-.12-.22-.18-.33a27.99 27.99 0 0 1-.23-2.44c-.115-2.66.158-5.31.81-7.89.13-.54.27-1 .41-1.48s.25-.83.37-1.15l.36-1-.84.88c-.27.28-.57.63-.92 1s-.74.84-1.14 1.34c-.82 1-1.69 2.17-2.56 3.45l-.78 1.23c-.8-.83-1.64-1.62-2.5-2.35-1.381-1.16-2.837-2.22-4.36-3.18l-1-.62-.93-.53-.64-.37a26.26 26.26 0 0 1 .79-2.81c.21-.7.45-1.33.68-1.89l.62-1.45.59-1.27-1.06 1.15c-.35.36-.74.81-1.17 1.33s-.94 1.1-1.43 1.75a46.45 46.45 0 0 0-3.09 4.51 42.95 42.95 0 0 0-2.49 5l-.4-.81a30.24 30.24 0 0 0-2.29-3.63c-.36-.51-.73-1-1.07-1.38s-.62-.76-.89-1.05l-.8-.89.3 1a13.65 13.65 0 0 1 .3 1.1 14.43 14.43 0 0 1 .3 1.44c.209 1.14.329 2.29.36 3.44a24.42 24.42 0 0 1-.37 4.11c-.171.87-.388 1.73-.65 2.58h0c-.976-1.78-2.068-3.49-3.27-5.12-1.266-1.68-2.629-3.29-4.08-4.81-1.46-1.48-2.87-2.82-4.19-3.93-.64-.55-1.26-1-1.82-1.49s-1-.81-1.46-1.11l-1.29-1 .83 1.08c.27.34.57.76.91 1.25s.72 1 1.09 1.63c.848 1.35 1.613 2.74 2.29 4.18.725 1.58 1.337 3.21 1.83 4.88a33.01 33.01 0 0 1 1 4.94c.13 1.37-1 33.88-1 33.88l350.139 3 70.7-1 11-34.15zm-405.129.35c-1.5 1.34-2.64 1.4-3.48.87-1.18-.74-1.78-2.62-2-3.68-.713-3.5-.774-7.1-.18-10.62.06-.36.13-.72.21-1.07l.47.49.61.71c.913 1.08 1.732 2.24 2.45 3.46.745 1.31 1.354 2.7 1.82 4.13.5 1.59 1.85 4.15.1 5.71zm57.35 1.29l-.27-.27c-.107-1.09-.107-2.18 0-3.27a19.06 19.06 0 0 1 .75-3.64 30.18 30.18 0 0 1 .78 1.94 36.37 36.37 0 0 1 1.48 5.24zm14.649-.05c-.54.26-1.24.08-2.149-.89a22.58 22.58 0 0 1-.28-3.33c.012-1.38.156-2.76.429-4.11.27-1.23.64-2.45 1.1-3.62v-.1c.09.15.18.31.27.48a12.38 12.38 0 0 1 .6 1.14c.45.93.82 1.91 1.09 2.91a15.95 15.95 0 0 1 .5 3.37c.07.67-.31 3.54-1.56 4.15zm25.33.07c-.36-.32-.64-.72-.81-1.16-.18-.45-.24-.93-.19-1.41 0-.31.1-.63.16-1a29.07 29.07 0 0 1 .76-2.88c.61 2.32 1.31 4.55 2 6.41zm12.53 0h-.12a15.84 15.84 0 0 1-.36-1.66 13.05 13.05 0 0 1-.09-2.93c.1-1.02.3-2.02.61-3 .3-.92.69-1.81 1.14-2.67-.32 2.82-.17 5.67.46 8.44l.18.71c.17.53-.68 1.09-1.81 1.09zm94.26-1.31c-.3.77-1.51 1.31-2.91 1.31v-1a52.57 52.57 0 0 1 .18-5.61 45.23 45.23 0 0 1 .58-4.4 23.22 23.22 0 0 0 .53 4.63c.43 1.67 1.01 3.29 1.75 4.85zm9.44-1a9.69 9.69 0 0 0-.37.81l-.42-.39c-.09-1.21-.01-2.43.22-3.63.3-1.35.77-2.65 1.4-3.88.64-1.19 1.4-2.31 2.27-3.35l.38-.45a21.84 21.84 0 0 0 .69 5.69 20.76 20.76 0 0 0-4.16 5.21zm6.5 2.28a7.19 7.19 0 0 1-.6-1.56 8.47 8.47 0 0 1-.22-2.07 21.44 21.44 0 0 0 2 3 9.81 9.81 0 0 0 .49.6zm32-2.09c0-.28 0-.56-.07-.85a21.69 21.69 0 0 0-1.08-4.62c-.26-.69-.55-1.37-.87-2 .78.77 1.52 1.59 2.21 2.44a22.62 22.62 0 0 1 2.48 3.93 18.43 18.43 0 0 1 1.15 3.22c-2.03-.02-3.71-.94-3.78-2.07zm22.3-4.82a25.62 25.62 0 0 1-.65 2.58h0a43.36 43.36 0 0 0-3-4.69 30.13 30.13 0 0 1 3.47-3.21l.45-.35c0 .51.06 1 .08 1.57.01 1.38-.09 2.75-.31 4.11zm17 4.77c-.25.75-.46 1.47-.64 2.14-2.53 0-4.69-1-5.06-2.45a33.29 33.29 0 0 1-.4-1.65 29.17 29.17 0 0 1-.18-10.62c.06-.36.13-.72.21-1.07l.47.49.6.71c.92 1.08 1.74 2.24 2.46 3.46a21.7 21.7 0 0 1 1.82 4.13 19.96 19.96 0 0 1 .72 4.2zm67.24-2a33.29 33.29 0 0 1-.4 1.65c-.37 1.41-2.53 2.45-5.06 2.45-.18-.67-.39-1.39-.64-2.14v-.66a19.96 19.96 0 0 1 .72-4.2c.47-1.43 1.08-2.82 1.82-4.13.72-1.22 1.54-2.38 2.46-3.46l.6-.71.47-.49c.08.35.15.71.21 1.07a28.95 28.95 0 0 1-.18 10.62zm11.59-.24a25.62 25.62 0 0 1-.65-2.58 24.63 24.63 0 0 1-.37-4.11c0-.54 0-1.06.08-1.57l.45.35a30.13 30.13 0 0 1 3.47 3.21c-1.07 1.52-2.04 3.11-2.91 4.75zm22.79-3.22a21.69 21.69 0 0 0-1.08 4.62c0 .29 0 .57-.07.85-.07 1.17-1.75 2.09-3.82 2.09.29-1.11.67-2.18 1.15-3.22a22.62 22.62 0 0 1 2.48-3.93c.69-.85 1.43-1.67 2.21-2.44-.25.71-.54 1.39-.8 2.08z" class="D"/><path d="M1127.474 332.507s-6.55 70.61-41.11 87.29l2.08 22.25s61.94-34.98 39.03-109.54z" class="I"/><path d="M1127.474 332.507s10.9 63.54-36.07 97.64l-2.1-12.33s28.7-9.94 38.17-85.31z" class="B C"/><path d="M1212.834 508.507l-14 53.72s35.51-12.26 72.71-49.69l-9.56-36.8c-15.53 16.13-32.18 28.33-49.15 32.77z" class="I"/><path d="M1218.574 505.507l-5.21 30.44c20.67-10.14 38.53-24 53.92-39.85l-5.28-20.19c-26.87 27.6-43.43 29.6-43.43 29.6z" class="B C"/><path d="M1036.704 344.507s67.2 119.79 140.35 134l14 39.5s-135.19-34.29-154.35-173.5z" class="I"/><path d="M1036.704 344.507s31.3 114.93 139.84 154.1l.75-20.07s-64.57-7.24-140.59-134.03z" class="B C"/><path d="M1167.854 296.447l-1.62 683.41 7.74-.01 56.08-205.53-22.04-478.63z" class="I"/><path d="M1195.164 296.247l4.97 587.72 29.92-109.65-22.04-478.63z" class="B C"/><use xlink:href="#C" class="D"/><path d="M560.354 457.947s-52.84 50.45-83.81 45.45l-14.31 18s59.07 5.11 98.12-63.45z" class="I"/><path d="M560.352 457.947s-38.12 54-88.2 55.91l8.8-11.3s21.63 7.95 79.4-44.61z" class="B C"/><path d="M332.792 445.777s-5 72.88-31.21 90.09l1.59 23s47.01-36.15 29.62-113.09z" class="I"/><path d="M332.794 445.777s8.27 65.58-27.38 100.78l-1.16-14.29s21.35-8.71 28.54-86.49z" class="B C"/><path d="M504.114 423.437s-51 123.64-106.53 138.29l-10.58 40.78s102.58-35.38 117.11-179.07z" class="I"/><path d="M504.114 423.437s-23.76 118.63-106.11 159.07l6.32-25.49s42.11-2.71 99.79-133.58z" class="B C"/><path d="M263.902 458.147s51 123.64 106.52 138.29l10.63 40.77s-102.61-35.37-117.15-179.06z" class="I"/><path d="M263.902 458.147s23.77 118.63 106.1 159.05l-6.32-25.49s-42.09-2.69-99.78-133.56z" class="B C"/><path d="M376.345 398.387l-14.13 547.42 55.62-1.72-23.91-546.27z" class="I"/><path d="M384.164 398.237l4.4 546.29 29.27-.44-23.91-546.27z" class="B C"/><use xlink:href="#D" class="D"/><use xlink:href="#D" opacity=".353" class="E"/><path d="M552.396 188.067c-15.19 73.18-115.53 129.73-237.16 129.73-65.54 0-124.91-16.44-168.13-43.05 8.24 34.19 39.06 61.36 78.83 70v2.93h312.2c52.57 0 95.16-35.94 95.16-80.3 0-40.3-35.12-73.51-80.9-79.31z" class="B C"/><use xlink:href="#E" class="D"/><use xlink:href="#E" opacity=".25" class="E"/><path d="M633.065 346.847c-11 53.1-83.79 94.1-172 94.1-47.54 0-90.6-11.93-121.94-31.23 6 24.8 28.32 44.51 57.16 50.77v2.11h226.43c38.13 0 69-26.07 69-58.24.04-29.22-25.43-53.29-58.65-57.51z" class="B C"/><use xlink:href="#F" class="D"/><use xlink:href="#F" opacity=".232" class="E"/><path d="M380.585 350.007c-11 53.08-83.79 94.11-172 94.11-47.55 0-90.61-11.93-121.94-31.23 6 24.79 28.32 44.5 57.16 50.74v2.12h226.44c38.13 0 69-26 69-58.23.03-29.22-25.44-53.31-58.66-57.51z" class="B C"/><path d="M207.516 446.507s39.93 61.17 71.24 63.4l9.82 20.8s-58.65-8.6-81.06-84.2z" class="I"/><path d="M207.516 446.507s24.81 61.27 73.11 74.58l-6-13s-22.85 2.75-67.11-61.58z" class="B C"/><use xlink:href="#C" opacity=".221" class="E"/><path d="M759.905 925.757l-1.46 1.11-1.82 1.49c-1.32 1.11-2.73 2.45-4.19 3.93-1.451 1.52-2.814 3.13-4.08 4.81-1.202 1.63-2.294 3.34-3.27 5.12-.262-.85-.479-1.71-.65-2.58a24.42 24.42 0 0 1-.37-4.11c.017-1.2.13-2.4.34-3.59l.3-1.44.3-1.1.3-1-.8.89-.89 1.05-1.07 1.38a30.24 30.24 0 0 0-2.29 3.63l-.4.81a42.95 42.95 0 0 0-2.49-5 46.45 46.45 0 0 0-3.09-4.51l-1.43-1.75-1.17-1.33-1.07-1.06.59 1.27c.2.4.4.89.62 1.45l.68 1.89a26.26 26.26 0 0 1 .79 2.81l-.64.37-.93.53-1 .62a39.72 39.72 0 0 0-4.36 3.18c-.86.73-1.7 1.52-2.5 2.35l-.78-1.23-2.56-3.45-1.14-1.34c-.35-.34-.65-.75-.92-1l-.84-.88.36 1 .37 1.15.41 1.48a27.3 27.3 0 0 1 .81 7.89c0 .82-.12 1.64-.23 2.44l-.18.33-.62 1.3-.25-1.45c-.323-1.6-.751-3.17-1.28-4.71a40.36 40.36 0 0 0-2-4.58c-.712-1.34-1.493-2.63-2.34-3.89l-1.08-1.52-.88-1.15-.8-1 .31 1.1c.11.35.21.77.32 1.26l.33 1.63c.228 1.34.368 2.7.42 4.06.04 1.53-.033 3.06-.22 4.58a32.7 32.7 0 0 1-.93 4.47l-1.05 3 .07-2c-.039-1.53-.223-3.06-.55-4.56-.403-1.51-.939-2.98-1.6-4.4a27.64 27.64 0 0 0-2.08-3.76l-1-1.47c-.3-.47-.6-.8-.86-1.1l-.79-1 .3 1.06c.121.4.221.8.3 1.21a14.6 14.6 0 0 1 .26 1.57c.171 1.28.218 2.57.14 3.86-.11 1.45-.364 2.89-.76 4.29l-.85 2.34-.46-.68a34.16 34.16 0 0 0-2.85-3.42c-.948-.99-1.95-1.92-3-2.8l-1.33-1.07-1.08-.79-1-.69.54.85c.18.27.37.6.57 1a13.97 13.97 0 0 1 .64 1.27c.486 1.01.881 2.07 1.18 3.15.303 1.17.498 2.37.58 3.58.09 1.44 1 3.86-2.46 3.52-2.4-.23-3.12-1.91-2.81-3 .563-1.99 1.507-3.86 2.78-5.49-3.33 2.07-5.26 4.75-8 6.83.251-1.91.844-3.77 1.75-5.47.573-1.2 1.242-2.36 2-3.46l.58-.8.59-.75c.19-.25.4-.48.6-.71l.53-.62c.237-.26.498-.5.78-.71l.21-.14a.75.75 0 0 1 .2-.1c.126-.05.257-.08.39-.09h.15l-.19-.06a2.29 2.29 0 0 0-.58-.1 3.35 3.35 0 0 0-1 0c-.555.14-1.092.34-1.6.6-.29.14-.62.33-1 .52s-.7.4-1 .61-.7.44-1.07.66l-1.08.71a48.1 48.1 0 0 0-3.27 2.41c0-.64-.09-1.28-.17-1.89a24.68 24.68 0 0 0-.78-3.87 15.27 15.27 0 0 0-.5-1.53c-.16-.46-.3-.85-.45-1.17l-.43-1s0 .39-.08 1.07c0 .33-.07.74-.14 1.21s-.14 1-.27 1.55c-.273 1.29-.641 2.56-1.1 3.8a32.14 32.14 0 0 1-1.43 3.14l-1.14-1.35c-.87-.93-1.81-1.84-2.79-2.71.46-.77.77-1.24.77-1.24l-.9.56-.37.24c-.4-.35-.8-.69-1.21-1a48.53 48.53 0 0 0-4.75-3.28l-1.07-.65-1-.56c-.64-.36-1.2-.66-1.68-.89l-1.51-.75 1.14.95c.36.3.77.68 1.22 1.11l.72.69c.25.24.48.51.74.77 1.1 1.17 2.103 2.43 3 3.76.42.67.82 1.36 1.18 2.06-1.65 1.17-3.52 2.59-5.29 4.09-.65-1-1.34-2-2.07-2.95a37.57 37.57 0 0 0-3-3.33c-.47-.48-.92-.91-1.34-1.29l-1.09-1-1-.83.53 1a19.38 19.38 0 0 1 .56 1.12l.37.83c-.32.2-.68.46-1.09.76l-1.35 1a28.05 28.05 0 0 0-3 2.78 26.58 26.58 0 0 0-2.78 3.54 22.09 22.09 0 0 0-2 3.84c-.09.23-.16.46-.24.69h-.4c.476-.8.907-1.62 1.29-2.47a20.99 20.99 0 0 0 1.22-3.85c.212-1.13.322-2.28.33-3.43.62-.52 1.23-1 1.83-1.43s1.09-.79 1.58-1.11.91-.62 1.29-.84l1.15-.72-1.52.51a39.41 39.41 0 0 0-1.72.61c-.81.3-1.74.65-2.72 1.08a16.2 16.2 0 0 0-.33-1.9 9.93 9.93 0 0 0-.37-1.32c-.095-.34-.212-.67-.35-1l-.35-.88-.16.92a8.56 8.56 0 0 1-.24 1c-.111.45-.248.89-.41 1.32-.419 1.15-.948 2.27-1.58 3.32l-.58.5-.41.21c-1.908.99-3.764 2.07-5.56 3.25a21.06 21.06 0 0 0-1.39 1c-1-1.49-2.17-2.92-3.3-4.25l-1.62-1.79c.48-2.38.82-4.64 1-6.47.16-1.27.25-2.34.3-3.08l.09-1.17-.6 1.14-1.66 3-2.12 3.51-2-2-1.08-1 .62 1.17c.39.75 1 1.83 1.57 3.12v.08c-.85 1.3-1.76 2.65-2.72 4l-1.73 2.36a23.79 23.79 0 0 0-2.17-2c-.935-.8-1.913-1.55-2.93-2.24-.45-.32-.89-.6-1.28-.84l-.53-.33a25.07 25.07 0 0 0-.63-2.64 21.06 21.06 0 0 0-.51-1.53c-.17-.46-.3-.85-.45-1.17l-.43-1-.08 1.06c0 .34-.07.75-.14 1.21a15.31 15.31 0 0 1-.27 1.55 25.6 25.6 0 0 1-1.1 3.8c-.562 1.44-1.23 2.83-2 4.17-.814 1.37-1.716 2.69-2.7 3.94-.36.44-.72.86-1.07 1.26-.87 1-3.48.62-3.48-.48a9.15 9.15 0 0 1 .64-3 41.01 41.01 0 0 1 2.55-5.56c.84-1.5 1.48-2.48 1.48-2.48l-.9.56-2.33 1.52c-2.281 1.55-4.481 3.22-6.59 5l-.46.4c.027-1.14.178-2.27.45-3.37.281-1.05.667-2.07 1.15-3.05l.32-.64c.12-.19.23-.38.33-.56.21-.35.4-.66.58-.91l.55-.79-1 .67c-.34.21-.71.47-1.13.79l-.69.5-.71.58a28.07 28.07 0 0 0-3.11 3c-1.034 1.16-1.955 2.42-2.75 3.76-.35.64-.67 1.29-.95 1.94 0-.3.12-.59.19-.87.272-1 .637-1.98 1.09-2.91a12.38 12.38 0 0 1 .6-1.14 9.84 9.84 0 0 1 .53-.87l.5-.75-1 .63c-.32.2-.68.46-1.09.75s-.88.64-1.35 1c-.867.7-1.695 1.44-2.48 2.23a81.47 81.47 0 0 0 1.36-8.08c.15-1.27.24-2.34.29-3.08l.09-1.17-.6 1.14c-.39.73-.94 1.76-1.66 3-1.4 2.45-3.44 5.68-5.69 8.83l-2.29 3.07c-.122-1.91-.458-3.81-1-5.65-.25-.83-.5-1.51-.69-2l-.3-.75-.21.79c-.13.5-.36 1.21-.68 2.05-.798 2.07-1.828 4.05-3.07 5.89-.28.41-.57.81-.86 1.21l.2-.42c.552-1.12.959-2.31 1.21-3.53.249-1.34.303-2.71.16-4.07a15.21 15.21 0 0 0-1.09-4c-.536-1.18-1.207-2.29-2-3.32l-.51-.67-.53-.6c-.278-.35-.575-.68-.89-1l-.83-.8.37.93c.138.35.248.71.33 1.07 0 .2.11.42.16.65a7.46 7.46 0 0 1 .11.72c.17 1.11.17 2.24 0 3.35-.216 1.25-.614 2.47-1.18 3.61a16.05 16.05 0 0 1-1.39 2.19c0-1.07-.08-2.12-.17-3.12-.17-1.43-.36-2.76-.57-3.88-.42-2.25-.75-3.72-.75-3.72s-.42 1.5-1.14 3.76c-.35 1.13-.82 2.45-1.36 3.84-.576 1.47-1.244 2.9-2 4.29a28.02 28.02 0 0 1-2.79 4c-.75.87-3.14.64-3.25-.33a1.47 1.47 0 0 1 0-.21 20.6 20.6 0 0 1 .25-1.28 18.24 18.24 0 0 1 2.38-5.43c.22-.36.45-.69.66-1s.38-.55.55-.75l.51-.65-1 .51c-.31.16-.68.37-1.09.61s-.89.51-1.38.82c-.8.49-1.66 1.07-2.55 1.72a22.15 22.15 0 0 1 2.79-6.51c.15-.26.31-.5.45-.73l.46-.64c.24-.35.497-.68.77-1l.72-.9-1.18.77c-.39.24-.83.55-1.32.91s-1.07.76-1.64 1.22c-1.309 1.03-2.555 2.13-3.73 3.31a36.71 36.71 0 0 0-3.51 4.16c-.995 1.42-1.869 2.92-2.61 4.49-.14.32-.26.63-.39.94-.64-.59-3.65-3.83-1.89-1.8a21.52 21.52 0 0 1-1.76-2c-.3-.36-.49-.75-.75-1.13a10.75 10.75 0 0 1 1.62-2c.707-.65 1.478-1.23 2.3-1.72l.55-.33.54-.27c.294-.16.598-.31.91-.43l.82-.35-1.1.1c-.37 0-.79.09-1.29.17l-.8.13-.88.18c-1.328.29-2.632.67-3.9 1.16a9.98 9.98 0 0 1-.14-2.23c.076-1.39.437-2.75 1.06-4a14.61 14.61 0 0 1 1.78-2.7l.89-1s-.49.29-1.35.83c-1.106.74-2.146 1.58-3.11 2.5a15.49 15.49 0 0 0-3.08 4.15c-.781 1.55-1.214 3.26-1.27 5a38.48 38.48 0 0 0-1.07-1.2c-2.46-2.77-5.25-5.41-6.41-6.5-.15-1.02-.387-2.02-.71-3l-.34-1.06-.39-.94-.35-.83c-.12-.26-.25-.49-.36-.7l-.7-1.31.2 1.38c0 .22.07.46.08.72v1.85c0 .34 0 .7-.07 1.06a19.9 19.9 0 0 1-1 4.93 25.9 25.9 0 0 1-2.31 4.79 30.3 30.3 0 0 0-3-2.91c-1.288-1.07-2.651-2.05-4.08-2.92l-.94-.58-.89-.49h-.07c-.083-1.39-.243-2.77-.48-4.14-.27-1.55-.56-2.81-.76-3.69l-.32-1.39-.19 1.41c-.13.89-.32 2.18-.62 3.72a28.2 28.2 0 0 1-4.32 10.93c-.668.94-1.403 1.82-2.2 2.65a25.1 25.1 0 0 1-2.63 2.34 27.25 27.25 0 0 1-3 2 30.72 30.72 0 0 1 .83-2.38c.977-2.38 2.251-4.63 3.79-6.7.32-.45.64-.86.93-1.21s.53-.67.76-.93l.69-.79-1.14.65a47.43 47.43 0 0 0-1.29.77l-1.64 1c-1.19.77-2.5 1.71-3.87 2.76s-2.72 2.21-4 3.43c-.83.79-1.61 1.6-2.35 2.41-.123-.36-.226-.72-.31-1.09a7.2 7.2 0 0 1 0-2.45c.158-.74.435-1.45.82-2.1.09-.15.16-.3.25-.43l.28-.38c.143-.22.308-.42.49-.61l.47-.52-.91.37c-.342.13-.676.29-1 .46l-.63.31c-.22.11-.42.24-.65.37-1.011.59-1.957 1.29-2.82 2.08-.44.41-.851.85-1.23 1.32-.358-1.08-.629-2.18-.81-3.3-.18-1.35-.217-2.71-.11-4.07.109-1.2.337-2.39.68-3.55l.22-.74.25-.66a9.83 9.83 0 0 1 .45-1.08l.43-.93-.93.84c-.31.27-.64.61-1 1l-.61.62-.63.71c-.971 1.11-1.854 2.3-2.64 3.55l-.86.39c-.35.16-.7.35-1.08.54a44.57 44.57 0 0 0-4.91 2.84 31.36 31.36 0 0 0-2.9 2.18c-.07-.53-.11-1.07-.13-1.61-.021-1.26.076-2.52.29-3.76.204-1.11.501-2.19.89-3.25.147-.44.321-.87.52-1.29.136-.34.29-.67.46-1l.44-.85-.93.75c-.31.25-.65.55-1 .9s-.84.74-1.28 1.19a34.04 34.04 0 0 0-2.83 3.18 28.94 28.94 0 0 0-2.55 3.93h0-.07l.24-1c.493-1.67 1.105-3.3 1.83-4.88.678-1.44 1.442-2.83 2.29-4.18.37-.6.75-1.15 1.09-1.63s.64-.91.91-1.25l.83-1.08-1.29 1c-.43.3-.91.68-1.46 1.11a51.35 51.35 0 0 0-1.82 1.49c-1.32 1.11-2.73 2.45-4.18 3.93-1 1-2 2.16-2.91 3.31-1.23-.76-2.44-1.45-3.62-2l-1.4-.71-.25-.11c0-.28.08-.55.13-.8a14.72 14.72 0 0 1 .3-1.44 13.65 13.65 0 0 1 .3-1.1l.3-1-.8.89c-.27.29-.56.64-.89 1.05s-.71.87-1.07 1.38l-.11.16-.42-.18c-.37-.16-.73-.29-1-.41l-2-.77 1.67 1c.26.16.56.32.86.52l.54.37c-.61.88-1.2 1.87-1.8 2.94l-.4.81a42.95 42.95 0 0 0-2.49-5 46.45 46.45 0 0 0-3.09-4.51c-.49-.65-1-1.23-1.43-1.75s-.82-1-1.17-1.33l-1.06-1.15.59 1.27c.2.4.4.89.62 1.45s.47 1.19.68 1.89a26.26 26.26 0 0 1 .79 2.81l-.64.37-.93.53-1 .62a39.72 39.72 0 0 0-4.36 3.18c-.86.73-1.7 1.52-2.5 2.35l-.78-1.23c-.87-1.28-1.73-2.46-2.56-3.45-.4-.5-.79-1-1.14-1.34s-.65-.75-.92-1l-.83-.88.35 1c.12.32.24.71.37 1.15s.29.94.41 1.48c.303 1.22.527 2.45.67 3.7.143 1.39.189 2.79.14 4.19 0 .82-.12 1.64-.23 2.44-.06.11-.13.22-.18.33-.22.44-.43.87-.62 1.3a29.09 29.09 0 0 0-.25-1.45 37.19 37.19 0 0 0-1.34-4.68 38.98 38.98 0 0 0-2-4.58c-.712-1.34-1.493-2.63-2.34-3.89-.37-.56-.74-1.07-1.08-1.52s-.62-.84-.88-1.15l-.8-1 .32 1.1c.1.35.2.77.31 1.26s.24 1 .33 1.63c.228 1.34.368 2.7.42 4.06.04 1.53-.033 3.06-.22 4.58a31.4 31.4 0 0 1-.93 4.47c-.33 1.09-.68 2.11-1 3 0-.63.06-1.28.07-2-.039-1.53-.223-3.06-.55-4.56-.37-1.53-.876-3.03-1.51-4.47a28.25 28.25 0 0 0-2.08-3.76c-.308-.51-.642-1-1-1.47-.32-.43-.6-.8-.86-1.1l-.79-1 .31 1.06c.1.33.19.74.29 1.21a14.6 14.6 0 0 1 .26 1.57c.171 1.28.218 2.57.14 3.86-.11 1.45-.364 2.89-.76 4.29a23.38 23.38 0 0 1-.34 1 15.08 15.08 0 0 1-.24 1.87c-.26 1.34-3.81 1.2-3.77-.15.078-1.21.272-2.41.58-3.58a20.18 20.18 0 0 1 1.17-3.15c.21-.47.44-.89.65-1.27l.57-1 .54-.85-1 .69c-.31.21-.67.48-1.08.79s-.87.67-1.34 1.07c-1.048.88-2.049 1.82-3 2.8a34.16 34.16 0 0 0-2.85 3.42l-.46.68c-.32-.75-.6-1.54-.85-2.34a21.92 21.92 0 0 1-.76-4.29c-.078-1.29-.031-2.58.14-3.86a14.6 14.6 0 0 1 .26-1.57c.1-.47.19-.88.29-1.21l.31-1.06-.79 1c-.26.3-.54.67-.86 1.1-.358.47-.691.96-1 1.47a27.75 27.75 0 0 0-2.08 3.76c-.634 1.44-1.139 2.94-1.51 4.47-.327 1.5-.511 3.03-.55 4.56 0 .67 0 1.32.07 2a24.52 24.52 0 0 1-1-3 31.54 31.54 0 0 1-.93-4.47 31.02 31.02 0 0 1-.22-4.58c.052-1.36.192-2.72.42-4.06.09-.59.21-1.14.33-1.63l.31-1.26.32-1.1-.8 1a23.56 23.56 0 0 0-.88 1.15c-.33.45-.71 1-1.08 1.52-.847 1.26-1.628 2.55-2.34 3.89a38.98 38.98 0 0 0-2 4.58 37.36 37.36 0 0 0-1.34 4.68l-.25 1.45c-.19-.43-.4-.86-.62-1.3 0-.11-.12-.22-.18-.33a27.99 27.99 0 0 1-.23-2.44 30.67 30.67 0 0 1 .14-4.19c.143-1.25.367-2.48.67-3.7.12-.54.27-1 .41-1.48s.25-.83.37-1.15l.35-1-.83.88c-.27.28-.57.63-.92 1s-.74.84-1.14 1.34c-.83 1-1.69 2.17-2.56 3.45l-.78 1.23c-.8-.83-1.64-1.62-2.5-2.35-1.381-1.16-2.837-2.22-4.36-3.18l-1-.62-.93-.53-.64-.37a26.26 26.26 0 0 1 .79-2.81c.21-.7.45-1.33.68-1.89l.62-1.45.59-1.27-1.06 1.15c-.35.36-.74.81-1.17 1.33s-.94 1.1-1.43 1.75a46.45 46.45 0 0 0-3.09 4.51 42.95 42.95 0 0 0-2.49 5l-.4-.81c-.6-1.07-1.19-2.06-1.8-2.94l.54-.37c.3-.2.6-.36.86-.52l1.67-1-2 .77c-.31.12-.67.25-1 .41l-.42.18-.11-.16c-.36-.51-.73-1-1.07-1.38s-.62-.76-.89-1.05l-.8-.89.3 1a13.65 13.65 0 0 1 .3 1.1 14.43 14.43 0 0 1 .3 1.44c.05.25.09.52.13.8l-.25.11-1.4.71c-1.18.58-2.39 1.27-3.62 2-.93-1.15-1.91-2.27-2.91-3.31-1.45-1.48-2.86-2.82-4.18-3.93-.64-.55-1.26-1-1.82-1.49s-1-.81-1.46-1.11l-1.29-1 .83 1.08c.27.34.57.76.91 1.25s.72 1 1.09 1.63c.848 1.35 1.613 2.74 2.29 4.18.725 1.58 1.337 3.21 1.83 4.88.09.32.16.63.24 1h-.07a28.94 28.94 0 0 0-2.55-3.93c-.876-1.12-1.822-2.18-2.83-3.18-.44-.45-.88-.84-1.28-1.19l-1-.9-.93-.75.44.85c.171.33.324.66.46 1 .199.42.373.85.52 1.29.389 1.06.686 2.14.89 3.25.214 1.24.311 2.5.29 3.76 0 .54-.06 1.08-.13 1.61-.94-.77-1.92-1.51-2.9-2.18a44.57 44.57 0 0 0-4.91-2.84c-.38-.19-.73-.38-1.08-.54l-.86-.39a28.07 28.07 0 0 0-2.64-3.55l-.63-.71-.61-.62-1-1-.93-.84.43.93c.15.3.29.66.45 1.08l.25.66.22.74c.343 1.16.571 2.35.68 3.55a19.23 19.23 0 0 1-.11 4.07c-.181 1.12-.452 2.22-.81 3.3a12.49 12.49 0 0 0-1.23-1.32 16.46 16.46 0 0 0-2.82-2.08c-.23-.13-.43-.26-.65-.37l-.63-.31c-.324-.17-.658-.33-1-.46l-.91-.37.47.52c.183.19.347.39.49.61l.28.38c.09.13.16.28.25.43.385.65.662 1.36.82 2.1a7.2 7.2 0 0 1 0 2.45c-.083.37-.187.73-.31 1.09-.74-.81-1.52-1.62-2.35-2.41a53.03 53.03 0 0 0-4-3.43c-1.35-1.05-2.68-2-3.87-2.76-.58-.38-1.14-.73-1.64-1s-.92-.56-1.29-.77l-1.14-.65.69.79a19.49 19.49 0 0 1 .76.93c.28.36.61.76.93 1.21 1.54 2.07 2.813 4.32 3.79 6.7a30.72 30.72 0 0 1 .83 2.38c-1.044-.6-2.047-1.27-3-2a25.1 25.1 0 0 1-2.63-2.34c-.796-.83-1.532-1.71-2.2-2.65a28.23 28.23 0 0 1-4.32-10.93c-.3-1.54-.49-2.83-.62-3.72l-.19-1.41-.32 1.39c-.2.88-.49 2.14-.76 3.69-.237 1.37-.397 2.75-.48 4.14h-.07l-.89.49-.94.58c-1.429.87-2.792 1.85-4.08 2.92a30.3 30.3 0 0 0-3 2.91 25.9 25.9 0 0 1-2.31-4.79 19.99 19.99 0 0 1-1-4.93c0-.36-.06-.72-.07-1.06s0-.66 0-1v-.85c0-.26.06-.5.08-.72l.2-1.38-.7 1.31c-.11.21-.24.44-.36.7s-.22.53-.35.83l-.39.94c-.12.34-.23.69-.34 1.06-.323.98-.56 1.98-.71 3-1.16 1.09-3.95 3.73-6.41 6.5a38.48 38.48 0 0 0-1.07 1.2c-.056-1.74-.489-3.45-1.27-5a15.45 15.45 0 0 0-3.08-4.15c-.964-.92-2.004-1.76-3.11-2.5l-1.35-.83.89 1a14.56 14.56 0 0 1 1.78 2.7c.623 1.25.984 2.61 1.06 4a9.86 9.86 0 0 1-.14 2.23c-1.268-.49-2.572-.87-3.9-1.16l-.88-.18-.8-.13c-.5-.08-.92-.14-1.29-.17l-1.1-.1.82.35c.312.12.616.27.91.43l.54.27.55.33c.822.49 1.593 1.07 2.3 1.72a10.75 10.75 0 0 1 1.62 2h0c-.26.38-.45.77-.75 1.13a21.37 21.37 0 0 1-1.76 2c1.76-2-1.25 1.21-1.89 1.8l-.39-.94c-.741-1.57-1.614-3.07-2.61-4.49a36.71 36.71 0 0 0-3.51-4.16c-1.175-1.18-2.421-2.28-3.73-3.31a26.52 26.52 0 0 0-1.64-1.22c-.51-.35-.93-.67-1.32-.91l-1.18-.77.72.9c.273.32.53.65.77 1l.46.64c.14.23.3.47.45.73a22.15 22.15 0 0 1 2.79 6.51c-.89-.65-1.75-1.23-2.55-1.72-.49-.31-1-.58-1.38-.82s-.78-.45-1.09-.61l-1-.51a26.87 26.87 0 0 0 .51.65c.17.2.35.46.55.75s.44.62.66 1c.514.8.969 1.63 1.36 2.5a20.73 20.73 0 0 1 1 2.93 20.6 20.6 0 0 1 .25 1.28 1.47 1.47 0 0 1 0 .21c-.11 1-2.5 1.2-3.25.33a28.02 28.02 0 0 1-2.79-4c-.773-1.39-1.457-2.82-2.05-4.29-.54-1.39-1-2.71-1.36-3.84l-1.14-3.76s-.33 1.47-.75 3.72c-.21 1.12-.4 2.45-.57 3.88a37.65 37.65 0 0 0-.17 3.12 16.05 16.05 0 0 1-1.39-2.19 13.21 13.21 0 0 1-1.18-3.61c-.17-1.11-.17-2.24 0-3.35a7.46 7.46 0 0 1 .11-.72c0-.23.11-.45.16-.65a7.54 7.54 0 0 1 .33-1.07l.37-.93-.83.8c-.315.32-.612.65-.89 1l-.53.6c-.17.21-.33.43-.51.67-.775 1.03-1.429 2.14-1.95 3.32a15.21 15.21 0 0 0-1.09 4c-.143 1.36-.089 2.73.16 4.07.251 1.22.658 2.41 1.21 3.53l.2.42-.86-1.21c-1.242-1.84-2.272-3.82-3.07-5.89a23.96 23.96 0 0 1-.68-2.05l-.21-.79-.3.75c-.19.48-.44 1.16-.69 2-.542 1.84-.878 3.74-1 5.65l-2.29-3.07c-2.25-3.15-4.29-6.38-5.69-8.83-.72-1.23-1.27-2.26-1.66-3l-.6-1.14s0 .43.09 1.17.14 1.81.29 3.08a81.47 81.47 0 0 0 1.36 8.08c-.785-.79-1.613-1.53-2.48-2.23a14.09 14.09 0 0 0-1.35-1c-.42-.27-.77-.55-1.09-.75l-1-.63.5.75c.192.28.369.57.53.87a12.14 12.14 0 0 1 .6 1.14c.453.93.818 1.91 1.09 2.91.07.28.14.57.19.87-.299-.66-.632-1.31-1-1.94-.788-1.34-1.706-2.6-2.74-3.76a27.98 27.98 0 0 0-3.11-3l-.71-.58-.69-.5c-.42-.32-.79-.58-1.13-.79l-1-.67.55.79c.18.25.37.56.58.91.1.18.21.37.33.56l.32.64a16.54 16.54 0 0 1 1.15 3.05c.272 1.1.423 2.23.45 3.37l-.46-.4a79.31 79.31 0 0 0-6.59-5c-.95-.64-1.76-1.16-2.33-1.52l-.9-.56a60.29 60.29 0 0 0 1.48 2.48 41.01 41.01 0 0 1 2.55 5.56 9.15 9.15 0 0 1 .64 3c0 1.1-2.61 1.46-3.48.48-.35-.4-.71-.82-1.07-1.26-.984-1.25-1.886-2.57-2.7-3.94-.77-1.34-1.438-2.73-2-4.17a25.6 25.6 0 0 1-1.1-3.8c-.116-.51-.206-1.03-.27-1.55a13.71 13.71 0 0 1-.14-1.21l-.08-1.06-.43 1c-.15.32-.29.72-.45 1.17s-.35 1-.51 1.53a25.32 25.32 0 0 0-.63 2.64l-.53.33c-.39.24-.83.52-1.28.84-1.017.69-1.995 1.44-2.93 2.24-.75.64-1.47 1.32-2.17 2l-1.73-2.36c-1-1.33-1.87-2.68-2.72-4v-.08c.62-1.29 1.18-2.37 1.57-3.12l.62-1.17-1.08 1-2 2a89.27 89.27 0 0 1-2.12-3.51 81.03 81.03 0 0 1-1.66-3l-.6-1.14s0 .42.09 1.17.14 1.81.3 3.08c.2 1.83.54 4.09 1 6.47l-1.62 1.79c-1.13 1.33-2.27 2.76-3.31 4.25l-1.38-1c-1.796-1.18-3.651-2.26-5.56-3.25l-.41-.21-.58-.5c-.631-1.05-1.16-2.17-1.58-3.32-.162-.43-.299-.87-.41-1.32a8.56 8.56 0 0 1-.24-1l-.16-.92-.35.88c-.138.33-.255.66-.35 1a9.93 9.93 0 0 0-.37 1.32 16.41 16.41 0 0 0-.33 1.9c-1-.43-1.91-.78-2.72-1.08a39.41 39.41 0 0 0-1.72-.61l-1.52-.51 1.15.72a19.38 19.38 0 0 1 1.29.84l1.58 1.11c.58.42 1.21.91 1.83 1.43a19.44 19.44 0 0 0 .33 3.43 20.99 20.99 0 0 0 1.22 3.85c.383.85.814 1.67 1.29 2.47h-.4c-.08-.23-.15-.46-.24-.69-.523-1.34-1.176-2.63-1.95-3.84-.826-1.26-1.755-2.44-2.78-3.54a28.05 28.05 0 0 0-3-2.78 14.09 14.09 0 0 0-1.35-1c-.42-.27-.77-.56-1.09-.76.12-.29.25-.57.37-.83a19.38 19.38 0 0 1 .56-1.12l.53-1-1 .83c-.32.26-.68.59-1.09 1s-.87.81-1.34 1.29a37.57 37.57 0 0 0-3 3.33 38.87 38.87 0 0 0-2.07 2.95c-1.77-1.5-3.64-2.92-5.29-4.09.36-.7.76-1.39 1.18-2.06a29.98 29.98 0 0 1 3-3.76c.26-.26.49-.53.74-.77l.72-.69c.45-.43.86-.81 1.22-1.11l1.14-.95-1.51.75c-.48.23-1 .53-1.68.89l-1 .56-1.07.65a48.53 48.53 0 0 0-4.75 3.28l-1.21 1-.37-.24-.9-.56a36.29 36.29 0 0 0 .77 1.24c-1 .87-1.92 1.78-2.79 2.71-.4.45-.77.9-1.14 1.35a32.14 32.14 0 0 1-1.43-3.14c-.459-1.24-.827-2.51-1.1-3.8a16.43 16.43 0 0 1-.27-1.55c-.06-.46-.12-.88-.14-1.21l-.08-1.07-.43 1c-.15.32-.29.71-.45 1.17a15.27 15.27 0 0 0-.5 1.53 24.84 24.84 0 0 0-.84 3.87c-.08.61-.14 1.25-.17 1.89a48.1 48.1 0 0 0-3.27-2.41l-1.08-.71c-.37-.22-.73-.44-1.07-.66s-.71-.41-1-.61-.66-.38-.95-.52c-.508-.26-1.045-.46-1.6-.6a3.35 3.35 0 0 0-1 0 2.29 2.29 0 0 0-.58.1l-.19.06h.15a1.31 1.31 0 0 1 .39.09.75.75 0 0 1 .2.1l.21.14c.282.21.543.45.78.71l.53.62c.2.23.41.46.6.71l.59.75.58.8a24.99 24.99 0 0 1 2.05 3.46 16.09 16.09 0 0 1 1.75 5.47c-2.78-2.08-4.71-4.76-8-6.83 1.273 1.63 2.217 3.5 2.78 5.49.31 1.13-.41 2.81-2.81 3-3.51.34-2.55-2.08-2.46-3.52.083-1.21.277-2.41.58-3.58.3-1.08.694-2.14 1.18-3.15a13.97 13.97 0 0 1 .64-1.27c.2-.37.39-.7.57-1l.54-.85-1 .69c-.31.21-.67.48-1.08.79s-.87.67-1.33 1.07a37.62 37.62 0 0 0-3 2.8 34.16 34.16 0 0 0-2.85 3.42l-.46.68c-.32-.75-.6-1.54-.85-2.34a21.92 21.92 0 0 1-.76-4.29c-.078-1.29-.031-2.58.14-3.86a14.6 14.6 0 0 1 .26-1.57c.079-.41.179-.81.3-1.21l.3-1.06-.79 1c-.26.3-.54.67-.86 1.1s-.68.92-1 1.47c-.828 1.2-1.56 2.46-2.19 3.78-.634 1.44-1.139 2.94-1.51 4.47-.327 1.5-.511 3.03-.55 4.56 0 .67 0 1.32.07 2a24.52 24.52 0 0 1-1-3 32.85 32.85 0 0 1-.93-4.47 31.02 31.02 0 0 1-.22-4.58c.052-1.36.192-2.72.42-4.06.1-.59.21-1.14.33-1.63s.21-.91.32-1.26l.31-1.1-.8 1a23.56 23.56 0 0 0-.88 1.15c-.33.45-.71 1-1.08 1.52-.847 1.26-1.628 2.55-2.34 3.89a40.54 40.54 0 0 0-2 4.58 37.36 37.36 0 0 0-1.34 4.68l-.25 1.45c-.19-.43-.39-.86-.62-1.3 0-.11-.12-.22-.18-.33a27.99 27.99 0 0 1-.23-2.44c-.115-2.66.158-5.31.81-7.89.13-.54.27-1 .41-1.48s.25-.83.37-1.15l.36-1-.84.88c-.27.28-.57.63-.92 1s-.74.84-1.14 1.34c-.82 1-1.69 2.17-2.56 3.45l-.78 1.23c-.8-.83-1.64-1.62-2.5-2.35-1.381-1.16-2.837-2.22-4.36-3.18l-1-.62-.93-.53-.64-.37a26.26 26.26 0 0 1 .79-2.81c.21-.7.45-1.33.68-1.89l.62-1.45.59-1.27-1.06 1.15c-.35.36-.74.81-1.17 1.33s-.94 1.1-1.43 1.75a46.45 46.45 0 0 0-3.09 4.51 42.95 42.95 0 0 0-2.49 5l-.4-.81a30.24 30.24 0 0 0-2.29-3.63c-.36-.51-.73-1-1.07-1.38s-.62-.76-.89-1.05l-.8-.89.3 1a13.65 13.65 0 0 1 .3 1.1 14.43 14.43 0 0 1 .3 1.44 22.35 22.35 0 0 1 .31 3.44 24.42 24.42 0 0 1-.37 4.11c-.171.87-.388 1.73-.65 2.58h0c-.976-1.78-2.068-3.49-3.27-5.12a53.38 53.38 0 0 0-4.09-4.81c-1.45-1.48-2.86-2.82-4.18-3.93-.64-.55-1.26-1-1.82-1.49s-1-.81-1.46-1.11l-1.29-1 .83 1.08c.27.34.57.76.91 1.25s.72 1 1.09 1.63c.848 1.35 1.613 2.74 2.29 4.18.725 1.58 1.337 3.21 1.83 4.88a33.01 33.01 0 0 1 1 4.94c.13 1.37 0 37.88 0 37.88h346.05l351.4 2-3-39.88c.207-1.67.542-3.32 1-4.94.493-1.67 1.105-3.3 1.83-4.88.678-1.44 1.442-2.83 2.29-4.18.37-.6.75-1.15 1.09-1.63s.64-.91.91-1.25l.83-1.08zm-675.9 19.51c-1.5 1.34-2.64 1.4-3.48.87-1.18-.74-1.78-2.62-2-3.68-.713-3.5-.774-7.1-.18-10.62.06-.36.13-.72.21-1.07l.47.49.61.71c.913 1.08 1.732 2.24 2.45 3.46.745 1.31 1.354 2.7 1.82 4.13.5 1.59 1.85 4.15.1 5.71zm57.35 1.29l-.27-.27a16.75 16.75 0 0 1 0-3.26 18.85 18.85 0 0 1 .75-3.65 30.18 30.18 0 0 1 .78 1.94 36.37 36.37 0 0 1 1.48 5.24zm14.65-.05c-.54.26-1.24.08-2.15-.89a22.58 22.58 0 0 1-.28-3.33c.012-1.38.156-2.76.43-4.11a23.1 23.1 0 0 1 1.1-3.62c-.005-.03-.005-.07 0-.1.093.15.183.31.27.48a11.27 11.27 0 0 1 .6 1.14c.453.93.818 1.91 1.09 2.91.285 1.1.452 2.23.5 3.37.07.67-.31 3.54-1.56 4.15zm25.33.07c-.36-.32-.639-.72-.813-1.16-.174-.45-.238-.93-.187-1.41 0-.31.1-.63.16-1 .201-.97.454-1.93.76-2.88.61 2.32 1.31 4.55 2 6.41zm12.53 0h-.12a14.45 14.45 0 0 1-.36-1.66c-.141-.97-.172-1.95-.09-2.93a14.86 14.86 0 0 1 .61-3c.303-.92.684-1.81 1.14-2.67-.322 2.82-.166 5.67.46 8.44l.18.71c.17.53-.68 1.09-1.81 1.09zm94.26-1.31c-.3.77-1.51 1.31-2.91 1.31v-1c-.042-1.87.018-3.74.18-5.61a45.23 45.23 0 0 1 .58-4.4 23.22 23.22 0 0 0 .53 4.63c.427 1.67 1.013 3.29 1.75 4.85zm9.44-1a9.69 9.69 0 0 0-.37.81l-.42-.39c-.088-1.21-.014-2.44.22-3.63a16.13 16.13 0 0 1 1.4-3.88c.641-1.19 1.401-2.31 2.27-3.35l.38-.45a21.67 21.67 0 0 0 .69 5.69 20.65 20.65 0 0 0-4.16 5.21zm6.5 2.28a6.71 6.71 0 0 1-.6-1.56 8.52 8.52 0 0 1-.22-2.07c.582 1.05 1.251 2.06 2 3a9.81 9.81 0 0 0 .49.6zm32-2.09c0-.28 0-.56-.07-.85-.191-1.57-.554-3.12-1.08-4.62-.26-.69-.55-1.37-.87-2a29.66 29.66 0 0 1 2.21 2.44c.956 1.22 1.787 2.54 2.48 3.93a18.85 18.85 0 0 1 1.15 3.22c-2.03-.02-3.71-.94-3.78-2.07zm22.3-4.82c-.171.87-.388 1.73-.65 2.58h0c-.9-1.63-1.902-3.19-3-4.69a30.05 30.05 0 0 1 3.47-3.21l.45-.35c0 .51.06 1 .08 1.57.013 1.38-.091 2.75-.31 4.11zm17 4.77c-.25.75-.46 1.47-.64 2.14-2.53 0-4.69-1-5.06-2.45a33.29 33.29 0 0 1-.4-1.65c-.713-3.5-.774-7.1-.18-10.62.06-.36.13-.72.21-1.07l.47.49.6.71a24.49 24.49 0 0 1 2.46 3.46c.745 1.31 1.354 2.7 1.82 4.13a19.58 19.58 0 0 1 .72 4.2zm67.24-2a33.29 33.29 0 0 1-.4 1.65c-.37 1.41-2.53 2.45-5.06 2.45-.18-.67-.39-1.39-.64-2.14v-.66a19.64 19.64 0 0 1 .72-4.2 22.48 22.48 0 0 1 1.82-4.13c.718-1.22 1.541-2.38 2.46-3.46l.6-.71.47-.49c.08.35.15.71.21 1.07.594 3.52.533 7.12-.18 10.62zm11.59-.24c-.262-.85-.479-1.71-.65-2.58a24.42 24.42 0 0 1-.37-4.11c0-.54 0-1.06.08-1.57l.45.35c1.241.98 2.401 2.05 3.47 3.21a44.07 44.07 0 0 0-2.91 4.75zm22.79-3.22a22.06 22.06 0 0 0-1.08 4.62c0 .29-.05.57-.07.85-.07 1.17-1.75 2.09-3.82 2.09a18.85 18.85 0 0 1 1.15-3.22c.693-1.39 1.524-2.71 2.48-3.93a29.84 29.84 0 0 1 2.21-2.44c-.25.71-.54 1.39-.8 2.08zm31.48 6a6.71 6.71 0 0 1-.6 1.56h-1.64a9.81 9.81 0 0 0 .49-.6 21.53 21.53 0 0 0 2-3 8.55 8.55 0 0 1-.18 2.09zm6.69-.3l-.42.39a9.69 9.69 0 0 0-.37-.81 20.66 20.66 0 0 0-4.17-5.2 21.67 21.67 0 0 0 .69-5.69l.38.45c.869 1.04 1.63 2.16 2.27 3.35a16.13 16.13 0 0 1 1.4 3.88 13.76 13.76 0 0 1 .29 3.68zm11.59.84v1c-1.4 0-2.61-.54-2.91-1.31l-.1-.24c.737-1.56 1.323-3.18 1.75-4.85a23.22 23.22 0 0 0 .53-4.63 45.23 45.23 0 0 1 .58 4.4c.177 1.88.25 3.76.22 5.65zm91.8-.69a14.45 14.45 0 0 1-.36 1.66h-.12c-1.13 0-2-.56-1.82-1.19l.18-.71c.626-2.77.782-5.62.46-8.44a17.04 17.04 0 0 1 1.14 2.67 14.79 14.79 0 0 1 .61 3 12.84 12.84 0 0 1-.02 3.06zm12.06 1.7h-1.88c.65-1.86 1.35-4.09 2-6.41.306.95.56 1.91.76 2.88.06.32.12.64.16 1a3.02 3.02 0 0 1-.181 1.39c-.168.44-.439.83-.789 1.15zm27.47-1c-.91 1-1.61 1.15-2.15.89-1.24-.59-1.62-3.46-1.6-4.15a16.21 16.21 0 0 1 .5-3.37c.272-1 .637-1.98 1.09-2.91a11.27 11.27 0 0 1 .6-1.14c.087-.17.177-.33.27-.48a.28.28 0 0 1 0 .1 23.1 23.1 0 0 1 1.1 3.62c.274 1.35.418 2.73.43 4.11a22.46 22.46 0 0 1-.17 3.43zm12.78.69l-.27.27h-2.58a36.37 36.37 0 0 1 1.48-5.24 30.18 30.18 0 0 1 .78-1.94 18.85 18.85 0 0 1 .75 3.65 16.69 16.69 0 0 1-.09 3.36zm62.57-3.83c-.23 1.06-.83 2.94-2 3.68-.84.53-2 .47-3.48-.87-1.75-1.56-.4-4.12.11-5.71a22.48 22.48 0 0 1 1.82-4.13c.718-1.22 1.537-2.38 2.45-3.46l.61-.71.47-.49c.08.35.15.71.21 1.07.594 3.52.533 7.12-.18 10.62z" class="D"/><path d="M1104.344 187.157c-86.36 0-164.58-21.66-221.53-56.73 10.87 45.06 51.48 80.85 103.87 92.2v3.88h210.56l-11.92-45.87a497.37 497.37 0 0 1-80.98 6.52z" class="B C"/><use xlink:href="#G" class="D"/><use xlink:href="#G" opacity=".5" class="E"/><path d="M1135.794 306.097c7.87 32.66 37.32 58.64 75.32 66.88v2.79h24.89l-9.14-35.26c-34.68-6.91-65.77-18.84-91.07-34.41z" class="B C"/><path d="M962.414 333.177s52.61 59.27 93.86 61.43l12.94 20.15s-77.28-8.25-106.8-81.58z" class="I"/><path d="M962.414 333.177s32.69 59.36 96.33 72.26l-6.38-10.78s-31.63.85-89.95-61.48z" class="B C"/><use xlink:href="#H" class="D"/><use xlink:href="#H" opacity=".113" class="E"/><path d="M963.354 333.207c-62.65 0-119.35-15.7-160.67-41.16 7.86 32.67 37.32 58.63 75.32 66.86v.6l298.34 2.18a102.44 102.44 0 0 0 52.39-14l-35.87-138.07-2.9-.42c-14.51 69.94-110.4 124.01-226.61 124.01z" class="B C"/><path d="M1204.004 983.017h-1178a1.51 1.51 0 0 1-1.061-.44c-.281-.28-.439-.66-.439-1.06s.158-.78.439-1.06a1.51 1.51 0 0 1 1.061-.44h1178a1.5 1.5 0 0 1 1.5 1.5 1.5 1.5 0 0 1-1.5 1.5z" fill="#d4d6d8"/><g class="G"><path d="M333.374 573.567l2.5 5.59c.033.055.08.101.136.132a.37.37 0 0 0 .184.048h3.39c1.19 0 2.66-.25 2.78 1.43 0 .47.77.47.74 0-.23-3-3.94-2.17-6-2.17h-.73c-.4 0 .2.35.06 0l-.84-1.88-1.6-3.57c-.19-.43-.82-.05-.63.37z"/><path d="M336.196 578.597c-1.92 0-5.05-.6-5.18 2.17 0 .47.71.47.73 0 .05-1 .74-1.43 1.67-1.43h2.78a.37.37 0 0 0 .37-.37.37.37 0 0 0-.37-.37z"/></g><use xlink:href="#I" fill="#dadddf"/><use xlink:href="#I" opacity=".1" class="B"/><path d="M318.633 569.387c.832.589 1.793.968 2.803 1.106s2.038.029 2.997-.316c0 0-1.75 1.94 1.36 2.32s9.49-2.13 9.49-2.13-1.51 2.31.8 2.17 7.08-2.78 11-6.82 9.51-10.51 6-18.12c-2.81-6.11-11.73-10.08-24.46 4.17z" fill="#dadddf"/><use xlink:href="#J" class="D"/><use xlink:href="#J" class="C L"/><path d="M350.073 550.437a1.81 1.81 0 0 1-1.117 1.672 1.81 1.81 0 0 1-1.973-.392 1.81 1.81 0 0 1-.392-1.973 1.81 1.81 0 0 1 .667-.812c.297-.199.647-.305 1.005-.305a1.82 1.82 0 0 1 1.277.533c.339.339.531.798.533 1.277z" class="B"/><path d="M355.154 549.087s3.76 1.86 3.85 2.62-3.64 3.24-3.64 3.24-1.68-3.57-.21-5.86z" class="J"/><g class="G"><path d="M331.655 574.147l2.5 5.58c.031.057.078.103.134.135s.121.048.186.045h3.39c1.19 0 2.66-.25 2.79 1.43 0 .47.77.48.73 0-.23-3-3.94-2.16-6-2.16h-.73c-.4 0 .2.34.06.05l-.84-1.88-1.6-3.57c-.19-.43-.82-.06-.63.37z"/><path d="M334.473 579.177c-1.92 0-5-.61-5.18 2.16 0 .48.71.47.74 0 .05-1.05.74-1.43 1.66-1.43h2.78a.37.37 0 0 0 .222-.126c.056-.067.087-.152.087-.239a.37.37 0 0 0-.309-.365z"/></g><path d="M307.324 567.857s15.68-13.28 19.68-15.35 10.48-1.56 12.13 4.09c1.81 6.22-4.39 17.3-21.87 11.31l-5.26 8.2z" class="L"/><g class="E"><path d="M318.176 563.777s.89 1.51 5.48-2.14c0 0-1.95 2.57-.37 3s5.85-2.63 5.85-2.63-2.18 2.16-.35 2.78 4.83-2 5.51-3.6 2.18-5.25-.79-6.9-8.1.29-11.64 3.13-4.55 4.67-3.69 6.36z" class="C"/><path d="M348.755 550.677a.38.38 0 0 0 0-.76.38.38 0 0 0 0 .76z"/></g><path d="M940.343 726.672c7.03-1.483 23.426-1.701 30.745-1.512 9.463-.211 18.533 7.031 19.531 16.627 2.264 6.602-8.373 32.249-9.73 38.83l-25.226-8.915 4.457-13.85-39.09 1.462-8.908 15.833-19.292-10.363c6.166-12.015 10.546-33.592 26.315-36.193z" class="J"/><path d="M929.96 705.828l.042 21.83s12.317 12.374 27.166-2.461l-6.419-32.657z" class="H"/><use xlink:href="#K" class="L"/><use xlink:href="#K" opacity=".3" class="B"/><path d="M921.143 695.562s-13.625 2.109-13.358 23.904c0 0 17.759-.155 20.564-15.242zm-8.971-31.243s-4.457 10.391 2.96 18.279l1.983-20.283z" class="G"/><path d="M947.01 708.302c-.042-.052-.092-.095-.15-.127a.49.49 0 0 0-.187-.058.5.5 0 0 0-.195.02c-.063.02-.122.051-.172.094-1.644 1.415-3.557 2.482-5.624 3.136l-10.546.436-.197 4.043s6.988 1.497 10.729-3.459h.056c.12 0 2.883-.612 6.243-3.382a.5.5 0 0 0 .166-.343.49.49 0 0 0-.124-.36z" class="B F"/><path d="M935.725 712.19l1.406-.098c9.843-.9 17.021-9.955 16.065-20.227l-2.461-31.131c-.302-3.445-3.227-1.012-6.524-.703l-23.362 2.025c-4.218.401-6.398-.64-5.962 3.825l1.273 29.275c1.04 10.229 9.772 17.914 19.566 17.035z" class="H"/><path d="M949.266 691.548l3.803-.858.155 3.332z" class="B F"/><path d="M934.115 688.933a2.03 2.03 0 0 1-1.182-.148c-.37-.166-.682-.439-.896-.785s-.318-.747-.302-1.152a2.03 2.03 0 0 1 .395-1.123c.241-.326.574-.573.958-.709a2.03 2.03 0 0 1 1.19-.05c.393.102.746.32 1.014.625s.439.683.489 1.086a1.99 1.99 0 0 1-1.666 2.257z" class="G"/><path d="M933.046 687.027c-.108.01-.216-.023-.299-.091s-.139-.167-.15-.275a.37.37 0 0 1 .048-.225c.037-.069.095-.125.164-.162a.4.4 0 0 1 .226-.044c.078.008.153.039.213.088s.106.116.13.191.025.155 0 .231-.065.143-.125.194-.133.084-.21.093z" class="E"/><path d="M919.667 689.952a2.03 2.03 0 0 1-2.077-.933c-.214-.345-.319-.746-.302-1.152s.155-.797.396-1.123.574-.574.957-.709a2.03 2.03 0 0 1 2.204.574 2.03 2.03 0 0 1 .489 1.086c.039.258.027.52-.036.773s-.174.491-.329.7-.35.387-.572.521-.471.224-.728.262z" class="G"/><path d="M918.605 687.956c-.083.015-.169.004-.246-.03s-.142-.091-.187-.163a.43.43 0 0 1-.063-.24.47.47 0 0 1 .083-.233c.05-.068.12-.12.2-.147s.166-.031.247-.009a.42.42 0 0 1 .21.131c.055.064.09.143.1.227a.41.41 0 0 1-.078.302c-.065.087-.16.145-.266.162zm7.818 11.671a.38.38 0 0 0-.156.072.36.36 0 0 0-.106.135.39.39 0 0 0-.035.168.36.36 0 0 0 .044.166c.545.913 1.346 1.644 2.304 2.106s2.03.632 3.083.491a5.43 5.43 0 0 0 4.511-3.926c.042-.26-.063-.499-.387-.464z" class="E"/><path d="M913.648 669.269s12.367 8.437 31.419 6.693l2.714 12.121 4.921 1.983.499 4.457 8.901.499s5.442-1.322 5.449-3.958v-13.358l-34.126-20.304-19.791 3.951z" class="G"/><path d="M947.952 692.687s8.535-.703 8.943-9.667-10.208-9.006-10.258.07l.38 9.843z" class="H"/><g class="B"><path d="M953.555 678.816a2.88 2.88 0 0 0-2.647-.286c-.432.169-.816.44-1.12.79a2.87 2.87 0 0 0-.627 1.218c-.447 1.137-.579 2.374-.38 3.579l.141.921c.077.703 1.258.703 1.132-.112l-.077-1.026a6.6 6.6 0 0 1 .281-2.946 2.45 2.45 0 0 1 1.153-1.406c.301-.082.616-.103.925-.061a2.34 2.34 0 0 1 .875.307.6.6 0 0 0 .759-.281c.011-.144-.023-.289-.097-.413a.71.71 0 0 0-.318-.283z" class="F"/><path d="M927.428 696.252l2.58-.084c.146-.025.281-.096.384-.202s.171-.242.193-.389a.7.7 0 0 0-.569-.605l-2.587.084c-.159.001-.316-.03-.463-.089a1.2 1.2 0 0 1-.659-.651 1.21 1.21 0 0 1-.094-.462c-.008-.322.103-.636.309-.883a1.33 1.33 0 0 1 .816-.46c.145-.027.278-.098.38-.204a.7.7 0 0 0 .19-.387.7.7 0 0 0-.569-.605c-.619.051-1.194.341-1.602.811s-.615 1.079-.578 1.699c-.043.315-.015.636.082.939s.26.581.477.813.484.413.78.529a2.14 2.14 0 0 0 .932.144z" opacity=".023"/></g><path d="M1008.589 795.475l-19.271-58.888-28.495 24.438 22.034 49.284z" class="J"/><path d="M989.811 738.07s.991 4.45-.499 11.875l1.976 6.433 12.866 41.649 4.436-2.559z" class="B C"/><path d="M951.544 823.216l-85.069-30.014c-2.864-.692-5.851-.691-8.716.001s-5.521 2.057-7.753 3.981a18.56 18.56 0 0 0-5.078 7.083c-1.106 2.731-1.545 5.686-1.282 8.62l-.359 103.757 26.716.998 5.969-70.74 63.767 30.407 34.189-34.351z" fill="#79a4b7"/><path d="M966.59 672.756s7.874-22.238-10.841-29.676-30.934-2.292-38.886 10.3z" fill="#82b7cd"/><path d="M962.94 844.139l-3.586-2.292-14.764 19.341a4.56 4.56 0 0 1-2.331 1.606c-.928.274-1.919.246-2.83-.081l-67.887-24.255 4.45 8.437 63.809 30.231 7.98-12.507-.844-.288z" class="B C"/><use xlink:href="#L" fill="#82b7cd"/><use xlink:href="#L" opacity=".3" class="E"/><path d="M871.599 908.208l-28.825-.598a1.74 1.74 0 0 0-.728.134c-.231.094-.44.236-.614.415a1.8 1.8 0 0 0-.396.625c-.087.234-.125.483-.112.732l1.336 26.422s-31.905-.703-30.231 24.368l58.81-.773 2.552-49.411c.013-.244-.025-.489-.109-.719s-.214-.44-.381-.618-.369-.322-.593-.42a1.82 1.82 0 0 0-.71-.155z" class="J"/><path d="M871.037 955.137l-.211 4.359-58.782.731-.035-4.352z" class="G"/><path d="M865.79 918.771c.013-2.182-4.405-3.978-9.868-4.01s-9.903 1.711-9.915 3.893 4.405 3.977 9.868 4.01 9.903-1.711 9.915-3.892z" class="K"/><path d="M955.023 688.932s19.475 5.624 10.7 30.998c0 0-22.406-7.108-14.293-28.017z" class="G"/><path d="M951.242 692.048a29.59 29.59 0 0 0 8.985-.584l2.151 2.067s-7.67 1.976-11.762.492z" class="L"/><path d="M865.012 887.208l-.569 20.74 7.361.274 1.434-30.927z" class="B C"/><path d="M871.244 880.375h33.511v80.985h-33.511z" fill="#88898c"/><path d="M897.755 880.375h7v80.985h-7z" opacity=".258" fill="#222329"/><path d="M933.159 679.012a6.43 6.43 0 0 0-2.61 1.05c-.782.539-1.434 1.244-1.911 2.064-1.289-.38-2.672-.283-3.895.274-.63-.994-1.531-1.787-2.598-2.286s-2.253-.681-3.42-.527a6.54 6.54 0 0 0-5.399 7.396c.09.84.345 1.655.75 2.396s.952 1.397 1.611 1.927 1.414.925 2.225 1.163a6.42 6.42 0 0 0 2.501.223 6.54 6.54 0 0 0 4.206-2.601c1.008-1.384 1.434-3.107 1.186-4.802a7.71 7.71 0 0 0-.633-2.109c.989-.399 2.077-.48 3.115-.232a6.88 6.88 0 0 0-.464 3.515c.182 1.696 1.031 3.25 2.358 4.32s3.026 1.57 4.722 1.389c1.688-.296 3.197-1.232 4.211-2.615a6.64 6.64 0 0 0-1.208-9.118c-1.339-1.071-3.039-1.583-4.746-1.429zm-12.725 12.782c-.726.081-1.461.018-2.163-.186s-1.355-.544-1.925-1.001-1.043-1.023-1.394-1.663a5.55 5.55 0 0 1-.649-2.071c-.223-1.467.143-2.961 1.017-4.16s2.187-2.002 3.651-2.238c.726-.081 1.461-.018 2.162.186a5.53 5.53 0 0 1 1.926 1.001c.569.457 1.043 1.022 1.394 1.663s.571 1.344.649 2.07c.366 3.143-1.758 6.06-4.668 6.419zm14.37-.492a5.55 5.55 0 0 1-2.163-.186c-.701-.204-1.356-.544-1.925-1.001s-1.043-1.023-1.394-1.663a5.55 5.55 0 0 1-.649-2.071c-.223-1.467.144-2.963 1.019-4.162a5.63 5.63 0 0 1 3.656-2.236c.726-.08 1.46-.016 2.16.188a5.54 5.54 0 0 1 1.924 1.002c.569.457 1.042 1.022 1.392 1.662a5.55 5.55 0 0 1 .648 2.069 5.62 5.62 0 0 1-4.654 6.419z" class="E"/><path d="M919.59 670.261s5.435 7.424 20.283 7.431" stroke="#21252b" stroke-width="1.06" class="M N"/><path d="M965.97 956.311c25.036-3.326 98.962-23.271 98.962-23.271l-3.452-25.732c-43.048 2.953-95.489 10.693-95.489 10.693l50.992-51.681a35.01 35.01 0 0 0 8.842-17.986c1.132-6.729.272-13.641-2.473-19.888l-14.764-32.973a29.25 29.25 0 0 1-14.202-2.976 29.26 29.26 0 0 1-11.024-9.433c-19.285-25.732-18.42-57.995-18.42-57.995l-5.308.098-.998 26.716-27.707 2.96-2.96-27.068-4.921.344-2.995 42.577c-.506 21.795 20.768 25.739 20.768 25.739l17.787 47.997-41.937 69.715a59.09 59.09 0 0 0-4.303 8.915c-7.087 18.673.26 27.173 6.637 32.003 3.403 2.573 12.535 3.93 16.796 3.705-.014 0 15.327-.485 30.168-2.461z" fill="#73a7bd"/><use xlink:href="#M" opacity=".5" class="E"/><path d="M942.825 794.313l33.128-8.148a.5.5 0 0 1 .598.366l4.218 17.471a.49.49 0 0 1-.018.307.48.48 0 0 1-.2.234l-15.362 9.498a.51.51 0 0 1-.351.063l-16.395-2.918c-.086-.015-.166-.054-.233-.111s-.117-.13-.147-.212l-5.624-15.903c-.023-.067-.032-.14-.025-.212s.031-.14.068-.202a.47.47 0 0 1 .146-.155.49.49 0 0 1 .198-.079z" opacity=".3" class="B"/><path d="M910.914 863.016c8.88-14.434 37.543-47.597 37.543-47.597l14.574-51.752 18.188 7.67-15.467 50.437a15.94 15.94 0 0 1-3.923 6.559l-40.313 40.651-1.097 2.454-7.916 20.1c-.277.732-.655 1.42-1.125 2.046l-2.889 3.424a16.7 16.7 0 0 1-1.09 1.406l-.921 1.083a1.08 1.08 0 0 1-.434.322 1.09 1.09 0 0 1-.536.072c-.155-.022-.303-.079-.433-.167s-.238-.202-.318-.338-.127-.286-.139-.442.011-.313.068-.459l.26-.703a14.87 14.87 0 0 1-2.763 3.642h0l-.106.042a1.05 1.05 0 0 1-.552.051c-.186-.032-.359-.112-.503-.234h0a1.03 1.03 0 0 1-.197-1.357l.555-.837-1.315 1.554c-.153.19-.36.328-.594.396s-.483.063-.714-.016a1.14 1.14 0 0 1-.661-.586c-.065-.137-.103-.285-.11-.437s.016-.303.068-.446l.253-.38-1.062 1.118c-.359.374-.831.621-1.343.703h0c-.167.028-.339.01-.496-.052s-.295-.166-.399-.3a.93.93 0 0 1-.187-.463.96.96 0 0 1 .077-.493l5.055-11.143.569-12.472-4.964 4.844c-3.101 2.285-4.092 3.361-5.512 3.431a1.41 1.41 0 0 1-.785-.203c-.236-.143-.424-.352-.542-.602a1.41 1.41 0 0 1-.12-.801c.039-.273.159-.529.342-.735l8.662-11.586c1.222-1.341 2.705-2.418 4.359-3.164z" class="H"/><path d="M898.343 899.238l4.865-8.521 1.547-10.342m-3.852 19.157l5.723-8.423 2.355-9.245m-3.994 15.974l4.148-6.011 2.636-7.909" class="F M N" stroke="#000" stroke-width=".61"/><path d="M921.558 868.986l40.313-40.651c1.82-1.836 3.167-4.088 3.923-6.559l14.019-45.741-5.041-1.61-12.205 43.006a19.42 19.42 0 0 1-4.675 8.155l-37.965 39.568a8.92 8.92 0 0 0-1.954 3.171l-7.727 21.605s-1.694 4.218-4.282 2.109c0 0-3.691 5.744-5.132 2.812 0 0-2.861 4.338-3.874.429l-2.025 4.492a.94.94 0 0 0-.079.484c.017.166.078.324.177.458s.232.24.385.305a.94.94 0 0 0 .486.067c.534-.071 1.029-.318 1.406-.703l1.062-1.118-.253.38c-.052.143-.075.294-.068.446a1.19 1.19 0 0 0 .11.437 1.13 1.13 0 0 0 .271.361 1.14 1.14 0 0 0 .389.226 1.19 1.19 0 0 0 1.308-.38l1.315-1.554-.555.837a1.03 1.03 0 0 0 .197 1.357h0c.143.121.317.202.503.234a1.07 1.07 0 0 0 .552-.051l.105-.042c1.103-1.064 2.035-2.293 2.763-3.642l-.26.703a1.04 1.04 0 0 0-.067.459 1.06 1.06 0 0 0 .139.442 1.04 1.04 0 0 0 .318.338 1.05 1.05 0 0 0 .433.167c.181.022.366 0 .536-.072a1.09 1.09 0 0 0 .434-.322l.921-1.083a16.68 16.68 0 0 0 1.09-1.406l2.89-3.424c.47-.626.848-1.315 1.125-2.046l7.916-20.1z" class="B F"/><path d="M967.052 743.504l-7.431 25.725 20.775 6.44 8.915-29.675z" class="J"/><path d="M1052.312 907.906c-40.974 2.489-86.321 10.096-86.321 10.096l50.992-51.681c4.637-5.005 7.711-11.256 8.843-17.985a35.01 35.01 0 0 0-2.473-19.889l-14.764-32.972c-1.789.051-3.578-.047-5.35-.296h0l14.061 32.509s8.437 19.299-3.48 33.149l-54.494 57.285c-.505.502-.845 1.145-.976 1.844a3.51 3.51 0 0 0 .24 2.073 3.52 3.52 0 0 0 1.372 1.574c.606.373 1.311.548 2.021.513l90.694-11.508z" class="B C"/><path d="M1047.658 907.583l2.861 28.663a1.83 1.83 0 0 0 .222.703c.122.218.286.408.484.555.197.155.424.26.666.323a1.87 1.87 0 0 0 .737.028l26.069-4.507s3.121 29.282 27.827 24.607l-7.839-55.794-49.354 3.403a1.82 1.82 0 0 0-.701.196c-.218.112-.411.267-.567.456s-.273.407-.342.642a1.79 1.79 0 0 0-.062.724z" class="J"/><path d="M1094.341 902.499l4.352-.309 7.783 55.802-4.317.555z" class="G"/><path d="M1061.072 931.803c2.165-.246 3.417-4.851 2.791-10.279-.619-5.428-2.882-9.625-5.048-9.377-2.172.249-3.424 4.85-2.798 10.278.619 5.426 2.882 9.623 5.055 9.377z" class="K"/><path d="M921.424 749.451l-12.887 23.306 3.586 2.39 8.908-16.325zm61.553-20.458s9.02 8.676-6.433 45.481l4.345 1.195s11.664-28.34 8.809-37.916c0 0-.696-4.478-6.721-8.76z" class="C B"/><path d="M866.066 895.736l.267 1.062a1.39 1.39 0 0 0 .184.553 1.4 1.4 0 0 0 .393.431c.16.115.341.195.534.235a1.45 1.45 0 0 0 .583 0h0c.283-.079.531-.256.697-.498s.244-.537.216-.83l-.112-1.202c.158.347.399.65.702.882s.658.385 1.035.446c.366-.042.707-.211.963-.476a1.6 1.6 0 0 0 .443-.979l1.406-8.282 4.528-10.026 2.869 5.786c1.406 3.593 1.406 4.162 2.58 4.985a1.4 1.4 0 0 0 .778.252 1.39 1.39 0 0 0 .786-.223 1.41 1.41 0 0 0 .529-.623c.11-.255.143-.538.094-.812l-3.185-12.845-3.916-10.356c3.255-10.068 10.166-33.908 13.745-53.545a6.98 6.98 0 0 1 .668-1.856l18.701-33.184-18.216-9.386-17.38 37.1a6.09 6.09 0 0 0-.506 1.68l-9.344 60.167-5.16 17.211c-.155.766-.205 1.549-.148 2.327l.373 5.856a16.9 16.9 0 0 0 .155 1.793l.19 1.406c.017.155.068.304.15.436a1.04 1.04 0 0 0 .321.33c.14.086.299.134.464.141a1.26 1.26 0 0 0 1.266-1.019h0l-.105 2.454c-.011.216.034.43.131.622s.243.356.424.475h0c.25.167.551.238.848.202s.573-.177.776-.399z" class="H"/><path d="M868.78 895.103l1.027-9.744 3.431-8.064m-7.186 17.682l.752-10.265 2.974-7.909m-5.948 15.334l.148-8.43 2.222-6.728" class="F M N" stroke="#000" stroke-width=".61"/><path d="M889.822 805.809l-13.871 54.592c-.301 1.179-.361 2.406-.176 3.608a9.03 9.03 0 0 0 1.252 3.388c3.023 4.921 7.867 13.92 8.057 20.389a1.36 1.36 0 0 0 .435-.598c.087-.236.107-.491.057-.738l-3.185-12.844-2.721-7.812c-1.23-2.58-1.23-2.58-.38-5.273 3.55-11.172 9.604-32.797 12.894-50.851.134-.648.359-1.273.668-1.856l18.701-33.185-3.628-1.596z" class="B F"/><use xlink:href="#M" x="-38.099" y="4.935" opacity=".5" class="E"/><path d="M97.104 911.787c-4.16-4.95-8.89-9.89-12.51-15.26-.8-1.19-4.95-8.82-1.52-7.88s6.45 6.68 7.9 9.48 3 5.59 4.33 8.45c.679 1.23 1.245 2.51 1.69 3.84 0 .17.4 1.71.11 1.37z" class="D"/><path d="M117.354 952.627c.55-8.79.73-17.6.47-26.41-.267-8.87-.984-17.73-2.15-26.53-1.08-8.374-2.581-16.688-4.5-24.91a136.61 136.61 0 0 0-7-21.8 89.07 89.07 0 0 0-11.31-19.71l-1.71-2.14c-.37-.45-1 .2-.63.64 4.767 5.845 8.741 12.294 11.82 19.18a126.83 126.83 0 0 1 7.32 21.59 237.29 237.29 0 0 1 4.69 24.34c1.259 8.73 2.07 17.52 2.43 26.34.36 8.71.29 17.44-.17 26.14l-.19 3.27c0 .57.86.57.9 0z" class="J"/><use xlink:href="#N" class="D"/><g class="B"><use xlink:href="#N" class="C"/><path d="M100.353 844.687c-2.429-.712-4.585-2.145-6.181-4.109a12.49 12.49 0 0 1-2.759-6.891c-1.24 1.48-1.3 4 1.22 8.43 3.16 5.55 5.84 6.09 8 4.84a3.75 3.75 0 0 0 1.8-2c-.702.006-1.402-.085-2.08-.27z" class="F"/></g><path d="M117.565 951.707c-.406-2.92-.503-5.87-.29-8.81.22-3.88.671-7.75 1.35-11.58a144.01 144.01 0 0 1 7.47-27.14 181.23 181.23 0 0 1 8.36-18.32c3.048-5.856 6.43-11.532 10.13-17 5.07-7.5 10.63-14.64 16.39-21.6l2.58-3.07c.37-.44-.27-1.08-.64-.64-6.12 7.25-12 14.69-17.48 22.48a176.98 176.98 0 0 0-10.77 17.56c-3 5.59-5.73 11.34-8.15 17.19-3.664 8.9-6.425 18.15-8.24 27.6-.789 4.01-1.36 8.06-1.71 12.13a54.61 54.61 0 0 0-.08 9.56 29.25 29.25 0 0 0 .24 1.88c.1.62 1 .33.87-.24z" class="J"/><use xlink:href="#O" class="D"/><g class="B"><use xlink:href="#O" class="C"/><path d="M152.317 857.087c2.466-.592 4.693-1.92 6.386-3.808s2.772-4.246 3.094-6.762c1.16 1.55 1.09 4.08-1.65 8.36-3.44 5.39-6.14 5.79-8.27 4.43-.808-.47-1.413-1.221-1.7-2.11a7.72 7.72 0 0 0 2.14-.11z" class="F"/></g><use xlink:href="#P" class="D"/><use xlink:href="#P" class="B C"/><use xlink:href="#Q" class="D"/><use xlink:href="#Q" class="B C"/><g class="D"><path d="M115.937 953.267h.84c0-.56-.11-1.14-.13-1.59-.107-2.48-.364-4.94-.77-7.39-.86-5.34-2.458-10.53-4.75-15.42-4.27-9-10.57-17.17-19.44-21.9-.84-.45-10.7-4.81-11-3.48-.17.64 3.24 2.5 3.78 2.89 1.75 1.27 3.48 2.59 5.16 4 7.39 6 14.49 12.62 19.15 21 3.632 6.83 6.055 14.23 7.16 21.89z"/><use xlink:href="#R"/></g><use xlink:href="#R" class="C E"/><use xlink:href="#S" class="D"/><use xlink:href="#S" class="B C"/><g class="D"><path d="M115.264 864.667l.76 9.27c1.06 13.85 1.66 27.76 1.46 41.65l-.16 37.69h1.09v-5.61l.58-11.62 1.88-23.24c.91-13.46 1.74-27-1.18-40.25-.628-2.957-1.436-5.872-2.42-8.73-.48-1.37-1-2.72-1.6-4.06-.14-.33-.58-1.91-1-1.38-.28.32.1 1.76.13 2.16l.46 4.12z"/><path d="M119.335 953.267c.46-4 1-9.25 1.37-11.08 1.05-5.32 2.26-10.61 3.68-15.84 2.28-8.38 5.79-16.52 9.36-24.43l2.84-6.16c.26-.53 2-3.4 1-3.35-.5 0-1.73 1.47-2.13 1.83a32.64 32.64 0 0 0-2.33 2.39 40.16 40.16 0 0 0-3.91 5.12c-4.92 7.66-6.86 16.5-8.52 25.33-1.447 8.67-2.405 17.41-2.87 26.19z"/><use xlink:href="#T"/></g><use xlink:href="#T" class="C E"/><use xlink:href="#U" class="D"/><use xlink:href="#U" class="B C"/><g transform="matrix(.841879 0 0 .841879 652.73628 23.20592)"><path d="M-130.374 705.359h7v-87.53h-6.32c-5.55 0-10.05 4.85-10.05 10.84l-.71 65.82c.03 6.01 4.55 10.87 10.08 10.87z" class="J"/><path d="M-125.396 707.489h7v-89.66h-7.71c-5.55 0-8.63 3.83-8.63 10l-.71 68.57c0 6.12 4.54 11.09 10.05 11.09z" class="G"/><path d="M-115.905 552.409h70.7c8.72 0 15.79 6.35 15.79 14.18v128.86c0 7.83-7.07 14.17-15.79 14.17h-73c-8.72 0-15.78-6.34-15.78-14.17l2.29-128.86c-.03-7.83 7.04-14.18 15.79-14.18z" class="J"/><g class="G"><path d="M-100.279 557.319l59.75-2.06c3.572.071 6.97 1.557 9.447 4.131a13.48 13.48 0 0 1 3.763 9.599v124.05a13.48 13.48 0 0 1-.91 5.191c-.642 1.654-1.604 3.165-2.832 4.446s-2.695 2.308-4.32 3.02a13.47 13.47 0 0 1-5.148 1.133l-61.08 2.84a13.48 13.48 0 0 1-9.446-4.132c-2.477-2.574-3.831-6.026-3.764-9.598l1.33-124.83c-.041-1.774.269-3.538.911-5.192a13.48 13.48 0 0 1 2.831-4.446c1.228-1.281 2.696-2.307 4.32-3.02s3.375-1.097 5.148-1.132z"/><path d="M-59.69 562.729a2.13 2.13 0 0 1-1.211-.369 2.14 2.14 0 0 1-.789-.991l-2.54-6.54a6.47 6.47 0 0 0-2.394-2.575c-1.019-.621-2.191-.948-3.385-.945H-84.18a6.54 6.54 0 0 0-6.11 4.25l-1.48 5.55a2.13 2.13 0 0 1-.367.746 2.11 2.11 0 0 1-.625.549 2.1 2.1 0 0 1-.787.268 2.13 2.13 0 0 1-.83-.053c-.271-.072-.525-.197-.747-.368a2.12 2.12 0 0 1-.549-.625 2.13 2.13 0 0 1-.268-.787 2.11 2.11 0 0 1 .054-.83l1.56-5.81c.748-2.093 2.125-3.903 3.942-5.183a10.78 10.78 0 0 1 6.207-1.967h14.171c2.007-.003 3.975.558 5.679 1.619s3.077 2.578 3.96 4.381l.08.18 2.591 6.6a2.15 2.15 0 0 1-.228 1.989c-.197.288-.462.523-.771.686s-.653.246-1.001.245z"/></g><path d="M-17.545 564.879l32.38 9.841a17.16 17.16 0 0 1 7.96 5.392c2.086 2.519 3.408 5.582 3.811 8.827l9.12 63.171h-18.44v70.289H-87.605v-70.72h-35.24l2.071-61.72c.044-3.762 1.319-7.406 3.631-10.375s5.532-5.099 9.168-6.065l39.891-9.21z" class="D"/><g class="C E"><path d="M15.632 688.539h-103v1.3h103.04zm.35 10.67h-103.35v1.3h103.39zm.34 10.66h-103.69v1.31h103.73zm-7.98-138.67h-90.29l-.17 1.3h90.76zm1.608 10.67h-93.32l-.17 1.3h93.79zm3.181 10.66h-97.85l-.18 1.31h98.34zm.824 10.67h-100.12l-.18 1.31h100.61zm1.697 10.67h-103.02v1.3h103.06zm.66 10.67h-103.68v1.3h103.72zm.36 10.66h-104.04v1.31h104.08zm.3 10.67h-104.34v1.31h104.38zm.36 10.67h-104.7v1.3h104.74zm.35 10.66h-105.05v1.31h105.1zm-2.4 10.67h-102.65v1.31h102.7z" opacity=".779"/><path d="M16.672 720.539h-104.04v1.31h104.08z" class="C"/></g><g class="B"><path d="M-32.846 474.189a17.46 17.46 0 0 1 9.98-.936c3.347.67 6.424 2.306 8.85 4.706 8.6 8.42 2.53 14 10.11 18.2s2 15.72 10.9 21 3 18.2-6.09 20.05c0 0-4.37 12-14 10.87 0 0-8.87 10.27-26.17 3.74l-6.36-2.69zm-39.209 3.54s-11.62 1.55-13.87 12.19-1.43 8.12-7.82 13.53 1.69 11.54-3.37 17c-2.59 2.76-3.84 5-4.05 7.63a9.79 9.79 0 0 0 1.73 6.26c1.247 1.803 3.093 3.107 5.21 3.68 3 .86 5.34 3.72 7.09 7.63 3.47 7.73 15.87 4.37 15.87 4.37s11.71 7 18.88 1.81-3.63-77.15-3.63-77.15z"/><path d="M-21.86 473.939s-4.86-11.11-22.31-11.11-22.87 17.11-22.87 17.11l25.4 13.84z"/></g><path d="M-16.963 534.899a4.1 4.1 0 1 0 0-8.2 4.1 4.1 0 1 0 0 8.2z" class="D"/><path d="M-16.97 526.699c-.276-.001-.551.03-.82.09.916.195 1.737.699 2.326 1.427a4.09 4.09 0 0 1 0 5.145 4.09 4.09 0 0 1-2.326 1.428c.27.056.545.083.82.08.555.027 1.11-.058 1.63-.252s.997-.49 1.399-.873a4.09 4.09 0 0 0 .942-1.355c.219-.51.332-1.06.332-1.615a4.1 4.1 0 0 0-1.274-2.97c-.402-.383-.878-.68-1.399-.874s-1.075-.279-1.63-.251z" class="B C"/><g class="H"><path d="M-70.04 564.829s9.17-1.48 8.06-6.82l1-35.58 31.53-6.37 4.64 42.3c.16 1.28.692 2.483 1.532 3.461s1.948 1.688 3.188 2.039l4.64 1.48-3.65 36.49z"/><path d="M-17.819 526.879l-1.09-28.56c-.082-2.484-1.112-4.843-2.88-6.59a8.65 8.65 0 0 0-2.96-1.922c-1.108-.43-2.293-.627-3.48-.578l-27.13 1.28c-.911.039-1.803.267-2.62.67-.832.409-1.573.98-2.18 1.68-.619.716-1.094 1.544-1.4 2.44a7.68 7.68 0 0 0-.42 2.82l1.18 30.71a23.22 23.22 0 0 0 1.91 8.31 21.82 21.82 0 0 0 4.76 6.9c1.98 1.926 4.326 3.436 6.9 4.44a19.77 19.77 0 0 0 8 1.3l1.58-.1a20.35 20.35 0 0 0 7.903-2.078c2.467-1.22 4.66-2.929 6.447-5.022 3.752-4.362 5.72-9.98 5.51-15.73z"/></g><path d="M-39.474 522.189c.471.002.933-.137 1.326-.397s.699-.633.88-1.068a2.37 2.37 0 0 0-.514-2.598 2.37 2.37 0 0 0-2.598-.514 2.38 2.38 0 0 0-1.068.881c-.26.393-.398.854-.396 1.326 0 .628.249 1.231.694 1.675s1.047.695 1.676.695z" class="B"/><path d="M-38.485 520.739a.49.49 0 0 0 .269-.088.48.48 0 0 0 .176-.222c.036-.089.044-.188.024-.282s-.067-.181-.136-.248-.156-.113-.251-.132-.193-.007-.282.03-.165.1-.218.18a.49.49 0 0 0-.044.461.48.48 0 0 0 .109.161c.046.045.102.081.162.105a.5.5 0 0 0 .191.035z" class="E"/><path d="M-20.998 522.189c.472.002.933-.137 1.326-.397a2.38 2.38 0 0 0 .881-1.068c.181-.435.229-.915.138-1.377s-.319-.888-.652-1.221a2.37 2.37 0 0 0-2.598-.514c-.436.181-.807.488-1.068.881s-.399.854-.397 1.326a2.37 2.37 0 0 0 2.37 2.37z" class="B"/><path d="M-20.006 520.649c.131-.002.255-.056.347-.15a.5.5 0 0 0-.004-.703.5.5 0 0 0-.707 0 .5.5 0 0 0-.146.353c0 .067.013.133.039.194s.063.117.111.163.103.084.165.108a.48.48 0 0 0 .195.035z" class="E"/><g class="B"><path d="M-61.376 537.259l3.55-7.12h-3.36z" class="F"/><path d="M-26.299 526.829a2.86 2.86 0 0 0-3.06-2.57c-.172.039-.323.143-.42.29s-.142.317-.12.49a.78.78 0 0 0 .25.45.71.71 0 0 0 .48.15 1.67 1.67 0 0 1 1 .4 1.59 1.59 0 0 1 .53 1 1.43 1.43 0 0 1-.049.556c-.054.181-.142.348-.261.494a1.43 1.43 0 0 1-.446.368c-.172.091-.36.146-.554.162l-3.16.3c-.17.039-.319.139-.42.28s-.14.325-.11.5a.69.69 0 0 0 .24.44.72.72 0 0 0 .49.16l3.16-.3a2.59 2.59 0 0 0 1.09-.28 2.5 2.5 0 0 0 .85-.73 2.43 2.43 0 0 0 .46-1c.089-.371.089-.759 0-1.13z" opacity=".023"/></g><path d="M-57.904 530.039l-2.37-11.27c-2.67-10.27-15.32-7.31-12.25 2.87s13.44 8.4 13.44 8.4z" class="H"/><path d="M-70.08 516.829a.74.74 0 0 0 .47.23c.183.02.367-.026.52-.13.248-.295.569-.522.93-.66s.747-.188 1.13-.14a2.33 2.33 0 0 1 1.06.42c.312.224.563.524.73.87.649.977 1.057 2.095 1.19 3.26l.2 1.19c.09 1 1.48.59 1.38-.2l-.1-1.09c-.109-1.445-.622-2.831-1.48-4a3.79 3.79 0 0 0-1.14-1.18 3.84 3.84 0 0 0-1.53-.6c-.56-.037-1.121.038-1.65.22-.526.189-1.006.485-1.41.87a.88.88 0 0 0-.3.39.85.85 0 0 0 0 .5z" class="B F"/><path d="M-21.067 509.829c-1.301.126-2.559.531-3.688 1.189s-2.102 1.552-2.853 2.621a8.08 8.08 0 0 0-5.44.09 8.74 8.74 0 0 0-3.49-3.25 8.61 8.61 0 0 0-4.68-.92 8.78 8.78 0 0 0-5.73 2.713c-1.506 1.586-2.365 3.677-2.41 5.864a8.78 8.78 0 0 0 7.781 8.903 8.87 8.87 0 0 0 5-.89c1.546-.789 2.825-2.018 3.676-3.532a8.81 8.81 0 0 0 1.103-4.978c-.102-.971-.348-1.921-.73-2.82a7.54 7.54 0 0 1 4.36-.09 8.76 8.76 0 0 0-.919 3.905c0 1.356.315 2.693.919 3.905.597 1.215 1.466 2.276 2.54 3.1s2.323 1.389 3.65 1.65a8.74 8.74 0 0 0 4.007-.139c1.306-.355 2.513-1.009 3.524-1.911s1.802-2.021 2.308-3.277a8.77 8.77 0 0 0 .611-3.963 9 9 0 0 0-3.102-6.017c-1.777-1.525-4.08-2.297-6.418-2.153zm-18.721 16.06a7.6 7.6 0 0 1-5.263-1.551c-1.5-1.155-2.515-2.828-2.847-4.692a7.6 7.6 0 0 1 1.055-5.385c1.01-1.601 2.581-2.768 4.405-3.272 1.444-.4 2.973-.364 4.396.102a7.59 7.59 0 0 1 3.604 2.518 7.61 7.61 0 0 1 1.561 3.739 7.62 7.62 0 0 1-.58 4.01c-.552 1.259-1.434 2.346-2.554 3.144a7.61 7.61 0 0 1-3.806 1.387zm20 .36c-1.114.086-2.233-.076-3.277-.474s-1.988-1.02-2.764-1.825a7.58 7.58 0 0 1-1.723-2.828c-.36-1.058-.481-2.182-.356-3.293.171-1.497.788-2.908 1.771-4.05a7.57 7.57 0 0 1 3.717-2.378c1.448-.406 2.984-.372 4.413.098a7.52 7.52 0 0 1 3.62 2.53 7.6 7.6 0 0 1 1.562 3.73c.175 1.362-.023 2.745-.572 4.004a7.6 7.6 0 0 1-2.544 3.143c-1.116.799-2.428 1.28-3.797 1.393z" fill="#f4f4f4"/><path d="M-25.253 552.829c-5.66 1.44-11 1-15.67-2.53-1.86-.2-11.76-2.1-9.87-4.43 3.828 1.984 8.098 2.966 12.408 2.852s8.523-1.319 12.242-3.502z" class="B F"/><path d="M-38.356 533.699c-.39 0-.49.29-.39.59a6.8 6.8 0 0 0 2.509 2.805c1.083.681 2.337 1.041 3.616 1.041a6.79 6.79 0 0 0 3.616-1.041 6.8 6.8 0 0 0 2.509-2.805.34.34 0 0 0 0-.2.48.48 0 0 0-.07-.2c-.04-.056-.091-.104-.15-.14a.46.46 0 0 0-.2-.05z" class="E"/><path d="M83.096 1091.039c-7.31-3.92-39.28-9.38-43-18.86h-.281l-6-124.69h-37.66l20.531 128.66 1 19.24c.29 11.51 15.369 3.39 20.329 3.75l45.401 2c.68-1.38 1.81-9.13-.32-10.1z" class="H"/><path d="M-92.266 1093.829h34.55v5.8a1.47 1.47 0 0 1-.297.89 1.48 1.48 0 0 1-.773.54 58.88 58.88 0 0 1-32.4 0 1.48 1.48 0 0 1-.773-.54 1.47 1.47 0 0 1-.297-.89z" class="D"/><path d="M-55.904 982.909l-32.8-.34 4.1 80.26c.151 3.13-.111 6.26-.78 9.32l-2.08 9.41h26.56l-1.32-10.16a35.06 35.06 0 0 1-.15-7.73z" class="H"/><path d="M-87.465 1081.569h5.32c3.82-9 1.91-21 1.91-21v-77.92l-8.43-.08 4.06 80.26c.151 3.13-.111 6.26-.78 9.32z" class="B F"/><path d="M-87.087 1080.909a73.64 73.64 0 0 0-4.89 10.69h34s-1.47-5.51-3.2-10.69l-1.62-.41c-7.992-2-16.37-1.86-24.29.41z" class="O"/><path d="M-63.763 1089.119s-5.18-.62-11.19-.84c-6 .22-11.19.84-11.19.84-6.91.74-6.05 5.13-6.05 5.13 0 1.28 5.65 1.82 10.32 2 2.31.11 4.63.13 6.94.06s4.63 0 6.94-.06c4.67-.22 10.32-.76 10.32-2-.04 0 .82-4.42-6.09-5.13z" class="H"/><path d="M-61.988 1060.569l-23.45.04.013 8.69 23.45-.04z" class="O"/><g class="B"><path d="M-84.206 1087.559l-2 .25c-6.91.87-6.05 6-6.05 6 0 1.52 5.65 2.15 10.32 2.41 1.61.09 3.23.11 4.85.1-13.39-.62-7.12-8.75-7.12-8.76zm107.787-9.16l-10.36-86.85-11.48-9 14.94 93.62 1 18.93h21.07c-9.81-.11-15.17-16.7-15.17-16.7z" class="F"/><path d="M-22.905 482.179s-1.15 11.56-14.2 13.44c-13.33 1.88-10.45 9.67-26.69 7.8 0 0-5.86-8.48 2.83-17.23 5.74-5.79 17-10.61 25-9.81 2.75.27 9.18 5.02 13.06 5.8z"/><path d="M-24.605 482.999s-8.3 8.35 14.7 23.49c.517-3.287-.004-6.653-1.49-9.63-2.51-4.87-13.21-13.86-13.21-13.86z"/><path d="M17.369 650.829l-1.68-44.34a1.36 1.36 0 0 1 .076-.536c.061-.172.156-.329.279-.464s.272-.242.438-.318.345-.117.527-.122c.313.008.614.125.85.331s.391.489.44.799l8 44.65z" class="C"/></g><path d="M-61.69 534.899a4.1 4.1 0 1 0 0-8.2 4.1 4.1 0 1 0 0 8.2z" class="D"/><path d="M-61.689 526.699a3.66 3.66 0 0 0-.82.09c.916.195 1.737.699 2.327 1.427a4.09 4.09 0 0 1 0 5.145 4.1 4.1 0 0 1-2.327 1.428 3.71 3.71 0 0 0 .82.08 4.1 4.1 0 0 0 2.768-6.922c-.726-.762-1.717-1.216-2.768-1.268zm96.945 87.506H11.452a.97.97 0 0 0-.463.117.96.96 0 0 0-.351.323l-16.093 42.966a.97.97 0 0 0-.04.969.97.97 0 0 0 .821.518l25.014.957 15.752-44.385a.97.97 0 0 0 .135-.486.96.96 0 0 0-.484-.847.97.97 0 0 0-.487-.13z" class="C B"/><g class="G"><path d="M35.256 614.206H12.255c-.407-.004-.807.095-1.165.287s-.661.472-.881.813L-5.455 657.59c-.091.144-.143.309-.15.479a.97.97 0 0 0 .11.49c.079.151.197.278.341.369s.309.142.48.149l25.014.957 15.752-44.385c.081-.146.124-.312.123-.481a.97.97 0 0 0-.131-.479c-.085-.145-.206-.266-.351-.351s-.31-.13-.477-.131z"/><path d="M35.921 615.631H12.975a1.85 1.85 0 0 0-.884.232 1.88 1.88 0 0 0-.667.626l-15.796 42.449 24.354 1.529zM-88.065 722.499s-11.42 70-8 122.65l7.5 203.79h30.48l19.7-266.69c.11-2.51 1.21-4.49 3.72-4.49a4.7 4.7 0 0 1 3.106 1.175c.858.757 1.411 1.8 1.554 2.935l40.1 267.07h31l-23.41-326.44zm15.679-158.15s31.39 56.549 39.18 99.209c0 0 8.33 20.901-55.74 52.711v-4.17s35.56-26.86 44.25-38.06l-1.3-12.87s-15.16-58.61-40-93.44z"/></g><path d="M85.367 1100.329a3.3 3.3 0 0 1-3.06 2.08l-38.2.18c-.661.01-1.308-.19-1.858-.55-.549-.37-.975-.9-1.222-1.51l-.26-.67c-.037-.1-.102-.19-.186-.25a.61.61 0 0 0-.292-.11c-.105 0-.211.02-.303.07a.56.56 0 0 0-.219.22l-.65 1.17c-.294.52-.722.95-1.24 1.24s-1.106.44-1.7.42l-17.46-.3c-.843-.01-1.651-.34-2.251-.93a3.26 3.26 0 0 1-.969-2.24l-.06-3.75 71.18.74c-.283 1.43-.702 2.84-1.25 4.19z" class="D"/><g class="O"><path d="M68.022 1095.949c.74-4 5.25-8.15 5.25-8.15l-10.81-3.8c-4 3-6.51 11.94-6.51 11.94zm-26.42-35.19l-27.712 1.45.456 8.68 27.712-1.46z"/><path d="M17.922 1070.459l11.58 25.78h-13.21l-1.23-26z"/></g><path d="M-33.845 777.759h.17c1.144 0 2.249.418 3.107 1.175a4.7 4.7 0 0 1 1.554 2.935l38.56 267.07h9.7l-33.611-262.11c-.24-2.19-1.054-4.277-2.361-6.051a12.49 12.49 0 0 0-5.079-4.049c-6.18-2.57-12.04 1.03-12.04 1.03zm-48.67 48.07c-.49-16.16 2.22-81.72 10-103.31h-15.55s-11.42 70-8 122.65l6.91 203.79h8.1l-1.17-201.64a694.84 694.84 0 0 0-.29-21.49z" opacity=".3" class="B"/><g class="H"><path d="M24.001 643.929c.189-.118.329-.3.393-.514a.91.91 0 0 0-.043-.646l-1.26-5.729-5-9.481a2.17 2.17 0 0 1 .005-1.556c.194-.501.566-.912 1.045-1.153.41-.204.879-.251 1.321-.133a1.87 1.87 0 0 1 1.079.772l7.16 9.931 3.231 10.509c-3.23 9.69-14.541 17-14.541 17h-2.89c-1.786-.009-3.529-.556-5-1.569l-6.25-4.33c-1.302-.895-2.339-2.125-3-3.56l-3.29-7.131c-.16-.347-.211-.735-.144-1.112a1.88 1.88 0 0 1 .514-.997h0c.19-.187.417-.331.666-.423s.515-.132.78-.115a1.89 1.89 0 0 1 .759.213 1.89 1.89 0 0 1 .605.505l4.351 5.599 5.19 4.44c.135.118.302.194.48.217s.359-.007.52-.087l.099-.05c.121-.059.226-.145.31-.25a.92.92 0 0 0 .182-.756c-.027-.131-.082-.255-.162-.363l-5.82-8-3.43-8.921a1.86 1.86 0 0 1 .001-1.346c.169-.433.493-.788.909-.994l.2-.1a1.88 1.88 0 0 1 2.42.66l4.75 7.47 6 5.241a.92.92 0 0 0 .481.216c.178.023.359-.007.519-.087l.2-.1a.9.9 0 0 0 .293-.226.91.91 0 0 0 .179-.323.9.9 0 0 0 .038-.368.92.92 0 0 0-.109-.353l-3.581-6.43-5.37-7.389c-.29-.398-.412-.894-.339-1.381a1.87 1.87 0 0 1 .73-1.22 2.65 2.65 0 0 1 1.718-.529c.618.029 1.205.273 1.661.69l6.45 6.599 3.671 7.331c.056.115.135.218.234.301a.92.92 0 0 0 .337.178.91.91 0 0 0 .381.024c.127-.019.249-.064.358-.133z"/><path d="M35.296 657.298v-21.43l-3.39-7.519-2 12.19c-1.58-.41 1.28.3-2.67 3s-15.62 18.35-15.62 18.35a57.51 57.51 0 0 0 5.68 3.09l-4.2 17.5c-1 4.65-2.05 18.479 4.25 20.389 12.34 3.75 17.3-4.999 19.28-12.599 1.13-4.434 1.432-9.038.89-13.581z"/></g><g class="B"><path d="M-2.585 643.589c-.303.298-.509.682-.589 1.1a2.1 2.1 0 0 0 .139 1.24c1.22 2.83 4.17 9.29 6.54 10.87l9.15 6.09s5.08 2 4.66 2.08l-4.25 17.51c-1.01 4.7-2.05 18.48 4.25 20.39 9.67 2.94 14.81-1.8 17.53-7.65-29 12.89-14.23-30.15-14.23-30.15l-6.09-3.69c-.57-.35-1.13-.71-1.68-1.1l-8.53-6a4.86 4.86 0 0 1-1.32-1.42l-5.58-9.31z" class="F"/><path d="M-88.065 721.529h13.63l-7.67-110.5a1.78 1.78 0 0 0-1.78-1.67h0c-.472 0-.925.188-1.258.522s-.522.786-.522 1.258v40.54h-4zm-27.841-129.01c0-13 8.19-19 8.19-19l-.05-.06-.24.06c-3.636.965-6.857 3.095-9.168 6.064a17.23 17.23 0 0 0-3.632 10.376l-2.07 61.72h7z" class="C"/></g><g class="H"><path d="M-52.138 682.759h12.26c.674.036 1.35-.038 2-.22l9.32-2.59a3.8 3.8 0 0 0 2.16-1.56 4.5 4.5 0 0 0-.45-5.69s1.9-2.52-.63-5.68c0 0 2.53-3.15-.63-5.68 0 0 1-4.1-2.21-5.37l-13.92-.14c-1.647.093-3.223.706-4.5 1.75l-8.45 6.92"/><path d="M-55.53 663.359l-32 6.48v-18.36h-32.34s-.26 14.69-2.27 41.21a11.5 11.5 0 0 0 .685 4.866 11.49 11.49 0 0 0 2.655 4.134h0a12 12 0 0 0 4.951 2.98c1.868.575 3.849.685 5.769.32 13.64-2.61 7.33-2 55.93-22.28"/></g><path d="M-86.904 651.879l-3-.8-1.21 17.54c-12.13 3.24-14 5.45-14 5.45s-.72-.6 18.29-4.15z" class="B F"/><path d="M-34.149 661.609l5.68-.64m-4.727 6.63l5.68-.63m-5.047 6.32l5.68-.64" class="F M N" stroke="#000" stroke-width="1.128"/><path d="M-52.11 682.759c-36.84 15.69-44.41 20.19-55.31 21.89-5 .79-10.16-.25-13-5.12a12.22 12.22 0 0 1-1.64-5.81 12.69 12.69 0 0 1 .2-2.53l.3-6.85s-.32 13.56 11 15.82c1.712.389 3.488.41 5.21.06 16.45-3.8 35.69-13.93 52-20.06l.3-.24h12.63l6.59-.69c1.083-.117 2.079-.649 2.778-1.484a4.21 4.21 0 0 0 .972-2.996c-.037-.493-.117-.982-.24-1.46 0 0 1.58-3.79-.95-5.69 0 0 1.26-2.52-.63-6 .353-.934.48-1.939.371-2.931a6.33 6.33 0 0 0-1.001-2.779h2.21c3.16 1.27 2.21 5.37 2.21 5.37 3.16 2.53.63 5.68.63 5.68 2.53 3.16.63 5.68.63 5.68a4.5 4.5 0 0 1 1.242 2.764c.082 1.038-.198 2.071-.792 2.926a3.81 3.81 0 0 1-2.16 1.56l-9.35 2.62c-.651.181-1.326.256-2 .22h-12.26" class="B F"/></g><defs ><path id="B" d="M801.005 942.737c-56.26-8.9-671.67-1.11-748.2-.1l4.5 37.44 1116.339 1 10.07-37.43c-116.16 2.49-382.709-.91-382.709-.91z"/><path id="C" d="M1117.004 81.167l-226.62-20c-6.87 14.09-10.45 29.555-10.47 45.23 0 56 45.4 102.91 106.81 116.21v3.9h210.56l-25.77-99.18c-3.22-12.376-10.18-23.455-19.94-31.719a62 62 0 0 0-34.57-14.441z"/><path id="D" d="M538.133 187.057a112.75 112.75 0 0 0-22.71 2.36c-20.24-42.17-69.16-72-126.4-72-46.69 0-88 19.93-112.52 50.28a124.2 124.2 0 0 0-23.7-2.3c-59.62 0-107.94 40.82-107.94 91.08 0 42.53 34.46 78.1 81.07 88.2v2.93h312.2c52.57 0 95.16-35.94 95.16-80.3s-42.59-80.25-95.16-80.25z"/><path id="E" d="M622.355 344.747a81.67 81.67 0 0 0-16.46 1.76c-14.68-30.6-50.16-52.2-91.68-52.2-33.86 0-63.82 14.46-81.62 36.46a90.22 90.22 0 0 0-17.18-1.66c-43.26 0-78.29 29.61-78.29 66.06 0 30.84 25 56.65 58.8 64v2.13h226.43c38.14 0 69-26.07 69-58.25s-30.86-58.3-69-58.3z"/><path id="F" d="M370.244 349.267a83.15 83.15 0 0 0-16.47 1.72c-14.66-30.58-50.16-52.19-91.67-52.19-33.87 0-63.82 14.45-81.63 36.46-5.661-1.1-11.413-1.659-17.18-1.67-43.23 0-78.29 29.6-78.29 66.07 0 30.85 25 56.65 58.8 64v2.12h226.44c38.13 0 69-26 69-58.23s-30.87-58.28-69-58.28z"/><path id="G" d="M1133.184 289.027c0 40.64 32.92 74.64 77.47 84.29v2.8h25.47l-43.12-166.08c-35.35 13.83-59.82 44.02-59.82 78.99z"/><path id="H" d="M1154.644 210.507c-19.32-40.29-66.1-68.76-120.77-68.76-44.63 0-84.1 19-107.56 48a120.28 120.28 0 0 0-22.63-2.2c-57 0-103.16 39-103.16 87.05 0 40.65 32.93 74.64 77.48 84.29v.62l298.34 2.18a102.44 102.44 0 0 0 52.39-14l-35.9-138.18a107.53 107.53 0 0 0-16.49-1.26 109.49 109.49 0 0 0-21.7 2.26z"/><path id="I" d="M314.563 564.127s13.23-12.1 17.64-17 10.06-7.57 15.6-6 9.2 7.73 7.2 15.38-10.82 19-22.84 18.43-15.91-8.55-17.6-10.81z"/><path id="J" d="M347.803 541.167c-5.54-1.58-11.19 1.13-15.6 6-1.57 1.74-4.27 4.39-7.09 7.09l3 3 5.62-4.23s0-4.51 3.75-4.88c5.45-.54 4.64 10.64 18 4.79.27-5.93-3.03-10.43-7.68-11.77z"/><path id="K" d="M968.088 687.439c2.383-6.467-9.138-16.667-25.733-22.783s-31.98-5.831-34.364.636 9.138 16.667 25.733 22.782 31.98 5.831 34.364-.636z"/><path id="L" d="M953.378 694.354c23.482 4.781 44.911-4.542 14.511-24.698-12.81-8.275-31.701-14.94-47.231-16.796-31.954-4.218-34.949 12.838-7.03 27.953-.865-2.482-2.756-4.921-2.721-7.586-6.461-7.551 4.767-10.996 11.467-10.328 8.24.246 17.436 2.742 25.535 6.243 8.943 4.218 20.62 10.757 17.956 17.267a5.52 5.52 0 0 1-1.568 2.109h0c-2.736 2.331-5.894 4.117-9.301 5.259z"/><path id="M" d="M964.079 755.379c1.367 0 2.475-1.108 2.475-2.475s-1.108-2.475-2.475-2.475-2.475 1.108-2.475 2.475 1.108 2.475 2.475 2.475z"/><path id="N" d="M100.604 837.547c3.25 5.7 2.27 8.13.07 9.38s-4.88.71-8-4.84-2.27-8.13-.07-9.38 4.93-.56 8 4.84z"/><path id="O" d="M160.143 854.878c2.437-3.811 2.682-8.007.546-9.373s-5.842.616-8.279 4.427-2.682 8.007-.546 9.372 5.842-.616 8.279-4.426z"/><path id="P" d="M115.875 953.267a21.55 21.55 0 0 0-.8-5.23c-1.002-3.45-2.581-6.71-4.67-9.64-4.36-6.27-10.44-12.17-17.67-14.86-1.677-.65-3.426-1.09-5.21-1.32-.84-.1-3.44-.49-4.1.25s.18.57.81.84a27.27 27.27 0 0 1 3.69 2c11 6.75 24 14.66 26.91 28z"/><path id="Q" d="M115.433 952.267c-.78-12.62-4.54-24.79-8.65-36.67-1.88-5.41-3.71-10.89-6-16.13-2.8-6.35-6.24-12.51-9.6-18.57-1.58-2.86-3.23-5.7-5-8.45-.81-1.25-1.64-2.48-2.53-3.68-.34-.46-2-2-2-2.54 0-.8.76-.14 1.2.13 1.122.716 2.188 1.515 3.19 2.39a50.12 50.12 0 0 1 6.63 7c4.284 5.364 7.794 11.302 10.43 17.64a195.68 195.68 0 0 1 6.25 19.24 183.46 183.46 0 0 1 5.39 22.9 98.91 98.91 0 0 1 1.15 10.47c.08 1.48.11 3 .1 4.45 0 .35.16 1.39 0 1.66-.08-.01-.51.88-.56.16z"/><path id="R" d="M116.866 953.267h.65v-3.1l-.13-8.75c-.16-6.56-.5-13.11-1.1-19.65-1.1-12-2.38-24-6.56-35.42a74.9 74.9 0 0 0-3.26-7.72c-.22-.44-1.88-4.25-2.4-3.49-.19.27.23 1.7.28 2 .16 1.1.36 2.2.54 3.29l1.41 7.93c2.21 11.84 5.11 23.52 7 35.43 1.48 9.82 2.59 19.64 3.57 29.48z"/><path id="S" d="M119.136 919.347c-1-6.83-.38-13.8.75-20.58.573-4.017 1.545-7.966 2.9-11.79a49.7 49.7 0 0 1 5.58-10.12l2.57-3.89c.25-.39 1.57-3.19 2-3.23 1.46-.15-.21 6.52-.5 7.47-1.203 3.622-2.803 7.099-4.77 10.37-1.957 3.497-3.456 7.231-4.46 11.11-1.172 4.03-2.12 8.12-2.84 12.26a61.54 61.54 0 0 0-.67 5.58c.059.73.032 1.47-.08 2.2.11-.31-.31 1.76-.48.62z"/><path id="T" d="M160.075 885.797c-1-.08-2.73.86-3.6 1.21a37.69 37.69 0 0 0-3.52 1.65c-2.185 1.183-4.269 2.544-6.23 4.07-9.6 7.44-15.2 18.44-19.81 29.43-3.58 8.53-7.78 21-8 31.12h1.07v-1.16a32.15 32.15 0 0 1 .54-3.88 64.34 64.34 0 0 1 2.6-9.21c2.276-6.23 4.972-12.29 8.07-18.15 5.498-10.47 12.726-19.94 21.38-28 2.08-2 4.28-3.8 6.54-5.56.69-.52 2.45-1.4.96-1.52z"/><path id="U" d="M160.325 915.527c-.63-.85-4.4-.42-5.28-.33a22.68 22.68 0 0 0-4.68 1c-8.47 2.69-14.83 9.4-20.21 16.2-4.28 5.4-8.91 13.61-10.81 20.9h1.32c.209-.93.466-1.84.77-2.74.946-2.13 2.066-4.17 3.35-6.11a71.03 71.03 0 0 1 9-11 82.86 82.86 0 0 1 20.12-14.77c1.566-.83 3.19-1.55 4.86-2.15.42-.16 2.06-.33 1.56-1z"/></defs></svg>