<?xml version="1.0" encoding="UTF-8" standalone="no"?>
<svg
   height="236.667"
   width="1030.2"
   version="1.1"
   id="svg74"
   sodipodi:docname="prifUKen.svg"
   inkscape:version="1.1.2 (0a00cf5339, 2022-02-04)"
   xmlns:inkscape="http://www.inkscape.org/namespaces/inkscape"
   xmlns:sodipodi="http://sodipodi.sourceforge.net/DTD/sodipodi-0.dtd"
   xmlns="http://www.w3.org/2000/svg"
   xmlns:svg="http://www.w3.org/2000/svg">
  <sodipodi:namedview
     id="namedview76"
     pagecolor="#ffffff"
     bordercolor="#666666"
     borderopacity="1.0"
     inkscape:pageshadow="2"
     inkscape:pageopacity="0.0"
     inkscape:pagecheckerboard="0"
     showgrid="false"
     inkscape:zoom="0.6197826"
     inkscape:cx="-33.882849"
     inkscape:cy="16.13469"
     inkscape:window-width="2560"
     inkscape:window-height="1373"
     inkscape:window-x="0"
     inkscape:window-y="0"
     inkscape:window-maximized="1"
     inkscape:current-layer="svg74" />
  <path
     d="m 118.33303,7.9826677 c -60.84799,0 -110.3506439,49.5026543 -110.3506439,110.3506423 0,60.84798 49.5026539,110.35064 110.3506439,110.35064 60.84798,0 110.35063,-49.50399 110.35063,-110.35064 0,-60.846655 -49.50265,-110.3506423 -110.35063,-110.3506423 m 0,223.6839423 c -62.491989,0 -113.3333098,-50.84132 -113.3333098,-113.3333 0,-62.491988 50.8413208,-113.3333082 113.3333098,-113.3333082 62.49198,0 113.3333,50.8413202 113.3333,113.3333082 0,62.49198 -50.84132,113.3333 -113.3333,113.3333 M 71.251704,51.926657 l 3.027999,1.655999 c 0.250666,0.138667 0.456,0.344 0.594666,0.593333 l 1.657333,3.030666 1.657333,-3.030666 a 1.5199996,1.5199996 0 0 1 0.592,-0.593333 l 3.030666,-1.655999 -3.030666,-1.657333 a 1.5066663,1.5066663 0 0 1 -0.592,-0.592 l -1.657333,-3.031999 -1.657333,3.031999 c -0.138666,0.249333 -0.344,0.454666 -0.594666,0.592 z m 5.279998,9.878664 c -0.545333,0 -1.046666,-0.296 -1.307999,-0.776 l -2.757333,-5.038665 -5.037332,-2.756 c -0.48,-0.261333 -0.776,-0.763999 -0.776,-1.307999 0,-0.544 0.296,-1.046667 0.776,-1.308 l 5.037332,-2.757333 2.757333,-5.038665 c 0.261333,-0.478667 0.762666,-0.776 1.307999,-0.776 a 1.493333,1.493333 0 0 1 1.308,0.776 l 2.755999,5.038665 5.038666,2.757333 c 0.478666,0.261333 0.775999,0.762667 0.775999,1.308 a 1.493333,1.493333 0 0 1 -0.775999,1.307999 l -5.038666,2.756 -2.755999,5.038665 c -0.261333,0.48 -0.762667,0.776 -1.308,0.776 m 78.210648,-9.878664 3.028,1.655999 c 0.25067,0.138667 0.456,0.344 0.59467,0.593333 l 1.65599,3.030666 1.65734,-3.030666 a 1.5199996,1.5199996 0 0 1 0.592,-0.593333 l 3.03066,-1.655999 -3.03066,-1.657333 a 1.5066663,1.5066663 0 0 1 -0.592,-0.592 l -1.65734,-3.030666 -1.65599,3.030666 c -0.13867,0.249333 -0.344,0.454666 -0.59467,0.592 z m 5.27866,9.878664 c -0.544,0 -1.04666,-0.296 -1.30666,-0.776 l -2.75733,-5.038665 -5.03867,-2.756 a 1.493333,1.493333 0 0 1 -0.776,-1.307999 c 0,-0.545333 0.29733,-1.046667 0.776,-1.308 l 5.03867,-2.757333 2.75733,-5.038665 c 0.52266,-0.957333 2.09333,-0.957333 2.616,0 l 2.756,5.038665 5.03866,2.757333 c 0.47867,0.261333 0.776,0.762667 0.776,1.308 a 1.493333,1.493333 0 0 1 -0.776,1.307999 l -5.03866,2.756 -2.756,5.038665 a 1.493333,1.493333 0 0 1 -1.30934,0.776 M 77.057035,208.58128 c -0.386666,0 -0.773333,-0.14933 -1.065333,-0.448 a 1.493333,1.493333 0 0 1 0.02133,-2.108 l 31.414658,-30.76799 c 6.01467,-5.88933 15.796,-5.88666 21.80933,0 l 31.41466,30.76799 a 1.493333,1.493333 0 0 1 0.0227,2.108 1.493333,1.493333 0 0 1 -2.10933,0.0227 l -31.416,-30.76932 c -4.86,-4.76134 -12.77199,-4.75867 -17.63333,0 l -31.414659,30.76932 a 1.493333,1.493333 0 0 1 -1.044,0.42533"
     id="path2"
     style="stroke-width:1.33333" />
  <path
     d="m 148.82502,198.02129 c -0.388,0 -0.77334,-0.14934 -1.06667,-0.448 a 1.493333,1.493333 0 0 1 0.0227,-2.10934 l 11.41599,-11.17333 c 4.58134,-4.48666 12.03734,-4.488 16.61867,0.001 l 7.348,7.196 a 1.493333,1.493333 0 0 1 0.0213,2.10799 c -0.576,0.58934 -1.52,0.60134 -2.11067,0.0213 l -7.34533,-7.19467 c -3.432,-3.36266 -9.01333,-3.36266 -12.444,0 l -11.41866,11.17467 a 1.4799996,1.4799996 0 0 1 -1.04133,0.424 m -60.983987,-10e-4 c -0.374667,0 -0.752,-0.14 -1.042667,-0.42533 l -11.407997,-11.172 a 8.9466644,8.9466644 0 0 0 -12.44533,0 l -7.351998,7.19867 c -0.588,0.57733 -1.532,0.56666 -2.108,-0.0213 a 1.493333,1.493333 0 0 1 0.02267,-2.10799 l 7.350665,-7.2 c 4.582665,-4.488 12.03733,-4.488 16.618662,0 l 11.407998,11.17199 c 0.589333,0.576 0.598666,1.52 0.02267,2.108 -0.293333,0.29867 -0.678666,0.448 -1.066666,0.448"
     id="path4"
     style="stroke-width:1.33333" />
  <path
     d="m 118.33303,21.963998 c -53.138658,0 -96.369314,43.230655 -96.369314,96.369312 0,53.13865 43.230656,96.37197 96.369314,96.37197 53.13865,0 96.3693,-43.23199 96.3693,-96.37197 0,-53.13999 -43.23065,-96.369312 -96.3693,-96.369312 m 0,195.722622 c -54.783991,0 -99.354647,-44.56933 -99.354647,-99.35331 0,-54.78399 44.570656,-99.351978 99.354647,-99.351978 54.78398,0 99.35464,44.567988 99.35464,99.351978 0,54.78398 -44.57066,99.35331 -99.35464,99.35331 m 3.91866,-43.30533 a 1.373333,1.373333 0 0 1 -0.208,-0.0147 1.493333,1.493333 0 0 1 -1.26933,-1.68267 l 3.27733,-23.36799 c 0.11467,-0.81734 0.86667,-1.39334 1.684,-1.26934 0.816,0.11467 1.38267,0.868 1.268,1.684 l -3.27733,23.36666 c -0.104,0.74667 -0.74267,1.284 -1.47467,1.284 m -7.908,0 a 1.493333,1.493333 0 0 1 -1.476,-1.28666 l -3.22933,-23.38 c -0.11333,-0.816 0.45467,-1.56933 1.27333,-1.68133 a 1.4799996,1.4799996 0 0 1 1.68,1.272 l 3.23067,23.38133 a 1.493333,1.493333 0 0 1 -1.27333,1.68 c -0.0693,0.0107 -0.13734,0.0147 -0.20534,0.0147 m -46.198652,-1.68666 a 1.4666663,1.4666663 0 0 1 -0.549333,-0.10534 1.493333,1.493333 0 0 1 -0.92,-1.63866 c 0.092,-0.53867 2.321332,-13.25867 7.245331,-18.32 2.874666,-2.956 5.885332,-3.94266 8.302665,-4.736 1.835999,-0.60133 3.285332,-1.076 4.369332,-2.19466 1.182666,-1.22267 1.550666,-3.46534 1.976,-6.06 0.253333,-1.532 0.513333,-3.11733 0.974666,-4.728 a 1.493333,1.493333 0 0 1 1.078666,-1.03733 l 8.501332,-2.07734 a 1.493333,1.493333 0 0 1 1.802663,1.09467 1.493333,1.493333 0 0 1 -1.09333,1.804 l -7.641332,1.86533 c -0.289333,1.18267 -0.486666,2.388 -0.679999,3.56133 -0.485334,2.96134 -0.945334,5.75867 -2.776,7.652 -1.595999,1.648 -3.533332,2.28267 -5.582665,2.95467 -2.325333,0.76267 -4.729332,1.55066 -7.093332,3.98266 -2.065332,2.12134 -3.633332,6.06534 -4.705332,9.59334 1.162667,-1.45734 2.444,-2.95334 3.701333,-4.20934 3.950665,-3.952 8.351998,-4.512 12.234663,-5.00533 3.066666,-0.39067 5.715999,-0.72667 7.653332,-2.66533 2.029333,-2.03067 2.657332,-4.396 3.321332,-6.90133 0.648,-2.44 1.314667,-4.95867 3.30667,-7.10533 l 0.39066,-1.58134 c 0.19734,-0.8 1,-1.292 1.80534,-1.09066 a 1.493333,1.493333 0 0 1 1.09066,1.80533 l -0.48666,1.97066 a 1.4799996,1.4799996 0 0 1 -0.42,0.724 c -1.63467,1.63867 -2.176,3.67867 -2.804,6.04134 -0.7,2.648 -1.497337,5.64933 -4.09467,8.24666 -2.658666,2.65867 -6.079998,3.09333 -9.385331,3.51467 -3.574665,0.45333 -7.271998,0.924 -10.502664,4.156 -3.659999,3.65999 -7.735998,9.76266 -7.777331,9.82399 a 1.493333,1.493333 0 0 1 -1.242666,0.66534"
     id="path6"
     style="stroke-width:1.33333" />
  <path
     d="m 115.53036,95.906646 c -0.50533,0 -0.99733,-0.256 -1.27733,-0.72 l -4.392,-7.270665 a 1.4799996,1.4799996 0 0 1 -0.2,-0.978666 l 7.26,-51.759987 c 0.10133,-0.736 0.732,-1.284 1.476,-1.284 a 1.493333,1.493333 0 0 1 1.47733,1.286666 l 7.15333,51.773321 c 0.0467,0.34 -0.024,0.686666 -0.20133,0.979999 l -4.39734,7.242665 a 1.493333,1.493333 0 0 1 -2.04933,0.5 c -0.704,-0.426666 -0.928,-1.344 -0.5,-2.047999 l 4.12267,-6.790665 -5.616,-40.638657 -5.7,40.62799 4.11867,6.818665 a 1.493333,1.493333 0 0 1 -0.50534,2.046666 c -0.24133,0.145333 -0.50666,0.214667 -0.76933,0.214667 m -16.046663,8.999994 a 1.5199996,1.5199996 0 0 1 -0.36,-0.044 l -1.809333,-0.44666 a 1.493333,1.493333 0 0 1 -0.692,-0.38934 c -1.636,-1.61866 -3.666666,-2.15733 -6.021332,-2.78266 -2.646666,-0.70134 -5.647998,-1.497335 -8.247998,-4.096001 -2.658666,-2.658666 -3.091999,-6.078665 -3.511999,-9.385331 -0.454667,-3.574666 -0.925333,-7.271998 -4.157332,-10.502664 -3.663999,-3.665333 -9.762664,-7.735998 -9.825331,-7.777332 a 1.493333,1.493333 0 0 1 1.078666,-2.711999 c 0.538667,0.09333 13.258664,2.322666 18.321329,7.245332 2.957333,2.875999 3.942666,5.885331 4.735999,8.302664 0.601333,1.836 1.077333,3.285333 2.194666,4.369332 1.224,1.182667 3.465332,1.550667 6.059998,1.976 1.457333,0.24 2.964,0.488 4.49733,0.910666 0.52134,0.142667 0.92534,0.557333 1.052,1.082667 l 2.06667,8.454664 a 1.493333,1.493333 0 0 1 -1.09467,1.804002 1.493333,1.493333 0 0 1 -1.80266,-1.094669 l -1.85334,-7.585331 c -1.114663,-0.261333 -2.24533,-0.446667 -3.347996,-0.628 -2.961333,-0.486666 -5.757332,-0.945333 -7.649332,-2.777333 -1.650666,-1.595999 -2.283999,-3.531999 -2.955999,-5.582665 -0.762666,-2.325333 -1.551999,-4.729332 -3.982665,-7.093331 -2.121333,-2.065333 -6.066666,-3.631999 -9.593331,-4.703999 1.455999,1.162666 2.951999,2.443999 4.207999,3.699999 3.953332,3.951999 4.511998,8.353331 5.005332,12.234664 0.390666,3.066665 0.726666,5.715998 2.663999,7.653331 2.031999,2.030666 4.397332,2.658666 6.903998,3.322666 2.417333,0.641333 4.911999,1.302666 7.045332,3.253328 l 1.429333,0.352 a 1.493333,1.493333 0 0 1 -0.357333,2.94 M 86.633033,127.3293 a 1.5066663,1.5066663 0 0 1 -0.218667,-0.016 l -51.24932,-7.56799 a 1.493333,1.493333 0 0 1 0.004,-2.952 l 51.270654,-7.46 c 0.344,-0.0493 0.693333,0.0213 0.989333,0.2 l 7.813331,4.74533 a 1.493333,1.493333 0 0 1 0.5,2.04933 c -0.426666,0.704 -1.341333,0.92667 -2.047999,0.5 l -7.355999,-4.46666 -40.674656,5.91866 40.657323,6.00534 7.374665,-4.456 c 0.705333,-0.42534 1.622666,-0.2 2.046666,0.50533 a 1.493333,1.493333 0 0 1 -0.505333,2.04667 l -7.833331,4.73333 a 1.493333,1.493333 0 0 1 -0.770667,0.21466 m 63.379987,0.02 c -0.272,0 -0.54,-0.0747 -0.77467,-0.216 l -7.69466,-4.67066 a 1.493333,1.493333 0 0 1 -0.5,-2.048 1.493333,1.493333 0 0 1 2.05066,-0.50133 l 7.23333,4.392 40.67466,-5.91867 -40.65599,-6.004 -7.25466,4.384 a 1.493333,1.493333 0 0 1 -2.04934,-0.50533 1.493333,1.493333 0 0 1 0.50667,-2.04934 l 7.71466,-4.65999 c 0.296,-0.17734 0.644,-0.248 0.98934,-0.19734 l 51.24798,7.56933 c 0.732,0.108 1.27467,0.736 1.27334,1.476 a 1.493333,1.493333 0 0 1 -1.27734,1.47467 l -51.27065,7.45866 c -0.0707,0.0107 -0.14267,0.016 -0.21333,0.016 m 21.09733,42.89733 c -0.0827,0 -0.168,-0.007 -0.252,-0.0213 -0.53734,-0.092 -13.19467,-2.31066 -18.23067,-7.21066 -2.94266,-2.86133 -3.92533,-5.856 -4.71333,-8.26133 -0.6,-1.82534 -1.072,-3.268 -2.184,-4.344 -1.21466,-1.176 -3.44266,-1.54133 -6.024,-1.96533 -1.52666,-0.25067 -3.10533,-0.508 -4.70933,-0.96934 a 1.493333,1.493333 0 0 1 -1.036,-1.08 l -2.14133,-8.75599 a 1.493333,1.493333 0 0 1 1.096,-1.804 1.493333,1.493333 0 0 1 1.80266,1.096 l 1.92934,7.89599 c 1.176,0.28534 2.376,0.484 3.54266,0.67467 2.94667,0.484 5.72933,0.94 7.61467,2.76533 1.64133,1.588 2.27333,3.516 2.94266,5.55733 0.75734,2.312 1.54134,4.70267 3.95734,7.05334 2.104,2.04533 6.00533,3.60133 9.50399,4.66666 -1.43866,-1.152 -2.91466,-2.416 -4.15733,-3.65733 -3.93333,-3.93467 -4.48933,-8.31333 -4.98133,-12.17733 -0.38667,-3.04933 -0.72133,-5.68267 -2.64933,-7.608 -2.01734,-2.01867 -4.37067,-2.644 -6.86133,-3.304 -2.536,-0.672 -5.16,-1.36666 -7.35867,-3.56533 -0.08,-0.08 -0.16,-0.16533 -0.23733,-0.25067 l -1.02934,-0.25466 c -0.8,-0.19734 -1.28933,-1.00534 -1.09066,-1.804 0.19866,-0.79867 1.00533,-1.29334 1.804,-1.092 l 1.49466,0.36933 a 1.4799996,1.4799996 0 0 1 0.80134,0.50933 5.5066653,5.5066653 0 0 0 0.36666,0.41334 c 1.62934,1.63066 3.66134,2.168 6.012,2.792 2.636,0.69866 5.62267,1.49066 8.208,4.07733 2.64933,2.64666 3.08133,6.05066 3.49867,9.34 0.452,3.55599 0.91866,7.23199 4.13199,10.44533 3.64134,3.64133 9.71334,7.69599 9.77467,7.73733 0.588,0.38933 0.81866,1.13733 0.55866,1.792 -0.22799,0.576 -0.78133,0.94 -1.38399,0.94 m -33.81466,-65.36132 a 1.493333,1.493333 0 0 1 -0.35334,-2.94 l 7.84,-1.916 0.624,-3.329331 c 0.484,-2.946666 0.94133,-5.730665 2.76533,-7.614665 1.59067,-1.641333 3.51734,-2.274666 5.55734,-2.942666 2.31333,-0.758666 4.704,-1.542666 7.05466,-3.958666 2.04933,-2.106666 3.604,-6.007998 4.66933,-9.506664 l -3.66,4.159999 c -3.93333,3.933333 -8.31333,4.490666 -12.17733,4.981332 -3.04933,0.388 -5.68266,0.722667 -7.60799,2.649333 -2.01734,2.017333 -2.64267,4.371999 -3.304,6.862665 -0.672,2.535999 -1.368,5.159999 -3.56534,7.358665 l -0.20133,0.190666 -0.21333,0.864 a 1.493333,1.493333 0 0 1 -1.804,1.090662 1.493333,1.493333 0 0 1 -1.092,-1.806662 l 0.328,-1.321333 c 0.076,-0.309333 0.25066,-0.588 0.49866,-0.792 l 0.37467,-0.334666 c 1.62933,-1.630666 2.16933,-3.662666 2.792,-6.013332 0.69867,-2.635999 1.492,-5.621332 4.07733,-8.209331 2.64667,-2.646666 6.04933,-3.078666 9.34133,-3.497333 3.55467,-0.450666 7.232,-0.918666 10.444,-4.131999 3.64133,-3.641332 7.696,-9.711997 7.736,-9.773331 a 1.493333,1.493333 0 0 1 2.712,1.077334 c -0.092,0.537333 -2.30933,13.194663 -7.20933,18.230662 -2.864,2.942666 -5.85733,3.925332 -8.264,4.713332 -1.82533,0.6 -3.26667,1.072 -4.34267,2.183999 -1.17466,1.213333 -1.54266,3.442666 -1.96533,6.025332 -0.23867,1.450666 -0.484,2.949328 -0.90533,4.475998 a 1.493333,1.493333 0 0 1 -1.08267,1.052 l -8.71066,2.12933 a 1.493333,1.493333 0 0 1 -0.356,0.0427"
     id="path8"
     style="stroke-width:1.33333" />
  <path
     d="M 101.34903,92.502647 A 1.493333,1.493333 0 0 1 99.902363,91.365314 L 91.666365,57.666655 a 1.493333,1.493333 0 0 1 2.725333,-1.125333 l 18.022662,29.831993 a 1.493333,1.493333 0 0 1 -0.50533,2.047999 1.493333,1.493333 0 0 1 -2.048,-0.505333 L 96.877031,66.422653 102.7997,90.657314 a 1.493333,1.493333 0 0 1 -1.09334,1.802666 1.5066663,1.5066663 0 0 1 -0.35733,0.04267 m 34.05999,55.03065 a 1.493333,1.493333 0 0 1 -1.448,-1.13867 l -2.14,-8.75599 a 1.493333,1.493333 0 0 1 1.09467,-1.80267 1.493333,1.493333 0 0 1 1.80266,1.09467 l 2.14,8.75599 a 1.493333,1.493333 0 0 1 -1.09466,1.804 1.5466663,1.5466663 0 0 1 -0.35467,0.0427"
     id="path10"
     style="stroke-width:1.33333" />
  <path
     d="m 143.55169,180.84662 c -0.508,0 -1,-0.26 -1.276,-0.72 l -22.40667,-37.08665 a 1.493333,1.493333 0 0 1 0.50534,-2.048 1.493333,1.493333 0 0 1 2.048,0.50533 l 17.36666,28.74799 -5.828,-23.84932 a 1.493333,1.493333 0 0 1 1.09333,-1.80267 1.493333,1.493333 0 0 1 1.80267,1.09467 l 8.14267,33.31332 a 1.493333,1.493333 0 0 1 -0.87867,1.73333 c -0.18533,0.076 -0.37867,0.112 -0.56933,0.112 M 121.15302,95.893312 a 1.493333,1.493333 0 0 1 -1.27333,-2.265332 l 4.39733,-7.243999 a 1.493333,1.493333 0 0 1 2.048,-0.501333 1.493333,1.493333 0 0 1 0.50134,2.049333 l -4.39734,7.243998 a 1.493333,1.493333 0 0 1 -1.276,0.717333 m 12.12533,4.983998 c -0.12,0 -0.24,-0.0147 -0.36,-0.0427 a 1.493333,1.493333 0 0 1 -1.09066,-1.806662 l 0.32667,-1.321333 c 0.19866,-0.8 1.00266,-1.287999 1.80666,-1.089333 a 1.493333,1.493333 0 0 1 1.08933,1.804 l -0.32666,1.321333 c -0.16667,0.679995 -0.776,1.134665 -1.44534,1.134665"
     id="path12"
     style="stroke-width:1.33333" />
  <path
     d="m 133.60369,99.555978 a 1.5999996,1.5999996 0 0 1 -0.36,-0.04267 1.493333,1.493333 0 0 1 -1.08933,-1.806666 l 7.71199,-31.250659 -13.03999,21.475995 c -0.428,0.705333 -1.34267,0.929333 -2.048,0.5 a 1.493333,1.493333 0 0 1 -0.50134,-2.048 l 18.09733,-29.803992 a 1.493333,1.493333 0 0 1 2.72267,1.130666 l -10.04667,40.710657 a 1.493333,1.493333 0 0 1 -1.44666,1.134666 m 8.716,17.423995 c -0.50534,0 -0.99734,-0.256 -1.27734,-0.72 a 1.493333,1.493333 0 0 1 0.50667,-2.048 l 7.71333,-4.65999 a 1.493333,1.493333 0 0 1 2.04667,0.50666 c 0.42666,0.704 0.20133,1.62 -0.50534,2.04667 l -7.71333,4.66 a 1.493333,1.493333 0 0 1 -0.77066,0.21466"
     id="path14"
     style="stroke-width:1.33333" />
  <path
     d="m 150.03435,112.31997 c -0.50533,0 -0.99733,-0.25599 -1.27733,-0.71999 a 1.493333,1.493333 0 0 1 0.50533,-2.048 l 20.98133,-12.674668 -23.88266,5.835998 c -0.80133,0.19733 -1.60667,-0.29467 -1.80267,-1.09333 a 1.493333,1.493333 0 0 1 1.09467,-1.804002 l 33.34666,-8.149331 a 1.493333,1.493333 0 0 1 1.732,0.88 c 0.28133,0.679999 0.024,1.465333 -0.608,1.845332 l -29.32,17.713331 c -0.24133,0.14533 -0.508,0.21466 -0.76933,0.21466 m -92.723976,32.72266 a 1.493333,1.493333 0 0 1 -1.377333,-0.92133 c -0.281334,-0.68133 -0.024,-1.46533 0.608,-1.84533 l 29.319992,-17.71333 c 0.705333,-0.42667 1.622667,-0.2 2.046666,0.50533 a 1.493333,1.493333 0 0 1 -0.505333,2.04667 l -20.981328,12.67599 24.201327,-5.91599 c 0.798667,-0.19334 1.606667,0.296 1.804,1.09466 a 1.493333,1.493333 0 0 1 -1.094666,1.804 l -33.665325,8.228 a 1.5599996,1.5599996 0 0 1 -0.356,0.0413"
     id="path16"
     style="stroke-width:1.33333" />
  <path
     d="m 86.634366,127.3293 c -0.503999,0 -0.997333,-0.256 -1.277333,-0.72 -0.426666,-0.704 -0.2,-1.62133 0.505334,-2.04666 l 7.833331,-4.73333 c 0.705333,-0.42534 1.622666,-0.2 2.046666,0.50533 a 1.493333,1.493333 0 0 1 -0.505333,2.04667 l -7.833331,4.73333 c -0.241334,0.14533 -0.506667,0.21466 -0.769334,0.21466 m 4.341333,9.48667 a 1.493333,1.493333 0 0 1 -0.353334,-2.94133 l 8.501332,-2.07734 a 1.493333,1.493333 0 0 1 1.802663,1.096 1.493333,1.493333 0 0 1 -1.09333,1.80267 l -8.501331,2.07733 c -0.118667,0.028 -0.238667,0.0427 -0.356,0.0427 m 88.338641,8.32533 a 1.5066663,1.5066663 0 0 1 -0.36,-0.0427 l -40.52665,-10.00266 c -0.8,-0.19867 -1.288,-1.00533 -1.08934,-1.80533 0.19867,-0.8 1.00667,-1.292 1.804,-1.09067 l 31.068,7.668 -20.97333,-12.736 a 1.493333,1.493333 0 0 1 -0.50134,-2.048 c 0.42934,-0.70266 1.34667,-0.928 2.05067,-0.50133 l 29.30133,17.79333 c 0.62933,0.38266 0.88533,1.16666 0.60133,1.84666 -0.23467,0.56667 -0.78533,0.91867 -1.37467,0.91867 M 94.466364,117.04531 c -0.262666,0 -0.529333,-0.0707 -0.771999,-0.21734 l -7.813332,-4.74533 c -0.704,-0.42666 -0.927999,-1.344 -0.5,-2.048 a 1.493333,1.493333 0 0 1 2.048,-0.50133 l 7.813331,4.74533 a 1.493333,1.493333 0 0 1 0.5,2.04933 c -0.28,0.46267 -0.770666,0.71734 -1.276,0.71734"
     id="path18"
     style="stroke-width:1.33333" />
  <path
     d="M 86.653033,112.29997 A 1.493333,1.493333 0 0 1 85.8797,112.08264 L 56.577041,94.290646 A 1.493333,1.493333 0 0 1 55.975707,92.44398 c 0.281334,-0.68 1.016,-1.052 1.734667,-0.876 l 40.317323,9.95066 a 1.493333,1.493333 0 0 1 0.698666,0.39334 l -1.075999,1.13866 -0.336,1.364 L 66.455705,96.798645 87.4277,109.53331 a 1.493333,1.493333 0 0 1 -0.774667,2.76666"
     id="path20"
     style="stroke-width:1.33333" />
  <path
     d="m 99.483697,104.90664 a 1.5199996,1.5199996 0 0 1 -0.36,-0.044 l -1.809333,-0.44666 0.338666,-1.37067 -1.038666,0.972 a 1.5199996,1.5199996 0 0 1 -0.214667,-1.78933 c 0.333334,-0.56934 0.986667,-0.86934 1.628,-0.708 l 1.813333,0.44666 a 1.493333,1.493333 0 0 1 -0.357333,2.94 m 3.441333,35.75199 a 1.5066663,1.5066663 0 0 1 -0.35867,-0.044 1.493333,1.493333 0 0 1 -1.09066,-1.80533 l 0.48666,-1.97066 c 0.19734,-0.80134 1,-1.29334 1.80534,-1.092 a 1.493333,1.493333 0 0 1 1.09066,1.80533 l -0.48666,1.97066 a 1.493333,1.493333 0 0 1 -1.44667,1.136"
     id="path22"
     style="stroke-width:1.33333" />
  <path
     d="m 93.015698,180.80529 a 1.4799996,1.4799996 0 0 1 -0.570666,-0.11333 1.493333,1.493333 0 0 1 -0.876,-1.73467 l 9.907998,-40.14799 c 0.19733,-0.8 1.00267,-1.29333 1.804,-1.09066 a 1.493333,1.493333 0 0 1 1.092,1.80399 l -7.573333,30.69066 17.446663,-28.73466 a 1.493333,1.493333 0 0 1 2.048,-0.50133 1.493333,1.493333 0 0 1 0.50133,2.048 l -22.503992,37.06266 a 1.493333,1.493333 0 0 1 -1.276,0.71733"
     id="path24"
     style="stroke-width:1.33333" />
  <path
     id="path50796"
     style="stroke-width:1.33333"
     d="M 118.39844 92.736328 C 115.08177 92.736328 111.76476 93.389933 108.60742 94.697266 A 25.413327 25.413327 0 0 0 94.761719 108.54297 C 89.364387 121.57764 95.5754 136.57204 108.60742 141.9707 A 25.453327 25.453327 0 0 0 118.36523 143.91797 C 128.40789 143.91797 137.95916 137.96438 142.03516 128.12305 A 25.42666 25.42666 0 0 0 142.03516 108.54297 C 139.4205 102.23097 134.50412 97.311932 128.18945 94.697266 C 125.03212 93.389933 121.7151 92.736328 118.39844 92.736328 z M 118.39844 95.720703 C 121.32777 95.720703 124.25888 96.298459 127.04688 97.453125 A 22.453328 22.453328 0 0 1 139.2793 109.68555 C 141.58997 115.26155 141.58997 121.40642 139.2793 126.98242 C 134.5113 138.49575 121.26466 143.98418 109.75 139.21484 C 98.235337 134.44551 92.748246 121.19755 97.517578 109.68555 A 22.439994 22.439994 0 0 1 109.75 97.453125 A 22.559994 22.559994 0 0 1 118.39844 95.720703 z " />
  <path
     d="m 2595.0257,-220.04928 h 724.8439 v 55.01066 h -724.8439 z"
     fill="#ffffff"
     id="path64"
     style="stroke-width:1.33333" />
  <text
     xml:space="preserve"
     transform="matrix(1.7514328,0,0,1.7514328,-260.35213,365.80718)"
     id="text8782"
     style="font-size:26.6667px;line-height:100%;font-family:'UK Sans';-inkscape-font-specification:'UK Sans';text-align:start;letter-spacing:0px;word-spacing:0px;white-space:pre;shape-inside:url(#rect8784);fill:#000000;fill-opacity:1;stroke:none;stroke-width:0.570961px;stroke-linecap:butt;stroke-linejoin:miter;stroke-opacity:1"
     x="-117.15986"
     y="0"><tspan
       x="300.07422"
       y="-113.61285"
       id="tspan51072"><tspan
         style="stroke-width:0.371002px"
         id="tspan51070">Comenius University
</tspan></tspan><tspan
       x="300.07422"
       y="-86.946145"
       id="tspan51076"><tspan
         style="stroke-width:0.371002px"
         id="tspan51074">Bratislava</tspan></tspan></text>
  <defs
     id="defs72">
    <rect
       x="300.07362"
       y="-133.54504"
       width="482.2799"
       height="98.420378"
       id="rect8784" />
    <path
       id="B"
       d="M856.869 537.613v-10.046h-2.79v9.802c0 2.093-.942 3.418-2.546 3.418-2.058 0-3.838-1.988-5.059-4.604v-8.616h-2.788v15.279h2.788v-3.559c1.431 2.373 3.559 3.871 5.861 3.871 2.93 0 4.534-2.021 4.534-5.545" />
    <path
       id="C"
       d="M888.917 536.148h9.069c-.246 2.616-2.058 4.638-4.569 4.638-2.408 0-4.29-1.883-4.501-4.638m11.859-1.883h-11.788c.488-2.757 2.44-4.675 5.615-4.675 1.428 0 2.895.419 4.359 1.221v-2.197c-1.428-.907-3.277-1.395-5.196-1.395-4.57 0-7.674 3.21-7.674 7.744 0 4.708 3.243 8.231 7.604 8.231 4.708 0 7.395-3.836 7.08-8.928" />
    <path
       id="D"
       d="M932.756 542.845h2.79v-15.279h-2.79zm-.488 5.651c0 1.116.907 2.023 2.023 2.023s1.988-.907 1.988-2.023c0-1.083-.872-1.99-1.988-1.99s-2.023.907-2.023 1.99" />
    <path
       id="E"
       d="M963.587 531.264v4.326c-5.475-.942-7.395-2.511-7.395-4.152 0-1.29 1.013-2.093 2.685-2.093 1.745 0 3.488.663 4.71 1.918m2.792 6.243v-9.94h-2.792v1.883c-1.466-1.43-3.522-2.232-5.754-2.232-2.755 0-4.57 1.465-4.57 3.767 0 3.071 2.964 5.372 10.325 6.488-.035 2.232-1.116 3.313-3.034 3.313-1.745 0-3.733-.767-5.475-2.232v2.651c1.604 1.256 3.87 1.988 5.929 1.988 3.524 0 5.372-1.883 5.372-5.686" />
  </defs>
  <text
     xml:space="preserve"
     style="font-style:normal;font-variant:normal;font-weight:500;font-stretch:normal;font-size:56.8101px;line-height:100%;font-family:'UK Sans';-inkscape-font-specification:'UK Sans, Medium';font-variant-ligatures:normal;font-variant-caps:normal;font-variant-numeric:normal;font-variant-east-asian:normal;text-align:start;letter-spacing:0px;word-spacing:0px;text-anchor:start;fill:#000000;fill-opacity:1;stroke:none;stroke-width:1px;stroke-linecap:butt;stroke-linejoin:miter;stroke-opacity:1"
     x="264.9436"
     y="55.163143"
     id="text26362"><tspan
       sodipodi:role="line"
       id="tspan45236"
       x="264.9436"
       y="55.163143"
       style="text-align:start;text-anchor:start;stroke-width:1px">FACULTY </tspan><tspan
       sodipodi:role="line"
       x="264.9436"
       y="111.97324"
       style="text-align:start;text-anchor:start;stroke-width:1px"
       id="tspan48370">OF NATURAL SCIENCES</tspan></text>
</svg>
