<svg xmlns="http://www.w3.org/2000/svg" xmlns:xlink="http://www.w3.org/1999/xlink" height="236.667" width="1030.2" xmlns:v="https://vecta.io/nano"><g transform="matrix(1.333333 0 0 -1.333333 -821.01874 852.11579)"><path d="M704.514 633.1c-45.636 0-82.763-37.127-82.763-82.763s37.127-82.763 82.763-82.763 82.763 37.128 82.763 82.763S750.15 633.1 704.514 633.1m0-167.763c-46.869 0-85 38.131-85 85s38.131 85 85 85 85-38.131 85-85-38.131-85-85-85m-35.311 134.805l2.271-1.242c.188-.104.342-.258.446-.445l1.243-2.273 1.243 2.273a1.14 1.14 0 0 0 .444.445l2.273 1.242-2.273 1.243a1.13 1.13 0 0 0-.444.444l-1.243 2.274-1.243-2.274c-.104-.187-.258-.341-.446-.444zm3.96-7.409c-.409 0-.785.222-.981.582l-2.068 3.779-3.778 2.067c-.36.196-.582.573-.582.981s.222.785.582.981l3.778 2.068 2.068 3.779c.196.359.572.582.981.582a1.12 1.12 0 0 0 .981-.582l2.067-3.779 3.779-2.068c.359-.196.582-.572.582-.981a1.12 1.12 0 0 0-.582-.981l-3.779-2.067-2.067-3.779c-.196-.36-.572-.582-.981-.582m58.658 7.409l2.271-1.242c.188-.104.342-.258.446-.445l1.242-2.273 1.243 2.273a1.14 1.14 0 0 0 .444.445l2.273 1.242-2.273 1.243a1.13 1.13 0 0 0-.444.444l-1.243 2.273-1.242-2.273c-.104-.187-.258-.341-.446-.444zm3.959-7.409c-.408 0-.785.222-.98.582l-2.068 3.779-3.779 2.067a1.12 1.12 0 0 0-.582.981c0 .409.223.785.582.981l3.779 2.068 2.068 3.779c.392.718 1.57.718 1.962 0l2.067-3.779 3.779-2.068c.359-.196.582-.572.582-.981a1.12 1.12 0 0 0-.582-.981l-3.779-2.067-2.067-3.779a1.12 1.12 0 0 0-.982-.582m-62.223-110.082c-.29 0-.58.112-.799.336a1.12 1.12 0 0 0 .016 1.581l23.561 23.076c4.511 4.417 11.847 4.415 16.357 0l23.561-23.076a1.12 1.12 0 0 0 .017-1.581 1.12 1.12 0 0 0-1.582-.017l-23.562 23.077c-3.645 3.571-9.579 3.569-13.225 0L674.34 482.97a1.12 1.12 0 0 0-.783-.319"/><path d="M727.383 490.571c-.291 0-.58.112-.8.336a1.12 1.12 0 0 0 .017 1.582l8.562 8.38c3.436 3.365 9.028 3.366 12.464-.001l5.511-5.397a1.12 1.12 0 0 0 .016-1.581c-.432-.442-1.14-.451-1.583-.016l-5.509 5.396c-2.574 2.522-6.76 2.522-9.333 0l-8.564-8.381a1.11 1.11 0 0 0-.781-.318m-45.738.001c-.281 0-.564.105-.782.319l-8.556 8.379a6.71 6.71 0 0 1-9.334 0l-5.514-5.399c-.441-.433-1.149-.425-1.581.016a1.12 1.12 0 0 0 .017 1.581l5.513 5.4c3.437 3.366 9.028 3.366 12.464 0l8.556-8.379c.442-.432.449-1.14.017-1.581-.22-.224-.509-.336-.8-.336"/><path d="M704.514 622.614c-39.854 0-72.277-32.423-72.277-72.277s32.423-72.279 72.277-72.279 72.277 32.424 72.277 72.279-32.423 72.277-72.277 72.277m0-146.792c-41.088 0-74.516 33.427-74.516 74.515s33.428 74.514 74.516 74.514 74.516-33.426 74.516-74.514-33.428-74.515-74.516-74.515m2.939 32.479a1.03 1.03 0 0 0-.156.011 1.12 1.12 0 0 0-.952 1.262l2.458 17.526c.086.613.65 1.045 1.263.952.612-.086 1.037-.651.951-1.263l-2.458-17.525c-.078-.56-.557-.963-1.106-.963m-5.931 0a1.12 1.12 0 0 0-1.107.965l-2.422 17.535c-.085.612.341 1.177.955 1.261a1.11 1.11 0 0 0 1.26-.954l2.423-17.536a1.12 1.12 0 0 0-.955-1.26c-.052-.008-.103-.011-.154-.011m-34.649 1.265a1.1 1.1 0 0 0-.412.079 1.12 1.12 0 0 0-.69 1.229c.069.404 1.741 9.944 5.434 13.74 2.156 2.217 4.414 2.957 6.227 3.552 1.377.451 2.464.807 3.277 1.646.887.917 1.163 2.599 1.482 4.545.19 1.149.385 2.338.731 3.546a1.12 1.12 0 0 0 .809.778l6.376 1.558a1.12 1.12 0 0 0 1.352-.821 1.12 1.12 0 0 0-.82-1.353l-5.731-1.399c-.217-.887-.365-1.791-.51-2.671-.364-2.221-.709-4.319-2.082-5.739-1.197-1.236-2.65-1.712-4.187-2.216-1.744-.572-3.547-1.163-5.32-2.987-1.549-1.591-2.725-4.549-3.529-7.195.872 1.093 1.833 2.215 2.776 3.157 2.963 2.964 6.264 3.384 9.176 3.754 2.3.293 4.287.545 5.74 1.999 1.522 1.523 1.993 3.297 2.491 5.176.486 1.83.986 3.719 2.48 5.329l.293 1.186c.148.6.75.969 1.354.818a1.12 1.12 0 0 0 .818-1.354l-.365-1.478a1.11 1.11 0 0 0-.315-.543c-1.226-1.229-1.632-2.759-2.103-4.531-.525-1.986-1.123-4.237-3.071-6.185-1.994-1.994-4.56-2.32-7.039-2.636-2.681-.34-5.454-.693-7.877-3.117-2.745-2.745-5.802-7.322-5.833-7.368a1.12 1.12 0 0 0-.932-.499"/><path d="M702.412 567.157c-.379 0-.748.192-.958.54l-3.294 5.453a1.11 1.11 0 0 0-.15.734l5.445 38.82c.076.552.549.963 1.107.963a1.12 1.12 0 0 0 1.108-.965l5.365-38.83c.035-.255-.018-.515-.151-.735l-3.298-5.432a1.12 1.12 0 0 0-1.537-.375c-.528.32-.696 1.008-.375 1.536l3.092 5.093-4.212 30.479-4.275-30.471 3.089-5.114a1.12 1.12 0 0 0-.379-1.535c-.181-.109-.38-.161-.577-.161m-12.035-6.75a1.14 1.14 0 0 0-.27.033l-1.357.335a1.12 1.12 0 0 0-.519.292c-1.227 1.214-2.75 1.618-4.516 2.087-1.985.526-4.236 1.123-6.186 3.072-1.994 1.994-2.319 4.559-2.634 7.039-.341 2.681-.694 5.454-3.118 7.877-2.748 2.749-7.322 5.802-7.369 5.833a1.12 1.12 0 0 0 .809 2.034c.404-.07 9.944-1.742 13.741-5.434 2.218-2.157 2.957-4.414 3.552-6.227.451-1.377.808-2.464 1.646-3.277.918-.887 2.599-1.163 4.545-1.482 1.093-.18 2.223-.366 3.373-.683.391-.107.694-.418.789-.812l1.55-6.341a1.12 1.12 0 0 0-.821-1.353 1.12 1.12 0 0 0-1.352.821l-1.39 5.689c-.836.196-1.684.335-2.511.471-2.221.365-4.318.709-5.737 2.083-1.238 1.197-1.713 2.649-2.217 4.187-.572 1.744-1.164 3.547-2.987 5.32-1.591 1.549-4.55 2.724-7.195 3.528 1.092-.872 2.214-1.833 3.156-2.775 2.965-2.964 3.384-6.265 3.754-9.176.293-2.3.545-4.287 1.998-5.74 1.524-1.523 3.298-1.994 5.178-2.492 1.813-.481 3.684-.977 5.284-2.44l1.072-.264a1.12 1.12 0 0 0-.268-2.205m-9.638-16.817a1.13 1.13 0 0 0-.164.012l-38.437 5.676a1.12 1.12 0 0 0 .003 2.214l38.453 5.595c.258.037.52-.016.742-.15l5.86-3.559a1.12 1.12 0 0 0 .375-1.537c-.32-.528-1.006-.695-1.536-.375l-5.517 3.35-30.506-4.439 30.493-4.504 5.531 3.342c.529.319 1.217.15 1.535-.379a1.12 1.12 0 0 0-.379-1.535l-5.875-3.55a1.12 1.12 0 0 0-.578-.161m47.535-.015c-.204 0-.405.056-.581.162l-5.771 3.503a1.12 1.12 0 0 0-.375 1.536 1.12 1.12 0 0 0 1.538.376l5.425-3.294 30.506 4.439-30.492 4.503-5.441-3.288a1.12 1.12 0 0 0-1.537.379 1.12 1.12 0 0 0 .38 1.537l5.786 3.495c.222.133.483.186.742.148l38.436-5.677c.549-.081.956-.552.955-1.107a1.12 1.12 0 0 0-.958-1.106l-38.453-5.594c-.053-.008-.107-.012-.16-.012m15.823-32.173c-.062 0-.126.005-.189.016-.403.069-9.896 1.733-13.673 5.408-2.207 2.146-2.944 4.392-3.535 6.196-.45 1.369-.804 2.451-1.638 3.258-.911.882-2.582 1.156-4.518 1.474-1.145.188-2.329.381-3.532.727a1.12 1.12 0 0 0-.777.81l-1.606 6.567a1.12 1.12 0 0 0 .822 1.353 1.12 1.12 0 0 0 1.352-.822l1.447-5.922c.882-.214 1.782-.363 2.657-.506 2.21-.363 4.297-.705 5.711-2.074 1.231-1.191 1.705-2.637 2.207-4.168.568-1.734 1.156-3.527 2.968-5.29 1.578-1.534 4.504-2.701 7.128-3.5-1.079.864-2.186 1.812-3.118 2.743-2.95 2.951-3.367 6.235-3.736 9.133-.29 2.287-.541 4.262-1.987 5.706-1.513 1.514-3.278 1.983-5.146 2.478-1.902.504-3.87 1.025-5.519 2.674-.06.06-.12.124-.178.188l-.772.191c-.6.148-.967.754-.818 1.353s.754.97 1.353.819l1.121-.277a1.11 1.11 0 0 0 .601-.382 4.13 4.13 0 0 1 .275-.31c1.222-1.223 2.746-1.626 4.509-2.094 1.977-.524 4.217-1.118 6.156-3.058 1.987-1.985 2.311-4.538 2.624-7.005.339-2.667.689-5.424 3.099-7.834 2.731-2.731 7.285-5.772 7.331-5.803.441-.292.614-.853.419-1.344-.171-.432-.586-.705-1.038-.705m-25.361 49.021a1.12 1.12 0 0 0-.265 2.205l5.88 1.437.468 2.497c.363 2.21.706 4.298 2.074 5.711 1.193 1.231 2.638 1.706 4.168 2.207 1.735.569 3.528 1.157 5.291 2.969 1.537 1.58 2.703 4.506 3.502 7.13l-2.745-3.12c-2.95-2.95-6.235-3.368-9.133-3.736-2.287-.291-4.262-.542-5.706-1.987-1.513-1.513-1.982-3.279-2.478-5.147-.504-1.902-1.026-3.87-2.674-5.519l-.151-.143-.16-.648a1.12 1.12 0 0 0-1.353-.818 1.12 1.12 0 0 0-.819 1.355l.246.991c.057.232.188.441.374.594l.281.251c1.222 1.223 1.627 2.747 2.094 4.51.524 1.977 1.119 4.216 3.058 6.157 1.985 1.985 4.537 2.309 7.006 2.623 2.666.338 5.424.689 7.833 3.099 2.731 2.731 5.772 7.284 5.802 7.33a1.12 1.12 0 0 0 2.034-.808c-.069-.403-1.732-9.896-5.407-13.673-2.148-2.207-4.393-2.944-6.198-3.535-1.369-.45-2.45-.804-3.257-1.638-.881-.91-1.157-2.582-1.474-4.519-.179-1.088-.363-2.212-.679-3.357a1.12 1.12 0 0 0-.812-.789l-6.533-1.597a1.12 1.12 0 0 0-.267-.032"/><path d="M691.776 569.71a1.12 1.12 0 0 0-1.085.853l-6.177 25.274a1.12 1.12 0 0 0 2.044.844l13.517-22.374a1.12 1.12 0 0 0-.379-1.536 1.12 1.12 0 0 0-1.536.379l-9.738 16.12 4.442-18.176a1.12 1.12 0 0 0-.82-1.352 1.13 1.13 0 0 0-.268-.032m25.545-41.273a1.12 1.12 0 0 0-1.086.854l-1.605 6.567a1.12 1.12 0 0 0 .821 1.352 1.12 1.12 0 0 0 1.352-.821l1.605-6.567a1.12 1.12 0 0 0-.821-1.353 1.16 1.16 0 0 0-.266-.032"/><path d="M723.428 503.452c-.381 0-.75.195-.957.54l-16.805 27.815a1.12 1.12 0 0 0 .379 1.536 1.12 1.12 0 0 0 1.536-.379l13.025-21.561-4.371 17.887a1.12 1.12 0 0 0 .82 1.352 1.12 1.12 0 0 0 1.352-.821l6.107-24.985a1.12 1.12 0 0 0-.659-1.3c-.139-.057-.284-.084-.427-.084m-16.799 63.715a1.12 1.12 0 0 0-.955 1.699l3.298 5.433a1.12 1.12 0 0 0 1.536.376 1.12 1.12 0 0 0 .376-1.537l-3.298-5.433a1.12 1.12 0 0 0-.957-.538m9.094-3.738c-.09 0-.18.011-.27.032a1.12 1.12 0 0 0-.818 1.355l.245.991c.149.6.752.966 1.355.817a1.12 1.12 0 0 0 .817-1.353l-.245-.991c-.125-.51-.582-.851-1.084-.851"/><path d="M715.967 564.42a1.2 1.2 0 0 0-.27.032 1.12 1.12 0 0 0-.817 1.355l5.784 23.438-9.78-16.107c-.321-.529-1.007-.697-1.536-.375a1.12 1.12 0 0 0-.376 1.536l13.573 22.353a1.12 1.12 0 0 0 2.042-.848l-7.535-30.533a1.12 1.12 0 0 0-1.085-.851m6.537-13.068c-.379 0-.748.192-.958.54a1.12 1.12 0 0 0 .38 1.536l5.785 3.495a1.12 1.12 0 0 0 1.535-.38c.32-.528.151-1.215-.379-1.535l-5.785-3.495a1.12 1.12 0 0 0-.578-.161"/><path d="M728.29 554.847c-.379 0-.748.192-.958.54a1.12 1.12 0 0 0 .379 1.536l15.736 9.506-17.912-4.377c-.601-.148-1.205.221-1.352.82a1.12 1.12 0 0 0 .821 1.353l25.01 6.112a1.12 1.12 0 0 0 1.299-.66c.211-.51.018-1.099-.456-1.384l-21.99-13.285c-.181-.109-.381-.161-.577-.161m-69.543-24.542a1.12 1.12 0 0 0-1.033.691c-.211.511-.018 1.099.456 1.384l21.99 13.285c.529.32 1.217.15 1.535-.379a1.12 1.12 0 0 0-.379-1.535l-15.736-9.507 18.151 4.437c.599.145 1.205-.222 1.353-.821a1.12 1.12 0 0 0-.821-1.353l-25.249-6.171a1.17 1.17 0 0 0-.267-.031"/><path d="M680.74 543.59c-.378 0-.748.192-.958.54-.32.528-.15 1.216.379 1.535l5.875 3.55c.529.319 1.217.15 1.535-.379a1.12 1.12 0 0 0-.379-1.535l-5.875-3.55c-.181-.109-.38-.161-.577-.161m3.256-7.115a1.12 1.12 0 0 0-.265 2.206l6.376 1.558a1.12 1.12 0 0 0 1.352-.822 1.12 1.12 0 0 0-.82-1.352l-6.376-1.558c-.089-.021-.179-.032-.267-.032m66.254-6.244a1.13 1.13 0 0 0-.27.032l-30.395 7.502c-.6.149-.966.754-.817 1.354s.755.969 1.353.818l23.301-5.751-15.73 9.552a1.12 1.12 0 0 0-.376 1.536c.322.527 1.01.696 1.538.376l21.976-13.345c.472-.287.664-.875.451-1.385-.176-.425-.589-.689-1.031-.689m-63.636 21.072c-.197 0-.397.053-.579.163l-5.86 3.559c-.528.32-.696 1.008-.375 1.536a1.12 1.12 0 0 0 1.536.376l5.86-3.559a1.12 1.12 0 0 0 .375-1.537c-.21-.347-.578-.538-.957-.538"/><path d="M680.754 554.862a1.12 1.12 0 0 0-.58.163l-21.977 13.344a1.12 1.12 0 0 0-.451 1.385c.211.51.762.789 1.301.657l30.238-7.463a1.12 1.12 0 0 0 .524-.295l-.807-.854-.252-1.023-23.144 5.712 15.729-9.551a1.12 1.12 0 0 0-.581-2.075"/><path d="M690.377 560.407a1.14 1.14 0 0 0-.27.033l-1.357.335.254 1.028-.779-.729a1.14 1.14 0 0 0-.161 1.342c.25.427.74.652 1.221.531l1.36-.335a1.12 1.12 0 0 0-.268-2.205m2.581-26.814a1.13 1.13 0 0 0-.269.033 1.12 1.12 0 0 0-.818 1.354l.365 1.478c.148.601.75.97 1.354.819a1.12 1.12 0 0 0 .818-1.354l-.365-1.478a1.12 1.12 0 0 0-1.085-.852"/><path d="M685.526 503.483a1.11 1.11 0 0 0-.428.085 1.12 1.12 0 0 0-.657 1.301l7.431 30.111c.148.6.752.97 1.353.818a1.12 1.12 0 0 0 .819-1.353l-5.68-23.018 13.085 21.551a1.12 1.12 0 0 0 1.536.376 1.12 1.12 0 0 0 .376-1.536l-16.878-27.797a1.12 1.12 0 0 0-.957-.538"/><path d="M704.563 567.296a16.92 16.92 0 0 1-6.486-1.299 16.83 16.83 0 0 1-9.174-9.174c-3.577-8.634.538-18.57 9.174-22.147s18.57.539 22.146 9.174c1.733 4.182 1.733 8.791 0 12.973a16.84 16.84 0 0 1-9.174 9.174c-2.091.866-4.289 1.299-6.486 1.299m-.025-36.147a19.09 19.09 0 0 0-7.318 1.46c-9.774 4.049-14.432 15.295-10.384 25.071a19.06 19.06 0 0 0 10.384 10.384c4.736 1.961 9.95 1.961 14.686 0s8.423-5.65 10.384-10.384a19.07 19.07 0 0 0 0-14.686c-3.057-7.381-10.22-11.845-17.752-11.845m128.936 59.042c0 2.9-2.329 4.744-5.974 4.744h-4.788v-9.664h4.744c3.689 0 6.017 1.934 6.017 4.92m4.611.22c0-5.445-4.303-8.872-11.069-8.872h-4.303v-11.858h-4.391v28.987h9.882c6.061 0 9.882-3.206 9.882-8.257m8.779-5.139h5.182c3.691 0 6.017 1.932 6.017 4.92 0 2.9-2.326 4.743-5.974 4.743h-5.226zm18.446-13.177l-2.635-3.293-15.811 12.736V569.68h-4.393v28.988h10.322c6.061 0 9.882-3.207 9.882-8.257 0-4.92-3.558-8.213-9.224-8.784zm7.77 36.236h4.83l-4.83-7.027h-2.635zm-3.383-9.662h4.393v-28.988h-4.393zm15.81-13.397h5.183c3.69 0 6.017 1.932 6.017 4.92 0 2.9-2.327 4.743-5.974 4.743h-5.227zm18.446-13.177l-2.635-3.293-15.811 12.736V569.68h-4.391v28.988h10.322c6.06 0 9.88-3.207 9.88-8.257 0-4.92-3.557-8.213-9.223-8.784zm28.324 11.509c0 6.808-4.699 11.771-11.155 11.771-6.017 0-10.365-4.482-10.365-10.63 0-6.808 4.699-11.771 11.155-11.771 6.017 0 10.365 4.481 10.365 10.63m-26.132.351c0 8.784 6.544 15.151 15.547 15.151 8.829 0 15.198-6.192 15.198-14.712 0-8.785-6.544-15.154-15.549-15.154-8.826 0-15.195 6.193-15.195 14.715m57.309-.351c0 6.544-4.874 11.331-12.912 11.331h-3.999v-21.52h4.788c7.6 0 12.123 4.303 12.123 10.189m4.612.79c0-8.52-6.72-14.714-17.306-14.714h-8.607v28.988h8.958c10.41 0 16.955-6.017 16.955-14.274m29.641-.79c0 6.808-4.699 11.771-11.157 11.771-6.017 0-10.365-4.482-10.365-10.63 0-6.808 4.699-11.771 11.157-11.771 6.017 0 10.365 4.481 10.365 10.63m-26.132.351c0 8.784 6.543 15.151 15.547 15.151 8.829 0 15.197-6.192 15.197-14.712 0-8.785-6.543-15.154-15.548-15.154-8.828 0-15.195 6.193-15.195 14.715m61.349 14.713l-13.879-28.988h-2.196l-13.791 28.988h5.051l9.926-21.653 10.059 21.653zm20.637-25.034v-3.954h-17.129v28.988h15.811v-3.952h-11.419v-8.566h11.419v-3.952h-11.419v-8.564zm27.447 9.97c0 6.544-4.874 11.331-12.912 11.331h-3.997v-21.52h4.786c7.6 0 12.123 4.303 12.123 10.189m4.612.79c0-8.52-6.72-14.714-17.304-14.714h-8.61v28.988h8.961c10.409 0 16.953-6.017 16.953-14.274m22.393-10.76v-3.954h-17.13v28.988h15.811v-3.952h-11.417v-8.566h11.417v-3.952h-11.417v-8.564zm3.51 10.321c0 8.784 7.115 15.151 16.646 15.151 3.207 0 6.149-.613 8.608-1.843v-4.612c-2.196 1.581-5.533 2.503-9.399 2.503-6.676 0-11.243-4.391-11.243-10.497 0-6.676 5.05-11.464 12.033-11.464 3.558 0 6.5 1.054 8.608 2.461v-4.085c-2.591-1.581-5.709-2.329-9.179-2.329-9.882 0-16.075 6.063-16.075 14.715m52.042-15.197l-17.129 14.012v-13.09h-4.391v28.988h4.391v-14.01l13.308 14.01h5.577l-14.055-14.493 14.935-12.124zm19.627 32.546h-2.635l2.635 7.027h4.832zm3.734-19.326l-4.964 10.059-5.006-10.059zm1.932-3.954h-13.879l-4.172-8.343h-4.612l14.757 28.988h2.196l14.67-28.988h-4.832zm25.641 16.692v-8.566h10.981v-3.952H1214.5V569.68h-4.393v28.988h15.374v-3.952z"/><path d="M1245.899 581.978l-4.962 10.059-5.007-10.059zm1.934-3.954h-13.881l-4.172-8.345h-4.612l14.757 28.988h2.197l14.668-28.988h-4.83zm33.987-9.266l-17.13 14.012v-13.09h-4.39v28.988h4.39v-14.01l13.31 14.01h5.577l-14.055-14.493 14.933-12.124zm6.407 14.274l-.966 15.636h4.612l.966-15.636c.395-6.061 3.162-9.399 8.301-9.399 4.92 0 7.644 3.337 8.037 9.399l1.011 15.636h4.391l-.966-15.636c-.527-8.873-4.876-13.791-12.912-13.791-7.775 0-11.947 4.918-12.475 13.791m48.044-9.398v-3.954h-15.372v28.988h4.393v-25.034zm18.882 21.082h-8.081V569.68h-4.391v25.036h-8.081v3.952h20.554zm18.62-12.738l-4.964 10.059-5.006-10.059zm1.932-3.954h-13.879l-4.172-8.345h-4.612l14.757 28.988h2.196l14.67-28.988h-4.83zM817.98 537.927l-.802 12.661h2.931l.766-12.661c.35-5.057 2.827-7.918 7.153-7.918 4.22 0 6.661 2.861 6.975 7.918l.802 12.661h2.79l-.767-12.661c-.419-6.802-3.906-10.708-10.081-10.708-5.999 0-9.383 3.906-9.767 10.708"/><use xlink:href="#B"/><path d="M862.131 542.845h2.792v-15.279h-2.792zm-.487 5.651c0 1.116.907 2.023 2.023 2.023s1.988-.907 1.988-2.023c0-1.083-.872-1.99-1.988-1.99s-2.023.907-2.023 1.99m23.58-5.651l-8.093-15.279h-1.395l-8.128 15.279h3.209l5.651-11.092 5.685 11.092z"/><use xlink:href="#C"/><path d="M914.168 542.949v-2.964c-1.918.314-4.569-.699-6.872-5.233v-7.184h-2.79v15.279h2.79v-5.442c1.92 4.71 4.396 5.896 6.872 5.545m14.509-13.115l-.281-2.268h-12.172v1.395l8.441 11.615h-7.955l.281 2.268h11.441v-1.397l-8.407-11.614z"/><use xlink:href="#D"/><path d="M947.928 529.73a7.1 7.1 0 0 1 3.069.663v-2.302c-1.081-.593-2.302-.872-3.767-.872-3.767 0-5.231 1.988-5.231 5.406v7.953h-3.768l.279 2.267h3.489v5.407l2.79.593v-6h6.243l-.281-2.267h-5.962v-7.917c0-1.815 1.08-2.931 3.139-2.931"/><use xlink:href="#E"/><path d="M995.533 526.974l-13.674 11.197v-10.604h-2.79v23.021h2.79v-11.162l11.128 11.162h3.557l-11.614-11.545 12.276-9.976zm16.39 7.953c0 3.418-2.337 5.859-5.512 5.859-2.928 0-5.127-2.196-5.127-5.3 0-3.385 2.303-5.896 5.477-5.896 2.964 0 5.162 2.265 5.162 5.336m-13.568.105c0 4.745 3.559 8.162 8.372 8.162 4.673 0 8.091-3.28 8.091-7.814 0-4.743-3.522-8.161-8.37-8.161-4.64 0-8.093 3.313-8.093 7.812m44.155 2.583v-10.046h-2.79v9.802c0 2.093-.942 3.418-2.582 3.418-2.058 0-3.836-1.988-5.057-4.604v-8.616h-2.79v9.802c0 2.093-.943 3.418-2.546 3.418-2.059 0-3.836-1.988-5.059-4.604v-8.616h-2.79v15.279h2.79v-3.559c1.43 2.373 3.557 3.871 5.861 3.871 2.511 0 4.046-1.465 4.429-4.115 1.431 2.511 3.629 4.115 5.964 4.115 2.931 0 4.57-2.021 4.57-5.545m6.729-1.465h9.069c-.246 2.616-2.059 4.638-4.57 4.638-2.406 0-4.29-1.883-4.499-4.638m11.858-1.883h-11.788c.488-2.757 2.441-4.675 5.615-4.675 1.43 0 2.895.419 4.361 1.221v-2.197c-1.43-.907-3.278-1.395-5.196-1.395-4.57 0-7.676 3.21-7.676 7.744 0 4.708 3.245 8.231 7.604 8.231 4.708 0 7.395-3.836 7.08-8.928"/><use xlink:href="#B" x="221.143"/><path d="M1082.194 531.264c1.639-1.186 3.209-1.709 4.919-1.709 1.951 0 2.998.732 2.998 1.709 0 3.071-7.847 2.338-7.847 7.325 0 2.685 2.513 4.604 6.035 4.604 1.393 0 2.719-.244 3.904-.767v-2.685c-1.149.698-2.755 1.116-4.393 1.116-1.745 0-2.755-.872-2.755-1.883 0-2.895 7.847-2.476 7.847-7.465 0-2.511-2.581-4.29-6.138-4.29-1.815 0-3.385.419-4.57 1.186zm26.019-4.254l-8.197 7.603v-7.045h-2.79v23.021h2.79v-14.721l6.452 6.977h3.245l-6.836-7.359 7.324-6.698zm11.507 17.998h-1.744l2.267 5.582h3.072zm-5.51-8.86h9.069c-.244 2.617-2.058 4.638-4.569 4.638-2.408 0-4.291-1.883-4.501-4.638m11.861-1.883h-11.791c.488-2.757 2.441-4.675 5.617-4.675 1.43 0 2.895.419 4.359 1.221v-2.197c-1.43-.907-3.278-1.395-5.198-1.395-4.569 0-7.673 3.21-7.673 7.744 0 4.708 3.243 8.231 7.604 8.231 4.708 0 7.394-3.835 7.081-8.928m16.915 3.347v-10.046h-2.79v9.802c0 2.093-.942 3.418-2.546 3.418-2.059 0-3.836-1.988-5.059-4.604v-8.616h-2.79v23.023h2.79v-11.303c1.43 2.373 3.559 3.871 5.861 3.871 2.93 0 4.534-2.021 4.534-5.545"/><path d="M1160.457 534.927c0 3.418-2.338 5.859-5.512 5.859-2.93 0-5.127-2.196-5.127-5.3 0-3.385 2.3-5.896 5.475-5.896 2.964 0 5.163 2.265 5.163 5.336m-13.571.105c0 4.745 3.56 8.162 8.373 8.162 4.675 0 8.093-3.28 8.093-7.814 0-4.743-3.522-8.161-8.372-8.161-4.638 0-8.094 3.313-8.094 7.812m-314.464-27.06l-8.091-15.279h-1.395l-8.128 15.279h3.209l5.651-11.092 5.685 11.092z"/><path d="M855.124 498.971c0 2.511-2.058 4.115-5.196 4.115h-4.326v-8.023h4.849c2.792 0 4.673 1.536 4.673 3.908m-9.523 14.369v-8.021h3.524c2.755 0 4.501 1.569 4.501 3.977 0 2.476-1.885 4.044-4.849 4.044zm12.454-14.299c0-3.871-3.174-6.349-8.056-6.349h-7.188v23.023h6.14c4.638 0 7.604-2.303 7.604-5.896 0-2.408-1.29-4.256-3.489-5.128 3.106-.767 4.989-2.79 4.989-5.65m13.356 9.032v-2.964c-1.92.314-4.57-.699-6.872-5.233v-7.184h-2.792v15.279h2.792v-5.442c1.918 4.71 4.396 5.896 6.872 5.545m11.614-11.686v4.326c-5.477-.942-7.395-2.511-7.395-4.152 0-1.29 1.011-2.093 2.685-2.093 1.744 0 3.488.663 4.71 1.918m2.79 6.243v-9.94h-2.79v1.883c-1.466-1.43-3.524-2.232-5.756-2.232-2.755 0-4.57 1.465-4.57 3.767 0 3.071 2.966 5.372 10.326 6.488-.035 2.232-1.118 3.313-3.036 3.313-1.745 0-3.733-.767-5.475-2.232v2.651c1.604 1.256 3.871 1.988 5.929 1.988 3.524 0 5.372-1.883 5.372-5.686m11.577-7.776c1.187 0 2.164.244 3.071.663v-2.302c-1.081-.593-2.303-.872-3.767-.872-3.768 0-5.233 1.988-5.233 5.406v7.953h-3.767l.279 2.267h3.488v5.407l2.792.593v-6h6.243l-.279-2.267h-5.964v-7.917c0-1.815 1.081-2.931 3.137-2.931"/><use xlink:href="#D" x="-28.668" y="-34.876"/><path d="M911.201 496.388c1.641-1.186 3.21-1.709 4.921-1.709 1.951 0 2.998.732 2.998 1.709 0 3.071-7.847 2.338-7.847 7.325 0 2.685 2.511 4.604 6.035 4.604 1.392 0 2.719-.244 3.904-.767v-2.685c-1.149.698-2.755 1.116-4.394 1.116-1.744 0-2.755-.872-2.755-1.883 0-2.895 7.849-2.476 7.849-7.465 0-2.511-2.582-4.29-6.14-4.29-1.815 0-3.385.419-4.57 1.186zm14.858.524v18.801h2.79v-18.871c0-1.325.732-2.127 2.302-2.127a4.1 4.1 0 0 1 1.5.279v-2.232c-.628-.279-1.36-.419-2.199-.419-3.207 0-4.393 1.674-4.393 4.569"/><use xlink:href="#E" x="-18.8" y="-34.876"/><path d="M966.864 507.97l-8.093-15.279h-1.395l-8.128 15.279h3.209l5.651-11.092 5.685 11.092z"/><use xlink:href="#C" x="81.641" y="-34.875"/><path d="M2562.034 804.124h543.633v-41.258h-543.633z" fill="#fff"/></g><defs ><path id="B" d="M856.869 537.613v-10.046h-2.79v9.802c0 2.093-.942 3.418-2.546 3.418-2.058 0-3.838-1.988-5.059-4.604v-8.616h-2.788v15.279h2.788v-3.559c1.431 2.373 3.559 3.871 5.861 3.871 2.93 0 4.534-2.021 4.534-5.545"/><path id="C" d="M888.917 536.148h9.069c-.246 2.616-2.058 4.638-4.569 4.638-2.408 0-4.29-1.883-4.501-4.638m11.859-1.883h-11.788c.488-2.757 2.44-4.675 5.615-4.675 1.428 0 2.895.419 4.359 1.221v-2.197c-1.428-.907-3.277-1.395-5.196-1.395-4.57 0-7.674 3.21-7.674 7.744 0 4.708 3.243 8.231 7.604 8.231 4.708 0 7.395-3.836 7.08-8.928"/><path id="D" d="M932.756 542.845h2.79v-15.279h-2.79zm-.488 5.651c0 1.116.907 2.023 2.023 2.023s1.988-.907 1.988-2.023c0-1.083-.872-1.99-1.988-1.99s-2.023.907-2.023 1.99"/><path id="E" d="M963.587 531.264v4.326c-5.475-.942-7.395-2.511-7.395-4.152 0-1.29 1.013-2.093 2.685-2.093 1.745 0 3.488.663 4.71 1.918m2.792 6.243v-9.94h-2.792v1.883c-1.466-1.43-3.522-2.232-5.754-2.232-2.755 0-4.57 1.465-4.57 3.767 0 3.071 2.964 5.372 10.325 6.488-.035 2.232-1.116 3.313-3.034 3.313-1.745 0-3.733-.767-5.475-2.232v2.651c1.604 1.256 3.87 1.988 5.929 1.988 3.524 0 5.372-1.883 5.372-5.686"/></defs></svg>