<svg xmlns="http://www.w3.org/2000/svg" xmlns:xlink="http://www.w3.org/1999/xlink" width="806.775" height="236.667" xmlns:v="https://vecta.io/nano"><g transform="matrix(1.333333 0 0 -1.333333 -821.01874 852.11579)"><path d="M1481.695 1118.898h959.999v540h-959.999z" fill="#fff"/><path d="M704.514 633.1c-45.636 0-82.763-37.127-82.763-82.763s37.127-82.763 82.763-82.763 82.763 37.128 82.763 82.763S750.15 633.1 704.514 633.1m0-167.763c-46.869 0-85 38.131-85 85s38.131 85 85 85 85-38.131 85-85-38.131-85-85-85m-35.311 134.805l2.271-1.242c.188-.104.342-.258.446-.445l1.243-2.273 1.243 2.273a1.14 1.14 0 0 0 .444.445l2.273 1.242-2.273 1.243a1.13 1.13 0 0 0-.444.444l-1.243 2.274-1.243-2.274c-.104-.187-.258-.341-.446-.444zm3.96-7.409c-.409 0-.785.222-.981.582l-2.068 3.779-3.778 2.067c-.36.196-.582.573-.582.981s.222.785.582.981l3.778 2.068 2.068 3.779c.196.359.572.582.981.582a1.12 1.12 0 0 0 .981-.582l2.067-3.779 3.779-2.068c.359-.196.582-.572.582-.981a1.12 1.12 0 0 0-.582-.981l-3.779-2.067-2.067-3.779c-.196-.36-.572-.582-.981-.582m58.658 7.409l2.271-1.242c.188-.104.342-.258.446-.445l1.242-2.273 1.243 2.273a1.14 1.14 0 0 0 .444.445l2.273 1.242-2.273 1.243a1.13 1.13 0 0 0-.444.444l-1.243 2.273-1.242-2.273c-.104-.187-.258-.341-.446-.444zm3.959-7.409c-.408 0-.785.222-.98.582l-2.068 3.779-3.779 2.067a1.12 1.12 0 0 0-.582.981c0 .409.223.785.582.981l3.779 2.068 2.068 3.779c.392.718 1.57.718 1.962 0l2.067-3.779 3.779-2.068c.359-.196.582-.572.582-.981a1.12 1.12 0 0 0-.582-.981l-3.779-2.067-2.067-3.779a1.12 1.12 0 0 0-.982-.582m-62.223-110.082c-.29 0-.58.112-.799.336a1.12 1.12 0 0 0 .016 1.581l23.561 23.076c4.511 4.417 11.847 4.415 16.357 0l23.561-23.076a1.12 1.12 0 0 0 .017-1.581 1.12 1.12 0 0 0-1.582-.017l-23.562 23.077c-3.645 3.571-9.579 3.569-13.225 0L674.34 482.97a1.12 1.12 0 0 0-.783-.319"/><path d="M727.383 490.572c-.291 0-.58.112-.8.336a1.12 1.12 0 0 0 .017 1.582l8.562 8.38c3.436 3.365 9.028 3.366 12.464-.001l5.511-5.397a1.12 1.12 0 0 0 .016-1.581c-.432-.442-1.14-.451-1.583-.016l-5.509 5.396c-2.574 2.522-6.76 2.522-9.333 0l-8.564-8.381a1.11 1.11 0 0 0-.781-.318m-45.738.001c-.281 0-.564.105-.782.319l-8.556 8.379a6.71 6.71 0 0 1-9.334 0l-5.514-5.399c-.441-.433-1.149-.425-1.581.016a1.12 1.12 0 0 0 .017 1.581l5.513 5.4c3.437 3.366 9.028 3.366 12.464 0l8.556-8.379c.442-.432.449-1.14.017-1.581-.22-.224-.509-.336-.8-.336"/><path d="M704.514 622.615c-39.854 0-72.277-32.423-72.277-72.277s32.423-72.279 72.277-72.279 72.277 32.424 72.277 72.279-32.423 72.277-72.277 72.277m0-146.792c-41.088 0-74.516 33.427-74.516 74.515s33.428 74.514 74.516 74.514 74.516-33.426 74.516-74.514-33.428-74.515-74.516-74.515m2.939 32.478a1.03 1.03 0 0 0-.156.011 1.12 1.12 0 0 0-.952 1.262l2.458 17.526c.086.613.65 1.045 1.263.952.612-.086 1.037-.651.951-1.263l-2.458-17.525c-.078-.56-.557-.963-1.106-.963m-5.931 0a1.12 1.12 0 0 0-1.107.965l-2.422 17.535c-.085.612.341 1.177.955 1.261a1.11 1.11 0 0 0 1.26-.954l2.423-17.536a1.12 1.12 0 0 0-.955-1.26c-.052-.008-.103-.011-.154-.011m-34.649 1.265a1.1 1.1 0 0 0-.412.079 1.12 1.12 0 0 0-.69 1.229c.069.404 1.741 9.944 5.434 13.74 2.156 2.217 4.414 2.957 6.227 3.552 1.377.451 2.464.807 3.277 1.646.887.917 1.163 2.599 1.482 4.545.19 1.149.385 2.338.731 3.546a1.12 1.12 0 0 0 .809.778l6.376 1.558a1.12 1.12 0 0 0 1.352-.821 1.12 1.12 0 0 0-.82-1.353l-5.731-1.399c-.217-.887-.365-1.791-.51-2.671-.364-2.221-.709-4.319-2.082-5.739-1.197-1.236-2.65-1.712-4.187-2.216-1.744-.572-3.547-1.163-5.32-2.987-1.549-1.591-2.725-4.549-3.529-7.195.872 1.093 1.833 2.215 2.776 3.157 2.963 2.964 6.264 3.384 9.176 3.754 2.3.293 4.287.545 5.74 1.999 1.522 1.523 1.993 3.297 2.491 5.176.486 1.83.986 3.719 2.48 5.329l.293 1.186c.148.6.75.969 1.354.818a1.12 1.12 0 0 0 .818-1.354l-.365-1.478a1.11 1.11 0 0 0-.315-.543c-1.226-1.229-1.632-2.759-2.103-4.531-.525-1.986-1.123-4.237-3.071-6.185-1.994-1.994-4.56-2.32-7.039-2.636-2.681-.34-5.454-.693-7.877-3.117-2.745-2.745-5.802-7.322-5.833-7.368a1.12 1.12 0 0 0-.932-.499"/><path d="M702.412 567.158c-.379 0-.748.192-.958.54l-3.294 5.453a1.11 1.11 0 0 0-.15.734l5.445 38.82c.076.552.549.963 1.107.963a1.12 1.12 0 0 0 1.108-.965l5.365-38.83c.035-.255-.018-.515-.151-.735l-3.298-5.432a1.12 1.12 0 0 0-1.537-.375c-.528.32-.696 1.008-.375 1.536l3.092 5.093-4.212 30.479-4.275-30.471 3.089-5.114a1.12 1.12 0 0 0-.379-1.535c-.181-.109-.38-.161-.577-.161m-12.035-6.75a1.14 1.14 0 0 0-.27.033l-1.357.335a1.12 1.12 0 0 0-.519.292c-1.227 1.214-2.75 1.618-4.516 2.087-1.985.526-4.236 1.123-6.186 3.072-1.994 1.994-2.319 4.559-2.634 7.039-.341 2.681-.694 5.454-3.118 7.877-2.748 2.749-7.322 5.802-7.369 5.833a1.12 1.12 0 0 0 .809 2.034c.404-.07 9.944-1.742 13.741-5.434 2.218-2.157 2.957-4.414 3.552-6.227.451-1.377.808-2.464 1.646-3.277.918-.887 2.599-1.163 4.545-1.482 1.093-.18 2.223-.366 3.373-.683.391-.107.694-.418.789-.812l1.55-6.341a1.12 1.12 0 0 0-.821-1.353 1.12 1.12 0 0 0-1.352.821l-1.39 5.689c-.836.196-1.684.335-2.511.471-2.221.365-4.318.709-5.737 2.083-1.238 1.197-1.713 2.649-2.217 4.187-.572 1.744-1.164 3.547-2.987 5.32-1.591 1.549-4.55 2.724-7.195 3.528 1.092-.872 2.214-1.833 3.156-2.775 2.965-2.964 3.384-6.265 3.754-9.176.293-2.3.545-4.287 1.998-5.74 1.524-1.523 3.298-1.994 5.178-2.492 1.813-.481 3.684-.977 5.284-2.44l1.072-.264a1.12 1.12 0 0 0-.268-2.205m-9.638-16.817a1.13 1.13 0 0 0-.164.012l-38.437 5.676a1.12 1.12 0 0 0 .003 2.214l38.453 5.595c.258.037.52-.016.742-.15l5.86-3.559a1.12 1.12 0 0 0 .375-1.537c-.32-.528-1.006-.695-1.536-.375l-5.517 3.35-30.506-4.439 30.493-4.504 5.531 3.342c.529.319 1.217.15 1.535-.379a1.12 1.12 0 0 0-.379-1.535l-5.875-3.55a1.12 1.12 0 0 0-.578-.161m47.535-.015c-.204 0-.405.056-.581.162l-5.771 3.503a1.12 1.12 0 0 0-.375 1.536 1.12 1.12 0 0 0 1.538.376l5.425-3.294 30.506 4.439-30.492 4.503-5.441-3.288a1.12 1.12 0 0 0-1.537.379 1.12 1.12 0 0 0 .38 1.537l5.786 3.495c.222.133.483.186.742.148l38.436-5.677c.549-.081.956-.552.955-1.107a1.12 1.12 0 0 0-.958-1.106l-38.453-5.594c-.053-.008-.107-.012-.16-.012m15.823-32.174c-.062 0-.126.005-.189.016-.403.069-9.896 1.733-13.673 5.408-2.207 2.146-2.944 4.392-3.535 6.196-.45 1.369-.804 2.451-1.638 3.258-.911.882-2.582 1.156-4.518 1.474-1.145.188-2.329.381-3.532.727a1.12 1.12 0 0 0-.777.81l-1.606 6.567a1.12 1.12 0 0 0 .822 1.353 1.12 1.12 0 0 0 1.352-.822l1.447-5.922c.882-.214 1.782-.363 2.657-.506 2.21-.363 4.297-.705 5.711-2.074 1.231-1.191 1.705-2.637 2.207-4.168.568-1.734 1.156-3.527 2.968-5.29 1.578-1.534 4.504-2.701 7.128-3.5-1.079.864-2.186 1.812-3.118 2.743-2.95 2.951-3.367 6.235-3.736 9.133-.29 2.287-.541 4.262-1.987 5.706-1.513 1.514-3.278 1.983-5.146 2.478-1.902.504-3.87 1.025-5.519 2.674-.06.06-.12.124-.178.188l-.772.191c-.6.148-.967.754-.818 1.353s.754.97 1.353.819l1.121-.277a1.11 1.11 0 0 0 .601-.382 4.13 4.13 0 0 1 .275-.31c1.222-1.223 2.746-1.626 4.509-2.094 1.977-.524 4.217-1.118 6.156-3.058 1.987-1.985 2.311-4.538 2.624-7.005.339-2.667.689-5.424 3.099-7.834 2.731-2.731 7.285-5.772 7.331-5.803.441-.292.614-.853.419-1.344-.171-.432-.586-.705-1.038-.705m-25.361 49.022a1.12 1.12 0 0 0-.265 2.205l5.88 1.437.468 2.497c.363 2.21.706 4.298 2.074 5.711 1.193 1.231 2.638 1.706 4.168 2.207 1.735.569 3.528 1.157 5.291 2.969 1.537 1.58 2.703 4.506 3.502 7.13l-2.745-3.12c-2.95-2.95-6.235-3.368-9.133-3.736-2.287-.291-4.262-.542-5.706-1.987-1.513-1.513-1.982-3.279-2.478-5.147-.504-1.902-1.026-3.87-2.674-5.519l-.151-.143-.16-.648a1.12 1.12 0 0 0-1.353-.818 1.12 1.12 0 0 0-.819 1.355l.246.991c.057.232.188.441.374.594l.281.251c1.222 1.223 1.627 2.747 2.094 4.51.524 1.977 1.119 4.216 3.058 6.157 1.985 1.985 4.537 2.309 7.006 2.623 2.666.338 5.424.689 7.833 3.099 2.731 2.731 5.772 7.284 5.802 7.33a1.12 1.12 0 0 0 2.034-.808c-.069-.403-1.732-9.896-5.407-13.673-2.148-2.207-4.393-2.944-6.198-3.535-1.369-.45-2.45-.804-3.257-1.638-.881-.91-1.157-2.582-1.474-4.519-.179-1.088-.363-2.212-.679-3.357a1.12 1.12 0 0 0-.812-.789l-6.533-1.597a1.12 1.12 0 0 0-.267-.032"/><path d="M691.776 569.711a1.12 1.12 0 0 0-1.085.853l-6.177 25.274a1.12 1.12 0 0 0 2.044.844l13.517-22.374a1.12 1.12 0 0 0-.379-1.536 1.12 1.12 0 0 0-1.536.379l-9.738 16.12 4.442-18.176a1.12 1.12 0 0 0-.82-1.352 1.13 1.13 0 0 0-.268-.032m25.545-41.274a1.12 1.12 0 0 0-1.086.854l-1.605 6.567a1.12 1.12 0 0 0 .821 1.352 1.12 1.12 0 0 0 1.352-.821l1.605-6.567a1.12 1.12 0 0 0-.821-1.353 1.16 1.16 0 0 0-.266-.032"/><path d="M723.428 503.453c-.381 0-.75.195-.957.54l-16.805 27.815a1.12 1.12 0 0 0 .379 1.536 1.12 1.12 0 0 0 1.536-.379l13.025-21.561-4.371 17.887a1.12 1.12 0 0 0 .82 1.352 1.12 1.12 0 0 0 1.352-.821l6.107-24.985a1.12 1.12 0 0 0-.659-1.3c-.139-.057-.284-.084-.427-.084m-16.799 63.715a1.12 1.12 0 0 0-.955 1.699l3.298 5.433a1.12 1.12 0 0 0 1.536.376 1.12 1.12 0 0 0 .376-1.537l-3.298-5.433a1.12 1.12 0 0 0-.957-.538m9.094-3.739c-.09 0-.18.011-.27.032a1.12 1.12 0 0 0-.818 1.355l.245.991c.149.6.752.966 1.355.817a1.12 1.12 0 0 0 .817-1.353l-.245-.991c-.125-.51-.582-.851-1.084-.851"/><path d="M715.967 564.421a1.2 1.2 0 0 0-.27.032 1.12 1.12 0 0 0-.817 1.355l5.784 23.438-9.78-16.107c-.321-.529-1.007-.697-1.536-.375a1.12 1.12 0 0 0-.376 1.536l13.573 22.353a1.12 1.12 0 0 0 2.042-.848l-7.535-30.533a1.12 1.12 0 0 0-1.085-.851m6.537-13.069c-.379 0-.748.192-.958.54a1.12 1.12 0 0 0 .38 1.536l5.785 3.495a1.12 1.12 0 0 0 1.535-.38c.32-.528.151-1.215-.379-1.535l-5.785-3.495a1.12 1.12 0 0 0-.578-.161"/><path d="M728.29 554.847c-.379 0-.748.192-.958.54a1.12 1.12 0 0 0 .379 1.536l15.736 9.506-17.912-4.377c-.601-.148-1.205.221-1.352.82a1.12 1.12 0 0 0 .821 1.353l25.01 6.112a1.12 1.12 0 0 0 1.299-.66c.211-.51.018-1.099-.456-1.384l-21.99-13.285c-.181-.109-.381-.161-.577-.161m-69.543-24.542a1.12 1.12 0 0 0-1.033.691c-.211.511-.018 1.099.456 1.384l21.99 13.285c.529.32 1.217.15 1.535-.379a1.12 1.12 0 0 0-.379-1.535l-15.736-9.507 18.151 4.437c.599.145 1.205-.222 1.353-.821a1.12 1.12 0 0 0-.821-1.353l-25.249-6.171a1.17 1.17 0 0 0-.267-.031"/><path d="M680.74 543.591c-.378 0-.748.192-.958.54-.32.528-.15 1.216.379 1.535l5.875 3.55c.529.319 1.217.15 1.535-.379a1.12 1.12 0 0 0-.379-1.535l-5.875-3.55c-.181-.109-.38-.161-.577-.161m3.256-7.116a1.12 1.12 0 0 0-.265 2.206l6.376 1.558a1.12 1.12 0 0 0 1.352-.822 1.12 1.12 0 0 0-.82-1.352l-6.376-1.558c-.089-.021-.179-.032-.267-.032m66.254-6.244a1.13 1.13 0 0 0-.27.032l-30.395 7.502c-.6.149-.966.754-.817 1.354s.755.969 1.353.818l23.301-5.751-15.73 9.552a1.12 1.12 0 0 0-.376 1.536c.322.527 1.01.696 1.538.376l21.976-13.345c.472-.287.664-.875.451-1.385-.176-.425-.589-.689-1.031-.689m-63.636 21.072c-.197 0-.397.053-.579.163l-5.86 3.559c-.528.32-.696 1.008-.375 1.536a1.12 1.12 0 0 0 1.536.376l5.86-3.559a1.12 1.12 0 0 0 .375-1.537c-.21-.347-.578-.538-.957-.538"/><path d="M680.754 554.862a1.12 1.12 0 0 0-.58.163l-21.977 13.344a1.12 1.12 0 0 0-.451 1.385c.211.51.762.789 1.301.657l30.238-7.463a1.12 1.12 0 0 0 .524-.295l-.807-.854-.252-1.023-23.144 5.712 15.729-9.551a1.12 1.12 0 0 0-.581-2.075"/><path d="M690.377 560.408a1.14 1.14 0 0 0-.27.033l-1.357.335.254 1.028-.779-.729a1.14 1.14 0 0 0-.161 1.342c.25.427.74.652 1.221.531l1.36-.335a1.12 1.12 0 0 0-.268-2.205m2.581-26.815a1.13 1.13 0 0 0-.269.033 1.12 1.12 0 0 0-.818 1.354l.365 1.478c.148.601.75.97 1.354.819a1.12 1.12 0 0 0 .818-1.354l-.365-1.478a1.12 1.12 0 0 0-1.085-.852"/><path d="M685.526 503.483a1.11 1.11 0 0 0-.428.085 1.12 1.12 0 0 0-.657 1.301l7.431 30.111c.148.6.752.97 1.353.818a1.12 1.12 0 0 0 .819-1.353l-5.68-23.018 13.085 21.551a1.12 1.12 0 0 0 1.536.376 1.12 1.12 0 0 0 .376-1.536l-16.878-27.797a1.12 1.12 0 0 0-.957-.538"/><path d="M704.563 567.297a16.92 16.92 0 0 1-6.486-1.299 16.83 16.83 0 0 1-9.174-9.174c-3.577-8.634.538-18.57 9.174-22.147s18.57.539 22.146 9.174c1.733 4.182 1.733 8.791 0 12.973a16.84 16.84 0 0 1-9.174 9.174c-2.091.866-4.289 1.299-6.486 1.299m-.025-36.147a19.09 19.09 0 0 0-7.318 1.46c-9.774 4.049-14.432 15.295-10.384 25.071a19.06 19.06 0 0 0 10.384 10.384c4.736 1.961 9.95 1.961 14.686 0s8.423-5.65 10.384-10.384a19.07 19.07 0 0 0 0-14.686c-3.057-7.381-10.22-11.845-17.752-11.845m123.447 47.63c0 2.047-1.644 3.349-4.217 3.349h-3.38v-6.822h3.349c2.604 0 4.248 1.365 4.248 3.473m3.255.155c0-3.844-3.038-6.263-7.814-6.263h-3.038v-8.371h-3.1v20.463h6.976c4.279 0 6.976-2.263 6.976-5.829m6.198-3.628h3.658c2.606 0 4.248 1.364 4.248 3.473 0 2.047-1.642 3.348-4.217 3.348h-3.689zm13.022-9.302l-1.86-2.325-11.162 8.991V564.3h-3.101v20.464h7.287c4.279 0 6.976-2.264 6.976-5.829 0-3.473-2.512-5.798-6.512-6.201zm5.485 25.581h3.41l-3.41-4.961h-1.86zm-2.388-6.821h3.101v-20.464h-3.101zm11.16-9.458h3.659c2.605 0 4.248 1.364 4.248 3.473 0 2.047-1.643 3.348-4.217 3.348h-3.69zm13.022-9.302l-1.86-2.325-11.162 8.991V564.3h-3.1v20.464h7.287c4.278 0 6.975-2.264 6.975-5.829 0-3.473-2.511-5.798-6.511-6.201zm19.996 8.125c0 4.806-3.317 8.31-7.875 8.31-4.248 0-7.317-3.164-7.317-7.504 0-4.806 3.317-8.31 7.875-8.31 4.248 0 7.317 3.163 7.317 7.504m-18.448.248c0 6.201 4.62 10.696 10.975 10.696 6.233 0 10.729-4.371 10.729-10.386 0-6.202-4.62-10.698-10.977-10.698-6.231 0-10.727 4.372-10.727 10.388m40.458-.248c0 4.62-3.441 7.999-9.115 7.999h-2.823v-15.192h3.38c5.365 0 8.558 3.038 8.558 7.193m3.256.558c0-6.015-4.744-10.387-12.217-10.387h-6.076v20.464h6.324c7.349 0 11.969-4.248 11.969-10.077m20.924-.558c0 4.806-3.317 8.31-7.876 8.31-4.248 0-7.317-3.164-7.317-7.504 0-4.806 3.317-8.31 7.876-8.31 4.248 0 7.317 3.163 7.317 7.504m-18.448.248c0 6.201 4.619 10.696 10.975 10.696 6.233 0 10.728-4.371 10.728-10.386 0-6.202-4.619-10.698-10.976-10.698-6.232 0-10.727 4.372-10.727 10.388m43.31 10.386l-9.798-20.464h-1.55l-9.736 20.464h3.566l7.007-15.286 7.101 15.286zm14.569-17.672v-2.791h-12.092v20.464h11.162v-2.79h-8.061v-6.047h8.061v-2.79h-8.061v-6.046zm19.376 7.038c0 4.62-3.441 7.999-9.115 7.999h-2.822v-15.192h3.379c5.365 0 8.558 3.038 8.558 7.193m3.256.558c0-6.015-4.744-10.387-12.216-10.387h-6.078v20.464h6.326c7.348 0 11.968-4.248 11.968-10.077m15.808-7.596v-2.791h-12.093v20.464h11.162v-2.79h-8.06v-6.047h8.06v-2.79h-8.06v-6.046zm2.478 7.286c0 6.201 5.023 10.696 11.751 10.696 2.264 0 4.341-.433 6.077-1.301v-3.256c-1.55 1.116-3.906 1.767-6.635 1.767-4.713 0-7.937-3.1-7.937-7.41 0-4.713 3.565-8.093 8.495-8.093 2.512 0 4.589.744 6.077 1.737v-2.884c-1.829-1.116-4.03-1.644-6.48-1.644-6.976 0-11.348 4.28-11.348 10.388m36.738-10.729l-12.092 9.892V564.3h-3.1v20.464h3.1v-9.89l9.395 9.89h3.937l-9.922-10.231 10.543-8.559zm13.856 22.976h-1.86l1.86 4.961h3.411zm2.636-13.643l-3.504 7.101-3.534-7.101zm1.364-2.791h-9.798l-2.945-5.89h-3.256l10.418 20.464h1.55l10.356-20.464h-3.411zm18.101 11.783v-6.047h7.752v-2.79h-7.752V564.3h-3.101v20.464h10.853v-2.79z"/><path d="M1119.135 572.982l-3.503 7.101-3.535-7.101zm1.365-2.791h-9.799l-2.945-5.891h-3.256l10.418 20.464h1.551l10.355-20.464h-3.41zm23.994-6.542l-12.093 9.892V564.3h-3.099v20.464h3.099v-9.89l9.396 9.89h3.937l-9.922-10.231 10.542-8.559zm4.522 10.077l-.682 11.038h3.256l.682-11.038c.279-4.279 2.232-6.635 5.86-6.635 3.473 0 5.396 2.356 5.674 6.635l.714 11.038h3.1l-.682-11.038c-.372-6.264-3.442-9.736-9.115-9.736-5.489 0-8.434 3.472-8.807 9.736m33.916-6.634v-2.791h-10.852v20.464h3.101v-17.673zm13.33 14.882h-5.705V564.3h-3.1v17.674h-5.705v2.79h14.51zm13.145-8.992l-3.504 7.101-3.534-7.101zm1.364-2.791h-9.798l-2.945-5.891h-3.256l10.418 20.464h1.55l10.356-20.464h-3.41zm-393.962-27.355l-.506 7.987h1.849l.483-7.987c.221-3.19 1.783-4.995 4.512-4.995 2.662 0 4.202 1.805 4.4 4.995l.506 7.987h1.76l-.484-7.987c-.264-4.291-2.464-6.755-6.359-6.755-3.784 0-5.919 2.464-6.161 6.755"/><use xlink:href="#B"/><path d="M844.66 545.938h1.761V536.3h-1.761zm-.307 3.565c0 .704.572 1.276 1.276 1.276s1.254-.572 1.254-1.276c0-.683-.55-1.255-1.254-1.255s-1.276.572-1.276 1.255m14.874-3.565l-5.105-9.638h-.88l-5.127 9.638h2.024l3.565-6.997 3.586 6.997z"/><use xlink:href="#C"/><path d="M877.486 546.004v-1.87c-1.21.198-2.882-.441-4.335-3.301v-4.532h-1.76v9.638h1.76v-3.433c1.211 2.971 2.773 3.719 4.335 3.498m9.152-8.273l-.177-1.431h-7.678v.88l5.325 7.327h-5.018l.177 1.431h7.217v-.881l-5.303-7.326zm2.573 8.207h1.76V536.3h-1.76zm-.308 3.565c0 .704.572 1.276 1.276 1.276s1.254-.572 1.254-1.276c0-.683-.55-1.255-1.254-1.255s-1.276.572-1.276 1.255m9.879-11.838a4.48 4.48 0 0 1 1.936.418v-1.452c-.682-.374-1.452-.55-2.376-.55-2.376 0-3.3 1.254-3.3 3.41v5.017h-2.377l.176 1.43h2.201v3.411l1.76.374v-3.785h3.938l-.177-1.43h-3.761v-4.994c0-1.145.681-1.849 1.98-1.849m9.878.967v2.729c-3.454-.594-4.665-1.584-4.665-2.619 0-.814.639-1.32 1.694-1.32 1.101 0 2.2.418 2.971 1.21m1.761 3.938v-6.27h-1.761v1.188c-.925-.902-2.222-1.408-3.63-1.408-1.738 0-2.883.924-2.883 2.376 0 1.937 1.87 3.389 6.513 4.093-.022 1.408-.704 2.09-1.914 2.09-1.101 0-2.355-.484-3.454-1.408v1.672c1.012.792 2.441 1.254 3.74 1.254 2.223 0 3.389-1.188 3.389-3.587m18.391-6.644l-8.626 7.063V536.3h-1.76v14.522h1.76v-7.041l7.02 7.041h2.244l-7.326-7.283 7.744-6.293zm10.339 5.017c0 2.156-1.474 3.696-3.477 3.696-1.847 0-3.234-1.385-3.234-3.343 0-2.135 1.453-3.719 3.455-3.719 1.87 0 3.256 1.429 3.256 3.366m-8.559.066c0 2.993 2.245 5.149 5.281 5.149 2.948 0 5.104-2.069 5.104-4.929 0-2.992-2.222-5.148-5.28-5.148-2.927 0-5.105 2.09-5.105 4.928m27.854 1.628V536.3h-1.76v6.183c0 1.32-.594 2.156-1.629 2.156-1.298 0-2.42-1.254-3.19-2.904V536.3h-1.76v6.183c0 1.32-.595 2.156-1.606 2.156-1.299 0-2.42-1.254-3.191-2.904V536.3h-1.76v9.638h1.76v-2.245c.902 1.497 2.244 2.442 3.697 2.442 1.584 0 2.552-.924 2.794-2.596.903 1.584 2.289 2.596 3.762 2.596 1.849 0 2.883-1.275 2.883-3.498m4.244-.923h5.721c-.155 1.65-1.299 2.926-2.883 2.926-1.518 0-2.706-1.188-2.838-2.926m7.48-1.188h-7.436c.308-1.739 1.54-2.949 3.542-2.949.902 0 1.826.264 2.751.77v-1.386c-.902-.572-2.068-.88-3.278-.88-2.883 0-4.842 2.025-4.842 4.885 0 2.97 2.047 5.192 4.797 5.192 2.97 0 4.665-2.42 4.466-5.632"/><use xlink:href="#B" x="139.5"/><path d="M983.479 538.632c1.034-.748 2.024-1.078 3.103-1.078 1.231 0 1.891.462 1.891 1.078 0 1.937-4.95 1.475-4.95 4.621 0 1.694 1.585 2.904 3.807 2.904.879 0 1.715-.154 2.463-.484v-1.694c-.725.44-1.738.704-2.771.704-1.101 0-1.738-.55-1.738-1.188 0-1.826 4.95-1.562 4.95-4.709 0-1.584-1.628-2.706-3.872-2.706-1.145 0-2.135.264-2.883.748zm16.413-2.683l-5.171 4.796v-4.444h-1.76v14.522h1.76v-9.286l4.07 4.401h2.047l-4.312-4.642 4.62-4.225zm7.259 11.353h-1.1l1.43 3.521h1.938zm-3.476-5.589h5.721c-.154 1.651-1.298 2.926-2.882 2.926-1.519 0-2.707-1.188-2.839-2.926m7.482-1.188h-7.438c.308-1.739 1.54-2.949 3.543-2.949.902 0 1.826.264 2.75.77v-1.386c-.902-.572-2.068-.88-3.279-.88-2.882 0-4.84 2.025-4.84 4.885 0 2.97 2.046 5.192 4.797 5.192 2.97 0 4.664-2.419 4.467-5.632m10.669 2.112V536.3h-1.76v6.183c0 1.32-.594 2.156-1.606 2.156-1.299 0-2.42-1.254-3.191-2.904V536.3h-1.76v14.523h1.76v-7.13c.902 1.497 2.245 2.442 3.697 2.442 1.848 0 2.86-1.275 2.86-3.498"/><path d="M1032.848 540.943c0 2.156-1.475 3.696-3.477 3.696-1.848 0-3.234-1.385-3.234-3.343 0-2.135 1.451-3.719 3.454-3.719 1.87 0 3.257 1.429 3.257 3.366m-8.561.066c0 2.993 2.246 5.149 5.282 5.149 2.949 0 5.105-2.069 5.105-4.929 0-2.992-2.222-5.148-5.281-5.148-2.926 0-5.106 2.09-5.106 4.928m-198.369-17.071l-5.104-9.638h-.88l-5.127 9.638h2.024l3.565-6.997 3.586 6.997z"/><path d="M840.24 518.261c0 1.584-1.298 2.596-3.278 2.596h-2.729v-5.061h3.059c1.761 0 2.948.969 2.948 2.465m-6.007 9.064v-5.06h2.223c1.738 0 2.839.99 2.839 2.509 0 1.562-1.189 2.551-3.059 2.551zm7.856-9.02c0-2.442-2.002-4.005-5.082-4.005h-4.534v14.523h3.873c2.926 0 4.797-1.453 4.797-3.719 0-1.519-.814-2.685-2.201-3.235 1.959-.484 3.147-1.76 3.147-3.564m8.425 5.699v-1.87c-1.211.198-2.883-.441-4.335-3.301v-4.532h-1.761v9.638h1.761v-3.433c1.21 2.971 2.773 3.719 4.335 3.498m7.326-7.371v2.729c-3.455-.594-4.665-1.584-4.665-2.619 0-.814.638-1.32 1.694-1.32 1.1 0 2.2.418 2.971 1.21m1.76 3.938v-6.27h-1.76v1.188c-.925-.902-2.223-1.408-3.631-1.408-1.738 0-2.883.924-2.883 2.376 0 1.937 1.871 3.389 6.514 4.093-.022 1.408-.705 2.09-1.915 2.09-1.101 0-2.355-.484-3.454-1.408v1.672c1.012.792 2.442 1.254 3.74 1.254 2.223 0 3.389-1.188 3.389-3.587m7.303-4.906c.749 0 1.365.154 1.937.418v-1.452c-.682-.374-1.453-.55-2.376-.55-2.377 0-3.301 1.254-3.301 3.41v5.017h-2.376l.176 1.43h2.2v3.411l1.761.374v-3.785h3.938l-.176-1.43h-3.762v-4.994c0-1.145.682-1.849 1.979-1.849m4.224 8.273h1.76V514.3h-1.76zm-.308 3.565c0 .704.572 1.276 1.276 1.276s1.254-.572 1.254-1.276c0-.683-.55-1.255-1.254-1.255s-1.276.572-1.276 1.255m4.795-10.87c1.035-.748 2.025-1.078 3.104-1.078 1.231 0 1.891.462 1.891 1.078 0 1.937-4.95 1.475-4.95 4.621 0 1.694 1.584 2.904 3.807 2.904.878 0 1.715-.154 2.463-.484v-1.694c-.725.44-1.738.704-2.772.704-1.1 0-1.738-.55-1.738-1.188 0-1.826 4.951-1.562 4.951-4.709 0-1.584-1.629-2.706-3.873-2.706-1.145 0-2.135.264-2.883.748zm9.373.33v11.86h1.76v-11.904c0-.836.462-1.342 1.452-1.342.352 0 .66.066.946.176v-1.408c-.396-.176-.858-.264-1.387-.264-2.023 0-2.771 1.056-2.771 2.882m11.813-.33v2.729c-3.454-.594-4.665-1.584-4.665-2.619 0-.814.639-1.32 1.694-1.32 1.101 0 2.2.418 2.971 1.21m1.761 3.938v-6.27H896.8v1.188c-.925-.902-2.222-1.408-3.63-1.408-1.738 0-2.883.924-2.883 2.376 0 1.937 1.87 3.389 6.513 4.093-.022 1.408-.704 2.09-1.914 2.09-1.101 0-2.355-.484-3.454-1.408v1.672c1.012.792 2.441 1.254 3.74 1.254 2.223 0 3.389-1.188 3.389-3.587m12.166 3.367l-5.105-9.638h-.88l-5.127 9.638h2.024l3.565-6.997 3.586 6.997z"/><use xlink:href="#C" x="51.5" y="-22"/><path d="M2562.034 804.124h543.633v-41.258h-543.633z" fill="#fff"/></g><defs ><path id="B" d="M841.34 542.637V536.3h-1.76v6.183c0 1.32-.594 2.156-1.606 2.156-1.298 0-2.421-1.254-3.191-2.904V536.3h-1.759v9.638h1.759v-2.245c.903 1.497 2.245 2.442 3.697 2.442 1.848 0 2.86-1.275 2.86-3.498"/><path id="C" d="M861.557 541.714h5.721c-.155 1.65-1.298 2.926-2.882 2.926-1.519 0-2.706-1.188-2.839-2.926m7.481-1.188h-7.436c.308-1.739 1.539-2.949 3.542-2.949.901 0 1.826.264 2.75.77v-1.386c-.901-.572-2.067-.88-3.278-.88-2.883 0-4.841 2.025-4.841 4.885 0 2.97 2.046 5.192 4.797 5.192 2.97 0 4.665-2.42 4.466-5.632"/></defs></svg>