<svg xmlns="http://www.w3.org/2000/svg" xmlns:xlink="http://www.w3.org/1999/xlink" width="1467.08" height="955.677" fill="none" xmlns:v="https://vecta.io/nano"><style><![CDATA[.B{fill:#000}.C{opacity:.7}.D{opacity:.99}.E{fill:#fff}.F{opacity:.42}.G{opacity:.91}.H{opacity:.37}.I{opacity:.8}.J{opacity:.61}.K{opacity:.84}.L{opacity:.46}.M{fill:#1db956}.N{opacity:.2}.O{opacity:.58}.P{opacity:.22}.Q{opacity:.63}.R{fill:#3f4249}.S{opacity:.85}.T{opacity:.34}.U{opacity:.33}.V{opacity:.65}.W{opacity:.56}.X{opacity:.98}.Y{opacity:.26}.Z{opacity:.75}.a{opacity:.53}.b{opacity:.5}.c{opacity:.45}.d{opacity:.9}.e{opacity:.96}.f{opacity:.36}.g{opacity:.97}.h{opacity:.87}.i{opacity:.88}.j{opacity:.66}.k{opacity:.64}.l{opacity:.72}.m{opacity:.3}.n{opacity:.68}.o{opacity:.57}.p{opacity:.28}.q{opacity:.43}.r{fill:#f89999}.s{opacity:.15}.t{opacity:.73}.u{opacity:.21}.v{opacity:.89}.w{opacity:.52}.x{opacity:.24}.y{opacity:.25}.z{opacity:.39}.AA{opacity:.83}.AB{opacity:.86}.AC{opacity:.38}.AD{opacity:.48}.AE{opacity:.27}.AF{opacity:.47}.AG{opacity:.95}.AH{stroke-miterlimit:10}]]></style><path d="M253.31 944.377h1071.27l103.22-331.131a56.05 56.05 0 0 0 .55-31.44l-124.08-453.73c-6.12-22.37-25.39-38.65-48.46-40.95l-771.08-76.85c-20.32-2.02-40.12 7.17-51.69 23.99l-265.49 385.97c-8.54 12.41-11.71 27.74-8.81 42.53z" fill="#f0f0f0"/><path d="M1353.03 945.677H219.05c-.4 0-.8-.3-.8-.8s.4-.8.8-.8h1134.07c.4 0 .8.3.8.8s-.39.8-.89.8z" fill="#aeb2b7"/><path d="M1152.12 560.476c1.48 7.39 4 14.39 7.4 20.87l-10.97 15.06a95.99 95.99 0 0 0 10.01 13.02l17.39-6.71c5.43 4.99 11.56 9.23 18.24 12.54l-.02 18.65c5.05 1.98 10.31 3.55 15.74 4.65l10.13-15.66c2.96.34 5.96.52 9.01.52 4.47 0 8.85-.38 13.12-1.1l10.95 15.1a94.93 94.93 0 0 0 15.47-5.48l-1.01-18.62a78.81 78.81 0 0 0 17.55-13.49l17.73 5.78c3.47-4.22 6.59-8.75 9.31-13.53l-11.75-14.46c3.04-6.63 5.18-13.76 6.28-21.23l17.72-5.73a97.81 97.81 0 0 0 .17-5.7 97.54 97.54 0 0 0-.6-10.73l-18-4.79c-1.48-7.39-4-14.39-7.4-20.87l10.97-15.06a95.99 95.99 0 0 0-10.01-13.02l-17.39 6.71c-5.43-4.99-11.56-9.23-18.24-12.54l.02-18.65c-5.05-1.98-10.31-3.55-15.74-4.65l-10.13 15.66c-2.96-.34-5.96-.52-9.01-.52-4.47 0-8.85.38-13.12 1.1l-10.95-15.1a94.93 94.93 0 0 0-15.47 5.48l1.01 18.62a78.81 78.81 0 0 0-17.55 13.49l-17.73-5.78c-3.47 4.22-6.59 8.75-9.31 13.53l11.75 14.46c-3.04 6.63-5.18 13.76-6.28 21.23l-17.72 5.73a97.81 97.81 0 0 0-.17 5.7 97.54 97.54 0 0 0 .6 10.73zm39.46-15.51c0-20.69 16.78-37.47 37.47-37.47s37.47 16.78 37.47 37.47-16.78 37.47-37.47 37.47c-20.7-.01-37.47-16.78-37.47-37.47zM625.9 116.207a66.28 66.28 0 0 0 .41-7.36l-.12-3.91-12.16-3.93a53.36 53.36 0 0 0-4.31-14.57l8.06-9.92c-1.86-3.28-4-6.39-6.39-9.28l-12.16 3.97a53.83 53.83 0 0 0-12.04-9.25l.69-12.78c-3.39-1.54-6.94-2.81-10.62-3.76l-7.51 10.36a54.47 54.47 0 0 0-9-.75c-2.09 0-4.15.12-6.18.36l-6.95-10.75c-3.73.76-7.34 1.83-10.8 3.19l.02 12.8a53.54 53.54 0 0 0-12.51 8.61l-11.93-4.6a65.41 65.41 0 0 0-6.87 8.93l7.53 10.34c-2.33 4.44-4.06 9.25-5.08 14.32l-12.35 3.29a66.28 66.28 0 0 0-.41 7.36 63.32 63.32 0 0 0 .12 3.91l12.16 3.93a53.36 53.36 0 0 0 4.31 14.57l-8.06 9.92c1.86 3.28 4 6.39 6.39 9.28l12.16-3.97a53.83 53.83 0 0 0 12.04 9.25l-.69 12.78c3.39 1.54 6.94 2.81 10.62 3.76l7.51-10.36a54.47 54.47 0 0 0 9 .75c2.09 0 4.15-.12 6.18-.36l6.95 10.75c3.73-.76 7.34-1.83 10.8-3.19l-.02-12.8a53.54 53.54 0 0 0 12.51-8.61l11.93 4.6a65.41 65.41 0 0 0 6.87-8.93l-7.53-10.34c2.33-4.44 4.06-9.25 5.08-14.32zm-65.13 18.35c-14.2 0-25.71-11.51-25.71-25.71s11.51-25.71 25.71-25.71 25.71 11.51 25.71 25.71-11.51 25.71-25.71 25.71zm518.4 505.63l-6.66 9.78c1.71 3.24 3.76 6.28 6.12 9.04l11.49-2.58c3.91 3.47 8.51 6.18 13.57 7.88l3.48 11.24a49.83 49.83 0 0 0 9.04.83c.62 0 1.24-.02 1.85-.04l5.15-10.61c5.24-.94 10.12-2.92 14.42-5.72l10.94 4.28c2.8-2.43 5.31-5.17 7.5-8.16l-5.11-10.69a39.13 39.13 0 0 0 4.36-14.41l10.2-5.9c-.15-3.85-.73-7.59-1.71-11.16l-11.58-2.68c-1.99-4.55-4.82-8.65-8.29-12.1l1.76-11.73a49.62 49.62 0 0 0-9.84-5.71l-9.31 7.37c-3.29-.9-6.76-1.38-10.33-1.38-1.44 0-2.86.08-4.26.23l-8.12-8.74c-3.7.95-7.22 2.33-10.53 4.06l-.04 11.83a39.58 39.58 0 0 0-10.28 10.91l-11.88.9c-1.49 3.34-2.62 6.88-3.34 10.57l9.2 7.38a38.4 38.4 0 0 0-.06 2.16c0 4.62.8 9.04 2.26 13.15zm20.92-12.38c0-9.14 7.41-16.55 16.56-16.55 9.14 0 16.55 7.41 16.55 16.55s-7.41 16.56-16.55 16.56a16.57 16.57 0 0 1-16.56-16.56z" class="E"/><path d="M1220.92 556.377H590.08c-8.93 0-16.18-7.24-16.18-16.18v-393.62c0-8.93 7.24-16.18 16.18-16.18h630.83c8.93 0 16.18 7.24 16.18 16.18v393.62c0 8.94-7.24 16.18-16.17 16.18z" class="M"/><path d="M1220.91 556.377H590.07c-8.93 0-16.18-7.24-16.18-16.18v-393.62c0-8.93 7.24-16.18 16.18-16.18h630.83c8.93 0 16.18 7.24 16.18 16.18v393.62c0 8.94-7.24 16.18-16.17 16.18z" class="E N"/><path d="M1212.35 556.377H581.52c-8.93 0-16.18-7.24-16.18-16.18v-393.62c0-8.93 7.24-16.18 16.18-16.18h630.83c8.93 0 16.18 7.24 16.18 16.18v393.62c0 8.94-7.24 16.18-16.18 16.18z" class="M"/><g class="E"><path d="M1212.35 556.377H581.52c-8.93 0-16.18-7.24-16.18-16.18v-393.62c0-8.93 7.24-16.18 16.18-16.18h630.83c8.93 0 16.18 7.24 16.18 16.43v393.62c0 8.69-7.24 15.93-16.18 15.93z" class="b"/><path d="M598.25 144.717c-.15-.21-.22-.48-.22-.83s.07-.62.22-.83.37-.31.67-.31.52.1.67.31.22.48.22.83-.07.62-.22.83-.37.31-.67.31c-.29 0-.52-.1-.67-.31zm.27-1.42c-.09.15-.13.35-.13.59s.04.44.13.59.22.23.41.23c.18 0 .32-.07.4-.22s.13-.35.13-.59c0-.25-.04-.44-.13-.59-.08-.15-.22-.22-.4-.22a.41.41 0 0 0-.41.21z" class="t"/><path d="M598.43 156.167h.99v2.72h-.44v-2.32h-.55z" class="u"/><path d="M598.32 169.497h1.2v3.31h-.53v-2.81h-.67z" class="J"/><path d="M611.9 169.356h1.3v3.58h-.57v-3.04h-.73z" class="v"/><path d="M625.46 169.198h1.42v3.9h-.62v-3.31h-.79v-.59z" class="c"/><path d="M639.02 169.038h1.53v4.22h-.68v-3.59h-.86z" class="b"/><path d="M652.04 172.808c-.3-.42-.46-.99-.46-1.69 0-.71.15-1.27.46-1.69.3-.42.76-.63 1.37-.63s1.07.21 1.37.63.46.99.46 1.69c0 .71-.15 1.27-.46 1.69-.3.42-.76.63-1.37.63-.61.01-1.07-.2-1.37-.63zm.54-2.9c-.18.31-.27.71-.27 1.21s.09.9.27 1.21.45.46.83.46.65-.15.82-.46.26-.71.26-1.22c0-.5-.09-.91-.26-1.22s-.45-.46-.82-.46c-.38.02-.65.17-.83.48z" class="F"/><path d="M665.59 172.886c-.32-.44-.48-1.03-.48-1.77s.16-1.33.48-1.77.8-.66 1.44-.66 1.12.22 1.44.66.48 1.03.48 1.77-.16 1.33-.48 1.77-.8.66-1.44.66c-.64.01-1.12-.21-1.44-.66zm.57-3.04c-.19.32-.28.75-.28 1.27s.09.95.28 1.27.48.48.87.48.68-.16.86-.48.27-.74.27-1.27-.09-.95-.27-1.27-.47-.48-.86-.48-.68.16-.87.48z" class="d"/><path d="M679.11 173.006c-.34-.47-.51-1.1-.51-1.89s.17-1.42.51-1.89.85-.71 1.54-.71c.68 0 1.2.24 1.54.71s.51 1.1.51 1.89-.17 1.42-.51 1.89-.85.71-1.54.71c-.68 0-1.2-.24-1.54-.71zm.61-3.25c-.2.35-.3.8-.3 1.36s.1 1.01.3 1.36.51.52.93.52.73-.17.92-.51.29-.8.29-1.36c0-.57-.1-1.02-.29-1.36s-.5-.51-.92-.51a.96.96 0 0 0-.93.5zm13.6-1.23h1.9v5.23h-.84v-4.45h-1.06z" opacity=".82"/><path d="M706.24 173.147c-.37-.51-.55-1.18-.55-2.03s.18-1.53.55-2.03c.37-.51.92-.76 1.65-.76.74 0 1.29.25 1.65.76.37.51.55 1.18.55 2.03s-.18 1.53-.55 2.03c-.37.51-.92.76-1.65.76s-1.28-.25-1.65-.76zm.65-3.49c-.21.37-.32.86-.32 1.46s.11 1.09.32 1.46.55.56 1 .56.78-.18.99-.55.31-.86.31-1.46c0-.61-.1-1.09-.31-1.46s-.54-.55-.99-.55c-.45-.02-.78.17-1 .54z" class="K"/><path d="M719.8 173.227c-.38-.53-.57-1.23-.57-2.11s.19-1.59.57-2.11c.38-.53.95-.79 1.72-.79s1.34.26 1.72.79.57 1.23.57 2.11-.19 1.59-.57 2.11c-.38.53-.95.79-1.72.79s-1.34-.26-1.72-.79zm.67-3.63c-.22.39-.33.89-.33 1.52s.11 1.13.33 1.52.57.58 1.04.58.81-.19 1.03-.57.32-.89.32-1.52-.11-1.14-.32-1.52c-.22-.38-.56-.57-1.03-.57-.47-.02-.81.17-1.04.56z" class="c"/><path d="M598.22 182.817h1.42v3.9h-.62v-3.31h-.79v-.59z" class="e"/><path d="M611.78 182.657h1.53v4.22h-.68v-3.59h-.86z" class="w"/><path d="M625.35 182.526h1.63v4.49h-.72v-3.81h-.91z" class="S"/><path d="M638.32 186.547c-.33-.45-.49-1.06-.49-1.81s.16-1.36.49-1.81.82-.68 1.47-.68c.66 0 1.15.23 1.47.68.33.45.49 1.06.49 1.81s-.16 1.36-.49 1.81-.82.68-1.47.68c-.66 0-1.15-.22-1.47-.68zm.58-3.11c-.19.33-.29.76-.29 1.3s.09.97.29 1.3a.96.96 0 0 0 .89.5c.4 0 .7-.16.88-.49.19-.33.28-.76.28-1.3s-.09-.98-.28-1.3c-.19-.33-.48-.49-.88-.49-.41-.01-.7.15-.89.48z" class="O"/><path d="M652.49 182.237h1.84v5.07h-.81v-4.31h-1.03z" opacity=".74"/><path d="M666.06 182.096H668v5.34h-.86v-4.54h-1.08z" class="G"/><path d="M679.64 181.997h2.02v5.56h-.89v-4.72h-1.13z" opacity=".29"/><path d="M693.22 181.887h2.1v5.77h-.92v-4.9h-1.17v-.87z" class="K"/><path d="M706.06 186.988c-.41-.56-.61-1.31-.61-2.26 0-.94.2-1.69.61-2.26.4-.56 1.02-.84 1.83-.84.82 0 1.43.28 1.83.84.41.56.61 1.31.61 2.26 0 .94-.2 1.69-.61 2.26-.41.56-1.02.84-1.83.84s-1.42-.28-1.83-.84zm.72-3.87c-.24.41-.36.95-.36 1.62s.12 1.21.36 1.62a1.2 1.2 0 0 0 1.11.62c.5 0 .87-.2 1.1-.61s.35-.95.35-1.62-.12-1.21-.35-1.62-.6-.61-1.1-.61a1.15 1.15 0 0 0-1.11.6z" opacity=".6"/><path d="M719.63 187.048c-.42-.58-.62-1.35-.62-2.32s.21-1.74.62-2.32c.42-.58 1.04-.87 1.88-.87s1.46.29 1.88.87.62 1.35.62 2.32-.21 1.74-.62 2.32c-.42.58-1.04.87-1.88.87-.83-.01-1.46-.29-1.88-.87zm.75-3.98c-.24.42-.36.98-.36 1.66 0 .69.12 1.24.36 1.66s.62.63 1.14.63.89-.21 1.13-.63.36-.97.36-1.67c0-.69-.12-1.25-.36-1.67s-.61-.63-1.13-.63-.9.23-1.14.65z" opacity=".81"/><path d="M733.22 187.087c-.42-.59-.63-1.37-.63-2.36 0-.98.21-1.77.63-2.36s1.06-.88 1.91-.88 1.49.29 1.91.88.63 1.37.63 2.36c0 .98-.21 1.77-.63 2.36s-1.06.88-1.91.88-1.49-.29-1.91-.88zm.76-4.05c-.25.43-.37.99-.37 1.69s.12 1.26.37 1.69.63.64 1.16.64c.52 0 .91-.21 1.15-.64s.36-.99.36-1.69-.12-1.27-.36-1.69c-.24-.43-.62-.64-1.15-.64s-.92.21-1.16.64z" class="T"/><path d="M598.11 196.147h1.63v4.49h-.72v-3.81h-.91z" opacity=".23"/><path d="M611.07 200.178c-.33-.45-.49-1.06-.49-1.81s.16-1.36.49-1.81.82-.68 1.47-.68c.66 0 1.15.23 1.47.68.33.45.49 1.06.49 1.81s-.16 1.36-.49 1.81-.82.68-1.47.68c-.65-.01-1.14-.23-1.47-.68zm.59-3.12c-.19.33-.29.76-.29 1.3s.09.97.29 1.3c.19.33.49.49.89.49s.7-.16.88-.49c.19-.33.28-.76.28-1.3s-.09-.98-.28-1.3c-.19-.33-.48-.49-.88-.49-.41 0-.7.16-.89.49z" class="d"/><path d="M625.24 195.827h1.86v5.13h-.82v-4.36h-1.04z" opacity=".54"/><path d="M638.81 195.698h1.96v5.39h-.86v-4.58h-1.1z" class="f"/><path d="M651.69 200.468c-.38-.53-.57-1.23-.57-2.11s.19-1.59.57-2.11c.38-.53.95-.79 1.72-.79s1.34.26 1.72.79.57 1.23.57 2.11-.19 1.59-.57 2.11c-.38.53-.95.79-1.72.79s-1.34-.26-1.72-.79zm.68-3.63c-.22.39-.33.89-.33 1.52s.11 1.13.33 1.52.57.58 1.04.58.81-.19 1.03-.57.32-.89.32-1.52-.11-1.14-.32-1.52c-.22-.38-.56-.57-1.03-.57-.47-.02-.82.18-1.04.56z" opacity=".62"/><path d="M665.23 200.567c-.4-.55-.6-1.29-.6-2.21s.2-1.66.6-2.21 1-.83 1.8-.83 1.4.28 1.8.83.6 1.29.6 2.21-.2 1.66-.6 2.21-1 .83-1.8.83-1.4-.28-1.8-.83zm.71-3.8c-.23.4-.35.93-.35 1.59s.12 1.18.35 1.59c.23.4.6.61 1.09.61s.85-.2 1.08-.6.34-.93.34-1.59-.11-1.19-.34-1.59-.59-.6-1.08-.6c-.49-.02-.86.18-1.09.59z" class="x"/><path d="M678.79 200.646c-.41-.57-.62-1.34-.62-2.3s.21-1.72.62-2.3c.41-.57 1.03-.86 1.86-.86s1.45.29 1.86.86.62 1.34.62 2.3-.21 1.72-.62 2.3c-.41.57-1.03.86-1.86.86s-1.45-.29-1.86-.86zm.73-3.94c-.24.42-.36.97-.36 1.65s.12 1.23.36 1.65.62.63 1.13.63.88-.21 1.12-.62c.24-.42.35-.97.35-1.65 0-.69-.12-1.24-.35-1.65-.23-.42-.61-.62-1.12-.62a1.16 1.16 0 0 0-1.13.61z" class="H"/><path d="M693.14 195.266h2.27v6.25h-1v-5.31h-1.27z" class="g"/><path d="M705.91 200.787c-.44-.61-.66-1.42-.66-2.44s.22-1.83.66-2.44 1.1-.91 1.98-.91 1.54.3 1.98.91.66 1.42.66 2.44-.22 1.83-.66 2.44-1.1.91-1.98.91-1.54-.3-1.98-.91zm.79-4.19c-.26.44-.38 1.03-.38 1.75s.13 1.3.38 1.75c.26.44.65.67 1.2.67s.94-.22 1.19-.66.37-1.02.37-1.75-.12-1.31-.37-1.75-.65-.66-1.19-.66-.95.21-1.2.65z" opacity=".51"/><path d="M720.32 195.106h2.39v6.57h-1.05v-5.58h-1.33v-.99z" class="K"/><path d="M733.91 195.026h2.45v6.73h-1.08v-5.72h-1.37z" opacity=".41"/><path d="M597.37 213.898c-.34-.48-.52-1.11-.52-1.91s.17-1.44.52-1.91c.34-.48.86-.71 1.55-.71s1.21.24 1.55.71c.34.48.52 1.11.52 1.91s-.17 1.44-.52 1.91c-.34.48-.86.72-1.55.72-.69-.01-1.21-.25-1.55-.72zm.61-3.29c-.2.35-.3.81-.3 1.37 0 .57.1 1.02.3 1.37s.51.52.94.52.74-.17.93-.52c.2-.35.29-.8.29-1.38 0-.57-.1-1.03-.29-1.38-.2-.35-.51-.52-.93-.52-.42.02-.73.19-.94.54z" opacity=".81"/><path d="M611.57 209.317h1.96v5.4h-.86v-4.58h-1.1z" class="U"/><path d="M624.43 214.108c-.38-.53-.58-1.24-.58-2.13s.19-1.6.58-2.13c.38-.53.96-.8 1.73-.8s1.35.27 1.73.8.58 1.24.58 2.13-.19 1.6-.58 2.13c-.38.53-.96.8-1.73.8s-1.34-.27-1.73-.8zm.69-3.66c-.22.39-.34.9-.34 1.53s.11 1.14.34 1.53c.22.39.57.58 1.05.58s.82-.19 1.04-.58.33-.9.33-1.53c0-.64-.11-1.15-.33-1.54s-.57-.58-1.04-.58c-.48 0-.83.2-1.05.59z" class="I"/><path d="M637.97 214.207c-.4-.56-.6-1.3-.6-2.24 0-.93.2-1.68.6-2.24s1.01-.84 1.82-.84 1.41.28 1.82.84c.4.56.6 1.3.6 2.24 0 .93-.2 1.68-.6 2.24s-1.01.84-1.82.84-1.42-.28-1.82-.84zm.72-3.84c-.23.41-.35.94-.35 1.6s.12 1.2.35 1.6c.23.41.6.61 1.1.61s.86-.2 1.09-.61c.23-.4.34-.94.34-1.61s-.11-1.2-.34-1.61c-.23-.4-.59-.61-1.09-.61-.5.02-.87.23-1.1.63z" opacity=".92"/><path d="M651.53 214.286c-.42-.58-.62-1.35-.62-2.32s.21-1.74.62-2.32c.42-.58 1.04-.87 1.88-.87s1.46.29 1.88.87.62 1.35.62 2.32-.21 1.74-.62 2.32c-.42.58-1.04.87-1.88.87s-1.47-.29-1.88-.87zm.74-3.98c-.24.42-.36.98-.36 1.66 0 .69.12 1.24.36 1.66s.62.63 1.14.63.89-.21 1.13-.63.36-.97.36-1.67c0-.69-.12-1.25-.36-1.67s-.61-.63-1.13-.63c-.52.02-.9.23-1.14.65z" class="V"/><path d="M665.08 214.367c-.43-.6-.65-1.4-.65-2.4s.22-1.8.65-2.4 1.08-.9 1.95-.9 1.52.3 1.95.9.65 1.4.65 2.4-.22 1.8-.65 2.4-1.08.9-1.95.9-1.52-.3-1.95-.9zm.77-4.11c-.25.44-.38 1.01-.38 1.72s.13 1.28.38 1.72.64.65 1.18.65c.53 0 .92-.22 1.17-.65s.37-1.01.37-1.72c0-.72-.12-1.29-.37-1.72s-.64-.65-1.17-.65c-.53-.01-.93.21-1.18.65z" class="O"/><path d="M678.64 214.447c-.45-.62-.67-1.44-.67-2.48 0-1.03.22-1.86.67-2.48.44-.62 1.12-.93 2.01-.93.9 0 1.57.31 2.01.93.45.62.67 1.44.67 2.48 0 1.03-.22 1.86-.67 2.48-.44.62-1.12.93-2.01.93-.9 0-1.57-.31-2.01-.93zm.79-4.25c-.26.45-.39 1.04-.39 1.78s.13 1.33.39 1.78.67.68 1.22.68.95-.22 1.21-.67c.25-.45.38-1.04.38-1.78s-.13-1.33-.38-1.78-.66-.67-1.21-.67c-.55-.02-.96.21-1.22.66z" opacity=".78"/><path d="M692.21 214.507c-.46-.63-.68-1.48-.68-2.54s.23-1.9.68-2.54c.46-.63 1.14-.95 2.06-.95s1.6.32 2.06.95.68 1.48.68 2.54-.23 1.9-.68 2.54c-.46.63-1.14.95-2.06.95s-1.6-.32-2.06-.95zm.82-4.36c-.27.46-.4 1.07-.4 1.82s.13 1.36.4 1.82.68.69 1.25.69.98-.23 1.24-.69.39-1.07.39-1.82c0-.76-.13-1.37-.39-1.82-.26-.46-.67-.69-1.24-.69s-.99.23-1.25.69z" class="h"/><path d="M706.64 208.567h2.5v6.89h-1.1v-5.86h-1.4z"/><path d="M720.24 208.516h2.54v7h-1.12v-5.95h-1.42z" class="G"/><path d="M732.96 214.648c-.48-.67-.72-1.56-.72-2.68s.24-2.01.72-2.68 1.21-1 2.17-1c.97 0 1.69.33 2.17 1s.72 1.56.72 2.68-.24 2.01-.72 2.68-1.21 1-2.17 1-1.69-.34-2.17-1zm.86-4.6c-.28.49-.42 1.13-.42 1.92s.14 1.43.42 1.92.72.73 1.32.73 1.03-.24 1.31-.73c.27-.48.41-1.13.41-1.93s-.14-1.44-.41-1.93c-.27-.48-.71-.73-1.31-.73-.6.02-1.04.26-1.32.75zm-136.63 17.679c-.38-.53-.58-1.24-.58-2.13s.19-1.6.58-2.13c.38-.53.96-.8 1.73-.8s1.35.27 1.73.8.58 1.24.58 2.13-.19 1.6-.58 2.13c-.38.53-.96.8-1.73.8s-1.35-.26-1.73-.8zm.69-3.66c-.22.39-.34.9-.34 1.53s.11 1.14.34 1.53c.22.39.57.58 1.05.58s.82-.19 1.04-.58.33-.9.33-1.53c0-.64-.11-1.15-.33-1.54s-.57-.58-1.04-.58c-.48.01-.83.2-1.05.59z" class="i"/><path d="M611.47 222.667h2.15v5.93h-.95v-5.04h-1.2z" class="F"/><path d="M625.04 222.538h2.25v6.2h-.99v-5.27h-1.26z" class="O"/><path d="M637.83 228.006c-.43-.6-.65-1.41-.65-2.42s.22-1.81.65-2.42c.43-.6 1.09-.9 1.96-.9s1.53.3 1.96.9.65 1.41.65 2.42-.22 1.81-.65 2.42c-.43.6-1.09.9-1.96.9-.88 0-1.53-.3-1.96-.9zm.77-4.15c-.25.44-.38 1.02-.38 1.73s.13 1.29.38 1.73.65.66 1.19.66.93-.22 1.18-.66.37-1.02.37-1.74-.12-1.3-.37-1.74-.64-.66-1.18-.66c-.54.02-.94.24-1.19.68z" class="i"/><path d="M652.21 222.317h2.41v6.62h-1.06v-5.63h-1.35z" class="W"/><path d="M664.94 228.168c-.46-.64-.69-1.5-.69-2.58s.23-1.94.69-2.58 1.16-.96 2.09-.96 1.63.32 2.09.96.69 1.5.69 2.58-.23 1.93-.69 2.58c-.46.64-1.16.96-2.09.96s-1.63-.32-2.09-.96zm.82-4.43c-.27.47-.41 1.09-.41 1.85s.14 1.38.41 1.85.69.7 1.27.7c.57 0 .99-.23 1.26-.7.26-.47.4-1.08.4-1.85s-.13-1.39-.4-1.85c-.26-.47-.68-.7-1.26-.7-.57 0-1 .23-1.27.7z" class="H"/><path d="M678.51 228.228c-.47-.66-.71-1.54-.71-2.64s.24-1.98.71-2.64 1.19-.99 2.14-.99 1.67.33 2.14.99.71 1.54.71 2.64-.24 1.98-.71 2.64-1.19.99-2.14.99c-.95-.01-1.67-.33-2.14-.99zm.84-4.53c-.28.48-.42 1.11-.42 1.89s.14 1.41.42 1.89.71.72 1.3.72 1.02-.24 1.29-.72.41-1.11.41-1.9-.13-1.42-.41-1.9c-.27-.48-.7-.72-1.29-.72-.59.02-1.02.26-1.3.74z" opacity=".79"/><path d="M692.97 222.057h2.6v7.16h-1.15v-6.08h-1.45z" class="H"/><path d="M705.67 228.327c-.49-.68-.74-1.6-.74-2.74s.25-2.06.74-2.74 1.23-1.02 2.22-1.02 1.73.34 2.22 1.02.74 1.6.74 2.74-.25 2.06-.74 2.74-1.23 1.02-2.22 1.02-1.73-.34-2.22-1.02zm.88-4.71c-.29.5-.43 1.15-.43 1.96s.14 1.47.43 1.96c.29.5.74.75 1.35.75s1.06-.25 1.34-.74c.28-.5.42-1.15.42-1.97s-.14-1.47-.42-1.97-.73-.74-1.34-.74c-.62.01-1.07.26-1.35.75z" class="G"/><path d="M720.17 221.948h2.68v7.37h-1.18v-6.26h-1.5z" class="K"/><path d="M732.85 228.407c-.51-.7-.76-1.64-.76-2.82s.25-2.12.76-2.82 1.27-1.05 2.29-1.05 1.78.35 2.29 1.05.76 1.64.76 2.82-.25 2.12-.76 2.82-1.27 1.05-2.29 1.05-1.79-.35-2.29-1.05zm.9-4.84c-.3.51-.44 1.19-.44 2.02s.15 1.51.44 2.02c.3.51.76.77 1.39.77s1.09-.25 1.37-.76c.29-.51.43-1.19.43-2.03s-.14-1.52-.43-2.03-.75-.76-1.37-.76c-.63 0-1.09.25-1.39.77z" class="P"/><path d="M597.81 236.186h2.23v6.14h-.98v-5.22h-1.25z" class="j"/><path d="M610.58 241.627c-.43-.6-.65-1.41-.65-2.42s.22-1.81.65-2.42c.43-.6 1.09-.9 1.96-.9s1.53.3 1.96.9.65 1.41.65 2.42-.22 1.81-.65 2.42c-.43.6-1.09.9-1.96.9-.87.01-1.52-.3-1.96-.9zm.78-4.15c-.25.44-.38 1.02-.38 1.73 0 .72.13 1.29.38 1.73s.65.66 1.19.66.93-.22 1.18-.66.37-1.02.37-1.74-.12-1.3-.37-1.74-.64-.66-1.18-.66c-.54.02-.94.24-1.19.68z" class="y"/><path d="M624.12 241.727c-.45-.63-.68-1.47-.68-2.52s.23-1.89.68-2.52 1.13-.94 2.04-.94 1.59.31 2.04.94.68 1.47.68 2.52-.23 1.89-.68 2.52-1.13.94-2.04.94c-.9 0-1.59-.31-2.04-.94zm.81-4.32c-.26.46-.4 1.06-.4 1.81s.13 1.35.4 1.81c.26.46.68.69 1.24.69s.97-.23 1.23-.68c.26-.46.39-1.06.39-1.81s-.13-1.35-.39-1.81-.67-.68-1.23-.68c-.56-.02-.98.21-1.24.67z" class="U"/><path d="M637.68 241.807c-.47-.65-.7-1.51-.7-2.6 0-1.08.23-1.95.7-2.6s1.17-.97 2.11-.97 1.64.32 2.11.97.7 1.51.7 2.6c0 1.08-.23 1.95-.7 2.6s-1.17.97-2.11.97-1.65-.32-2.11-.97zm.83-4.46c-.27.47-.41 1.09-.41 1.86s.14 1.39.41 1.86.7.71 1.28.71 1-.23 1.27-.7.4-1.09.4-1.87-.13-1.4-.4-1.87-.69-.7-1.27-.7-1.01.24-1.28.71z" class="c"/><path d="M651.25 241.867c-.48-.66-.72-1.55-.72-2.66s.24-2 .72-2.66 1.2-.99 2.16-.99 1.68.33 2.16.99.72 1.55.72 2.66-.24 2-.72 2.66-1.2.99-2.16.99-1.68-.33-2.16-.99zm.85-4.56c-.28.48-.42 1.12-.42 1.91s.14 1.42.42 1.91c.28.48.71.73 1.31.73.59 0 1.02-.24 1.3-.72.27-.48.41-1.12.41-1.91s-.14-1.43-.41-1.91-.7-.72-1.3-.72a1.35 1.35 0 0 0-1.31.71z"/><path d="M664.81 241.948c-.49-.68-.74-1.6-.74-2.74s.25-2.06.74-2.74 1.23-1.02 2.22-1.02 1.73.34 2.22 1.02.74 1.6.74 2.74-.25 2.06-.74 2.74-1.23 1.02-2.22 1.02-1.73-.34-2.22-1.02zm.87-4.7c-.29.5-.43 1.15-.43 1.96s.14 1.47.43 1.96c.29.5.74.75 1.35.75s1.06-.25 1.34-.74c.28-.5.42-1.15.42-1.97s-.14-1.47-.42-1.97-.73-.74-1.34-.74-1.06.25-1.35.75z" class="z"/><path d="M679.31 235.567h2.68v7.37h-1.18v-6.26h-1.5z" class="g"/><path d="M692.91 235.516h2.72v7.48h-1.2v-6.35h-1.52z" class="X"/><path d="M705.57 242.066c-.51-.71-.77-1.67-.77-2.86s.26-2.15.77-2.86 1.29-1.07 2.32-1.07 1.81.36 2.32 1.07.77 1.67.77 2.86-.26 2.15-.77 2.86-1.29 1.07-2.32 1.07-1.81-.36-2.32-1.07zm.92-4.91c-.3.52-.45 1.2-.45 2.05s.15 1.53.45 2.05.77.78 1.4.78c.64 0 1.1-.26 1.39-.78s.44-1.2.44-2.06c0-.85-.15-1.54-.44-2.06s-.76-.78-1.39-.78c-.63.02-1.1.28-1.4.8z" class="G"/><path d="M719.16 242.107c-.52-.72-.78-1.69-.78-2.9s.26-2.18.78-2.9 1.31-1.08 2.35-1.08c1.05 0 1.83.36 2.35 1.08s.78 1.69.78 2.9-.26 2.18-.78 2.9-1.31 1.08-2.35 1.08c-1.05 0-1.83-.36-2.35-1.08zm.93-4.98c-.31.53-.46 1.22-.46 2.08s.15 1.55.46 2.08c.3.53.78.79 1.42.79s1.12-.26 1.41-.79c.3-.52.45-1.22.45-2.09s-.15-1.56-.45-2.09c-.3-.52-.77-.79-1.41-.79s-1.12.28-1.42.81z" class="k"/><path d="M733.73 235.378h2.81v7.75h-1.24v-6.58h-1.57z" class="Y"/><path d="M596.9 255.327c-.45-.62-.67-1.45-.67-2.5 0-1.04.22-1.87.67-2.5.45-.62 1.12-.93 2.03-.93.9 0 1.58.31 2.03.93s.67 1.45.67 2.5c0 1.04-.22 1.87-.67 2.5-.45.62-1.12.93-2.03.93-.91.01-1.58-.31-2.03-.93zm.8-4.29c-.26.45-.39 1.05-.39 1.79s.13 1.34.39 1.79c.26.46.67.68 1.23.68s.96-.23 1.22-.68.38-1.05.38-1.8-.13-1.34-.38-1.8c-.26-.45-.66-.68-1.22-.68-.56.02-.97.25-1.23.7z" class="F"/><path d="M611.3 249.458h2.48v6.84h-1.1v-5.81h-1.39v-1.03z" class="i"/><path d="M623.99 255.507c-.48-.67-.72-1.56-.72-2.68s.24-2.01.72-2.68 1.21-1 2.17-1c.97 0 1.69.33 2.17 1s.72 1.56.72 2.68-.24 2.01-.72 2.68-1.21 1-2.17 1-1.69-.33-2.17-1zm.86-4.6c-.28.49-.42 1.13-.42 1.92s.14 1.43.42 1.92.72.73 1.32.73 1.03-.24 1.31-.73c.27-.48.41-1.13.41-1.93s-.14-1.44-.41-1.93c-.27-.48-.71-.73-1.31-.73-.6.02-1.04.26-1.32.75z" opacity=".76"/><path d="M637.56 255.567c-.49-.68-.74-1.6-.74-2.74s.25-2.06.74-2.74 1.23-1.02 2.22-1.02 1.73.34 2.22 1.02.74 1.6.74 2.74-.25 2.06-.74 2.74-1.23 1.02-2.22 1.02c-.98 0-1.72-.34-2.22-1.02zm.88-4.7c-.29.5-.43 1.15-.43 1.96s.14 1.47.43 1.96c.29.5.74.75 1.35.75s1.06-.25 1.34-.74.42-1.15.42-1.97-.14-1.47-.42-1.97-.73-.74-1.34-.74-1.06.25-1.35.75z" class="D"/><path d="M652.06 249.167h2.7v7.42h-1.19v-6.31h-1.51z" class="AA"/><path d="M664.71 255.687c-.51-.71-.77-1.67-.77-2.86s.26-2.15.77-2.86 1.29-1.07 2.32-1.07 1.81.36 2.32 1.07.77 1.67.77 2.86-.26 2.15-.77 2.86-1.29 1.07-2.32 1.07-1.81-.36-2.32-1.07zm.91-4.91c-.3.52-.45 1.2-.45 2.05s.15 1.53.45 2.05.77.78 1.4.78c.64 0 1.1-.26 1.39-.78s.44-1.2.44-2.06c0-.85-.15-1.54-.44-2.06s-.76-.78-1.39-.78c-.63.02-1.1.28-1.4.8z" class="D"/><path d="M678.3 255.726c-.52-.72-.78-1.69-.78-2.9s.26-2.18.78-2.9 1.31-1.08 2.35-1.08c1.05 0 1.83.36 2.35 1.08s.78 1.69.78 2.9-.26 2.18-.78 2.9-1.31 1.08-2.35 1.08c-1.05 0-1.83-.36-2.35-1.08zm.93-4.98c-.3.53-.46 1.22-.46 2.08s.15 1.55.46 2.08c.3.53.78.79 1.42.79.65 0 1.12-.26 1.41-.79.3-.52.45-1.22.45-2.09s-.15-1.56-.45-2.09c-.3-.52-.77-.79-1.41-.79-.64.02-1.12.28-1.42.81z" class="v"/><path d="M692.86 248.977h2.83v7.8h-1.25v-6.63h-1.58z" opacity=".93"/><path d="M706.47 248.948h2.85v7.85h-1.26v-6.67h-1.59z" class="Q"/><path d="M719.08 255.828c-.54-.75-.81-1.75-.81-3s.27-2.25.81-3 1.35-1.12 2.44-1.12 1.9.37 2.44 1.12.81 1.75.81 3-.27 2.25-.81 3-1.35 1.12-2.44 1.12-1.9-.38-2.44-1.12zm.96-5.16c-.32.55-.47 1.26-.47 2.15s.16 1.61.47 2.15c.31.55.81.82 1.47.82.67 0 1.16-.27 1.46-.81.31-.54.46-1.26.46-2.16s-.15-1.61-.46-2.16c-.31-.54-.79-.81-1.46-.81-.66.01-1.16.28-1.47.82z" class="G"/><path d="M733.68 248.868h2.91v8.01h-1.28v-6.81h-1.63z" class="D"/><path d="M596.77 269.108c-.48-.66-.72-1.55-.72-2.66s.24-2 .72-2.66 1.2-.99 2.16-.99 1.68.33 2.16.99.72 1.55.72 2.66-.24 2-.72 2.66-1.2.99-2.16.99c-.97.01-1.69-.33-2.16-.99zm.85-4.56c-.28.48-.42 1.12-.42 1.91s.14 1.42.42 1.91c.28.48.71.73 1.31.73.59 0 1.02-.24 1.3-.72.27-.48.41-1.12.41-1.91s-.14-1.43-.41-1.91-.7-.72-1.3-.72a1.34 1.34 0 0 0-1.31.71z" class="H"/><path d="M611.23 262.868h2.64v7.26h-1.16v-6.17h-1.48z" opacity=".79"/><path d="M623.89 269.246c-.5-.7-.75-1.63-.75-2.8s.25-2.1.75-2.8 1.26-1.05 2.27-1.05 1.77.35 2.27 1.05.75 1.63.75 2.8-.25 2.1-.75 2.8-1.26 1.05-2.27 1.05-1.76-.35-2.27-1.05zm.9-4.81c-.29.51-.44 1.18-.44 2.01s.15 1.5.44 2.01.75.76 1.38.76c.62 0 1.08-.25 1.37-.76s.43-1.18.43-2.01c0-.84-.14-1.51-.43-2.01-.29-.51-.74-.76-1.37-.76s-1.08.25-1.38.76z" class="k"/><path d="M638.41 262.708h2.76v7.58h-1.22v-6.45h-1.54z" class="l"/><path d="M651.04 269.366c-.52-.73-.79-1.7-.79-2.92s.26-2.19.79-2.92c.52-.73 1.31-1.09 2.37-1.09s1.85.36 2.37 1.09.79 1.7.79 2.92-.26 2.19-.79 2.92c-.52.73-1.31 1.09-2.37 1.09s-1.85-.36-2.37-1.09zm.93-5.02c-.31.53-.46 1.23-.46 2.09s.15 1.56.46 2.09.78.8 1.43.8 1.13-.26 1.42-.79c.3-.53.45-1.23.45-2.1s-.15-1.57-.45-2.1-.77-.79-1.42-.79c-.64.01-1.12.27-1.43.8z" class="f"/><path d="M664.63 269.408c-.53-.74-.8-1.72-.8-2.96s.27-2.22.8-2.96 1.33-1.11 2.4-1.11 1.87.37 2.4 1.11.8 1.72.8 2.96-.27 2.22-.8 2.96-1.33 1.11-2.4 1.11-1.87-.37-2.4-1.11zm.95-5.08c-.31.54-.47 1.25-.47 2.12 0 .88.15 1.58.47 2.12.31.54.8.81 1.45.81.66 0 1.14-.27 1.44-.8.3-.54.45-1.24.45-2.13 0-.88-.15-1.59-.45-2.13s-.78-.8-1.44-.8-1.14.27-1.45.81z" class="d"/><path d="M679.2 262.516h2.89v7.96h-1.28v-6.76h-1.62z" class="H"/><path d="M691.8 269.486c-.55-.76-.82-1.77-.82-3.04s.27-2.28.82-3.04 1.37-1.14 2.47-1.14 1.92.38 2.47 1.14.82 1.77.82 3.04-.27 2.28-.82 3.04-1.37 1.14-2.47 1.14c-1.1-.01-1.92-.38-2.47-1.14zm.98-5.22c-.32.55-.48 1.28-.48 2.18s.16 1.63.48 2.18.82.83 1.49.83c.68 0 1.17-.27 1.48-.82s.47-1.28.47-2.19-.16-1.64-.47-2.19-.81-.82-1.48-.82c-.68 0-1.17.27-1.49.83z" class="m"/><path d="M706.42 262.436h2.95v8.12h-1.3v-6.9h-1.65z" opacity=".6"/><path d="M720.04 262.436h2.95v8.12h-1.3v-6.9h-1.65z" class="Z"/><path d="M732.63 269.527c-.55-.77-.83-1.79-.83-3.08s.28-2.31.83-3.08 1.39-1.15 2.5-1.15 1.95.38 2.5 1.15.83 1.8.83 3.08c0 1.29-.28 2.31-.83 3.08s-1.39 1.15-2.5 1.15-1.94-.39-2.5-1.15zm.99-5.29c-.32.56-.49 1.3-.49 2.21s.16 1.65.49 2.21c.32.56.83.84 1.51.84.69 0 1.19-.28 1.5-.84.32-.56.47-1.3.47-2.22s-.16-1.66-.47-2.22c-.32-.56-.82-.84-1.5-.84-.68.02-1.19.3-1.51.86z" opacity=".94"/><path d="M597.59 276.426h2.68v7.37h-1.18v-6.26h-1.5z" class="w"/><path d="M610.22 282.927c-.51-.71-.77-1.67-.77-2.86s.26-2.15.77-2.86 1.29-1.07 2.32-1.07 1.81.36 2.32 1.07.77 1.67.77 2.86-.26 2.15-.77 2.86-1.29 1.07-2.32 1.07-1.8-.36-2.32-1.07zm.92-4.91c-.3.52-.45 1.2-.45 2.05s.15 1.53.45 2.05.77.78 1.41.78 1.1-.26 1.39-.78.44-1.2.44-2.06c0-.85-.15-1.54-.44-2.06s-.76-.78-1.39-.78c-.64.02-1.11.28-1.41.8z" class="n"/><path d="M624.76 276.247h2.81v7.75h-1.24v-6.58h-1.57z" class="D"/><path d="M637.38 283.027c-.53-.74-.8-1.72-.8-2.96s.27-2.22.8-2.96 1.33-1.11 2.4-1.11 1.87.37 2.4 1.11.8 1.72.8 2.96-.27 2.22-.8 2.96-1.33 1.11-2.4 1.11c-1.06 0-1.86-.37-2.4-1.11zm.95-5.08c-.31.54-.47 1.25-.47 2.12 0 .88.15 1.58.47 2.12.31.54.8.81 1.45.81.66 0 1.14-.27 1.44-.8.3-.54.45-1.24.45-2.13 0-.88-.15-1.59-.45-2.13s-.78-.8-1.44-.8c-.65 0-1.14.27-1.45.81z" class="AB"/><path d="M651.95 276.106h2.91v8.01h-1.28v-6.81h-1.63z" class="Z"/><path d="M665.56 276.087h2.93v8.07h-1.29v-6.85h-1.64z" class="o"/><path d="M678.15 283.147c-.55-.77-.83-1.79-.83-3.08s.28-2.31.83-3.08 1.39-1.15 2.5-1.15 1.95.38 2.5 1.15.83 1.8.83 3.08c0 1.29-.28 2.31-.83 3.08s-1.39 1.15-2.5 1.15-1.95-.38-2.5-1.15zm.99-5.29c-.32.56-.49 1.3-.49 2.21s.16 1.65.49 2.21c.32.56.83.84 1.51.84.69 0 1.19-.28 1.5-.84.32-.56.47-1.3.47-2.22s-.16-1.66-.47-2.22c-.32-.56-.82-.84-1.5-.84-.69.02-1.19.3-1.51.86z" class="AC"/><path d="M691.75 283.167c-.56-.77-.84-1.81-.84-3.1s.28-2.33.84-3.1 1.4-1.16 2.52-1.16 1.96.39 2.52 1.16.84 1.81.84 3.1-.28 2.33-.84 3.1-1.4 1.16-2.52 1.16-1.96-.39-2.52-1.16zm1-5.33c-.33.57-.49 1.31-.49 2.22 0 .92.16 1.66.49 2.22.33.57.83.85 1.52.85s1.19-.28 1.51-.84.48-1.3.48-2.23-.16-1.67-.48-2.23-.82-.84-1.51-.84c-.69.01-1.2.29-1.52.85z" class="I"/><path d="M705.36 283.186c-.56-.78-.84-1.82-.84-3.12s.28-2.34.84-3.12 1.41-1.17 2.53-1.17c1.13 0 1.97.39 2.53 1.17s.84 1.82.84 3.12-.28 2.34-.84 3.12-1.41 1.17-2.53 1.17c-1.13-.01-1.97-.39-2.53-1.17zm1-5.36c-.33.57-.49 1.31-.49 2.24 0 .92.16 1.67.49 2.24s.84.85 1.53.85c.7 0 1.2-.28 1.52-.85.32-.56.48-1.31.48-2.24s-.16-1.68-.48-2.24-.83-.85-1.52-.85-1.2.28-1.53.85z" class="W"/><path d="M718.96 283.207c-.56-.78-.85-1.83-.85-3.14s.28-2.36.85-3.14c.56-.78 1.41-1.17 2.55-1.17s1.99.39 2.55 1.17.85 1.83.85 3.14-.28 2.36-.85 3.14c-.56.78-1.41 1.17-2.55 1.17s-1.98-.39-2.55-1.17zm1.01-5.4c-.33.57-.49 1.32-.49 2.25s.16 1.68.49 2.25.84.86 1.54.86 1.21-.28 1.53-.85.48-1.32.48-2.26-.16-1.69-.48-2.26-.83-.85-1.53-.85-1.21.29-1.54.86z" class="X"/><path d="M733.61 275.926h3.05v8.39h-1.34v-7.13h-1.7z" opacity=".55"/><path d="M596.59 296.567c-.52-.72-.78-1.68-.78-2.88s.26-2.16.78-2.88 1.3-1.08 2.34-1.08 1.82.36 2.34 1.08.78 1.68.78 2.88-.26 2.16-.78 2.88-1.3 1.08-2.34 1.08c-1.05 0-1.83-.36-2.34-1.08zm.92-4.94c-.3.52-.45 1.21-.45 2.07 0 .85.15 1.54.45 2.07.3.52.77.79 1.41.79s1.11-.26 1.4-.78c.3-.52.44-1.21.44-2.07s-.15-1.55-.44-2.07-.76-.78-1.4-.78c-.64-.02-1.11.24-1.41.77z" class="t"/><path d="M611.12 289.807h2.85v7.85h-1.26v-6.67h-1.59z" class="W"/><path d="M624.72 289.757h2.89v7.96h-1.28v-6.76h-1.61z" class="m"/><path d="M637.3 296.747c-.55-.76-.82-1.78-.82-3.06s.27-2.3.82-3.06 1.38-1.14 2.49-1.14 1.94.38 2.49 1.14.82 1.78.82 3.06-.27 2.3-.82 3.06-1.38 1.14-2.49 1.14-1.94-.38-2.49-1.14zm.98-5.26c-.32.56-.48 1.29-.48 2.2s.16 1.64.48 2.2.82.84 1.5.84 1.18-.28 1.49-.83.47-1.29.47-2.2-.16-1.65-.47-2.2-.81-.83-1.49-.83c-.67-.01-1.18.27-1.5.82z" class="X"/><path d="M651.92 289.647h2.97v8.17h-1.31v-6.94h-1.66z" class="n"/><path d="M665.53 289.596h3.01v8.28h-1.33v-7.04h-1.68z" class="AD"/><path d="M678.1 296.828c-.56-.78-.85-1.83-.85-3.14s.28-2.36.85-3.14c.56-.78 1.41-1.17 2.55-1.17s1.99.39 2.55 1.17.85 1.83.85 3.14-.28 2.36-.85 3.14c-.56.78-1.41 1.17-2.55 1.17s-1.99-.39-2.55-1.17zm1.01-5.4c-.33.57-.49 1.32-.49 2.25s.16 1.68.49 2.25.84.86 1.54.86 1.21-.28 1.53-.85.48-1.32.48-2.26-.16-1.69-.48-2.26-.83-.85-1.53-.85c-.7.01-1.21.29-1.54.86z" opacity=".23"/><use xlink:href="#B" class="Q"/><path d="M705.31 296.867c-.57-.79-.86-1.85-.86-3.18s.29-2.39.86-3.18 1.43-1.19 2.58-1.19 2.01.4 2.58 1.19.86 1.85.86 3.18-.29 2.39-.86 3.18-1.43 1.19-2.58 1.19-2.01-.4-2.58-1.19zm1.02-5.47c-.33.58-.5 1.34-.5 2.28s.17 1.7.5 2.28.85.87 1.56.87 1.23-.29 1.55-.86c.33-.58.49-1.34.49-2.29s-.16-1.71-.49-2.29-.84-.86-1.55-.86c-.71.01-1.23.3-1.56.87z" class="u"/><path d="M718.91 296.888c-.58-.8-.86-1.87-.86-3.2 0-1.34.29-2.4.86-3.2s1.44-1.2 2.6-1.2 2.02.4 2.6 1.2.86 1.87.86 3.2c0 1.34-.29 2.4-.86 3.2-.58.8-1.44 1.2-2.6 1.2s-2.02-.4-2.6-1.2zm1.03-5.5c-.34.58-.5 1.35-.5 2.3s.17 1.71.5 2.3c.34.58.86.87 1.57.87s1.23-.29 1.56-.87.49-1.35.49-2.3c0-.96-.16-1.72-.49-2.3s-.85-.87-1.56-.87-1.23.29-1.57.87z" class="L"/><path d="M733.59 289.487h3.09v8.49h-1.36v-7.22h-1.72v-1.27z" class="I"/><path d="M597.5 303.436h2.85v7.85h-1.26v-6.67h-1.59z" class="G"/><path d="M610.08 310.348c-.55-.76-.82-1.77-.82-3.04s.27-2.28.82-3.04 1.37-1.14 2.47-1.14 1.92.38 2.47 1.14.82 1.77.82 3.04-.27 2.28-.82 3.04-1.37 1.14-2.47 1.14-1.93-.38-2.47-1.14zm.97-5.22c-.32.55-.48 1.28-.48 2.18s.16 1.63.48 2.18.82.83 1.49.83c.68 0 1.17-.27 1.48-.82s.47-1.28.47-2.19-.16-1.64-.47-2.19-.81-.83-1.48-.83c-.67.01-1.17.29-1.49.84z" opacity=".76"/><path d="M624.69 303.298h2.95v8.12h-1.3v-6.9h-1.65z" class="K"/><path d="M638.29 303.247h2.99v8.23h-1.32v-6.99h-1.67z" class="T"/><path d="M651.9 303.198h3.03v8.33h-1.34v-7.08h-1.69z" opacity=".77"/><path d="M664.45 310.486c-.57-.79-.86-1.85-.86-3.18s.29-2.39.86-3.18 1.43-1.19 2.58-1.19 2.01.4 2.58 1.19.86 1.85.86 3.18-.29 2.39-.86 3.18-1.43 1.19-2.58 1.19-2.01-.4-2.58-1.19zm1.02-5.46c-.33.58-.5 1.34-.5 2.28s.17 1.7.5 2.28.85.87 1.56.87 1.23-.29 1.55-.86c.33-.58.49-1.34.49-2.29s-.16-1.71-.49-2.29-.84-.86-1.55-.86-1.23.29-1.56.87z" opacity=".67"/><path d="M678.05 310.507c-.58-.8-.86-1.87-.86-3.2 0-1.34.29-2.4.86-3.2s1.44-1.2 2.6-1.2 2.03.4 2.6 1.2c.58.8.86 1.87.86 3.2 0 1.34-.29 2.4-.86 3.2s-1.44 1.2-2.6 1.2-2.02-.4-2.6-1.2zm1.03-5.5c-.34.58-.5 1.35-.5 2.3s.17 1.71.5 2.3c.34.58.86.87 1.57.87s1.23-.29 1.56-.87.49-1.35.49-2.3c0-.96-.16-1.72-.49-2.3s-.85-.87-1.56-.87-1.24.29-1.57.87z" class="Z"/><path d="M692.73 303.118h3.09v8.49h-1.36v-7.22h-1.72v-1.27z" class="H"/><use xlink:href="#C" class="I"/><use xlink:href="#D" class="j"/><path d="M732.5 310.546c-.58-.81-.87-1.89-.87-3.24s.29-2.43.87-3.24 1.46-1.21 2.63-1.21 2.05.4 2.63 1.21.87 1.89.87 3.24-.29 2.43-.87 3.24-1.46 1.21-2.63 1.21-2.05-.4-2.63-1.21zm1.04-5.57c-.34.59-.51 1.37-.51 2.33s.17 1.73.51 2.33c.34.59.87.89 1.59.89s1.25-.29 1.58-.88.5-1.36.5-2.33-.17-1.74-.5-2.33-.86-.88-1.58-.88-1.25.28-1.59.87z" class="Q"/><path d="M597.46 316.948h2.93v8.07h-1.29v-6.85h-1.64z" class="J"/><path d="M610.04 324.008c-.55-.77-.83-1.79-.83-3.08s.28-2.31.83-3.08 1.39-1.15 2.5-1.15 1.95.38 2.5 1.15.83 1.8.83 3.08c0 1.29-.28 2.31-.83 3.08s-1.39 1.15-2.5 1.15-1.94-.38-2.5-1.15zm.99-5.29c-.32.56-.49 1.3-.49 2.21s.16 1.65.49 2.21c.32.56.83.84 1.51.84.69 0 1.19-.28 1.5-.84.32-.56.47-1.3.47-2.22s-.16-1.66-.47-2.22c-.32-.56-.82-.84-1.5-.84-.68.02-1.18.3-1.51.86z" class="AC"/><path d="M623.63 324.047c-.56-.78-.84-1.82-.84-3.12s.28-2.34.84-3.12 1.41-1.17 2.53-1.17c1.13 0 1.97.39 2.53 1.17s.84 1.82.84 3.12-.28 2.34-.84 3.12-1.41 1.17-2.53 1.17-1.97-.39-2.53-1.17zm1-5.36c-.33.57-.49 1.31-.49 2.24 0 .92.16 1.67.49 2.24s.84.85 1.53.85c.7 0 1.2-.28 1.52-.85.32-.56.48-1.31.48-2.24s-.16-1.68-.48-2.24-.83-.85-1.52-.85-1.2.28-1.53.85z" class="w"/><path d="M637.22 324.087c-.57-.79-.85-1.84-.85-3.16s.28-2.37.85-3.16 1.42-1.18 2.57-1.18c1.14 0 2 .39 2.57 1.18s.85 1.84.85 3.16-.28 2.37-.85 3.16-1.42 1.18-2.57 1.18-2-.39-2.57-1.18zm1.01-5.43c-.33.58-.5 1.33-.5 2.27s.17 1.69.5 2.27.85.86 1.55.86 1.22-.29 1.54-.86.49-1.33.49-2.27-.16-1.7-.49-2.27c-.32-.57-.84-.86-1.54-.86s-1.21.29-1.55.86z" class="D"/><path d="M650.81 324.126c-.58-.8-.86-1.87-.86-3.2s.29-2.4.86-3.2 1.44-1.2 2.6-1.2 2.03.4 2.6 1.2c.58.8.86 1.87.86 3.2s-.29 2.4-.86 3.2-1.44 1.2-2.6 1.2-2.03-.4-2.6-1.2zm1.03-5.5c-.34.58-.5 1.35-.5 2.3s.17 1.71.5 2.3c.34.58.86.87 1.57.87s1.23-.29 1.56-.87.49-1.35.49-2.3c0-.96-.16-1.72-.49-2.3s-.85-.87-1.56-.87-1.24.29-1.57.87z" opacity=".35"/><use xlink:href="#C" x="-40.86" y="13.621" class="e"/><use xlink:href="#D" x="-40.86" y="13.621" class="Y"/><path d="M692.71 316.676h3.12v8.6h-1.38v-7.31h-1.75v-1.29z" opacity=".71"/><path d="M706.32 316.657h3.14v8.65h-1.39v-7.35h-1.76z" opacity=".54"/><path d="M719.93 316.628h3.16v8.71h-1.4v-7.4h-1.77v-1.31z" class="AE"/><path d="M732.47 324.207c-.59-.82-.88-1.91-.88-3.28s.29-2.46.88-3.28 1.48-1.23 2.67-1.23 2.08.41 2.67 1.23.88 1.91.88 3.28-.29 2.46-.88 3.28-1.48 1.23-2.67 1.23-2.08-.41-2.67-1.23zm1.05-5.64c-.35.6-.52 1.38-.52 2.35s.17 1.76.52 2.35c.34.6.88.9 1.61.9s1.26-.3 1.6-.89.5-1.38.5-2.36-.17-1.77-.5-2.36c-.34-.59-.87-.89-1.6-.89-.73.01-1.26.31-1.61.9z" class="e"/><path d="M596.42 337.627c-.55-.77-.83-1.79-.83-3.08s.28-2.31.83-3.08 1.39-1.15 2.5-1.15 1.95.38 2.5 1.15.83 1.8.83 3.08c0 1.29-.28 2.31-.83 3.08s-1.39 1.15-2.5 1.15-1.94-.38-2.5-1.15zm.99-5.29c-.32.56-.49 1.3-.49 2.21s.16 1.65.49 2.21c.32.56.83.84 1.51.84.69 0 1.19-.28 1.5-.84.32-.56.47-1.3.47-2.22s-.16-1.66-.47-2.22c-.32-.56-.82-.84-1.5-.84-.68.02-1.19.3-1.51.86z" class="V"/><path d="M611.03 330.436h3.03v8.33h-1.34v-7.08h-1.69z" class="a"/><path d="M624.63 330.378h3.07v8.44h-1.35v-7.17h-1.71z" class="f"/><path d="M638.24 330.356h3.09v8.49h-1.36v-7.22h-1.73z" class="AD"/><path d="M650.79 337.768c-.58-.8-.87-1.88-.87-3.22s.29-2.42.87-3.22 1.45-1.2 2.62-1.2 2.04.4 2.62 1.2.87 1.88.87 3.22-.29 2.42-.87 3.22-1.45 1.2-2.62 1.2c-1.17.01-2.04-.4-2.62-1.2zm1.04-5.53c-.34.59-.51 1.36-.51 2.31s.17 1.72.51 2.31.87.88 1.58.88c.72 0 1.24-.29 1.57-.87s.5-1.35.5-2.32c0-.96-.16-1.73-.5-2.32-.33-.58-.85-.87-1.57-.87s-1.25.29-1.58.88z" opacity=".92"/><path d="M665.47 330.298h3.12v8.6h-1.38v-7.31h-1.75v-1.29z" class="P"/><path d="M679.08 330.276h3.14v8.65h-1.39v-7.35h-1.76v-1.3z" class="h"/><use xlink:href="#E" class="x"/><use xlink:href="#E" x="13.62" class="P"/><use xlink:href="#F" class="X"/><use xlink:href="#F" x="13.62" class="V"/><path d="M596.39 351.288c-.56-.78-.84-1.82-.84-3.12s.28-2.34.84-3.12 1.41-1.17 2.53-1.17c1.13 0 1.97.39 2.53 1.17s.84 1.82.84 3.12-.28 2.34-.84 3.12-1.41 1.17-2.53 1.17-1.97-.39-2.53-1.17zm1-5.36c-.33.57-.49 1.31-.49 2.24 0 .92.16 1.67.49 2.24s.84.85 1.53.85 1.2-.28 1.52-.85c.32-.56.48-1.31.48-2.24s-.16-1.68-.48-2.24-.83-.85-1.52-.85-1.2.28-1.53.85z" class="C"/><path d="M609.98 351.327c-.57-.79-.85-1.84-.85-3.16s.28-2.37.85-3.16 1.42-1.18 2.57-1.18c1.14 0 2 .39 2.57 1.18s.85 1.84.85 3.16-.28 2.37-.85 3.16-1.42 1.18-2.57 1.18-2-.39-2.57-1.18zm1.01-5.43c-.33.58-.5 1.33-.5 2.27s.17 1.69.5 2.27.85.86 1.55.86 1.22-.29 1.54-.86.49-1.33.49-2.27-.16-1.7-.49-2.27c-.32-.57-.84-.86-1.54-.86s-1.22.29-1.55.86z" class="H"/><path d="M623.57 351.366c-.58-.8-.86-1.87-.86-3.2 0-1.34.29-2.4.86-3.2s1.44-1.2 2.6-1.2 2.03.4 2.6 1.2c.58.8.86 1.87.86 3.2 0 1.34-.29 2.4-.86 3.2s-1.44 1.2-2.6 1.2-2.03-.4-2.6-1.2zm1.02-5.5c-.34.58-.5 1.35-.5 2.3s.17 1.71.5 2.3c.34.58.86.87 1.57.87s1.23-.29 1.56-.87.49-1.35.49-2.3c0-.96-.16-1.72-.49-2.3s-.85-.87-1.56-.87-1.23.29-1.57.87z" class="u"/><use xlink:href="#C" x="-68.1" y="40.861" opacity=".76"/><path d="M651.84 343.897h3.14v8.65h-1.39v-7.35h-1.76v-1.3z" class="AF"/><path d="M664.36 351.447c-.59-.82-.88-1.91-.88-3.28s.29-2.46.88-3.28 1.48-1.23 2.67-1.23 2.08.41 2.67 1.23.88 1.91.88 3.28-.29 2.46-.88 3.28-1.48 1.23-2.67 1.23-2.08-.41-2.67-1.23zm1.06-5.64c-.35.6-.52 1.38-.52 2.35s.17 1.76.52 2.35c.34.6.88.9 1.61.9s1.26-.3 1.6-.89.5-1.38.5-2.36-.17-1.77-.5-2.36c-.34-.59-.87-.89-1.6-.89-.73.01-1.27.31-1.61.9z" class="K"/><path d="M677.99 351.447c-.59-.82-.88-1.91-.88-3.28s.29-2.46.88-3.28 1.48-1.23 2.67-1.23 2.08.41 2.67 1.23.88 1.91.88 3.28-.29 2.46-.88 3.28-1.48 1.23-2.67 1.23-2.09-.41-2.67-1.23zm1.05-5.64c-.34.6-.52 1.38-.52 2.35s.17 1.76.52 2.35c.34.6.88.9 1.61.9s1.26-.3 1.6-.89.5-1.38.5-2.36-.17-1.77-.5-2.36c-.34-.59-.87-.89-1.6-.89-.73.01-1.27.31-1.61.9z" opacity=".29"/><use xlink:href="#G" opacity=".44"/><use xlink:href="#G" x="13.62" class="v"/><use xlink:href="#H" opacity=".82"/><use xlink:href="#H" x="13.62" opacity=".81"/><path d="M597.41 357.676h3.03v8.33h-1.34v-7.08h-1.69z" class="W"/><path d="M609.96 364.967c-.57-.79-.86-1.85-.86-3.18s.29-2.39.86-3.18 1.43-1.19 2.58-1.19 2.01.4 2.58 1.19.86 1.85.86 3.18-.29 2.39-.86 3.18-1.43 1.19-2.58 1.19-2.01-.39-2.58-1.19zm1.02-5.46c-.33.58-.5 1.34-.5 2.28s.17 1.7.5 2.28.85.87 1.56.87 1.23-.29 1.55-.86c.33-.58.49-1.34.49-2.29s-.16-1.71-.49-2.29-.84-.86-1.55-.86c-.7 0-1.22.29-1.56.87z" class="V"/><use xlink:href="#C" x="-81.73" y="54.48" opacity=".93"/><path d="M637.16 365.027c-.58-.81-.87-1.89-.87-3.24s.29-2.43.87-3.24 1.46-1.21 2.63-1.21 2.05.4 2.63 1.21.87 1.89.87 3.24-.29 2.43-.87 3.24-1.46 1.21-2.63 1.21c-1.18 0-2.05-.4-2.63-1.21zm1.03-5.56c-.34.59-.51 1.37-.51 2.33s.17 1.73.51 2.33c.34.59.87.89 1.59.89s1.25-.29 1.58-.88.5-1.36.5-2.33-.17-1.74-.5-2.33-.86-.88-1.58-.88c-.71-.02-1.25.28-1.59.87z" class="AD"/><path d="M651.83 357.487h3.16v8.71h-1.4v-7.4h-1.77v-1.31z" class="t"/><use xlink:href="#I" class="U"/><path d="M679.06 357.467h3.18v8.76h-1.4v-7.44h-1.78z" class="S"/><use xlink:href="#J" class="n"/><use xlink:href="#J" x="13.62" class="V"/><path d="M718.8 365.128c-.6-.83-.9-1.95-.9-3.34s.3-2.51.9-3.34 1.5-1.25 2.71-1.25 2.11.42 2.71 1.25.9 1.95.9 3.34-.3 2.51-.9 3.34-1.51 1.25-2.71 1.25-2.11-.42-2.71-1.25zm1.07-5.74c-.35.61-.53 1.41-.53 2.4s.18 1.79.53 2.4.9.91 1.64.91 1.29-.3 1.63-.91c.34-.6.51-1.41.51-2.4 0-1-.17-1.8-.51-2.4s-.89-.91-1.63-.91-1.29.3-1.64.91z" opacity=".55"/><path d="M733.52 357.407h3.22v8.87h-1.42v-7.53h-1.8z" class="I"/><path d="M596.37 378.546c-.56-.78-.85-1.83-.85-3.14s.28-2.36.85-3.14c.56-.78 1.41-1.17 2.55-1.17s1.99.39 2.55 1.17.85 1.83.85 3.14-.28 2.36-.85 3.14c-.56.78-1.41 1.17-2.55 1.17-1.13.01-1.98-.38-2.55-1.17zm1.01-5.39c-.33.57-.49 1.32-.49 2.25s.16 1.68.49 2.25.84.86 1.54.86 1.21-.28 1.53-.85.48-1.32.48-2.26-.16-1.69-.48-2.26-.83-.85-1.53-.85c-.69 0-1.21.29-1.54.86z" class="k"/><path d="M609.95 378.607c-.58-.8-.86-1.871-.86-3.201 0-1.34.29-2.4.86-3.2s1.44-1.199 2.6-1.199 2.02.399 2.6 1.199.86 1.87.86 3.2c0 1.34-.29 2.401-.86 3.201s-1.44 1.2-2.6 1.2-2.03-.4-2.6-1.2zm1.02-5.49c-.34.58-.5 1.35-.5 2.3s.17 1.709.5 2.299c.34.58.86.87 1.57.87s1.23-.29 1.56-.87.49-1.349.49-2.299c0-.96-.16-1.72-.49-2.3s-.85-.87-1.56-.87c-.71-.01-1.23.28-1.57.87z" opacity=".35"/><path d="M623.55 378.627c-.58-.8-.87-1.88-.87-3.22s.29-2.42.87-3.22 1.45-1.2 2.62-1.2 2.04.4 2.62 1.2.87 1.88.87 3.22-.29 2.42-.87 3.22-1.45 1.2-2.62 1.2c-1.17.01-2.04-.39-2.62-1.2zm1.03-5.53c-.34.59-.51 1.36-.51 2.31s.17 1.72.51 2.31.87.88 1.58.88c.72 0 1.24-.29 1.57-.87s.5-1.35.5-2.32c0-.96-.16-1.73-.5-2.32-.33-.58-.85-.87-1.57-.87-.71 0-1.24.29-1.58.88z" class="P"/><path d="M637.14 378.666c-.59-.81-.88-1.9-.88-3.26s.29-2.45.88-3.26 1.47-1.22 2.65-1.22 2.06.41 2.65 1.22.88 1.9.88 3.26-.29 2.45-.88 3.26-1.47 1.22-2.65 1.22-2.07-.4-2.65-1.22zm1.04-5.6c-.34.59-.51 1.37-.51 2.34s.17 1.75.51 2.34.88.89 1.6.89c.73 0 1.26-.29 1.59-.89.33-.59.5-1.37.5-2.35 0-.97-.17-1.76-.5-2.35s-.86-.89-1.59-.89c-.72.02-1.25.32-1.6.91z"/><path d="M651.83 371.106h3.16v8.71h-1.4v-7.4h-1.77v-1.31z" class="AB"/><path d="M665.45 371.106h3.16v8.71h-1.4v-7.4h-1.77z" class="p"/><path d="M679.06 371.087h3.18v8.76h-1.4v-7.44h-1.78z" class="N"/><path d="M692.67 371.057h3.2v8.81h-1.41v-7.49h-1.79z" class="i"/><path d="M705.18 378.747c-.6-.83-.9-1.95-.9-3.34s.3-2.51.9-3.34 1.5-1.25 2.71-1.25 2.11.42 2.71 1.25.9 1.95.9 3.34-.3 2.51-.9 3.34-1.51 1.25-2.71 1.25c-1.21 0-2.11-.41-2.71-1.25zm1.07-5.74c-.35.61-.53 1.41-.53 2.4s.18 1.79.53 2.4.9.91 1.64.91 1.29-.3 1.63-.91c.34-.6.51-1.41.51-2.4 0-1-.17-1.8-.51-2.4s-.89-.91-1.63-.91-1.29.3-1.64.91z" class="a"/><path d="M719.9 371.026h3.22v8.87h-1.42v-7.53h-1.8z" class="p"/><path d="M733.51 371.007h3.24v8.92h-1.43v-7.581h-1.81z" opacity=".49"/><path d="M597.42 384.948h3.01v8.28h-1.33v-7.04h-1.68z" class="S"/><path d="M609.96 392.217c-.57-.79-.86-1.85-.86-3.18s.29-2.39.86-3.18 1.43-1.19 2.58-1.19 2.01.4 2.58 1.19.86 1.85.86 3.18-.29 2.39-.86 3.18-1.43 1.19-2.58 1.19c-1.15-.01-2.01-.4-2.58-1.19zm1.02-5.47c-.33.58-.5 1.34-.5 2.28s.17 1.7.5 2.28.85.87 1.56.87 1.23-.29 1.55-.86c.33-.58.49-1.34.49-2.29s-.16-1.71-.49-2.29-.84-.86-1.55-.86c-.7 0-1.22.29-1.56.87z" opacity=".67"/><path d="M623.57 392.228c-.58-.8-.86-1.87-.86-3.2 0-1.34.29-2.4.86-3.2s1.44-1.2 2.6-1.2 2.03.4 2.6 1.2c.58.8.86 1.87.86 3.2 0 1.34-.29 2.4-.86 3.2s-1.44 1.2-2.6 1.2-2.03-.4-2.6-1.2zm1.02-5.49c-.34.58-.5 1.35-.5 2.3s.17 1.71.5 2.3c.34.58.86.87 1.57.87s1.23-.29 1.56-.87.49-1.35.49-2.3c0-.96-.16-1.72-.49-2.3s-.85-.87-1.56-.87c-.71-.01-1.23.28-1.57.87z" class="c"/><path d="M637.16 392.267c-.58-.81-.87-1.89-.87-3.24s.29-2.43.87-3.24 1.46-1.21 2.63-1.21 2.05.4 2.63 1.21.87 1.89.87 3.24-.29 2.43-.87 3.24-1.46 1.21-2.63 1.21c-1.18.01-2.05-.4-2.63-1.21zm1.03-5.56c-.34.59-.51 1.37-.51 2.33s.17 1.73.51 2.33c.34.59.87.89 1.59.89s1.25-.29 1.58-.88.5-1.36.5-2.33-.17-1.74-.5-2.33-.86-.88-1.58-.88c-.71-.02-1.25.28-1.59.87z" class="J"/><path d="M650.74 392.306c-.59-.82-.88-1.91-.88-3.28s.29-2.46.88-3.28 1.48-1.23 2.67-1.23 2.08.41 2.67 1.23.88 1.91.88 3.28-.29 2.46-.88 3.28-1.48 1.23-2.67 1.23-2.08-.41-2.67-1.23zm1.06-5.63c-.34.6-.52 1.38-.52 2.35s.17 1.76.52 2.35c.34.6.88.9 1.61.9s1.26-.3 1.6-.89.5-1.38.5-2.36-.17-1.77-.5-2.36c-.34-.59-.87-.89-1.6-.89s-1.27.3-1.61.9z" class="D"/><use xlink:href="#I" y="27.24" opacity=".31"/><path d="M677.97 392.327c-.59-.82-.89-1.92-.89-3.3s.3-2.48.89-3.3 1.49-1.23 2.68-1.23 2.09.41 2.68 1.23.89 1.92.89 3.3-.3 2.48-.89 3.3-1.49 1.23-2.68 1.23c-1.19.01-2.09-.4-2.68-1.23zm1.06-5.67c-.35.6-.52 1.39-.52 2.37s.17 1.77.52 2.37.89.9 1.62.9c.74 0 1.27-.3 1.61-.9s.51-1.39.51-2.37c0-.99-.17-1.78-.51-2.37-.34-.6-.87-.9-1.61-.9-.73 0-1.28.3-1.62.9z" class="h"/><path d="M692.67 384.676h3.2v8.81h-1.41v-7.49h-1.79z" class="K"/><path d="M706.28 384.647h3.22v8.87h-1.42v-7.53h-1.8z" class="y"/><path d="M718.78 392.387c-.6-.84-.91-1.96-.91-3.36s.3-2.52.91-3.36c.6-.84 1.51-1.26 2.73-1.26s2.13.42 2.73 1.26.91 1.96.91 3.36-.3 2.52-.91 3.36c-.6.84-1.51 1.26-2.73 1.26-1.21 0-2.12-.42-2.73-1.26zm1.08-5.77c-.35.61-.53 1.42-.53 2.41 0 1 .18 1.8.53 2.41s.9.92 1.65.92 1.3-.3 1.64-.91.52-1.41.52-2.42c0-1-.17-1.81-.52-2.42-.34-.61-.89-.91-1.64-.91s-1.3.31-1.65.92z" class="o"/><path d="M733.51 384.628h3.24v8.92h-1.43v-7.58h-1.81z" class="L"/><path d="M597.43 398.596h2.99v8.23h-1.32v-6.99h-1.67z" class="I"/><path d="M609.98 405.817c-.57-.79-.85-1.84-.85-3.16s.28-2.37.85-3.16 1.42-1.18 2.57-1.18c1.14 0 2 .39 2.57 1.18s.85 1.84.85 3.16-.28 2.37-.85 3.16-1.42 1.18-2.57 1.18-2-.4-2.57-1.18zm1.01-5.43c-.33.58-.5 1.33-.5 2.27s.17 1.69.5 2.27.85.86 1.55.86 1.22-.29 1.54-.86.49-1.33.49-2.27-.16-1.7-.49-2.27c-.32-.57-.84-.86-1.54-.86-.7-.01-1.22.28-1.55.86z" class="AF"/><path d="M624.62 398.458h3.09v8.49h-1.36v-7.22h-1.72v-1.27z" class="p"/><path d="M637.17 405.877c-.58-.8-.87-1.88-.87-3.22s.29-2.42.87-3.22 1.45-1.2 2.62-1.2 2.04.4 2.62 1.2.87 1.88.87 3.22-.29 2.42-.87 3.22-1.45 1.2-2.62 1.2-2.04-.4-2.62-1.2zm1.03-5.54c-.34.59-.51 1.36-.51 2.31s.17 1.72.51 2.31.87.88 1.58.88c.72 0 1.24-.29 1.57-.87s.5-1.35.5-2.32c0-.96-.16-1.73-.5-2.32-.33-.58-.85-.87-1.57-.87-.71 0-1.24.3-1.58.88zm12.56 5.579c-.59-.81-.88-1.9-.88-3.26s.29-2.45.88-3.26 1.47-1.22 2.65-1.22 2.06.41 2.65 1.22.88 1.9.88 3.26-.29 2.45-.88 3.26-1.47 1.22-2.65 1.22c-1.18-.01-2.06-.41-2.65-1.22zm1.05-5.61c-.34.59-.51 1.37-.51 2.34s.17 1.75.51 2.34.88.89 1.6.89c.73 0 1.26-.29 1.59-.89.33-.59.5-1.37.5-2.35 0-.97-.17-1.76-.5-2.35s-.86-.89-1.59-.89c-.73.02-1.26.32-1.6.91z" class="O"/><path d="M664.36 405.937c-.59-.82-.88-1.91-.88-3.28s.29-2.46.88-3.28 1.48-1.23 2.67-1.23 2.08.41 2.67 1.23.88 1.91.88 3.28-.29 2.46-.88 3.28-1.48 1.23-2.67 1.23c-1.19-.01-2.08-.42-2.67-1.23zm1.06-5.64c-.35.6-.52 1.38-.52 2.35s.17 1.76.52 2.35c.34.6.88.9 1.61.9s1.26-.3 1.6-.89.5-1.38.5-2.36-.17-1.77-.5-2.36c-.34-.59-.87-.89-1.6-.89s-1.27.3-1.61.9z" class="F"/><path d="M679.07 398.356h3.16v8.71h-1.4v-7.4h-1.77z" class="W"/><path d="M691.57 405.967c-.6-.83-.9-1.94-.9-3.32 0-1.39.3-2.49.9-3.32s1.5-1.24 2.7-1.24 2.1.41 2.7 1.24.9 1.94.9 3.32c0 1.39-.3 2.49-.9 3.32s-1.5 1.24-2.7 1.24c-1.2.01-2.1-.41-2.7-1.24zm1.07-5.7c-.35.61-.52 1.4-.52 2.38s.17 1.78.52 2.38c.35.61.89.91 1.63.91s1.28-.3 1.62-.9.51-1.4.51-2.39-.17-1.79-.51-2.39-.88-.9-1.62-.9-1.28.3-1.63.91z" opacity=".79"/><path d="M706.29 398.298h3.2v8.81h-1.41v-7.49h-1.79z" class="AB"/><path d="M718.8 405.987c-.6-.83-.9-1.95-.9-3.34s.3-2.51.9-3.34 1.5-1.25 2.71-1.25 2.11.42 2.71 1.25.9 1.95.9 3.34-.3 2.51-.9 3.34-1.51 1.25-2.71 1.25-2.11-.41-2.71-1.25zm1.07-5.74c-.35.61-.53 1.41-.53 2.4s.18 1.79.53 2.4.9.91 1.64.91 1.29-.3 1.63-.91c.34-.6.51-1.41.51-2.4 0-1-.17-1.8-.51-2.4s-.89-.91-1.63-.91-1.29.31-1.64.91z" class="x"/><path d="M733.51 398.247h3.24v8.92h-1.43v-7.58h-1.81z" class="d"/><path d="M596.44 419.337c-.55-.76-.82-1.78-.82-3.06s.27-2.3.82-3.06 1.38-1.14 2.49-1.14 1.94.38 2.49 1.14.82 1.78.82 3.06-.27 2.3-.82 3.06-1.38 1.14-2.49 1.14-1.94-.38-2.49-1.14zm.98-5.26c-.32.56-.48 1.29-.48 2.2s.16 1.64.48 2.2.82.84 1.5.84 1.18-.28 1.49-.83.47-1.29.47-2.2-.16-1.65-.47-2.2-.81-.83-1.49-.83c-.68-.01-1.18.27-1.5.82z" class="AG"/><path d="M610.03 419.376c-.56-.77-.84-1.81-.84-3.1s.28-2.33.84-3.1 1.4-1.16 2.52-1.16 1.96.39 2.52 1.16.84 1.81.84 3.1-.28 2.33-.84 3.1-1.4 1.16-2.52 1.16c-1.13 0-1.97-.39-2.52-1.16zm.99-5.33c-.33.57-.49 1.31-.49 2.22 0 .92.16 1.66.49 2.22.33.57.83.85 1.52.85s1.19-.28 1.51-.84.48-1.3.48-2.23-.16-1.67-.48-2.23-.82-.84-1.51-.84c-.68.01-1.19.29-1.52.85z" opacity=".54"/><path d="M624.64 412.137h3.05v8.39h-1.34v-7.13h-1.7z" opacity=".59"/><path d="M637.19 419.478c-.58-.8-.86-1.87-.86-3.2s.29-2.4.86-3.2 1.44-1.2 2.6-1.2 2.03.4 2.6 1.2c.58.8.86 1.87.86 3.2s-.29 2.4-.86 3.2-1.44 1.2-2.6 1.2c-1.16-.01-2.03-.41-2.6-1.2zm1.02-5.5c-.34.58-.5 1.35-.5 2.3s.17 1.71.5 2.3c.34.58.86.87 1.57.87s1.23-.29 1.56-.87.49-1.35.49-2.3c0-.96-.16-1.72-.49-2.3s-.85-.87-1.56-.87c-.7-.01-1.23.29-1.57.87z" class="P"/><use xlink:href="#C" x="-54.48" y="108.97" class="x"/><path d="M664.38 419.538c-.59-.81-.88-1.9-.88-3.26s.29-2.45.88-3.26 1.47-1.22 2.65-1.22 2.06.41 2.65 1.22.88 1.9.88 3.26-.29 2.45-.88 3.26-1.47 1.22-2.65 1.22-2.06-.41-2.65-1.22zm1.05-5.61c-.34.59-.51 1.37-.51 2.34s.17 1.75.51 2.34.88.89 1.6.89c.73 0 1.26-.29 1.59-.89.33-.59.5-1.37.5-2.35 0-.97-.17-1.76-.5-2.35s-.86-.89-1.59-.89c-.73.02-1.26.32-1.6.91z" class="Q"/><path d="M679.07 411.977h3.16v8.71h-1.4v-7.4h-1.77z" class="b"/><path d="M692.69 411.977h3.16v8.71h-1.4v-7.4h-1.77v-1.31z" class="o"/><path d="M706.3 411.948h3.18v8.76h-1.4v-7.44h-1.78z" class="J"/><path d="M719.91 411.917h3.2v8.81h-1.41v-7.49h-1.79z" class="l"/><path d="M733.52 411.897h3.22v8.87h-1.42v-7.53h-1.8z" opacity=".55"/><path d="M596.5 432.877c-.54-.74-.8-1.74-.8-2.98s.27-2.24.8-2.98c.54-.74 1.34-1.11 2.42-1.11s1.88.37 2.42 1.11.8 1.74.8 2.98-.27 2.24-.8 2.98c-.54.74-1.34 1.11-2.42 1.11-1.07 0-1.88-.37-2.42-1.11zm.96-5.12c-.31.54-.47 1.26-.47 2.14s.16 1.59.47 2.14c.31.54.8.81 1.46.81s1.15-.27 1.45-.81c.31-.54.46-1.25.46-2.14s-.15-1.6-.46-2.14-.79-.81-1.45-.81-1.15.27-1.46.81z" class="v"/><path d="M611.08 425.917h2.93v8.07h-1.29v-6.85h-1.64z" class="J"/><path d="M623.65 432.997c-.56-.77-.84-1.81-.84-3.1s.28-2.33.84-3.1 1.4-1.16 2.52-1.16 1.96.39 2.52 1.16.84 1.81.84 3.1-.28 2.33-.84 3.1-1.4 1.16-2.52 1.16c-1.13 0-1.96-.39-2.52-1.16zm.99-5.33c-.33.57-.49 1.31-.49 2.22 0 .92.16 1.66.49 2.22.33.57.83.85 1.52.85s1.19-.28 1.51-.84.48-1.3.48-2.23-.16-1.67-.48-2.23-.82-.84-1.51-.84c-.68.01-1.19.29-1.52.85z" class="K"/><path d="M638.27 425.776h3.03v8.33h-1.34v-7.08h-1.69z" class="H"/><path d="M651.88 425.727h3.07v8.44h-1.35v-7.17h-1.71z" class="i"/><path d="M665.49 425.698h3.09v8.49h-1.36v-7.22h-1.72v-1.27z" class="X"/><path d="M678.02 433.138c-.58-.81-.87-1.89-.87-3.24s.29-2.43.87-3.24 1.46-1.21 2.63-1.21 2.05.4 2.63 1.21.87 1.89.87 3.24-.29 2.43-.87 3.24-1.46 1.21-2.63 1.21-2.05-.4-2.63-1.21zm1.04-5.57c-.34.59-.51 1.37-.51 2.33s.17 1.73.51 2.33c.34.59.87.89 1.59.89s1.25-.29 1.58-.88.5-1.36.5-2.33-.17-1.74-.5-2.33-.86-.88-1.58-.88c-.72-.02-1.25.28-1.59.87z" opacity=".74"/><path d="M692.7 425.618h3.14v8.65h-1.39v-7.35h-1.76z" class="y"/><path d="M705.23 433.177c-.59-.82-.88-1.91-.88-3.28s.29-2.46.88-3.28 1.48-1.23 2.67-1.23 2.08.41 2.67 1.23.88 1.91.88 3.28-.29 2.46-.88 3.28-1.48 1.23-2.67 1.23c-1.19-.01-2.08-.41-2.67-1.23zm1.05-5.64c-.35.6-.52 1.38-.52 2.35s.17 1.76.52 2.35c.34.6.88.9 1.61.9s1.26-.3 1.6-.89.5-1.38.5-2.36-.17-1.77-.5-2.36c-.34-.59-.87-.89-1.6-.89s-1.27.3-1.61.9z" class="AA"/><use xlink:href="#K" class="AF"/><use xlink:href="#K" x="13.62" class="y"/><path d="M597.53 439.727h2.79v7.69h-1.23v-6.54h-1.56z" class="T"/><path d="M610.14 446.478c-.53-.74-.8-1.72-.8-2.96s.27-2.22.8-2.96 1.33-1.11 2.4-1.11 1.87.37 2.4 1.11.8 1.72.8 2.96-.27 2.22-.8 2.96-1.33 1.11-2.4 1.11-1.87-.37-2.4-1.11zm.95-5.08c-.31.54-.47 1.25-.47 2.12s.15 1.58.47 2.12c.31.54.8.81 1.45.81.66 0 1.14-.27 1.44-.8.3-.54.45-1.24.45-2.13 0-.88-.15-1.59-.45-2.13s-.78-.8-1.44-.8c-.65 0-1.14.27-1.45.81z" class="V"/><path d="M624.7 439.538h2.93v8.07h-1.29v-6.85h-1.64z" class="g"/><path d="M637.29 446.598c-.55-.77-.83-1.8-.83-3.08s.28-2.31.83-3.08 1.39-1.15 2.5-1.15 1.95.38 2.5 1.15.83 1.8.83 3.08-.28 2.31-.83 3.08-1.39 1.15-2.5 1.15c-1.12 0-1.95-.38-2.5-1.15zm.98-5.29c-.32.56-.49 1.3-.49 2.21s.16 1.65.49 2.21c.32.56.83.84 1.51.84.69 0 1.19-.28 1.5-.84.32-.56.47-1.3.47-2.22s-.16-1.66-.47-2.22c-.32-.56-.82-.84-1.5-.84-.68.02-1.18.3-1.51.86z" class="b"/><path d="M651.9 439.426h3.01v8.28h-1.33v-7.04h-1.68z" opacity=".78"/><use xlink:href="#B" x="-27.24" y="149.83" class="Q"/><path d="M679.12 439.346h3.07v8.44h-1.35v-7.17h-1.71v-1.27z" class="h"/><path d="M692.73 439.327h3.09v8.49h-1.36v-7.22h-1.72v-1.27z" opacity=".74"/><use xlink:href="#C" y="136.211" class="j"/><path d="M719.94 439.247h3.14v8.65h-1.39v-7.35h-1.76v-1.3z" class="S"/><path d="M732.49 446.778c-.59-.81-.88-1.9-.88-3.26s.29-2.45.88-3.26 1.47-1.22 2.65-1.22 2.06.41 2.65 1.22.88 1.9.88 3.26-.29 2.45-.88 3.26-1.47 1.22-2.65 1.22c-1.19 0-2.07-.41-2.65-1.22zm1.04-5.6c-.34.59-.51 1.37-.51 2.34s.17 1.75.51 2.34.88.89 1.6.89c.73 0 1.26-.29 1.59-.89.33-.59.5-1.37.5-2.35 0-.97-.17-1.76-.5-2.35s-.86-.89-1.59-.89c-.72.02-1.26.31-1.6.91z" opacity=".77"/><path d="M597.59 453.507h2.68v7.37h-1.18v-6.26h-1.5z" class="Z"/><path d="M610.22 459.998c-.51-.71-.77-1.67-.77-2.86s.26-2.15.77-2.86 1.29-1.07 2.32-1.07 1.81.36 2.32 1.07.77 1.67.77 2.86-.26 2.15-.77 2.86-1.29 1.07-2.32 1.07-1.8-.35-2.32-1.07zm.92-4.91c-.3.52-.45 1.2-.45 2.05s.15 1.53.45 2.05.77.78 1.41.78 1.1-.26 1.39-.78.44-1.2.44-2.06c0-.85-.15-1.54-.44-2.06s-.76-.78-1.39-.78c-.64.02-1.11.28-1.41.8z" class="a"/><path d="M623.8 460.058c-.52-.73-.79-1.7-.79-2.92s.26-2.19.79-2.92c.52-.73 1.31-1.09 2.37-1.09s1.85.36 2.37 1.09.79 1.7.79 2.92-.26 2.19-.79 2.92c-.52.73-1.31 1.09-2.37 1.09s-1.85-.36-2.37-1.09zm.93-5.01c-.31.53-.46 1.23-.46 2.09s.15 1.56.46 2.09.78.8 1.43.8 1.12-.26 1.42-.79.45-1.23.45-2.1-.15-1.57-.45-2.1-.77-.79-1.42-.79c-.64 0-1.12.27-1.43.8z" class="AA"/><path d="M637.37 460.118c-.54-.74-.8-1.74-.8-2.98s.27-2.24.8-2.98c.54-.74 1.34-1.11 2.42-1.11s1.89.37 2.42 1.11c.54.74.8 1.74.8 2.98s-.27 2.24-.8 2.98c-.54.74-1.34 1.11-2.42 1.11-1.08.01-1.89-.36-2.42-1.11zm.95-5.12c-.31.54-.47 1.26-.47 2.14s.16 1.59.47 2.14c.31.54.8.81 1.46.81s1.15-.27 1.45-.81c.31-.54.46-1.25.46-2.14s-.15-1.6-.46-2.14-.79-.81-1.45-.81-1.14.27-1.46.81z" class="AB"/><path d="M651.94 453.157h2.93v8.07h-1.29v-6.85h-1.64z" class="f"/><path d="M665.55 453.128h2.95v8.12h-1.3v-6.9h-1.65z" class="t"/><path d="M678.13 460.238c-.56-.77-.84-1.81-.84-3.1s.28-2.33.84-3.1 1.4-1.16 2.52-1.16 1.96.39 2.52 1.16.84 1.81.84 3.1-.28 2.33-.84 3.1-1.4 1.16-2.52 1.16-1.96-.39-2.52-1.16zm1-5.32c-.33.57-.49 1.31-.49 2.22 0 .92.16 1.66.49 2.22.33.57.83.85 1.52.85s1.19-.28 1.51-.84.48-1.3.48-2.23-.16-1.67-.48-2.23-.82-.84-1.51-.84-1.2.28-1.52.85z" class="Q"/><path d="M691.72 460.277c-.56-.78-.85-1.83-.85-3.14s.28-2.36.85-3.14c.56-.78 1.41-1.17 2.55-1.17s1.99.39 2.55 1.17.85 1.83.85 3.14-.28 2.36-.85 3.14c-.56.78-1.41 1.17-2.55 1.17-1.13 0-1.98-.39-2.55-1.17zm1.01-5.39c-.33.57-.49 1.32-.49 2.25s.16 1.68.49 2.25.84.86 1.54.86 1.21-.28 1.53-.85.48-1.32.48-2.26-.16-1.69-.48-2.26-.83-.85-1.53-.85-1.21.28-1.54.86z" class="G"/><path d="M706.37 452.997h3.05v8.39h-1.34v-7.13h-1.7z" class="O"/><path d="M718.93 460.316c-.57-.79-.86-1.85-.86-3.18s.29-2.39.86-3.18 1.43-1.19 2.58-1.19 2.01.4 2.58 1.19.86 1.85.86 3.18-.29 2.39-.86 3.18-1.43 1.19-2.58 1.19-2.01-.4-2.58-1.19zm1.02-5.46c-.33.58-.5 1.34-.5 2.28s.17 1.7.5 2.28.85.87 1.56.87 1.23-.29 1.55-.86c.33-.58.49-1.34.49-2.29s-.16-1.71-.49-2.29-.84-.86-1.55-.86c-.7 0-1.23.29-1.56.87z" class="F"/><path d="M732.52 460.357c-.58-.8-.87-1.879-.87-3.219s.29-2.421.87-3.221 1.45-1.2 2.62-1.2 2.04.4 2.62 1.2.87 1.881.87 3.221-.29 2.419-.87 3.219-1.45 1.2-2.62 1.2-2.04-.4-2.62-1.2zm1.03-5.529c-.34.59-.51 1.36-.51 2.31s.17 1.72.51 2.31.87.88 1.58.88c.72 0 1.24-.291 1.57-.871s.49-1.349.49-2.319c0-.96-.16-1.73-.49-2.32-.33-.58-.85-.87-1.57-.87-.71 0-1.24.29-1.58.88z" class="q"/><path d="M596.8 473.387c-.47-.65-.71-1.53-.71-2.62s.23-1.97.71-2.62c.47-.65 1.18-.98 2.13-.98s1.66.33 2.13.98.71 1.53.71 2.62-.23 1.97-.71 2.62c-.47.65-1.18.98-2.13.98s-1.66-.33-2.13-.98zm.84-4.5c-.28.48-.41 1.1-.41 1.88s.14 1.4.41 1.88.7.72 1.29.72c.58 0 1.01-.24 1.28-.71s.4-1.1.4-1.88-.13-1.41-.4-1.88-.69-.71-1.28-.71c-.59-.01-1.02.23-1.29.7z" class="L"/><path d="M610.34 473.486c-.49-.68-.73-1.58-.73-2.72s.24-2.04.73-2.72 1.22-1.02 2.21-1.02c.98 0 1.72.34 2.21 1.02s.73 1.58.73 2.72-.24 2.04-.73 2.72-1.22 1.02-2.21 1.02c-.99-.01-1.72-.35-2.21-1.02zm.87-4.67c-.29.5-.43 1.15-.43 1.95s.14 1.45.43 1.95.73.74 1.34.74 1.05-.25 1.33-.74.42-1.14.42-1.95-.14-1.46-.42-1.95-.72-.74-1.33-.74-1.05.24-1.34.74z" class="F"/><path d="M623.89 473.567c-.5-.7-.75-1.63-.75-2.8s.25-2.1.75-2.8 1.26-1.05 2.27-1.05 1.77.35 2.27 1.05.75 1.63.75 2.8-.25 2.1-.75 2.8-1.26 1.05-2.27 1.05c-1.01-.01-1.76-.36-2.27-1.05zm.9-4.81c-.29.51-.44 1.18-.44 2.01s.15 1.5.44 2.01.75.76 1.38.76c.62 0 1.08-.25 1.37-.76s.43-1.18.43-2.01c0-.84-.14-1.51-.43-2.01-.29-.51-.74-.76-1.37-.76-.63-.01-1.08.25-1.38.76z" class="AC"/><path d="M638.41 467.016h2.76v7.58h-1.22v-6.45h-1.54z" class="AE"/><path d="M652 466.936h2.81v7.75h-1.24v-6.58H652z" class="n"/><path d="M665.6 466.887h2.85v7.85h-1.26v-6.67h-1.59z" class="AG"/><path d="M679.2 466.827h2.89v7.96h-1.28v-6.76h-1.62z" class="a"/><path d="M692.81 466.776h2.93v8.07h-1.29v-6.85h-1.64z" class="Y"/><path d="M706.42 466.747h2.95v8.12h-1.3v-6.9h-1.65z" class="q"/><path d="M719 473.857c-.56-.77-.84-1.81-.84-3.1s.28-2.33.84-3.1 1.4-1.16 2.52-1.16 1.96.39 2.52 1.16.84 1.81.84 3.1-.28 2.33-.84 3.1-1.4 1.16-2.52 1.16c-1.13 0-1.97-.39-2.52-1.16zm.99-5.32c-.33.57-.49 1.31-.49 2.22 0 .92.16 1.66.49 2.22.33.57.83.85 1.52.85s1.19-.28 1.51-.84.48-1.3.48-2.23-.16-1.67-.48-2.23-.82-.84-1.51-.84-1.19.28-1.52.85z" opacity=".35"/><path d="M732.6 473.878c-.56-.78-.84-1.82-.84-3.12s.28-2.34.84-3.12 1.41-1.171 2.53-1.171c1.13 0 1.97.391 2.53 1.171s.84 1.82.84 3.12-.28 2.34-.84 3.12-1.41 1.169-2.53 1.169-1.97-.389-2.53-1.169zm1-5.36c-.33.57-.49 1.31-.49 2.24s.16 1.669.49 2.239.84.85 1.53.85c.7 0 1.2-.28 1.52-.85.32-.56.48-1.309.48-2.239s-.16-1.68-.48-2.24-.83-.851-1.52-.851-1.2.281-1.53.851z" class="P"/><path d="M596.93 486.846c-.44-.61-.66-1.429-.66-2.459s.22-1.84.66-2.46c.44-.61 1.11-.92 2-.92s1.55.31 1.99.92.66 1.43.66 2.46-.22 1.839-.66 2.459c-.44.61-1.11.921-1.99.921-.89 0-1.56-.311-2-.921zm.79-4.219c-.26.45-.39 1.03-.39 1.76s.13 1.309.39 1.759.66.671 1.21.671.95-.221 1.2-.671c.25-.44.38-1.029.38-1.769 0-.73-.13-1.32-.38-1.77-.25-.44-.65-.67-1.2-.67-.55.02-.95.24-1.21.69z" class="L"/><path d="M611.32 481.067h2.45v6.73h-1.08v-5.72h-1.37z" class="W"/><path d="M624.02 487.026c-.47-.66-.71-1.539-.71-2.639s.24-1.98.71-2.64 1.19-.99 2.14-.99 1.67.33 2.14.99.71 1.54.71 2.64-.24 1.979-.71 2.639-1.19.991-2.14.991c-.95-.01-1.66-.331-2.14-.991zm.85-4.529c-.28.48-.42 1.11-.42 1.89s.14 1.409.42 1.889.71.721 1.3.721 1.02-.241 1.29-.721.41-1.109.41-1.899-.13-1.42-.41-1.9c-.27-.48-.7-.72-1.29-.72-.59.02-1.02.26-1.3.74z" class="T"/><path d="M638.48 480.827h2.62v7.21h-1.16v-6.13h-1.46z" class="AF"/><path d="M652.07 480.747h2.68v7.37h-1.18v-6.26h-1.5z" class="d"/><path d="M665.67 480.698h2.72v7.48h-1.2v-6.35h-1.52z" opacity=".6"/><path d="M678.31 487.266c-.52-.72-.78-1.68-.78-2.88s.26-2.16.78-2.88 1.3-1.08 2.34-1.08 1.82.36 2.34 1.08.78 1.68.78 2.88-.26 2.16-.78 2.88-1.3 1.08-2.34 1.08c-1.04-.01-1.82-.37-2.34-1.08zm.93-4.95c-.3.52-.45 1.21-.45 2.07 0 .85.15 1.54.45 2.07.3.52.77.79 1.41.79s1.11-.26 1.4-.78c.3-.52.44-1.21.44-2.07s-.15-1.55-.44-2.07-.76-.78-1.4-.78c-.64-.02-1.11.25-1.41.77z" class="X"/><path d="M692.86 480.557h2.81v7.75h-1.24v-6.58h-1.57z" class="w"/><path d="M706.48 480.538h2.83v7.8h-1.25v-6.63h-1.58z" class="G"/><path d="M720.08 480.477h2.87v7.91h-1.27v-6.72h-1.61v-1.19z" opacity=".94"/><path d="M733.68 480.426h2.91v8.01h-1.28v-6.81h-1.63z" class="U"/><path d="M597.84 495.057h2.17v5.98h-.96v-5.08h-1.21z" class="Z"/><path d="M610.63 500.366c-.42-.59-.63-1.37-.63-2.36 0-.98.21-1.77.63-2.36s1.06-.88 1.91-.88 1.49.29 1.91.88.63 1.37.63 2.36c0 .98-.21 1.77-.63 2.36s-1.06.88-1.91.88-1.48-.29-1.91-.88zm.76-4.04c-.25.43-.37.99-.37 1.69s.12 1.26.37 1.69.63.64 1.16.64c.52 0 .91-.21 1.15-.64s.36-.99.36-1.69-.12-1.27-.36-1.69c-.24-.43-.62-.64-1.15-.64-.53-.01-.91.21-1.16.64z" class="l"/><path d="M624.99 494.817h2.35v6.46h-1.04v-5.49h-1.31z" opacity=".51"/><path d="M638.57 494.717H641v6.68h-1.07v-5.67h-1.36z" class="L"/><path d="M651.3 500.606c-.47-.65-.7-1.51-.7-2.6s.23-1.95.7-2.6 1.17-.97 2.11-.97 1.64.32 2.11.97.7 1.51.7 2.6-.23 1.95-.7 2.6-1.17.97-2.11.97-1.64-.32-2.11-.97zm.83-4.46c-.27.47-.41 1.09-.41 1.86s.14 1.39.41 1.86.7.71 1.28.71 1-.23 1.27-.7.4-1.09.4-1.87-.13-1.4-.4-1.87-.69-.7-1.27-.7-1.01.24-1.28.71z" class="o"/><path d="M665.75 494.526h2.56v7.05h-1.13v-5.99h-1.43z" class="AG"/><path d="M678.46 500.708c-.49-.67-.73-1.57-.73-2.7s.24-2.03.73-2.7c.48-.67 1.21-1.01 2.19-1.01s1.71.34 2.19 1.01.73 1.57.73 2.7-.24 2.03-.73 2.7c-.48.67-1.21 1.01-2.19 1.01s-1.71-.34-2.19-1.01zm.86-4.64c-.28.49-.42 1.14-.42 1.94s.14 1.44.42 1.94c.28.49.73.74 1.33.74s1.04-.24 1.32-.73.41-1.13.41-1.94-.14-1.45-.41-1.94c-.28-.49-.72-.73-1.32-.73-.6-.01-1.04.23-1.33.72z" class="q"/><path d="M692.94 494.397h2.66v7.32h-1.17v-6.22h-1.49z" class="Y"/><path d="M706.54 494.337h2.7v7.42h-1.19v-6.31h-1.51z" class="z"/><path d="M719.21 500.846c-.51-.71-.76-1.65-.76-2.84s.25-2.13.76-2.84 1.28-1.06 2.31-1.06 1.8.35 2.31 1.06.77 1.65.77 2.84-.25 2.13-.77 2.84c-.51.71-1.28 1.06-2.31 1.06s-1.8-.36-2.31-1.06zm.91-4.88c-.3.52-.45 1.2-.45 2.04s.15 1.52.45 2.04.76.78 1.39.78 1.09-.26 1.38-.77.44-1.19.44-2.04-.15-1.53-.44-2.04-.75-.77-1.38-.77c-.63-.01-1.09.24-1.39.76z" class="b"/><path d="M732.81 500.867c-.51-.71-.77-1.67-.77-2.86s.26-2.15.77-2.86 1.29-1.07 2.32-1.07 1.81.36 2.32 1.07.77 1.67.77 2.86-.26 2.15-.77 2.86-1.29 1.07-2.32 1.07-1.8-.36-2.32-1.07zm.92-4.91c-.3.52-.45 1.2-.45 2.05s.15 1.53.45 2.05.77.78 1.4.78c.64 0 1.1-.26 1.39-.78s.44-1.2.44-2.06c0-.85-.15-1.54-.44-2.06s-.76-.78-1.39-.78c-.63.02-1.1.28-1.4.8z" class="H"/><path d="M597.95 509.007h1.94v5.339h-.86v-4.539h-1.08z" class="f"/><path d="M610.81 513.777c-.38-.53-.58-1.24-.58-2.13s.19-1.599.58-2.129c.38-.53.96-.801 1.73-.801s1.35.271 1.73.801.58 1.239.58 2.129-.19 1.6-.58 2.13c-.38.53-.96.801-1.73.801-.77-.01-1.34-.271-1.73-.801zm.69-3.67c-.22.39-.34.901-.34 1.531s.11 1.139.34 1.529c.22.39.57.58 1.05.58s.82-.19 1.04-.58.33-.899.33-1.539-.11-1.151-.33-1.531c-.22-.39-.57-.579-1.04-.579-.48.01-.83.199-1.05.589z" class="F"/><path d="M624.35 513.868c-.4-.56-.6-1.3-.6-2.24 0-.93.2-1.68.6-2.24s1.01-.84 1.82-.84 1.41.28 1.82.84c.4.56.6 1.3.6 2.24 0 .93-.2 1.68-.6 2.24s-1.01.84-1.82.84-1.42-.28-1.82-.84zm.72-3.83c-.23.41-.35.94-.35 1.6s.12 1.2.35 1.6c.23.41.6.61 1.1.61s.86-.2 1.09-.61c.23-.4.34-.94.34-1.61s-.11-1.2-.34-1.61c-.23-.4-.59-.61-1.09-.61-.5.02-.87.22-1.1.63z" class="q"/><path d="M637.91 513.946c-.42-.58-.62-1.35-.62-2.32s.21-1.74.62-2.32c.42-.58 1.04-.87 1.88-.87s1.46.29 1.88.87.62 1.35.62 2.32-.21 1.74-.62 2.32c-.42.58-1.04.87-1.88.87s-1.47-.29-1.88-.87zm.74-3.97c-.24.42-.36.98-.36 1.66 0 .69.12 1.24.36 1.66s.62.63 1.14.63.89-.21 1.13-.63.36-.97.36-1.67c0-.69-.12-1.25-.36-1.67s-.61-.63-1.13-.63c-.52.01-.9.22-1.14.65z" class="AC"/><path d="M651.48 514.006c-.43-.59-.64-1.38-.64-2.38 0-.99.21-1.78.64-2.38.43-.59 1.07-.89 1.93-.89s1.5.3 1.93.89.64 1.38.64 2.38c0 .99-.21 1.78-.64 2.38-.43.59-1.07.89-1.93.89s-1.5-.3-1.93-.89zm.76-4.08c-.25.43-.37 1-.37 1.7s.12 1.27.37 1.7.64.65 1.17.65.92-.21 1.16-.64.36-1 .36-1.71-.12-1.28-.36-1.71-.63-.64-1.16-.64-.92.22-1.17.65z" opacity=".92"/><path d="M665.85 508.417h2.37v6.52h-1.04v-5.54h-1.32v-.98z" class="Y"/><path d="M679.45 508.368h2.41v6.62h-1.06v-5.63h-1.35z" class="O"/><path d="M692.2 514.186c-.46-.64-.69-1.49-.69-2.56s.23-1.92.69-2.56 1.15-.96 2.08-.96 1.62.32 2.08.96.69 1.49.69 2.56-.23 1.92-.69 2.56-1.15.96-2.08.96-1.63-.32-2.08-.96zm.82-4.39c-.27.47-.4 1.08-.4 1.83 0 .76.13 1.37.4 1.83.27.47.69.7 1.26.7s.99-.23 1.25-.69.39-1.08.39-1.84-.13-1.38-.39-1.84-.68-.69-1.25-.69-1 .23-1.26.7z" class="AE"/><path d="M706.64 508.227h2.5v6.89h-1.1v-5.86h-1.4z" class="m"/><path d="M720.24 508.176h2.54v7h-1.12v-5.95h-1.42z"/><path d="M733.84 508.118h2.58v7.1h-1.14v-6.04h-1.44z" class="a"/><path d="M597.49 527.037c-.32-.44-.48-1.03-.48-1.77s.16-1.33.48-1.77.8-.66 1.44-.66 1.12.22 1.44.66.48 1.03.48 1.77-.16 1.33-.48 1.77-.8.66-1.44.66c-.65 0-1.13-.22-1.44-.66zm.56-3.04c-.19.32-.28.75-.28 1.27s.09.95.28 1.27.48.48.87.48.68-.16.86-.48.27-.75.27-1.27c0-.53-.09-.95-.27-1.27s-.47-.48-.86-.48c-.39-.01-.68.15-.87.48z" opacity=".78"/><path d="M611.64 522.807h1.81v4.97h-.8v-4.22h-1.01z" class="U"/><use xlink:href="#L" class="P"/><path d="M638.79 522.548h2v5.5h-.88v-4.68h-1.12z" class="AE"/><path d="M652.38 522.467h2.06v5.661h-.91v-4.81h-1.15z" opacity=".71"/><path d="M665.96 522.356h2.13v5.88h-.94v-4.99h-1.19z" class="L"/><path d="M679.55 522.276h2.19v6.04h-.97v-5.13h-1.23z" opacity=".31"/><path d="M692.39 527.567c-.42-.58-.62-1.35-.62-2.32s.21-1.74.62-2.32c.42-.58 1.04-.87 1.88-.87s1.46.29 1.88.87.62 1.35.62 2.32-.21 1.74-.62 2.32c-.42.58-1.04.87-1.88.87s-1.46-.29-1.88-.87zm.74-3.97c-.24.42-.36.98-.36 1.66 0 .69.12 1.24.36 1.66s.62.63 1.14.63.89-.21 1.13-.63.36-.97.36-1.67c0-.69-.12-1.25-.36-1.67s-.61-.63-1.13-.63c-.51.02-.89.23-1.14.65z" class="D"/><path d="M705.96 527.627c-.43-.59-.64-1.38-.64-2.38s.21-1.78.64-2.38c.43-.59 1.07-.89 1.93-.89s1.5.3 1.93.89.64 1.38.64 2.38-.21 1.78-.64 2.38c-.43.59-1.07.89-1.93.89s-1.5-.29-1.93-.89zm.77-4.08c-.25.43-.37 1-.37 1.7s.12 1.27.37 1.7.64.65 1.17.65.92-.21 1.16-.64.36-1 .36-1.71-.12-1.28-.36-1.71-.63-.64-1.16-.64c-.54 0-.93.22-1.17.65z" opacity=".77"/><path d="M720.35 522.087h2.33v6.41h-1.03v-5.45h-1.3z" class="AD"/><path d="M733.14 527.708c-.44-.61-.66-1.43-.66-2.46s.22-1.84.66-2.46c.44-.61 1.11-.92 1.99-.92.89 0 1.55.31 2 .92.44.61.66 1.43.66 2.46s-.22 1.84-.66 2.46c-.44.61-1.11.92-2 .92-.88 0-1.55-.31-1.99-.92zm.79-4.22c-.26.45-.39 1.03-.39 1.76s.13 1.31.39 1.76.66.67 1.21.67.95-.22 1.2-.67c.25-.44.38-1.03.38-1.77 0-.73-.13-1.32-.38-1.77-.25-.44-.65-.67-1.2-.67-.55.02-.95.25-1.21.69z" opacity=".71"/><path d="M597.68 540.418c-.28-.38-.41-.89-.41-1.53s.14-1.15.41-1.53.69-.57 1.24-.57.97.19 1.24.57c.28.38.41.89.41 1.53s-.14 1.15-.41 1.53-.69.57-1.24.57c-.55.01-.96-.19-1.24-.57zm.49-2.62c-.16.28-.24.64-.24 1.1s.08.82.24 1.1.41.42.75.42.59-.14.75-.42.23-.64.23-1.1-.08-.82-.23-1.1c-.16-.28-.41-.42-.75-.42s-.59.14-.75.42z" opacity=".6"/><path d="M611.76 536.757h1.57v4.329h-.69v-3.68h-.88z" class="D"/><path d="M625.34 536.647h1.65v4.54h-.73v-3.86h-.92z" class="g"/><path d="M638.32 540.697c-.33-.45-.49-1.06-.49-1.81 0-.76.16-1.36.49-1.81s.82-.68 1.47-.68c.66 0 1.15.23 1.47.68.33.45.49 1.06.49 1.81 0 .76-.16 1.36-.49 1.81s-.82.68-1.47.68c-.66 0-1.15-.23-1.47-.68zm.58-3.11c-.19.33-.29.76-.29 1.3s.09.97.29 1.3c.19.33.49.49.89.49s.7-.16.88-.49c.19-.33.28-.76.28-1.3s-.09-.98-.28-1.3c-.19-.33-.48-.49-.88-.49-.41-.01-.7.16-.89.49z" class="e"/><path d="M652.51 536.436h1.81v4.97h-.8v-4.22h-1.01z" class="O"/><path d="M665.44 540.838c-.35-.49-.53-1.14-.53-1.95 0-.82.18-1.47.53-1.95.35-.49.88-.73 1.59-.73s1.24.24 1.59.73.53 1.14.53 1.95c0 .82-.18 1.47-.53 1.95-.35.49-.88.73-1.59.73s-1.24-.24-1.59-.73zm.63-3.36c-.21.36-.31.82-.31 1.4s.1 1.04.31 1.4c.2.36.52.53.96.53a1.02 1.02 0 0 0 .95-.53c.2-.35.3-.82.3-1.4s-.1-1.05-.3-1.4a1.02 1.02 0 0 0-.95-.53c-.43 0-.76.18-.96.53z" class="J"/><path d="M679.68 536.247h1.94v5.34h-.86v-4.54h-1.09v-.8z" class="z"/><path d="M692.59 540.958c-.37-.52-.56-1.21-.56-2.07 0-.87.19-1.56.56-2.07.37-.52.93-.77 1.68-.77s1.31.26 1.68.77c.37.52.56 1.21.56 2.07 0 .87-.19 1.56-.56 2.07-.37.52-.93.78-1.68.78-.75-.01-1.31-.27-1.68-.78zm.66-3.56c-.22.38-.33.87-.33 1.49 0 .61.11 1.11.33 1.49s.56.57 1.02.57.8-.19 1.01-.56c.21-.38.32-.87.32-1.49s-.11-1.12-.32-1.49-.55-.56-1.01-.56c-.46-.02-.8.17-1.02.55z" class="U"/><path d="M706.87 536.106h2.04v5.61h-.9v-4.77h-1.14z" class="e"/><path d="M719.75 541.057c-.39-.54-.59-1.27-.59-2.17 0-.91.2-1.63.59-2.17s.98-.81 1.77-.81 1.38.27 1.77.81.59 1.27.59 2.17c0 .91-.2 1.63-.59 2.17s-.98.81-1.77.81-1.38-.27-1.77-.81zm.7-3.74c-.23.4-.34.92-.34 1.56s.11 1.16.34 1.56.58.59 1.07.59c.48 0 .84-.2 1.06-.59s.33-.91.33-1.56-.11-1.17-.33-1.56-.58-.59-1.06-.59c-.49 0-.85.2-1.07.59z" opacity=".59"/><path d="M733.34 541.096c-.4-.55-.6-1.29-.6-2.21s.2-1.66.6-2.21 1-.83 1.8-.83 1.4.28 1.8.83.6 1.29.6 2.21-.2 1.66-.6 2.21-1 .83-1.8.83c-.81-.01-1.41-.28-1.8-.83zm.71-3.81c-.23.4-.35.93-.35 1.59s.12 1.19.35 1.59.6.6 1.09.6.85-.2 1.08-.6.34-.93.34-1.59-.11-1.19-.34-1.59-.59-.6-1.08-.6c-.5 0-.86.2-1.09.6z" opacity=".62"/><path d="M597.89 553.786c-.23-.32-.34-.74-.34-1.27s.11-.95.34-1.27.57-.47 1.03-.47.8.16 1.03.47c.23.32.34.74.34 1.27s-.11.95-.34 1.27-.57.47-1.03.47c-.45 0-.8-.16-1.03-.47zm.41-2.18c-.13.23-.2.53-.2.91s.07.68.2.91.34.35.62.35.49-.11.62-.34.19-.53.19-.91-.06-.68-.19-.91-.34-.34-.62-.34c-.28-.02-.49.1-.62.33z" class="j"/><path d="M611.43 553.887c-.25-.34-.37-.8-.37-1.37s.12-1.03.37-1.37.62-.51 1.11-.51c.5 0 .87.17 1.11.51.25.34.37.8.37 1.37s-.12 1.03-.37 1.37-.62.51-1.11.51-.86-.17-1.11-.51zm.44-2.36c-.14.25-.22.58-.22.98 0 .41.07.73.22.98.14.25.37.37.67.37s.53-.12.67-.37.21-.58.21-.98c0-.41-.07-.74-.21-.98-.14-.25-.36-.37-.67-.37a.74.74 0 0 0-.67.37z" class="l"/><path d="M625.47 550.618h1.4v3.85h-.62v-3.27h-.78z" class="I"/><path d="M639.05 550.507h1.47v4.06h-.65v-3.45h-.82z" class="AA"/><path d="M652.63 550.397h1.55v4.27h-.68v-3.63h-.87z" class="T"/><path d="M665.67 554.177c-.3-.42-.45-.969-.45-1.669s.15-1.251.45-1.671.75-.62 1.36-.62c.6 0 1.06.21 1.36.62.3.42.45.971.45 1.671s-.15 1.249-.45 1.669-.75.62-1.36.62c-.6.01-1.06-.2-1.36-.62zm.54-2.87c-.18.3-.26.701-.26 1.201 0 .49.09.889.26 1.199.18.3.45.46.82.46s.64-.15.82-.45c.17-.3.26-.699.26-1.199s-.09-.9-.26-1.2-.44-.451-.82-.451c-.37-.01-.65.14-.82.44z" opacity=".59"/><path d="M679.82 550.237h1.67v4.59h-.74v-3.9h-.93z" class="q"/><path d="M692.82 554.298c-.32-.45-.48-1.04-.48-1.79s.16-1.35.48-1.79c.32-.45.81-.67 1.46-.67s1.13.22 1.46.67c.32.45.48 1.04.48 1.79s-.16 1.35-.48 1.79c-.32.45-.81.67-1.46.67-.66 0-1.14-.22-1.46-.67zm.57-3.08c-.19.33-.28.76-.28 1.29s.09.96.28 1.29.48.49.88.49.69-.16.87-.49c.18-.32.28-.75.28-1.29 0-.53-.09-.96-.28-1.29-.18-.32-.47-.49-.87-.49s-.69.17-.88.49z" class="c"/><path d="M707 550.077h1.79v4.91H708v-4.18h-1z" class="k"/><path d="M719.98 554.397c-.34-.47-.51-1.1-.51-1.89s.17-1.42.51-1.89.85-.71 1.54-.71c.68 0 1.2.24 1.54.71s.51 1.1.51 1.89-.17 1.42-.51 1.89-.85.71-1.54.71-1.2-.24-1.54-.71zm.6-3.25c-.2.35-.3.8-.3 1.36s.1 1.01.3 1.36a1.01 1.01 0 0 0 .93.52c.42 0 .73-.17.92-.51s.29-.8.29-1.36c0-.57-.1-1.02-.29-1.36s-.5-.51-.92-.51-.73.16-.93.5z" class="g"/><path d="M734.2 549.977h1.86v5.13h-.82v-4.36h-1.04z" class="n"/><use xlink:href="#L" x="122.59" y="27.241" class="h"/></g><path d="M1220.99 556.377H589.98a16.09 16.09 0 0 1-16.09-16.09v-25.65h663.19v25.65a16.09 16.09 0 0 1-16.09 16.09z" class="B"/><path d="M1212.44 556.377H581.43a16.09 16.09 0 0 1-16.09-16.09v-25.65h663.19v25.65a16.09 16.09 0 0 1-16.09 16.09zm-631.01-425.98h631.01c8.88 0 16.09 7.2 16.09 16.09v25.65H565.34v-25.65c0-8.88 7.21-16.09 16.09-16.09z" class="R"/><path d="M1168.76 151.267c0 6.46-5.24 11.69-11.69 11.69a11.69 11.69 0 0 1-11.69-11.69c0-6.46 5.24-11.69 11.69-11.69 6.46 0 11.69 5.24 11.69 11.69z" class="B"/><path d="M1162 150.217h-9.85v2.11h9.85z" class="E"/><path d="M1206.2 151.267c0 6.46-5.24 11.69-11.69 11.69a11.69 11.69 0 0 1-11.69-11.69c0-6.46 5.24-11.69 11.69-11.69a11.7 11.7 0 0 1 11.69 11.69z" class="B"/><path d="M1194.34 150.267l-2.91-2.92h2.49v-1.2h-4.54v4.54h1.2v-2.49l2.92 2.91zm.32 2.009l2.92 2.92h-2.49v1.2h4.54v-4.54h-1.2v2.49l-2.92-2.91zm-497.18 5H590.74a4.75 4.75 0 0 1-4.75-4.75c0-2.62 2.13-4.75 4.75-4.75h106.74a4.75 4.75 0 1 1 0 9.5z" class="E"/><path d="M483.07 335.807l-71.88-48.01c-11.66-1.24-32.39 6.03-38.14 16.25l-71.6 111.89c-4.12 7.31-2.24 16.53 4.4 21.65l67.2 51.8 9.59-24.45-34.45-40.32 40.11-51.43 72.98-5.54z" class="M"/><path d="M390.58 529.396s-6.2-2.48-5.9-15.79c.39-17.32-11.62-24.21-11.62-24.21l9.6-24.46 7.76 6.94 1.01 34.64z" class="r"/><path d="M384.16 378.357l.73-16.96-47.25 63.96 41.96 47.35 3.06-7.78-34.47-40.31z" class="B N"/><path d="M505.86 922.047l64.9 1.6-25.9-18.5c-4.3-3.1-7-8-7.2-13.3l-.9-20.3-35.3.1z" class="r"/><path d="M528.96 902.027l-.06-.39c-.17-2.3-2.08-4.02-4.3-3.96l-20.91.38-.46-4.08 34.87.16s-.12 1.1.82 3.46c.83 2.08 4.13 7.96 4.13 7.96l-31.61 18.79 8.58-5.15c5.99-3.62 9.46-10.26 8.94-17.17z" class="B s"/><use xlink:href="#M" class="R"/><path d="M508.76 943.247h86a3.12 3.12 0 0 0 3.1-3.1c0-1.1-.1-2.1-.4-3.1h-96c.6 3.5 3.6 6.2 7.3 6.2z" class="B"/><g class="E"><use xlink:href="#N"/><use xlink:href="#N" x="4.1" y="3.2"/><use xlink:href="#O"/></g><path d="M389.39 922.047l67.04 1.6-25.9-18.5c-3-3.06-3.87-2.66-5.24-9.91l-.13-22.89-34.63 11.91z" class="r"/><path d="M414.55 895.237h-24.42v2.2l20.33.81c2.02.08 3.55 1.86 3.33 3.87l-.44 4.06s-.48 11.87-5.64 11.67l-10.09-7.12 10.26 9.42 19.25-16.97s-1.1-4.32-1.85-7.94z" class="B N"/><use xlink:href="#M" x="-114.33" class="R"/><path d="M394.43 943.247h86a3.12 3.12 0 0 0 3.1-3.1c0-1.1-.1-2.1-.4-3.1h-96c.6 3.5 3.6 6.2 7.3 6.2z" class="B"/><g class="E"><use xlink:href="#N" x="-114.33"/><use xlink:href="#N" x="-110.23" y="3.2"/><use xlink:href="#O" x="-114.33"/></g><path d="M390.1 494.346v400.891h35.16l32.35-317.391 45.76 317.391h34.77l-18.26-400.891" class="R"/><path d="M422.9 261.897l-13.52 29.19c-5.3 11.62-.4 25.36 11.07 31 11.16 5.49 24.67 1.38 30.88-9.4l18.46-31 2.96.47c9.65 1.52 18.4-5.87 18.52-15.63l.2-16.88s2.79.89 4.4-.5c2.47-2.14 1.77-6.76-5.56-7.05l-11.94-26.61-10.36 4.03-.05 10.44-13.37 7.89 4.18 12.77-5.93 2.74s-5.25-14.13-12.22-16.74-14.99 6.97-5.67 18.03c0 0-1.85 6.83-8.26 8.71-1.13.33-2.42-.22-3.79-1.46z" class="r"/><path d="M478.37 215.486l-10.36 4.03-.05 10.44-13.37 7.89 4.18 12.77-5.93 2.74s-5.25-14.13-12.22-16.74-14.99 6.97-5.67 18.03c0 0-1.85 6.83-8.26 8.71-1.12.33-2.42-.22-3.79-1.46-6.44-5.82-14.53-26.69-14.39-41.43.17-17.87 19.06-20.54 19.06-20.54s4.75-14.75 20.29-14.4c6.3.14 12.64 5.09 15.13 7.42 0 0 12.7-8.02 20.19.48 9.52 10.81-1.5 20.94-4.81 22.06z" class="R"/><g class="B"><path d="M448.67 259.987c-9.16.01-13.72-5.34-13.72-5.34s-.18.75-.76 1.91c0 0 4.92 4.81 14.45 5.31.52.03.96-.38.99-.9.03-.54-.41-.98-.96-.98z" class="s"/><path d="M491.36 258.286c-3.82-.13-7.59-1.18-9.24-1.71-.47-.15-.97.14-1.07.62a.83.83 0 0 0 .59.99c1.52.44 5.2 1.4 9.71 1.95z" class="m"/></g><g class="M"><path d="M447.78 243.407l-1.21-1.72 38.24-12.12.6 1.91z"/><path d="M482.43 222.096l-1.82.82 7.79 17.35 1.82-.82z"/></g><g class="B"><path d="M436.14 243.977c1.16-1.07 2.29-1.59 3.41-1.55s2.21.64 3.18 1.82c.97 1.17 1.64 2.62 1.92 4.35l.33 1.39a.75.75 0 1 1-1.51.25l-.33-1.39c-.07-.43-.63-2.56-1.58-3.63-.68-.78-1.42-1.21-2.1-1.32-.67 0-1.5.35-2.27 1.03-.29.27-.85.25-1.12-.04-.24-.08-.21-.53.07-.91z" class="m"/><path d="M469.78 281.677c-5.98-2.41-9.66-5.01-9.66-5.01l5.97 11.21z" class="s"/></g><g fill="#21252b"><path d="M659.55 187.457c-37.59 3.86-64.94 37.46-61.08 75.05s37.46 64.94 75.05 61.08 64.94-37.46 61.08-75.05c-3.86-37.58-37.46-64.94-75.05-61.08zm12.78 124.52c-31.18 3.19-59.04-19.48-62.24-50.66-3.19-31.18 19.48-59.04 50.65-62.24 31.18-3.19 59.04 19.48 62.24 50.66 3.21 31.17-19.48 59.03-50.65 62.24z"/><path d="M628.48 369.887l15.14-56.81 8.42 2.1-14.57 57.12c-.25 1.01-1.29 1.62-2.29 1.34l-5.41-1.5c-.97-.27-1.55-1.27-1.29-2.25z"/></g><path d="M635.18 371.658l14.52-56.94-11.09-1.17-14.1 55.27a1.86 1.86 0 0 0 1.3 2.23l7.08 1.96c1 .26 2.04-.34 2.29-1.35z" class="R"/><path d="M638.61 313.538l-1.72 6.9 2.54.71a48.31 48.31 0 0 0 8.34 1.3l1.92-7.73z" opacity=".002" class="B"/><path d="M655.63 188.297c-37.59 3.86-64.94 37.46-61.08 75.05s37.46 64.94 75.05 61.08 64.94-37.46 61.08-75.05-37.47-64.94-75.05-61.08zm12.77 124.52c-31.18 3.19-59.04-19.48-62.24-50.66-3.19-31.18 19.48-59.04 50.65-62.24 31.18-3.19 59.04 19.48 62.24 50.66 3.22 31.17-19.48 59.03-50.65 62.24z" class="R"/><path d="M635.64 325.176l-.76 2.97-.22.83a2.31 2.31 0 0 0 1.94 2.88l12.5 1.58a3.37 3.37 0 0 1 2.91 3.83l-.01.1c-.26 1.88-1.96 3.27-3.95 3.1l-7.74-.95 7.74.95c1.88.26 3.27 1.96 3.01 3.84s-1.96 3.27-3.84 3.01l-8.04-.99 8.34 1.03c1.78.24 2.98 1.82 2.84 3.61-.23 1.68-1.71 2.9-3.42 2.87l-8.52-.45 8.9 1.03c1.27.27 2.22 1.51 2.03 2.9l-.13.86c-.2 1.49-1.55 2.51-3.04 2.31l-11.89-1.13-12.88 17.57-20.84-24.12s14.79-14.03 20.21-22.82c4.11-6.7 14.86-4.81 14.86-4.81z" class="r"/><g class="B"><path d="M647.46 341.076l-5.55-.75a.79.79 0 0 1-.69-.9c.05-.4.5-.74.9-.69l5.55.75a.79.79 0 0 1 .69.9c-.06.4-.51.74-.9.69zm-.55 6.991l-5.65-.77a.79.79 0 0 1-.69-.9c.05-.4.5-.74.9-.69l5.65.77a.79.79 0 0 1 .69.9c-.05.4-.5.74-.9.69z" opacity=".023"/><path d="M502.46 494.346l.42 7.43 22.01 393.461h13.25l-18.26-400.891z" class="N"/></g><g class="M"><path d="M390.1 494.347c-3.31-9.61-4.35-19.69-4.84-29.95l-5.98-125.14c-.52-11.05 2.39-21.69 7.96-30.7 5.57-8.98 13.82-16.32 23.95-20.77l5.5-13.82 56.64 26.43 4.78 12.02 12.01 5.27a47.29 47.29 0 0 1 23.68 22.95l2.98 6.26-33.7 45.16 35.6 62.79 1.21 39.5z"/><path d="M483.07 392.057l38.16 67.4c6.43 8.39 16.34 11.93 25.72 10.77a27.81 27.81 0 0 0 20.13-12.69l54.32-80.63-20.84-24.12-53.57 57.52-30.22-63.42z"/></g><path d="M457.61 577.847s-32.58-23.13-28.43-52.18c.06-.45-.26-.87-.72-.9a.78.78 0 0 0-.82.61c-1.72 7.4-2.17 27.02 16.32 44.57l-29.5 325.21 10.74.08z" class="B N"/><use xlink:href="#P" class="M"/><g class="E"><use xlink:href="#P" class="C"/><path d="M723.36 209.088c-.92-1.27-1.38-2.98-1.38-5.11s.46-3.84 1.38-5.11 2.3-1.91 4.15-1.91 3.23.64 4.15 1.91 1.38 2.98 1.38 5.11-.46 3.84-1.38 5.11-2.3 1.91-4.15 1.91-3.23-.64-4.15-1.91zm1.64-8.78c-.54.93-.8 2.15-.8 3.67s.27 2.73.8 3.67c.54.93 1.37 1.4 2.51 1.4s1.97-.46 2.49-1.39c.52-.92.79-2.15.79-3.68s-.26-2.75-.79-3.67c-.52-.92-1.35-1.39-2.49-1.39s-1.98.46-2.51 1.39z" opacity=".32"/><path d="M638.03 218.897h5.02v13.81h-2.21v-11.74h-2.81z" class="Q"/><path d="M659.77 218.897h5.02v13.81h-2.21v-11.74h-2.81z" class="D"/><path d="M679.8 230.927c-.94-1.3-1.4-3.03-1.4-5.21 0-2.17.47-3.91 1.4-5.21.94-1.3 2.34-1.95 4.23-1.95 1.88 0 3.29.65 4.23 1.95s1.4 3.03 1.4 5.21c0 2.17-.47 3.91-1.4 5.21s-2.34 1.95-4.23 1.95c-1.89-.01-3.3-.66-4.23-1.95zm1.67-8.95c-.55.95-.82 2.19-.82 3.73s.27 2.79.82 3.73c.55.95 1.4 1.42 2.56 1.42s2.01-.47 2.54-1.41.8-2.19.8-3.74-.27-2.8-.8-3.74-1.38-1.41-2.54-1.41-2.02.48-2.56 1.42z" class="F"/><path d="M616.28 240.596h5.05v13.9h-2.23v-11.81h-2.82z" class="l"/><path d="M638.02 240.596h5.05v13.9h-2.23v-11.81h-2.82z" class="L"/><path d="M659.76 240.596h5.05v13.9h-2.23v-11.81h-2.82z" class="G"/><path d="M679.77 252.697c-.94-1.31-1.41-3.05-1.41-5.24s.47-3.93 1.41-5.24c.94-1.3 2.36-1.96 4.25-1.96 1.9 0 3.31.65 4.25 1.96s1.41 3.05 1.41 5.24-.47 3.93-1.41 5.24-2.36 1.96-4.25 1.96-3.31-.66-4.25-1.96zm1.68-9c-.55.95-.83 2.21-.83 3.76s.27 2.8.83 3.76c.55.95 1.41 1.43 2.57 1.43s2.02-.47 2.55-1.42c.54-.95.81-2.2.81-3.77 0-1.56-.27-2.82-.81-3.77s-1.39-1.42-2.55-1.42-2.02.48-2.57 1.43z" class="F"/><path d="M701.51 252.697c-.94-1.31-1.41-3.05-1.41-5.24s.47-3.93 1.41-5.24c.94-1.3 2.36-1.96 4.25-1.96s3.31.65 4.25 1.96 1.41 3.05 1.41 5.24-.47 3.93-1.41 5.24-2.36 1.96-4.25 1.96-3.31-.66-4.25-1.96zm1.68-9c-.55.95-.83 2.21-.83 3.76s.27 2.8.83 3.76c.55.95 1.41 1.43 2.57 1.43s2.02-.47 2.55-1.42c.54-.95.81-2.2.81-3.77 0-1.56-.27-2.82-.81-3.77s-1.39-1.42-2.55-1.42-2.02.48-2.57 1.43z" class="p"/><path d="M614.52 274.468c-.95-1.31-1.42-3.07-1.42-5.27s.47-3.96 1.42-5.27 2.37-1.97 4.28-1.97 3.33.66 4.28 1.97 1.42 3.07 1.42 5.27-.47 3.96-1.42 5.27-2.37 1.97-4.28 1.97-3.33-.65-4.28-1.97zm1.69-9.05c-.55.96-.83 2.22-.83 3.78s.28 2.82.83 3.78 1.42 1.44 2.59 1.44 2.03-.48 2.57-1.43.81-2.22.81-3.79-.27-2.84-.81-3.79-1.4-1.43-2.57-1.43-2.04.48-2.59 1.44z" opacity=".51"/><path d="M636.24 274.497c-.95-1.32-1.43-3.09-1.43-5.3s.48-3.98 1.43-5.3 2.39-1.98 4.31-1.98 3.35.66 4.31 1.98c.95 1.32 1.43 3.09 1.43 5.3s-.48 3.98-1.43 5.3-2.39 1.98-4.31 1.98c-1.93.01-3.36-.66-4.31-1.98zm1.7-9.1c-.56.97-.84 2.23-.84 3.8s.28 2.84.84 3.8c.56.97 1.42 1.45 2.61 1.45 1.18 0 2.04-.48 2.59-1.44.54-.96.81-2.23.81-3.81s-.27-2.85-.81-3.81-1.41-1.44-2.59-1.44c-1.19 0-2.06.48-2.61 1.45z" opacity=".93"/><path d="M657.98 274.497c-.95-1.32-1.43-3.09-1.43-5.3s.48-3.98 1.43-5.3 2.39-1.98 4.31-1.98 3.35.66 4.31 1.98c.95 1.32 1.43 3.09 1.43 5.3s-.48 3.98-1.43 5.3-2.39 1.98-4.31 1.98c-1.92.01-3.36-.66-4.31-1.98zm1.7-9.1c-.56.97-.84 2.23-.84 3.8s.28 2.84.84 3.8c.56.97 1.42 1.45 2.61 1.45s2.04-.48 2.59-1.44c.54-.96.81-2.23.81-3.81s-.27-2.85-.81-3.81-1.41-1.44-2.59-1.44-2.06.48-2.61 1.45z" class="J"/><path d="M679.72 274.497c-.95-1.32-1.43-3.09-1.43-5.3s.48-3.98 1.43-5.3 2.39-1.98 4.31-1.98 3.35.66 4.31 1.98c.95 1.32 1.43 3.09 1.43 5.3s-.48 3.98-1.43 5.3-2.39 1.98-4.31 1.98c-1.92.01-3.36-.66-4.31-1.98zm1.7-9.1c-.56.97-.84 2.23-.84 3.8s.28 2.84.84 3.8c.56.97 1.42 1.45 2.61 1.45 1.18 0 2.04-.48 2.59-1.44.54-.96.81-2.23.81-3.81s-.27-2.85-.81-3.81-1.41-1.44-2.59-1.44c-1.19 0-2.05.48-2.61 1.45z" class="p"/><path d="M701.49 274.468c-.95-1.31-1.42-3.07-1.42-5.27s.47-3.96 1.42-5.27 2.37-1.97 4.28-1.97 3.33.66 4.28 1.97 1.42 3.07 1.42 5.27-.47 3.96-1.42 5.27-2.37 1.97-4.28 1.97-3.34-.65-4.28-1.97zm1.69-9.05c-.55.96-.83 2.22-.83 3.78s.28 2.82.83 3.78 1.42 1.44 2.59 1.44 2.03-.48 2.57-1.43.81-2.22.81-3.79-.27-2.84-.81-3.79-1.4-1.43-2.57-1.43-2.04.48-2.59 1.44z" class="z"/><path d="M637.97 283.958h5.14v14.15h-2.27v-12.03h-2.87z" class="S"/><path d="M659.71 283.958h5.14v14.15h-2.27v-12.03h-2.87z" class="Y"/><path d="M681.45 283.958h5.14v14.15h-2.27v-12.03h-2.87z" class="T"/><path d="M684.03 307.358c-1.2.01-2.08.49-2.64 1.47-.21.37-.37.8-.5 1.25l5.13-2.02c-.52-.45-1.17-.7-1.99-.7zm-67.79-77.92c.55.95 1.4 1.42 2.56 1.42s2.01-.47 2.54-1.41.8-2.19.8-3.74-.27-2.8-.8-3.74c-.08-.14-.18-.25-.28-.37-1.82 2.44-3.46 5.02-4.87 7.74.02.03.03.07.05.1zm48.67 79.38c-.55-.97-1.42-1.46-2.62-1.46-1.2.01-2.08.49-2.64 1.47-.45.78-.71 1.76-.81 2.92 2.26.31 4.55.48 6.87.51-.04-1.4-.3-2.56-.8-3.44zm-46.2-22.739l.39.59v-.59z" class="C"/><path d="M643.02 210.878v-7.01l-2.19 1.05v5.95h2.19z" class="u"/><path d="M643.02 210.878v-7.01l-2.19 1.05v5.95h2.19z" class="C"/><path d="M664.77 210.878v-11.21l-2.19-.05v11.26z" class="AG"/><path d="M664.77 210.878v-11.21l-2.19-.05v11.26z" class="C"/><path d="M686.51 210.878v-5.97l-2.19-.97v6.94z" class="N"/><path d="M686.51 210.878v-5.97l-2.19-.97v6.94z" class="C"/><use xlink:href="#Q" class="o"/><use xlink:href="#Q" class="C"/><path d="M703.26 220.967h2.81v11.74h2.21v-10l-3.08-3.81h-1.94z" class="k"/><path d="M703.26 220.967h2.81v11.74h2.21v-10l-3.08-3.81h-1.94z" class="C"/><path d="M617.42 283.958l1.29 2.12h.39v.59l2.27 3.22v-5.94h-3.95z" class="a"/><path d="M617.42 283.958l1.29 2.12h.39v.59l2.27 3.22v-5.94h-3.95z" class="C"/><path d="M708.34 283.958h-5.14v2.12h2.87v6.75l2.27-2.91z" opacity=".4"/><path d="M708.34 283.958h-5.14v2.12h2.87v6.75l2.27-2.91z" class="C"/><path d="M639.92 305.647l3.21 1.57v-1.57z" class="D"/><path d="M639.92 305.647l3.21 1.57v-1.57z" class="C"/><use xlink:href="#R" class="I"/><use xlink:href="#R" class="C"/><use xlink:href="#S" class="j"/><use xlink:href="#S" class="C"/><path d="M724.92 305.647h5.17v14.24h-2.28v-12.1h-2.89z"/><path d="M10 617.067h.06v.17h-.03v-.14H10z" opacity=".29"/><path d="M31.72 617.217c-.01-.02-.02-.04-.02-.06 0-.03.01-.05.02-.06.01-.02.03-.02.05-.02s.04.01.05.02c.01.02.02.04.02.06 0 .03-.01.05-.02.06-.01.02-.03.02-.05.02s-.04 0-.05-.02zm.02-.11c-.01.01-.01.03-.01.05a.09.09 0 0 0 .01.05c.01.01.02.02.03.02s.02-.01.03-.02.01-.03.01-.05 0-.03-.01-.05c-.01-.01-.02-.02-.03-.02s-.02.01-.03.02z" class="Z"/><path d="M10 638.807h.06v.17h-.03v-.14H10z" class="S"/><path d="M31.74 638.807h.06v.17h-.03v-.14h-.03z" opacity=".62"/><path d="M10 660.548h.06v.17h-.03v-.14H10z" class="L"/><path d="M31.74 660.548h.06v.17h-.03v-.14h-.03z" class="I"/><path d="M31.75 682.407c-.01-.01-.01-.02-.01-.03s0-.02.01-.03.01-.01.03-.01c.01 0 .02 0 .03.01s.01.02.01.03 0 .02-.01.03-.01.01-.03.01c-.02.01-.02 0-.03-.01zm.01-.05c0 .01-.01.01-.01.02s0 .02.01.02c0 .01.01.01.02.01s.01 0 .02-.01v-.04c0-.01-.01-.01-.02-.01s-.02 0-.02.01z" class="J"/></g><g class="B"><path d="M518.67 454.847l-44.04-77.159c-.92-1.63-3.39-.451-2.71 1.289l30.6 78.69-.05 36.68h17.42zm28.32-44.529l4.06 9.25 53.78-61.83-4.27-4.94z" class="s"/><path d="M604.83 357.736l17.89-20.89s5.74-10.53 11.95-7.87l.98-3.8s-10.65-1.66-14.87 4.8c-4.23 6.46-20.21 22.82-20.21 22.82z" class="s"/></g><g fill="#d1d3d4"><path d="M920.218 792.501a53.67 53.67 0 0 0-23-8c-3.7-.4-7.8-.2-10.9 2-.33.216-.61.511-.8.861a2.39 2.39 0 0 0-.3 1.139 2.6 2.6 0 0 0 1.1 1.4c4.88 3.479 10.61 5.56 16.59 6.018 5.97.458 11.96-.724 17.31-3.418zm-.6-.701c-5.3-3.933-10.25-8.315-14.8-13.1-4.6-4.787-7.81-10.731-9.3-17.2-.31-.96-.4-1.975-.28-2.976a6.95 6.95 0 0 1 .98-2.824c11.9 9.3 21.2 21.2 23.4 36.1m.5.601a53.27 53.27 0 0 1 .3-19.5 25.89 25.89 0 0 1 10.4-16.1c2.1 4.7 1.1 10.3-.3 15.3-2.24 7.743-5.72 15.071-10.3 21.7m11.5 19.399c-6.95 1.108-13.38 4.36-18.4 9.3a35.61 35.61 0 0 0-10.6 18.2c6.9-.5 12.7-5.3 16.9-10.8s7.2-11.5 11.9-16.6m2.7 3.2c-2.75-7.045-3.71-14.663-2.78-22.17a45.54 45.54 0 0 1 8.08-20.83c2.08 7.152 2.68 14.653 1.77 22.045a54.95 54.95 0 0 1-7.07 20.955m15.4 18.3c-6.45-.409-12.87 1.089-18.47 4.308-5.61 3.219-10.14 8.016-13.03 13.792-.25.343-.4.748-.44 1.172-.03.424.05.849.24 1.228a2.11 2.11 0 0 0 .97.595c.37.105.76.107 1.13.005 6.2-.4 11.7-4.1 16.2-8.3s8.5-9.2 13.5-12.9"/><path d="M949.118 833.8c-3.3-10.657-3.5-22.03-.6-32.8 1.2-4.2 3.1-8.6 7-10.6.17-.09.35-.146.54-.163s.38.004.56.063c.14.067.27.164.38.284a1.1 1.1 0 0 1 .22.416c1.3 2.955 1.89 6.177 1.7 9.4-.25 3.202-.75 6.378-1.5 9.5-1.2 5.8-1.9 12.1-5.1 17-.7 1.2-1.5 2.5-2.1 3.7-.34.956-.75 1.891-1.2 2.8m40.7 6.4c-1.39-5.973-1.44-12.177-.16-18.174a41.71 41.71 0 0 1 7.56-16.526 2.31 2.31 0 0 1 .86-.956c.37-.23.8-.349 1.24-.344 1.3.1 1.7 1.9 1.6 3.2a62.58 62.58 0 0 1-11.1 32.8m3.6 2.5a50.41 50.41 0 0 0 21.69.322 50.45 50.45 0 0 0 19.81-8.822c-6.98-3.423-14.91-4.375-22.5-2.7-7.45 1.338-14.18 5.27-19 11.1m3.1-7.5c4.12-6.317 9.67-11.573 16.21-15.344 6.53-3.77 13.86-5.948 21.39-6.356a23.15 23.15 0 0 1-4.75 8.067c-2.11 2.338-4.68 4.221-7.55 5.533a70.04 70.04 0 0 1-18 5.2c-2.4.5-5.7 1-7.3 2.9z"/><path d="M990.518 797.701c2.31-7.161 3.91-14.529 4.8-22 .82-7.579-.72-15.226-4.4-21.9-3.73 6.819-5.74 14.443-5.86 22.213s1.65 15.454 5.16 22.387m24.7-13c8.5-15.5 25.9-27.9 43.5-29.6-6.8 16.9-25.3 29.9-43.5 29.6zm-5.3 2.999c12.7 1.9 23.5 10 35.3 14.8a15.99 15.99 0 0 0 8 1.6c.84-.038 1.66-.242 2.41-.601a6.32 6.32 0 0 0 2-1.489 6.38 6.38 0 0 0 1.26-2.145 6.44 6.44 0 0 0 .33-2.465c-.03-.837-.24-1.659-.6-2.415s-.87-1.431-1.5-1.985c-1.66-1.522-3.59-2.71-5.7-3.5-13-5.4-26.8-5.5-40.3-2.3m-8.5 9.4c2.8.8 3.8 2.3 6.1 4.2a65.99 65.99 0 0 0 26.8 13.8c1 .2 2.3.4 2.9-.6a2.08 2.08 0 0 0 .08-1.371 2.06 2.06 0 0 0-.78-1.129c-4.34-5.026-9.93-8.819-16.2-11-6.2-2.3-11.6-5.1-18.9-4.5m-8.3-53.199a51.02 51.02 0 0 0 38.9 13.3 2.28 2.28 0 0 0 .92-.173 2.25 2.25 0 0 0 .78-.527c1-1-.2-2.7-1.3-3.6-11.4-8.9-25.3-12.6-39.3-9m9.8-3.5c6.88-5.071 14.85-8.447 23.28-9.855a54.29 54.29 0 0 1 25.22 1.755 38.4 38.4 0 0 1-23.1 10.2c-8.52.803-17.12.092-25.4-2.1m-3.9-24.701c-1.1-11.4-.4-20.5-1.2-31.8 0-1-.2-2.1-1.1-2.4s-2.1 1-2.6 2.2c-1.68 5.321-2.12 10.958-1.27 16.473s2.96 10.76 6.17 15.327"/><path d="M999.118 716.5a67.5 67.5 0 0 0 18.9-18.4c3.7-5.1 6.8-11.2 6-17.4-2.62.061-5.19.691-7.54 1.849a17.95 17.95 0 0 0-6.06 4.851c-3.29 4.126-5.67 8.895-7 14-1.5 5-2.6 10.2-4.2 15.1m18.4-5.1a151.42 151.42 0 0 0 46.6-27.5c-5.6-2.1-12-.9-17.5 1.3a55.32 55.32 0 0 0-29.3 26"/><path d="M1004.318 722.801c8.56 1.183 17.23 1.216 25.8.1a108.31 108.31 0 0 0 24.1-8c.7-.218 1.31-.679 1.7-1.3.13-.37.14-.769.03-1.145s-.33-.71-.63-.955c-.61-.484-1.33-.795-2.1-.9-8.65-2.113-17.74-1.59-26.1 1.5-7.98 2.731-15.65 6.284-22.9 10.6m-48.9 21.2c-2.77-5.901-4.26-12.326-4.34-18.846-.09-6.52 1.22-12.983 3.84-18.954 3.6 5.4 4 12.4 3.4 18.8s-2.6 13.1-2.8 19.6m-23.5-12.401c-7.35-.088-14.64 1.351-21.4 4.226-6.77 2.875-12.86 7.122-17.9 12.474a36.49 36.49 0 0 0 21.5-4 101.96 101.96 0 0 0 18.4-12.299m-16.4-5.601c-7.1-.6-14-1.5-20.9.6-3.47.984-6.7 2.697-9.46 5.025-2.75 2.328-4.99 5.217-6.54 8.475 6.78.592 13.6-.687 19.7-3.7 6.04-2.923 11.8-6.405 17.2-10.4m23.3.2c-6.3-4.2-13-8.5-20.5-10.3s-16.2-.4-21.4 5.2c6 3.6 13.4 4 20.4 4s15.7 0 22.3 2.3"/><path d="M939.418 727.5c-11-10.9-15.1-30.3-10.7-45a68.1 68.1 0 0 1 10.7 45m30.3-30.699c2.1-4.8 3.5-9.9 5.3-14.8a43.34 43.34 0 0 1 7.7-13.6c3.47-4.061 8.38-6.608 13.7-7.1a55.33 55.33 0 0 1-9.53 20.569c-4.56 6.127-10.34 11.244-16.97 15.031m-5.7 6.299c-3.4-4.7-7.4-11.1-12-14.7-2.27-1.845-4.91-3.176-7.74-3.901s-5.78-.827-8.66-.299c2.92 5.178 7 9.602 11.93 12.919a38.14 38.14 0 0 0 16.47 6.181m1.2-6.199c-2.49-5.641-4.34-11.545-5.5-17.6a26.79 26.79 0 0 1 2.8-17.8c6 11.4 8 23.6 2.9 35.5"/><path d="M969.818 661.8c3.4-11.4 13.8-19.7 25-23.5 1.35-.586 2.83-.826 4.3-.7a3.98 3.98 0 0 1 2.04.874c.58.478 1.02 1.111 1.26 1.826.4 1.9-1.2 3.7-2.7 4.9a87.2 87.2 0 0 1-29.9 16.6m.1-9.3a79.43 79.43 0 0 1 3.3-21.6c2.3-6.9 6.9-13.4 13.6-16.5 1.1 7.4-2.2 14.8-6.1 21.1s-8.6 12.3-11 19.4m0 2.601c-2.9-8.2-3.2-18.7-8.1-25.9-3.5-5-9-8.5-12-13.8-1.78 5.131-1.53 10.747.7 15.7 2.28 4.837 5.4 9.237 9.2 13 3.6 4 6.7 6.9 10.2 11"/><path d="M969.818 900.5c-.2 0-.4-55.099-.5-122.999l.4-122.9c.2 0 .4 55.1.4 122.9l-.3 122.999z"/><path d="M1017.918 735.601c-.66.353-1.37.622-2.1.8l-5.7 1.9c-4.8 1.7-11.4 4-18.6 7s-13.8 5.5-17.6 8.8a12.2 12.2 0 0 0-3.5 4.6 7.75 7.75 0 0 0-.7 2.2c-.1 0 0-.2 0-.6.07-.547.21-1.083.4-1.6.7-1.922 1.87-3.64 3.4-5 2.31-1.902 4.87-3.483 7.6-4.7 3.1-1.5 6.4-3 10.1-4.4 7.2-3 13.8-5.3 18.7-6.8l5.7-1.7z"/><path d="M1033.618 696.9l-.5.6-1.8 1.7-6.5 5.9-22 19.5c-8.4 7.6-15.9 14.9-21.2 20.4-2.6 2.8-4.6 5-5.9 6.6l-1.6 1.8c-.4.4-.6.7-.6.6.09-.253.23-.489.4-.7.4-.4.8-1.1 1.5-1.9s3.3-4 5.8-6.8c6.62-7.24 13.63-14.116 21-20.6l22.1-19.3 6.8-5.8 1.8-1.6z"/><path d="M993.518 732.5c-.2 0 1.6-4.3 3.4-9.5s2.6-9.6 2.8-9.6a33.91 33.91 0 0 1-2.1 9.9 60.42 60.42 0 0 1-2.7 6.6 9.5 9.5 0 0 1-1.4 2.6zm-23.7 33.3a10.04 10.04 0 0 1-1.3-1.6l-3.4-4.2c-2.8-3.7-6.7-8.7-11.2-14.3l-11.3-14.1-3.5-4.3a9.62 9.62 0 0 1-1.2-1.6 6.79 6.79 0 0 1 1.4 1.5c.9.9 2.2 2.3 3.7 4.1 3 3.5 7.2 8.4 11.6 14l11 14.4 3.1 4.5a5.57 5.57 0 0 1 1.1 1.6z"/><path d="M959.318 752.201a17.75 17.75 0 0 1-4.4-8.2c-.88-2.708-1.22-5.562-1-8.4h.3c-.03.35-.13.69-.3 1-.1 0 0-.4 0-1h.3c.22 2.736.69 5.447 1.4 8.1.98 2.935 2.22 5.779 3.7 8.5zm-13.6-17.101a18.9 18.9 0 0 0-3.1-1.8c-2.76-.778-5.65-1.015-8.5-.7a61.8 61.8 0 0 0-8.6 1.4c-1.17.394-2.38.695-3.6.9 1.05-.652 2.2-1.125 3.4-1.4 2.84-.854 5.75-1.423 8.7-1.7a19.32 19.32 0 0 1 8.9 1 5.7 5.7 0 0 1 2.8 2.3zm-3.3-4.099c0 .1-1.8-.8-4.7-1.8-3.82-1.297-7.78-2.103-11.8-2.401a48.39 48.39 0 0 0-12 .601c-3.1.6-4.9 1.1-4.9 1l1.2-.5c1.17-.426 2.38-.76 3.6-1 4-.899 8.11-1.202 12.2-.9 4.08.292 8.09 1.202 11.9 2.7l3.4 1.5c.8.5 1.2.7 1.1.8zm27.3-17.6c-1.42-3.921-2.59-7.929-3.5-12-1.15-3.974-2.05-8.015-2.7-12.1 1.41 3.891 2.58 7.865 3.5 11.9 1.1 4 2 8.1 2.7 12.2z"/><path d="M969.918 713.4a50.07 50.07 0 0 0-3.8-7.2c-1.63-2.148-3.51-4.095-5.6-5.8.8.201 1.52.616 2.1 1.2a16.32 16.32 0 0 1 4.1 4.2 16.1 16.1 0 0 1 3.2 7.6zm-.1 157.801l-.9-3.7c-.87-3.295-2.12-6.481-3.7-9.5a130.06 130.06 0 0 0-19.5-27.6l-12.2-14.2c-3.21-3.938-6.12-8.117-8.7-12.5-1.71-2.98-3.18-6.09-4.4-9.3a22.98 22.98 0 0 1-.8-2.7l-.3-.9 1.4 3.5c1.33 3.131 2.87 6.171 4.6 9.1a108.11 108.11 0 0 0 8.8 12.4c3.6 4.4 7.8 9.1 12.2 14.1 7.71 8.335 14.24 17.689 19.4 27.8a47.38 47.38 0 0 1 3.5 9.8c.22.89.38 1.792.5 2.7.09.325.12.663.1 1z"/><path d="M1013.218 822.101l-2.2 1.3c-2.12 1.111-4.13 2.416-6 3.9-2.79 2.151-5.4 4.526-7.8 7.1-2.7 2.9-5.5 6.2-8.5 9.8-5.7 7.2-11 13.6-14.2 18.6-1.34 1.984-2.54 4.055-3.6 6.2l-1.3 2.3c.05-.237.12-.471.2-.7l.8-1.8c.97-2.182 2.11-4.288 3.4-6.3a202.82 202.82 0 0 1 14.1-18.9c2.9-3.6 5.7-6.9 8.5-9.8a66.95 66.95 0 0 1 8-7 34.09 34.09 0 0 1 6.1-3.7l1.7-.8c.4-.2.8-.3.8-.2z"/><path d="M1014.218 838c-1.57.38-3.18.614-4.8.7-3.87.361-7.69 1.132-11.4 2.3-3.71 1.158-7.2 2.951-10.3 5.3a31.29 31.29 0 0 0-3.5 3.3c-.1-.1.2-.5.7-1.2.76-.906 1.59-1.743 2.5-2.5a29 29 0 0 1 10.3-5.7c3.76-1.19 7.66-1.896 11.6-2.1a26.93 26.93 0 0 1 4.9-.1z"/><path d="M985.518 847.8c-.3-.1 1.9-3.5 3.6-7.9s1.9-8.5 2.2-8.5c.1.864.1 1.737 0 2.6-.22 2.083-.69 4.132-1.4 6.1-.75 1.953-1.69 3.828-2.8 5.6a8.39 8.39 0 0 1-1.6 2.1zm41.8-68.499a2 2 0 0 1-.8.4l-2.2 1-3.6 1.7-4.6 2.4-2.6 1.5-2.8 1.8a64.08 64.08 0 0 0-5.9 4.1c-4.43 3.28-8.58 6.927-12.4 10.9a115.09 115.09 0 0 0-10.5 12.7c-1.4 2.1-2.8 4.1-3.9 6.1l-1.7 2.8-1.4 2.7c-.9 1.7-1.6 3.3-2.2 4.7-.6 1.168-1.14 2.37-1.6 3.6l-.9 2.3c-.09.253-.23.49-.4.7a3.14 3.14 0 0 1 .2-.8l.8-2.3c.4-1.273.9-2.511 1.5-3.7.6-1.4 1.2-3.1 2.1-4.8l1.4-2.7c.5-.9 1-1.9 1.6-2.8s2.4-4.1 3.8-6.2a99.07 99.07 0 0 1 23.1-23.9c2.1-1.5 4.1-2.9 6-4l2.8-1.8 2.7-1.4c1.7-1 3.3-1.7 4.7-2.4l3.6-1.5 2.3-.9z"/><path d="M993.018 802.4c.32-1.14.98-2.154 1.9-2.9 2.13-1.801 4.81-2.823 7.6-2.9a20.11 20.11 0 0 1 8 1.6 8.5 8.5 0 0 1 3 1.5l-3.2-1a25.53 25.53 0 0 0-7.8-1.3 13 13 0 0 0-7.3 2.6c-.81.728-1.55 1.532-2.2 2.4zm-5.2 5.301c1-2.267 1.71-4.654 2.1-7.1.13-2.445-.03-4.897-.5-7.3.41.649.71 1.357.9 2.1.48 1.757.62 3.591.4 5.4-.23 1.813-.77 3.573-1.6 5.2a10.96 10.96 0 0 1-1.3 1.7z"/></g><path d="M931.718 879.1c1.2 21 7.6 42.4 17.3 64h42.4c9.3-21.4 15.2-42.8 16.3-64z" fill="#bcbec0"/><g class="E"><path d="M1000.818 913.1c0 .2-13.9.4-31.2.4s-31.2-.2-31.2-.4 14-.4 31.2-.4l31.2.4zm-1 7.6c0 .2-13 .4-29.2.4s-29.2-.2-29.2-.4 13.1-.4 29.2-.4l29.2.4z"/><path d="M949.718 892.9a126.94 126.94 0 0 1 0 19.5 126.94 126.94 0 0 1 0-19.5zm22.7 0a113.57 113.57 0 0 1 0 20.2 136.2 136.2 0 0 1 0-20.2zm21.4-.2a141.64 141.64 0 0 1 0 20.6c-.6-6.85-.6-13.75 0-20.6z"/><path d="M1006.318 892.9c0 .2-16.4.4-36.5.4s-36.6-.2-36.6-.4 16.4-.4 36.6-.4l36.5.4z"/></g><path d="M1077.81 469.636c2.03 0 3.676-1.645 3.676-3.675s-1.646-3.675-3.676-3.675-3.676 1.646-3.676 3.675 1.645 3.675 3.676 3.675z" class="B"/><path d="M1191.14 182.028H778.369V503.25h412.771z" fill="#f4f4f4" stroke="#868a91" stroke-width="1" class="AH"/><path d="M862.728 224.23H795.91v3.719h66.819zm-33.798 8.701h-33.02v3.719h33.02z" fill="#b2b6bb"/><path d="M1136.809 466.282v12.34h3.485v-12.34zm-53.888 0v12.34h3.485v-12.34zm-53.881 0v12.34h3.485v-12.34zm-53.889 0v12.34h3.485v-12.34zm-53.88 0v12.34h3.485v-12.34zm-53.889 0v12.34h3.485v-12.34zm-21.267-9.185h-12.108v3.485h12.108zm0-46.585h-12.108v3.485h12.108zm0-87.672h-12.108v3.485h12.108zm0-44.051h-12.108v3.485h12.108zm.612 87.888h-12.108v3.485h12.108z" fill="#61656d"/><g class="M"><use xlink:href="#T"/><use xlink:href="#T"/></g><path d="M1149.274 266.751h-2.422l-7.023.061-26.577.104.182-.086-28.635 37.315h-.164l-71.299.069.346-.19-59.658 99.372-.363-.493-38.633-53.089h.562l-44.99 70.108-2.595 3.969-.917 1.34s.268-.484.865-1.392l2.491-4.021 9.635-15.298 35.208-55.493.294.406 38.754 53.002h-.675l29.405-48.929 30.123-50.071h.225l71.299.069-.259.13 28.731-37.168h.112l26.577.104 7.023.061h1.808l.571.121z" class="B"/><path d="M926.962 362.085a2.75 2.75 0 0 1-1.589 2.636 2.74 2.74 0 0 1-1.595.216 2.75 2.75 0 0 1-1.442-.717 2.74 2.74 0 0 1-.658-3.007 2.74 2.74 0 0 1 2.55-1.723 2.68 2.68 0 0 1 2.733 2.594zm82.238-46.743a2.74 2.74 0 0 1-.411 1.551c-.289.464-.71.832-1.209 1.055a2.75 2.75 0 0 1-3.023-.53 2.74 2.74 0 0 1-.778-1.404 2.73 2.73 0 0 1 .141-1.598c.205-.508.558-.941 1.012-1.246a2.74 2.74 0 0 1 1.535-.466c.353-.007.704.056 1.033.185a2.69 2.69 0 0 1 1.479 1.427 2.66 2.66 0 0 1 .221 1.025zm61.197-8.846c1.509 0 2.733-1.18 2.733-2.638s-1.224-2.638-2.733-2.638-2.733 1.181-2.733 2.638 1.224 2.638 2.733 2.638z" fill="#263238"/><path d="M852.281 251.185v209.277h293.187M864.389 280.588h284.538m-284.106 44.536h284.538M865.254 369.66h284.538m-284.106 44.536h284.538" stroke-width="1" stroke="#000" stroke-linecap="round" class="AH"/><path d="M1190.44 182.003H778.768v25.943h411.672z" fill="#868a91"/><path d="M841.903 380.902a1.73 1.73 0 0 0 1.73-1.73 1.73 1.73 0 0 0-1.73-1.73 1.73 1.73 0 0 0-1.73 1.73 1.73 1.73 0 0 0 1.73 1.73z" fill="#fafafa"/><defs ><path id="B" d="M691.7 296.846c-.57-.79-.85-1.84-.85-3.16s.28-2.37.85-3.16 1.42-1.18 2.57-1.18c1.14 0 2 .39 2.57 1.18s.85 1.84.85 3.16-.28 2.37-.85 3.16-1.42 1.18-2.57 1.18c-1.14 0-2-.39-2.57-1.18zm1.02-5.43c-.33.58-.5 1.33-.5 2.27s.17 1.69.5 2.27.85.86 1.55.86 1.22-.29 1.54-.86.49-1.33.49-2.27-.16-1.7-.49-2.27c-.32-.57-.84-.86-1.54-.86s-1.22.28-1.55.86z"/><path id="C" d="M706.34 303.087h3.11v8.55h-1.37v-7.26h-1.74z"/><path id="D" d="M718.88 310.546c-.58-.81-.87-1.89-.87-3.24s.29-2.43.87-3.24 1.46-1.21 2.63-1.21 2.05.4 2.63 1.21.87 1.89.87 3.24-.29 2.43-.87 3.24-1.46 1.21-2.63 1.21-2.05-.4-2.63-1.21zm1.04-5.57c-.34.59-.51 1.37-.51 2.33s.17 1.73.51 2.33c.34.59.87.89 1.59.89s1.25-.29 1.58-.88.5-1.36.5-2.33-.17-1.74-.5-2.33-.86-.88-1.58-.88c-.72-.01-1.25.28-1.59.87z"/><path id="E" d="M691.61 337.828c-.59-.82-.88-1.91-.88-3.28s.29-2.46.88-3.28 1.48-1.23 2.67-1.23 2.08.41 2.67 1.23.88 1.91.88 3.28-.29 2.46-.88 3.28-1.48 1.23-2.67 1.23-2.08-.41-2.67-1.23zm1.05-5.64c-.35.6-.52 1.38-.52 2.35s.17 1.76.52 2.35c.34.6.88.9 1.61.9s1.26-.3 1.6-.89.5-1.38.5-2.36-.17-1.77-.5-2.36c-.34-.59-.87-.89-1.6-.89-.73.01-1.27.31-1.61.9z"/><path id="F" d="M718.83 337.846c-.59-.82-.89-1.92-.89-3.3s.3-2.48.89-3.3 1.49-1.23 2.68-1.23 2.09.41 2.68 1.23.89 1.92.89 3.3-.3 2.48-.89 3.3-1.49 1.23-2.68 1.23-2.08-.41-2.68-1.23zm1.06-5.67c-.35.6-.52 1.39-.52 2.37s.17 1.77.52 2.37.89.9 1.62.9c.74 0 1.27-.3 1.61-.9s.51-1.39.51-2.37c0-.99-.17-1.78-.51-2.37-.34-.6-.87-.9-1.61-.9-.73 0-1.27.3-1.62.9z"/><path id="G" d="M691.59 351.467c-.59-.82-.89-1.92-.89-3.3s.3-2.48.89-3.3 1.49-1.23 2.68-1.23 2.09.41 2.68 1.23.89 1.92.89 3.3-.3 2.48-.89 3.3-1.49 1.23-2.68 1.23c-1.19.01-2.09-.41-2.68-1.23zm1.06-5.67c-.35.6-.52 1.39-.52 2.37s.17 1.77.52 2.37.89.9 1.62.9c.74 0 1.27-.3 1.61-.9s.51-1.39.51-2.37c0-.99-.17-1.78-.51-2.37-.34-.6-.87-.9-1.61-.9-.73 0-1.27.3-1.62.9z"/><path id="H" d="M718.82 351.486c-.6-.83-.9-1.94-.9-3.32 0-1.39.3-2.49.9-3.32s1.5-1.24 2.7-1.24 2.1.41 2.7 1.24.9 1.94.9 3.32c0 1.39-.3 2.49-.9 3.32s-1.5 1.24-2.7 1.24c-1.21 0-2.11-.41-2.7-1.24zm1.06-5.7c-.35.61-.52 1.4-.52 2.38s.17 1.78.52 2.38c.35.61.89.91 1.63.91s1.28-.3 1.62-.9.51-1.4.51-2.39-.17-1.79-.51-2.39-.88-.9-1.62-.9-1.28.3-1.63.91z"/><path id="I" d="M664.36 365.066c-.59-.82-.88-1.91-.88-3.28s.29-2.46.88-3.28 1.48-1.23 2.67-1.23 2.08.41 2.67 1.23.88 1.91.88 3.28-.29 2.46-.88 3.28-1.48 1.23-2.67 1.23-2.08-.41-2.67-1.23zm1.06-5.63c-.35.6-.52 1.38-.52 2.35s.17 1.76.52 2.35c.34.6.88.9 1.61.9s1.26-.3 1.6-.89.5-1.38.5-2.36-.17-1.77-.5-2.36c-.34-.59-.87-.89-1.6-.89s-1.27.3-1.61.9z"/><path id="J" d="M691.57 365.107c-.6-.83-.9-1.94-.9-3.32 0-1.39.3-2.49.9-3.32s1.5-1.24 2.7-1.24 2.1.41 2.7 1.24.9 1.94.9 3.32c0 1.39-.3 2.49-.9 3.32s-1.5 1.24-2.7 1.24-2.1-.41-2.7-1.24zm1.07-5.7c-.35.61-.52 1.4-.52 2.38s.17 1.78.52 2.38c.35.61.89.91 1.63.91s1.28-.3 1.62-.9.51-1.4.51-2.39-.17-1.79-.51-2.39-.88-.9-1.62-.9-1.28.3-1.63.91z"/><path id="K" d="M718.83 433.198c-.59-.82-.89-1.92-.89-3.3s.3-2.48.89-3.3 1.49-1.23 2.68-1.23 2.09.41 2.68 1.23.89 1.92.89 3.3-.3 2.48-.89 3.3-1.49 1.23-2.68 1.23-2.08-.41-2.68-1.23zm1.06-5.67c-.35.6-.52 1.39-.52 2.37s.17 1.77.52 2.37.89.9 1.62.9c.74 0 1.27-.3 1.61-.9s.51-1.39.51-2.37c0-.99-.17-1.78-.51-2.37-.34-.6-.87-.9-1.61-.9-.73-.01-1.27.29-1.62.9z"/><path id="L" d="M624.56 527.237c-.35-.49-.53-1.15-.53-1.97s.18-1.48.53-1.97.89-.74 1.6-.74 1.25.25 1.6.74.53 1.15.53 1.97-.18 1.48-.53 1.97-.89.74-1.6.74-1.24-.25-1.6-.74zm.64-3.39c-.21.36-.31.83-.31 1.42s.1 1.06.31 1.42a1.04 1.04 0 0 0 .97.54c.44 0 .76-.18.96-.54s.3-.83.3-1.42-.1-1.06-.3-1.42-.52-.54-.96-.54-.77.18-.97.54z"/><path id="M" d="M501.36 910.547v25.3c0 4.1 3.3 7.4 7.4 7.4h86a3.12 3.12 0 0 0 3.1-3.1c0-6-3.9-11.4-9.6-13.3l-19.4-6.4-24.6-19.1c-2.5-2-6.1-1.9-8.6.2l-10.9 9.3c-1.6 1.4-3.8 1.8-5.8 1.2l-13.8-4.3c-2-.5-3.8.9-3.8 2.8z"/><path id="N" d="M543.76 911.447c-.2 0-.4-.1-.5-.2-.3-.3-.3-.8 0-1.1l5.2-5.6c.3-.3.8-.3 1.1 0s.3.8 0 1.1l-5.2 5.6c-.2.1-.4.2-.6.2z"/><path id="O" d="M551.96 917.847c-.2 0-.4-.1-.5-.2-.3-.3-.3-.8 0-1.1l5.2-5.6c.3-.3.8-.3 1.1 0s.3.8 0 1.1l-5.2 5.6c-.1.1-.3.2-.6.2z"/><path id="P" d="M672.32 311.977c-31.18 3.19-59.04-19.48-62.24-50.66-2.9-28.34 15.56-53.94 42.36-60.76 1.44-.26 2.89-.48 4.37-.64 31.18-3.19 59.04 19.48 62.24 50.66 2.92 28.34-15.59 53.94-42.4 60.77-1.42.25-2.86.48-4.33.63z"/><path id="Q" d="M623.03 230.929c.93-1.3 1.4-3.04 1.4-5.21 0-2.18-.46-3.91-1.4-5.21a4.28 4.28 0 0 0-.6-.67l-1.37 1.76c.09.12.2.23.28.37.53.94.8 2.19.8 3.74s-.27 2.8-.8 3.74-1.38 1.41-2.54 1.41-2.01-.47-2.56-1.42c-.02-.03-.03-.07-.05-.11l-1.09 2.2c.91.89 2.14 1.34 3.7 1.35 1.89 0 3.3-.65 4.23-1.95z"/><path id="R" d="M662.28 305.298c-1.94 0-3.4.67-4.36 2.01-.77 1.07-1.22 2.43-1.38 4.07l2.3.36c.09-1.16.36-2.14.81-2.92.56-.98 1.44-1.46 2.64-1.47 1.2 0 2.07.49 2.62 1.46.5.88.76 2.04.8 3.44l2.35-.02c-.06-2.03-.53-3.68-1.42-4.93-.96-1.33-2.42-2-4.36-2z"/><path id="S" d="M684.03 305.298c-1.94 0-3.4.67-4.36 2.01-.69.96-1.12 2.15-1.32 3.56l2.54-.79c.13-.45.29-.88.5-1.25.56-.98 1.44-1.46 2.64-1.47.82 0 1.47.25 1.99.7l2.14-1.03c-.96-1.15-2.33-1.73-4.13-1.73z"/><path id="T" d="M867.072 451.148v-38.915l24.216-37.635 16.432 12.626 33.729-52.449 19.892 14.027 27.675-48.384 22.486 18.333 33.928-64.106 36.324 71.733 29.405-35.897 34.594-9.91v170.621z"/></defs></svg>