<svg xmlns="http://www.w3.org/2000/svg" xmlns:xlink="http://www.w3.org/1999/xlink" width="1275.003" height="890.707" fill="none" xmlns:v="https://vecta.io/nano"><style><![CDATA[.B{fill:#000}.C{fill:#fff}.D{fill:#1db956}.E{fill:#21252b}.F{opacity:.4}.G{opacity:.15}.H{fill:#fc9d9d}.I{fill:#3f4249}.J{opacity:.2}.K{fill:#84888f}]]></style><path d="M1179.246 879.647l84.79-449.94c2.44-12.97.23-26.38-6.25-37.88l-169.85-301.16a56.01 56.01 0 0 0-44.6-28.34l-698.07-52.17c-18.13-1.36-35.79 6.17-47.36 20.19l-275.09 333.25c-10.72 12.99-15.03 30.11-11.73 46.63l93.86 469.42z" fill="#f2f2f2"/><path d="M887.947 96.007l-11.215 1.168a6.59 6.59 0 0 1 2.033 2.312 6.55 6.55 0 0 1 .771 2.984v422.975c-.016 1.598-.615 3.136-1.698 4.315-1.075 1.179-2.555 1.917-4.143 2.072l-127.726 12.773 7.165.701h1.246l134.891-13.474c1.589-.154 3.069-.893 4.143-2.072 1.083-1.179 1.682-2.717 1.698-4.315V102.471c-.008-.908-.202-1.804-.576-2.632a6.5 6.5 0 0 0-1.581-2.177c-.678-.608-1.472-1.069-2.329-1.354-.864-.285-1.776-.387-2.679-.301z" fill="#4d61fc" class="G"/><path d="M746.903 109.325L606.872 95.384h-1.324l-140.031 13.941a3.35 3.35 0 0 1-1.246 0L330.626 96.007a6.54 6.54 0 0 0-2.653.326c-.853.29-1.636.753-2.301 1.36a6.56 6.56 0 0 0-1.565 2.167 6.55 6.55 0 0 0-.568 2.612v422.975c.012 1.598.615 3.136 1.694 4.315s2.556 1.917 4.147 2.072l134.891 13.474h1.246l140.031-14.019h1.324l140.031 14.019h1.246l134.891-13.474a6.45 6.45 0 0 0 4.143-2.072c1.083-1.179 1.682-2.717 1.698-4.315V102.471c-.008-.908-.202-1.804-.576-2.632-.366-.829-.911-1.57-1.581-2.178-.678-.608-1.472-1.069-2.329-1.354-.864-.285-1.776-.387-2.679-.301l-133.567 13.318a3.35 3.35 0 0 1-1.246 0z" class="C"/><path d="M742.308 117.19l-136.137-13.551-136.059 13.551-136.137-13.551v419.86l136.137 13.551 136.059-13.551 136.137 13.551 136.137-13.551v-419.86z" fill="#d6d8e8"/><path d="M747.526 117.19l130.919-13.551v419.86L747.526 537.05zm-282.632 0l141.277-13.551v419.86L464.894 537.05z" fill="#d1d3e0"/><g class="C"><path d="M488.726 189.387s.156 2.804 3.66 2.96 6.542-2.336 10.202 0 6.931 7.477 7.165 10.28-1.012 2.259 1.558 3.583 4.361 2.259 3.115 3.037-4.206 1.869-4.361 3.583 2.57 2.96 4.05 1.636 2.181-.623.701 1.48-3.349 4.439-2.492 7.866 6.698 13.474 8.333 14.019 2.96.779 3.271 1.869 2.804 1.324 3.583 0 .389-6.231 1.791-7.087 2.882-.389 2.336-1.713-.779-3.505 1.09-4.361 7.632-1.636 9.19-4.595 2.492-3.894 5.14-4.751 6.075-.312 8.333-2.648 5.685-4.128 4.517-6.464-2.57-3.66-1.558-5.607 5.062-5.374 4.439-6.542-1.713-.078-1.09-2.259.857-2.259.779-2.804-2.414-.701-2.414-1.48 4.128-.078 4.283-.857-.467-3.583-2.103-4.595-2.492-1.636-1.713-2.96 5.53-5.53 8.723-8.1 4.128-3.115 3.505-3.816-4.206-3.271-6.542-2.103-7.944 2.882-8.333 1.246 2.57-3.583 1.09-4.128-4.751 0-4.751 0a17.37 17.37 0 0 0-11.916-4.128c-7.243.389-10.202 2.726-15.187 2.726s-7.555 1.246-7.866 1.947-4.595.312-4.829 1.012-.234 1.869-1.713 1.324-5.374-1.48-8.723-.078-3.505 3.505-4.829 3.894-7.632 3.037-7.555 4.361 4.283 1.402 3.115 3.037-5.218.857-5.452 1.869-1.558 1.402-3.583 1.947-1.402 2.57-.389 3.271 3.349.078 2.025 1.791-.701 2.492 1.402 2.336zm-12.695.623s-1.402 2.103-3.427 1.324-5.218-1.791-7.009-.623-5.218.078-5.685-1.246 1.324-.935 1.09-2.96.623-2.103.857-2.882-1.402-.779-3.427 0-4.907-1.48-5.374-3.115-4.361-3.66-4.361-4.829 3.427-5.374 5.296-5.374 3.271 2.259 4.439 3.271 2.726 2.181 3.427 1.636-.935-.078-2.414-2.181-4.128-3.271-3.193-4.283 5.218-2.57 7.632-2.492 3.115 2.103 4.673 0 6.386-3.193 17.29-3.193 15.187 1.012 14.564 3.115-5.14 3.115-6.308 4.829-3.583 3.271-5.763 4.984a13.94 13.94 0 0 1-5.763 2.882c-1.168.156-.545 2.96-3.037 5.452s-2.492 3.193-3.505 5.685zm-31.075-12.228s-1.636-1.324 0-1.947 2.648.935 1.869 1.402a3.89 3.89 0 0 1-1.869.545zm1.869 4.751s-.857-.857.701-1.481 3.349.312 4.283 2.104 2.492 1.636 2.492 2.492-1.48 1.245-2.336.934-3.271-2.336-3.972-2.804a10.39 10.39 0 0 1-1.168-1.245zm-11.059-2.57s-.779-1.48 1.402-1.168c1.665.241 3.229.942 4.517 2.025 1.324 1.012 3.816 2.414 3.66 3.271s-2.726 1.168-3.816.779-1.012-.623-2.57-1.713a14.61 14.61 0 0 1-3.193-3.193zm13.24 8.879s.545-1.869 3.505-.779 7.477 5.763 9.268 5.607 4.206.312 4.984-.389 3.583-1.246 5.062-.623 2.96 2.336 2.336 3.349-3.037 1.636-8.567 1.636-8.1-.312-9.112-1.09-1.558-3.816-3.115-5.218-4.283-1.791-4.361-2.492zm-11.838.778s1.713-.701 2.804 0 1.402.623 2.726.312 4.05-.389 4.361.156 1.012 5.218-.701 5.53-3.816.078-4.05-1.168-1.869-1.246-2.492-2.181-1.558-1.246-2.103-1.713-.935-.857-.545-.935zm-15.343-5.14s.935-1.012 1.869-.701 1.012 0 1.09-.623 1.402-3.193 2.804-2.57 3.115 1.869 2.804 3.193-2.882 3.738-4.05 3.66-1.636-.779-2.336-1.246-2.414-1.558-2.181-1.713zm-11.916 6.543s.078-.935 1.869-2.181 6.231-2.804 7.321-2.57a2.03 2.03 0 0 1 1.153.897 2.02 2.02 0 0 1 .249 1.439 1.56 1.56 0 0 0 .143.702 1.54 1.54 0 0 0 .442.564 1.57 1.57 0 0 0 .647.307c.237.051.481.046.716-.015a1.78 1.78 0 0 1 .685-.18c.238-.014.477.02.702.1s.432.203.608.364.319.355.419.572c.467 1.09 3.427 2.492 4.05 1.48s-.234-1.558 0-2.414.857-2.492 2.025-1.48 1.09 2.025 2.025 2.259 2.57 0 2.648.935.467 1.869 1.402 2.025 1.246 1.324 1.012 1.558-2.103.623-4.206.623-3.037-.467-4.595.467-3.193 2.96-5.218 1.48-2.726-2.025-4.907-2.57c-1.696-.339-3.294-1.058-4.673-2.103-.779-.779-4.439-.857-4.517-2.259zm130.997 182.242c-.389-2.181-2.648-2.57-4.439-3.894s-1.48-1.713-5.296-2.336-4.361-.779-5.374-2.181-.857-1.09-4.751-1.947-3.193-1.791-3.972-3.972-1.558-6.386-3.427-7.165-5.841-.701-7.944-3.193-5.14-5.14-9.346-5.296-5.919-1.168-9.579-1.869-5.296 1.636-6.931 3.427-1.947 1.246-3.193.623-1.636-1.09-3.115-.545-3.271-.701-4.283-2.336.234-4.517-.078-7.009-3.115-1.558-5.53-2.492-.701-5.452-.078-7.321-2.181-3.193-3.738-2.414-1.246 2.648-3.193 4.283-3.271 1.713-5.919 0-2.414-5.14-2.336-7.71.312-5.14.312-7.632 3.583-2.57 4.984-3.972 2.96.623 4.128 1.09 1.947-.779 1.791-2.103 6.075-.312 8.333.467 2.414 4.283 2.492 6.308 1.791 3.427 3.193 2.648.779-3.816-.156-5.14-1.713-4.361-1.713-6.075 5.452-6.231 6.931-7.477 2.103-4.206 2.259-6.776 4.751-5.14 6.231-5.997 1.558-1.168 1.09-2.259.623-2.259 2.57-4.206 1.869-1.791 3.037-1.947-1.713 1.246-1.324 2.492 2.025 1.402 3.193-.779 7.087-4.206 7.243-4.984-1.246-2.414-1.869-1.012-2.804 1.402-4.128 0-.935-3.66-.078-5.374-2.648-1.168-2.414-1.947 6.308.078 8.411-.389 2.57-2.648 3.738-2.025-2.648 4.595-3.193 6.153 1.791 2.648 3.972 2.882 4.517 1.402 5.374 0-1.012-3.037-1.168-4.907-.779-1.012-2.025-2.259-.467-5.14-.467-8.178-4.829-4.206-8.1-5.685-3.037-9.891-4.283-10.592-2.181 1.402-3.66 3.271-3.037-1.168-3.583-3.738-1.168-1.324-2.259-3.349-5.919-2.259-8.1-1.947-2.259-.935-3.115-.623-.078 5.374-.156 7.399-.779 1.09-1.48 2.025 2.259 4.128 3.115 6.464-1.48 3.505-2.804 5.218.935 4.439.389 5.763-2.648 1.012-2.882 0c-.03-.436-.149-.862-.35-1.251s-.48-.731-.819-1.008c-.779-.701-.623-3.037-.623-4.751s-2.025-.935-5.14-1.713-5.296-2.492-8.567-4.673-1.48-2.103-2.025-3.193-3.115-1.791-2.804-3.193 2.882-4.751 4.673-8.1 3.816-2.648 5.296-4.283.857-2.492 1.636-2.492-.312 2.804-.545 3.583-.857 1.947 1.09 2.96a2.96 2.96 0 0 0 3.894-1.012c.779-.779 3.037.701 4.751.389s1.09-1.012.234-2.025-4.206-4.595-4.439-5.997 1.636-1.713 3.349-4.439-.857-4.673-1.48-5.919.857-.545 1.947.701 1.869-.156 3.037-1.869 2.259 1.402 3.583 3.738-1.402 1.636-1.168 3.115 1.636 1.713 2.336.701 3.037-2.025 3.427-.545-1.402 2.336-2.882 4.829-5.296.467-5.218 2.492 2.492 2.025 4.595 1.947 4.751 1.558 7.399 3.972 4.829 2.96 5.841 2.103 2.648-1.947 3.427-3.583-3.816-4.595-4.517-5.685 2.726.156 3.972 1.09 3.271-1.09 4.283-3.193-3.738-4.05-5.919-5.685-1.168-3.349-1.947-6.075-6.542-3.583-8.333-4.673-6.386-5.53-8.1-6.698-4.984-.312-5.53-.312-2.882.312-4.361-.312a5.84 5.84 0 0 0-6.931 2.103c-1.947 2.882-.779 6.698.234 7.944s3.972 2.181 5.296 2.57.467 2.025.467 3.583-1.246.935-1.246 2.103-.234 2.259-1.636 2.259-.467-4.206-.935-5.296-1.869-.857-2.025 0-.467.857-1.09.623-.545-1.168-1.713-1.713-.623-2.882-.779-4.751-2.181-2.492-2.726-3.894 4.907-4.595 4.984-5.685-5.218-1.48-6.308-1.012-.467 4.907-.312 6.464-1.09 1.246-2.181 2.882-.234 3.738.234 4.673 2.96 1.558 2.96 3.271-1.869 2.648-2.57 2.336 0-.857.701-2.025-.857-1.791-1.09-2.648-2.492-1.246-3.505-.389.078 2.025.623 3.037-1.09.857-1.324 2.025-4.05 1.09-6.931.701-2.181-2.414-2.181-2.414h3.193c1.324 0 1.791-.779 1.636-1.402s1.09-2.025 1.713-2.804-.312-1.869-2.882-2.96-3.427-4.206-3.816-5.062 2.103-3.505 1.402-4.128-1.402-1.012-2.726.234a6.78 6.78 0 0 1-4.595 1.48c-1.45.029-2.88.347-4.206.935-1.713.623-4.128-1.947-6.776-3.583s-7.788-1.947-9.813-1.869-1.168.857-.935 2.025a1.48 1.48 0 0 1-.857 1.635c-2.804.935-1.012 4.595.078 5.685s1.713 1.713 3.271 2.96 2.726-1.324 4.05-3.349 1.324-3.583 2.181-3.583-1.012 2.726-1.324 4.128.623 1.636.935 2.96 2.882 1.246 4.128 1.012.701.545-.623.701a2.26 2.26 0 0 0-1.625.688 2.28 2.28 0 0 0-.633 1.648c0 1.324 2.804.623 5.14 1.09s.545.467 1.324 1.791 4.283 0 6.542-.156.623.623.467 1.791-4.673.234-6.308.078-2.181-.467-2.336-1.324-2.103-1.324-3.66-1.324-4.439-1.636-5.296-2.57a2.26 2.26 0 0 0-1.451-.632c-.544-.028-1.079.141-1.509.476-.701.389-1.791-.234-2.414-1.012s-1.324.312-3.193.623-1.947-.701-2.882-.779-10.358 2.492-12.617 3.115-4.283-.935-7.71-2.726-3.349-.078-5.919.078-7.321-1.09-11.604-2.336a9.11 9.11 0 0 0-4.786-.09 9.12 9.12 0 0 0-4.171 2.348 20.02 20.02 0 0 1-5.607 3.349c-1.246.467-2.103.234-1.636 1.947s4.751 5.296 4.673 5.919-2.492 0-3.505-.467-4.05 2.025-4.361 2.96.857 2.57 1.48 3.193 7.399.623 8.333.701.389 1.168-1.09 2.025-5.607 2.96-6.231 4.283 1.246 2.414 3.193 4.283.857 1.402 1.246 3.271 3.972 1.324 4.907 1.324 3.505.078 4.206.389-1.246 2.726-3.816 4.128-2.96 1.791-3.583 3.115-2.882 1.246-2.96 2.336 2.336-.156 3.816-1.324 2.025-.701 3.738-1.636 4.361-4.283 5.607-4.439.545 2.492 1.09 2.96 2.648-1.402 2.96-2.414-1.402-1.791-1.947-2.414.467-1.168.701-2.259-.156-1.791 0-2.57 1.48 1.713 1.791 2.96 2.726-.623 3.816-1.636a4.83 4.83 0 0 0 1.48-3.349c0-.935 2.103-.156 2.648.857s1.324 1.947 5.685 1.947 10.28 6.386 12.072 9.112 8.411 8.411 8.411 11.526 4.361 5.997 4.829 8.723.935 8.411 1.246 13.551 5.452 12.928 7.632 15.498 4.128 3.972 4.517 5.919 4.283 6.698 5.14 9.813 4.984 5.607 5.374 4.907-.312-1.402-1.636-3.037-1.947-3.738-3.037-6.542-3.816-4.595-3.972-5.607 3.583 2.103 5.218 5.452 5.997 6.854 7.009 9.579 1.324 4.206 1.791 5.763 11.371 8.022 12.695 7.944 3.972.234 5.374 2.414 5.062 1.402 8.178 2.804 5.763 6.464 7.399 8.489 3.271.156 4.283-.779 1.636 1.869 2.726 4.439 0 2.414-1.713 5.218a22.58 22.58 0 0 0-2.882 8.879c-.055.939-.158 1.875-.312 2.804-.156 1.324 1.09 3.738 2.804 6.931s2.336 7.632 2.96 10.981 8.1 6.542 9.424 8.489-.701 22.975-.857 26.09-1.558 6.464-3.115 10.202-.935 8.1-1.012 10.514.623 2.96.312 4.673-.701 2.259-2.103 4.907-.701 6.464 0 8.411c.624 1.695.941 3.489.935 5.296 0 2.103 2.804 4.128 6.153 5.374s6.698 1.012 7.165 0-4.439-5.685-5.062-7.944 2.181-4.361 3.972-6.931-.545-3.349-1.09-5.53 2.025-1.713 2.103-2.726 1.48-2.336 2.492-3.894-.389-2.259-.857-3.583 1.09-.389 2.804-1.324.467-2.103.545-3.037 5.218-.467 7.399-2.57-.156-4.517-.389-5.919 1.558-.312 3.271-.389 5.374-6.075 7.555-9.969 2.181-5.685 2.181-7.555 4.05-4.751 8.489-6.386 5.53-10.28 5.296-12.928 1.09-5.14 3.193-7.555 4.05-6.698 3.738-8.879zm-71.34-99.221c2.181 1.09 3.583.779 3.66 1.791s-1.324.701-1.713 1.869-1.558 2.025-1.869 1.168 0-1.402-.545-2.414a14.63 14.63 0 0 0-1.09-1.791s-.623-1.636 1.558-.623zm-3.972 2.336c-.701 1.324-2.103 1.012-1.869 2.726s.857 2.804.312 3.583-1.713 1.168-1.791 0c0 0-.389-3.115 0-4.517s1.947-3.738 2.726-3.816 1.402.701.623 2.025zm-7.555-4.595a4.52 4.52 0 0 1 2.259-2.336c1.558-.623 1.168-2.025 2.414-1.168s3.894 2.025 2.882 3.037a14.21 14.21 0 0 1-1.558 1.558c-.701.467-1.324-.389-1.791-.935s-1.947-.467-3.037.156-1.402.156-1.168-.312zm99.456-45.326c-.337-.167-.623-.421-.829-.737a2.11 2.11 0 0 1-.34-1.055c-.078-1.324.389-2.96 1.713-2.025s1.09 1.402 3.738 1.168 7.321-.623 8.022.623.156 2.492-.467 3.505-1.324 2.726-2.726 2.882-4.128.389-5.062-.545-2.882-1.48-3.193-2.025a8.45 8.45 0 0 1-.857-1.791zm51.48-43.848a2.56 2.56 0 0 1-1.157.146 2.59 2.59 0 0 1-1.102-.379c-1.168-.779-1.402-3.271-.389-5.062s3.193-.156 4.751-.857 1.324-1.403 3.505-.857 2.025.624 2.96-.233 3.505-1.402 6.931-1.012 5.763.467 5.374 1.558-1.636 3.427-3.193 3.816-2.804-.312-4.439-1.09-4.907-1.791-4.05-.935a63.31 63.31 0 0 0 5.997 4.673c1.869 1.324 3.505 1.869 2.259 3.427s-4.05 3.971-4.751 2.258-.935-4.828-1.791-4.984-2.259 1.402-2.492 2.492a15.88 15.88 0 0 1-1.869 3.583c-.779 1.168-2.804.233-3.505-1.481s-2.025-1.869-2.259-3.115.156-2.025-.779-1.947zm44.86-9.969c.475-.38 1.04-.631 1.641-.726s1.217-.033 1.786.181c2.259.545 1.947.935 3.972.545s2.804-1.558 3.427-.312-.779 1.713-1.869 2.882-2.259 1.713-3.427.857-.234-1.713-2.181-1.947-4.128-.389-3.349-1.48zm14.486-1.246c.467-.545 1.012-.156 3.037-1.947s4.283-4.439 4.751-2.414-1.558 3.349-1.09 4.751 1.324.623 3.115 0 2.492-.078 4.05-1.791 4.751.857 2.882 2.259-3.505.156-4.283 1.558-3.505.545-5.374 1.324-5.062 1.168-5.062-.545-3.349-1.48-2.025-3.193zm4.517 37.695a6 6 0 0 1-.717-2.843 5.99 5.99 0 0 1 .717-2.843c1.636-2.882 3.427-4.751 4.984-7.009s2.259-2.025 5.374-3.349 7.477-2.57 7.321-4.517-3.816-3.816-5.296-1.402-2.726 1.558-5.062 2.57-4.206.389-6.075 2.804-9.969 10.28-9.424 12.15 1.246.857 3.271 2.648 4.673 4.128 4.907 1.791zm-89.097 55.607s1.324-.935 4.751-1.402 5.14-1.869 4.206-5.062-4.907-5.763-4.829-7.555 2.336-3.349.467-3.894-3.037-.779-3.115-1.558-1.168-1.558-2.414-.701-3.193 1.246-2.259 3.193c1.063 2.315 2.286 4.553 3.66 6.698 1.09 1.636 1.713 1.713 1.168 3.037s-3.115 1.558-3.037 2.492 1.48 1.558.857 2.57-1.09 2.804.545 2.181z"/><path d="M575.953 261.739a4.44 4.44 0 0 0 4.361-1.869c1.558-2.414 1.012-2.181 1.713-3.894s-.701-4.907-2.57-3.972-1.869 1.791-3.037 4.829-2.103 4.206-.467 4.907zm26.558 19.237s.078-1.402.857.389-.156 2.96.623 4.283-.701 3.505-.701 3.505-1.713-.389-1.48-2.96l.701-5.218zm-8.957 5.997a2.25 2.25 0 0 1 1.48 0c.545.389.623 1.402 0 1.558s-2.96-.545-1.48-1.558zm32.243 9.735a1.72 1.72 0 0 1 .564-.696 1.71 1.71 0 0 1 .838-.316c1.09-.078 2.57.623 1.558 1.012s-3.193.389-2.96 0zm226.324-83.178c-5.841-2.96-8.333-2.414-10.748-2.492s-1.402.623-1.947 1.48-1.402-.234-2.57-.857-9.813-.078-11.76-.389-1.402-1.48-2.414-3.115-4.128-1.168-7.944-.623-4.439-3.427-7.009-4.907-7.009-.156-10.748.389-2.96 1.869-3.193 3.037-5.14.857-7.944.467-.701-1.012-1.869-1.324-1.558.234-2.181 1.947-1.713.545-1.947-.545a11.22 11.22 0 0 0-1.09-2.882c-.701-1.246.389-.623.467-2.804s-5.374-2.648-7.009-2.57-2.96 2.492-5.53 2.57-6.776-.234-9.735-1.713-2.259-2.336-3.505-2.103-2.57 1.791-3.037 2.57-2.492 1.636-2.492.545 2.336-1.558 2.804-3.037 2.025-.545 3.037-1.246a13.56 13.56 0 0 0 2.726-2.492 2.33 2.33 0 0 0 .442-1.674 2.34 2.34 0 0 0-.832-1.519c-.857-.779-7.399-1.636-9.034-1.636s-1.713-2.181-3.738-2.648-6.542.857-9.346 3.427-8.333 1.636-10.436 1.713-5.919 4.361-7.087 6.231-4.517 1.558-6.931 1.947-2.259 2.882-2.57 4.595-5.062.623-5.997.623-1.09-2.181-2.103-2.57-.156 1.168-.935 2.57-.234 2.025-.857 3.816.467 3.271.701 5.14.312 1.713-.779 1.713-.779-1.636-.779-3.271-.389-3.115-.156-4.595a10.89 10.89 0 0 0 0-3.894c-.234-1.168-1.012-1.168-1.713-3.037s-1.09-.857-1.869 0-.779 2.259-2.414 4.05-3.427 4.283-3.115 5.685 2.96 3.972 2.103 4.984-3.505-.389-5.062-1.324a7.09 7.09 0 0 0-4.439-1.012c-1.636.078-.857-1.09-1.636-2.648s-2.181-.389-2.181 1.012 1.168.857 1.869 2.025.156 1.48 0 2.414-3.349.623-6.931.623-2.492-.935-3.193-.935c-.901-.015-1.794.181-2.605.574a5.79 5.79 0 0 0-2.068 1.685c-1.48 2.103-3.037 2.336-4.907 2.414s-1.558-4.984-2.648-4.907-1.558 3.583-1.558 5.841-.623 2.181-2.96 1.869-2.492 1.791-3.816 3.427-1.402-.857-2.57-.156-1.168 2.414-2.181.701a1.87 1.87 0 0 1-.396-.942 1.86 1.86 0 0 1 .158-1.01 1.87 1.87 0 0 1 1.64-1.086c1.246 0 4.206 0 6.231-1.636s.389-3.738-2.414-4.829-9.969-4.283-11.994-5.218-1.558-.857-1.713-1.869-6.542-2.259-9.112-1.869-4.128 2.414-8.022 5.296-8.645 9.657-9.969 12.227-6.698 7.555-8.645 9.657.078 5.374.234 6.308 1.48 3.66 3.271 3.193 2.181-1.869 3.271-2.96 1.324 2.025 2.103 3.738-.156 4.517-.779 4.595-.234-2.57-1.012-3.505-2.648 1.558-3.115 2.492 1.246 3.427 1.558 4.673-.234 1.558-2.648 1.947-5.841 6.931-7.243 8.956-4.128 1.947-5.919 1.947-3.427.234-3.894 1.48 2.103 2.726 4.206 4.439.312 4.361 0 5.919-7.555.234-8.956.701-1.713 2.882-1.713 2.882v5.997c0 5.374 1.558 3.271 3.583 4.751s.857 2.181.857 2.882-.857 2.804-2.882 4.907a15.89 15.89 0 0 0-3.816 8.411c-.623 3.271-4.206 4.829-5.919 7.399s-2.336 9.891-2.103 11.994-.234 2.57-1.09 5.997 3.738 6.776 4.517 9.813 6.776 7.944 8.567 9.502 5.452-.779 6.931-.935 1.713.779 3.738-.234 6.62-2.492 7.087-1.168 4.907 2.259 6.464 3.583.701 5.062.701 8.567 3.894 7.243 4.751 11.604 1.012 9.735-.623 14.097 1.246 8.879 2.259 11.137 1.09 6.776 1.558 10.047 2.414 4.751 3.894 7.788-.156 6.931 2.025 7.944 5.919-1.947 8.333-2.259a11.83 11.83 0 0 0 6.464-3.037c1.869-1.791 2.882-5.685 3.66-6.854a11.21 11.21 0 0 0 1.713-5.374c.078-1.869 3.037-2.726 4.05-4.984s.234-2.804-.389-5.14 1.791-4.829 4.829-6.62 2.882-4.05 2.882-5.841.467-5.218-.234-7.788-1.713-5.685-1.713-8.178 5.763-7.321 9.112-12.072 8.801-13.629 8.1-15.81-4.751-1.558-6.464-.857a3.81 3.81 0 0 1-2.871.079 3.82 3.82 0 0 1-2.113-1.948c-1.012-2.025-3.583-3.972-4.984-7.866s-2.57-3.427-3.271-6.231a64.56 64.56 0 0 0-4.439-11.215c-1.48-2.726-.467-2.181.701-2.414s3.894 4.829 4.907 8.178 1.869 4.283 2.804 7.243a90.89 90.89 0 0 0 4.984 10.981c.701 1.09 3.271-.312 6.62-2.025s5.607-2.025 7.477-3.583 9.112-8.956 9.346-10.28-.545-2.259-1.713-3.583a16.98 16.98 0 0 0-4.751-3.193c-1.402-.701-3.037 1.012-3.816 1.48s-2.259-.234-2.414-1.947-2.96-4.05-3.738-5.296-.156-3.894 1.012-4.206 5.997 5.607 6.931 7.009 3.583.701 4.439 1.246l5.296 2.336c1.246.623 6.464-.545 7.788 0s3.349 3.349 3.894 4.517 3.193 2.726 3.738 2.414 1.791.701 1.713 1.947.701 4.439 1.636 6.542 3.271 8.333 3.349 10.67 2.259 4.439 3.427 4.05 1.713-2.259 2.259-3.427.701-2.726.935-3.427-.156-4.751-.156-5.685 4.206-2.336 6.776-4.595 3.193-4.907 3.894-6.153 3.115-.467 3.738-.857 1.791-.857 2.025.156 1.791 1.791 2.96 3.115 1.012 2.414.857 3.894.545 3.66 1.09 3.583 2.336-1.558 3.037-1.713.545 1.48.935 3.193.935 1.791 1.402 2.726-.078 5.452-.078 6.854.467 1.012 1.402 3.037a26.88 26.88 0 0 1 1.791 5.997c.234 1.636 3.583 5.062 4.361 4.984s.623-2.414.623-4.361-.545-2.414-2.648-4.517a23.85 23.85 0 0 1-3.583-4.751c-.389-.701-.935-1.947-.467-3.037s.545-2.181 1.168-3.505 1.324 0 1.791.935 1.791 1.324 3.349 3.037 1.558 1.246 2.103 2.414 1.791 1.168 1.947-.623 2.648-2.259 3.816-3.738.545-4.673-1.012-7.321-2.882-3.738-3.583-6.308 5.841-3.115 7.087-3.349c2.349-.765 4.618-1.755 6.776-2.96 1.947-1.09 4.517-3.349 5.14-5.14s3.66-3.894 4.439-7.477-2.025-9.112-2.648-11.137 2.025-1.636 2.804-3.193.857-2.181-.389-2.648-1.947.234-2.96 1.246-1.324-.312-1.636-1.246 3.193-3.427 3.115-2.492 1.402.701 2.882.467 2.414-.545 2.726 1.246.545 1.558 2.492 2.804-.234 3.738.078 4.907 3.894-.857 4.673-2.259-1.402-5.14-2.336-7.165 1.636-2.57 2.96-4.439 3.816-2.103 5.763-2.57 4.283-5.452 5.374-7.009 4.283-6.698 4.361-9.112.078-3.427 1.402-3.505-.156 9.735-.312 11.137 1.713.779 1.713.234 2.259-.623 2.336-1.168-1.168-3.972-1.168-4.517 1.713-1.48 1.558-3.037-1.168-1.791-1.168-3.66.467-6.62-1.09-6.542-.779 1.48-1.324 1.402-1.713-2.025-3.427-1.012-1.947 1.636-3.427.467-.623-1.168-1.246-2.103 7.944-9.268 10.28-10.826 10.202-1.012 11.76.078 1.791.779 3.816.312.623-.779 1.558-3.349 3.037-2.414 4.517-2.648 1.402.623 2.726 2.025 2.882-1.168 4.361-3.271 1.947-.467 1.558.701-4.751 3.115-5.685 4.751-5.374 5.296-6.153 7.321-1.09 13.24.701 13.629 4.673-6.776 7.399-9.112 2.414-3.037 2.492-5.841 1.246-4.206 1.869-5.685 5.997-.389 9.424-.857 7.866-4.439 8.178-5.218 2.882-.857 3.894-2.025-1.324-3.115-1.402-3.66 2.103-.857 4.206-2.259 1.012-1.947 2.259-2.336 4.05 3.193 6.698 3.738 1.713-1.636 2.414-3.037 2.103-1.324 2.103-2.025-10.358-6.386-16.199-9.346zm-242.523 38.318c1.947-.467 4.595-1.324 5.296-2.96s3.037-2.882 1.713-2.96-2.181 1.09-1.869-.467 3.037-3.66 2.726-5.374-2.025-2.882-2.025-3.972.234-4.05 2.492-5.14 4.05-1.246 4.05-3.037.467-3.427 1.636-3.427 3.505.234 2.726 1.713-2.96 2.336-3.193 4.128-3.037 3.816-2.804 5.218 2.181 4.595 3.972 4.517 2.882-1.48 5.062-.779 2.103.623 1.324 1.246-7.399 1.09-7.555 1.791-1.09 1.558-1.791 4.361-1.012 6.075-2.414 6.854-2.726-.234-5.53.545-5.14 1.09-6.698 0c-.312-.234.935-1.869 2.882-2.259zm28.037 52.181c-2.492.312-1.947.545-3.738.701a9.57 9.57 0 0 1-6.075-1.324c-1.713-1.246-4.206-3.193-5.218-2.103s-2.259 4.439-4.595 3.972-5.14-4.283-7.243-4.829-3.816-1.09-3.894-3.037-1.09-5.374-1.947-5.296-4.517.234-6.542.467-7.632-.779-8.255.234-2.259 2.181-4.439 3.115c0 0-1.947 0-1.012-1.402s4.128-.779 4.907-2.882.234-5.763 1.48-6.386 2.336.545 3.193-1.791 1.09-3.972 2.336-3.972 1.558 2.025 3.349.779 2.103-3.583 4.05-1.713 3.271 3.66 4.673 4.751 4.206 2.181 4.283 4.361 1.791 2.336-.467 2.96-3.894-.389-3.816.701 1.012.701 1.48 1.636 2.648 1.636 2.96.389 1.246-2.259 1.947-3.349a3.43 3.43 0 0 0 .779-3.115c-.234-1.324-1.324-3.349-3.66-5.374s-4.751-5.374-3.505-5.685 7.788 6.231 8.879 8.567 1.09 2.882 2.57 4.128 2.025 1.791 2.414 3.66 2.492 1.947 2.57.701 1.324-1.246 1.324-2.259-1.713-1.09-1.558-2.96.467-4.595 1.558-2.96.857 4.283 2.103 5.53 2.181 2.181 3.66 3.972 1.713-.389 4.206-.545 1.713 3.115 2.96 2.259.935-1.869 1.402-1.168.701.467.701 2.57-1.246 6.386-3.816 6.698zm8.178-19.237c-1.636-.312-3.349-4.283-5.841-3.271s-6.075 2.259-7.71 1.246c0 0-1.947-.545-1.09-3.193s1.713-5.919 3.66-5.997 2.804 3.193 4.128 2.804 3.037-1.324 4.361-.234 5.919 4.283 7.087 5.218-2.96 3.738-4.595 3.427zm23.364.389c-1.09.935-2.259-.078-1.402 1.713s2.336 4.907.623 5.685-5.841.779-6.698-1.947 2.57-3.972 1.713-5.841-3.972-4.439-3.738-8.1c-.146-.794-.036-1.614.315-2.342a3.82 3.82 0 0 1 1.632-1.708c2.414-1.246 5.997.935 7.087.935s.234 1.636-1.48 2.103-3.894 1.48-3.271 2.414 1.713 4.283 3.193 4.907 3.037 1.324 2.025 2.181zm-7.944 98.443c-.674.181-1.28.559-1.738 1.087s-.748 1.179-.833 1.872c-.467 2.492-5.218 3.66-4.907 5.374s1.324 3.271.234 5.062-1.558 3.894-.857 5.452.078 4.283 1.947 5.452 5.062-2.181 6.153-8.567 2.336-8.255 2.648-10.202-.779-6.075-2.648-5.53zm45.795-39.564a4.83 4.83 0 0 1 1.583 1.403c.417.579.701 1.243.831 1.945.312 2.414-1.246 3.738-2.414 3.738s-1.012-2.726-.623-4.283.312-2.414.623-2.804zm41.589-17.134s0-1.869 1.558-2.336 3.583 0 2.181 2.336-3.894 2.259-3.738 0zm18.224-12.305c.467-.234 1.402.389 1.48 1.558s-.467 4.128-1.48 4.751-2.336 0-2.025-2.025 1.246-3.972 2.025-4.283zm-1.013 13.005s2.492 1.168 2.492 2.96-1.168 2.336 0 3.738 4.361 5.218 4.595 6.386-.389 2.57.389 3.349 2.648 3.037 1.324 5.607-2.259.857-4.128.857-2.181-1.402-2.181-2.336 1.713-3.271 1.48-4.128-2.492-1.791-2.414-3.427-.779-2.648-1.558-4.128-1.168-1.558-1.09-3.505-.312-2.259 0-3.427.389-2.336 1.09-1.947zm-1.713 15.577s.623-1.324 1.168-.935.312 1.869-.545 2.96-2.804 1.791-2.726 1.012 2.025-1.947 2.103-3.037zm-13.084 21.573l-1.402-3.037c-.467-1.246.234-3.271 1.947-4.283s4.361-3.505 5.919-5.53 2.804-3.894 3.66-3.271 1.324 1.713 1.791 2.025 1.791.623.857 1.947-1.558 1.012-1.48 2.336 0 2.103 1.168 2.96.545 1.246.078 1.636-2.181 1.636-2.181 2.336a8.87 8.87 0 0 1-.389 2.882c-.389 1.09-.857 3.271-2.414 3.583s-2.648-.779-4.361-1.558-2.726-1.09-3.193-2.025zm-21.573-12.305a1.09 1.09 0 0 1 .545-1.246c.779-.389.779-1.168 3.193 1.246s4.206 3.66 6.153 5.452 2.259 3.271 3.037 4.595 3.349 1.324 3.738 2.025-1.012 2.336-1.012 3.193-.935 3.427-1.791 3.505-5.607-5.218-6.308-7.009a50.56 50.56 0 0 0-3.505-6.776c-1.012-1.558-4.05-4.361-4.05-4.984zm4.906 10.904s-.467-1.246 0-1.324 1.09.389 1.48 1.791-.078 2.181-1.48-.467zm12.929 2.725s-.623-.623.545-1.012 1.869 0 1.246 1.012-1.791 0-1.791 0zm.934 8.411s-2.57-.701-3.037-1.48a1.56 1.56 0 0 1 .336-1.626 1.57 1.57 0 0 1 .748-.432c.285-.07.584-.059.863.033 1.558.467 2.103 1.869 3.583 1.713s2.96-.312 4.283.467a12.22 12.22 0 0 0 3.816 1.791c1.48.312 3.894.467 4.05 1.09s-.935 1.324-1.713 1.168c-1.396.016-2.78-.276-4.05-.857a9.27 9.27 0 0 0-4.984-.779c-.623.156-3.894-1.09-3.894-1.09zm18.069 3.972s-1.869-.935-1.869-1.402 1.246-.779 1.636-1.09a2.91 2.91 0 0 1 1.09-.61 2.87 2.87 0 0 1 1.246-.091c1.012.312 1.791.701 1.09 1.246s-1.558-.078-1.713.779a1.48 1.48 0 0 1-1.48 1.168zm4.361.001a1.48 1.48 0 0 1 .242-.682c.136-.204.32-.371.537-.486.857-.545 1.012-.779 1.791-1.324s2.181-.935 2.57-.234-1.246 2.025-1.558 2.181-.312 1.636-1.324 1.713-2.259-1.168-2.259-1.168zm-5.452-8.1s-.545.545-.545-.312.078-1.791-.234-2.181-1.869-1.324-1.168-2.882 1.168-1.713 1.402-2.57.857-3.505 1.713-3.505 3.66.234 4.283 0 2.025-.467 1.791 0-1.246.701-2.648 1.09-3.505-.312-3.505.312-.312 2.181.467 2.259a3.27 3.27 0 0 0 2.103-.545c.545-.389 1.324-.623 1.402 0s-.467.623-1.012 1.012-1.246.234-1.012 1.246a5.45 5.45 0 0 0 .779 2.259c.389.467 1.09 1.869.857 2.259-.185.197-.427.332-.691.388a1.33 1.33 0 0 1-.789-.076c-.623-.156-1.48-.935-1.636-.701s-1.09 1.791-1.558 1.947zm10.904-12.54a.79.79 0 0 1 .147-.346c.076-.102.178-.182.293-.236a.78.78 0 0 1 .368-.072.79.79 0 0 1 .36.109c.935.467 2.414 1.558 2.181 2.336a2.17 2.17 0 0 1-.675.784 2.18 2.18 0 0 1-.96.384c-.467.078-2.103 1.168-1.947-.312l.234-2.648zm-1.792 9.502c0-.156-.857-1.48 0-1.558s.857-.389 1.246.234.623 1.09.312 1.324a5.12 5.12 0 0 1-1.558 0zm2.882-1.558a5.61 5.61 0 0 1 2.259-.156 5.39 5.39 0 0 1 1.791.857c0 .234.234 1.246-.389 1.324s-1.168-.389-1.947-.389-2.103-.701-1.713-1.636zm3.115-2.881s1.791-3.427 3.66-2.648 2.181 2.648 2.57 3.349.312 1.713 1.402 1.48.312.234 1.402-.467 1.869-1.324 3.037-1.012 4.517 1.947 6.464 2.648 4.283 1.168 4.829 2.181 1.09 2.882 1.713 3.583 1.713 3.427 2.648 4.206 2.882 2.259 2.804 3.115-3.193 1.09-4.05-.234-4.361-4.439-5.14-4.361c-.903.174-1.724.639-2.336 1.324-.545.545-2.103 2.025-3.271.779s-1.713-1.636-2.882-1.636-2.336-.389-2.336-1.09-.623-3.972-1.869-4.829-4.595-1.713-5.53-3.271-3.037-2.259-3.115-3.115zm5.063 8.334s.078-.389.623-.312 1.168.467 1.012 1.012 0 .779-.389.857-1.947.078-1.246-1.558zm21.106-.312s.701-1.48 1.324-1.558 3.349-.389 3.738-.935-.234-2.492.312-2.804 1.869.935 2.414 1.791.701 1.558 0 2.181-1.246 1.869-2.492 2.259-1.791.935-2.804.701-2.414-1.09-2.492-1.636zm-7.477 9.112s.389.156.935 2.181c.548 1.668 1.393 3.225 2.492 4.595.623 1.012 1.012 3.505 1.324 4.907s2.259 3.583 4.05 5.452 7.555 9.112 7.555 13.084-3.037 9.657-4.128 11.916-1.713 5.607-2.103 6.931-3.427 1.791-4.751 2.648-3.894.545-5.997 0-6.231-5.685-7.71-6.075-2.259-.389-2.726-1.791-5.763-5.296-6.698-5.14-6.62.623-8.178 1.947-1.324 2.336-3.505 2.648a15.71 15.71 0 0 0-5.14 1.09c-1.48.623-5.607 1.246-5.997-.312s.078-5.997-.935-9.579a25.16 25.16 0 0 1 0-13.629c1.558-5.218 8.489-3.66 10.826-6.464s6.308-9.112 7.944-8.879 1.402 1.48 2.492.545 2.492-3.505 4.05-4.05 3.349.234 4.206.234 3.037-.467 2.726.935-1.324 2.726-.935 3.583 3.271 3.115 4.673 4.05 3.271 1.869 3.583-.701-.234-7.087.545-8.255.701-1.713 1.402-1.869zm2.181 56.542s.545-1.012 2.726-1.012 2.648.078 3.115-.545 1.324.779 1.09 1.558-.156 2.181-1.168 4.206-1.713 2.648-2.882 2.492-1.168-1.09-2.103-3.115-1.402-2.96-.779-3.583zm40.498-13.007c0-.156-.467-1.402.623-1.168s2.259 2.804 3.037 4.128 2.492 1.636 2.882 2.96.701 1.012 1.48 1.636.623 1.713.312 2.648-3.816 5.374-4.361 4.361-.312-1.869-1.246-2.648-1.48-1.246-1.012-1.947 2.103-1.636 1.713-3.427-1.791-2.414-2.492-3.583a9.66 9.66 0 0 1-.935-2.96zm-.467 13.552a1.28 1.28 0 0 1 .366-.519 1.26 1.26 0 0 1 .576-.272 1.24 1.24 0 0 1 .631.048c.202.071.389.192.53.354 1.402 1.09 2.259 1.246 1.48 2.726s-2.492 3.738-3.271 4.128-1.246 0-1.168 1.48-2.414 4.984-3.738 5.14-4.595-.857-3.427-3.583 4.751-3.427 5.218-4.673a5.48 5.48 0 0 1 1.324-2.181 14.47 14.47 0 0 0 1.48-2.648zm-24.922-65.342s-.078-1.636.467-1.713 1.246 1.012 2.726 1.869l3.972 2.414c1.012.545 2.259.935 2.414 1.869s2.414 3.271 1.012 3.271-2.181.623-2.882-1.012-1.402-1.869-2.492-2.882-2.414-1.012-3.037-1.869a9.75 9.75 0 0 0-2.181-1.947zm-35.281-68.537s-1.791-2.181-1.012-3.505 1.869-3.894 3.193-4.206 4.206.078 5.452-1.09 5.062-4.751 5.53-6.854-.078-7.788.701-8.178 2.025-.545 2.181-1.558.467-2.57 1.324-2.804 1.869 2.726 3.894 1.947 2.336-.779 3.271-1.402-.389 1.947-1.168 3.271-1.246 3.894-3.738 3.583-3.505-1.48-3.349-.156.857 1.246.857 3.972-2.181 2.804-2.103 5.218 1.324 4.595-1.869 5.997-10.903 1.402-11.137 2.882-.701 3.271-2.025 2.882zm14.33-108.645s-3.271 1.246-3.972 0-1.324-4.128.312-4.361 3.115 1.012 5.53.623 3.349.078 3.816 1.168.779 2.103-.779 2.648a11.36 11.36 0 0 1-4.907-.078z"/><path d="M798.227 200.602s-3.115-.234-3.193-1.402-.156-2.726 1.246-2.336c1.54.388 2.942 1.197 4.05 2.336.623.857 0 1.869-2.103 1.402zm6.153-6.776a1.71 1.71 0 0 1 .417-1.136c.273-.315.65-.521 1.063-.578 1.636-.312 3.037.467 3.972.857s2.336.935 1.246 2.181-2.804 1.87-3.193 1.013a4.37 4.37 0 0 0-1.713-1.403s-1.947-.311-1.791-.934zm45.638 13.785s1.402-2.414 2.804-2.57 2.414.935 3.037 1.324 1.402 2.181 0 2.492-6.776 1.324-5.841-1.246zm-125.077-30.219s-2.414-.857-1.324-2.648 3.271-2.336 4.984-3.115a3.28 3.28 0 0 1 2.375.106 3.27 3.27 0 0 1 1.675 1.685c.623 1.402 2.492 1.791 2.882 3.115s0 3.505-1.168 4.128-5.997.467-6.698-.935-2.726-2.336-2.726-2.336zm10.046 5.764a5.76 5.76 0 0 0 2.103-2.492c.935-1.869 2.025-3.349 3.738-2.492s3.738 2.57 2.882 3.66-.234 1.012-2.96 1.636-5.452 0-5.763-.312zm-5.763 4.596s-1.402-1.402-.389-1.791 2.259-.701 2.414.389-.857 1.246-2.025 1.402zM661 215.633s-2.025-.545-1.402-1.947 4.206-1.558 4.439-.935-.467 2.103-.857 2.414a7.81 7.81 0 0 1-2.181.467zm-42.211 31.231a5.06 5.06 0 0 0-4.476 4.989c-.009 1.234.432 2.429 1.242 3.361a5.06 5.06 0 0 0 3.155 1.697h.079a5.06 5.06 0 0 0 0-10.046zm0 0a5.06 5.06 0 0 0-4.476 4.989c-.009 1.234.432 2.429 1.242 3.361a5.06 5.06 0 0 0 3.155 1.697h.079a5.06 5.06 0 0 0 0-10.046zm0 0a5.06 5.06 0 0 0-4.476 4.989c-.009 1.234.432 2.429 1.242 3.361a5.06 5.06 0 0 0 3.155 1.697h.079a5.06 5.06 0 0 0 0-10.046z"/></g><path d="M1229.546 880.707H59.676a.56.56 0 1 1 0-1.18h1169.98a.56.56 0 0 1 .59.59c0 .35-.35.59-.7.59z" fill="#b0b4b9"/><path d="M708.031 828.602s-.542 6.193-1.268 8.236c-3.053 8.556-12.755 11.277-21.36 14.084l-47.19 16.694c-4.247 1.354-3.73 7.572.726 7.572h5.909c.726 1.034 1.97 1.662 3.324 1.662 1.243 0 2.696-.628 3.632-1.453.098-.098.209-.098.308-.209h.825c.098.099.308.099.419.308.726.825 1.871 1.453 3.115 1.453 1.145 0 2.487-.517 3.423-1.243.419-.419 1.145-.308 1.453.098.628.726 1.453 1.145 2.487 1.145.936 0 2.068-.419 2.905-1.034.419-.308 1.034-.209 1.354.098.628.517 1.354.936 2.278.936 1.243 0 2.278-.726 2.795-1.662h.419l62.887-.936c6.34-.16 11.684-4.814 12.939-11.031l5.171-29.486z" class="H"/><g class="B"><path d="M737.246 830.856l-29.695 1.379 31.431 8.569-3.706 14.908c-1.514 6.057-6.833 10.502-13.075 10.662h-.172l-62.653.936c-.517 1.034-1.662 1.662-2.795 1.662-.825 0-1.662-.308-2.278-.936-.419-.308-.936-.419-1.354-.098-.825.628-1.97 1.034-2.905 1.034-1.034 0-1.871-.419-2.487-1.145-.419-.419-1.034-.419-1.453-.098-.936.825-2.278 1.243-3.423 1.243-1.243 0-2.388-.517-3.115-1.453-.098-.099-.209-.209-.419-.308h-.098l-.936.308c-.308.098-.517.209-.726.308-.098.098-.308.209-.419.308-2.905 2.068-2.068 7.054 1.871 7.054h5.909c.726 1.034 1.97 1.662 3.324 1.662 1.243 0 2.696-.628 3.632-1.453.098-.098.209-.098.308-.209h.825c.098.099.308.099.419.308.726.825 1.871 1.453 3.115 1.453 1.145 0 2.487-.517 3.423-1.243.419-.419 1.145-.308 1.453.098.628.726 1.453 1.145 2.487 1.145.936 0 2.068-.419 2.905-1.034.419-.308 1.034-.209 1.354.098.628.517 1.354.936 2.278.936 1.243 0 2.278-.726 2.795-1.662h.419l58.393-.936c11.179 1.601 14.417-4.26 16.805-8.618l5.897-31.898z" class="G"/><path d="M682.497 851.956s9.123 16.079 26.236 21.877h-17.322z" class="G"/></g><g class="D"><path d="M635.726 879.645h107.036c1.551 0 2.905-1.243 2.905-2.905 0-1.551-1.243-2.905-2.905-2.905h-109.83v2.905c0 1.551 1.243 2.905 2.795 2.905z"/><use xlink:href="#B"/></g><use xlink:href="#B" class="E"/><g class="B"><path d="M632.932 873.834c.209-4.875 2.696-9.234 6.636-11.819-5.085 3.632-4.149 7.264 3.115 6.944l46.673-2.179c-.098-.099-.098-.209-.098-.308 1.662 2.598 3.521 5.183 5.7 7.362h47.818c1.551 0 2.905 1.244 2.905 2.905s-1.243 2.905-2.905 2.905H635.739c-1.551 0-2.795-1.243-2.795-2.795z" class="F"/><path d="M632.932 872.898h61.077l.837.936h-61.914z" class="F"/></g><path d="M1014.562 674.341H883.285c-8.951 0-15.389-8.766-12.853-17.507l14.257-291.424c1.687-5.799 6.919-9.775 12.853-9.775h131.277c8.95 0 15.389 8.766 12.853 17.507l-14.244 291.424c-1.699 5.799-6.931 9.775-12.865 9.775z" class="K"/><g fill="#b0b4b9"><path d="M996.501 674.341H882.164c-8.95 0-15.389-8.766-12.853-17.507l14.257-291.424c1.687-5.799 6.919-9.775 12.853-9.775h114.336c8.95 0 15.389 8.766 12.853 17.507l-14.244 291.424c-1.699 5.799-6.931 9.775-12.865 9.775z"/><path d="M974.488 674.338H835.541a11.74 11.74 0 0 1-11.733-11.733 11.74 11.74 0 0 1 11.733-11.733h138.947a11.74 11.74 0 0 1 11.733 11.733c0 6.488-5.245 11.733-11.733 11.733zm-23.133 182.74H831.921v11.819h119.433z"/><path d="M843.026 866.533c1.022 6.131-3.127 11.93-9.271 12.952-6.131 1.022-11.93-3.127-12.952-9.27-1.022-6.131 3.127-11.93 9.271-12.952a11.25 11.25 0 0 1 12.952 9.271z"/><path d="M830.075 857.263c.616-.098 1.231-.135 1.847-.135v-.049h119.433v11.819H843.162a11.26 11.26 0 0 1-9.406 10.588c-6.131 1.022-11.93-3.127-12.952-9.27-1.022-6.131 3.127-11.93 9.271-12.952z"/></g><g class="K"><path d="M996.599 857.078H877.166v11.819h119.433z"/><path d="M888.271 866.533c1.022 6.131-3.127 11.93-9.27 12.952-6.131 1.022-11.93-3.127-12.952-9.27-1.022-6.131 3.127-11.93 9.271-12.952a11.25 11.25 0 0 1 12.952 9.271zm53.038-199.235H929.49v194.618h11.819z"/><path d="M1007.704 866.533c1.022 6.131-3.127 11.93-9.27 12.952-6.131 1.022-11.93-3.127-12.952-9.27-1.022-6.131 3.127-11.93 9.27-12.952a11.25 11.25 0 0 1 12.952 9.271zm3.164-192.195H871.934a11.74 11.74 0 0 1-11.733-11.733 11.74 11.74 0 0 1 11.733-11.733h138.935a11.74 11.74 0 0 1 11.733 11.733c0 6.488-5.257 11.733-11.733 11.733z"/></g><g fill="#61656d"><path d="M1145.124 573.484h-8.987v306.112h8.987z"/><path d="M1136.137 573.484h-95.069v306.099h95.069z"/></g><path d="M1136.137 573.484h-95.069v306.099h95.069z" opacity=".5" class="B"/><path d="M1156.672 555.964H524.295v17.507h632.377a8.75 8.75 0 0 0 8.754-8.753 8.76 8.76 0 0 0-8.754-8.753z" fill="#61656d"/><path d="M707.539 832.234l47.03 1.6 19.083-182.468H956.71v-77.574H742.54l-1.699.037c-16.571.837-29.424 14.909-29.683 31.505z" class="I"/><path d="M792.389 828.602s-.542 6.193-1.268 8.236c-3.053 8.556-12.755 11.277-21.36 14.084l-47.19 16.694c-4.247 1.354-3.73 7.572.726 7.572h5.909c.726 1.034 1.97 1.662 3.324 1.662 1.243 0 2.696-.628 3.632-1.453.098-.098.209-.098.308-.209h.825c.098.099.308.099.419.308.726.825 1.871 1.453 3.115 1.453 1.145 0 2.487-.517 3.423-1.243.419-.419 1.145-.308 1.453.098.628.726 1.453 1.145 2.487 1.145.936 0 2.068-.419 2.905-1.034.419-.308 1.034-.209 1.354.098.628.517 1.354.936 2.278.936 1.243 0 2.278-.726 2.795-1.662h.419l62.887-.936c6.34-.16 11.684-4.814 12.939-11.031l5.983-29.486z" class="H"/><g class="B"><path d="M821.604 830.856l-29.818 2.856 31.542 7.091-3.706 14.908c-1.514 6.057-6.833 10.502-13.075 10.662h-.172l-62.653.936c-.517 1.034-1.662 1.662-2.795 1.662-.825 0-1.662-.308-2.278-.936-.419-.308-.936-.419-1.354-.098-.825.628-1.97 1.034-2.905 1.034-1.034 0-1.871-.419-2.487-1.145-.419-.419-1.034-.419-1.453-.098-.936.825-2.278 1.243-3.423 1.243-1.243 0-2.388-.517-3.115-1.453-.098-.099-.209-.209-.419-.308h-.098l-.936.308c-.308.098-.517.209-.726.308-.098.098-.308.209-.419.308-2.905 2.068-2.068 7.054 1.871 7.054h5.909c.726 1.034 1.97 1.662 3.324 1.662 1.243 0 2.696-.628 3.632-1.453.098-.098.209-.098.308-.209h.825c.098.099.308.099.419.308.726.825 1.871 1.453 3.115 1.453 1.145 0 2.487-.517 3.423-1.243.419-.419 1.145-.308 1.453.098.628.726 1.453 1.145 2.487 1.145.936 0 2.068-.419 2.905-1.034.419-.308 1.034-.209 1.354.098.628.517 1.354.936 2.278.936 1.243 0 2.278-.726 2.795-1.662h.419l58.393-.936c11.179 1.601 14.417-4.26 16.805-8.618l6.71-31.898z" class="G"/><path d="M766.855 851.956s9.123 16.079 26.236 21.877h-17.322z" class="G"/><path d="M730.327 833.009l24.254.825 19.083-182.468h183.059v-77.574h-183.17c-6.845 0-13.432 3.583-18.947 8.741-8.027 7.51-12.558 18.024-13.112 29.006z" class="J"/></g><g class="D"><path d="M720.084 879.645H827.12c1.551 0 2.905-1.243 2.905-2.905 0-1.551-1.243-2.905-2.905-2.905H717.29v2.905c0 1.551 1.243 2.905 2.795 2.905z"/><use xlink:href="#C"/></g><use xlink:href="#C" class="E"/><g class="B"><path d="M717.29 873.834c.209-4.875 2.696-9.234 6.636-11.819-5.085 3.632-4.149 7.264 3.115 6.944l46.673-2.179c-.098-.099-.098-.209-.098-.308 1.662 2.598 3.521 5.183 5.7 7.362h47.818c1.551 0 2.905 1.244 2.905 2.905s-1.243 2.905-2.905 2.905H720.097c-1.551 0-2.795-1.243-2.795-2.795z" class="F"/><path d="M717.29 872.898h61.089l.825.936H717.29z" class="F"/></g><path d="M791.786 833.711l47.953.123 40.332-182.468h85.761c16.337 0 29.584-13.247 29.584-29.584V573.78H851.349c-13.69 0-26.026 8.298-31.222 20.954z" class="I"/><path d="M850.302 634.881c7.781-15.143 16.386-19.6 33.401-19.6h88.532l-4.457-41.49h27.073v48.963c0 15.808-12.816 28.612-28.612 28.612h-86.045l-40.431 182.468-22.111-.062z" class="B J"/><path d="M789.829 555.866l20.745-142.911c2.179-14.724 13.062-26.654 27.479-30.077l55.488-13.173 55.906.517 51.646 12.336c18.356 4.358 30.286 22.087 27.479 40.763l-6.02 39.618-10.169 21.988c-.517 1.243-.825 2.487-1.145 3.73l-15.845 67.307z" class="D"/><path d="M840.478 447.635l127.744 5.134-2.721 26.383-127.62-5.811z" class="C"/><path d="M962.509 507.532l8.199-80.591c.098-1.034-1.354-1.354-1.662-.308l-25.509 83.693z" class="B J"/><path d="M810.155 544.774c1.034 1.243 2.905 1.551 4.247.517l18.356-13.481-23.33 10.686c-.098.825.209 1.65.726 2.278z" fill="#868a91"/><path d="M842.62 426.536l-9.849 97.174-8.606 8.507-7.879-5.183 17.211-93.345c1.761-7.67 9.123-8.298 9.123-7.153z" class="B J"/><path d="M949.545 370.222s1.034 4.247-2.278 6.328c-3.73 2.179-18.147 11.819-38.473 5.7 0 0-6.427-1.761-12.545-6.217-1.354-1.034-2.388-2.487-2.598-4.247v-1.97l-5.7 1.354c0 1.761.517 5.085 3.423 7.99 1.662 1.662 26.236 20.634 57.556 3.115 0 0 6.845-2.696 6.119-10.686l-5.503-1.367z" class="C"/><path d="M870.936 520.915l-14.724 1.97-31.431-2.795c-3.324.308-4.777.936-7.264 3.115l-19.391 17.322c-1.243 1.145-1.354 3.004-.308 4.247 1.034 1.243 2.905 1.551 4.247.517l18.356-13.481-11.93 14.109c-1.354 1.551-.726 4.05 1.243 4.777 1.145.419 2.278.098 3.115-.628l15.968-15.66-12.139 11.93c-1.453 1.453-.936 3.841.936 4.568.936.419 1.97.209 2.696-.308l17.014-12.447-11.511 8.507c-1.354.936-1.354 3.004 0 3.94.726.517 1.662.628 2.388.308l15.451-6.427c1.453-.628 3.213-.628 4.666.098l5.909 2.905c4.777 2.388 10.169 3.632 15.451 3.632h9.64c13.813-.012-8.384-30.2-8.384-30.2z" class="H"/><path d="M825.815 547.149c.098 0 .209 0 .308-.098l10.576-7.781c.209-.209.308-.517.098-.726s-.517-.308-.726-.098l-10.576 7.781c-.209.209-.308.517-.098.726.111.098.32.197.419.197zm-9.012-.307c.098 0 .308 0 .308-.098l11.413-11.203a.5.5 0 1 0-.726-.726l-11.413 11.203a.5.5 0 0 0 0 .726c.098.098.308.098.419.098zm23.429-4.249l-11.511 5.909c-2.905 1.662-3.73-.517-3.73-.517-.209.936.098 1.97.936 2.598.726.517 1.662.628 2.388.308l15.451-6.427c1.453-.628 3.213-.628 4.666.098l-3.004-1.761c-1.662-.936-3.533-.936-5.195-.209z" class="G B"/><g class="D"><path d="M873.325 522.159l89.086-13.062 5.811-56.423 55.586 2.795-11.302 72.083c-2.179 13.592-13.789 23.539-27.479 23.539H883.703z"/><path d="M861.186 522.159l101.225-12.964 5.811-56.423 55.586 2.795-11.302 72.083c-2.179 13.592-13.789 23.539-27.479 23.539h-113.77z"/></g><path d="M871.244 520.915l-10.058 1.243 9.96 28.944h12.447z" class="C"/><g class="B"><path d="M870.21 520.188c.098.419.419.628.726.628h.098l91.474-13.272.209-1.662-91.893 13.383c-.406.098-.714.505-.616.923z" opacity=".04"/><path d="M869.484 545.906l1.662 5.085h113.77c13.69 0 25.411-9.96 27.479-23.539l16.288-104.229c2.795-18.664-9.123-36.405-27.479-40.763l-9.64-2.278c14.724 6.537 23.65 22.198 21.163 38.584l-15.045 96.042c-2.179 13.592-13.789 23.539-27.479 23.539z" class="G"/><path d="M859.425 546.017c2.388 0 4.247-2.179 4.051-4.568l-2.278-19.292 10.058 28.932h-1.453c-5.392 0-10.686-1.243-15.451-3.632l-7.054-3.324c1.65.222 6.008 1.884 12.127 1.884z" class="G"/></g><use xlink:href="#D" class="E"/><use xlink:href="#D" opacity=".6" class="B"/><path d="M816.077 550.265H637.782c-.825 0-1.551.726-1.551 1.551v2.598c0 .825.726 1.551 1.551 1.551h178.282c.825 0 1.551-.726 1.551-1.551v-2.598c-.098-.825-.714-1.551-1.539-1.551z" class="E"/><path d="M640.073 551.299h181.495a.49.49 0 1 0 0-1.034H640.073a.49.49 0 0 0-.517.517c0 .308.308.517.517.517z" opacity=".36" class="B"/><use xlink:href="#E" class="E"/><use xlink:href="#E" opacity=".6" class="B"/><path d="M812.654 550.263H640.171c-2.068 0-3.841-1.453-4.247-3.521l-22.505-118.338c-.517-2.696 1.551-5.085 4.247-5.085h172.372c2.068 0 3.841 1.453 4.247 3.521l22.505 118.338c.529 2.696-1.44 5.085-4.137 5.085z" class="E"/><path d="M714.126 483.475c1.034 2.388-.098 4.457-2.487 4.457h-.419c2.795 3.115 7.054 5.294 10.785 5.183 5.085-.099 7.473-4.247 5.183-9.332-2.179-5.085-8.199-9.024-13.272-8.913-3.213.099-5.392 1.761-5.909 4.358 2.376.099 5.072 1.859 6.119 4.247z" opacity=".6" class="B"/><path d="M888.985 308.506s47.498-34.854 52.164 3.115l1.354 9.96 7.054 48.741.098 1.034a4.98 4.98 0 0 1-1.034 3.841v.099l-.099.099a4.48 4.48 0 0 1-1.244 1.145c-3.841 2.388-6.328 3.632-9.443 4.777-14.109 5.392-30.385 3.324-42.832-6.217-.936-1.145-1.453-2.598-1.354-4.149l.825-25.3c-.825-2.598-1.354-5.491-1.662-8.716-1.551-14.934-3.829-28.427-3.829-28.427z" class="H"/><path d="M883.592 311.201c9.332 0 16.904-7.572 16.904-16.904s-7.572-16.904-16.904-16.904-16.904 7.572-16.904 16.904 7.572 16.904 16.904 16.904z" class="E"/><path d="M881.413 282.06s-12.238 75.395 26.236 77.574c33.29 1.97 33.081-49.578 33.081-49.578l-4.05-33.192z" class="H"/><path d="M883.9 286.53h33.807c4.247 0 7.67 3.423 7.67 7.67s3.423 7.67 7.67 7.67c1.145 0 2.068.936 2.068 2.068v7.473c0 .936.726 1.761 1.76 1.761.825 0 1.551-.628 1.662-1.453l1.034-7.153 1.354-2.487 8.298 4.358s11.413-20.745 3.94-38.276c-4.247-10.058-14.725-12.865-19.501-13.173-1.551-.099-3.004-.936-3.94-2.179-2.179-3.213-7.362-8.606-17.938-7.362-8.089.936-12.336 5.602-14.318 9.443a5.35 5.35 0 0 1-6.328 2.388c-3.521-1.243-8.606-1.871-14.109 2.068-10.76 7.473-4.949 26.248 6.87 27.184z" class="E"/><path d="M942.909 324.067s-3.115.517-4.875-.726l5.909 7.879z" class="B G"/><path d="M939.597 304.467s1.97-7.153 9.443-4.457c8.507 3.004 8.298 21.988-5.7 24.057-7.362 1.145-6.119-3.213-5.294-9.024l1.551-10.576z" class="H"/><path d="M949.754 304.776c-1.453-.825-2.905-1.145-4.149-.726s-2.278 1.354-3.004 2.795c-.726 1.551-1.145 3.324-1.034 5.183v1.674c0 .517.419.825.936.825s.825-.419.825-.936v-1.662c-.099-.419.099-2.906.825-4.358.517-1.034 1.244-1.761 1.97-1.97s1.662 0 2.795.628c.419.209.936.099 1.145-.308.209-.308.111-.837-.308-1.145z" opacity=".3" class="B"/><path d="M883.802 288.08l3.94.099c.419 0 .825-.308.825-.726s-.308-.825-.726-.825l-3.94-.099c-.517 0-1.034-.099-1.453-.209-.936-.209-2.795-.825-4.666-1.871-.418-.209-.825-.099-1.034.308-.209.419-.098.825.308 1.034 1.97 1.145 4.05 1.761 5.085 1.97.406.209 1.034.32 1.662.32z" class="H"/><g class="B"><path d="M893.651 366.689l.419-12.028c3.423 3.115 12.964 7.153 23.022 3.94 0 0 .099-.099 0 0 6.217-2.068 10.268-5.909 12.656-9.234.209-.308.726-.419 1.034-.209s.419.726.209 1.034c-3.004 4.05-8.298 8.913-16.805 10.686-10.058 7.892-20.535 5.811-20.535 5.811z" class="G"/><path d="M903.611 344.812h4.666a1.04 1.04 0 0 0 1.034-1.034 1.04 1.04 0 0 0-1.034-1.034h-4.568a1.04 1.04 0 0 0-1.034 1.034c.098.517.517.923.936 1.034zm-1.871-4.259c8.396.628 11.819-4.149 12.964-6.537.209-.517 0-1.034-.419-1.243-.517-.209-1.034 0-1.243.419-1.145 2.278-4.875 7.362-15.143 4.777-.517-.098-1.034.209-1.145.726a.96.96 0 0 0 .726 1.145c1.453.406 2.905.616 4.26.714z" opacity=".135"/></g><path d="M911.379 319.807a3 3 0 1 0 0-6.008 3 3 0 1 0 0 6.008z" class="E"/><path d="M909.927 318.157a.63.63 0 0 0 .628-.628.63.63 0 0 0-.628-.628.63.63 0 0 0-.628.628.63.63 0 0 0 .628.628z" class="C"/><path d="M887.323 321.678a3 3 0 1 0 0-6.008 3 3 0 1 0 0 6.008z" class="E"/><path d="M885.87 319.929a.63.63 0 0 0 .628-.628.63.63 0 0 0-.628-.628.63.63 0 0 0-.628.628.63.63 0 0 0 .628.628z" class="C"/><path d="M898.933 333.3h4.149c.517 0 .936-.419.936-.936s-.419-.936-.936-.936h-4.149c-1.034 0-1.871-.825-1.871-1.871 0-1.034.825-1.871 1.871-1.871.517 0 .936-.419.936-.936s-.419-.936-.936-.936c-1.97 0-3.632 1.662-3.632 3.632.012 2.191 1.564 3.853 3.632 3.853z" opacity=".135" class="B"/><path d="M873.842 315.977l.209 3.423c.419 6.636 6.217 11.511 12.755 11.093 6.636-.419 11.511-6.217 11.093-12.755l-.209-3.423c-.098-1.034-.517-1.871-1.145-2.598l4.666-.308c-.517.726-.825 1.662-.726 2.696l.209 3.423c.419 6.636 6.217 11.511 12.755 11.093 6.636-.419 11.511-6.217 11.093-12.755l-.209-3.423c-.099-2.388-2.278-4.247-4.666-4.05l-14.934 1.034h-.099l-11.622.825-1.76.099-13.272.936c-2.376.234-4.247 2.413-4.137 4.691zm31.013-4.777h.099l14.934-1.034c1.453-.099 2.696 1.034 2.795 2.487l.209 3.423c.419 5.602-3.841 10.477-9.443 10.896s-10.477-3.841-10.896-9.443l-.209-3.423c-.086-1.453 1.059-2.795 2.511-2.905zm-29.154 4.568c-.099-1.453 1.034-2.696 2.487-2.795l13.272-.936 1.76-.099c1.453-.099 2.696 1.034 2.795 2.487l.209 3.423c.419 5.602-3.841 10.477-9.443 10.896s-10.477-3.841-10.896-9.443z" class="E"/><path d="M234.859 813.545l-.886-.183c.183-.717 9.634-76.379 31.235-117.248l.717.352c-21.432 41.051-31.065 116.361-31.065 117.078zm-3.39-27.128h-.886c2.32-41.586-12.319-102.439-12.489-103.143l.886-.183c0 .534 14.809 61.57 12.489 103.325z" class="I"/><path d="M263.591 700.036s.183-40.869 35.876-43.372c.169.013 3.037 36.058-35.876 43.372zm-85.661-8.746s-9.634-38.9-51.936-27.845c.013-.169 8.043 28.38 51.936 27.845zm45.861 15.892s12.671-33.19-16.778-50.502c.183 0-12.658 32.656 16.778 50.502z" class="D"/><g class="I"><path d="M217.377 813.544h-.886c0-76.731-38.366-121.524-38.9-122.071l.717-.534c.339.534 39.07 45.509 39.07 122.606zm12.306 0h-.886c4.458-78.7 8.03-92.44 14.992-119.568l2.32-8.917.886.183c-.717 3.207-1.603 6.062-2.32 8.917-6.961 27.115-10.533 40.686-14.992 119.386z"/><path d="M208.278 812.108h-.886c4.823-59.067-8.917-100.835-21.236-125.461-14.457-28.732-32.304-44.792-40.686-48.716l.352-.717c8.565 3.924 26.594 20.167 41.051 49.081 12.476 24.625 26.398 66.563 21.405 125.813zm-6.609 0h-.886c.183-.717 10.703-76.197-35.693-101.187l.352-.717c13.558 7.313 30.7 23.739 35.876 60.671 3.207 21.966.352 41.051.352 41.234zm34.624-9.984l-.886-.352c0-.183 4.289-12.319 17.312-22.487l.534.717c-12.684 9.986-16.96 21.94-16.96 22.122zm4.276-23.386l-.534-.717c1.069-.886 26.946-23.556 40.152-27.48l.183.886c-13.023 3.754-39.617 26.959-39.8 27.311z"/></g><path d="M186.494 729.839s-10.533-39.969-52.106-30.7c0 .013 7.144 34.09 52.106 30.7z" class="D"/><path d="M186.494 729.839s-10.533-39.969-52.106-30.7c0 .013 7.144 34.09 52.106 30.7z" class="C F"/><path d="M207.913 770.89s-7.144-28.38-45.327-19.098c0 0 12.489 28.38 45.327 19.098zm25.877-18.566s3.572-44.61 50.15-50.15c-.183.183 2.138 43.724-50.15 50.15z" class="D"/><path d="M221.484 813.542h-.886l2.138-197.199h.886c-.183 1.603-1.968 165.43-2.138 197.199z" class="I"/><path d="M230.048 740.555s-39.8 2.138-39.8-41.938c0 0 38.548.534 39.8 41.938z" class="D"/><path d="M230.048 740.555s-39.8 2.138-39.8-41.938c0 0 38.548.534 39.8 41.938z" class="C F"/><path d="M267.515 757.5s10.885-30.335 44.975-22.67c0 .183-5.71 25.525-44.975 22.67z" class="D"/><path d="M267.515 757.5s10.885-30.335 44.975-22.67c0 .183-5.71 25.525-44.975 22.67z" class="C F"/><path d="M251.636 812.643h-70.317v8.917h70.317z" class="I"/><path d="M242.72 879.207h-52.471l-3.924-57.634h60.319z" class="K"/><path d="M242.72 879.207h-52.471l-3.924-57.634h60.319z" class="I"/><path d="M251.636 812.643h-11.237v8.93h-54.074l.169 2.49h43.372l.183 55.145h12.671l3.924-57.634h4.993z" class="B J"/><use xlink:href="#F" class="D"/><use xlink:href="#F" class="C F"/><path d="M240.217 709.5s-21.419-45.509 16.778-73.707c0 .183 26.411 41.403-16.778 73.707z" class="D"/><path d="M240.217 709.5s-21.419-45.509 16.778-73.707c0 .183 26.229 41.403-16.778 73.707z" class="C F"/><path d="M245.392 787.484s5.175-19.815 32.304-15.709c0 0-4.471 20.167-32.304 15.709zm-37.114 9.101s-5.892-38.548 29.266-43.007c0 0 8.382 33.373-29.266 43.007z" class="D"/><path d="M208.278 796.585s-5.892-38.548 29.266-43.007c0 0 8.382 33.373-29.266 43.007z" class="C F"/><path d="M136.175 631.688s21.236-2.138 25.342 18.199c-.183 0-19.281 2.32-25.342-18.199z" class="D"/><path d="M136.175 631.688s21.236-2.138 25.342 18.199c-.183 0-19.281 2.32-25.342-18.199z" opacity=".3" class="C"/><path d="M187.746 629.55s-26.411 27.48-.534 57.281c0 0 25.877-29.266.534-57.281z" class="D"/><path d="M187.746 629.55s-26.411 27.48-.534 57.281c0 0 25.877-29.266.534-57.281z" class="C F"/><defs ><path id="B" d="M632.932 873.834c.209-6.119 4.149-11.413 9.96-13.481l35.469-12.336c1.551-.517 3.115.308 3.521 1.871 1.551 5.183 5.392 16.288 12.964 23.958h47.916c1.551 0 2.905 1.244 2.905 2.905s-1.243 2.905-2.905 2.905H635.726c-1.551 0-2.795-1.243-2.795-2.795z"/><path id="C" d="M717.29 873.834c.209-6.119 4.149-11.413 9.96-13.481l35.469-12.336c1.551-.517 3.115.308 3.521 1.871 1.551 5.183 5.392 16.288 12.964 23.958h47.916c1.551 0 2.905 1.244 2.905 2.905s-1.243 2.905-2.905 2.905H720.084c-1.551 0-2.795-1.243-2.795-2.795z"/><path id="D" d="M885.045 550.265H782.786c-.825 0-1.551.726-1.551 1.551v2.598c0 .825.726 1.551 1.551 1.551h102.259c.825 0 1.551-.726 1.551-1.551v-2.598c0-.825-.628-1.551-1.551-1.551z"/><path id="E" d="M816.483 550.263h-26.864c-2.068 0-3.841-1.453-4.247-3.521l-22.505-118.338c-.517-2.696 1.551-5.085 4.247-5.085h26.864c2.068 0 3.841 1.453 4.247 3.521l22.505 118.338c.419 2.696-1.551 5.085-4.247 5.085z"/><path id="F" d="M222.553 650.434s-19.45-29.449 5.892-57.464c-.013-.183 16.765 28.549-5.892 57.464z"/></defs></svg>