<?xml version="1.0" encoding="UTF-8" standalone="no"?>
<svg
   xmlns:dc="http://purl.org/dc/elements/1.1/"
   xmlns:cc="http://creativecommons.org/ns#"
   xmlns:rdf="http://www.w3.org/1999/02/22-rdf-syntax-ns#"
   xmlns:svg="http://www.w3.org/2000/svg"
   xmlns="http://www.w3.org/2000/svg"
   xmlns:sodipodi="http://sodipodi.sourceforge.net/DTD/sodipodi-0.dtd"
   xmlns:inkscape="http://www.inkscape.org/namespaces/inkscape"
   class="gridItem__media"
   version="1.1"
   id="Layer_1"
   x="0px"
   y="0px"
   width="1122.8107"
   height="902.68274"
   viewBox="0 0 1122.8107 902.68274"
   style="fill:none"
   xml:space="preserve"
   sodipodi:docname="science.svg"
   inkscape:version="0.92.5 (2060ec1f9f, 2020-04-08)"><metadata
   id="metadata393"><rdf:RDF><cc:Work
       rdf:about=""><dc:format>image/svg+xml</dc:format><dc:type
         rdf:resource="http://purl.org/dc/dcmitype/StillImage" /><dc:title></dc:title></cc:Work></rdf:RDF></metadata><defs
   id="defs391" /><sodipodi:namedview
   pagecolor="#ffffff"
   bordercolor="#666666"
   borderopacity="1"
   objecttolerance="10"
   gridtolerance="10"
   guidetolerance="10"
   inkscape:pageopacity="0"
   inkscape:pageshadow="2"
   inkscape:window-width="1920"
   inkscape:window-height="1020"
   id="namedview389"
   showgrid="false"
   fit-margin-top="1"
   fit-margin-right="1"
   fit-margin-bottom="1"
   fit-margin-left="1"
   inkscape:zoom="0.11"
   inkscape:cx="1045.8308"
   inkscape:cy="43.891922"
   inkscape:window-x="0"
   inkscape:window-y="0"
   inkscape:window-maximized="1"
   inkscape:current-layer="Layer_1" />

<path
   d="m 66.714826,900.77471 -65.5000003,-539.1 c -1.26299998,-14.239 3.078,-28.411 12.1000003,-39.5 L 193.91483,21.274708 c 5.777,-7.058 13.21,-12.5779996 21.638,-16.0669996 8.427,-3.49 17.586,-4.841 26.662,-3.933 l 669.3,71.8999996 c 9.68,0.99 18.93,4.541 26.79,10.288 7.85,5.747 14.03,13.483 17.91,22.412002 l 160.99997,368.4 c 4.22,9.683 5.57,20.372 3.9,30.8 l -64.1,395.8 z"
   id="path4"
   inkscape:connector-curvature="0"
   style="fill:#f2f2f2"
   sodipodi:nodetypes="ccccccccccccc" />
<path
   d="M 1055.9363,901.67471 H 67.230786 c -0.0937,0 -0.18639,-0.02 -0.2729,-0.06 -0.0865,-0.04 -0.165,-0.1 -0.23188,-0.17 -0.066,-0.08 -0.11863,-0.17 -0.15429,-0.26 -0.0357,-0.1 -0.0544,-0.2 -0.0544,-0.31 0,-0.1 0.0187,-0.21 0.0544,-0.31 0.0357,-0.09 0.0883,-0.18 0.15429,-0.25 0.0668,-0.08 0.14537,-0.14 0.23188,-0.18 0.0865,-0.04 0.17927,-0.06 0.2729,-0.06 H 1056.0255 c 0.1873,0 0.3746,0.09 0.5083,0.24 0.1339,0.15 0.2052,0.35 0.2052,0.56 0,0.11 -0.017,0.23 -0.062,0.33 -0.044,0.11 -0.098,0.2 -0.1783,0.27 -0.071,0.08 -0.1605,0.14 -0.2586,0.17 -0.098,0.03 -0.2052,0.05 -0.3033,0.03 z"
   id="path6"
   inkscape:connector-curvature="0"
   style="fill:#afb3b8;stroke-width:0.99999994" />























<path
   d="m 443.81483,849.37471 4.3,47.5 c 0.072,0.41 0.055,0.83 -0.052,1.24 -0.107,0.4 -0.3,0.78 -0.566,1.1 -0.266,0.33 -0.598,0.59 -0.975,0.77 -0.377,0.18 -0.788,0.28 -1.207,0.29 v 0 c -0.576,-0.01 -1.135,-0.2 -1.6,-0.54 -0.466,-0.34 -0.815,-0.81 -1,-1.36 l -12.4,-49 z"
   id="path54"
   inkscape:connector-curvature="0"
   style="fill:#d7dadc" />
<path
   d="m 442.21483,877.07471 -5.2,-1.3 -6.7,-26.4 h 13.6 l 4.2,47.6 c 0.124,0.62 0.033,1.27 -0.258,1.83 -0.291,0.56 -0.764,1.01 -1.342,1.27 z"
   id="path56"
   inkscape:connector-curvature="0"
   style="fill:#afb3b8" />






<path
   d="m 633.39407,149.05234 c 0.003,-15.90978 -5.86629,-31.26201 -16.48124,-43.11342 C 606.29789,94.087498 591.68401,86.570048 575.86905,84.826598 v -0.50571 h -7.20643 c -16.65571,0.73708 -32.38595,7.87144 -43.91245,19.918822 -11.52523,12.04739 -17.95918,28.07727 -17.95918,44.74941 0,16.67214 6.43395,32.70203 17.95918,44.74941 11.5265,12.04738 27.25674,19.18175 43.91245,19.91883 h 7.20643 v -0.37929 c 15.81496,-1.74345 30.42884,-9.2609 41.04378,-21.11231 10.61495,-11.85142 16.48377,-27.20365 16.48124,-43.11342 z"
   id="path70"
   inkscape:connector-curvature="0"
   style="fill:#b0b4b9;stroke-width:1" />
<path
   d="m 575.86905,213.78378 c 35.75022,0 64.73145,-28.98123 64.73145,-64.73144 0,-35.75022 -28.98123,-64.731452 -64.73145,-64.731452 -35.75022,0 -64.73145,28.981232 -64.73145,64.731452 0,35.75021 28.98123,64.73144 64.73145,64.73144 z"
   id="path72"
   inkscape:connector-curvature="0"
   style="fill:#84888f;stroke-width:1" />
<path
   d="m 575.86905,206.57735 c 31.77025,0 57.52502,-25.75477 57.52502,-57.52501 0,-31.77025 -25.75477,-57.525022 -57.52502,-57.525022 -31.77024,0 -57.52502,25.754772 -57.52502,57.525022 0,31.77024 25.75478,57.52501 57.52502,57.52501 z"
   id="path74"
   inkscape:connector-curvature="0"
   style="fill:#ffffff;stroke-width:1" />
<path
   d="m 575.86905,206.57735 c 31.77025,0 57.52502,-25.75477 57.52502,-57.52501 0,-31.77025 -25.75477,-57.525022 -57.52502,-57.525022 -31.77024,0 -57.52502,25.754772 -57.52502,57.525022 0,31.77024 25.75478,57.52501 57.52502,57.52501 z"
   id="path76"
   inkscape:connector-curvature="0"
   style="fill:#84888f;stroke-width:1" />
<path
   d="m 575.86905,206.57735 c 31.77025,0 57.52502,-25.75477 57.52502,-57.52501 0,-31.77025 -25.75477,-57.525022 -57.52502,-57.525022 -31.77024,0 -57.52502,25.754772 -57.52502,57.525022 0,31.77024 25.75478,57.52501 57.52502,57.52501 z"
   id="path78"
   inkscape:connector-curvature="0"
   style="opacity:0.9;fill:#ffffff;stroke-width:1" />
<path
   d="m 575.86905,91.527318 h -3.16071 c 14.56457,0.96718 28.2176,7.43526 38.19029,18.093202 9.97395,10.65793 15.5229,24.7092 15.5229,39.30539 0,14.59618 -5.54895,28.64746 -15.5229,39.30539 -9.97269,10.65793 -23.62572,17.12602 -38.19029,18.0932 h 3.16071 c 15.25614,0 29.88899,-6.06099 40.67588,-16.84915 10.78815,-10.78815 16.84914,-25.41973 16.84914,-40.67587 0,-15.25614 -6.06099,-29.88773 -16.84914,-40.67588 C 605.75804,97.335448 591.12519,91.274458 575.86905,91.274458 Z"
   id="path80"
   inkscape:connector-curvature="0"
   style="fill:#b0b4b9;stroke-width:1" />
<path
   d="m 576.37476,153.47734 -19.09072,-37.92859 c -0.35905,-0.70547 -0.42732,-1.52473 -0.1909,-2.28077 0.23642,-0.75604 0.75857,-1.38945 1.45519,-1.76494 0.70674,-0.35906 1.52473,-0.42733 2.28077,-0.19091 0.75605,0.23516 1.38945,0.75857 1.76495,1.45519 l 16.43572,32.74501 21.74572,-10.74643 c 0.71053,-0.28067 1.5007,-0.2832 2.2125,-0.006 0.71305,0.27562 1.29463,0.81041 1.62966,1.49692 0.33504,0.6865 0.39825,1.47415 0.17953,2.20491 -0.21999,0.73202 -0.708,1.35279 -1.36669,1.74092 z"
   class="change-color-in-svg"
   id="path82"
   style="fill:#38bff8;fill-opacity:1;stroke-width:1"
   inkscape:connector-curvature="0" />
<path
   d="m 625.04978,178.63663 c 5.47183,-8.94356 8.35946,-19.22726 8.34429,-29.71072 0.0164,-7.55917 -1.46025,-15.04754 -4.34535,-22.03398 -2.8851,-6.98645 -7.12173,-13.33443 -12.46586,-18.67983 -5.34541,-5.3454 -11.69339,-9.582022 -18.67983,-12.467122 -6.98771,-2.8851 -14.47481,-4.36053 -22.03398,-4.34409 h -4.80429 z"
   id="path84"
   inkscape:connector-curvature="0"
   style="opacity:0.5;fill:#ffffff;stroke-width:1" />
<path
   d="m 562.46762,93.043198 c -2.78649,0.73328 -5.52999,1.61955 -8.21786,2.655 l 59.54787,96.465032 c 2.30733,-2.07596 4.46167,-4.31501 6.44786,-6.70072 z"
   id="path86"
   inkscape:connector-curvature="0"
   style="opacity:0.5;fill:#ffffff;stroke-width:1" />
<path
   d="M 956.99213,309.42078 H 716.28389 v 12.28627 h 240.70824 z"
   id="path88"
   inkscape:connector-curvature="0"
   style="fill:#afb3b8;stroke-width:1" />
<path
   d="m 1015.2147,309.42078 h -58.10597 v 12.28627 h 58.10597 z"
   id="path90"
   inkscape:connector-curvature="0"
   style="fill:#d7dadc;stroke-width:1" />
<path
   d="m 813.59393,185.9747 h -24.2692 v 123.49275 h 24.2692 z"
   id="path92"
   inkscape:connector-curvature="0"
   style="fill:#afb3b8;stroke-width:1" />
<path
   d="m 878.46733,185.9747 h -64.8734 v 123.49275 h 64.8734 z"
   id="path94"
   inkscape:connector-curvature="0"
   style="fill:#d7dadc;stroke-width:1" />
<path
   d="m 835.17953,197.52706 h -13.6514 v 111.95323 h 13.6514 z"
   id="path96"
   inkscape:connector-curvature="0"
   style="fill:#afb3b8;stroke-width:1" />
<path
   d="m 871.69993,197.52706 h -36.5204 v 111.95323 h 36.5204 z"
   id="path98"
   inkscape:connector-curvature="0"
   style="fill:#d7dadc;stroke-width:1" />
<path
   d="m 876.83383,309.53746 h -20.3021 l -11.6679,-106.87771 h 20.3021 z"
   id="path100"
   inkscape:connector-curvature="0"
   style="fill:#afb3b8;stroke-width:1" />
<path
   d="m 876.83383,309.53746 h 54.1389 l -11.6679,-106.87771 h -54.1389 z"
   id="path102"
   inkscape:connector-curvature="0"
   style="fill:#d7dadc;stroke-width:1" />
<path
   d="M 121.79887,356.74369 H 239.13765 V 186.61571 H 121.79887 Z"
   id="path104"
   inkscape:connector-curvature="0"
   style="fill:#b0b4b9;stroke-width:1" />
<path
   d="M 115.30948,356.74369 H 232.64827 V 186.61571 H 115.30948 Z"
   id="path106"
   inkscape:connector-curvature="0"
   style="fill:#ffffff;stroke-width:1" />
<path
   d="m 130.00993,337.93771 h 88.46762 V 204.5741 h -88.46762 z"
   id="path108"
   inkscape:connector-curvature="0"
   style="fill:#dbdbdb;stroke-width:1" />
<path
   d="m 159.41085,279.66562 c 5.63252,0 10.19762,-4.56507 10.19762,-10.1976 0,-5.63121 -4.5651,-10.19762 -10.19762,-10.19762 -5.6312,0 -10.19761,4.56641 -10.19761,10.19762 0,5.63253 4.56641,10.1976 10.19761,10.1976 z"
   class="change-color-in-svg"
   id="path110"
   style="fill:#38bff8;fill-opacity:1;stroke-width:1"
   inkscape:connector-curvature="0" />
<g
   id="g114"
   transform="matrix(1.3243655,0,0,1.3243655,-487.54171,-203.19936)"
   style="opacity:0.2;stroke-width:0.75507861">
<path
   d="m 488.5,389.901 h 22.3 v -63.32 h -22.3 z"
   id="path112"
   inkscape:connector-curvature="0"
   style="opacity:0.2;fill:#000000;stroke-width:0.67299479" />
</g>



<path
   d="m 959.71483,729.67571 v -26.5 h -71.8 c -1.47,-0.667 -2.78,-1.639 -3.84,-2.853 -1.06,-1.214 -1.85,-2.64 -2.31,-4.184 -0.47,-1.544 -0.59,-3.17 -0.38,-4.767 0.22,-1.598 0.77,-3.131 1.63,-4.496 9.7,-15.6 12,-34.9 -6.1,-45.6 -14.7,-8.6 -34.8,-3 -42.9,11.9 -6.7,12.3 -1.2,23.1 5.1,34.1 0.78,1.369 1.26,2.886 1.42,4.453 0.16,1.567 -0.01,3.15 -0.5,4.647 -0.49,1.498 -1.29,2.876 -2.34,4.047 -1.06,1.171 -2.34,2.108 -3.78,2.753 h -70.9 v 70.2 c 0.42,1.73 1.25,3.336 2.41,4.683 1.17,1.346 2.64,2.396 4.29,3.061 1.65,0.665 3.44,0.926 5.22,0.762 1.77,-0.165 3.48,-0.749 4.98,-1.706 15.7,-9.7 35,-11.9 45.6,6.1 8.6,14.7 2.3,34.5 -12.7,42.6 -12.3,6.7 -22.1,1.3 -33.3,-4.8 -7.3,-3.9 -14.9,-0.9 -16.5,6.9 v 68.899 h 49.8 v 0.2 h 106.9 v -0.2 h 40 v -70.099 c 0.1,-0.2 0,-100.1 0,-100.1 z"
   id="path122"
   inkscape:connector-curvature="0"
   style="opacity:0.15;fill:#000000" />
<path
   d="m 959.71483,729.67571 v -26.5 h -71.8 c -1.47,-0.667 -2.78,-1.639 -3.84,-2.853 -1.06,-1.214 -1.85,-2.64 -2.31,-4.184 -0.47,-1.544 -0.59,-3.17 -0.38,-4.767 0.22,-1.598 0.77,-3.131 1.63,-4.496 9.7,-15.6 12,-34.9 -6.1,-45.6 -14.7,-8.6 -34.8,-3 -42.9,11.9 -6.7,12.3 -1.2,23.1 5.1,34.1 0.78,1.369 1.26,2.886 1.42,4.453 0.16,1.567 -0.01,3.15 -0.5,4.647 -0.49,1.498 -1.29,2.876 -2.34,4.047 -1.06,1.171 -2.34,2.108 -3.78,2.753 h -70.9 v 70.2 c 0.42,1.73 1.25,3.336 2.41,4.683 1.17,1.346 2.64,2.396 4.29,3.061 1.65,0.665 3.44,0.926 5.22,0.762 1.77,-0.165 3.48,-0.749 4.98,-1.706 15.7,-9.7 35,-11.9 45.6,6.1 8.6,14.7 2.3,34.5 -12.7,42.6 -12.3,6.7 -22.1,1.3 -33.3,-4.8 -7.3,-3.9 -14.9,-0.9 -16.5,6.9 v 68.899 h 49.8 v 0.2 h 106.9 v -0.2 h 40 v -70.099 c 0.1,-0.2 0,-100.1 0,-100.1 z"
   class="change-color-in-svg"
   id="path124"
   style="fill:#38bff8;fill-opacity:1"
   inkscape:connector-curvature="0" />
<path
   d="m 825.51483,786.17571 c -10.6,-18.1 -29.9,-15.8 -45.6,-6.1 -1.7,1.081 -3.67,1.682 -5.68,1.738 -2.02,0.057 -4.02,-0.432 -5.78,-1.415 -1.76,-0.984 -3.22,-2.425 -4.24,-4.172 -1.01,-1.746 -1.53,-3.734 -1.5,-5.751 v -65.4 h -69.8 c -1.539,0.568 -2.936,1.465 -4.093,2.628 -1.158,1.162 -2.048,2.563 -2.61,4.105 -0.561,1.541 -0.78,3.187 -0.641,4.822 0.138,1.635 0.631,3.22 1.444,4.645 6.3,11 11.7,21.8 5.1,34.1 -8.2,15 -28.3,20.5 -42.9,11.9 -18.1,-10.6 -15.9,-29.9 -6.2,-45.6 0.889,-1.433 1.447,-3.046 1.631,-4.722 0.185,-1.676 -0.008,-3.372 -0.564,-4.964 -0.556,-1.592 -1.462,-3.039 -2.65,-4.235 -1.188,-1.197 -2.629,-2.112 -4.217,-2.679 h -69.9 v -0.5 h -1 v -1.2 h -0.3 v 196.699 h 196.7 v -66.299 c -0.02,-1.975 0.49,-3.919 1.46,-5.636 0.98,-1.716 2.39,-3.145 4.1,-4.139 1.7,-0.995 3.64,-1.522 5.62,-1.526 1.97,-0.004 3.91,0.513 5.62,1.501 11,6.3 21.9,11.7 34.2,5.1 14.9,-8.1 20.5,-28.3 11.8,-42.9 z"
   class="change-color-in-svg"
   id="path126"
   style="fill:#38bff8;fill-opacity:1"
   inkscape:connector-curvature="0" />
<path
   d="m 959.71483,701.07471 0.3,-192.6 h -196.7 v 67.1 c 0,8.9 -18.1,28.7 -25.6,24 -15.6,-9.8 -26.6,-26.4 -37.3,-8.3 -8.6,14.6 -3,34.7 11.9,42.9 12.3,6.6 22.7,-10 33.7,-16.3 7.5,-4.3 17.3,12.3 17.3,21 v 66.3 h 68.9 c 1.67,-0.46 3.22,-1.295 4.52,-2.441 1.3,-1.146 2.32,-2.574 2.98,-4.175 0.67,-1.6 0.96,-3.331 0.85,-5.061 -0.1,-1.73 -0.6,-3.414 -1.45,-4.923 -6.3,-10.9 -11.8,-21.8 -5.1,-34.1 8.1,-14.9 28.2,-20.5 42.9,-11.8 18.1,10.6 15.8,29.9 6.1,45.6 -0.93,1.508 -1.5,3.214 -1.65,4.981 -0.16,1.767 0.11,3.545 0.77,5.191 0.66,1.645 1.7,3.112 3.04,4.281 1.33,1.169 2.92,2.007 4.64,2.447 h 69.9 z"
   class="change-color-in-svg"
   id="path128"
   style="fill:#38bff8;fill-opacity:1"
   inkscape:connector-curvature="0" />
<path
   d="m 959.71483,701.07471 v -192.6 h -196.7 v 67.1 c 0,8.9 28.2,3.5 17.6,21.6 -8.7,14.6 -26,8.4 -11.1,16.6 12.3,6.6 -22,12.8 -11,6.5 7.5,-4.3 4.5,9.9 4.5,18.6 v 66.3 h 69 c 1.66,-0.458 3.19,-1.29 4.48,-2.432 1.29,-1.141 2.3,-2.562 2.96,-4.154 0.65,-1.592 0.94,-3.312 0.83,-5.031 -0.11,-1.718 -0.62,-3.388 -1.47,-4.883 -6.3,-11 -11.7,-21.9 -5.1,-34.2 8.1,-14.9 28.3,-20.5 42.9,-11.8 18.1,10.6 15.9,29.9 6.1,45.6 -0.93,1.514 -1.5,3.228 -1.64,5.001 -0.15,1.773 0.12,3.555 0.8,5.202 0.67,1.647 1.72,3.112 3.07,4.276 1.34,1.164 2.94,1.993 4.67,2.421 h 70.1 z"
   id="path130"
   inkscape:connector-curvature="0"
   style="opacity:0.15;fill:#000000" />
<path
   d="m 959.71483,729.67571 v -26.5 h -71.8 c -1.47,-0.667 -2.78,-1.639 -3.84,-2.853 -1.06,-1.214 -1.85,-2.64 -2.31,-4.184 -0.47,-1.544 -0.59,-3.17 -0.38,-4.767 0.22,-1.598 0.77,-3.131 1.63,-4.496 9.7,-15.6 12,-34.9 -6.1,-45.6 -14.7,-8.6 -34.8,-3 -42.9,11.9 -6.7,12.3 -1.2,23.1 5.1,34.1 0.78,1.369 1.26,2.886 1.42,4.453 0.16,1.567 -0.01,3.15 -0.5,4.647 -0.49,1.498 -1.29,2.876 -2.34,4.047 -1.06,1.171 -2.34,2.108 -3.78,2.753 h -70.9 v 70.2 c 0.42,1.73 1.25,3.336 2.41,4.683 1.17,1.346 2.64,2.396 4.29,3.061 1.65,0.665 3.44,0.926 5.22,0.762 1.77,-0.165 3.48,-0.749 4.98,-1.706 15.7,-9.7 35,-11.9 45.6,6.1 8.6,14.7 2.3,34.5 -12.7,42.6 -12.3,6.7 -22.1,1.3 -33.3,-4.8 -7.3,-3.9 -14.9,-0.9 -16.5,6.9 v 68.899 h 49.8 v 0.2 h 106.9 v -0.2 h 40 z"
   id="path132"
   inkscape:connector-curvature="0"
   style="opacity:0.5;fill:#ffffff" />
<path
   d="m 670.31483,517.17571 c -0.8,-7.4 -7.4,-10.9 -14.5,-7.9 -10.8,4.4 -20.3,8.4 -31,1.1 -12.9,-8.9 -16.8,-27.6 -7.5,-40.2 11.5,-15.5 29,-11.7 42.4,-1.2 1.29,0.995 2.796,1.674 4.396,1.981 1.6,0.307 3.25,0.234 4.816,-0.214 1.567,-0.447 3.006,-1.257 4.203,-2.363 1.196,-1.106 2.116,-2.478 2.685,-4.004 l 4,-38.1 2.7,-25.4 v -0.8 l -20.5,-2.2 -152,-16 -7.8,-0.8 v 0.9 l -2.5,23.4 -4.2,40.7 -0.4,0.6 -5.2,49.7 c 0.054,0.237 0.12,0.47 0.2,0.7 l -6.8,64.2 h 0.9 v 0.5 l 23.4,2.5 40.7,4.3 c 1.403,0.66 2.639,1.629 3.616,2.833 0.976,1.205 1.668,2.614 2.024,4.124 0.355,1.509 0.366,3.079 0.03,4.593 -0.336,1.514 -1.009,2.932 -1.97,4.15 -10.4,13.4 -14.3,30.9 1.2,42.4 12.7,9.3 31.6,6.2 40.5,-6.7 7.3,-10.7 3.3,-21.1 -1.4,-31.8 -0.596,-1.389 -0.885,-2.891 -0.847,-4.402 0.038,-1.511 0.401,-2.997 1.066,-4.354 0.665,-1.358 1.615,-2.556 2.785,-3.513 1.17,-0.957 2.533,-1.65 3.996,-2.031 l 64.3,6.8 2.7,-26.4 z"
   class="change-color-in-svg"
   id="path134"
   style="fill:#38bff8;fill-opacity:1"
   inkscape:connector-curvature="0" />
<path
   d="m 670.31483,517.17571 c -0.8,-7.4 -7.4,-10.9 -14.5,-7.9 -10.8,4.4 -20.3,8.4 -31,1.1 -12.9,-8.9 -16.8,-27.6 -7.5,-40.2 11.5,-15.5 29,-11.7 42.4,-1.2 1.29,0.995 2.796,1.674 4.396,1.981 1.6,0.307 3.25,0.234 4.816,-0.214 1.567,-0.447 3.006,-1.257 4.203,-2.363 1.196,-1.106 2.116,-2.478 2.685,-4.004 l 4,-38.1 2.7,-25.4 v -0.8 l -20.5,-2.2 -152,-16 -7.8,-0.8 v 0.9 l -2.5,23.4 -4.2,40.7 -0.4,0.6 -5.2,49.7 c 0.054,0.237 0.12,0.47 0.2,0.7 l -6.8,64.2 h 0.9 v 0.5 l 23.4,2.5 40.7,4.3 c 1.403,0.66 2.639,1.629 3.616,2.833 0.976,1.205 1.668,2.614 2.024,4.124 0.355,1.509 0.366,3.079 0.03,4.593 -0.336,1.514 -1.009,2.932 -1.97,4.15 -10.4,13.4 -14.3,30.9 1.2,42.4 12.7,9.3 31.6,6.2 40.5,-6.7 7.3,-10.7 3.3,-21.1 -1.4,-31.8 -0.596,-1.389 -0.885,-2.891 -0.847,-4.402 0.038,-1.511 0.401,-2.997 1.066,-4.354 0.665,-1.358 1.615,-2.556 2.785,-3.513 1.17,-0.957 2.533,-1.65 3.996,-2.031 l 64.3,6.8 2.7,-26.4 z"
   id="path136"
   inkscape:connector-curvature="0"
   style="opacity:0.5;fill:#ffffff" />
<path
   d="m 966.61483,509.97571 c 0.72,0 1.3,-0.582 1.3,-1.3 0,-0.718 -0.58,-1.3 -1.3,-1.3 -0.72,0 -1.3,0.582 -1.3,1.3 0,0.718 0.58,1.3 1.3,1.3 z"
   id="path138"
   inkscape:connector-curvature="0"
   style="fill:#ffffff" />
<path
   d="m 950.71483,704.17571 v -1 h -71.8 c -1.48,-0.657 -2.79,-1.623 -3.87,-2.832 -1.07,-1.21 -1.87,-2.635 -2.34,-4.18 -0.48,-1.545 -0.61,-3.173 -0.4,-4.776 0.21,-1.602 0.76,-3.141 1.61,-4.512 9.8,-15.6 12,-34.9 -6.1,-45.6 -14.6,-8.6 -34.7,-3 -42.8,11.9 -6.7,12.3 -1.2,23.1 5,34.1 0.78,1.369 1.26,2.886 1.42,4.453 0.16,1.567 -0.01,3.15 -0.5,4.647 -0.49,1.498 -1.29,2.876 -2.34,4.047 -1.06,1.171 -2.34,2.108 -3.78,2.753 h -70.8 v 70.2 c 0.42,1.73 1.25,3.336 2.41,4.683 1.17,1.346 2.64,2.396 4.29,3.061 1.65,0.665 3.44,0.926 5.22,0.762 1.77,-0.165 3.48,-0.749 4.98,-1.706 15.6,-9.7 35,-11.9 45.6,6.1 8.6,14.7 2.2,34.5 -12.7,42.6 -12.3,6.7 -22.2,1.3 -33.3,-4.8 -7.4,-3.9 -14.9,-0.9 -16.5,6.9 v 68.899 h 49.7 v 0.2 h 106.9 v -0.2 h 40.1 z"
   class="change-color-in-svg"
   id="path140"
   style="fill:#38bff8;fill-opacity:1"
   inkscape:connector-curvature="0" />
<path
   d="m 816.51483,786.17571 c -10.6,-18.1 -30,-15.8 -45.6,-6.1 -1.71,1.072 -3.68,1.666 -5.7,1.72 -2.02,0.054 -4.02,-0.435 -5.78,-1.415 -1.77,-0.98 -3.24,-2.416 -4.26,-4.158 -1.03,-1.743 -1.56,-3.727 -1.56,-5.747 v -65.4 h -69.7 c -1.547,0.558 -2.955,1.447 -4.123,2.605 -1.168,1.158 -2.07,2.558 -2.641,4.1 -0.572,1.543 -0.799,3.192 -0.667,4.832 0.132,1.64 0.62,3.231 1.431,4.663 6.3,11 11.8,21.8 5.1,34.1 -8.1,15 -28.2,20.5 -42.9,11.9 -18.1,-10.6 -15.8,-29.9 -6.1,-45.6 0.889,-1.433 1.447,-3.046 1.631,-4.722 0.185,-1.676 -0.008,-3.372 -0.564,-4.964 -0.557,-1.592 -1.462,-3.039 -2.65,-4.235 -1.188,-1.197 -2.629,-2.112 -4.217,-2.679 h -70 v -0.5 h -1 v -1.2 h -0.3 v 196.699 h 196.7 v -66.299 c 0,-1.978 0.52,-3.92 1.51,-5.633 0.99,-1.713 2.41,-3.136 4.12,-4.128 1.71,-0.992 3.65,-1.518 5.63,-1.525 1.98,-0.006 3.92,0.506 5.64,1.486 11,6.3 21.8,11.7 34.1,5.1 15,-8.1 20.5,-28.3 11.9,-42.9 z"
   class="change-color-in-svg"
   id="path142"
   style="fill:#38bff8;fill-opacity:1"
   inkscape:connector-curvature="0" />
<path
   d="m 950.61483,701.07471 v -192.6 h -196.7 v 67.1 c 0,2.02 -0.53,4.005 -1.56,5.747 -1.02,1.742 -2.49,3.178 -4.26,4.158 -1.76,0.981 -3.76,1.469 -5.78,1.416 -2.02,-0.054 -3.99,-0.648 -5.7,-1.721 -15.599,-9.8 -34.899,-12 -45.599,6.1 -8.6,14.6 -3.1,34.7 11.9,42.9 12.3,6.6 23.1,1.2 34.099,-5.1 1.72,-0.98 3.66,-1.492 5.64,-1.485 1.98,0.007 3.92,0.533 5.63,1.525 1.71,0.992 3.13,2.415 4.12,4.128 0.99,1.713 1.51,3.655 1.51,5.632 v 66.3 h 68.9 c 1.67,-0.46 3.22,-1.295 4.52,-2.441 1.3,-1.146 2.32,-2.574 2.98,-4.175 0.67,-1.6 0.96,-3.331 0.85,-5.061 -0.1,-1.73 -0.6,-3.414 -1.45,-4.923 -6.3,-10.9 -11.8,-21.8 -5.1,-34.1 8.1,-14.9 28.2,-20.5 42.9,-11.8 18,10.6 15.8,29.9 6.1,45.6 -0.93,1.508 -1.5,3.214 -1.65,4.981 -0.16,1.767 0.11,3.545 0.77,5.191 0.66,1.645 1.7,3.112 3.04,4.281 1.33,1.169 2.92,2.007 4.64,2.447 h 70.2 z"
   class="change-color-in-svg"
   id="path144"
   style="fill:#38bff8;fill-opacity:1"
   inkscape:connector-curvature="0" />
<path
   d="m 663.71483,516.77471 c -0.7,-7.4 -7.3,-10.9 -14.4,-7.9 -10.8,4.4 -20.4,8.4 -31,1.1 -12.9,-8.9 -16.9,-27.6 -7.6,-40.2 11.5,-15.5 29,-11.7 42.4,-1.2 1.299,0.995 2.811,1.673 4.418,1.98 1.607,0.306 3.263,0.233 4.837,-0.213 1.573,-0.447 3.021,-1.255 4.227,-2.361 1.205,-1.105 2.136,-2.477 2.718,-4.006 l 4,-38.1 2.6,-25.4 v -0.8 l -20.5,-2.2 -152,-16 -7.7,-0.8 v 0.9 l -2.5,23.4 -4.3,40.7 -0.3,0.6 -5.3,49.7 0.3,0.7 -6.8,64.2 h 0.9 v 0.5 l 23.3,2.5 40.8,4.3 c 1.403,0.661 2.639,1.629 3.616,2.834 0.976,1.204 1.668,2.614 2.024,4.123 0.355,1.51 0.366,3.08 0.03,4.594 -0.336,1.514 -1.009,2.932 -1.97,4.149 -10.4,13.4 -14.3,30.9 1.2,42.4 12.6,9.3 31.6,6.2 40.5,-6.7 7.3,-10.7 3.3,-21.1 -1.4,-31.8 -0.614,-1.387 -0.916,-2.892 -0.887,-4.409 0.029,-1.516 0.39,-3.008 1.057,-4.371 0.667,-1.362 1.624,-2.562 2.804,-3.516 1.18,-0.954 2.554,-1.637 4.026,-2.004 l 64.2,6.8 2.8,-26.4 z"
   class="change-color-in-svg"
   id="path146"
   style="fill:#38bff8;fill-opacity:1"
   inkscape:connector-curvature="0" />
<path
   d="m 950.71483,703.17571 h -71.8 c -1.48,-0.657 -2.79,-1.623 -3.87,-2.832 -1.07,-1.21 -1.87,-2.635 -2.34,-4.18 -0.48,-1.545 -0.61,-3.173 -0.4,-4.776 0.21,-1.602 0.76,-3.141 1.61,-4.512 9.8,-15.6 12,-34.9 -6.1,-45.6 -14.6,-8.6 -34.7,-3 -42.8,11.9 -6.7,12.3 -1.2,23.1 5,34.1 0.78,1.369 1.26,2.886 1.42,4.453 0.16,1.567 -0.01,3.15 -0.5,4.647 -0.49,1.498 -1.29,2.876 -2.34,4.047 -1.06,1.171 -2.34,2.108 -3.78,2.753 h -70.8 v 70.2 c 0.42,1.73 1.25,3.336 2.41,4.683 1.17,1.346 2.64,2.396 4.29,3.061 1.65,0.665 3.44,0.926 5.22,0.762 1.77,-0.165 3.48,-0.749 4.98,-1.706 15.6,-9.7 35,-11.9 45.6,6.1 8.6,14.7 2.2,34.5 -12.7,42.6 -12.3,6.7 -22.2,1.3 -33.3,-4.8 -7.4,-3.9 -14.9,-0.9 -16.5,6.9 v 68.899 h 49.7 v 0.2 h 106.9 v -0.2 h 40.1 z"
   id="path148"
   inkscape:connector-curvature="0"
   style="opacity:0.7;fill:#ffffff" />
<path
   d="m 663.71483,516.77471 c -0.7,-7.4 -7.3,-10.9 -14.4,-7.9 -10.8,4.4 -20.4,8.4 -31,1.1 -12.9,-8.9 -16.9,-27.6 -7.6,-40.2 11.5,-15.5 29,-11.7 42.4,-1.2 1.299,0.995 2.811,1.673 4.418,1.98 1.607,0.306 3.263,0.233 4.837,-0.213 1.573,-0.447 3.021,-1.255 4.227,-2.361 1.205,-1.105 2.136,-2.477 2.718,-4.006 l 4,-38.1 2.6,-25.4 v -0.8 l -20.5,-2.2 -152,-16 -7.7,-0.8 v 0.9 l -2.5,23.4 -4.3,40.7 -0.3,0.6 -5.3,49.7 0.3,0.7 -6.8,64.2 h 0.9 v 0.5 l 23.3,2.5 40.8,4.3 c 1.403,0.661 2.639,1.629 3.616,2.834 0.976,1.204 1.668,2.614 2.024,4.123 0.355,1.51 0.366,3.08 0.03,4.594 -0.336,1.514 -1.009,2.932 -1.97,4.149 -10.4,13.4 -14.3,30.9 1.2,42.4 12.6,9.3 31.6,6.2 40.5,-6.7 7.3,-10.7 3.3,-21.1 -1.4,-31.8 -0.614,-1.387 -0.916,-2.892 -0.887,-4.409 0.029,-1.516 0.39,-3.008 1.057,-4.371 0.667,-1.362 1.624,-2.562 2.804,-3.516 1.18,-0.954 2.554,-1.637 4.026,-2.004 l 64.2,6.8 2.8,-26.4 z"
   id="path150"
   inkscape:connector-curvature="0"
   style="opacity:0.7;fill:#ffffff" />
<path
   d="m 560.71483,379.77471 13.7,-0.8 c 0.316,-0.03 0.635,0.029 0.92,0.17 0.284,0.142 0.524,0.361 0.69,0.631 0.167,0.271 0.254,0.583 0.252,0.901 -0.002,0.318 -0.093,0.629 -0.262,0.898 -0.627,1.063 -1.572,1.902 -2.7,2.4 z"
   id="path152"
   inkscape:connector-curvature="0"
   style="fill:#f39494" />
<path
   d="m 551.61483,377.27471 c 0,0 13.2,-1.7 13.9,-1.6 0.7,0.1 2.899,2.4 0.399,3.8 l -6.5,0.4 z"
   id="path154"
   inkscape:connector-curvature="0"
   style="fill:#f39494" />
<path
   d="m 563.91483,379.57471 c 0.6,0.3 11.6,2.8 11.6,2.8 l -1.7,1.6 -14,-4 z"
   id="path156"
   inkscape:connector-curvature="0"
   style="opacity:0.15;fill:#000000" />
<path
   d="m 553.81483,377.07471 10.1,2.5 -1.6,0.2 -10.5,-2.5 z"
   id="path158"
   inkscape:connector-curvature="0"
   style="opacity:0.15;fill:#000000" />
<path
   d="m 587.01483,390.07471 c 2.2,-0.1 1.9,-3.2 -0.3,-3.9 -9.8,-3.2 -35.2,-9 -36.5,-9.2 -1.3,-0.2 -26.1,-2.6 -51.8,-4 l -0.6,25.6 c 7.171,-0.324 14.357,-0.123 21.5,0.6 3.1,0.4 10.2,2 14,4.4 3.8,2.4 10.6,5.1 14.5,5.7 0.406,0.035 0.811,-0.077 1.141,-0.315 0.331,-0.239 0.564,-0.588 0.659,-0.985 0.2,-1.5 0.3,-3.7 -1.7,-4.6 -2,-0.9 -11,-6.4 -9.8,-9.2 1.2,-2.8 9.9,-4.7 11.4,-4.3 1.5,0.4 13.8,3 14,3.7 0.2,0.7 10.4,12.1 13.6,11.3 0.36,-0.084 0.695,-0.254 0.975,-0.495 0.281,-0.241 0.499,-0.547 0.636,-0.89 0.138,-0.344 0.19,-0.715 0.153,-1.083 -0.036,-0.369 -0.162,-0.722 -0.364,-1.032 -2.3,-3.3 -6.4,-10 -8.4,-12.7 6.1,0.5 14.5,1.5 16.9,1.4 z"
   id="path160"
   inkscape:connector-curvature="0"
   style="fill:#f39494" />
<path
   d="m 570.01483,388.67471 c -0.689,-0.801 -1.59,-1.39 -2.6,-1.7 l -10.9,-3.4 11.3,2.5 c 1.096,0.294 2.053,0.967 2.7,1.9 l 0.4,0.7 z"
   id="path162"
   inkscape:connector-curvature="0"
   style="opacity:0.15;fill:#000000" />
<path
   d="m 577.31483,402.27471 c -2.9,0.7 -11.3,-8.5 -13.2,-10.8 -0.296,-0.353 -0.674,-0.628 -1.1,-0.8 l -13.3,-3.5 c -1.5,-0.3 -10.2,1.6 -11.5,4.4 -0.07,0.327 -0.07,0.665 -10e-4,0.992 0.069,0.328 0.205,0.637 0.401,0.908 2.2,-2.4 9.5,-4 10.9,-3.7 1.4,0.3 13.8,3.1 14,3.8 0.2,0.7 10.4,12.1 13.6,11.3 0.345,-0.089 0.664,-0.258 0.933,-0.492 0.269,-0.235 0.48,-0.528 0.615,-0.858 0.136,-0.33 0.193,-0.687 0.168,-1.043 -0.026,-0.355 -0.134,-0.7 -0.316,-1.007 -0.287,0.407 -0.715,0.692 -1.2,0.8 z"
   id="path164"
   inkscape:connector-curvature="0"
   style="opacity:0.15;fill:#000000" />
<path
   d="m 548.01483,406.67471 c -3.9,-0.6 -11.2,-3.6 -14.5,-5.7 -3.3,-2.1 -7.4,-5.3 -11.3,-6.5 -5.901,-1.339 -11.956,-1.877 -18,-1.6 l -6.4,5.7 c 7.171,-0.324 14.357,-0.123 21.5,0.6 3.1,0.4 10.2,2 14,4.4 3.8,2.4 10.6,5.1 14.6,5.7 0.394,0.031 0.785,-0.084 1.099,-0.324 0.314,-0.24 0.528,-0.588 0.601,-0.976 0.151,-0.759 0.151,-1.541 0,-2.3 -0.094,0.336 -0.311,0.625 -0.607,0.81 -0.296,0.185 -0.65,0.253 -0.993,0.19 z"
   id="path166"
   inkscape:connector-curvature="0"
   style="opacity:0.15;fill:#000000" />
<path
   d="m 515.11483,373.07571 -72.5,-16.8 -32,33 100,10.5 z"
   class="change-color-in-svg"
   id="path168"
   style="fill:#38bff8;fill-opacity:1"
   inkscape:connector-curvature="0" />
<path
   d="m 515.11483,373.07571 -72.5,-16.8 -32,33 100,10.5 z"
   class="change-color-in-svg"
   id="path170"
   style="fill:#38bff8;fill-opacity:1"
   inkscape:connector-curvature="0" />
<path
   d="m 442.61483,356.27571 -11,-84 c -3,-16 -14,-19 -22.9,-22.9 l -10.8,-4 12.7,143.9 z"
   class="change-color-in-svg"
   id="path172"
   style="fill:#38bff8;fill-opacity:1"
   inkscape:connector-curvature="0" />
<path
   d="m 423.41483,376.37571 -0.2,-95.6 c -0.9,-4.8 -0.9,-12.1 -8.7,-16.3 l -15.4,-6.1 11.5,131.2 94,9 1.2,-6.9 -77.7,-11.1 c -0.586,0.04 -1.174,-0.037 -1.73,-0.227 -0.556,-0.191 -1.068,-0.491 -1.506,-0.882 -0.438,-0.391 -0.793,-0.867 -1.045,-1.398 -0.251,-0.531 -0.394,-1.107 -0.419,-1.693 z"
   id="path174"
   inkscape:connector-curvature="0"
   style="opacity:0.15;fill:#000000" />
<path
   d="m 515.11483,373.07571 -4.5,26.7 -6.4,0.4 4.4,-29.9 z"
   id="path176"
   inkscape:connector-curvature="0"
   style="fill:#21252b" />
<path
   d="m 297.31483,464.07571 -17.7,-166.8 c -1.4,-17.2 12.6,-36.3 29,-42 l 41.3,-14.4 31.8,3.2 15.3,1.4 c 0.3,0.4 32.8,28.4 32.6,27.8 l -1,193.8 z"
   class="change-color-in-svg"
   id="path178"
   style="fill:#38bff8;fill-opacity:1"
   inkscape:connector-curvature="0" />
<path
   d="m 367.51483,256.87571 7.1,41.3 -2.5,-41.4 z"
   id="path180"
   inkscape:connector-curvature="0"
   style="opacity:0.15;fill:#000000" />
<path
   d="m 414.01483,278.57571 1.2,-1.2 c 0.072,-0.096 0.107,-0.215 0.099,-0.335 -0.009,-0.12 -0.06,-0.233 -0.145,-0.318 -0.086,-0.085 -0.198,-0.137 -0.319,-0.146 -0.12,-0.008 -0.239,0.027 -0.335,0.099 l -1.3,1.2 -1.2,-1.2 c -0.043,-0.057 -0.098,-0.105 -0.161,-0.139 -0.063,-0.034 -0.132,-0.054 -0.204,-0.06 -0.071,-0.005 -0.143,0.006 -0.21,0.031 -0.067,0.025 -0.128,0.064 -0.179,0.115 -0.05,0.05 -0.089,0.111 -0.114,0.178 -0.026,0.067 -0.036,0.139 -0.031,0.211 0.005,0.071 0.026,0.141 0.06,0.203 0.034,0.063 0.082,0.118 0.139,0.161 l 1.2,1.2 -1.2,1.2 c -0.057,0.043 -0.105,0.098 -0.139,0.161 -0.034,0.063 -0.055,0.132 -0.06,0.204 -0.005,0.071 0.005,0.143 0.031,0.21 0.025,0.067 0.064,0.128 0.114,0.179 0.051,0.05 0.112,0.09 0.179,0.115 0.067,0.025 0.139,0.035 0.21,0.03 0.072,-0.005 0.141,-0.026 0.204,-0.06 0.063,-0.034 0.118,-0.082 0.161,-0.139 l 1.2,-1.2 1.3,1.2 c 0.043,0.057 0.098,0.105 0.161,0.139 0.063,0.034 0.132,0.055 0.204,0.06 0.071,0.005 0.143,-0.005 0.21,-0.03 0.067,-0.025 0.128,-0.065 0.179,-0.115 0.05,-0.051 0.089,-0.112 0.114,-0.179 0.025,-0.067 0.036,-0.139 0.031,-0.21 -0.005,-0.072 -0.026,-0.141 -0.06,-0.204 -0.034,-0.063 -0.082,-0.118 -0.139,-0.161 z"
   id="path182"
   inkscape:connector-curvature="0"
   style="fill:#ffffff" />
<path
   d="m 382.21483,313.37571 1.6,-0.6 c 0.133,-0.053 0.239,-0.156 0.295,-0.288 0.056,-0.131 0.058,-0.279 0.005,-0.412 -0.053,-0.132 -0.156,-0.239 -0.288,-0.295 -0.131,-0.056 -0.279,-0.058 -0.412,-0.005 l -1.5,0.7 -0.7,-1.6 c -0.007,-0.066 -0.031,-0.129 -0.069,-0.184 -0.039,-0.055 -0.09,-0.099 -0.149,-0.129 -0.06,-0.029 -0.126,-0.044 -0.193,-0.042 -0.066,0.003 -0.131,0.021 -0.189,0.055 -0.069,0.022 -0.133,0.058 -0.187,0.106 -0.053,0.049 -0.096,0.108 -0.125,0.175 -0.028,0.066 -0.042,0.138 -0.04,0.211 0.002,0.072 0.02,0.143 0.052,0.208 l 0.6,1.5 -1.6,0.7 c -0.2,0.1 -0.4,0.4 -0.3,0.6 0.1,0.2 0.4,0.4 0.7,0.3 l 1.6,-0.6 0.6,1.6 c 0.064,0.123 0.169,0.221 0.296,0.275 0.128,0.055 0.271,0.064 0.404,0.025 0.123,-0.064 0.221,-0.168 0.275,-0.296 0.055,-0.128 0.064,-0.27 0.025,-0.404 z"
   id="path184"
   inkscape:connector-curvature="0"
   style="fill:#ffffff" />
<path
   d="m 320.11483,267.27571 1.5,-0.6 c 0.3,-0.2 0.4,-0.4 0.3,-0.7 -0.007,-0.066 -0.031,-0.13 -0.069,-0.184 -0.039,-0.055 -0.09,-0.099 -0.149,-0.129 -0.06,-0.03 -0.126,-0.044 -0.193,-0.042 -0.066,0.002 -0.131,0.021 -0.189,0.055 l -1.6,0.7 -0.7,-1.6 c 0,-0.079 -0.019,-0.157 -0.055,-0.228 -0.036,-0.07 -0.088,-0.131 -0.152,-0.178 -0.065,-0.046 -0.139,-0.076 -0.217,-0.088 -0.079,-0.012 -0.159,-0.005 -0.234,0.02 -0.075,0.025 -0.143,0.067 -0.199,0.124 -0.055,0.056 -0.096,0.125 -0.12,0.201 -0.024,0.076 -0.029,0.156 -0.016,0.234 0.014,0.078 0.046,0.152 0.093,0.215 l 0.6,1.6 -1.6,0.7 c -0.097,0.062 -0.17,0.155 -0.207,0.264 -0.036,0.11 -0.034,0.228 0.007,0.336 0.008,0.066 0.032,0.13 0.07,0.184 0.038,0.055 0.089,0.099 0.149,0.129 0.059,0.03 0.125,0.044 0.192,0.042 0.067,-0.002 0.132,-0.021 0.189,-0.055 l 1.6,-0.6 0.6,1.6 c 0.079,0.105 0.19,0.182 0.316,0.218 0.127,0.036 0.262,0.03 0.384,-0.018 0.066,-0.007 0.13,-0.031 0.184,-0.07 0.055,-0.038 0.099,-0.089 0.129,-0.149 0.03,-0.059 0.044,-0.125 0.042,-0.192 -0.002,-0.067 -0.021,-0.132 -0.055,-0.189 z"
   id="path186"
   inkscape:connector-curvature="0"
   style="fill:#ffffff" />
<path
   d="m 423.61483,317.67571 1.6,-0.6 c 0.106,-0.079 0.182,-0.19 0.218,-0.316 0.037,-0.127 0.03,-0.262 -0.018,-0.384 -0.1,-0.2 -0.4,-0.4 -0.6,-0.3 l -1.6,0.7 -0.6,-1.6 c -0.064,-0.123 -0.168,-0.221 -0.296,-0.275 -0.128,-0.055 -0.27,-0.064 -0.404,-0.025 -0.069,0.021 -0.133,0.058 -0.187,0.106 -0.053,0.049 -0.096,0.108 -0.125,0.175 -0.028,0.066 -0.042,0.138 -0.04,0.211 0.002,0.072 0.02,0.143 0.052,0.208 l 0.6,1.6 -1.5,0.6 c -0.069,0.021 -0.133,0.058 -0.187,0.106 -0.053,0.049 -0.096,0.108 -0.125,0.175 -0.028,0.066 -0.042,0.138 -0.04,0.211 0.002,0.072 0.02,0.143 0.052,0.208 0.1,0.2 0.4,0.4 0.6,0.2 l 1.6,-0.6 0.7,1.6 c 0.008,0.066 0.032,0.129 0.07,0.184 0.038,0.055 0.089,0.099 0.149,0.129 0.059,0.03 0.125,0.044 0.192,0.042 0.067,-0.002 0.132,-0.021 0.189,-0.055 0.069,-0.021 0.133,-0.058 0.187,-0.106 0.054,-0.049 0.096,-0.108 0.125,-0.175 0.028,-0.066 0.042,-0.138 0.04,-0.211 -0.002,-0.072 -0.02,-0.143 -0.052,-0.208 z"
   id="path188"
   inkscape:connector-curvature="0"
   style="fill:#ffffff" />
<path
   d="m 372.41483,355.97571 1.6,-0.7 c 0.2,-0.1 0.4,-0.4 0.3,-0.6 -0.021,-0.069 -0.057,-0.133 -0.106,-0.187 -0.048,-0.053 -0.108,-0.096 -0.174,-0.125 -0.067,-0.028 -0.139,-0.042 -0.211,-0.04 -0.073,0.002 -0.144,0.02 -0.209,0.052 l -1.6,0.6 -0.6,-1.6 c -0.021,-0.069 -0.057,-0.133 -0.106,-0.187 -0.048,-0.053 -0.108,-0.096 -0.174,-0.125 -0.067,-0.028 -0.139,-0.042 -0.211,-0.04 -0.073,0.002 -0.144,0.02 -0.209,0.052 -0.123,0.064 -0.22,0.169 -0.275,0.296 -0.055,0.128 -0.064,0.271 -0.025,0.404 l 0.7,1.6 -1.6,0.6 c -0.084,0.063 -0.146,0.151 -0.177,0.251 -0.031,0.1 -0.03,0.208 0.003,0.307 0.033,0.1 0.097,0.186 0.182,0.248 0.085,0.061 0.187,0.094 0.292,0.094 l 1.6,-0.6 0.7,1.6 c 0.008,0.066 0.032,0.13 0.07,0.184 0.038,0.055 0.089,0.099 0.149,0.129 0.059,0.03 0.126,0.044 0.192,0.042 0.067,-0.002 0.132,-0.021 0.189,-0.055 0.069,-0.021 0.133,-0.057 0.187,-0.106 0.054,-0.048 0.096,-0.108 0.125,-0.175 0.028,-0.066 0.042,-0.138 0.04,-0.21 -0.002,-0.073 -0.02,-0.144 -0.052,-0.209 z"
   id="path190"
   inkscape:connector-curvature="0"
   style="fill:#ffffff" />
<path
   d="m 366.31483,334.27571 1.6,-0.7 c 0.067,-0.008 0.13,-0.032 0.185,-0.07 0.054,-0.038 0.098,-0.089 0.128,-0.149 0.03,-0.06 0.044,-0.126 0.042,-0.192 -0.002,-0.067 -0.021,-0.132 -0.055,-0.189 -0.021,-0.07 -0.057,-0.133 -0.106,-0.187 -0.048,-0.054 -0.108,-0.097 -0.174,-0.125 -0.067,-0.029 -0.139,-0.042 -0.211,-0.04 -0.073,0.002 -0.144,0.019 -0.209,0.052 l -1.6,0.6 -0.6,-1.6 c -0.078,-0.106 -0.189,-0.183 -0.316,-0.219 -0.126,-0.036 -0.261,-0.029 -0.384,0.019 -0.2,0.1 -0.4,0.4 -0.2,0.6 l 0.6,1.6 -1.6,0.7 c -0.066,0.007 -0.129,0.031 -0.184,0.069 -0.054,0.038 -0.099,0.09 -0.128,0.149 -0.03,0.06 -0.045,0.126 -0.042,0.192 0.002,0.067 0.021,0.132 0.054,0.19 0.022,0.069 0.058,0.132 0.106,0.186 0.049,0.054 0.108,0.097 0.175,0.125 0.067,0.029 0.139,0.043 0.211,0.041 0.072,-0.002 0.143,-0.02 0.208,-0.052 l 1.6,-0.6 0.6,1.5 c 0.022,0.069 0.058,0.132 0.106,0.186 0.049,0.054 0.108,0.097 0.175,0.125 0.067,0.029 0.139,0.043 0.211,0.041 0.072,-0.003 0.143,-0.02 0.208,-0.052 0.2,-0.1 0.4,-0.4 0.3,-0.6 z"
   id="path192"
   inkscape:connector-curvature="0"
   style="fill:#ffffff" />
<path
   d="m 396.81483,351.97571 1.6,-0.6 c 0.061,-0.031 0.114,-0.075 0.158,-0.128 0.043,-0.052 0.075,-0.113 0.094,-0.179 0.018,-0.066 0.023,-0.134 0.015,-0.202 -0.009,-0.067 -0.032,-0.133 -0.067,-0.191 -0.007,-0.066 -0.031,-0.13 -0.069,-0.184 -0.038,-0.055 -0.09,-0.099 -0.149,-0.129 -0.06,-0.03 -0.126,-0.044 -0.193,-0.042 -0.066,0.002 -0.131,0.021 -0.189,0.055 l -1.6,0.7 -0.6,-1.6 c -0.026,-0.066 -0.065,-0.126 -0.114,-0.176 -0.05,-0.051 -0.109,-0.091 -0.174,-0.119 -0.065,-0.028 -0.134,-0.043 -0.205,-0.044 -0.071,-10e-4 -0.141,0.013 -0.207,0.039 -0.065,0.026 -0.125,0.065 -0.176,0.114 -0.05,0.05 -0.091,0.109 -0.119,0.174 -0.027,0.065 -0.042,0.135 -0.043,0.205 -0.001,0.071 0.012,0.141 0.038,0.207 l 0.7,1.5 -1.6,0.7 c -0.069,0.021 -0.133,0.057 -0.186,0.106 -0.054,0.048 -0.097,0.108 -0.125,0.175 -0.029,0.066 -0.043,0.138 -0.041,0.21 0.002,0.073 0.02,0.144 0.052,0.209 0.062,0.097 0.155,0.17 0.265,0.207 0.109,0.036 0.228,0.034 0.335,-0.007 l 1.6,-0.6 0.7,1.6 c 0.1,0.2 0.4,0.4 0.6,0.3 0.07,-0.022 0.133,-0.058 0.187,-0.106 0.054,-0.049 0.097,-0.108 0.125,-0.175 0.029,-0.066 0.042,-0.138 0.04,-0.211 -0.002,-0.072 -0.019,-0.143 -0.052,-0.208 z"
   id="path194"
   inkscape:connector-curvature="0"
   style="fill:#ffffff" />
<path
   d="m 341.91483,306.97571 1.6,-0.6 c 0.133,-0.053 0.239,-0.157 0.295,-0.288 0.056,-0.131 0.058,-0.28 0.005,-0.412 -0.053,-0.133 -0.157,-0.239 -0.288,-0.295 -0.131,-0.056 -0.279,-0.058 -0.412,-0.005 l -1.6,0.7 -0.6,-1.6 c -0.021,-0.069 -0.058,-0.133 -0.106,-0.187 -0.049,-0.054 -0.108,-0.096 -0.175,-0.125 -0.066,-0.028 -0.138,-0.042 -0.211,-0.04 -0.072,0.002 -0.143,0.02 -0.208,0.052 -0.105,0.078 -0.182,0.19 -0.218,0.316 -0.036,0.126 -0.03,0.261 0.018,0.384 l 0.6,1.5 -1.6,0.7 c -0.123,0.064 -0.221,0.168 -0.275,0.296 -0.055,0.128 -0.064,0.27 -0.025,0.404 0.079,0.105 0.19,0.182 0.316,0.218 0.127,0.036 0.262,0.03 0.384,-0.018 l 1.6,-0.6 0.6,1.6 c 0.053,0.132 0.157,0.239 0.288,0.295 0.131,0.056 0.279,0.058 0.412,0.005 0.133,-0.053 0.239,-0.157 0.295,-0.288 0.056,-0.131 0.058,-0.28 0.005,-0.412 z"
   id="path196"
   inkscape:connector-curvature="0"
   style="fill:#ffffff" />
<path
   d="m 297.71483,360.77571 1.6,-0.7 c 0.066,-0.008 0.13,-0.031 0.184,-0.07 0.055,-0.038 0.099,-0.089 0.129,-0.149 0.03,-0.059 0.044,-0.125 0.042,-0.192 -0.002,-0.067 -0.021,-0.132 -0.055,-0.189 -0.021,-0.069 -0.058,-0.133 -0.106,-0.187 -0.048,-0.054 -0.108,-0.096 -0.175,-0.125 -0.066,-0.028 -0.138,-0.042 -0.211,-0.04 -0.072,0.002 -0.143,0.02 -0.208,0.052 l -1.5,0.6 -0.7,-1.5 c 0,-0.079 -0.019,-0.157 -0.055,-0.228 -0.036,-0.07 -0.088,-0.131 -0.153,-0.178 -0.064,-0.046 -0.138,-0.076 -0.216,-0.088 -0.079,-0.012 -0.159,-0.005 -0.234,0.02 -0.075,0.025 -0.143,0.067 -0.199,0.124 -0.055,0.056 -0.097,0.125 -0.12,0.201 -0.024,0.075 -0.029,0.156 -0.016,0.234 0.014,0.078 0.046,0.152 0.093,0.215 l 0.6,1.6 -1.6,0.7 c -0.2,0.1 -0.4,0.4 -0.3,0.6 0.1,0.2 0.4,0.4 0.7,0.3 l 1.6,-0.6 0.6,1.6 c 0.079,0.105 0.19,0.182 0.316,0.218 0.127,0.036 0.262,0.03 0.384,-0.018 0.066,-0.008 0.13,-0.031 0.184,-0.07 0.055,-0.038 0.099,-0.089 0.129,-0.149 0.03,-0.059 0.044,-0.125 0.042,-0.192 -0.002,-0.067 -0.021,-0.132 -0.055,-0.189 z"
   id="path198"
   inkscape:connector-curvature="0"
   style="fill:#ffffff" />
<path
   d="m 301.11483,388.77571 1.6,-0.6 c 0.069,-0.022 0.133,-0.058 0.187,-0.106 0.054,-0.049 0.096,-0.109 0.125,-0.175 0.028,-0.067 0.042,-0.139 0.04,-0.211 -0.002,-0.072 -0.02,-0.144 -0.052,-0.208 -0.064,-0.124 -0.168,-0.221 -0.296,-0.276 -0.128,-0.054 -0.27,-0.063 -0.404,-0.024 l -1.5,0.7 -0.7,-1.6 c -0.007,-0.067 -0.031,-0.13 -0.069,-0.185 -0.039,-0.054 -0.09,-0.098 -0.149,-0.128 -0.06,-0.03 -0.126,-0.045 -0.193,-0.042 -0.066,0.002 -0.131,0.021 -0.189,0.055 -0.069,0.021 -0.133,0.057 -0.187,0.106 -0.053,0.048 -0.096,0.108 -0.125,0.174 -0.028,0.067 -0.042,0.139 -0.04,0.211 0.002,0.073 0.02,0.144 0.052,0.209 l 0.6,1.6 -1.6,0.6 c -0.123,0.063 -0.22,0.168 -0.275,0.296 -0.055,0.128 -0.064,0.27 -0.025,0.404 0.2,0.2 0.4,0.4 0.7,0.3 l 1.6,-0.7 0.6,1.6 c 0.053,0.132 0.157,0.238 0.288,0.295 0.131,0.056 0.28,0.058 0.412,0.005 0.133,-0.053 0.239,-0.157 0.295,-0.288 0.056,-0.132 0.058,-0.28 0.005,-0.412 z"
   id="path200"
   inkscape:connector-curvature="0"
   style="fill:#ffffff" />
<path
   d="m 307.01483,433.17571 1.6,-0.6 c 0.123,-0.064 0.221,-0.169 0.275,-0.296 0.055,-0.128 0.064,-0.271 0.025,-0.404 -0.021,-0.069 -0.057,-0.133 -0.106,-0.187 -0.048,-0.054 -0.108,-0.096 -0.175,-0.125 -0.066,-0.028 -0.138,-0.042 -0.211,-0.04 -0.072,0.002 -0.143,0.02 -0.208,0.052 l -1.6,0.6 -0.6,-1.6 c -0.078,-0.106 -0.19,-0.182 -0.316,-0.218 -0.127,-0.036 -0.261,-0.03 -0.384,0.018 -0.115,0.045 -0.21,0.131 -0.265,0.242 -0.056,0.111 -0.068,0.239 -0.035,0.358 l 0.7,1.6 -1.6,0.6 c -0.069,0.021 -0.133,0.058 -0.187,0.106 -0.053,0.048 -0.096,0.108 -0.125,0.175 -0.028,0.066 -0.042,0.138 -0.04,0.211 0.002,0.072 0.02,0.143 0.052,0.208 0.1,0.2 0.4,0.4 0.6,0.3 l 1.6,-0.6 0.7,1.6 c 0.066,0.098 0.164,0.169 0.277,0.201 0.113,0.033 0.234,0.024 0.341,-0.023 0.107,-0.048 0.195,-0.132 0.246,-0.238 0.052,-0.106 0.065,-0.226 0.036,-0.34 z"
   id="path202"
   inkscape:connector-curvature="0"
   style="fill:#ffffff" />
<path
   d="m 326.81483,425.17571 1.6,-0.6 c 0.069,-0.021 0.133,-0.058 0.187,-0.106 0.054,-0.049 0.096,-0.108 0.125,-0.175 0.028,-0.066 0.042,-0.138 0.04,-0.211 -0.002,-0.072 -0.02,-0.143 -0.052,-0.208 -0.031,-0.061 -0.075,-0.114 -0.128,-0.157 -0.052,-0.044 -0.113,-0.075 -0.179,-0.094 -0.065,-0.019 -0.134,-0.024 -0.202,-0.015 -0.067,0.009 -0.132,0.031 -0.191,0.066 l -1.6,0.6 -0.6,-1.6 c -0.021,-0.069 -0.058,-0.133 -0.106,-0.187 -0.049,-0.054 -0.108,-0.096 -0.175,-0.125 -0.066,-0.028 -0.138,-0.042 -0.211,-0.04 -0.072,0.002 -0.143,0.02 -0.208,0.052 -0.106,0.079 -0.182,0.19 -0.218,0.316 -0.037,0.127 -0.03,0.262 0.018,0.384 l 0.6,1.6 -1.6,0.6 c -0.133,0.053 -0.239,0.157 -0.295,0.288 -0.056,0.131 -0.058,0.279 -0.005,0.412 0.053,0.133 0.157,0.239 0.288,0.295 0.131,0.056 0.279,0.058 0.412,0.005 l 1.6,-0.7 0.6,1.6 c 0.026,0.066 0.065,0.125 0.115,0.176 0.049,0.051 0.108,0.091 0.173,0.119 0.065,0.028 0.135,0.043 0.205,0.043 0.071,10e-4 0.141,-0.012 0.207,-0.038 0.066,-0.026 0.125,-0.065 0.176,-0.115 0.051,-0.049 0.091,-0.108 0.119,-0.173 0.028,-0.065 0.043,-0.135 0.043,-0.205 0.001,-0.071 -0.012,-0.141 -0.038,-0.207 z"
   id="path204"
   inkscape:connector-curvature="0"
   style="fill:#ffffff" />
<path
   d="m 353.21483,420.87571 1.6,-0.6 c 0.124,-0.064 0.221,-0.168 0.276,-0.296 0.054,-0.128 0.063,-0.27 0.024,-0.404 -0.021,-0.069 -0.057,-0.133 -0.106,-0.187 -0.048,-0.053 -0.108,-0.096 -0.174,-0.125 -0.067,-0.028 -0.139,-0.042 -0.211,-0.04 -0.073,0.002 -0.144,0.02 -0.209,0.052 l -1.6,0.7 -0.6,-1.6 c -0.053,-0.132 -0.156,-0.238 -0.288,-0.295 -0.131,-0.056 -0.279,-0.058 -0.412,-0.005 -0.132,0.053 -0.238,0.157 -0.295,0.288 -0.056,0.131 -0.058,0.28 -0.005,0.412 l 0.7,1.5 -1.6,0.7 c -0.066,0.008 -0.129,0.032 -0.184,0.07 -0.055,0.038 -0.099,0.089 -0.129,0.149 -0.029,0.059 -0.044,0.125 -0.042,0.192 0.003,0.067 0.022,0.132 0.055,0.189 0.022,0.069 0.058,0.133 0.106,0.187 0.049,0.054 0.108,0.096 0.175,0.125 0.067,0.028 0.139,0.042 0.211,0.04 0.072,-0.002 0.143,-0.02 0.208,-0.052 l 1.6,-0.6 0.6,1.6 c 0.064,0.123 0.169,0.221 0.297,0.276 0.127,0.054 0.27,0.063 0.403,0.024 0.095,-0.087 0.163,-0.198 0.198,-0.322 0.036,-0.123 0.036,-0.254 0.002,-0.378 z"
   id="path206"
   inkscape:connector-curvature="0"
   style="fill:#ffffff" />
<path
   d="m 340.01483,446.97571 1.6,-0.6 c 0.133,-0.053 0.239,-0.157 0.295,-0.288 0.056,-0.131 0.058,-0.28 0.005,-0.412 -0.053,-0.133 -0.156,-0.239 -0.288,-0.295 -0.131,-0.056 -0.279,-0.058 -0.412,-0.005 l -1.6,0.7 -0.6,-1.6 c -0.021,-0.069 -0.057,-0.133 -0.106,-0.187 -0.048,-0.054 -0.108,-0.096 -0.175,-0.125 -0.066,-0.028 -0.138,-0.042 -0.211,-0.04 -0.072,0.002 -0.143,0.02 -0.208,0.052 -0.123,0.064 -0.221,0.168 -0.275,0.296 -0.055,0.128 -0.064,0.27 -0.025,0.404 l 0.7,1.5 -1.6,0.7 c -0.066,0.007 -0.129,0.031 -0.184,0.069 -0.055,0.039 -0.099,0.09 -0.129,0.149 -0.03,0.06 -0.044,0.126 -0.042,0.193 0.002,0.066 0.021,0.131 0.055,0.189 0.022,0.069 0.058,0.133 0.106,0.187 0.049,0.053 0.108,0.096 0.175,0.125 0.066,0.028 0.138,0.042 0.211,0.04 0.072,-0.002 0.143,-0.02 0.208,-0.052 l 1.6,-0.6 0.6,1.6 c 0.064,0.123 0.169,0.22 0.296,0.275 0.128,0.055 0.271,0.064 0.404,0.025 0.2,-0.2 0.4,-0.5 0.2,-0.7 z"
   id="path208"
   inkscape:connector-curvature="0"
   style="fill:#ffffff" />
<path
   d="m 368.51483,444.37571 1.6,-0.6 c 0.123,-0.064 0.221,-0.169 0.275,-0.296 0.055,-0.128 0.064,-0.27 0.025,-0.404 -0.021,-0.069 -0.057,-0.133 -0.106,-0.187 -0.048,-0.053 -0.108,-0.096 -0.175,-0.125 -0.066,-0.028 -0.138,-0.042 -0.211,-0.04 -0.072,0.002 -0.143,0.02 -0.208,0.052 l -1.6,0.6 -0.6,-1.6 c -0.078,-0.105 -0.19,-0.182 -0.316,-0.218 -0.127,-0.036 -0.261,-0.03 -0.384,0.018 -0.115,0.045 -0.21,0.132 -0.265,0.242 -0.056,0.111 -0.068,0.239 -0.035,0.358 l 0.7,1.6 -1.6,0.6 c -0.069,0.022 -0.133,0.058 -0.187,0.106 -0.053,0.049 -0.096,0.108 -0.125,0.175 -0.028,0.066 -0.042,0.138 -0.04,0.211 0.002,0.072 0.02,0.143 0.052,0.208 0.1,0.2 0.4,0.4 0.6,0.3 l 1.6,-0.6 0.6,1.6 c 0.079,0.106 0.19,0.182 0.316,0.218 0.127,0.037 0.262,0.03 0.384,-0.018 0.066,-0.007 0.13,-0.031 0.184,-0.069 0.055,-0.039 0.099,-0.09 0.129,-0.149 0.03,-0.06 0.044,-0.126 0.042,-0.193 -0.002,-0.066 -0.021,-0.131 -0.055,-0.189 z"
   id="path210"
   inkscape:connector-curvature="0"
   style="fill:#ffffff" />
<path
   d="m 397.81483,447.37571 1.6,-0.7 c 0.097,-0.061 0.171,-0.155 0.207,-0.264 0.036,-0.11 0.034,-0.228 -0.007,-0.336 -0.007,-0.066 -0.031,-0.129 -0.069,-0.184 -0.039,-0.055 -0.09,-0.099 -0.149,-0.129 -0.06,-0.029 -0.126,-0.044 -0.193,-0.042 -0.066,0.003 -0.131,0.021 -0.189,0.055 l -1.6,0.6 -0.7,-1.6 c -0.062,-0.097 -0.155,-0.17 -0.264,-0.207 -0.11,-0.036 -0.228,-0.034 -0.336,0.007 -0.066,0.008 -0.129,0.032 -0.184,0.07 -0.055,0.038 -0.099,0.089 -0.129,0.149 -0.03,0.059 -0.044,0.125 -0.042,0.192 0.002,0.067 0.021,0.132 0.055,0.189 l 0.6,1.6 -1.5,0.7 c -0.084,0.063 -0.146,0.151 -0.177,0.251 -0.031,0.1 -0.03,0.208 0.003,0.307 0.033,0.1 0.097,0.186 0.182,0.248 0.085,0.061 0.187,0.094 0.292,0.094 l 1.6,-0.6 0.7,1.5 c 0.063,0.084 0.151,0.146 0.251,0.177 0.1,0.032 0.208,0.031 0.307,-0.003 0.1,-0.033 0.186,-0.096 0.248,-0.181 0.061,-0.086 0.094,-0.188 0.094,-0.293 z"
   id="path212"
   inkscape:connector-curvature="0"
   style="fill:#ffffff" />
<path
   d="m 421.81483,384.27571 1.6,-0.7 c 0.2,-0.1 0.4,-0.4 0.2,-0.6 -0.007,-0.067 -0.031,-0.13 -0.069,-0.185 -0.038,-0.054 -0.09,-0.098 -0.149,-0.128 -0.06,-0.03 -0.126,-0.045 -0.193,-0.042 -0.066,0.002 -0.131,0.021 -0.189,0.055 l -1.6,0.6 -0.6,-1.6 c -0.078,-0.106 -0.189,-0.183 -0.316,-0.219 -0.126,-0.036 -0.261,-0.029 -0.384,0.019 -0.066,0.007 -0.129,0.031 -0.184,0.069 -0.054,0.038 -0.099,0.09 -0.129,0.149 -0.029,0.06 -0.044,0.126 -0.042,0.192 0.003,0.067 0.022,0.132 0.055,0.19 l 0.7,1.6 -1.6,0.7 c -0.079,0 -0.157,0.018 -0.228,0.054 -0.07,0.037 -0.131,0.089 -0.177,0.153 -0.047,0.064 -0.077,0.139 -0.089,0.217 -0.012,0.078 -0.005,0.159 0.02,0.234 0.025,0.075 0.068,0.143 0.124,0.198 0.057,0.056 0.126,0.097 0.201,0.121 0.076,0.023 0.156,0.029 0.234,0.015 0.078,-0.013 0.152,-0.045 0.215,-0.092 l 1.6,-0.6 0.7,1.5 c 0,0.079 0.019,0.157 0.055,0.227 0.036,0.071 0.089,0.132 0.153,0.178 0.064,0.046 0.139,0.077 0.217,0.089 0.078,0.012 0.158,0.005 0.233,-0.02 0.076,-0.025 0.144,-0.068 0.199,-0.124 0.056,-0.057 0.097,-0.126 0.121,-0.201 0.023,-0.076 0.028,-0.156 0.015,-0.234 -0.013,-0.078 -0.045,-0.152 -0.093,-0.215 z"
   id="path214"
   inkscape:connector-curvature="0"
   style="fill:#ffffff" />
<path
   d="m 392.41483,373.67571 1.6,-0.6 c 0.066,-0.026 0.126,-0.065 0.176,-0.115 0.051,-0.049 0.091,-0.108 0.119,-0.173 0.028,-0.065 0.043,-0.135 0.043,-0.205 0.001,-0.071 -0.012,-0.141 -0.038,-0.207 -0.026,-0.066 -0.065,-0.125 -0.115,-0.176 -0.049,-0.051 -0.108,-0.091 -0.173,-0.119 -0.065,-0.028 -0.135,-0.043 -0.205,-0.043 -0.071,-10e-4 -0.141,0.012 -0.207,0.038 l -1.6,0.7 -0.6,-1.6 c -0.053,-0.133 -0.157,-0.239 -0.288,-0.295 -0.131,-0.056 -0.279,-0.058 -0.412,-0.005 -0.133,0.053 -0.239,0.157 -0.295,0.288 -0.056,0.131 -0.058,0.279 -0.005,0.412 l 0.7,1.6 -1.6,0.6 c -0.069,0.021 -0.133,0.058 -0.187,0.106 -0.054,0.049 -0.096,0.108 -0.125,0.175 -0.028,0.066 -0.042,0.138 -0.04,0.211 0.002,0.072 0.02,0.143 0.052,0.208 0.064,0.123 0.169,0.221 0.296,0.275 0.128,0.055 0.271,0.064 0.404,0.025 l 1.5,-0.7 0.7,1.6 c 0.021,0.069 0.058,0.133 0.106,0.187 0.049,0.054 0.108,0.096 0.175,0.125 0.066,0.028 0.138,0.042 0.211,0.04 0.072,-0.002 0.143,-0.02 0.208,-0.052 0.105,-0.079 0.182,-0.19 0.218,-0.316 0.036,-0.127 0.03,-0.262 -0.018,-0.384 z"
   id="path216"
   inkscape:connector-curvature="0"
   style="fill:#ffffff" />
<path
   d="m 415.51483,395.47571 1.6,-0.7 c 0.2,-0.1 0.4,-0.4 0.3,-0.6 -0.021,-0.069 -0.058,-0.133 -0.106,-0.187 -0.048,-0.054 -0.108,-0.096 -0.175,-0.125 -0.066,-0.029 -0.138,-0.042 -0.211,-0.04 -0.072,0.002 -0.143,0.02 -0.208,0.052 l -1.6,0.6 -0.6,-1.6 c -0.078,-0.106 -0.19,-0.182 -0.316,-0.219 -0.127,-0.036 -0.261,-0.029 -0.384,0.019 -0.2,0.1 -0.4,0.4 -0.3,0.6 l 0.7,1.6 -1.6,0.7 c -0.066,0.007 -0.129,0.031 -0.184,0.069 -0.055,0.038 -0.099,0.09 -0.129,0.149 -0.03,0.06 -0.044,0.126 -0.042,0.193 0.002,0.066 0.021,0.131 0.055,0.189 0.022,0.069 0.058,0.133 0.106,0.186 0.049,0.054 0.108,0.097 0.175,0.125 0.066,0.029 0.138,0.043 0.211,0.041 0.072,-0.002 0.143,-0.02 0.208,-0.052 l 1.6,-0.6 0.6,1.5 c 0.021,0.069 0.058,0.133 0.106,0.186 0.049,0.054 0.108,0.097 0.175,0.125 0.066,0.029 0.138,0.043 0.211,0.041 0.072,-0.002 0.143,-0.02 0.208,-0.052 0.097,-0.062 0.171,-0.155 0.207,-0.265 0.036,-0.109 0.034,-0.228 -0.007,-0.335 z"
   id="path218"
   inkscape:connector-curvature="0"
   style="fill:#ffffff" />
<path
   d="m 355.51483,352.47571 1.6,-0.6 c 0.069,-0.022 0.133,-0.058 0.187,-0.106 0.054,-0.049 0.096,-0.108 0.125,-0.175 0.028,-0.066 0.042,-0.138 0.04,-0.211 -0.002,-0.072 -0.02,-0.143 -0.052,-0.208 -0.064,-0.123 -0.168,-0.221 -0.296,-0.275 -0.128,-0.055 -0.271,-0.064 -0.404,-0.025 l -1.6,0.7 -0.6,-1.6 c -0.021,-0.069 -0.057,-0.133 -0.106,-0.187 -0.048,-0.054 -0.108,-0.096 -0.175,-0.125 -0.066,-0.028 -0.138,-0.042 -0.21,-0.04 -0.073,0.002 -0.144,0.02 -0.209,0.052 -0.123,0.064 -0.22,0.168 -0.275,0.296 -0.055,0.128 -0.064,0.27 -0.025,0.404 l 0.7,1.6 -1.6,0.6 c -0.069,0.021 -0.133,0.057 -0.187,0.106 -0.053,0.048 -0.096,0.108 -0.125,0.174 -0.028,0.067 -0.042,0.139 -0.04,0.211 0.002,0.073 0.02,0.144 0.052,0.209 0.064,0.123 0.169,0.22 0.296,0.275 0.128,0.055 0.271,0.064 0.404,0.025 l 1.6,-0.7 0.6,1.6 c 0.022,0.069 0.058,0.133 0.106,0.187 0.049,0.053 0.108,0.096 0.175,0.125 0.066,0.028 0.138,0.042 0.211,0.04 0.072,-0.002 0.143,-0.02 0.208,-0.052 0.061,-0.032 0.114,-0.075 0.157,-0.128 0.044,-0.052 0.076,-0.113 0.094,-0.179 0.019,-0.066 0.024,-0.134 0.015,-0.202 -0.008,-0.068 -0.031,-0.133 -0.066,-0.191 z"
   id="path220"
   inkscape:connector-curvature="0"
   style="fill:#ffffff" />
<path
   d="m 389.01483,285.77571 1.7,-0.7 c 0.142,-0.046 0.261,-0.144 0.335,-0.273 0.074,-0.129 0.097,-0.282 0.065,-0.427 -0.081,-0.132 -0.204,-0.232 -0.349,-0.286 -0.144,-0.055 -0.303,-0.06 -0.451,-0.014 l -1.7,0.7 -0.7,-1.8 c -0.064,-0.124 -0.168,-0.221 -0.296,-0.276 -0.128,-0.054 -0.27,-0.063 -0.404,-0.024 -0.131,0.081 -0.232,0.204 -0.286,0.349 -0.054,0.144 -0.059,0.303 -0.014,0.451 l 0.7,1.7 -1.8,0.7 c -0.123,0.064 -0.22,0.168 -0.275,0.296 -0.055,0.128 -0.063,0.27 -0.025,0.404 0.033,0.072 0.079,0.138 0.137,0.192 0.058,0.055 0.126,0.097 0.201,0.125 0.074,0.028 0.153,0.041 0.233,0.038 0.079,-0.003 0.157,-0.022 0.229,-0.055 l 1.7,-0.7 0.7,1.8 c 0.064,0.123 0.169,0.22 0.297,0.275 0.127,0.055 0.27,0.063 0.403,0.025 0.073,-0.033 0.138,-0.079 0.193,-0.137 0.054,-0.058 0.097,-0.126 0.125,-0.2 0.027,-0.075 0.04,-0.154 0.037,-0.234 -0.003,-0.079 -0.021,-0.157 -0.055,-0.229 z"
   id="path222"
   inkscape:connector-curvature="0"
   style="fill:#ffffff" />
<path
   d="m 420.61483,458.27571 10,-66 -2,66 z"
   id="path224"
   inkscape:connector-curvature="0"
   style="opacity:0.15;fill:#000000" />
<path
   d="m 455.51483,409.87471 16.6,0.3 c 0.845,0.009 1.672,0.247 2.394,0.686 0.721,0.44 1.311,1.067 1.706,1.814 l 1.9,3.3 -7.7,1.9 z"
   id="path226"
   inkscape:connector-curvature="0"
   style="fill:#f39494" />
<path
   d="m 500.51483,430.37471 -22.4,-15 c -1.94,-1.213 -4.069,-2.091 -6.3,-2.6 0,0 -22.1,-4.1 -22.4,-4.3 l -32.1,-14.6 1.8,32.6 14.7,5.2 49.6,16.7 c 0.466,0.211 0.996,0.235 1.48,0.068 0.483,-0.168 0.884,-0.514 1.12,-0.968 0.125,-0.217 0.207,-0.456 0.239,-0.704 0.033,-0.248 0.016,-0.5 -0.049,-0.742 -0.065,-0.241 -0.177,-0.468 -0.33,-0.666 -0.152,-0.198 -0.343,-0.364 -0.56,-0.488 l -16.9,-9.4 19.6,10.8 c 0.26,0.156 0.549,0.257 0.85,0.296 0.3,0.039 0.606,0.015 0.897,-0.069 0.291,-0.085 0.561,-0.229 0.794,-0.422 0.233,-0.194 0.423,-0.434 0.559,-0.705 0.246,-0.458 0.348,-0.979 0.295,-1.496 -0.054,-0.517 -0.261,-1.006 -0.595,-1.404 l 1.7,1.3 c 0.488,0.342 1.086,0.491 1.677,0.417 0.592,-0.074 1.135,-0.365 1.523,-0.817 0.208,-0.228 0.369,-0.495 0.472,-0.786 0.103,-0.29 0.146,-0.599 0.128,-0.907 -0.019,-0.308 -0.099,-0.609 -0.237,-0.885 -0.137,-0.276 -0.329,-0.522 -0.563,-0.722 l -19.4,-17.7 22.1,11.9 c 0.256,0.14 0.537,0.227 0.827,0.258 0.289,0.03 0.582,0.003 0.861,-0.081 0.279,-0.084 0.539,-0.222 0.764,-0.407 0.226,-0.185 0.412,-0.413 0.548,-0.67 0.299,-0.493 0.394,-1.082 0.263,-1.643 -0.131,-0.561 -0.477,-1.049 -0.963,-1.357 z"
   id="path228"
   inkscape:connector-curvature="0"
   style="fill:#f39494" />
<g
   id="g232"
   style="opacity:0.15"
   transform="translate(-271.38517,-155.72529)">
<path
   d="m 760.5,597.7 c 0.149,0.031 0.302,0.019 0.444,-0.034 0.141,-0.053 0.265,-0.145 0.356,-0.266 0.117,-0.173 0.162,-0.385 0.125,-0.591 -0.038,-0.205 -0.154,-0.388 -0.325,-0.509 l -17.3,-12.2 c -0.4,-0.2 -0.9,-0.2 -1.1,0.2 -0.116,0.173 -0.161,0.385 -0.124,0.591 0.038,0.205 0.154,0.388 0.324,0.509 l 17.4,12.2 z"
   id="path230"
   inkscape:connector-curvature="0"
   style="opacity:0.15;fill:#000000" />
</g>
<g
   id="g236"
   style="opacity:0.15"
   transform="translate(-271.38517,-155.72529)">
<path
   d="m 755.3,600.2 c 0.173,0.043 0.356,0.027 0.519,-0.045 0.163,-0.073 0.297,-0.198 0.381,-0.355 0.054,-0.092 0.088,-0.193 0.102,-0.299 0.014,-0.105 0.006,-0.212 -0.022,-0.314 -0.027,-0.102 -0.075,-0.198 -0.141,-0.282 -0.065,-0.083 -0.146,-0.153 -0.239,-0.205 l -16.8,-9.4 c -0.19,-0.085 -0.403,-0.101 -0.603,-0.047 -0.201,0.055 -0.376,0.177 -0.497,0.347 -0.053,0.091 -0.088,0.193 -0.102,0.298 -0.013,0.105 -0.006,0.212 0.022,0.315 0.028,0.102 0.076,0.198 0.141,0.281 0.065,0.084 0.147,0.154 0.239,0.206 l 16.8,9.3 z"
   id="path234"
   inkscape:connector-curvature="0"
   style="opacity:0.15;fill:#000000" />
</g>
<path
   d="m 485.01483,446.17471 -45.5,-16.7 -19.9,-4.2 v 2 l 15,5 47.8,16.1 c 1,0.5 3.1,-0.4 2.6,-2.2 z"
   id="path238"
   inkscape:connector-curvature="0"
   style="opacity:0.15;fill:#000000" />
<path
   d="m 325.01483,379.07471 -44.6,-81.4 -0.8,-0.4 c 0,0.9 1,2.2 1.4,3 3.6,8.6 24.7,58.2 36.7,80.1 5.1,9.3 8.9,14.6 15.1,18.9 3.377,2.363 7.083,4.216 11,5.5 l 85.8,29.5 v -4 l -86.8,-33.8 c -4.03,-1.474 -7.701,-3.788 -10.769,-6.788 -3.069,-2.999 -5.465,-6.617 -7.031,-10.612 z"
   id="path240"
   inkscape:connector-curvature="0"
   style="opacity:0.15;fill:#000000" />
<path
   d="m 361.61483,362.97471 -32.9,-62.4 -49.1,-3.3 47.9,86 c 3.3,7.8 14.6,11.7 22.5,14.6 l 76.7,31.7 1,-31.6 z"
   class="change-color-in-svg"
   id="path242"
   style="fill:#38bff8;fill-opacity:1"
   inkscape:connector-curvature="0" />
<path
   d="m 366.41483,362.87471 -36.7,-61.3 31.5,61.7 67.5,35.7 z"
   id="path244"
   inkscape:connector-curvature="0"
   style="opacity:0.15;fill:#000000" />
<path
   d="m 431.91483,399.87471 -5.3,30.5 -7.9,-2.9 6.2,-31.5 z"
   id="path246"
   inkscape:connector-curvature="0"
   style="fill:#21252b" />
<path
   d="m 342.71483,199.57471 -3.5,-22.6 c -2.1,-11.7 10,-17.9 17.3,-17.9 h 25.3 c 7.8,0 17,6.1 13.1,19.3 l -2.3,20 z"
   id="path248"
   inkscape:connector-curvature="0"
   style="fill:#1a1a1a" />
<path
   d="m 402.01483,252.57471 c -2.4,3 -8.6,10.7 -12.4,14.7 -1.9,2 -5.3,1.9 -7.6,-0.3 l -6.5,-6.2 c -2.8,-2.7 -7.3,-2.4 -8.9,0.7 l -4.7,8.6 c -1.3,2.6 -4.9,3.5 -8,1.9 l -25,-14.5 c -1.493,-0.89 -2.814,-2.042 -3.9,-3.4 -0.4,2.5 1.2,5.1 3.9,6.4 l 25,14.4 c 3.1,1.5 6.7,0.6 8.1,-2 l 4.6,-8.7 c 1.7,-3.1 6.2,-3.4 9,-0.7 l 6.5,6.2 c 2.2,2.1 5.7,2.2 7.6,0.2 3.7,-4.1 10.3,-12.2 12.8,-15.2 0.6,-0.9 1.1,-2.5 0.4,-3.4 z"
   id="path250"
   inkscape:connector-curvature="0"
   style="opacity:0.2;fill:#231f20" />
<path
   d="m 341.11483,236.97471 -9.4,3.5 c -1.1,0.4 -5.1,1.8 -5.4,4.2 l -0.7,4.7 c -0.4,2.5 -0.6,6.7 -0.6,6.7 l 28.9,16.9 c 3.1,1.5 6.7,0.6 8.1,-2 l 4.6,-8.6 c 1.6,-3.1 6.2,-3.4 9,-0.7 l 6.4,6.2 c 2.3,2.2 5.7,2.3 7.6,0.3 3.8,-4.1 13.5,-16.6 13.5,-16.6 0,0 -6.8,-10.7 -10.4,-12.7 l -14.2,-3.9 c -11.6,-3.3 -24.7,-2.7 -37.4,2 z"
   id="path252"
   inkscape:connector-curvature="0"
   style="fill:#21252b" />
<path
   d="m 387.51483,189.67471 c 0,0 -41.2,-25.9 -42.6,5.7 l -0.6,8.3 -2.9,41.3 c 0,1.5 11,8.9 11,8.9 2.936,1.711 6.185,2.816 9.556,3.249 3.37,0.432 6.793,0.185 10.066,-0.729 3.273,-0.914 6.329,-2.475 8.988,-4.591 2.659,-2.117 4.866,-4.745 6.49,-7.729 0.192,-0.271 0.328,-0.577 0.4,-0.9 l -2.9,-23.1 c 0.582,-2.425 0.884,-4.907 0.9,-7.4 0.4,-12.1 1.6,-23 1.6,-23 z"
   id="path254"
   inkscape:connector-curvature="0"
   style="fill:#fc9d9d" />
<path
   d="m 392.11483,167.17571 c 0,0 14.5,61.4 -16.8,65.5 -27.3,3.6 -30.3,-38.8 -30.3,-38.8 l 1.1,-27.5 z"
   id="path256"
   inkscape:connector-curvature="0"
   style="fill:#fc9d9d" />
<path
   d="m 344.01483,205.47471 c 0,0 2.7,0.2 4.1,-1 l -4.4,6.8 z"
   id="path258"
   inkscape:connector-curvature="0"
   style="opacity:0.15;fill:#000000" />
<path
   d="m 345.61483,189.07471 c 0,0 -2,-5.8 -8,-3.1 -6,2.7 -5.6,18.7 6.1,19.5 6.1,0.5 4.9,-3 3.9,-7.7 z"
   id="path260"
   inkscape:connector-curvature="0"
   style="fill:#fc9d9d" />
<path
   d="m 337.11483,190.27471 c 0.462,-0.362 0.992,-0.629 1.559,-0.783 0.567,-0.155 1.159,-0.195 1.741,-0.117 1.1,0.343 2.052,1.048 2.7,2 0.68,1.376 1.088,2.87 1.2,4.4 l 0.2,1.4 c 0,0.5 -0.2,0.8 -0.6,0.8 -0.4,0 -0.8,-0.2 -0.8,-0.6 l -0.2,-1.4 c -0.075,-1.239 -0.453,-2.44 -1.1,-3.5 -0.6,-0.8 -1.1,-1.4 -1.6,-1.4 -0.402,-0.108 -0.826,-0.11 -1.229,-0.004 -0.404,0.105 -0.773,0.313 -1.071,0.604 -0.4,0.1 -0.8,0.1 -1,-0.3 -0.2,-0.4 0,-1 0.2,-1.1 z"
   id="path262"
   inkscape:connector-curvature="0"
   style="opacity:0.3;fill:#000000" />
<path
   d="m 387.11483,237.57471 -1,-9.9 c -2.7,2.7 -10.2,6.6 -18.7,4.7 -4.25,-1.147 -8.074,-3.511 -11,-6.8 -0.132,-0.091 -0.289,-0.139 -0.45,-0.139 -0.16,0 -0.317,0.048 -0.45,0.139 -0.098,0.11 -0.152,0.252 -0.152,0.4 0,0.147 0.054,0.29 0.152,0.4 3.777,4.263 8.957,7.03 14.6,7.8 2.463,1.673 5.237,2.835 8.156,3.419 2.92,0.584 5.927,0.578 8.844,-0.019 z"
   id="path264"
   inkscape:connector-curvature="0"
   style="opacity:0.15;fill:#000000" />
<g
   id="g268"
   style="opacity:0.3"
   transform="translate(-271.38517,-155.72529)">
<path
   d="m 648.9,376 -3.9,0.4 c -0.198,-0.037 -0.381,-0.133 -0.524,-0.276 -0.143,-0.143 -0.239,-0.325 -0.276,-0.524 0.018,-0.216 0.105,-0.421 0.25,-0.584 0.144,-0.162 0.337,-0.273 0.55,-0.316 l 3.7,-0.3 c 0.109,-0.017 0.221,-0.008 0.325,0.026 0.105,0.034 0.201,0.093 0.279,0.171 0.078,0.078 0.136,0.173 0.17,0.278 0.034,0.105 0.043,0.216 0.026,0.325 0.2,0.1 -0.2,0.6 -0.6,0.8 z"
   id="path266"
   inkscape:connector-curvature="0"
   style="opacity:0.3;fill:#000000" />
</g>
<g
   id="g272"
   style="opacity:0.3"
   transform="translate(-271.38517,-155.72529)">
<path
   d="m 650.2,372.3 c -6.9,1 -10,-2.6 -11,-4.5 -0.088,-0.164 -0.116,-0.353 -0.08,-0.536 0.037,-0.182 0.136,-0.347 0.28,-0.464 0.182,-0.08 0.385,-0.104 0.581,-0.068 0.196,0.036 0.376,0.129 0.519,0.268 1,1.9 4.4,5.7 12.6,3 0.098,-0.05 0.205,-0.079 0.314,-0.086 0.11,-0.007 0.22,0.009 0.323,0.047 0.103,0.037 0.198,0.096 0.277,0.171 0.08,0.076 0.143,0.167 0.186,0.268 0.2,0.5 0,0.8 -0.4,1.1 -0.4,0.3 -2.4,0.5 -3.6,0.8 z"
   id="path270"
   inkscape:connector-curvature="0"
   style="opacity:0.3;fill:#000000" />
</g>
<path
   d="m 367.81483,198.37571 c 1.381,0 2.5,-1.12 2.5,-2.5 0,-1.381 -1.119,-2.5 -2.5,-2.5 -1.381,0 -2.5,1.119 -2.5,2.5 0,1.38 1.119,2.5 2.5,2.5 z"
   id="path274"
   inkscape:connector-curvature="0"
   style="fill:#21252b" />
<path
   d="m 368.81483,195.67471 c 0.332,0 0.6,-0.268 0.6,-0.6 0,-0.331 -0.268,-0.6 -0.6,-0.6 -0.331,0 -0.6,0.269 -0.6,0.6 0,0.332 0.269,0.6 0.6,0.6 z"
   id="path276"
   inkscape:connector-curvature="0"
   style="fill:#ffffff" />
<path
   d="m 387.11483,199.57471 c 1.381,0 2.5,-1.119 2.5,-2.5 0,-1.381 -1.119,-2.5 -2.5,-2.5 -1.381,0 -2.5,1.119 -2.5,2.5 0,1.381 1.119,2.5 2.5,2.5 z"
   id="path278"
   inkscape:connector-curvature="0"
   style="fill:#21252b" />
<path
   d="m 388.21483,196.87371 c 0.331,0 0.6,-0.268 0.6,-0.6 0,-0.331 -0.269,-0.6 -0.6,-0.6 -0.331,0 -0.6,0.269 -0.6,0.6 0,0.332 0.269,0.6 0.6,0.6 z"
   id="path280"
   inkscape:connector-curvature="0"
   style="fill:#ffffff" />
<g
   id="g284"
   style="opacity:0.3"
   transform="translate(-271.38517,-155.72529)">
<path
   d="m 652.2,366.001 -3.3,0.3 c -0.5,0 -0.8,-0.3 -0.8,-0.6 0,-0.3 0.2,-0.8 0.6,-0.8 l 3.3,-0.3 c 0.197,-0.013 0.39,-0.065 0.567,-0.152 0.177,-0.087 0.335,-0.209 0.466,-0.358 0.13,-0.148 0.229,-0.321 0.292,-0.508 0.063,-0.188 0.089,-0.385 0.075,-0.582 -0.05,-0.407 -0.254,-0.779 -0.571,-1.039 -0.316,-0.261 -0.72,-0.39 -1.129,-0.361 -0.4,0 -0.8,-0.2 -0.8,-0.6 0,-0.4 0.2,-0.8 0.6,-0.8 0.791,-0.058 1.574,0.19 2.188,0.692 0.614,0.502 1.012,1.221 1.112,2.008 0.041,0.375 0.006,0.756 -0.103,1.117 -0.11,0.362 -0.292,0.698 -0.535,0.988 -0.243,0.29 -0.542,0.527 -0.879,0.698 -0.337,0.171 -0.706,0.272 -1.083,0.297 z"
   id="path282"
   inkscape:connector-curvature="0"
   style="opacity:0.3;fill:#000000" />
</g>
<path
   d="m 396.31483,148.87471 c -8.9,-6.3 -26.6,-1.9 -36.2,2.5 0.2,-2.8 -1.6,-2.5 -1.6,-2.5 -16.9,4.5 -12.5,17.9 -12.5,17.9 h 0.2 c -1.8,3.8 -4.1,12 -1.9,26.8 0,0 6.1,-12.3 6.2,-21.9 7.5,3.4 29.1,8.2 42.6,3.7 1.3,8.1 2.2,18.2 2.2,18.2 1.165,-6.988 1.131,-14.123 -0.1,-21.1 0.836,-0.583 1.607,-1.253 2.3,-2 0,0 11.5,-12.6 -1.2,-21.6 z"
   id="path286"
   inkscape:connector-curvature="0"
   style="fill:#1a1a1a" />
<path
   d="m 400.71483,196.37471 c 0,2.101 -0.624,4.155 -1.793,5.9 -1.169,1.745 -2.831,3.104 -4.774,3.903 -1.942,0.799 -4.079,1.003 -6.138,0.586 -2.059,-0.417 -3.947,-1.437 -5.425,-2.929 -1.479,-1.493 -2.48,-3.391 -2.878,-5.454 -0.398,-2.062 -0.173,-4.197 0.644,-6.132 0.818,-1.935 2.192,-3.583 3.948,-4.736 1.757,-1.153 3.816,-1.757 5.916,-1.738 2.794,0.027 5.465,1.155 7.431,3.14 1.966,1.985 3.07,4.666 3.069,7.46 z"
   id="path288"
   inkscape:connector-curvature="0"
   style="opacity:0.18999999;fill:#ffffff" />
<path
   d="m 374.81483,196.37471 c 0,2.101 -0.624,4.155 -1.793,5.9 -1.169,1.745 -2.831,3.104 -4.774,3.903 -1.942,0.799 -4.079,1.003 -6.138,0.586 -2.058,-0.417 -3.947,-1.437 -5.425,-2.929 -1.479,-1.493 -2.48,-3.391 -2.878,-5.454 -0.398,-2.062 -0.173,-4.197 0.644,-6.132 0.818,-1.935 2.192,-3.583 3.948,-4.736 1.757,-1.153 3.816,-1.757 5.916,-1.738 2.794,0.027 5.465,1.155 7.431,3.14 1.967,1.985 3.07,4.666 3.069,7.46 z"
   id="path290"
   inkscape:connector-curvature="0"
   style="opacity:0.18999999;fill:#ffffff" />
<path
   d="m 374.81483,196.37471 c 0,2.101 -0.624,4.155 -1.793,5.9 -1.169,1.745 -2.831,3.104 -4.774,3.903 -1.942,0.799 -4.079,1.003 -6.138,0.586 -2.058,-0.417 -3.947,-1.437 -5.425,-2.929 -1.479,-1.493 -2.48,-3.391 -2.878,-5.454 -0.398,-2.062 -0.173,-4.197 0.644,-6.132 0.818,-1.935 2.192,-3.583 3.948,-4.736 1.757,-1.153 3.816,-1.757 5.916,-1.738 2.794,0.027 5.465,1.155 7.431,3.14 1.967,1.985 3.07,4.666 3.069,7.46 z"
   id="path292"
   inkscape:connector-curvature="0"
   style="stroke:#1a1a1a;stroke-width:0.42820799;stroke-linecap:round;stroke-linejoin:round" />
<path
   d="m 400.71483,196.37471 c 0,2.101 -0.624,4.155 -1.793,5.9 -1.169,1.745 -2.831,3.104 -4.774,3.903 -1.942,0.799 -4.079,1.003 -6.138,0.586 -2.059,-0.417 -3.947,-1.437 -5.425,-2.929 -1.479,-1.493 -2.48,-3.391 -2.878,-5.454 -0.398,-2.062 -0.173,-4.197 0.644,-6.132 0.818,-1.935 2.192,-3.583 3.948,-4.736 1.757,-1.153 3.816,-1.757 5.916,-1.738 2.794,0.027 5.465,1.155 7.431,3.14 1.966,1.985 3.07,4.666 3.069,7.46 z"
   id="path294"
   inkscape:connector-curvature="0"
   style="stroke:#1a1a1a;stroke-width:0.42820799;stroke-linecap:round;stroke-linejoin:round" />
<path
   d="m 374.81483,196.37471 c 0,0 2.5,-2.3 4.8,0"
   id="path296"
   inkscape:connector-curvature="0"
   style="stroke:#1a1a1a;stroke-width:0.42820799;stroke-linecap:round;stroke-linejoin:round" />
<path
   d="m 353.71483,196.37571 -9.2,-3.5"
   stroke-miterlimit="10"
   id="path298"
   inkscape:connector-curvature="0"
   style="stroke:#1a1a1a;stroke-width:0.42820799;stroke-miterlimit:10" />
<path
   d="m 405.21483,831.07471 h 33.4 l 0.8,19.1 c 0.107,2.48 0.775,4.9 1.953,7.08 1.177,2.18 2.835,4.07 4.847,5.52 l 24.5,17.5 -61.2,-1.5 z"
   id="path300"
   inkscape:connector-curvature="0"
   style="fill:#fb9c9c" />
<path
   d="m 418.41483,870.87471 -8.8,3.6 32,-15.2 c -1.753,-4.56 -2.57,-9.42 -2.4,-14.3 h -32.7 v 4.3 l 20,1 c 2.1,0.2 2.8,3.5 2.6,5.7 v 0.4 c -0.279,3.17 -1.425,6.2 -3.313,8.75 -1.887,2.56 -4.443,4.55 -7.387,5.75 z"
   id="path302"
   inkscape:connector-curvature="0"
   style="opacity:0.15;fill:#000000" />
<path
   d="m 299.21483,830.97471 32.6,-0.1 -5.1,46.6 h -27.5 z"
   id="path304"
   inkscape:connector-curvature="0"
   style="fill:#fb9c9c" />
<path
   d="m 326.61483,877.27471 3.7,-32.4 -31,-0.2 0.5,4 19.8,3.1 c 0.904,0.09 1.743,0.51 2.367,1.17 0.624,0.66 0.99,1.52 1.033,2.43 l 0.7,14.4 z"
   id="path306"
   inkscape:connector-curvature="0"
   style="opacity:0.15;fill:#000000" />
<path
   d="m 297.31483,463.67471 131.4,2.1 12.4,379.1 h -35.9 l -33.1,-310.9 c -0.099,-0.963 -0.554,-1.855 -1.274,-2.502 -0.721,-0.647 -1.657,-1.003 -2.626,-0.998 v 0 c -0.986,-0.03 -1.946,0.314 -2.688,0.963 -0.743,0.65 -1.211,1.556 -1.312,2.537 l -31.1,310.9 h -35.8 z"
   id="path308"
   inkscape:connector-curvature="0"
   style="fill:#3f4249" />
<path
   d="m 296.51483,837.07571 h 38.7 l -0.7,7.799 h -38.2 z"
   id="path310"
   inkscape:connector-curvature="0"
   style="fill:#3f4249" />
<path
   d="m 320.61483,837.07571 h 14.6 l -0.7,7.799 -15,-0.2 z"
   id="path312"
   inkscape:connector-curvature="0"
   style="opacity:0.15;fill:#000000" />
<path
   d="m 403.51483,837.07571 h 38.3 l 0.4,7.799 h -37.9 z"
   id="path314"
   inkscape:connector-curvature="0"
   style="fill:#3f4249" />
<path
   d="m 441.81483,837.07471 -4.6,-0.1 0.4,7.9 h 4.6 z"
   id="path316"
   inkscape:connector-curvature="0"
   style="opacity:0.15;fill:#000000" />
<path
   d="m 320.61483,837.07471 25.8,-290 c 1.2,-9.5 9.6,-16.6 19.5,-16.6 h 2.6 c -0.995,-0.005 -1.956,0.361 -2.696,1.027 -0.74,0.666 -1.204,1.583 -1.304,2.573 l -30.8,303 z"
   id="path318"
   inkscape:connector-curvature="0"
   style="opacity:0.2;fill:#000000" />
<path
   d="m 419.61483,472.77471 18.6,364.2 h 3.6 l -12.8,-364.2 z"
   id="path320"
   inkscape:connector-curvature="0"
   style="fill:#32353a" />
<path
   d="m 296.31483,894.57471 h 33.4 c 0.745,0 1.473,-0.23 2.082,-0.66 0.609,-0.43 1.069,-1.04 1.318,-1.74 0.086,0.66 0.119,1.33 0.1,2 v 1.1 c -0.013,0.45 -0.114,0.89 -0.297,1.29 -0.183,0.41 -0.444,0.78 -0.769,1.08 -0.325,0.31 -0.708,0.55 -1.125,0.71 -0.418,0.16 -0.863,0.23 -1.309,0.22 h -33.4 c -0.447,0.01 -0.891,-0.06 -1.309,-0.22 -0.418,-0.16 -0.8,-0.4 -1.125,-0.71 -0.325,-0.3 -0.586,-0.67 -0.769,-1.08 -0.183,-0.4 -0.284,-0.84 -0.297,-1.29 v -0.4 c -0.017,-0.87 0.017,-1.74 0.1,-2.6 0.239,0.7 0.7,1.31 1.314,1.72 0.613,0.42 1.346,0.62 2.086,0.58 z"
   id="path322"
   inkscape:connector-curvature="0"
   style="fill:#000000" />
<path
   d="m 301.21483,859.17471 0.8,-0.8 c 3.186,-2.98 7.399,-4.61 11.76,-4.56 4.362,0.06 8.532,1.8 11.64,4.86 l 0.4,0.5 c 1.547,1.54 2.443,3.62 2.5,5.8 v 3.5 c -0.052,2 0.252,4 0.9,5.9 l 2.9,9.5 c 0.722,2.26 1.092,4.62 1.1,7 v 1.2 c -0.052,0.91 -0.457,1.77 -1.129,2.38 -0.673,0.62 -1.559,0.95 -2.471,0.92 h -33.3 c -0.455,0.03 -0.91,-0.04 -1.339,-0.19 -0.43,-0.15 -0.824,-0.39 -1.16,-0.7 -0.335,-0.31 -0.606,-0.68 -0.795,-1.09 -0.189,-0.42 -0.293,-0.86 -0.306,-1.32 v -0.5 c 0.027,-2.79 0.5,-5.56 1.4,-8.2 l 3.4,-9.2 c 0.706,-2.13 1.077,-4.36 1.1,-6.6 v -2.7 c 0.099,-2.16 1.031,-4.21 2.6,-5.7 z"
   id="path324"
   inkscape:connector-curvature="0"
   style="fill:#3f4249" />
<path
   d="m 322.91483,866.77471 c 0.718,0 1.3,-0.58 1.3,-1.3 0,-0.72 -0.582,-1.3 -1.3,-1.3 -0.718,0 -1.3,0.58 -1.3,1.3 0,0.72 0.582,1.3 1.3,1.3 z"
   id="path326"
   inkscape:connector-curvature="0"
   style="opacity:0.4;fill:#231f20" />
<path
   d="m 322.31483,871.77471 c 0.718,0 1.3,-0.58 1.3,-1.3 0,-0.72 -0.582,-1.3 -1.3,-1.3 -0.718,0 -1.3,0.58 -1.3,1.3 0,0.72 0.582,1.3 1.3,1.3 z"
   id="path328"
   inkscape:connector-curvature="0"
   style="opacity:0.4;fill:#231f20" />
<path
   d="m 321.91483,875.47471 c 0.718,0 1.3,-0.58 1.3,-1.3 0,-0.72 -0.582,-1.3 -1.3,-1.3 -0.718,0 -1.3,0.58 -1.3,1.3 0,0.72 0.582,1.3 1.3,1.3 z"
   id="path330"
   inkscape:connector-curvature="0"
   style="opacity:0.4;fill:#231f20" />
<path
   d="m 322.51483,881.37471 c 0.718,0 1.3,-0.58 1.3,-1.3 0,-0.72 -0.582,-1.3 -1.3,-1.3 -0.718,0 -1.3,0.58 -1.3,1.3 0,0.72 0.582,1.3 1.3,1.3 z"
   id="path332"
   inkscape:connector-curvature="0"
   style="opacity:0.4;fill:#231f20" />
<path
   d="m 322.51483,886.47471 c 0.718,0 1.3,-0.58 1.3,-1.3 0,-0.72 -0.582,-1.3 -1.3,-1.3 -0.718,0 -1.3,0.58 -1.3,1.3 0,0.72 0.582,1.3 1.3,1.3 z"
   id="path334"
   inkscape:connector-curvature="0"
   style="opacity:0.4;fill:#231f20" />
<path
   d="m 306.81483,887.57471 c 0.718,0 1.3,-0.58 1.3,-1.3 0,-0.72 -0.582,-1.3 -1.3,-1.3 -0.718,0 -1.3,0.58 -1.3,1.3 0,0.72 0.582,1.3 1.3,1.3 z"
   id="path336"
   inkscape:connector-curvature="0"
   style="opacity:0.4;fill:#231f20" />
<path
   d="m 306.61483,882.77471 c 0.718,0 1.3,-0.58 1.3,-1.3 0,-0.72 -0.582,-1.3 -1.3,-1.3 -0.718,0 -1.3,0.58 -1.3,1.3 0,0.72 0.582,1.3 1.3,1.3 z"
   id="path338"
   inkscape:connector-curvature="0"
   style="opacity:0.4;fill:#231f20" />
<path
   d="m 306.41483,876.47471 c 0.718,0 1.3,-0.58 1.3,-1.3 0,-0.72 -0.582,-1.3 -1.3,-1.3 -0.718,0 -1.3,0.58 -1.3,1.3 0,0.72 0.582,1.3 1.3,1.3 z"
   id="path340"
   inkscape:connector-curvature="0"
   style="opacity:0.4;fill:#231f20" />
<path
   d="m 306.81483,870.47471 c 0.718,0 1.3,-0.58 1.3,-1.3 0,-0.72 -0.582,-1.3 -1.3,-1.3 -0.718,0 -1.3,0.58 -1.3,1.3 0,0.72 0.582,1.3 1.3,1.3 z"
   id="path342"
   inkscape:connector-curvature="0"
   style="opacity:0.4;fill:#231f20" />
<path
   d="m 307.01483,865.77471 c 0.718,0 1.3,-0.58 1.3,-1.3 0,-0.72 -0.582,-1.3 -1.3,-1.3 -0.718,0 -1.3,0.58 -1.3,1.3 0,0.72 0.582,1.3 1.3,1.3 z"
   id="path344"
   inkscape:connector-curvature="0"
   style="opacity:0.4;fill:#231f20" />
<path
   d="m 322.51483,865.17471 c 0,0 -5.7,-6 -15.5,-1"
   stroke-miterlimit="10"
   id="path346"
   inkscape:connector-curvature="0"
   style="stroke:#ffffff;stroke-linecap:round;stroke-miterlimit:10" />
<path
   d="m 322.31483,870.17471 c 0,0 -5.7,-6.1 -15.5,-1"
   stroke-miterlimit="10"
   id="path348"
   inkscape:connector-curvature="0"
   style="stroke:#ffffff;stroke-linecap:round;stroke-miterlimit:10" />
<path
   d="m 321.91483,873.97471 c -1.5,-1.1 -8.9,-3.5 -15.5,1.1"
   stroke-miterlimit="10"
   id="path350"
   inkscape:connector-curvature="0"
   style="stroke:#ffffff;stroke-linecap:round;stroke-miterlimit:10" />
<path
   d="m 322.01483,879.97471 c 0,0 -6.4,-5.2 -15.4,1.1"
   stroke-miterlimit="10"
   id="path352"
   inkscape:connector-curvature="0"
   style="stroke:#ffffff;stroke-linecap:round;stroke-miterlimit:10" />
<path
   d="m 322.51483,884.97471 c 0,0 -6.4,-5.3 -15.4,1.1"
   stroke-miterlimit="10"
   id="path354"
   inkscape:connector-curvature="0"
   style="stroke:#ffffff;stroke-linecap:round;stroke-miterlimit:10" />
<path
   d="m 405.71483,894.87471 89.4,0.2 c 0.179,-0.42 0.313,-0.85 0.4,-1.3 0.199,1.06 0.232,2.13 0.1,3.2 -0.023,0.8 -0.344,1.56 -0.899,2.13 -0.555,0.58 -1.304,0.92 -2.101,0.97 l -84,-0.2 c -0.814,-0.03 -1.588,-0.36 -2.164,-0.94 -0.576,-0.57 -0.911,-1.35 -0.936,-2.16 z"
   id="path356"
   inkscape:connector-curvature="0"
   style="fill:#000000" />
<path
   d="m 490.21483,884.77471 c -15.9,-7.1 -28.9,-13 -40.8,-23.7 -2.7,-2.4 -4.8,-4.2 -8.3,-4.5 l -13.5,8.3 c -0.801,0.54 -1.749,0.82 -2.716,0.8 -0.966,-0.02 -1.903,-0.33 -2.684,-0.9 l -14.4,-7.6 c -2.4,-0.2 -4.4,2.9 -4.2,5.4 l 2.1,32.3 89.4,0.2 c 1.9,-3.9 -2.1,-9.1 -4.9,-10.3 z"
   id="path358"
   inkscape:connector-curvature="0"
   style="fill:#3f4249" />
<path
   d="m 474.61483,886.37471 c 0.939,0 1.7,-0.72 1.7,-1.6 0,-0.88 -0.761,-1.6 -1.7,-1.6 -0.939,0 -1.7,0.72 -1.7,1.6 0,0.88 0.761,1.6 1.7,1.6 z"
   id="path360"
   inkscape:connector-curvature="0"
   style="opacity:0.4;fill:#231f20" />
<path
   d="m 464.81483,883.67471 c 0.939,0 1.7,-0.72 1.7,-1.6 0,-0.88 -0.761,-1.6 -1.7,-1.6 -0.939,0 -1.7,0.72 -1.7,1.6 0,0.88 0.761,1.6 1.7,1.6 z"
   id="path362"
   inkscape:connector-curvature="0"
   style="opacity:0.4;fill:#231f20" />
<path
   d="m 456.61483,878.07471 c 0.939,0 1.7,-0.72 1.7,-1.6 0,-0.88 -0.761,-1.6 -1.7,-1.6 -0.939,0 -1.7,0.72 -1.7,1.6 0,0.88 0.761,1.6 1.7,1.6 z"
   id="path364"
   inkscape:connector-curvature="0"
   style="opacity:0.4;fill:#231f20" />
<path
   d="m 448.81483,872.27471 c 0.939,0 1.7,-0.72 1.7,-1.6 0,-0.88 -0.761,-1.6 -1.7,-1.6 -0.939,0 -1.7,0.72 -1.7,1.6 0,0.88 0.761,1.6 1.7,1.6 z"
   id="path366"
   inkscape:connector-curvature="0"
   style="opacity:0.4;fill:#231f20" />
<path
   d="m 441.81483,865.27471 c 0.939,0 1.7,-0.72 1.7,-1.6 0,-0.88 -0.761,-1.6 -1.7,-1.6 -0.939,0 -1.7,0.72 -1.7,1.6 0,0.88 0.761,1.6 1.7,1.6 z"
   id="path368"
   inkscape:connector-curvature="0"
   style="opacity:0.4;fill:#231f20" />
<path
   d="m 477.71483,880.97471 -1.1,3 c -0.077,0.2 -0.193,0.38 -0.341,0.53 -0.148,0.15 -0.324,0.28 -0.52,0.36 -0.195,0.08 -0.406,0.13 -0.619,0.13 -0.212,0 -0.423,-0.04 -0.62,-0.12 v 0 c -0.199,-0.08 -0.379,-0.19 -0.53,-0.34 -0.15,-0.15 -0.267,-0.33 -0.343,-0.53 -0.076,-0.2 -0.108,-0.41 -0.096,-0.62 0.013,-0.22 0.07,-0.42 0.169,-0.61 l 1.6,-2.9 z"
   id="path370"
   inkscape:connector-curvature="0"
   style="fill:#ffffff" />
<path
   d="m 469.01483,876.87471 -2.1,4.5 c -0.095,0.19 -0.228,0.37 -0.392,0.51 -0.163,0.14 -0.353,0.24 -0.559,0.31 -0.205,0.06 -0.422,0.09 -0.636,0.07 -0.215,-0.02 -0.423,-0.09 -0.613,-0.19 v 0 c -0.181,-0.09 -0.342,-0.22 -0.472,-0.38 -0.129,-0.16 -0.225,-0.34 -0.281,-0.54 -0.056,-0.2 -0.072,-0.4 -0.045,-0.61 0.026,-0.2 0.094,-0.39 0.198,-0.57 l 2.3,-4.3 z"
   id="path372"
   inkscape:connector-curvature="0"
   style="fill:#ffffff" />
<path
   d="m 461.71483,872.27471 -2.8,3.8 c -0.137,0.18 -0.308,0.33 -0.503,0.44 -0.196,0.11 -0.411,0.18 -0.634,0.21 -0.224,0.03 -0.45,0.01 -0.667,-0.05 -0.217,-0.06 -0.419,-0.16 -0.596,-0.3 h -0.1 c -0.242,-0.27 -0.391,-0.61 -0.427,-0.97 -0.036,-0.36 0.043,-0.72 0.227,-1.03 l 2.7,-3.6 z"
   id="path374"
   inkscape:connector-curvature="0"
   style="fill:#ffffff" />
<path
   d="m 454.51483,867.47471 -3.6,3.4 c -0.28,0.27 -0.657,0.43 -1.05,0.43 -0.393,0 -0.77,-0.16 -1.05,-0.43 v 0 c -0.162,-0.15 -0.29,-0.33 -0.374,-0.53 -0.084,-0.21 -0.123,-0.42 -0.114,-0.64 0.01,-0.22 0.067,-0.44 0.169,-0.63 0.102,-0.2 0.245,-0.37 0.419,-0.5 l 3.6,-2.7 z"
   id="path376"
   inkscape:connector-curvature="0"
   style="fill:#ffffff" />
<path
   d="m 447.51483,861.17471 c 0,0.1 -2.1,1.7 -3.5,2.8 -0.315,0.23 -0.701,0.33 -1.088,0.29 -0.386,-0.03 -0.746,-0.21 -1.012,-0.49 v 0 c -0.125,-0.17 -0.212,-0.37 -0.255,-0.58 -0.043,-0.21 -0.041,-0.43 0.006,-0.63 0.048,-0.21 0.139,-0.41 0.268,-0.58 0.129,-0.17 0.293,-0.31 0.481,-0.41 l 4.2,-2 z"
   id="path378"
   inkscape:connector-curvature="0"
   style="fill:#ffffff" />
<path
   d="m 296.81483,457.77471 h 132.1 l 0.1,15 h -131.6 l -0.1,-8.7 z"
   id="path380"
   inkscape:connector-curvature="0"
   style="fill:#21252b" />
<path
   d="m 296.31483,457.77471 h 132.6 l 0.1,15 h -132 l -0.2,-8.7 z"
   id="path382"
   inkscape:connector-curvature="0"
   style="fill:#1a1a1a" />
<path
   d="m 387.61483,457.77471 h -28 v 14.96 h 28 z"
   id="path384"
   inkscape:connector-curvature="0"
   style="fill:#61656d" />
<path
   d="m 386.01483,457.77471 h -25 v 14.96 h 25 z"
   id="path386"
   inkscape:connector-curvature="0"
   style="fill:#dadddf" />
</svg>