<svg xmlns="http://www.w3.org/2000/svg" xmlns:xlink="http://www.w3.org/1999/xlink" width="1296.61" height="915.969" fill="none" xmlns:v="https://vecta.io/nano"><style><![CDATA[.B{fill:#000}.C{opacity:.2}.D{fill:#fff}.E{fill:#38bff8}.F{fill:#f39494}.G{fill:#21252b}.H{opacity:.3}.I{fill:#b2b6bb}.J{fill:#dadddf}.K{fill:#868a91}.L{fill:#22c55e}.M{stroke-miterlimit:10}]]></style><path d="M1217.399 905.836H62.609l-52.38-569.269a55 55 0 0 1 3.054-23.725c2.746-7.589 7.129-14.48 12.836-20.185l266.23-266.51a55.01 55.01 0 0 1 19.725-12.685 55 55 0 0 1 23.215-3.315l769.35 56.58c11.1.816 21.69 4.982 30.37 11.945a54.97 54.97 0 0 1 18.26 27.055l131 435.07c2.61 8.67 3.05 17.852 1.26 26.73z" fill="#f0f0f0"/><path d="M409.429 663.666a18.67 18.67 0 0 0-6.166-11.367c-3.344-2.933-7.626-4.576-12.074-4.633h-10l-3.9 1v.59l-84.41 10.75c-5.188.641-10.062 2.832-13.987 6.285a26 26 0 0 0-8.013 13.075l-58.86 226.29h14.2l57.95-222.84c.616-2.405 1.942-4.569 3.806-6.208a12.34 12.34 0 0 1 6.644-2.982l95.54-12.16a5.06 5.06 0 0 1 3.703.978c1.059.799 1.762 1.981 1.957 3.292l36.55 239.92h13.95z" class="I"/><path d="M217.269 905.646h-14.15l58.81-226.29c1.296-5.065 4.088-9.622 8.013-13.075s8.799-5.644 13.987-6.285l95.54-12.16c4.879-.658 9.821.636 13.753 3.6a18.7 18.7 0 0 1 7.247 12.23l36.89 242h-13.94l-36.55-239.94c-.198-1.313-.903-2.495-1.963-3.293s-2.391-1.149-3.707-.977l-95.53 12.16a12.33 12.33 0 0 0-6.644 2.981 12.34 12.34 0 0 0-3.806 6.209z" class="J"/><path d="M126.989 730.807l-48-199.85c-.337-1.408-.351-2.873-.04-4.287s.937-2.738 1.833-3.874 2.038-2.055 3.34-2.687 2.729-.961 4.177-.962h-13c-1.448.001-2.876.33-4.177.962s-2.444 1.55-3.34 2.687-1.523 2.461-1.833 3.874-.297 2.879.04 4.287l48 199.85 155.69.32z" class="I"/><g class="K"><path d="M229.409 526.427a9.57 9.57 0 0 0-3.389-5.243c-1.684-1.32-3.761-2.037-5.901-2.037h-131.8a9.58 9.58 0 0 0-4.177.962 9.56 9.56 0 0 0-3.339 2.687 9.58 9.58 0 0 0-1.834 3.874 9.59 9.59 0 0 0 .04 4.287l48 199.85 152.87.32z"/><path d="M436.759 730.807h-206.95a6.89 6.89 0 0 0-6.89 6.885 6.89 6.89 0 0 0 6.89 6.885h206.95a6.89 6.89 0 0 0 6.89-6.885 6.89 6.89 0 0 0-6.89-6.885z"/></g><path d="M283.009 730.807h-176.56a6.89 6.89 0 0 0-6.89 6.885 6.89 6.89 0 0 0 6.89 6.885h176.56a6.89 6.89 0 0 0 6.89-6.885 6.89 6.89 0 0 0-6.89-6.885z" fill="#858990"/><path d="M309.639 735.326a7 7 0 0 1 .221 3.848c-.288 1.278-.93 2.45-1.851 3.382-.637.64-1.397 1.147-2.233 1.491a6.81 6.81 0 0 1-2.637.509h-196.69c-.859.004-1.711-.155-2.51-.47l3.46-13.3h195.72c1.424-.017 2.818.412 3.987 1.226a6.84 6.84 0 0 1 2.533 3.314z" class="I"/><path d="M130.129 734.597l11.62-44.7h1.6l-11.38 44.7z" fill="#858990"/><path d="M268.839 663.666c-.636-4.402-2.823-8.433-6.167-11.367s-7.626-4.576-12.073-4.633h-10l-3.9 1v.59l-84.41 10.75c-5.189.641-10.063 2.832-13.988 6.285a26 26 0 0 0-8.012 13.075l-58.86 226.29h14.2l57.99-222.85c.618-2.412 1.952-4.581 3.826-6.221a12.34 12.34 0 0 1 6.674-2.969l95.54-12.16a5.06 5.06 0 0 1 5.66 4.27l36.55 239.92h13.91z" class="I"/><path d="M76.679 905.646h-14.2l58.86-226.29c1.296-5.065 4.088-9.622 8.013-13.075s8.799-5.644 13.987-6.285l95.53-12.16c4.88-.658 9.821.636 13.753 3.6s6.536 7.358 7.247 12.23l36.89 242h-13.93l-36.55-239.94c-.198-1.313-.903-2.495-1.963-3.293s-2.391-1.149-3.707-.977l-95.49 12.16c-2.464.302-4.779 1.341-6.644 2.981a12.35 12.35 0 0 0-3.806 6.209z" class="J"/><path d="M1232.309 359.436l.01.01h13.55v-.01h-11.35z" fill="#ececec"/><g fill="#d6d9db"><path d="M760.559 359.436h-.01v.01h.01z"/><path d="M1232.319 359.446l-.01-.01-471.75.01z"/></g><path d="M766.819 162.025v-14.63h27.89v14.63h39.22v82.72l20.21 5.71v-41.22l70.14-22.41v97.83l22.97 4.88v-57.42h20.39v-77.55h44.84v-13.25l33.24-22.6 34.44 22.6v103.07h29.36v37.44h16.28v-106.65l12.28-4.35v-16.26h21.89v8.49l11.92-4.23-16.28-54.04h-395.05v57.24z" fill="#ececec"/><path d="M747.639 372.357h488.57l-3.89-12.9h-471.76v-.01h-.01l.01-254.66h395.05l-3.88-12.9h-404.09z" class="D"/><g fill="#d6d9db"><path d="M1232.319 359.445l-471.76.01h471.76zm-308.04-74.789v-97.83l-70.14 22.41v41.22l12.4 3.51v105.47h17.19v-83.38zm88.2-130.089h-44.84v77.55h44.84zm97.04 127.26v-37.44h-29.36v115.05h12.08v-77.61z"/><path d="M1221.279 359.437h11.03l-11.03-36.63zm-297-74.781v74.78h22.97v-69.9z"/><path d="M883.729 276.057v83.38h40.55v-74.78zm242.07 5.769h-16.28v77.61h16.28z"/><path d="M1109.519 281.826h-17.28v77.61h17.28zm-348.96-119.8h-.01l.01 197.41z"/><path d="M833.929 244.746v-82.72h-39.22v13.26h-27.89v-13.26h-6.26v197.41h40.75v-123.91zm113.32-12.631v57.42l1.72.36v69.54h18.67v-127.32z"/><path d="M1012.479 232.115h-44.84v127.32h44.84zm-65.23 57.42v69.9h1.72v-69.54zm-113.32-44.789v114.69h20.21v-108.98z"/><path d="M854.139 250.455v108.98h12.4v-105.47zm-52.83-14.929v123.91h32.62v-114.69zm407.63 46.3l-37.05-123-11.92 4.23v23.77h-21.89v-16l-12.28 4.35v106.65h12.28v77.61h57.9v-77.61z"/><path d="M1208.939 281.826h-12.96v77.61h25.3v-36.63zm-70.86 0h-12.28v77.61h12.28zm-57.92-37.439v-103.07l-34.44-22.6-33.24 22.6v13.25h17.37v204.87h29.08v-115.05z"/><path d="M1012.479 154.567v204.87h17.37v-204.87zm67.68 89.82h-21.23v115.05h21.23zm-285.45-96.99h-27.89v14.63h27.89z"/><path d="M794.709 162.026h-27.89v13.26h27.89zm365.26-7.459h-21.89v16.26l21.89-7.77z"/><path d="M1159.969 186.827v-23.77l-21.89 7.77v16z"/></g><path d="M895.139 104.785l-134.58 140.93v113.73h8.31l243.16-254.66zm175.04 0l-243.16 254.66h43.54l243.18-254.66zm49.53 254.662l85.6-89.65-28.03-93.07-174.48 182.72zm101.7-.001l8.29-8.68-10.67-35.44-41.17 44.12z" class="C D"/><use xlink:href="#B" class="L"/><use xlink:href="#B" class="B H"/><use xlink:href="#C" class="L"/><use xlink:href="#C" class="B H"/><path d="M1143.899 819.636l-.82-.28a488.2 488.2 0 0 1 23.94-57.92l.77.38c-9.2 18.738-17.18 38.052-23.89 57.82zm-44.56-3.66c-6.6-28.386-11.43-57.155-14.47-86.14l.84-.08c3.03 28.938 7.86 57.66 14.46 86z" class="G"/><path d="M1086.529 829.196c-15.14-23.943-24.69-50.99-27.94-79.13a4.57 4.57 0 0 1 .58-2.755 4.52 4.52 0 0 1 2.09-1.882c.88-.388 1.86-.487 2.8-.281s1.79.707 2.43 1.428c7.9 8.92 14 19.69 18.72 31 6.34 15.19 10.26 31.39 14.14 47.51m4.28.911c-8.3-33.4-6.8-84.41 1.08-116.46a4.51 4.51 0 0 1 4.5-3.461 4.52 4.52 0 0 1 2.81 1.075c.79.67 1.32 1.59 1.51 2.606 6.44 35.26 6.81 77.66 7.12 115.81" fill="#1db956"/><use xlink:href="#D" class="L"/><use xlink:href="#D" class="B H"/><path d="M1124.549 823.126c-2.52-17 6.55-95.32 6.64-96.11l.85.1c-.1.79-9.14 79-6.64 95.88z" class="G"/><path d="M1130.119 814.147c0-33 8.34-69.36 16.56-94.06.32-.95.95-1.765 1.79-2.318.83-.553 1.83-.812 2.83-.736s1.95.481 2.69 1.153 1.24 1.574 1.42 2.561c2.41 13.597 3.42 27.407 3 41.21-.75 19.18-5 38.43-14.15 55" fill="#1db956"/><path d="M1091.059 835.315c-6.55-35.58-25.52-80.66-25.72-81.11l.8-.33c.19.45 19.19 45.61 25.77 81.28zm17.75-107.842l-.86.002.26 106.589.86-.002zm29.37 85.714l-.82-.26c7.08-22.766 11.07-46.381 11.86-70.21h.86c-.79 23.917-4.8 47.618-11.9 70.47z" class="G"/><path d="M1076.489 820.586l1.25 25.17 4.16 49.72c.2 2.42 1.31 4.68 3.1 6.33 1.78 1.65 4.13 2.56 6.56 2.56h56c2.43 0 4.78-.91 6.57-2.56a9.74 9.74 0 0 0 3.09-6.33l4.16-49.72 1.28-25.73z" fill="#84888f"/><path d="M1147.119 820.126l-1.27 25.63-4.16 49.72c-.2 2.42-1.31 4.69-3.1 6.33-1.79 1.65-4.14 2.56-6.57 2.56h15.56c2.43 0 4.78-.91 6.57-2.56a9.74 9.74 0 0 0 3.09-6.33l4.16-49.72 1.28-25.73z" class="B C"/><path d="M1076.419 818.996l.65 13.38h84.95l.61-12.35z" fill="#61656d"/><path d="M1078.119 830.756h82.9a7.13 7.13 0 0 0 2.73-.543c.86-.358 1.65-.883 2.31-1.545a7.2 7.2 0 0 0 1.55-2.313c.36-.866.54-1.793.54-2.729 0-1.889-.75-3.7-2.09-5.035a7.14 7.14 0 0 0-5.04-2.085h-82.9a7.14 7.14 0 0 0-5.04 2.085c-1.33 1.335-2.09 3.146-2.09 5.035h0c0 .937.18 1.865.54 2.732.35.866.88 1.653 1.54 2.316.67.662 1.45 1.187 2.32 1.545a7.07 7.07 0 0 0 2.73.537z" fill="#84888f"/><path d="M1160.999 816.505h-13.82c.96-.036 1.91.122 2.81.464a7.07 7.07 0 0 1 2.4 1.526c.69.665 1.24 1.463 1.62 2.345.37.882.57 1.831.57 2.79s-.2 1.908-.57 2.79c-.38.883-.93 1.68-1.62 2.345s-1.5 1.185-2.4 1.526-1.85.5-2.81.464h13.82c.96.036 1.91-.122 2.81-.464s1.71-.861 2.4-1.526 1.24-1.462 1.62-2.345c.37-.882.57-1.831.57-2.79s-.2-1.908-.57-2.79c-.38-.882-.93-1.68-1.62-2.345a7.07 7.07 0 0 0-2.4-1.526c-.9-.342-1.85-.5-2.81-.464z" class="B C"/><path d="M168.929 361.365h105.39v-145.83h-105.39z" class="D"/><path d="M182.989 347.865h77.28v-118.84h-77.28z" fill="#ddd"/><path d="M277.389 215.535h-3.06v145.83h3.06z" class="J"/><path d="M203.529 328.516h36.2v-57.43h-36.2z" fill="#b1b5ba"/><path d="M221.649 263.956a17.85 17.85 0 0 0 17.85-17.85h-35.7c0 4.734 1.88 9.274 5.228 12.621a17.85 17.85 0 0 0 12.622 5.229z" class="E"/><path d="M996.509 91.887h-12.91v277.5h12.91z" class="D"/><path d="M996.509 104.785h-12.91v3h12.91z" fill="#f0f0f0"/><use xlink:href="#E" class="E"/><use xlink:href="#E" class="C D"/><use xlink:href="#F" class="E"/><use xlink:href="#F" opacity=".733" class="D"/><g class="K"><use xlink:href="#G"/><use xlink:href="#G" y="27.483"/></g><path d="M779.519 308.316a.53.53 0 0 0 0-1.06.53.53 0 0 0 0 1.06z" class="D"/><path d="M1227.479 905.966H53.979c-.213 0-.416-.08-.566-.23s-.234-.36-.234-.57.084-.42.234-.57.353-.23.566-.23h1173.6c.1 0 .21.02.31.06a.9.9 0 0 1 .43.43c.04.1.06.2.06.31a.8.8 0 0 1-.08.33.73.73 0 0 1-.2.27c-.08.07-.18.13-.29.16-.1.04-.22.05-.33.04z" fill="#adb1b6"/><path d="M325.308 889.936h29.06l5.37-49.16-34.33.1z" class="F"/><path d="M325.358 855.196v4h22.76a5.41 5.41 0 0 1 2.206.47c.694.31 1.315.76 1.821 1.33.507.56.889 1.23 1.12 1.96a5.35 5.35 0 0 1 .223 2.24l-1.92 17.47h3.57l3-27.45z" class="B C"/><path d="M328.299 871.256l.88-.77c6.59-5.71 17.93-5.64 24.33.26l.49.5c.77.67 1.392 1.5 1.826 2.42a7.42 7.42 0 0 1 .694 2.96v3.2a15.38 15.38 0 0 0 1 5.47l3 8.66c.772 2.07 1.168 4.27 1.17 6.48v1.09c0 1.69-1.75 3-3.78 3h-34.79c-2.14 0-3.78-1.36-3.78-3v-.42a19.98 19.98 0 0 1 1.46-7.49l3.48-8.49a16.17 16.17 0 0 0 1.26-6.06l.1-2.43c.146-2.07 1.102-4.01 2.66-5.38z" fill="#25282f"/><path d="M438.539 855.506l1.94 28.58 56.64 2.63-18.84-19c-3.59-2.58-5.79-8.24-6.52-12.54z" class="F"/><path d="M458.779 860.256c2.598 0 5.147.71 7.368 2.06s4.027 3.28 5.222 5.59c.93 1.87 2.266 3.5 3.91 4.79l13.5 13.61 8.34.39-18.84-19c-3.59-2.58-5.79-8.24-6.52-12.54l-33.22.33.34 5z" class="B C"/><path d="M439.319 871.996s12.84 8 27.25 1.09c-.287-1.49-.169-3.03.341-4.46s1.394-2.7 2.559-3.67c2.39-1.87 7.25-2.49 8.55-.76s3.38 4.61 6.82 8.8c4.78 5.76 11.25 12.41 16.26 13.47 9.17 1.91 27.71-7.46 29 12.15 0 0-18.1 6.81-35 5.11-10.985-1.28-21.78-3.86-32.16-7.68v7.87h-26.19s-5.95-22.1 2.57-31.92z" fill="#25282f"/><path d="M434.839 891.406a68.79 68.79 0 0 0 1.92 12.55h26.22v-7.87c10.38 3.82 21.175 6.39 32.16 7.68 16.86 1.7 35-5.1 35-5.1-.089-1.52-.323-3.02-.7-4.49-13.177 6.68-28.414 8.07-42.58 3.87l-24.18-6.67c-.05-.03-22.56-.52-27.84.03zm63.92-4.09s-13.36 4-23.37-3.71c-7.39-5.66-11.16-9-8.17-15.74a7.46 7.46 0 0 1 2.651-3.27c1.179-.82 2.567-1.27 3.999-1.32 0 0 9.32 21.82 24.89 24.04z" class="B"/><path d="M374.568 481.486c13.93-123.31-11.15-198.65-20-224.63l14-3.78 46.38.4 5.87 2.09c1.19 23.09 17.72 126.59 33.64 225.82h-79.89z" class="D"/><g class="E"><path d="M325.898 452.346l136.79 2.2 13.07 401.59h-38l-35.05-329.28a4.17 4.17 0 0 0-1.341-2.655c-.758-.689-1.744-1.076-2.769-1.085h0c-1.049-.035-2.072.333-2.859 1.028s-1.277 1.666-1.371 2.712l-33 329.28h-37.93z"/><path d="M322.558 847.916h41.07l-.75 8.22h-40.44z"/></g><path d="M348.128 847.916h15.5l-.75 8.22-15.42-.12z" class="B C"/><g class="E"><path d="M471.648 847.836h-36l.93 8.3h35.49z"/><path d="M476.368 847.836h-4.71l.5 8.3h4.54z"/></g><g class="B"><path d="M476.368 847.836h-4.71l.5 8.3h4.54z" class="C"/><path d="M452.938 463.477l18.72 384.349h3.83l-12.51-384.349zm-104.82 384.349l27.35-307.141c1.25-10 10.16-17.54 20.62-17.54h2.81a4.27 4.27 0 0 0-2.887 1.074c-.795.704-1.299 1.68-1.413 2.736l-32.58 320.871z" class="C"/></g><path d="M414.179 199.135s-40.6-25.48-42.2 5.67l-.59 8.06-2.79 40.81c-.018 1.124.369 2.218 1.09 3.08l28.19 16a2.01 2.01 0 0 0 1.161.311 2 2 0 0 0 1.129-.411l12.72-14.83a4.6 4.6 0 0 0 1.31-1.839c.278-.712.374-1.483.28-2.241h0l-2.59-24.19c.546-2.347.815-4.75.8-7.16.43-12.22 1.49-23.26 1.49-23.26z" class="F"/><path d="M416.169 201.026c8.362 0 15.14-6.778 15.14-15.14s-6.778-15.14-15.14-15.14-15.14 6.779-15.14 15.14 6.779 15.14 15.14 15.14z" class="B"/><path d="M418.759 177.136s14.43 60.51-16.62 64.59c-26.87 3.59-29.86-38.31-29.86-38.31l1.3-27.17z" class="F"/><g class="B"><path d="M408.199 151.865c-8.37 0-15.71 3.5-19.81 8.76a9.29 9.29 0 0 1-3.924 2.815 9.28 9.28 0 0 1-4.806.465c-.981-.038-1.963-.011-2.94.08-26.91 1.88-23.09 42.1 1.24 38.82 5.13-.69 9.73-4.32 12.32-10.11a8.7 8.7 0 0 1 4.231-4.353c1.888-.896 4.035-1.083 6.049-.527a28.69 28.69 0 0 0 7.64 1c12.87 0 23.3-8.27 23.3-18.48s-10.38-18.47-23.3-18.47z"/><path d="M371.228 214.886s2.58.2 4-.89l-4.38 6.76z" class="C"/></g><path d="M372.879 198.736s-2-5.67-8-3.09c-6.77 3-5.38 18.32 6.07 19.21 6 .5 4.78-3 3.78-7.66z" class="F"/><g class="B"><path d="M364.619 199.626a4.37 4.37 0 0 1 1.551-.775c.563-.153 1.151-.192 1.729-.115.557.142 1.076.402 1.523.763s.811.813 1.067 1.327a8.13 8.13 0 0 1 1.1 4.18l.09 1.29a.67.67 0 0 1-.047.269c-.033.085-.084.163-.148.228a.68.68 0 0 1-.227.152c-.085.035-.176.052-.268.051a.68.68 0 0 1-.271-.048c-.086-.034-.164-.085-.23-.151s-.117-.144-.151-.23a.68.68 0 0 1-.048-.271l-.1-1.29a8.48 8.48 0 0 0-.89-3.48c-.377-.681-.977-1.211-1.7-1.5-.778-.062-1.552.15-2.19.6a.76.76 0 0 1-.538.092c-.185-.036-.35-.141-.462-.292-.19-.1-.09-.5.21-.8z" class="C"/><path d="M413.879 246.605l-1-9.75c-2.59 2.68-10 6.57-18.51 4.57a20.63 20.63 0 0 1-10.85-6.76c-.052-.067-.117-.123-.19-.164s-.155-.068-.239-.077a.64.64 0 0 0-.471.141c-.067.05-.122.114-.164.187s-.067.153-.076.236a.61.61 0 0 0 .022.248.62.62 0 0 0 .118.219c3.651 4.256 8.763 6.993 14.33 7.67a22.27 22.27 0 0 0 8.161 3.471c2.926.597 5.942.601 8.869.009z" opacity=".15"/><path d="M404.429 229.385c0 .1-.1.1 0 0l-3.78.3c-.224.006-.441-.073-.608-.222a.88.88 0 0 1-.292-.578.81.81 0 0 1 .036-.332.8.8 0 0 1 .168-.289c.075-.084.167-.151.269-.197a.82.82 0 0 1 .327-.072l3.68-.3c.212-.025.425.034.594.165a.81.81 0 0 1 .306.535c-.01.59-.3.99-.7.99zm1.39-3.58c-6.77 1-9.85-2.69-11-4.48-.1-.185-.124-.402-.068-.605a.82.82 0 0 1 .368-.485c.186-.1.403-.127.607-.073a.83.83 0 0 1 .493.363c1 1.8 4.38 5.68 12.54 3 .191-.042.39-.013.561.083a.79.79 0 0 1 .336 1.003c-.078.18-.219.324-.397.404-1.12.37-2.271.635-3.44.79z" class="C"/><path d="M396.468 207.896a2.49 2.49 0 1 0 0-4.98 2.49 2.49 0 1 0 0 4.98z"/></g><path d="M397.558 205.106a.5.5 0 1 0 0-1 .5.5 0 1 0 0 1z" class="D"/><path d="M416.169 207.996a2.49 2.49 0 1 0 0-4.98 2.49 2.49 0 1 0 0 4.98z" class="B"/><path d="M417.268 205.205a.5.5 0 1 0 0-1 .5.5 0 1 0 0 1z" class="D"/><path d="M407.609 219.735l-3.28.2a.75.75 0 0 1-.8-.7c-.013-.199.053-.395.184-.545a.75.75 0 0 1 .516-.255l3.28-.19c.197-.013.389-.064.567-.151s.335-.208.466-.356a1.51 1.51 0 0 0 .372-1.088 1.51 1.51 0 0 0-.151-.567 1.49 1.49 0 0 0-.356-.466c-.148-.131-.32-.231-.507-.295a1.51 1.51 0 0 0-.581-.077c-.193-.009-.378-.083-.523-.21a.85.85 0 0 1-.277-.49c-.1-.4.3-.69.7-.79a3 3 0 0 1 2.13.699c.592.5.969 1.21 1.05 1.981a3.1 3.1 0 0 1-.725 2.216c-.521.616-1.262 1.005-2.065 1.084z" class="B C"/><path d="M426.199 200.106h-38.08a4 4 0 0 0-4 4v3.15a10.87 10.87 0 0 0 10.87 10.87 10.87 10.87 0 0 0 10.87-10.87v-3.1c-.005-.891-.315-1.752-.88-2.44h4.21c-.532.699-.804 1.562-.77 2.44v3.1a10.87 10.87 0 0 0 10.87 10.87 10.87 10.87 0 0 0 10.87-10.87v-3.1a4 4 0 0 0-1.14-2.847 4.01 4.01 0 0 0-1.29-.883c-.484-.206-1.004-.315-1.53-.32zm-21.86 4v3.15c.007 1.216-.225 2.421-.684 3.547s-1.135 2.152-1.989 3.017-1.872 1.553-2.993 2.025a9.27 9.27 0 0 1-3.539.726c-1.216.007-2.422-.226-3.548-.684s-2.151-1.135-3.016-1.99-1.553-1.871-2.025-2.992-.719-2.323-.726-3.539v-3.11a2.46 2.46 0 0 1 .72-1.72c.457-.456 1.075-.715 1.72-.72h13.75a2.34 2.34 0 0 1 2.33 2.29zm24.3 3.1a9.26 9.26 0 0 1-.596 3.642 9.27 9.27 0 0 1-1.969 3.121 9.29 9.29 0 0 1-6.643 2.861c-1.243.007-2.474-.235-3.621-.713s-2.186-1.182-3.056-2.069-1.552-1.941-2.006-3.098a9.27 9.27 0 0 1-.639-3.634v-3.06a2.46 2.46 0 0 1 2.44-2.44h13.76a2.46 2.46 0 0 1 2.44 2.44z" stroke="#4d61fc" class="E M"/><path d="M450.308 463.475h-84.5c-.49 0-.79-2.34-.79-4.67-.033-1.92.233-3.833.79-5.67h84.5c.611 1.825.882 3.747.8 5.67.01 2.33-.3 4.67-.8 4.67z" class="B"/><path d="M323.549 508.456l4.34-103.67-11.28-18.66-28.6-69.87 2.71-20.5c-.28-14.14 12.19-27.18 25.11-30.17l52.17-12.33c7.25 22.79 25.76 114.39 22.13 219.39-.84 25.08-20.27 45-43.7 45h-14.42c-4.74.07-8.55-4.11-8.46-9.19z" class="G"/><g class="F"><path d="M616.428 344.845l1.81 1.74a3.41 3.41 0 0 0 1.172.757 3.4 3.4 0 0 0 1.376.225c.47-.021.93-.138 1.352-.345s.797-.499 1.1-.857h0c.491-.553.854-1.207 1.065-1.916a5.06 5.06 0 0 0 .154-2.185c-.108-.731-.376-1.43-.783-2.046a5.06 5.06 0 0 0-1.576-1.523l-.13-.07a11.5 11.5 0 0 0-5.22-1.55l-23.31-1.76 1.87 11.45z"/><path d="M593.608 343.854l14.76 4.83-5.7 22.89-14.68 3.5-11.49-1.94c-.692-.116-1.4-.085-2.08.09l-34 9-5.56-28 29.26-8.239 19.69-7.861c2.308-1.644 5.048-2.573 7.88-2.669l10.78-.381a5.13 5.13 0 0 0 3.21-1.26l2.32-2a.81.81 0 0 1 .321-.148.8.8 0 0 1 .354.005.79.79 0 0 1 .317.156c.092.075.167.17.218.277l.47.851a3.69 3.69 0 0 1-.21 4.079l-4.81 6-4.36-.079-9.46 3.299"/></g><path d="M599.988 345.944a35.82 35.82 0 0 0 16.44-1.1c1 2.81 4.87 3.25 6.31 2.08l-5.1-4.09-11.45-4.53a2.82 2.82 0 0 0-3.32 1.18z" opacity=".15" class="B"/><path d="M585.898 351.255c-.081-.032-.149-.092-.189-.169s-.052-.167-.031-.251c.026-.092.086-.17.168-.219a.37.37 0 0 1 .272-.041c.23.06 5.68 1.41 10.23-5.24.025-.043.059-.079.099-.108s.086-.048.134-.059.098-.01.146-.001.094.03.135.058a.36.36 0 0 1 .1.106c.026.042.043.088.05.137s.005.098-.008.146a.36.36 0 0 1-.066.131c-4.86 7.08-10.94 5.54-11 5.52z" opacity=".15" stroke="#000" class="M"/><path d="M561.979 382.995l-74.7 29c-4.354 1.342-9.046 1.069-13.215-.767a18.94 18.94 0 0 1-9.485-9.233l-41.36-109.07 38.51-16.28 38.23 83.43 66.89-15.57z" class="G"/><path d="M489.279 405.966l-1 .29c-9.16 2.27-18.16-4.41-19.16-13.77l-4.15-38.71.89 50.52c0 1 4.44 4.93 5.28 5.32 2.343 1.568 5.008 2.593 7.799 3a18.95 18.95 0 0 0 8.331-.65l74.7-29 .71-5.62z" class="B H"/><path d="M464.118 310.855l3.76 203.24c-.09 1-2.51 3.52-3.42 3.52h-1.64c-6.23 0-11.55-5-12.56-11.64l-32.28-251.43 25.42 7.1c12.13 3.38 20.4 13.23 20.48 24.39l.24 24.82z" class="G"/><path d="M426.158 452.305l-82.1-14.26 22.56-102.83 82.24 14.5z" fill="#61656d"/><path d="M397.599 350.546a2.26 2.26 0 1 0 0-4.52 2.26 2.26 0 1 0 0 4.52zm23.359 4.128a2.26 2.26 0 1 0 0-4.52 2.26 2.26 0 1 0 0 4.52z" fill="#aeb2b7"/><path d="M343.658 408.095l10-12.81 6.19-1.15 18-4.23a2.68 2.68 0 0 0 2.11-3l-.07-.93a2.66 2.66 0 0 0-2.59-2.7l-15.37 1.12 19.4-1.33a2.66 2.66 0 0 0 2.19-3l-.05-.74a2.67 2.67 0 0 0-.735-1.882c-.483-.507-1.145-.804-1.845-.828l-19.77 1.31 23.31-1.59c.683-.118 1.294-.497 1.703-1.057a2.67 2.67 0 0 0 .487-1.943v-.37a2.67 2.67 0 0 0-2.59-2.71l-23.65 1.62 9.13-3.85 12.58-2.92a2.74 2.74 0 0 0 1.87-3 2.61 2.61 0 0 0-.193-1.066c-.139-.339-.347-.644-.611-.896s-.578-.447-.921-.571-.71-.174-1.075-.147l-23.59 4.32c-.206.043-.405.118-.59.22l-27.42 13.78z" class="F"/><path d="M381.359 376.545l-22.94 1.57m19.629 5.09l-17.74 1.28" class="H" stroke="#000" stroke-width="1.03" stroke-linecap="round" stroke-linejoin="round"/><path d="M317.399 385.516c-.44.34-.71.17-.6-.37l9.84-50.48a1 1 0 0 1 1.07-.81c.177.012.342.094.459.226a.68.68 0 0 1 .171.484l-3.84 85.63c-.029.3-.129.59-.29.845a1.94 1.94 0 0 1-.64.625l-3 1.61c-.48.26-.84 0-.79-.53l3.87-41.16c.05-.55-.26-.72-.7-.38z" opacity=".09" class="B"/><path d="M291.899 287.766l-22 113.25c-5.09 36.73 23.52 45 38.28 36.35.421-.247.819-.532 1.19-.85l38.42-31.92-13.15-32.53-18 14.06 16.89-86.64m256.729 76.41l28-51.71 7.7 4-27.5 52.15a1.86 1.86 0 0 1-.462.57c-.19.158-.41.276-.647.347a1.86 1.86 0 0 1-.73.071 1.88 1.88 0 0 1-.701-.218l-4.91-2.72a1.85 1.85 0 0 1-.75-2.49z" class="G"/><path d="M596.358 379.175l27.42-52-10.51-3.73-26.61 50.44c-.225.429-.274.928-.136 1.391a1.85 1.85 0 0 0 .876 1.089l6.43 3.55c.214.121.45.198.694.226a1.84 1.84 0 0 0 .727-.062c.236-.069.456-.184.646-.34a1.83 1.83 0 0 0 .463-.564z" fill="#3f4249"/><path d="M613.268 323.467l-3.28 6.3 2.31 1.29c2.506 1.297 5.123 2.368 7.82 3.2l3.68-7.06z" class="B H"/><path d="M602.058 373.516l4.26-2c.918-.406 1.709-1.052 2.29-1.87a6.04 6.04 0 0 0 .838-2.528c.089-.894-.023-1.797-.328-2.642h0l-11-5.65a3.12 3.12 0 0 0-1.803-.33c-.62.073-1.204.331-1.677.74-.248.207-.444.469-.574.764s-.19.618-.174.941a2.09 2.09 0 0 0 .263.919 2.1 2.1 0 0 0 .645.706l5.93 4.1a5.35 5.35 0 0 1 1.5 1.6z" class="F"/><path d="M608.178 361.895l-.95 1.8-10-5.25.96-1.5zm-6.509-11.66l12.3 4.94h2.74l-13.13-7.78z" class="H B"/><g class="F"><path d="M597.799 348.766l15.11 5.8a5.17 5.17 0 0 1 2.617 2.758c.49 1.218.498 2.577.023 3.802h0a4.14 4.14 0 0 1-.846 1.558 4.13 4.13 0 0 1-1.421 1.06c-.545.246-1.137.371-1.735.366a4.13 4.13 0 0 1-1.728-.394l-14.52-7.23c-.985-.566-1.715-1.489-2.041-2.577a4.44 4.44 0 0 1 .291-3.273c.339-.793.967-1.427 1.756-1.774a3.4 3.4 0 0 1 2.494-.096z"/><path d="M608.799 352.625c1.939 1.33 4.161 2.189 6.49 2.51h0c.526.033 1.054-.043 1.55-.224s.948-.463 1.33-.827.683-.804.886-1.291a3.83 3.83 0 0 0 .294-1.538v-.19c.18-3.45-1.92-6.48-4.9-7.06l-1-.19a17.26 17.26 0 0 1-4.93-1.79l-1.94-1.07a3.61 3.61 0 0 0-4.86 1.44h0c-.62.97-.853 2.138-.655 3.272a4.61 4.61 0 0 0 1.725 2.858z"/></g><path d="M842.21 484.781h150.742c4.726 0 8.546-4.294 8.546-9.591v-30.933c0-5.297-3.82-9.591-8.546-9.591H842.21c-4.718 0-8.546 4.294-8.546 9.591v30.933c0 5.297 3.827 9.591 8.546 9.591z" class="I"/><path d="M861.855 476.54c5.15-6.646 9.989-13.926 9.274-21.969-.46-5.208-3.657-10.393-9.274-10.393s-8.821 5.185-9.281 10.393c-.707 8.011 4.124 15.324 9.281 21.969zm-5.086-21.898a6.21 6.21 0 0 1 .856-3.171c.559-.938 1.351-1.671 2.285-2.102a4.56 4.56 0 0 1 2.936-.326c.983.221 1.896.765 2.603 1.563.714.799 1.196 1.816 1.394 2.923s.092 2.255-.29 3.298a5.61 5.61 0 0 1-1.875 2.562c-.835.627-1.818.962-2.823.962-.672.002-1.33-.145-1.952-.432-.615-.287-1.174-.707-1.648-1.238a5.77 5.77 0 0 1-1.104-1.853c-.255-.693-.382-1.436-.382-2.186zm32.279-.619h88.151a1.36 1.36 0 0 0 1.005-.465c.262-.298.41-.702.41-1.123s-.149-.825-.41-1.123c-.269-.299-.63-.465-1.005-.465h-88.151c-.375 0-.736.167-.997.465-.269.298-.417.701-.417 1.123a1.68 1.68 0 0 0 .417 1.123 1.33 1.33 0 0 0 .997.465zm46.901 15.22h41.249a1.33 1.33 0 0 0 .997-.465c.269-.298.417-.702.417-1.123a1.68 1.68 0 0 0-.417-1.123 1.33 1.33 0 0 0-.997-.464h-41.249a1.33 1.33 0 0 0-.997.464c-.269.298-.417.702-.417 1.123s.149.825.417 1.123a1.33 1.33 0 0 0 .997.465zm-33.34.318h25.148a1.33 1.33 0 0 0 .997-.465c.269-.298.417-.702.417-1.123s-.149-.825-.417-1.123a1.33 1.33 0 0 0-.997-.465h-25.148a1.36 1.36 0 0 0-1.005.465c-.262.298-.41.702-.41 1.123s.149.825.41 1.123c.269.298.63.465 1.005.465z" fill="#f4f4f4"/><path d="M791.584 421.596v24.113h-8.518v10.075h-14.997v-34.188zm-128.771-64.124h-30.959v-15.04h36.854zm-17.671-43.117h-13.289v20.704h13.289zm17.899-37.128v7.207c-6.042 7.036-9.868 15.701-10.997 24.906h-20.178v-32.113zm72.501 69.644l-12.683 28.221h-15.458l-26.39-12.604 6.897-15.516h.05a35.14 35.14 0 0 0 13.595-2.741 35.15 35.15 0 0 0 11.476-7.787zm51.005 35.154l16.748-18.744H836.2v18.744zm74.827-18.745h-20.811v18.744h20.811zm-131.393-44.515l43.982 22.384H795.9v-39.384l-34.195-17.389z" class="J"/><path d="M665.584 451.777v-49.495l13.419-33.792 24.474 12.489h57.069l-64.002 70.797z" opacity=".4" class="E"/><path d="M646.653 422.728h-31.442V458.4h31.442zm.003-20.979h-14.802v15.242h14.802zm.001-4.626h-23.068v-23.119h32.754zm-18.345 15.27H615.21v4.605h13.102zm0-10.644H615.21v7.625h13.102zm197.786-86.356h-24.113v25.764h24.113zm0-13.059h-24.113v9.044h24.113zm-.007-23.039l-8.612-8.338-15.494 13.419v13.974h24.106zm42.36 29.951h-22.297v31.795h22.297zm-22.297-7.027h22.297v-36.047l-22.297 14.002zm-82.91 105.418l19.826-21.447h18.917v21.447zm65.162-21.447h-22.492v9.866h22.492zm-12.359 12.489h-10.132v8.958h10.132zm12.357 0h-9.844v8.958h9.844zm16.95-12.489h-14.211v21.447h14.211zm15.826 0h-12.309v14.665l5.895 6.781h6.414zm-132.398-11.098h31.767v-15.645l-20.308-9.491zm-40.829-50.352c7.877 0 14.262-6.575 14.262-14.687s-6.385-14.687-14.262-14.687-14.262 6.575-14.262 14.687 6.385 14.687 14.262 14.687z" class="J"/><path d="M819.628 421.589h-24.495v24.12h24.495z" opacity=".4" class="E"/><path d="M734.897 439.742l16.215-18.153h12.129v18.153z" class="J"/><path d="M626.39 316.265a2.8 2.8 0 0 1-.51 1.535 2.81 2.81 0 0 1-1.274.998 2.8 2.8 0 0 1-3.028-.658 2.8 2.8 0 0 1-.745-1.436c-.102-.541-.042-1.101.172-1.609s.574-.94 1.033-1.245a2.8 2.8 0 0 1 1.549-.468c.374.005.742.083 1.086.231s.654.361.914.629.466.584.603.931.206.718.2 1.092z" class="E"/><path d="M757.918 463.452c-.396-.065-.432-.44-.223-.786l1.067-1.629a4.58 4.58 0 0 0 .432-1.355l.591-3.178v-.195l-.922.504c-.058 0-.087.123-.101.195l-.209 1.139c-.011.058-.025.116-.043.173a.35.35 0 0 1-.053.123.34.34 0 0 1-.097.091c-.039.024-.082.039-.126.045s-.09.004-.134-.008a.31.31 0 0 1-.221-.126.31.31 0 0 1-.053-.119c-.009-.043-.01-.087.001-.13l.303-1.614a.52.52 0 0 1 .252-.274l2.054-1.103a.82.82 0 0 1 .326-.093c.114-.008.228.007.335.045a.84.84 0 0 1 .29.175c.084.078.15.172.195.277l.764 1.571a.58.58 0 0 0 .238.238l1.009.454c.05.014.097.038.136.071a.34.34 0 0 1 .094.12c.023.046.035.097.037.148a.36.36 0 0 1-.03.151c-.02.048-.05.09-.089.125s-.084.061-.133.076-.102.021-.153.015-.101-.024-.145-.05l-1.189-.533a.66.66 0 0 1-.245-.245l-.375-.721-.367 1.658c0 .079.937 1.247 1.333 1.751a1.44 1.44 0 0 1 .267.54l.382 1.78c.079.396 0 .627-.346.677s-.483-.267-.533-.541l-.353-1.658a17.79 17.79 0 0 0-1.564-1.903c-.177.662-.396 1.312-.656 1.946-.209.454-1.326 2.234-1.744 2.169zm4.269-9.311c0 .114-.017.228-.059.334a.86.86 0 0 1-.185.284.84.84 0 0 1-.613.255c-.114-.001-.23-.019-.337-.063s-.205-.107-.286-.188-.147-.178-.191-.285-.066-.221-.065-.337c-.012-.121 0-.242.042-.357a.87.87 0 0 1 .182-.31.88.88 0 0 1 .292-.21.87.87 0 0 1 .996.21.87.87 0 0 1 .183.31c.039.115.053.236.042.357zm24.01 1.312h-16.979v1.787h16.979zm0 3.574h-16.979v.894h16.979z" class="I"/><path d="M618.65 242.724v126.535h43.613l-12.617 29.713v41.688h8.385v-39.862l25.951-61.108a28.59 28.59 0 0 0 3.725.246c4.666-.017 9.261-1.139 13.41-3.273a29.57 29.57 0 0 0 10.462-9.004l60.739 29.713h16.473L714.42 440.66h11.42l21.396-23.94h121.888v-4.348H751.076l49.122-54.992h69.049v-8.617h-28.718V242.724h-8.385v26.996l-26.207-26.996h-5.939l32.131 33.098.016 72.942h-57.942l-58.556-28.684a31.3 31.3 0 0 0 1.942-10.92c0-14.494-9.784-26.67-22.887-29.924l21.706-36.51h-11.805l1.223 1.26-20.538 34.519c-15.357 1.268-27.46 14.495-27.46 30.656a30.86 30.86 0 0 0 17.974 28.22l-9.886 23.249-38.881.021v-90.567h34.99v-4.348h-34.99v-23.01zm69.058 44.294c11.856 0 21.495 9.936 21.495 22.141s-9.639 22.132-21.495 22.132-21.488-9.928-21.488-22.132 9.646-22.141 21.488-22.141z" class="D"/><path d="M659.408 245.167c-8.343-4.338-17.785-6.104-27.132-5.075a47.54 47.54 0 0 0-25.379 10.856 47.55 47.55 0 0 0-15.069 23.127c-2.625 9.03-2.513 18.635.321 27.601a47.54 47.54 0 0 0 15.603 22.77c7.338 5.88 16.255 9.452 25.624 10.263a47.53 47.53 0 0 0 27.007-5.704 47.54 47.54 0 0 0 19.285-19.748c5.807-11.186 6.934-24.221 3.135-36.238s-12.213-22.036-23.395-27.852zm-40.12 77.17a39.44 39.44 0 0 1-16.373-15.999 39.43 39.43 0 0 1 3.792-43.649 39.42 39.42 0 0 1 18.886-12.936c7.436-2.35 15.402-2.441 22.891-.264s14.163 6.528 19.179 12.499 8.149 13.295 9.003 21.047-.611 15.583-4.208 22.502c-4.823 9.278-13.134 16.261-23.105 19.412s-20.786 2.211-30.065-2.612z" class="G"/><path d="M656.808 244.156a47.54 47.54 0 0 0-52.498 5.83c-7.194 6.054-12.43 14.105-15.048 23.135a47.54 47.54 0 0 0 .34 27.597c2.84 8.963 8.274 16.882 15.614 22.757s16.259 9.441 25.626 10.248a47.54 47.54 0 0 0 46.276-25.467A47.55 47.55 0 0 0 680.237 272c-3.809-12.02-12.236-22.036-23.429-27.844zm-40.12 77.17a39.43 39.43 0 0 1-21.089-38.4 39.43 39.43 0 0 1 8.518-21.246 39.44 39.44 0 0 1 18.886-12.935 39.43 39.43 0 0 1 22.889-.262 39.42 39.42 0 0 1 19.178 12.497 39.43 39.43 0 0 1 4.798 43.546 39.42 39.42 0 0 1-9.623 12.007c-3.966 3.332-8.548 5.849-13.487 7.409a39.43 39.43 0 0 1-15.295 1.684c-5.16-.449-10.18-1.91-14.775-4.3z" fill="#3f4249"/><path d="M930.421 226.5h-248.51a3.52 3.52 0 0 0-3.52 3.52v8.92a3.52 3.52 0 0 0 3.52 3.52h248.51c1.94 0 3.52-1.576 3.52-3.52v-8.92c0-1.944-1.58-3.52-3.52-3.52z" class="E"/><g class="K"><use xlink:href="#G" y="-54.966"/><use xlink:href="#G" y="-27.483"/><use xlink:href="#G" y="-109.931"/><use xlink:href="#G" y="-82.448"/></g><defs ><path id="B" d="M1133.859 822.687c-.72-17.77 6.09-35 14.81-50.12 6-10.47 13-20.3 19.49-30.46.53-.84 1.32-1.482 2.25-1.825.94-.343 1.96-.369 2.9-.074.95.295 1.78.895 2.35 1.707s.86 1.789.82 2.782c-.2 9.404-1.51 18.752-3.9 27.85-2.52 9.06-6.41 17.59-10.29 26.07l-13.7 30"/><path id="C" d="M1092.119 820.596c-9.69-29.084-13.82-59.729-12.19-90.34a4.54 4.54 0 0 1 1.14-2.758 4.55 4.55 0 0 1 2.62-1.442c1.01-.171 2.05.006 2.94.502a4.5 4.5 0 0 1 1.99 2.228c12.75 30.837 20.38 63.546 22.59 96.84"/><path id="D" d="M1122.939 834.017c-6.33-17.804-8.57-36.803-6.56-55.59 2-17.66 5.5-35.18 9-52.61l1.68-8.44a4.52 4.52 0 0 1 1.57-2.602 4.53 4.53 0 0 1 5.72 0 4.52 4.52 0 0 1 1.57 2.602c5.32 28 6 70.3 3.5 98.29"/><path id="E" d="M1007.559 201.436h-395.46c-8.958 0-16.22 7.262-16.22 16.22v278.5c0 8.96 7.262 16.22 16.22 16.22h395.46a16.22 16.22 0 0 0 16.22-16.22v-278.5c0-8.958-7.26-16.22-16.22-16.22z"/><path id="F" d="M999.239 201.436h-395.46c-8.958 0-16.22 7.262-16.22 16.22v270.5c0 8.96 7.262 16.22 16.22 16.22h395.46a16.22 16.22 0 0 0 16.22-16.22v-270.5c0-8.958-7.26-16.22-16.22-16.22z"/><path id="G" d="M980.631 377.3h-88.59a4.12 4.12 0 0 0-4.12 4.12v.01a4.12 4.12 0 0 0 4.12 4.12h88.59a4.12 4.12 0 0 0 4.12-4.12v-.01a4.12 4.12 0 0 0-4.12-4.12z"/></defs></svg>