<?xml version="1.0" encoding="UTF-8" standalone="no"?>
<!-- Created with Inkscape (http://www.inkscape.org/) -->

<svg
   xmlns:dc="http://purl.org/dc/elements/1.1/"
   xmlns:cc="http://creativecommons.org/ns#"
   xmlns:rdf="http://www.w3.org/1999/02/22-rdf-syntax-ns#"
   xmlns:svg="http://www.w3.org/2000/svg"
   xmlns="http://www.w3.org/2000/svg"
   xmlns:sodipodi="http://sodipodi.sourceforge.net/DTD/sodipodi-0.dtd"
   xmlns:inkscape="http://www.inkscape.org/namespaces/inkscape"
   width="305.24457mm"
   height="124.978mm"
   viewBox="0 0 305.24457 124.978"
   version="1.1"
   id="svg1003"
   inkscape:version="0.92.5 (2060ec1f9f, 2020-04-08)"
   sodipodi:docname="GaKO.svg">
  <defs
     id="defs997" />
  <sodipodi:namedview
     id="base"
     pagecolor="#ffffff"
     bordercolor="#666666"
     borderopacity="1.0"
     inkscape:pageopacity="0.0"
     inkscape:pageshadow="2"
     inkscape:zoom="0.9899495"
     inkscape:cx="307.41986"
     inkscape:cy="-9.7440245"
     inkscape:document-units="mm"
     inkscape:current-layer="layer1"
     showgrid="false"
     fit-margin-top="0"
     fit-margin-left="0"
     fit-margin-right="0"
     fit-margin-bottom="0"
     inkscape:window-width="2560"
     inkscape:window-height="1373"
     inkscape:window-x="0"
     inkscape:window-y="0"
     inkscape:window-maximized="1" />
  <metadata
     id="metadata1000">
    <rdf:RDF>
      <cc:Work
         rdf:about="">
        <dc:format>image/svg+xml</dc:format>
        <dc:type
           rdf:resource="http://purl.org/dc/dcmitype/StillImage" />
        <dc:title />
      </cc:Work>
    </rdf:RDF>
  </metadata>
  <g
     inkscape:label="Vrstva 1"
     inkscape:groupmode="layer"
     id="layer1"
     transform="translate(337.60285,-6.9942358)">
    <g
       id="g1801">
      <path
         inkscape:connector-curvature="0"
         id="path1567"
         d="m -326.53948,128.24433 c -4.8758,-1.18017 -9.3216,-5.62285 -10.62169,-10.61422 -0.58827,-2.2585 -0.58922,-94.174402 -10e-4,-96.384868 1.31417,-4.938524 5.25121,-8.941576 10.32264,-10.495719 1.53256,-0.469656 6.43987,-0.48649 141.81666,-0.48649 h 140.229177 l 1.85208,0.584217 c 4.91326,1.549825 8.56361,5.260515 10.09685,10.2637 0.46445,1.515589 0.48649,3.708852 0.48649,48.418749 v 46.831261 l -0.63508,1.93875 c -1.60324,4.89426 -5.60388,8.67778 -10.5156,9.94496 -1.47445,0.38039 -14.64554,0.41736 -141.552107,0.39737 -119.90876,-0.0189 -140.14842,-0.0758 -141.47842,-0.39771 z m 282.195787,-1.46543 c 4.47715,-0.95056 8.26249,-4.39713 9.80014,-8.92306 l 0.59778,-1.75947 0.0776,-45.243751 c 0.0525,-30.609317 -0.0127,-45.928404 -0.20111,-47.360419 -0.67109,-5.096837 -4.05993,-9.234682 -9.03457,-11.03137 l -1.68979,-0.610297 -138.641677,-0.07311 c -90.1156,-0.04752 -139.40404,0.01838 -140.81982,0.188276 -5.45065,0.654088 -9.96116,4.517066 -11.30689,9.683666 -0.35697,1.370507 -0.4052,7.107855 -0.40244,47.869774 0.003,38.307711 0.0656,46.547331 0.36466,47.670391 1.20325,4.51893 4.93049,8.25301 9.4515,9.46887 1.23588,0.33236 19.97994,0.38567 140.91403,0.40077 102.384547,0.0128 139.861517,-0.0618 140.890637,-0.28027 z m -224.022927,-7.55357 c -29.79619,-2.51645 -53.99831,-17.54093 -61.21877,-38.004121 -1.522,-4.3134 -1.98208,-7.18085 -1.98203,-12.35297 5e-5,-4.98598 0.38102,-7.47298 1.811,-11.82231 0.98474,-2.99511 3.5835,-8.03307 5.63582,-10.92559 2.08038,-2.932063 6.96229,-8.074002 9.98107,-10.51268 6.83326,-5.520166 16.22061,-10.385833 25.41325,-13.172248 8.56737,-2.596887 15.9759,-3.762984 25.55924,-4.023001 28.60773,-0.776191 54.69899,10.456489 66.99022,28.840299 4.33301,6.48082 6.41215,12.74016 6.70461,20.18448 0.16736,4.26005 -0.0811,6.84988 -1.01284,10.55917 -5.40684,21.52387 -30.46204,38.396821 -61.08053,41.133541 -2.7653,0.24716 -14.23316,0.3123 -16.80104,0.0954 z m 14.68437,-3.26321 c 12.15672,-0.9028 22.567,-3.66648 32.55763,-8.64326 4.01179,-1.99845 10.53028,-5.99507 10.98929,-6.73776 0.21209,-0.34317 0.18677,-0.32994 -1.87504,0.97957 -0.7276,0.46212 -2.75167,1.55511 -4.49792,2.42886 -20.2112,10.11281 -47.54626,10.23951 -68.00175,0.31519 -9.66319,-4.688251 -17.38853,-11.437241 -21.86453,-19.101221 -4.59895,-7.8745 -5.68205,-17.28753 -2.9797,-25.89616 2.6506,-8.44374 9.79647,-16.926987 19.13982,-22.721918 22.7901,-14.134872 56.9476,-13.9291 79.59314,0.479486 0.32742,0.208328 0.59531,0.318564 0.59531,0.244973 0,-0.221621 -4.45322,-3.183941 -7.23156,-4.810487 -16.01624,-9.376556 -37.97879,-12.985259 -58.64969,-9.63683 -22.80962,3.694877 -41.86656,15.821126 -49.0458,31.208656 -2.38616,5.11437 -3.34169,9.40023 -3.34169,14.98856 0,5.43184 0.96922,9.60835 3.43684,14.80985 9.89799,20.864011 39.94472,34.411811 71.17565,32.092491 z m 10.62145,-7.94317 c 8.95701,-0.88986 17.20591,-3.17852 24.70892,-6.85549 11.43395,-5.603391 19.02127,-13.177651 22.54102,-22.502171 2.20003,-5.82833 2.26095,-13.28488 0.15642,-19.14596 -3.79483,-10.5685 -13.4557,-19.434505 -27.19901,-24.961151 -5.00665,-2.013342 -10.409,-3.414571 -17.33505,-4.496253 -4.75084,-0.741968 -17.025,-0.664158 -22.19673,0.140713 -18.80083,2.925947 -34.08852,11.85027 -41.0306,23.951971 -4.65137,8.10846 -5.41696,16.60977 -2.23818,24.85351 2.78597,7.22507 8.16246,13.44397 16.20975,18.74958 8.27716,5.457151 20.06432,9.311671 31.66097,10.353441 2.46149,0.22112 12.196,0.16281 14.72249,-0.0882 z m -50.70582,-21.129931 c -4.33844,-1.26356 -6.93896,-3.83517 -8.50362,-8.40904 -0.60936,-1.78133 -0.70767,-2.49684 -0.70262,-5.11382 0.005,-2.55358 0.11698,-3.38297 0.69708,-5.15938 1.48919,-4.56021 4.70004,-7.54227 9.13253,-8.48176 4.91391,-1.04152 10.17854,0.14138 12.6107,2.83348 0.99773,1.10438 2.13831,3.18979 2.28298,4.17417 0.0893,0.60751 -0.0221,0.65734 -2.54633,1.13924 -1.52007,0.29019 -2.67464,0.39914 -2.72206,0.25688 -0.0453,-0.13589 -0.42316,-0.78445 -0.83969,-1.44125 -0.55538,-0.87575 -1.15383,-1.38818 -2.24426,-1.92167 -1.33256,-0.65197 -1.69926,-0.71481 -3.53207,-0.60535 -3.19134,0.19059 -5.19747,1.53116 -6.45113,4.31085 -0.88909,1.97134 -1.01666,6.31435 -0.25878,8.80952 0.66342,2.18414 2.10379,3.96101 3.92593,4.8431 2.36642,1.14556 6.38868,0.63824 8.85317,-1.11663 0.68961,-0.49105 0.74922,-0.66887 0.74922,-2.23526 v -1.70177 h -3.04271 -3.04271 l -1.1e-4,-2.31511 -1.1e-4,-2.3151 h 5.8208 5.82081 l 1.4e-4,5.47663 1.4e-4,5.47664 -0.87887,0.67034 c -1.27314,0.97108 -4.63418,2.46528 -6.57401,2.92259 -2.28226,0.53803 -6.53925,0.48961 -8.55442,-0.0973 z m 23.47732,0.20289 c -1.25268,-0.36151 -3.12288,-2.26786 -3.47217,-3.5393 -0.8026,-2.92149 0.22416,-5.52628 2.67028,-6.77419 0.76163,-0.38855 8.379,-2.35393 9.12332,-2.35393 0.15179,0 0.0867,-1.80044 -0.0808,-2.2371 -0.279,-0.72708 -1.57914,-1.20248 -3.28854,-1.20248 -1.48351,0 -1.70274,0.0759 -2.48416,0.8599 -0.47139,0.47294 -0.90596,1.00842 -0.96573,1.18995 -0.0858,0.26065 -0.57584,0.24792 -2.32999,-0.0606 -1.22172,-0.21483 -2.26798,-0.43727 -2.32501,-0.49431 -0.15928,-0.15928 0.4751,-1.50813 1.26778,-2.6956 0.42534,-0.63717 1.2842,-1.38462 2.12814,-1.85208 1.3857,-0.76754 1.49442,-0.78377 5.25145,-0.78377 3.78908,0 3.85443,0.01 5.29167,0.81178 1.11729,0.62327 1.59834,1.09605 2.07158,2.03598 0.58983,1.17147 0.61911,1.50691 0.67975,7.78717 0.0522,5.40279 0.14199,6.76765 0.5081,7.72073 0.2446,0.63676 0.44474,1.26184 0.44474,1.38906 0,0.12723 -1.04775,0.23132 -2.32834,0.23132 -2.35441,0 -2.95916,-0.21299 -2.96738,-1.04511 -0.0106,-1.06723 -0.44414,-1.16153 -1.48869,-0.32377 -0.56144,0.4503 -1.54179,1.00204 -2.17855,1.22609 -1.26742,0.44596 -4.16388,0.50371 -5.52743,0.11021 z m 6.42682,-3.8705 c 1.38215,-0.74445 1.83308,-1.60378 1.93865,-3.69447 0.0945,-1.87243 0.0681,-1.99494 -0.39257,-1.81683 -0.27169,0.10504 -1.55666,0.43626 -2.85549,0.73603 -2.7446,0.63346 -3.59161,1.2649 -3.59161,2.67752 0,2.23536 2.58852,3.34331 4.90102,2.09775 z m 47.70156,3.77879 c -2.17551,-0.59918 -3.74383,-1.52067 -5.39031,-3.16715 -2.4477,-2.4477 -3.4368,-4.91954 -3.71185,-9.27627 -0.48266,-7.64509 3.14948,-13.32272 9.47733,-14.81464 3.42245,-0.80691 7.98238,-0.22474 10.72169,1.36884 2.724,1.58468 4.78444,4.50736 5.65528,8.02185 0.52853,2.13303 0.45429,7.16005 -0.13481,9.12812 -1.38565,4.62922 -4.3268,7.58878 -8.69804,8.75247 -1.71654,0.45697 -6.23953,0.44942 -7.91929,-0.0132 z m 7.40961,-5.07372 c 1.70402,-0.82268 3.00972,-2.49261 3.60369,-4.60893 0.53572,-1.90877 0.54608,-6.3186 0.019,-8.0934 -0.91652,-3.08624 -3.13296,-4.85402 -6.34436,-5.06012 -3.96671,-0.25457 -6.55255,1.51547 -7.65952,5.24301 -0.55312,1.86259 -0.55312,6.05565 0,7.91824 1.39712,4.70458 5.96939,6.73114 10.38116,4.6012 z m -42.63788,5.02162 c -0.097,-0.097 -0.17639,-6.22873 -0.17639,-13.62604 v -13.44965 h 2.77316 2.77315 l 0.0711,5.96767 0.0711,5.96767 5.42396,-5.95398 5.42396,-5.95399 3.69422,-0.0137 3.69422,-0.0137 -1.30949,1.38907 c -0.72022,0.76398 -3.01783,3.12706 -5.1058,5.25128 l -3.79631,3.86222 5.31418,8.14233 c 2.92281,4.47826 5.31419,8.23684 5.31419,8.35238 0,0.11553 -1.53359,0.22235 -3.40798,0.23738 l -3.40799,0.0273 -3.11742,-5.36278 c -1.71458,-2.94953 -3.40712,-5.82501 -3.76119,-6.38998 l -0.64377,-1.0272 -2.22353,2.21199 -2.22354,2.21198 v 4.17303 4.17303 h -2.60173 c -1.43096,0 -2.68112,-0.0794 -2.77813,-0.17639 z m 69.46522,30.870731 c -1.87526,-0.8511 -1.95247,-1.25159 -1.85749,-9.63445 0.0922,-8.14019 0.117,-8.245741 2.15266,-9.169991 2.40748,-1.09308 6.41195,-0.3534 7.25061,1.339281 0.23717,0.47867 0.32881,2.74719 0.33163,8.20935 0.004,8.48748 0.0273,8.37831 -1.94939,9.27597 -1.49891,0.68068 -4.40564,0.6708 -5.92802,-0.0202 z m 3.75196,-2.53785 c 0.24919,-0.64937 0.18119,-13.42683 -0.0736,-13.82887 -0.12435,-0.19622 -0.44995,-0.3137 -0.72356,-0.26108 -0.46947,0.0903 -0.50144,0.48236 -0.5682,6.967 -0.0389,3.77923 -0.0129,7.02211 0.0578,7.2064 0.18249,0.47556 1.11586,0.41599 1.30751,-0.0834 z m 5.71685,-6.69458 v -9.820231 h 3.31579 c 3.6661,0 4.69827,0.26718 5.63562,1.458821 0.4943,0.62841 0.57359,1.06679 0.57359,3.17138 0,2.60431 -0.39601,3.59059 -1.5944,3.97095 -0.73259,0.23251 -0.65217,0.47259 0.29942,0.8938 1.26969,0.56202 1.63559,1.75399 1.50935,4.91686 -0.11779,2.951 -0.3617,3.55436 -1.79853,4.44903 -0.79753,0.49659 -1.39872,0.58844 -4.43177,0.67707 l -3.50907,0.10255 z m 5.23875,6.7956 c 0.33299,-0.33299 0.46114,-5.35032 0.1569,-6.14315 -0.0883,-0.23019 -0.38598,-0.41852 -0.66146,-0.41852 -0.46574,0 -0.50086,0.24119 -0.50086,3.43959 0,3.50145 0.1525,3.975 1.00542,3.12208 z m 0.1569,-9.36143 c 0.29269,-0.76275 0.17344,-4.22531 -0.1569,-4.55565 -0.81076,-0.81077 -1.00542,-0.35999 -1.00542,2.32833 0,2.4196 0.0428,2.64583 0.50086,2.64583 0.27548,0 0.57313,-0.18833 0.66146,-0.41851 z m 5.71685,10.84079 c 0,-1.14601 0.51219,-3.05154 2.24896,-8.367 1.23693,-3.78567 2.24896,-6.98741 2.24896,-7.11499 0,-0.12757 -0.9525,-0.23195 -2.11667,-0.23195 h -2.11667 v -1.190631 -1.19062 h 4.49792 4.49792 l -10e-4,1.256771 c -0.001,0.85986 -0.74223,3.53374 -2.34726,8.46666 l -2.3459,7.2099 h 2.47955 2.47956 v 1.32292 1.32291 h -4.7625 -4.7625 v -1.48397 z m 12.75619,0.95747 c -1.87046,-0.84893 -1.9448,-1.2363 -1.85399,-9.66103 0.074,-6.8612 0.10675,-7.27613 0.63097,-7.98375 0.78907,-1.065141 1.83336,-1.501151 3.8927,-1.625271 2.28892,-0.13796 3.98059,0.45072 4.70387,1.636891 0.46672,0.76539 0.50586,1.41247 0.50677,8.37735 0.001,8.48694 0.0239,8.37853 -1.9523,9.27597 -1.49891,0.68068 -4.40564,0.6708 -5.92802,-0.0202 z m 3.64798,-9.41377 v -7.29445 l -0.59531,0.0846 -0.59532,0.0845 -0.0707,6.87482 c -0.0389,3.78115 -0.0129,7.02561 0.0578,7.2099 0.0707,0.18429 0.37044,0.33507 0.66605,0.33507 0.52724,0 0.53747,-0.13882 0.53747,-7.29444 z m 5.82083,0.15069 v -9.789581 h 3.44808 c 3.80652,0 4.82253,0.25697 5.76791,1.458821 0.48791,0.62027 0.57359,1.0708 0.57359,3.0159 0,2.54122 -0.26886,3.17776 -1.6422,3.88794 l -0.81634,0.42215 0.84613,0.40979 c 1.31818,0.63841 1.5407,1.37424 1.66016,5.48977 0.0655,2.25543 0.23601,3.937 0.43607,4.29948 l 0.32855,0.59531 h -2.2274 c -2.70438,0 -2.53412,0.32062 -2.73988,-5.15937 -0.0928,-2.471 -0.2605,-4.04211 -0.44445,-4.16314 -0.88847,-0.58459 -0.95689,-0.25855 -0.95689,4.56001 v 4.7625 h -2.11666 -2.11667 z m 5.50105,-4.60783 c 0.0558,-1.70867 -0.0171,-2.41863 -0.26459,-2.57564 -0.88008,-0.55834 -1.00313,-0.25912 -1.00313,2.43937 0,2.61157 0.0118,2.66257 0.59532,2.57969 0.55967,-0.0795 0.59992,-0.22577 0.6724,-2.44342 z m -16.95513,-23.647781 c -1.92801,-0.0724 -2.07779,-0.12064 -2.31511,-0.74482 -0.13955,-0.36705 -0.25373,-2.30267 -0.25373,-4.30138 0,-3.62909 -0.14674,-4.26903 -0.97895,-4.26903 -0.26912,0 -0.34396,1.00745 -0.34396,4.63021 v 4.6302 h -2.11667 -2.11667 v -9.81554 -9.81554 l 3.50573,0.0921 c 3.99298,0.1049 5.00406,0.46718 5.82043,2.08548 1.07023,2.12154 0.37776,5.64458 -1.25576,6.38887 -0.84335,0.38425 -0.83241,0.54112 0.0655,0.93955 1.28881,0.57186 1.4846,1.21224 1.57685,5.15758 0.0467,1.9973 0.20548,3.94857 0.35284,4.33616 0.14736,0.3876 0.23484,0.71798 0.19438,0.73417 -0.0405,0.0162 -1.00116,-0.005 -2.13492,-0.048 z m -3.08061,-11.97037 c 0.43852,-0.23469 0.51177,-0.56796 0.51177,-2.32833 0,-2.02737 -0.24099,-2.68945 -0.97895,-2.68945 -0.2593,0 -0.34396,0.65129 -0.34396,2.64584 0,1.4552 0.0674,2.64583 0.14968,2.64583 0.0823,0 0.37999,-0.12325 0.66146,-0.27389 z m 19.53891,11.92727 c -1.1699,-0.35454 -2.04243,-1.07116 -2.33859,-1.92074 -0.17526,-0.50274 -0.28422,-3.51645 -0.28397,-7.85389 5.3e-4,-7.9031 0.10106,-8.41113 1.84755,-9.33079 1.28776,-0.67811 4.8059,-0.67811 6.09367,0 1.79177,0.9435 1.86857,1.36409 1.78766,9.7892 l -0.072,7.49654 -0.84579,0.75536 c -0.46519,0.41545 -1.29863,0.8811 -1.85209,1.0348 -1.15158,0.31978 -3.32971,0.33461 -4.33645,0.0295 z m 2.51477,-2.55357 c 0.36727,-0.14093 0.41851,-1.03176 0.41851,-7.27603 v -7.11545 h -0.66146 -0.66146 v 7.09966 c 0,6.14963 0.0733,7.45242 0.41934,7.45242 0.0366,0 0.25488,-0.0723 0.48507,-0.1606 z m 7.91434,2.29395 c -0.60672,-0.27547 -1.23795,-0.75276 -1.40272,-1.06064 -0.20459,-0.38228 -0.29444,-3.01128 -0.28336,-8.29072 0.0147,-7.02729 0.0599,-7.79115 0.49548,-8.3924 0.80072,-1.10513 2.08117,-1.58663 4.22046,-1.58709 3.67345,-7.8e-4 4.55556,0.89316 4.55556,4.61666 v 2.2621 h -1.95555 -1.95555 l 0.0373,-2.05052 c 0.0353,-1.93815 0.005,-2.05516 -0.55799,-2.13507 l -0.59531,-0.0845 v 7.14653 c 0,7.20628 0.0877,7.87355 0.94149,7.16495 0.281,-0.23321 0.37877,-0.82774 0.3518,-2.13945 -0.0326,-1.58591 -0.10025,-1.81648 -0.53302,-1.81648 -0.42445,0 -0.49569,-0.20915 -0.49569,-1.45521 v -1.45521 h 2.38125 2.38125 v 4.7625 4.7625 h -0.96302 c -0.57811,0 -1.08696,-0.1695 -1.27311,-0.42408 -0.28131,-0.38471 -0.40647,-0.37243 -1.34817,0.13229 -1.27931,0.68567 -2.55677,0.69968 -4.00112,0.0439 z m 51.133437,0.12071 c -0.56886,-0.20271 -1.28323,-0.61734 -1.5875,-0.9214 -0.53264,-0.53228 -0.55576,-0.84052 -0.62156,-8.28494 -0.0738,-8.35004 -0.0495,-8.52318 1.34387,-9.55867 0.60314,-0.44823 1.21243,-0.57143 3.175,-0.64203 2.19618,-0.079 2.51728,-0.0275 3.35468,0.53833 1.15419,0.77985 1.55321,1.89058 1.57258,4.37768 l 0.0148,1.91823 h -1.98438 -1.98437 v -2.11667 c 0,-2.08139 -0.0111,-2.11667 -0.66146,-2.11667 h -0.66146 v 7.12814 c 0,3.99531 0.10578,7.19351 0.24072,7.27689 0.13237,0.0818 0.43002,0.0761 0.66146,-0.0127 0.34554,-0.1326 0.42074,-0.63134 0.42074,-2.79057 v -2.62911 l 1.91823,0.0777 1.91822,0.0777 v 2.94956 c 0,2.57533 -0.0671,3.02487 -0.52916,3.5431 -1.29048,1.44742 -4.32396,1.99302 -6.59054,1.18535 z m -111.016767,-9.66239 v -9.78958 h 2.11667 2.11666 l 0.0247,3.10885 0.0247,3.10886 0.48609,-1.5875 c 0.26735,-0.87313 0.68138,-2.27211 0.92007,-3.10886 l 0.43397,-1.52135 h 1.9656 c 1.08108,0 1.9656,0.0665 1.9656,0.14789 0,0.0813 -0.58892,2.10057 -1.30873,4.48719 l -1.30873,4.3393 1.39952,4.70708 c 0.76974,2.5889 1.48576,4.97497 1.59115,5.30239 0.18908,0.58741 0.16006,0.59531 -2.18574,0.59531 h -2.37736 l -0.57417,-2.57969 c -0.97913,-4.3992 -1.00725,-4.42081 -1.03291,-0.79374 l -0.0238,3.37343 h -2.11666 -2.11667 z m 11.65002,9.32656 c 0.005,-0.25466 0.69592,-4.6302 1.53628,-9.72343 l 1.52793,-9.26042 2.7632,-0.0721 2.76319,-0.0721 1.60592,9.7955 1.60592,9.79549 h -2.15845 -2.15844 l -0.33898,-2.65992 -0.33898,-2.65992 -0.95468,0.0802 c -1.05255,0.0885 -1.04229,0.0627 -1.48271,3.71825 l -0.1833,1.52135 h -2.09763 c -1.82453,0 -2.09654,-0.0603 -2.08927,-0.46302 z m 6.24949,-9.26041 c -0.0928,-0.98227 -0.16951,-2.13717 -0.17055,-2.56646 -0.004,-1.66356 -0.47434,-0.17783 -0.64493,2.03729 -0.17421,2.26195 -0.16496,2.31511 0.40293,2.31511 0.55783,0 0.57444,-0.0719 0.41255,-1.78594 z m 20.99424,1.25677 v -8.46667 h -1.32292 -1.32291 v -1.32291 -1.32292 h 4.63021 4.6302 v 1.32292 1.32291 h -1.19062 -1.19063 v 8.46667 8.46666 h -2.11666 -2.11667 z m 30.1625,-1.32292 v -9.78958 h 3.07816 c 3.47456,0 4.83023,0.30709 5.94249,1.34609 0.74436,0.69534 0.76894,0.79853 0.76894,3.22867 0,2.74966 -0.21351,3.25158 -1.70322,4.00396 l -0.77718,0.39252 0.64489,0.24652 c 1.49057,0.56979 1.69053,1.12369 1.86378,5.16277 0.0883,2.05888 0.25005,4.07085 0.35941,4.47103 l 0.19885,0.7276 h -2.11667 c -2.08373,0 -2.11981,-0.0113 -2.31867,-0.7276 -0.1111,-0.40018 -0.27283,-2.45401 -0.35941,-4.56406 -0.15273,-3.72235 -0.17512,-3.83897 -0.75272,-3.92101 l -0.59531,-0.0845 v 4.64861 4.64861 h -2.11667 -2.11667 z m 5.26102,-2.09212 c 0.27041,-0.17126 0.354,-0.80454 0.3195,-2.42063 -0.0524,-2.45367 -0.10857,-2.631 -0.83363,-2.631 -0.47167,0 -0.51355,0.20142 -0.51355,2.46945 0,2.81343 0.13337,3.14856 1.02768,2.58218 z m 6.389,11.41868 c 0.005,-0.25466 0.69614,-4.6302 1.53677,-9.72343 l 1.528407,-9.26042 h 2.75295 2.75294 l 1.61908,9.72344 1.61908,9.72343 h -2.15698 -2.15698 l -0.32572,-2.44739 c -0.17914,-1.34607 -0.4242,-2.546 -0.54457,-2.66652 -0.12038,-0.12052 -0.55812,-0.18005 -0.97277,-0.13229 -0.81681,0.0941 -0.85952,0.21815 -1.28201,3.72485 l -0.18329,1.52135 h -2.097627 c -1.82454,0 -2.09654,-0.0603 -2.08928,-0.46302 z m 6.249497,-9.26041 c -0.0928,-0.98227 -0.16952,-2.13717 -0.17055,-2.56646 -0.004,-1.66356 -0.47434,-0.17783 -0.64494,2.03729 -0.1742,2.26195 -0.16495,2.31511 0.40293,2.31511 0.55784,0 0.57444,-0.0719 0.41256,-1.78594 z m 6.70673,-0.0661 v -9.78958 h 4.10105 4.10104 v 1.32291 1.32292 h -1.85209 -1.85208 v 2.64583 2.64584 h 1.5875 1.5875 v 1.19062 1.19063 h -1.5875 -1.5875 v 4.6302 4.63021 h -2.24896 -2.24896 z m 9.26042,0 v -9.78958 h 2.24896 2.24896 v 9.78958 9.78958 h -2.24896 -2.24896 z m 16.66876,0 v -9.78958 h 2.24896 2.24896 l 0.0172,3.10885 0.0172,3.10885 0.86106,-3.0427 0.86106,-3.04271 2.06497,-0.0779 c 1.74617,-0.0658 2.04147,-0.0166 1.91278,0.3187 -0.0837,0.21812 -0.69639,2.27722 -1.36155,4.57579 l -1.20938,4.17921 1.54278,5.15937 1.54276,5.15937 -2.24216,0.0771 c -1.46108,0.0502 -2.30663,-0.0272 -2.4272,-0.22231 -0.10179,-0.16467 -0.46903,-1.62811 -0.81614,-3.25208 l -0.63108,-2.95269 -0.0743,3.24114 -0.0743,3.24114 h -2.24081 -2.24081 z m 15.10189,5.54054 -0.0442,-4.24905 -1.58421,-5.07752 c -0.87133,-2.79263 -1.64796,-5.28587 -1.72586,-5.54053 -0.12652,-0.41371 0.0799,-0.46302 1.93776,-0.46302 h 2.07933 l 0.89356,3.30729 c 0.49143,1.81901 0.96273,3.3069 1.04732,3.30642 0.0846,-5.3e-4 0.57013,-1.38041 1.07895,-3.06653 0.50884,-1.68612 0.99557,-3.17961 1.08164,-3.31888 0.0861,-0.13927 0.99306,-0.21785 2.01554,-0.17462 l 1.85904,0.0786 -2.06636,5.68855 -2.06637,5.68854 -0.0143,4.03489 -0.0143,4.03489 h -2.21655 -2.21654 l -0.0442,-4.24904 z m 1.67259,-16.77366 c 0.4709,-1.87622 0.59123,-1.99605 2.00437,-1.99605 0.73123,0 1.32948,0.0681 1.32948,0.15133 0,0.0832 -0.30898,0.67854 -0.68659,1.32291 -0.63122,1.07707 -0.77227,1.1716 -1.74847,1.1716 -0.99547,0 -1.0517,-0.0406 -0.89879,-0.64979 z M -181.26951,42.32343 c -1.42174,-0.437304 -2.23944,-1.323774 -2.43492,-2.639719 -0.0907,-0.610643 -0.12681,-4.151948 -0.0802,-7.869568 0.0741,-5.914657 0.14287,-6.847988 0.55021,-7.468973 0.77393,-1.179845 1.93167,-1.619517 4.29699,-1.631864 3.68956,-0.01926 4.63021,0.942577 4.63021,4.734505 v 2.262097 h -1.97368 -1.97367 l -0.0769,-2.182812 c -0.0609,-1.729735 -0.15922,-2.182813 -0.47372,-2.182813 -0.34134,0 -0.40672,1.008777 -0.46727,7.209896 -0.0691,7.075946 -0.0605,7.209896 0.46302,7.209896 0.49038,0 0.53342,-0.170765 0.53342,-2.116667 0,-1.552223 -0.0882,-2.099026 -0.33073,-2.05052 -0.22694,0.04539 -0.35563,-0.411287 -0.41008,-1.455209 l -0.0793,-1.521354 h 2.39446 2.39445 v 4.894792 4.894792 h -1.05833 c -0.58209,0 -1.06016,-0.0893 -1.06239,-0.198438 -0.002,-0.109141 -0.11402,-0.372298 -0.24843,-0.584793 -0.21268,-0.336243 -0.30653,-0.332523 -0.72355,0.02868 -0.49424,0.428078 -2.05468,1.03472 -2.56918,0.9988 -0.16018,-0.01119 -0.74536,-0.160012 -1.30039,-0.330729 z m 21.28158,0.06543 c -1.5522,-0.304947 -2.37786,-0.888417 -2.8474,-2.012174 -0.31879,-0.762981 -0.37523,-2.249278 -0.30863,-8.127737 0.0903,-7.969603 0.12591,-8.142348 1.86994,-9.06902 1.23957,-0.658639 4.75057,-0.648147 6.09458,0.01821 1.7337,0.85957 1.77428,1.078423 1.77428,9.567796 v 7.580223 l -0.86445,0.864449 c -0.60211,0.602112 -1.28856,0.955408 -2.26198,1.164167 -1.56476,0.335581 -1.81468,0.3366 -3.45634,0.01407 z m 2.5583,-9.661333 c 0.0631,-5.69311 0.011,-6.958676 -0.29719,-7.214461 -0.20557,-0.17061 -0.56745,-0.235876 -0.80418,-0.145036 -0.38235,0.146722 -0.43041,0.939954 -0.43041,7.104218 0,3.816479 0.0844,7.023451 0.18755,7.126604 0.10315,0.103151 0.43058,0.15276 0.7276,0.110241 0.52565,-0.07524 0.5421,-0.261503 0.61663,-6.981566 z m 46.22551,9.776284 c -1.37611,-0.191589 -2.80059,-0.957383 -3.19323,-1.716671 -0.30249,-0.584949 -0.37864,-2.249488 -0.37864,-8.276761 v -7.544558 l 0.80713,-0.919267 c 1.00778,-1.147804 2.8874,-1.641745 5.16468,-1.357218 1.2512,0.156328 1.70465,0.35662 2.41456,1.066523 0.86761,0.867614 0.87405,0.892749 0.87405,3.414049 v 2.54 h -1.84139 -1.84138 l -0.0768,-2.182812 c -0.0697,-1.980808 -0.12582,-2.182813 -0.60601,-2.182813 -0.51454,0 -0.53112,0.199867 -0.5996,7.22886 l -0.0704,7.22886 0.5996,-0.08511 c 0.57012,-0.08093 0.60332,-0.211915 0.67532,-2.664796 l 0.0757,-2.579688 h 1.8425 1.84251 v 2.927811 c 0,1.610296 -0.12305,3.15772 -0.27343,3.438721 -0.586,1.094936 -3.36713,1.94999 -5.41512,1.664867 z m 39.113017,-0.200367 c -1.19118,-0.538951 -1.40989,-1.132244 -1.40989,-3.824586 0,-2.18103 0.0576,-2.446817 0.69448,-3.203671 0.38196,-0.453929 1.57258,-1.307264 2.64584,-1.896298 l 1.95135,-1.070973 v -1.571889 c 0,-1.183123 -0.10255,-1.611243 -0.41465,-1.731009 -0.70699,-0.271298 -1.04034,0.400228 -1.04603,2.107262 l -0.006,1.640341 h -1.82136 -1.82137 l 0.0594,-2.248623 c 0.0641,-2.42474 0.27977,-2.884415 1.69744,-3.617514 0.96329,-0.498134 4.37309,-0.527846 5.35495,-0.04666 0.40016,0.196101 0.9764,0.692435 1.28053,1.102964 0.52174,0.704274 0.55783,1.134962 0.63905,7.62825 l 0.0861,6.881831 -2.20278,-0.03782 c -1.21153,-0.0208 -2.79808,0.031 -3.52568,0.115107 -0.8799,0.101716 -1.60391,0.0258 -2.162,-0.226706 z m 3.88178,-4.852993 V 35.20162 l -0.59531,0.394118 c -0.51215,0.339066 -0.60629,0.66371 -0.67392,2.324063 -0.0547,1.342043 0.0233,1.992884 0.25572,2.136561 0.71528,0.442071 1.01351,-0.324726 1.01351,-2.605911 z M -172.71974,32.620325 v -9.789584 h 4.10104 4.10104 v 1.190625 1.190625 h -1.98438 -1.98437 v 2.645834 2.645833 h 1.85208 1.85209 v 1.190625 1.190625 h -1.85209 -1.85208 v 3.571875 3.571876 h 2.11667 2.11666 v 1.190625 1.190625 h -4.23333 -4.23333 z m 20.90208,-0.02537 v -9.814956 l 3.65915,0.09152 c 3.54991,0.08879 3.68864,0.114016 4.64665,0.845122 0.54311,0.414482 1.09915,1.047311 1.23563,1.406287 0.13649,0.358975 0.24771,3.770322 0.24716,7.580771 -7.9e-4,6.48079 -0.0354,6.984599 -0.53463,7.803368 -0.89161,1.462421 -2.24777,1.890287 -6.01281,1.897036 l -3.24115,0.0058 v -9.814956 z m 5.35376,6.791548 c 0.10692,-0.156136 0.19621,-3.222175 0.19844,-6.813422 0.003,-5.586821 -0.056,-6.589567 -0.41172,-6.945313 -0.22868,-0.228674 -0.52633,-0.415773 -0.66146,-0.415773 -0.14533,0 -0.24569,3.022555 -0.24569,7.40003 0,6.936339 0.029,7.389325 0.46302,7.229196 0.25467,-0.09396 0.5505,-0.298582 0.65741,-0.454718 z m 6.02332,-6.766174 v -9.789584 h 4.10105 4.10104 v 1.190625 1.190625 h -1.98438 -1.98437 v 2.633745 2.633745 l 1.78594,0.07823 1.78593,0.07823 0.0814,1.124479 0.0814,1.124479 h -1.86729 -1.8673 v 3.571875 3.571876 h 1.98438 1.98437 v 1.190625 1.190625 h -4.10104 -4.10104 z m 11.90625,1.190625 v -8.598959 h -1.19062 -1.19063 V 24.02137 22.830745 h 4.49792 4.49792 v 1.190625 1.190625 h -1.19063 -1.19062 v 8.598959 8.598959 h -2.11667 -2.11667 z m 7.93751,-1.190625 v -9.789584 h 2.11666 2.11667 v 9.789584 9.789584 h -2.11667 -2.11666 z m 16.66875,0 v -9.789584 h 2.26546 2.265457 l -0.0827,2.910956 c -0.0455,1.601026 -0.0226,2.910714 0.0508,2.910417 0.0734,-2.91e-4 0.49179,-1.280461 0.92978,-2.84481 l 0.79635,-2.844271 2.01956,-0.07679 2.01956,-0.07679 -1.17041,3.913243 c -0.64372,2.152284 -1.22894,4.2109 -1.30048,4.574702 -0.0753,0.382912 0.51915,2.834119 1.41165,5.820834 l 1.54174,5.159375 -2.24217,0.07709 c -1.52265,0.05235 -2.30463,-0.02397 -2.4368,-0.237836 -0.10705,-0.173207 -0.45726,-1.577115 -0.77825,-3.119795 -0.32098,-1.54268 -0.66019,-2.888552 -0.75378,-2.990829 -0.0936,-0.102277 -0.1307,1.296707 -0.0824,3.108854 l 0.0877,3.294812 h -2.270537 -2.27053 z m 15.081247,5.621555 c 0,-4.732028 0.19512,-3.852315 -3.28621,-14.815826 -0.18506,-0.582797 -0.14545,-0.595313 1.8843,-0.595313 h 2.07334 l 0.91237,3.293932 c 0.5018,1.811662 0.96244,3.243857 1.02364,3.182655 0.0612,-0.0612 0.57752,-1.543471 1.14737,-3.293931 l 1.0361,-3.182656 h 1.83788 c 1.01083,0 1.83787,0.108893 1.83787,0.241984 0,0.133091 -0.89297,2.739255 -1.98437,5.791475 l -1.98438,5.549492 v 3.998108 3.998109 h -2.24895 -2.24896 z m 1.73729,-17.064784 c 0.56192,-1.803807 0.54107,-1.785938 2.08367,-1.785938 h 1.4528 l -0.80354,1.190625 c -0.72785,1.078462 -0.90316,1.190625 -1.86096,1.190625 -0.97515,0 -1.04299,-0.04632 -0.87197,-0.595312 z"
         style="fill:#000000;stroke-width:1"
         sodipodi:nodetypes="ccscscccscccsccccscccssccccsccccssscssssccccssccssscscscscssscsscsssscccccccccccccccccscccscccccccccccccccscsccccccsccccsscccccccccsccscscccscccscccccccsccccccccccsccsccsccccccscccccccccccccccccccscscccccccscsssccssccsssccccccscccccccccccccccccccccccssccccscsccscccsccsccccccsccccssscccccscccscccccssssccccccsccccccscccssccccccsccccccsccsscccccsccccccscccccccsscsccscccsccccccccccccssccscsccccccccsccccccccccccscccccsccccccccccccccccccccscsccccccscccccccccccsscccccccccccccccsccccscccccccccccccccccccccccccccccccccccccccccsccccccccccccccccscccccsccccccccccsscsccccsssccccscsscccccccscccccccccccsccccccccscccccsccscsccccscccccccsccccscccscccccccccccscccsccccscccccccccccccccccccccccccccscccccccccccsscccccccccccccccccccccccccccccccccccccccccccccccccccccccccccccccccsacccccccccssscccccssccccccscsccsc" />
      <path
         inkscape:connector-curvature="0"
         id="path1789"
         d="m -253.68225,115.96212 c 12.15672,-0.9028 22.567,-3.66648 32.55763,-8.64326 4.01179,-1.99845 10.53028,-5.99507 10.98929,-6.73776 0.21209,-0.34317 0.18677,-0.32994 -1.87504,0.97957 -0.7276,0.46212 -2.75167,1.55511 -4.49792,2.42886 -20.2112,10.11281 -47.54626,10.23951 -68.00175,0.31519 -9.66319,-4.68825 -17.38853,-11.43724 -21.86453,-19.10122 -4.59895,-7.8745 -5.68205,-17.28753 -2.9797,-25.89616 2.6506,-8.44374 9.79647,-16.92699 19.13982,-22.72192 22.7901,-14.13487 56.9476,-13.9291 79.59314,0.47949 0.32742,0.20832 0.59531,0.31856 0.59531,0.24497 0,-0.22162 -4.45322,-3.18394 -7.23156,-4.81049 -16.01624,-9.37655 -37.97879,-12.98526 -58.64969,-9.63683 -22.80962,3.69488 -41.86656,15.82113 -49.0458,31.20866 -2.38616,5.11437 -3.34169,9.40023 -3.34169,14.98856 0,5.43184 0.96922,9.60835 3.43684,14.80985 9.89799,20.86401 39.94472,34.41181 71.17565,32.09249 z"
         style="fill:#c8c8c8;fill-opacity:1;stroke-width:1" />
    </g>
  </g>
</svg>
