<?xml version="1.0" encoding="UTF-8" standalone="no"?>
<!-- Created with Inkscape (http://www.inkscape.org/) -->

<svg
   xmlns:dc="http://purl.org/dc/elements/1.1/"
   xmlns:cc="http://creativecommons.org/ns#"
   xmlns:rdf="http://www.w3.org/1999/02/22-rdf-syntax-ns#"
   xmlns:svg="http://www.w3.org/2000/svg"
   xmlns="http://www.w3.org/2000/svg"
   xmlns:sodipodi="http://sodipodi.sourceforge.net/DTD/sodipodi-0.dtd"
   xmlns:inkscape="http://www.inkscape.org/namespaces/inkscape"
   width="124.78699mm"
   height="97.427025mm"
   viewBox="0 0 124.78699 97.427027"
   version="1.1"
   id="svg8"
   inkscape:version="0.92.5 (2060ec1f9f, 2020-04-08)"
   sodipodi:docname="GgUlogo.svg">
  <defs
     id="defs2" />
  <sodipodi:namedview
     id="base"
     pagecolor="#ffffff"
     bordercolor="#666666"
     borderopacity="1.0"
     inkscape:pageopacity="0.0"
     inkscape:pageshadow="2"
     inkscape:zoom="0.81682452"
     inkscape:cx="745.30278"
     inkscape:cy="77.649452"
     inkscape:document-units="mm"
     inkscape:current-layer="layer1"
     showgrid="false"
     fit-margin-top="2"
     fit-margin-left="2"
     fit-margin-bottom="2"
     fit-margin-right="2"
     inkscape:window-width="1920"
     inkscape:window-height="1017"
     inkscape:window-x="0"
     inkscape:window-y="0"
     inkscape:window-maximized="1" />
  <metadata
     id="metadata5">
    <rdf:RDF>
      <cc:Work
         rdf:about="">
        <dc:format>image/svg+xml</dc:format>
        <dc:type
           rdf:resource="http://purl.org/dc/dcmitype/StillImage" />
        <dc:title></dc:title>
      </cc:Work>
    </rdf:RDF>
  </metadata>
  <g
     inkscape:label="Vrstva 1"
     inkscape:groupmode="layer"
     id="layer1"
     transform="translate(-21.0546,-37.172982)">
    <path
       inkscape:connector-curvature="0"
       id="path834"
       d="M 63.731039,132.35985 C 40.041965,129.87752 22.233445,109.44355 23.240691,85.90013 23.727632,74.518368 27.906094,64.7076 35.741099,56.549946 c 4.642917,-4.834118 8.891992,-7.792025 14.863415,-10.346876 5.243199,-2.243283 9.822832,-3.208595 17.481444,-3.684803 2.470789,-0.153631 13.156146,-0.99652 23.745232,-1.873085 21.00073,-1.738441 21.30712,-1.745358 25.88409,-0.584313 8.38918,2.12809 16.35159,8.38403 21.75069,17.089182 1.34392,2.16684 2.86782,5.15874 2.70864,5.317918 -0.11833,0.118333 -34.62638,7.279179 -34.68543,7.197657 -0.0264,-0.03647 -0.59121,-1.105927 -1.2551,-2.376618 C 103.1735,61.431085 98.280614,55.957835 92.583779,52.019617 l -1.92599,-1.33143 -1.723647,1.411025 c -8.296201,6.791551 -13.262859,16.301448 -14.416007,27.603016 -0.294534,2.886616 -0.362607,8.244002 -0.120154,9.456261 l 0.151094,0.755476 8.610706,-2.520319 8.610699,-2.520329 h 26.02176 c 14.31197,0 26.02176,0.09512 26.02176,0.211466 0,0.116304 -0.27498,1.127079 -0.61108,2.246165 -3.82067,12.721852 -11.91127,23.187562 -21.72228,28.099192 -2.25693,1.12988 -39.132059,14.92533 -41.714593,15.60596 -4.75012,1.25189 -11.445775,1.80465 -16.035008,1.32375 z m 11.598964,-3.00065 c -3.240218,-0.4734 -5.132259,-0.92316 -5.178774,-1.23105 -0.02133,-0.1412 0.482706,-0.5455 1.12008,-0.89847 0.969019,-0.53664 1.234072,-0.5891 1.617982,-0.32027 1.050661,0.73571 1.668561,0.86414 2.133423,0.44345 0.297794,-0.2695 0.671936,-0.34845 1.119274,-0.23618 0.422077,0.10594 0.671949,0.0628 0.671949,-0.11588 0,-0.15649 -0.202156,-0.2882 -0.449234,-0.2927 -0.459575,-0.008 -1.526834,-0.68622 -1.328964,-0.8441 0.06029,-0.0481 0.513924,-0.19965 1.008082,-0.33677 0.760456,-0.21101 1.351938,-0.10057 3.850578,0.71898 2.963761,0.97212 3.850578,1.15303 3.850578,0.78551 0,-0.10887 -1.010775,-0.46407 -2.246175,-0.78934 -4.396195,-1.15747 -4.444627,-1.01565 0.962825,-2.81936 2.612073,-0.87129 4.995305,-1.58415 5.296077,-1.58415 0.300761,0 1.326165,0.29334 2.278678,0.65185 0.952504,0.35854 1.794129,0.58957 1.870286,0.51342 0.213813,-0.21382 0.04286,-0.30987 -1.733849,-0.97432 l -1.655572,-0.61915 2.371232,-0.72739 c 1.304183,-0.40006 2.277069,-0.82155 2.161974,-0.93665 -0.115095,-0.1151 -1.330411,0.16003 -2.7007,0.61139 l -2.491422,0.82066 -1.479089,-0.72201 c -1.638946,-0.80004 -5.23849,-2.95597 -6.213667,-3.72164 l -0.627295,-0.49252 3.190916,-0.99971 c 1.755001,-0.54984 3.076939,-1.06975 2.937634,-1.15536 -0.139295,-0.0856 -1.675486,0.28115 -3.413751,0.81503 l -3.160483,0.97069 -1.203506,-0.96173 c -0.661929,-0.52895 -1.4923,-1.28237 -1.845269,-1.67427 l -0.641763,-0.71254 0.962645,0.14865 c 0.903925,0.13956 0.96508,0.10656 1.002567,-0.54116 0.06763,-1.16856 -0.05804,-1.94191 -0.4418,-2.71871 -0.451075,-0.91306 -0.45127,-0.92321 -0.01779,-0.92321 0.714915,0 1.654801,1.05577 2.221852,2.4958 0.321213,0.81573 0.812814,1.71417 1.092446,1.99654 0.507947,0.51294 0.508245,0.51282 0.320239,-0.12835 -0.420049,-1.43252 -0.30876,-1.92001 0.458409,-2.00798 0.837571,-0.096 0.85094,-0.0353 -0.407849,-1.85327 -2.189523,-3.16215 -4.147062,-6.42063 -5.275489,-8.78148 L 74.12097,97.708578 h -8.921725 c -7.579386,0 -8.921724,0.05545 -8.921724,0.368346 0,0.831893 0.519418,1.619633 1.529502,2.319626 1.040488,0.72105 1.089108,0.72943 1.799016,0.31008 0.949257,-0.56075 0.958547,-0.55809 1.085991,0.31023 l 0.108789,0.74124 -3.084321,0.66943 c -1.696375,0.36819 -3.167925,0.58334 -3.270109,0.47811 -0.102186,-0.10522 -0.427822,-0.809 -0.723639,-1.56394 l -0.537849,-1.372628 1.259987,0.173298 1.259983,0.17328 v -1.303528 c 0,-0.922928 -0.101146,-1.303544 -0.346406,-1.303544 -0.41245,0 -0.87788,-0.792505 -0.87788,-1.494785 0,-0.373112 0.237668,-0.546309 0.92714,-0.675652 0.966367,-0.181291 2.360427,-1.438532 3.072707,-2.771142 0.207529,-0.388269 0.478766,-0.705937 0.60275,-0.705937 0.12398,0 -0.113071,0.624954 -0.526782,1.388793 l -0.752203,1.388793 1.226126,-0.370214 c 0.674373,-0.203622 3.82527,-1.128108 7.001998,-2.054403 3.176727,-0.926296 5.813978,-1.721189 5.860555,-1.766422 0.04658,-0.04526 -0.111105,-0.381055 -0.350406,-0.746274 -0.429747,-0.655878 -0.426844,-0.664031 0.236195,-0.664031 0.369209,0 0.671287,-0.129963 0.671287,-0.288792 0,-0.18091 -0.274585,-0.233877 -0.735032,-0.141793 -0.582267,0.116454 -0.796818,0.02978 -1.032317,-0.417145 -0.163506,-0.310284 -0.590094,-0.966292 -0.947969,-1.457796 -0.424617,-0.583169 -0.595674,-1.073704 -0.492351,-1.411884 0.08709,-0.285025 0.310519,-1.129338 0.496522,-1.876241 0.319865,-1.284429 0.306248,-1.40508 -0.251342,-2.226731 -0.682069,-1.00508 -0.526253,-1.152379 1.250724,-1.182344 0.588499,-0.01 1.301037,-0.125626 1.583412,-0.257118 0.332736,-0.154932 -0.440422,-0.186236 -2.197017,-0.08893 -2.283744,0.126485 -2.763527,0.08613 -3.04772,-0.256299 -0.453395,-0.546308 -0.787836,-0.512806 -0.787836,0.07894 0,0.366028 -0.226958,0.511828 -0.923317,0.59312 -0.793849,0.09262 -0.957069,0.01899 -1.164025,-0.525316 -0.275484,-0.724571 0.180202,-3.501398 1.058619,-6.450963 0.535892,-1.799424 0.569788,-1.844896 1.239077,-1.662147 0.378464,0.103345 1.08794,0.259486 1.576618,0.346973 0.727302,0.130223 0.917451,0.298314 1.048052,0.926465 0.223026,1.072694 0.849972,2.198495 1.630238,2.927423 0.647054,0.604471 0.676377,0.608118 1.185529,0.147348 0.287135,-0.259855 0.704522,-1.116358 0.927525,-1.903338 0.223005,-0.78698 0.569536,-1.690784 0.770069,-2.008462 0.200535,-0.317667 0.275306,-0.579351 0.16616,-0.581509 -0.109146,-0.002 -0.02518,-0.117683 0.186612,-0.256708 0.297172,-0.195089 0.312272,-0.299893 0.06616,-0.459231 -0.175399,-0.113556 -0.393819,-0.777778 -0.485381,-1.476061 -0.09155,-0.698274 -0.362219,-1.65935 -0.601465,-2.135717 l -0.434992,-0.866114 -0.326663,1.166716 c -0.179663,0.6417 -0.249628,1.291364 -0.155476,1.443708 0.247712,0.400809 -0.294564,0.339899 -0.98157,-0.110239 -0.540862,-0.354387 -0.630552,-0.343506 -1.057573,0.128354 -0.256628,0.283566 -0.658,0.515574 -0.891944,0.515574 -0.233939,0 -0.681565,0.346554 -0.994719,0.770114 -0.409247,0.553543 -0.782736,0.770124 -1.328057,0.770124 h -0.758685 l 0.525936,-1.347707 c 0.289265,-0.741238 0.750624,-1.576508 1.025244,-1.856147 0.497251,-0.506352 0.501989,-0.505562 1.149293,0.192521 1.072642,1.156805 1.480953,0.928044 2.909594,-1.630124 0.850575,-1.523062 0.994705,-2.498317 0.488909,-3.308218 -0.171138,-0.274034 -0.219037,-0.590143 -0.106439,-0.70246 0.112599,-0.112307 1.523316,-0.167072 3.134924,-0.121699 1.963795,0.05525 2.930195,-0.008 2.930195,-0.192531 0,-0.177234 -0.912816,-0.275023 -2.567052,-0.275023 -2.492156,0 -2.566937,-0.01689 -2.563123,-0.577593 0.0049,-0.711523 0.241784,-1.076981 0.841952,-1.298638 0.253456,-0.09362 0.632538,-0.58116 0.842404,-1.083445 0.209869,-0.502285 0.5598,-0.98164 0.777622,-1.065221 0.264859,-0.101636 0.347422,-0.345694 0.249259,-0.736811 -0.119897,-0.477706 0.170519,-0.876666 1.58531,-2.177852 l 1.732096,-1.593004 2.867085,0.168221 c 1.879487,0.110269 2.923705,0.07664 3.031436,-0.09772 0.107052,-0.173216 -0.489805,-0.276521 -1.711906,-0.296305 -1.031948,-0.01669 -2.213106,-0.103345 -2.624795,-0.192531 l -0.748527,-0.162156 1.390299,-0.921669 c 0.764649,-0.506921 2.306446,-1.424094 3.426201,-2.038157 1.119745,-0.614073 1.898382,-1.16233 1.730301,-1.218354 -0.379416,-0.126475 -3.154205,1.373656 -5.63498,3.046435 -1.196386,0.806723 -2.143094,1.260099 -2.63123,1.260099 -0.928793,0 -0.953585,-0.160837 -0.125228,-0.812419 0.350479,-0.275692 0.904797,-1.043179 1.231813,-1.705532 0.43148,-0.873928 1.009403,-1.482465 2.106838,-2.218438 L 82.8155,47.034635 82.060893,46.716567 c -0.415032,-0.174936 -1.567099,-0.513527 -2.56014,-0.752429 l -1.805531,-0.434352 -2.763542,0.84854 c -2.444807,0.75067 -3.190597,1.135742 -6.466233,3.338743 l -3.702691,2.490213 -3.513072,-0.134049 c -4.152262,-0.158449 -4.179989,-0.07224 0.803708,-2.498157 3.716861,-1.809246 7.062135,-2.948405 10.524915,-3.584031 3.435698,-0.630649 4.237995,-0.924426 2.150191,-0.787329 -4.358596,0.286223 -12.513146,3.203055 -16.699025,5.973137 l -0.989948,0.655119 -6.092691,-0.237424 c -3.350981,-0.130572 -6.191086,-0.158479 -6.311342,-0.06205 -0.227251,0.182299 1.502896,0.331186 7.767891,0.668477 l 3.698662,0.199126 -1.955023,1.494906 c -1.075261,0.822203 -3.234155,2.825488 -4.797542,4.451735 l -2.842517,2.956819 -6.153181,-0.08773 c -3.38425,-0.04826 -6.15312,-0.01918 -6.153045,0.06475 1.5e-4,0.167262 6.527278,0.489316 9.91735,0.489316 h 2.134428 l -1.415866,2.079323 c -0.778726,1.143635 -2.045674,3.335136 -2.815438,4.869998 -1.006184,2.006273 -1.598434,2.892871 -2.107077,3.154295 -0.506537,0.260335 -2.293484,0.417186 -6.290847,0.552174 -3.217934,0.108671 -5.583339,0.291749 -5.583339,0.432124 0,0.151644 1.937888,0.174196 5.134105,0.05975 2.823757,-0.101096 5.134104,-0.112857 5.134104,-0.02618 0,0.08673 -0.61547,0.551405 -1.367712,1.032607 -0.909564,0.58184 -1.482657,1.164908 -1.710862,1.740653 -0.188732,0.476147 -0.515304,1.067888 -0.725715,1.314964 -0.622958,0.731516 0.0253,0.521229 2.170344,-0.704029 2.308245,-1.318481 2.799818,-1.430059 2.553123,-0.579501 -0.311615,1.074393 -1.123956,4.934115 -1.289195,6.125432 l -0.164206,1.183852 -4.032701,0.342217 c -2.217985,0.188225 -4.084259,0.326411 -4.147275,0.307087 -0.06302,-0.01938 -0.254064,-0.507561 -0.424553,-1.084974 -0.17049,-0.577403 -0.45706,-1.227057 -0.636825,-1.443658 -0.255805,-0.308226 -0.261856,-0.573537 -0.02784,-1.220702 0.179747,-0.49709 0.264497,-1.874222 0.212486,-3.452739 -0.08259,-2.50643 -0.260382,-3.367919 -0.53457,-2.590191 -0.06934,0.196698 -0.650657,1.780859 -1.291809,3.520363 -1.081726,2.934836 -1.192758,3.470134 -1.540811,7.428456 -0.286197,3.254822 -0.31286,4.877832 -0.112513,6.848764 0.659576,6.488592 2.600602,12.508508 5.721253,17.743938 1.849071,3.10214 2.844736,4.35888 4.460911,5.63064 1.327138,1.04433 1.484966,1.10913 1.559351,0.64036 0.08901,-0.5609 -0.933837,-2.38051 -2.565007,-4.5631 -0.779093,-1.04246 -0.995883,-1.54817 -0.934648,-2.18027 l 0.07972,-0.82299 3.722225,-0.82317 c 4.847134,-1.07195 4.751401,-1.07538 5.398802,0.19363 0.83442,1.6356 2.25085,3.78819 3.920931,5.95877 0.84446,1.09752 1.489963,2.03838 1.434455,2.0908 -0.0555,0.0524 -1.949198,0.63691 -4.208205,1.29887 -3.669433,1.07526 -5.203337,1.67422 -4.287599,1.67422 0.169082,0 2.282424,-0.58742 4.696313,-1.30537 l 4.38889,-1.30536 2.221891,2.1272 c 1.222043,1.16995 2.39517,2.28614 2.606952,2.48041 0.329879,0.30261 0.214678,0.32846 -0.803942,0.1804 -0.671923,-0.0976 -1.254045,-0.0675 -1.338574,0.0692 -0.201976,0.3268 1.010783,1.42897 2.268764,2.06187 l 1.024716,0.51554 -2.6933,0.82718 c -2.555637,0.78488 -3.647381,1.28183 -2.808818,1.2785 0.204723,-7.7e-4 1.642914,-0.4028 3.195981,-0.89333 3.204811,-1.0122 3.46552,-0.94078 3.46552,0.94938 0,0.77713 0.121088,1.03378 0.577587,1.22429 0.578965,0.24159 4.956803,1.31787 7.12357,1.75129 1.154307,0.23091 1.154642,0.2313 0.449235,0.5194 -1.323883,0.5407 -0.710558,0.76204 0.80476,0.29042 0.830883,-0.2586 1.740062,-0.4102 2.020396,-0.33689 0.280333,0.0733 0.928968,0.0175 1.441411,-0.12398 0.634043,-0.17506 1.239264,-0.17064 1.894358,0.0138 1.811687,0.51021 6.024305,1.13064 6.830999,1.00606 0.584892,-0.0903 0.152462,-0.21995 -1.57642,-0.47254 z m -7.991147,-2.87998 c -0.199123,-0.12606 -0.381641,-0.49972 -0.405591,-0.83037 -0.03803,-0.52497 -0.366316,-0.70605 -2.590066,-1.42869 -3.734846,-1.21368 -4.797723,-1.64754 -4.557773,-1.86043 0.397141,-0.35236 4.758377,-1.58277 5.119282,-1.44428 0.196621,0.0754 0.357493,0.37185 0.357493,0.65866 0,0.44473 0.165349,0.52146 1.123743,0.52146 0.670162,0 1.248835,0.15073 1.43366,0.37343 0.170454,0.20539 0.799174,0.66015 1.397151,1.0106 1.387138,0.81291 2.732325,2.65237 2.190425,2.99525 -0.47549,0.30086 -3.594659,0.30421 -4.068324,0.004 z m 5.007663,-1.5703 c -0.676922,-0.4293 -1.51843,-1.1224 -1.870016,-1.54023 -0.4864,-0.57806 -0.856292,-0.75971 -1.546982,-0.75971 -0.861383,0 -0.900256,-0.0374 -0.761204,-0.73268 0.0815,-0.40748 0.016,-0.86323 -0.147605,-1.02682 -0.672299,-0.6723 0.380673,-0.24593 2.046708,0.82874 0.95742,0.61758 2.722662,1.61676 3.922759,2.22038 l 2.181995,1.09749 -0.898469,0.32715 c -1.318617,0.48013 -1.573719,0.44402 -2.927186,-0.41432 z m 1.585873,-1.60054 c -3.121489,-1.60269 -5.589728,-3.157 -5.589728,-3.51997 0,-0.28182 0.04681,-0.29151 1.873398,-0.38741 0.785532,-0.0413 1.343414,-0.21712 1.540232,-0.48557 0.169728,-0.23149 1.834131,-0.88256 3.698676,-1.4468 l 3.39008,-1.0259 2.385784,1.56946 c 1.312186,0.86321 3.180723,1.97093 4.152321,2.4616 l 1.766521,0.89213 -4.975342,1.64664 c -2.736436,0.90565 -5.116861,1.64741 -5.289831,1.64835 -0.172972,0.001 -1.501421,-0.6077 -2.952111,-1.35253 z m -17.141464,-1.98293 c -0.917721,-0.41565 -1.85974,-0.75897 -2.093375,-0.76293 -0.45808,-0.008 -5.351076,-4.23945 -5.351076,-4.62787 0,-0.22414 1.772939,-0.81388 7.683765,-2.55588 l 2.67801,-0.78925 1.096889,1.22333 c 0.603285,0.67283 1.102062,1.36773 1.108389,1.54421 0.0063,0.17649 0.170634,0.32088 0.36513,0.32088 0.194492,0 0.512165,0.19202 0.705939,0.42672 0.193772,0.23468 1.129172,1.09603 2.078663,1.91409 1.794208,1.54586 1.903646,1.92506 0.433935,1.50354 -0.727067,-0.20851 -0.946557,-0.16642 -1.377119,0.26415 -0.394818,0.39481 -0.425588,0.51562 -0.134272,0.52714 0.207859,0.008 -0.892765,0.41202 -2.445831,0.89733 -1.553067,0.48532 -2.881516,0.87966 -2.95211,0.87634 -0.07059,-0.003 -0.879215,-0.34614 -1.796937,-0.7618 z m 4.587036,-2.14143 c 0.15725,-0.18947 0.209899,-0.42051 0.117,-0.51341 -0.0929,-0.0929 0.0095,-0.16891 0.2275,-0.16891 0.218025,0 0.528092,-0.15867 0.689036,-0.35259 0.229655,-0.27672 0.148358,-0.44712 -0.377804,-0.79188 -0.844706,-0.55347 -1.965217,-0.35056 -1.727285,0.31279 0.08811,0.24564 0.06883,0.36404 -0.04281,0.26313 -0.239634,-0.21662 -1.162322,0.22734 -1.162322,0.55924 0,0.84363 1.717516,1.36539 2.276689,0.69163 z m 5.270222,-0.48252 c -0.432918,-0.32167 -1.521803,-1.2515 -2.419739,-2.06626 -1.551771,-1.40806 -1.610384,-1.50339 -1.183689,-1.92529 0.426012,-0.42124 0.485316,-0.39956 1.161866,0.4245 0.686242,0.83586 0.747339,0.85702 1.631672,0.56516 0.92408,-0.30497 1.220841,-0.68605 1.220841,-1.56775 0,-0.83176 0.531181,-0.84757 1.369885,-0.0408 1.00994,0.97152 1.857403,1.19193 3.19646,0.83136 1.183727,-0.31875 1.363426,-0.61026 1.010007,-1.6385 -0.169843,-0.49414 -0.160793,-0.81391 0.02839,-1.0031 0.379398,-0.37939 0.997028,0.15943 1.464103,1.2773 0.41733,0.99881 0.978403,0.89673 0.72044,-0.13108 -0.147772,-0.58877 0.07634,-0.45853 1.683566,0.97837 l 1.854025,1.65755 -2.647152,0.83179 c -1.455935,0.45749 -3.179739,0.83292 -3.830679,0.83429 -0.822489,0.002 -1.460121,0.19021 -2.090235,0.61781 -1.396628,0.94778 -2.243897,1.04256 -3.169763,0.35461 z m -19.675594,-5.56766 c -1.485861,-1.87991 -3.812417,-5.48746 -4.180034,-6.48157 -0.193851,-0.52421 -0.405509,-0.45862 5.65545,-1.75247 2.68257,-0.57266 5.079465,-1.10426 5.326433,-1.18134 0.320094,-0.0999 0.525501,0.061 0.71532,0.56024 0.398355,1.04776 2.912713,5.24796 3.973448,6.63759 0.511439,0.67003 0.893108,1.24775 0.848154,1.28384 -0.202763,0.16275 -9.960623,2.9644 -10.324721,2.9644 -0.224953,0 -1.131274,-0.91381 -2.01405,-2.03069 z m 14.102,0.28388 c -0.379385,-0.39599 -0.68979,-0.79585 -0.68979,-0.88857 0,-0.0927 0.469295,-0.29496 1.042878,-0.4494 0.573582,-0.15445 1.237806,-0.35 1.476055,-0.43456 0.265535,-0.0942 0.135139,0.16663 -0.336939,0.67407 -0.434558,0.46712 -0.735121,1.04364 -0.689803,1.32314 0.106009,0.6538 0.01474,0.62824 -0.802401,-0.22468 z m -2.610644,-3.33509 c -1.914533,-2.69391 -3.859018,-6.44021 -3.419339,-6.58781 0.611349,-0.20523 5.324808,-1.16555 5.72077,-1.16555 0.868794,0 0.404776,1.38559 -1.028748,3.07191 -0.776145,0.91302 -1.371884,1.77939 -1.323865,1.92529 0.04802,0.14589 0.771286,0.29803 1.607257,0.33808 2.198052,0.10531 3.081783,0.58602 3.27979,1.78407 0.238461,1.4428 0.215031,1.5398 -0.412135,1.70633 -0.317673,0.0843 -1.126757,0.32253 -1.797963,0.52928 l -1.220378,0.3759 z m -26.060017,-4.23049 -1.155173,-1.59758 0.065,-2.04481 c 0.0481,-1.5133 -0.06866,-2.431041 -0.449234,-3.530723 -0.65445,-1.891078 -0.645832,-2.214221 0.06336,-2.375758 1.22855,-0.279849 6.466543,-1.161751 6.900129,-1.161751 0.329294,0 0.500114,0.268828 0.611692,0.962645 0.213145,1.325386 1.26743,4.621107 2.347205,7.337417 0.495747,1.24711 0.858941,2.3099 0.8071,2.36174 -0.149313,0.14932 -7.082925,1.6608 -7.583776,1.65323 -0.25375,-0.004 -0.956524,-0.7058 -1.606295,-1.60441 z m 8.890005,-2.37425 c -0.824963,-1.97073 -1.768474,-4.742489 -1.614347,-4.742489 0.03313,0 0.496696,0.222516 1.030145,0.494481 0.654408,0.333635 1.254966,0.44823 1.846242,0.352279 0.580947,-0.09422 1.09129,-9.99e-4 1.51404,0.275633 1.01971,0.668136 2.18604,0.518096 3.736229,-0.480633 1.43951,-0.927425 1.796937,-1.061094 1.796937,-0.672006 0,0.124548 0.684773,0.442225 1.52172,0.705938 1.518573,0.478484 1.523081,0.482891 2.177756,2.130907 0.36082,0.90829 0.629061,1.67353 0.596098,1.70054 -0.08925,0.0731 -11.211491,2.4239 -11.468198,2.4239 -0.121265,0 -0.632743,-0.98485 -1.136622,-2.18855 z m 5.520076,-0.39702 c 0.506082,-0.27085 0.504698,-0.28369 -0.08989,-0.83422 -0.85852,-0.79492 -3.002137,-0.90867 -3.649234,-0.19364 -0.255761,0.28262 -0.407656,0.66254 -0.337547,0.84428 0.163031,0.42262 3.360944,0.56662 4.076667,0.18358 z M 29.992305,95.698738 c -0.07237,-0.117093 -0.259021,-1.012354 -0.414786,-1.989467 -0.203121,-1.274178 -0.460569,-1.96202 -0.910393,-2.432371 -0.344951,-0.360693 -0.627184,-0.844833 -0.627184,-1.075852 0,-0.231019 -0.124878,-0.497219 -0.277506,-0.591542 -0.382567,-0.236444 -0.08996,-1.242653 0.715128,-2.459229 0.370766,-0.560267 0.743494,-1.446186 0.828285,-1.968694 l 0.154165,-0.950036 4.051945,-0.393515 c 2.22857,-0.216431 4.095668,-0.349791 4.149105,-0.296355 0.05344,0.05346 0.03289,1.096904 -0.04566,2.318805 -0.07854,1.221901 -0.0047,3.648138 0.164043,5.391638 0.168773,1.7435 0.270137,3.206172 0.225253,3.250406 -0.07651,0.07544 -7.388652,1.409116 -7.725437,1.409116 -0.08546,0 -0.214592,-0.09582 -0.28696,-0.212904 z m 8.398494,-2.803385 c -0.227656,-1.592575 -0.294127,-9.17865 -0.08228,-9.391115 0.1352,-0.135598 10.483484,-1.197981 11.669128,-1.197981 0.59922,0 0.661979,0.07374 0.491373,0.577593 -0.107575,0.317668 -0.169675,1.646121 -0.138003,2.952113 0.03167,1.305981 -0.04466,2.374519 -0.169643,2.374519 -0.124975,0 -0.981043,0.690729 -1.902371,1.534962 -1.797034,1.64666 -2.574849,2.05891 -3.884625,2.05891 -0.611307,0 -1.059262,0.235096 -1.69214,0.888057 -0.810782,0.836519 -2.632844,1.678993 -3.631221,1.678993 -0.351264,0 -0.495217,-0.321834 -0.660211,-1.476051 z m 21.480592,-1.201288 c 0,-0.07064 0.231035,-0.252002 0.513411,-0.403117 0.282376,-0.151125 0.51341,-0.217011 0.51341,-0.146419 0,0.07064 -0.231034,0.252002 -0.51341,0.403117 -0.282376,0.151125 -0.513411,0.217011 -0.513411,0.146419 z m 0.171137,-1.087672 c -0.09412,-0.09412 -0.171137,-0.729467 -0.171137,-1.411874 0,-0.682406 -0.09232,-1.240745 -0.205159,-1.240745 -0.420973,0 0.03859,-1.951858 0.624156,-2.650921 0.785503,-0.937756 0.77008,-1.831178 -0.0484,-2.803885 -0.822061,-0.976963 -0.495151,-1.503258 0.586859,-0.9448 1.534766,0.792146 1.915287,1.982184 0.979235,3.062441 -0.450248,0.519611 -0.757008,2.729277 -0.408777,2.944499 0.38937,0.240641 0.330092,1.240615 -0.107873,1.819657 -0.20729,0.274064 -0.380566,0.700452 -0.385058,0.947538 -0.0081,0.443034 -0.530661,0.611285 -0.863846,0.27809 z m -9.115289,-3.679441 c 0,-0.352969 0.05827,-0.49736 0.12948,-0.320875 0.07121,0.176484 0.07121,0.465275 0,0.64176 -0.07121,0.176484 -0.12948,0.03207 -0.12948,-0.320885 z m 14.876518,-4.66319 c -0.975106,-1.325935 -0.98743,-1.497733 -0.107434,-1.497733 0.642428,0 0.657665,0.02428 0.217486,0.346114 -0.526785,0.385192 -0.307127,1.057167 0.272826,0.834621 0.896448,-0.344006 1.491943,0.509 0.772295,1.106257 -0.285512,0.236954 -0.516606,0.07903 -1.155173,-0.789259 z m -27.495255,0.36338 c 0.0021,-1.175479 1.460713,-7.508629 1.729292,-7.508629 0.06696,0 0.359093,0.301731 0.649173,0.670506 0.459299,0.583898 0.669959,0.65443 1.631144,0.546089 1.114283,-0.125596 1.89426,0.308645 1.89426,1.054589 0,0.447301 4.0313,0.227772 4.493004,-0.244678 0.192383,-0.196857 0.744115,-1.108784 1.226069,-2.026506 0.704714,-1.341892 1.047359,-1.726075 1.750065,-1.96221 0.48058,-0.161497 0.909154,-0.260894 0.952386,-0.220888 0.04323,0.03997 -0.211787,1.074413 -0.566713,2.298672 -0.354926,1.224259 -0.787553,3.155055 -0.961394,4.290657 -0.173841,1.135602 -0.438648,2.106051 -0.588458,2.156549 -0.321503,0.108361 -10.878688,1.13838 -11.667871,1.13838 -0.297719,0 -0.54115,-0.08663 -0.540957,-0.192531 z m 21.483973,-2.446659 c -0.320938,-1.196013 -1.393871,-1.640895 -3.870116,-1.604695 -2.122932,0.03107 -2.181122,0.04906 -3.236497,1.002522 -0.591082,0.534009 -1.126312,0.919311 -1.189398,0.856223 -0.317059,-0.317058 1.702255,-7.951854 2.18151,-8.248049 0.225786,-0.139545 11.347371,-0.728429 11.466448,-0.607149 0.03978,0.04047 -0.256556,1.402112 -0.658516,3.025772 -0.401956,1.623659 -0.806806,3.41418 -0.899664,3.978924 l -0.168833,1.026822 -0.61639,-0.770114 -0.616391,-0.770114 -0.964089,0.513406 c -0.764923,0.407354 -0.992227,0.699023 -1.100293,1.411884 l -0.136202,0.898468 z M 53.96717,71.276635 c 0,-0.466684 2.082891,-4.4561 2.728867,-5.226674 0.334567,-0.3991 0.608301,-0.862717 0.608301,-1.030249 0,-0.167542 0.407382,-0.909539 0.90529,-1.648888 l 0.905286,-1.34428 h 3.057796 c 3.009147,0 3.057301,0.009 3.026619,0.577593 -0.01715,0.317667 -0.01001,1.36874 0.01584,2.335701 0.04188,1.566017 0.12615,1.832487 0.771175,2.438706 l 0.724153,0.680578 -0.569695,1.411275 c -0.525555,1.301925 -0.646305,1.423704 -1.558446,1.571742 -2.041783,0.331376 -10.615185,0.52077 -10.615186,0.234496 z M 42.67214,68.556571 c 0,-0.339259 1.54524,-2.973094 2.889795,-4.925612 l 1.281614,-1.861113 h 2.836441 2.836444 l -0.622335,0.666739 c -0.764158,0.818694 -2.408786,1.688236 -3.005014,1.588808 -0.311402,-0.05196 -0.642645,0.340279 -1.126683,1.334049 -0.916037,1.880697 -2.24192,3.084732 -3.396913,3.084732 -0.484683,0 -1.063966,0.07014 -1.287295,0.155822 -0.223331,0.08573 -0.406054,0.06614 -0.406054,-0.04346 z m 14.888903,-5.425699 c 0,-0.343776 0.705661,-1.254474 0.855384,-1.103919 0.06998,0.07034 -0.09384,0.40066 -0.36407,0.733974 -0.270223,0.333315 -0.491314,0.499788 -0.491314,0.369945 z m 2.783304,-2.580379 c 1.037551,-1.292433 5.103885,-5.239224 4.569557,-4.435228 -0.232001,0.349092 -0.421819,0.806824 -0.421819,1.01718 0,0.210356 -0.316343,0.634716 -0.702984,0.943011 -0.661609,0.527555 -0.684271,0.612285 -0.385059,1.439752 0.174861,0.48356 0.317928,1.06512 0.317928,1.292362 0,0.227233 0.259913,0.463208 0.577586,0.524397 0.317673,0.06115 -0.616172,0.126985 -2.075212,0.14621 l -2.6528,0.03497 z M 47.54954,61.006076 c 0,-0.464786 5.246377,-5.540634 7.339128,-7.100566 l 2.076671,-1.547942 3.570845,0.116344 c 1.963964,0.06395 3.627642,0.168861 3.697061,0.233048 0.06942,0.06425 -0.52368,0.71451 -1.318,1.445156 -0.794318,0.730647 -1.994451,2.050427 -2.66696,2.932858 -0.67251,0.882422 -1.294328,1.604406 -1.381815,1.604406 -0.08749,0 -0.75105,0.517842 -1.474582,1.150769 -1.128471,0.987165 -1.360427,1.096665 -1.631431,0.770124 -0.427469,-0.515074 -0.98984,-0.477326 -1.99202,0.13371 -0.698754,0.426028 -1.294002,0.512447 -3.529697,0.512447 -1.576149,0 -2.6892,-0.103615 -2.6892,-0.250354 z m 12.578557,-1.656302 c 0,-0.382944 1.171782,-1.430509 1.600133,-1.430509 0.277948,0 -1.106734,1.749436 -1.407604,1.778402 -0.105892,0.01019 -0.192529,-0.146359 -0.192529,-0.347893 z M 64.23538,55.34633 c 0,-0.146819 0.178259,-0.335343 0.39613,-0.418944 0.602069,-0.231039 0.672762,0.01839 0.105606,0.372542 -0.317563,0.198317 -0.501736,0.215353 -0.501736,0.04636 z m 12.231227,-0.940603 c 0.198359,-0.568561 0.835645,-1.107156 1.310013,-1.107156 0.469873,0 0.212429,0.372852 -0.711885,1.031029 -0.684099,0.487117 -0.744186,0.494761 -0.598128,0.07614 z m 33.030733,63.746393 c 5.48075,-2.05733 10.88396,-4.23025 12.00713,-4.8287 6.67771,-3.55803 13.02125,-10.5854 16.88136,-18.701153 1.60023,-3.364432 2.96547,-6.906407 2.74646,-7.125416 -0.19624,-0.196248 -28.94456,9.788717 -29.03166,10.083373 -2.07944,7.034436 -4.23817,11.812396 -7.24464,16.034676 -1.67706,2.3553 -6.314591,7.30524 -8.404106,8.97027 l -1.026822,0.81824 2.053644,-0.75534 c 1.129508,-0.41543 6.537884,-2.4386 12.018634,-4.49595 z m -6.23381,-5.51952 c 2.86508,-4.04593 5.13357,-8.7059 6.35905,-13.062908 l 0.52347,-1.861114 H 93.205995 76.265927 l 0.171567,0.577583 c 0.270072,0.90922 2.13023,4.248599 3.502345,6.287459 3.866028,5.74461 9.571017,11.10365 15.039701,14.12768 l 1.98576,1.09806 2.319295,-2.41155 c 1.275615,-1.32636 3.066125,-3.4662 3.978935,-4.75521 z m 20.91252,-21.401293 12.83526,-4.432709 -22.41109,-0.06555 -22.411076,-0.06555 -14.939527,4.373199 c -8.21674,2.405253 -15.055044,4.418321 -15.196231,4.473485 -0.141189,0.05515 10.89072,0.111458 24.51535,0.125097 l 24.772054,0.02478 12.83526,-4.43271 z m 0.31126,-26.91955 15.20017,-3.142226 -0.87741,-1.560961 c -1.71925,-3.058674 -4.15014,-6.222961 -6.93286,-9.024487 -5.40846,-5.445004 -11.38669,-8.571821 -17.98111,-9.404714 -2.20667,-0.278708 -3.73746,-0.193506 -19.034962,1.059464 -9.149425,0.749401 -16.683455,1.407343 -16.742284,1.462094 -0.05883,0.05475 0.08771,0.09955 0.325628,0.09955 1.114154,0 6.555679,2.008162 9.792836,3.613996 4.741434,2.352048 7.783842,4.55297 11.680975,8.450192 3.335047,3.335126 5.704067,6.422337 7.530617,9.813586 0.72745,1.350605 1.19094,1.95004 1.45318,1.879428 0.21177,-0.05705 7.22513,-1.517696 15.58522,-3.245919 z"
       style="fill:#39779d;fill-opacity:1;stroke:none;stroke-width:0.25670522" />
    <path
       inkscape:connector-curvature="0"
       id="path828"
       d="M 64.503138,132.19866 C 55.431344,131.12002 48.581095,128.61241 42.151404,124.01655 24.124747,111.13133 18.148845,87.293462 28.005276,67.587582 c 4.380667,-8.75822 11.269226,-15.627911 20.05521,-20.000261 5.731323,-2.8522 10.480509,-4.172887 16.699571,-4.643943 1.978254,-0.149841 13.250461,-1.056538 25.049346,-2.014882 23.167117,-1.881709 23.223157,-1.883277 27.580887,-0.771938 9.12159,2.326256 17.4438,9.188763 22.88535,18.871304 0.74906,1.332845 2.00439,2.79342 1.64622,3.380744 l -16.65798,3.319986 c -8.97281,1.86917 -17.31038,3.713154 -17.69897,3.790874 0,0 -0.089,-0.230364 -0.93086,-1.902034 -2.08464,-4.13957 -4.83771,-7.77751 -8.646892,-11.42612 -2.407242,-2.305761 -6.156751,-5.257251 -7.175168,-5.648051 -0.530229,-0.20347 -4.818896,3.42506 -6.86746,5.810391 -5.788583,6.74013 -8.887494,14.30165 -9.830891,23.98788 -0.258589,2.65495 -0.217439,9.47873 0.0588,9.75498 0.0515,0.0515 4.010798,-1.05284 8.798374,-2.45416 l 8.704694,-2.54785 h 25.932033 25.93202 l -0.16339,0.57807 c -2.62012,9.26977 -6.74299,16.586738 -12.70844,22.554008 -2.94872,2.94963 -6.20495,5.38628 -9.25658,6.92674 -1.53992,0.77735 -34.842118,13.37016 -39.180785,14.81573 -5.712433,1.90327 -12.884862,2.80537 -17.727237,2.22961 z m 12.331993,-2.13526 c 1.413036,-0.30441 3.609669,-0.89505 4.881406,-1.31253 3.34296,-1.09742 9.146582,-4.06754 11.780985,-6.02916 l 2.275073,-1.69406 -1.988664,-1.13329 c -5.704883,-3.25107 -11.446216,-8.72812 -15.476244,-14.76384 -1.292237,-1.93535 -3.913269,-6.910568 -3.913269,-7.428108 0,-0.19172 -2.976681,-0.27588 -9.757931,-0.27588 h -9.757931 l -0.164199,-0.65426 c -0.0903,-0.35984 -0.11686,-0.70161 -0.059,-0.75948 0.0579,-0.0579 4.147087,-1.28862 9.087153,-2.735 l 8.981943,-2.62977 -0.0869,-4.63941 c -0.0481,-2.56771 0.0468,-5.72929 0.21259,-7.08012 1.368166,-11.14947 6.076312,-20.37255 13.869979,-27.170741 1.204536,-1.05069 2.222273,-1.99583 2.261633,-2.10033 0.10954,-0.29079 -4.703666,-2.47836 -7.370578,-3.34987 -4.188468,-1.36873 -6.95072,-1.83049 -11.886535,-1.98705 -5.190705,-0.16465 -8.129356,0.12014 -12.436753,1.20527 -15.158845,3.81886 -27.291799,15.828621 -31.164338,30.847901 -1.093427,4.24078 -1.402676,6.77327 -1.394346,11.41846 0.0208,11.59783 4.369017,22.115608 12.539143,30.330618 6.377831,6.41288 14.302328,10.54159 23.381051,12.18167 3.936418,0.71112 12.347413,0.58587 16.185732,-0.24102 z m 30.296049,-10.77621 c 7.88185,-2.95596 13.69259,-5.28359 14.8376,-5.94356 6.82636,-3.93466 12.23669,-9.89162 16.20654,-17.843978 1.54661,-3.09817 3.34721,-7.69214 3.22393,-8.22544 -0.099,-0.42833 -29.22815,9.601 -29.51476,10.16211 -0.10552,0.20657 -0.61697,1.76294 -1.13656,3.458608 -2.57362,8.39887 -7.86148,16.09898 -14.892535,21.68633 -1.082947,0.86057 -1.903905,1.56468 -1.824365,1.56468 0.0795,0 5.97461,-2.18644 13.10015,-4.85875 z m -8.022695,-1.49995 c 5.307565,-5.36691 8.871255,-11.70252 11.127455,-19.782648 l 0.16141,-0.57806 H 93.034723 75.672104 l 0.400069,0.96344 c 0.859508,2.069898 3.096281,5.796918 4.998625,8.328968 2.236644,2.97699 6.96272,7.69168 9.588552,9.56544 1.686975,1.20381 5.823213,3.75032 6.092162,3.7507 0.0736,1e-4 1.134237,-1.01143 2.356973,-2.24784 z M 124.39367,91.370662 c 7.19056,-2.4829 13.18357,-4.62174 13.31781,-4.75297 0.15026,-0.1469 -8.56755,-0.2386 -22.68289,-0.2386 H 92.101626 l -15.854573,4.64614 c -8.720014,2.55539 -15.902753,4.69422 -15.961623,4.75297 -0.0589,0.0588 11.399796,0.10683 25.463725,0.10683 h 25.570775 z m 0.0995,-26.86219 c 8.40758,-1.73097 15.33238,-3.1809 15.38842,-3.22209 0.20645,-0.15171 -2.39772,-4.3946 -4.08622,-6.65756 -4.25901,-5.707971 -9.65927,-9.933751 -15.49666,-12.126374 -2.54995,-0.957802 -6.69525,-1.853281 -8.59624,-1.856984 -1.44201,-0.0028 -32.669835,2.512508 -33.968092,2.736038 -0.836057,0.14395 -0.742847,0.196877 1.327266,0.753639 12.230834,3.28951 22.261826,11.061561 28.256366,21.893131 0.76532,1.38286 1.11738,1.567165 1.341,1.810704 0.23439,-0.0674 7.42656,-1.599544 15.83416,-3.330504 z"
       style="fill:#333333;fill-opacity:1;stroke:#333333;stroke-width:0.4569993;stroke-miterlimit:4;stroke-dasharray:none;stroke-opacity:1"
       sodipodi:nodetypes="cssssssscccccccccscccccccccscscscsscccccccccssscsssscccccscscsccccccccsscscccscscccccssccc" />
  </g>
</svg>
