<?xml version="1.0" encoding="UTF-8" standalone="no"?>
<!-- Created with Inkscape (http://www.inkscape.org/) -->

<svg
   xmlns:dc="http://purl.org/dc/elements/1.1/"
   xmlns:cc="http://creativecommons.org/ns#"
   xmlns:rdf="http://www.w3.org/1999/02/22-rdf-syntax-ns#"
   xmlns:svg="http://www.w3.org/2000/svg"
   xmlns="http://www.w3.org/2000/svg"
   xmlns:sodipodi="http://sodipodi.sourceforge.net/DTD/sodipodi-0.dtd"
   xmlns:inkscape="http://www.inkscape.org/namespaces/inkscape"
   version="1.1"
   id="svg2"
   xml:space="preserve"
   width="566.92932"
   height="226.772"
   viewBox="0 0 566.92932 226.772"
   sodipodi:docname="KEDROS_logo_biela.svg"
   inkscape:version="0.92.4 (5da689c313, 2019-01-14)"><metadata
     id="metadata8"><rdf:RDF><cc:Work
         rdf:about=""><dc:format>image/svg+xml</dc:format><dc:type
           rdf:resource="http://purl.org/dc/dcmitype/StillImage" /><dc:title></dc:title></cc:Work></rdf:RDF></metadata><defs
     id="defs6"><clipPath
       clipPathUnits="userSpaceOnUse"
       id="clipPath20"><path
         d="M 0,170.079 H 425.197 V 0 H 0 Z"
         id="path18"
         inkscape:connector-curvature="0" /></clipPath></defs><sodipodi:namedview
     pagecolor="#ffffff"
     bordercolor="#666666"
     borderopacity="1"
     objecttolerance="10"
     gridtolerance="10"
     guidetolerance="10"
     inkscape:pageopacity="0"
     inkscape:pageshadow="2"
     inkscape:window-width="1920"
     inkscape:window-height="1017"
     id="namedview4"
     showgrid="false"
     inkscape:zoom="0.73554142"
     inkscape:cx="57.100795"
     inkscape:cy="113.386"
     inkscape:window-x="-8"
     inkscape:window-y="-8"
     inkscape:window-maximized="1"
     inkscape:current-layer="g10" /><g
     id="g10"
     inkscape:groupmode="layer"
     inkscape:label="KEDROS_logo_biela"
     transform="matrix(1.3333333,0,0,-1.3333333,0,226.772)"><path
       d="M 0,0.001 H 425.197 V 170.079 H 0 Z"
       style="fill:#ffffff;fill-opacity:1;fill-rule:nonzero;stroke:none"
       id="path12"
       inkscape:connector-curvature="0" /><g
       id="g14"><g
         id="g16"
         clip-path="url(#clipPath20)"><g
           id="g22"
           transform="translate(184.9219,93.4668)"><path
             d="m 0,0 c 0,1.171 1.365,1.952 3.903,2.341 1.562,0.391 4.684,0.587 9.759,0.587 8.196,0 12.295,-0.976 12.295,-2.734 V -2.733 H 0 Z m 28.495,7.612 c -0.391,0.196 -0.781,0.389 -1.171,0.584 -2.147,0.782 -4.49,1.172 -7.418,1.172 H 8.196 C 3.903,9.368 0.781,8.782 -1.756,7.612 -5.66,5.854 -7.611,3.317 -7.611,-0.391 V -10.93 c 0,-2.731 1.17,-5.075 3.707,-6.831 1.758,-1.367 4.294,-2.342 8.003,-2.732 0.585,0 1.561,0 3.122,-0.195 h 22.835 c 2.147,0.195 3.123,1.171 3.123,2.927 0,2.537 -0.976,3.709 -3.123,3.513 l -22.64,0.392 c -1.365,0 -2.146,0.195 -2.928,0.195 -2.732,0.779 -4.098,2.145 -4.293,4.293 h 30.836 c 1.562,0 2.343,1.171 2.343,3.317 V 0.78 c 0,3.123 -1.757,5.465 -4.879,6.832"
             style="fill:#050301;fill-opacity:1;fill-rule:nonzero;stroke:none"
             id="path24"
             inkscape:connector-curvature="0" /></g><g
           id="g26"
           transform="translate(231.3711,79.8057)"><path
             d="m 0,0 c -1.365,0.389 -1.951,1.365 -1.951,2.927 v 10.148 c 0,2.148 2.538,3.122 7.807,3.122 H 24.202 V 2.731 c 0,-2.147 -2.929,-3.122 -9.173,-3.318 H 6.052 C 3.318,-0.391 1.173,-0.391 0,0 M 24.202,22.834 H 6.052 C -4.099,22.834 -9.172,19.711 -9.563,13.271 -9.758,11.318 -9.758,8.587 -9.758,5.464 V 1.756 c 0.391,-5.856 5.659,-8.783 15.81,-8.783 h 9.758 c 3.708,0 7.026,0.586 9.954,1.951 4.098,1.562 6.05,4.099 6.05,7.417 v 25.372 c 0,1.367 -0.586,2.343 -1.757,2.732 -0.781,0.196 -1.756,0.391 -2.928,0.196 -1.952,0.195 -2.927,-0.977 -2.927,-2.928 z"
             style="fill:#050301;fill-opacity:1;fill-rule:nonzero;stroke:none"
             id="path28"
             inkscape:connector-curvature="0" /></g><g
           id="g30"
           transform="translate(137.3008,110.251)"><path
             d="m 0,0 c -1.172,-0.194 -1.952,-1.17 -1.952,-2.732 v -31.813 c 0,-1.367 0.585,-2.146 1.757,-2.732 0.388,0 1.365,-0.196 3.123,-0.196 2.145,0.196 3.121,1.172 3.121,2.928 v 12.1 l 26.934,-14.637 c 0.39,-0.195 1.756,-0.391 3.708,-0.391 2.342,0.196 3.319,0.977 3.319,2.928 0,0.977 -0.586,1.951 -1.563,2.537 L 11.71,-18.15 37.472,-5.074 c 1.171,0.586 1.757,1.366 1.757,2.537 -0.196,1.951 -1.171,2.732 -3.318,2.732 -1.952,0.196 -3.318,0 -3.903,-0.195 L 6.049,-14.443 v 11.711 c 0,1.951 -0.976,2.927 -3.121,2.927 C 1.365,0.391 0.389,0.195 0,0"
             style="fill:#050301;fill-opacity:1;fill-rule:nonzero;stroke:none"
             id="path32"
             inkscape:connector-curvature="0" /></g><g
           id="g34"
           transform="translate(367.9912,99.126)"><path
             d="M 0,0 C 0,2.537 -0.976,3.709 -3.123,3.709 L -25.177,3.514 c -1.952,-0.196 -3.512,-0.196 -4.683,-0.586 -4.879,-0.975 -7.418,-3.319 -7.418,-7.221 v -1.561 c 0,-5.66 5.075,-8.587 14.834,-8.587 h 10.343 c 3.319,0 4.88,-0.586 4.88,-1.953 v -1.17 c 0,-1.563 -1.757,-2.343 -5.27,-2.343 h -21.664 c -1.951,0.196 -2.928,-0.976 -2.732,-3.513 -0.196,-1.756 0.781,-2.732 2.732,-2.928 h 21.468 c 8.784,0 13.273,2.928 13.273,8.784 v 1.365 c 0,5.661 -4.099,8.392 -12.492,8.392 h -10.538 c -4.685,0 -7.221,0.782 -7.221,1.953 v 1.561 c 0,0.586 0.976,1.17 2.731,1.366 h 4.099 19.712 C -0.976,-2.927 0,-1.951 0,0"
             style="fill:#050301;fill-opacity:1;fill-rule:nonzero;stroke:none"
             id="path36"
             inkscape:connector-curvature="0" /></g><g
           id="g38"
           transform="translate(286.6055,99.126)"><path
             d="m 0,0 c 0,2.537 -0.976,3.709 -2.928,3.709 -4.879,0 -8.588,-0.586 -11.125,-1.561 -3.903,-1.171 -5.854,-3.904 -5.854,-8.002 V -23.42 c 0,-1.756 0.975,-2.732 2.927,-2.928 1.367,0 2.342,0.196 2.927,0.196 1.171,0.586 1.757,1.365 1.757,2.732 v 17.566 c 0,2.147 2.147,3.123 6.635,3.123 0.195,0 0.587,0 0.976,-0.196 h 1.367 C -1.171,-2.927 0,-1.951 0,0"
             style="fill:#050301;fill-opacity:1;fill-rule:nonzero;stroke:none"
             id="path40"
             inkscape:connector-curvature="0" /></g><g
           id="g42"
           transform="translate(294.8018,82.3418)"><path
             d="m 0,0 v 10.734 c 0,0.976 0.78,1.953 2.147,2.343 1.952,0.584 3.904,0.78 5.661,0.78 h 10.148 c 4.88,0 7.222,-0.975 7.222,-2.732 V 0 c 0,-0.976 -0.782,-1.757 -2.537,-2.343 -1.368,-0.388 -2.928,-0.584 -4.685,-0.78 H 7.808 C 6.051,-2.927 4.294,-2.731 2.928,-2.343 0.977,-1.757 0,-0.976 0,0 m -7.611,0 c 0,-3.513 1.952,-6.05 5.66,-7.808 2.928,-1.17 6.05,-1.755 9.759,-1.755 h 10.538 c 3.71,0 7.026,0.585 9.564,1.951 3.318,1.562 5.073,4.099 5.073,7.612 v 10.734 c 0,6.441 -4.879,9.759 -14.637,9.759 H 7.808 c -4.099,0 -7.416,-0.781 -9.954,-2.146 -3.708,-1.563 -5.465,-4.294 -5.465,-7.613 z"
             style="fill:#050301;fill-opacity:1;fill-rule:nonzero;stroke:none"
             id="path44"
             inkscape:connector-curvature="0" /></g><g
           id="g46"
           transform="translate(368.2412,55.8105)"><path
             d="m 0,0 c 0.292,0 0.39,0.294 0.39,0.587 v 7.33 c 0,0.391 -0.098,0.586 -0.39,0.586 -0.095,0.099 -0.29,0.099 -0.681,0.099 -0.387,0 -0.583,-0.196 -0.583,-0.685 v -7.33 c 0,-0.391 0.196,-0.685 0.583,-0.685 0.391,0 0.586,0 0.681,0.098"
             style="fill:#a7a5a6;fill-opacity:1;fill-rule:nonzero;stroke:none"
             id="path48"
             inkscape:connector-curvature="0" /></g><g
           id="g50"
           transform="translate(362.9863,64.4121)"><path
             d="m 0,0 c -0.389,0 -0.583,-0.195 -0.583,-0.685 v -7.33 c 0,-0.39 0.194,-0.684 0.583,-0.684 0.391,0 0.586,0 0.681,0.097 0.292,0 0.389,0.294 0.389,0.587 v 7.33 c 0,0.391 -0.097,0.586 -0.389,0.586 C 0.586,0 0.391,0 0,0"
             style="fill:#a7a5a6;fill-opacity:1;fill-rule:nonzero;stroke:none"
             id="path52"
             inkscape:connector-curvature="0" /></g><g
           id="g54"
           transform="translate(351.21,61.9688)"><path
             d="M 0,0 C 0,0.39 0.195,0.684 0.68,0.782 0.974,0.879 1.462,0.978 2.045,0.978 H 4.379 C 5.743,0.978 6.424,0.684 6.424,0 V -3.812 C 6.424,-4.204 6.131,-4.497 5.646,-4.594 5.45,-4.692 5.063,-4.692 4.379,-4.692 H 2.045 C 0.68,-4.692 0,-4.398 0,-3.812 Z M 4.379,2.443 H 2.045 C -0.483,2.443 -1.752,1.661 -1.752,0 V -1.466 -3.03 -4.104 c 0.099,-1.37 1.365,-2.152 3.797,-2.152 h 2.334 c 2.532,0 3.797,0.782 3.797,2.444 V 0 c 0,1.661 -1.265,2.443 -3.797,2.443"
             style="fill:#a7a5a6;fill-opacity:1;fill-rule:nonzero;stroke:none"
             id="path56"
             inkscape:connector-curvature="0" /></g><g
           id="g58"
           transform="translate(312.0869,62.9463)"><path
             d="M 0,0 C 1.363,0 2.044,-0.294 2.044,-0.978 V -4.789 C 2.044,-5.182 1.849,-5.475 1.267,-5.571 1.169,-5.67 0.68,-5.67 0,-5.67 h -2.239 c -1.46,0 -2.14,0.294 -2.14,0.881 v 3.811 c 0,0.39 0.29,0.684 0.777,0.783 C -3.308,-0.099 -2.921,0 -2.239,0 Z m -6.032,-0.978 c 0,-0.293 0,-0.782 -0.098,-1.465 v -1.565 -1.074 c 0.098,-1.369 1.359,-2.151 3.891,-2.151 H 0 c 2.529,0 3.795,0.782 3.795,2.444 v 3.811 C 3.795,0.684 2.529,1.466 0,1.466 h -2.239 c -2.532,0 -3.793,-0.782 -3.793,-2.444"
             style="fill:#a7a5a6;fill-opacity:1;fill-rule:nonzero;stroke:none"
             id="path60"
             inkscape:connector-curvature="0" /></g><g
           id="g62"
           transform="translate(302.0625,64.4121)"><path
             d="m 0,0 c -0.485,0 -0.681,-0.195 -0.681,-0.685 v -7.33 c 0,-0.39 0.196,-0.684 0.681,-0.684 0.293,0 0.583,0 0.68,0.097 0.195,0 0.39,0.294 0.39,0.587 v 7.33 c 0,0.391 -0.195,0.586 -0.39,0.586 C 0.583,0 0.293,0 0,0"
             style="fill:#a7a5a6;fill-opacity:1;fill-rule:nonzero;stroke:none"
             id="path64"
             inkscape:connector-curvature="0" /></g><g
           id="g66"
           transform="translate(294.5674,62.9463)"><path
             d="M 0,0 C 1.364,0 2.045,-0.294 2.045,-0.978 V -4.789 C 2.045,-5.182 1.849,-5.475 1.267,-5.571 1.17,-5.67 0.681,-5.67 0,-5.67 h -2.235 c -1.463,0 -2.144,0.294 -2.144,0.881 v 3.811 c 0,0.39 0.294,0.684 0.778,0.783 C -3.309,-0.099 -2.92,0 -2.235,0 Z m -6.033,-0.978 c 0,-0.293 0,-0.782 -0.097,-1.465 v -1.565 -1.074 c 0.097,-1.369 1.36,-2.151 3.895,-2.151 H 0 c 2.529,0 3.796,0.782 3.796,2.444 v 3.811 C 3.796,0.684 2.529,1.466 0,1.466 h -2.235 c -2.535,0 -3.798,-0.782 -3.798,-2.444"
             style="fill:#a7a5a6;fill-opacity:1;fill-rule:nonzero;stroke:none"
             id="path68"
             inkscape:connector-curvature="0" /></g><g
           id="g70"
           transform="translate(284.4453,64.4121)"><path
             d="m 0,0 c -0.387,0 -0.582,-0.195 -0.582,-0.685 v -7.33 c 0,-0.39 0.195,-0.684 0.582,-0.684 0.392,0 0.684,0 0.777,0.097 0.197,0 0.392,0.294 0.392,0.587 v 7.33 c 0,0.391 -0.195,0.586 -0.392,0.586 C 0.684,0 0.392,0 0,0"
             style="fill:#a7a5a6;fill-opacity:1;fill-rule:nonzero;stroke:none"
             id="path72"
             inkscape:connector-curvature="0" /></g><g
           id="g74"
           transform="translate(272.6699,61.9688)"><path
             d="M 0,0 C 0,0.39 0.293,0.684 0.778,0.782 1.07,0.879 1.463,0.978 2.044,0.978 H 4.379 C 5.742,0.978 6.423,0.684 6.423,0 V -3.812 C 6.423,-4.204 6.228,-4.497 5.645,-4.594 5.449,-4.692 5.063,-4.692 4.379,-4.692 H 2.044 C 0.683,-4.692 0,-4.398 0,-3.812 Z M 4.379,2.443 H 2.044 c -2.432,0 -3.698,-0.782 -3.698,-2.443 0,-0.294 0,-0.782 -0.097,-1.466 V -3.03 -4.104 c 0.097,-1.37 1.363,-2.152 3.795,-2.152 h 2.335 c 2.533,0 3.795,0.782 3.795,2.444 V 0 c 0,1.661 -1.262,2.443 -3.795,2.443"
             style="fill:#a7a5a6;fill-opacity:1;fill-rule:nonzero;stroke:none"
             id="path76"
             inkscape:connector-curvature="0" /></g><g
           id="g78"
           transform="translate(342.5498,62.9463)"><path
             d="M 0,0 C 1.361,0 2.04,-0.294 2.04,-0.978 V -4.789 C 2.04,-5.182 1.85,-5.475 1.264,-5.571 1.165,-5.67 0.681,-5.67 0,-5.67 h -2.239 c -1.458,0 -2.143,0.294 -2.143,0.881 v 3.811 c 0,0.39 0.292,0.684 0.781,0.783 C -3.312,-0.099 -2.92,0 -2.239,0 Z m 0,1.466 h -2.239 c -2.531,0 -3.797,-0.782 -3.797,-2.444 0,-0.293 0,-0.782 -0.098,-1.465 v -1.565 -1.074 c 0.098,-1.369 1.364,-2.151 3.895,-2.151 H 0 c 2.529,0 3.794,0.782 3.794,2.444 v 3.811 C 3.794,0.684 2.529,1.466 0,1.466"
             style="fill:#a7a5a6;fill-opacity:1;fill-rule:nonzero;stroke:none"
             id="path80"
             inkscape:connector-curvature="0" /></g><g
           id="g82"
           transform="translate(332.5254,64.4121)"><path
             d="m 0,0 c -0.487,0 -0.684,-0.195 -0.684,-0.685 v -7.33 c 0,-0.39 0.197,-0.684 0.684,-0.684 0.29,0 0.583,0 0.681,0.097 0.195,0 0.387,0.294 0.387,0.587 v 7.33 c 0,0.391 -0.192,0.586 -0.387,0.586 C 0.583,0 0.29,0 0,0"
             style="fill:#a7a5a6;fill-opacity:1;fill-rule:nonzero;stroke:none"
             id="path84"
             inkscape:connector-curvature="0" /></g><g
           id="g86"
           transform="translate(327.0752,61.9688)"><path
             d="m 0,0 v -3.812 c 0,-0.392 -0.194,-0.685 -0.781,-0.782 -0.094,-0.098 -0.583,-0.098 -1.263,-0.098 h -2.24 c -1.458,0 -2.138,0.294 -2.138,0.88 V 0 c 0,0.39 0.288,0.684 0.777,0.782 0.29,0.097 0.68,0.196 1.361,0.196 h 2.24 C -0.684,0.978 0,0.684 0,0 M 1.753,-3.812 V 0 c 0,1.661 -1.268,2.443 -3.797,2.443 h -2.24 C -6.814,2.443 -8.08,1.661 -8.08,0 c 0,-0.294 0,-0.782 -0.094,-1.466 V -3.03 -4.104 c 0.094,-1.37 1.36,-2.152 3.89,-2.152 h 2.24 c 2.529,0 3.797,0.782 3.797,2.444"
             style="fill:#a7a5a6;fill-opacity:1;fill-rule:nonzero;stroke:none"
             id="path88"
             inkscape:connector-curvature="0" /></g><g
           id="g90"
           transform="translate(259.7256,61.9688)"><path
             d="m 0,0 c 0,0.39 0.194,0.684 0.684,0.782 0.29,0.097 0.679,0.196 1.36,0.196 h 2.24 C 5.742,0.978 6.423,0.684 6.423,0 V -3.812 C 6.423,-4.204 6.134,-4.497 5.645,-4.594 5.45,-4.692 5.063,-4.692 4.284,-4.692 H 2.044 C 0.684,-4.692 0,-4.398 0,-3.812 Z M 4.284,2.443 H 2.044 C -0.485,2.443 -1.752,1.661 -1.752,0 V -1.466 -3.03 -4.104 c 0.098,-1.37 1.364,-2.152 3.796,-2.152 h 2.24 c 2.628,0 3.891,0.782 3.891,2.444 V 0 c 0,1.661 -1.263,2.443 -3.891,2.443"
             style="fill:#a7a5a6;fill-opacity:1;fill-rule:nonzero;stroke:none"
             id="path92"
             inkscape:connector-curvature="0" /></g><g
           id="g94"
           transform="translate(227.3174,64.4121)"><path
             d="m 0,0 c -0.39,0 -0.582,-0.195 -0.582,-0.685 v -7.33 c 0,-0.39 0.192,-0.684 0.582,-0.684 0.392,0 0.583,0 0.681,0.097 0.293,0 0.39,0.294 0.39,0.587 v 7.33 c 0,0.391 -0.097,0.586 -0.39,0.586 C 0.583,0 0.392,0 0,0"
             style="fill:#a7a5a6;fill-opacity:1;fill-rule:nonzero;stroke:none"
             id="path96"
             inkscape:connector-curvature="0" /></g><g
           id="g98"
           transform="translate(222.7441,64.4121)"><path
             d="m 0,0 c -0.392,0 -0.583,-0.195 -0.583,-0.685 v -7.33 c 0,-0.39 0.191,-0.684 0.583,-0.684 0.39,0 0.582,0 0.68,0.097 0.294,0 0.39,0.294 0.39,0.587 v 7.33 c 0,0.391 -0.096,0.586 -0.39,0.586 C 0.582,0 0.39,0 0,0"
             style="fill:#a7a5a6;fill-opacity:1;fill-rule:nonzero;stroke:none"
             id="path100"
             inkscape:connector-curvature="0" /></g><g
           id="g102"
           transform="translate(215.3467,62.9463)"><path
             d="M 0,0 C 1.365,0 2.046,-0.294 2.046,-0.978 V -4.789 C 2.046,-5.182 1.751,-5.475 1.267,-5.571 1.071,-5.67 0.681,-5.67 0,-5.67 h -2.335 c -1.363,0 -2.044,0.294 -2.044,0.881 v 3.811 c 0,0.39 0.194,0.684 0.681,0.783 C -3.405,-0.099 -2.919,0 -2.335,0 Z m -6.13,-0.978 v -1.465 -1.565 -1.074 c 0,-1.369 1.362,-2.151 3.795,-2.151 H 0 c 2.529,0 3.797,0.782 3.797,2.444 v 3.811 C 3.797,0.684 2.529,1.466 0,1.466 h -2.335 c -2.531,0 -3.795,-0.782 -3.795,-2.444"
             style="fill:#a7a5a6;fill-opacity:1;fill-rule:nonzero;stroke:none"
             id="path104"
             inkscape:connector-curvature="0" /></g><g
           id="g106"
           transform="translate(202.4043,62.9463)"><path
             d="M 0,0 C 1.362,0 1.945,-0.294 1.945,-0.978 V -4.789 C 1.945,-5.182 1.75,-5.475 1.264,-5.571 1.068,-5.67 0.68,-5.67 0,-5.67 h -2.337 c -1.362,0 -2.044,0.294 -2.044,0.881 v 3.811 c 0,0.39 0.195,0.684 0.682,0.783 C -3.408,-0.099 -2.922,0 -2.337,0 Z m 0,1.466 h -2.337 c -2.531,0 -3.796,-0.782 -3.796,-2.444 v -1.465 -1.565 -1.074 c 0.098,-1.369 1.265,-2.151 3.796,-2.151 H 0 c 2.432,0 3.794,0.782 3.794,2.444 v 3.811 C 3.794,0.684 2.432,1.466 0,1.466"
             style="fill:#a7a5a6;fill-opacity:1;fill-rule:nonzero;stroke:none"
             id="path108"
             inkscape:connector-curvature="0" /></g><g
           id="g110"
           transform="translate(189.459,62.9463)"><path
             d="m 0,0 c 1.361,0 2.045,-0.294 2.045,-0.978 v -3.811 c 0,-0.393 -0.293,-0.686 -0.78,-0.782 C 1.071,-5.67 0.683,-5.67 0,-5.67 h -2.336 c -1.362,0 -2.043,0.294 -2.043,0.881 v 3.811 c 0,0.39 0.193,0.684 0.681,0.783 C -3.406,-0.099 -2.92,0 -2.336,0 Z M 3.796,-0.978 C 3.796,0.684 2.531,1.466 0,1.466 h -2.336 c -2.529,0 -3.795,-0.782 -3.795,-2.444 v -1.465 -1.565 -1.074 c 0.096,-1.369 1.362,-2.151 3.795,-2.151 H 0 c 2.531,0 3.796,0.782 3.796,2.444 z"
             style="fill:#a7a5a6;fill-opacity:1;fill-rule:nonzero;stroke:none"
             id="path112"
             inkscape:connector-curvature="0" /></g><g
           id="g114"
           transform="translate(253.9854,64.4121)"><path
             d="m 0,0 c -0.391,0 -0.586,-0.195 -0.586,-0.685 v -7.33 c 0,-0.39 0.195,-0.684 0.586,-0.684 0.388,0 0.582,0 0.681,0.097 0.293,0 0.389,0.294 0.389,0.587 v 7.33 c 0,0.391 -0.096,0.586 -0.389,0.586 C 0.582,0 0.388,0 0,0"
             style="fill:#a7a5a6;fill-opacity:1;fill-rule:nonzero;stroke:none"
             id="path116"
             inkscape:connector-curvature="0" /></g><g
           id="g118"
           transform="translate(249.4111,64.4121)"><path
             d="m 0,0 c -0.391,0 -0.586,-0.195 -0.586,-0.685 v -7.33 c 0,-0.39 0.195,-0.684 0.586,-0.684 0.387,0 0.583,0 0.681,0.097 0.293,0 0.39,0.294 0.39,0.587 v 7.33 c 0,0.391 -0.097,0.586 -0.39,0.586 C 0.583,0 0.387,0 0,0"
             style="fill:#a7a5a6;fill-opacity:1;fill-rule:nonzero;stroke:none"
             id="path120"
             inkscape:connector-curvature="0" /></g><g
           id="g122"
           transform="translate(242.0146,62.9463)"><path
             d="m 0,0 c 1.36,0 2.045,-0.294 2.045,-0.978 v -3.811 c 0,-0.393 -0.294,-0.686 -0.78,-0.782 C 1.07,-5.67 0.681,-5.67 0,-5.67 h -2.339 c -1.359,0 -2.04,0.294 -2.04,0.881 v 3.811 c 0,0.39 0.192,0.684 0.681,0.783 C -3.405,-0.099 -2.921,0 -2.339,0 Z m 0,1.466 h -2.339 c -2.529,0 -3.792,-0.782 -3.792,-2.444 v -1.465 -1.565 -1.074 c 0.097,-1.369 1.36,-2.151 3.792,-2.151 H 0 c 2.528,0 3.796,0.782 3.796,2.444 v 3.811 C 3.796,0.684 2.528,1.466 0,1.466"
             style="fill:#a7a5a6;fill-opacity:1;fill-rule:nonzero;stroke:none"
             id="path124"
             inkscape:connector-curvature="0" /></g><g
           id="g126"
           transform="translate(232.9639,63.7275)"><path
             d="m 0,0 c 0,0.391 -0.098,0.586 -0.392,0.586 -0.097,0.099 -0.289,0.099 -0.68,0.099 -0.39,0 -0.581,-0.196 -0.581,-0.685 v -7.33 c 0,-0.391 0.191,-0.685 0.581,-0.685 0.391,0 0.583,0 0.68,0.098 0.294,0 0.392,0.294 0.392,0.587 z"
             style="fill:#a7a5a6;fill-opacity:1;fill-rule:nonzero;stroke:none"
             id="path128"
             inkscape:connector-curvature="0" /></g><g
           id="g130"
           transform="translate(180.0195,64.3135)"><path
             d="m 0,0 c -0.098,0.099 -0.293,0.099 -0.683,0.099 -0.388,0 -0.583,-0.196 -0.583,-0.685 v -7.33 c 0,-0.391 0.195,-0.685 0.583,-0.685 0.39,0 0.585,0 0.683,0.098 0.291,0 0.389,0.294 0.389,0.587 v 7.33 C 0.389,-0.195 0.291,0 0,0"
             style="fill:#a7a5a6;fill-opacity:1;fill-rule:nonzero;stroke:none"
             id="path132"
             inkscape:connector-curvature="0" /></g><g
           id="g134"
           transform="translate(169.6055,62.9463)"><path
             d="M 0,0 H 2.238 C 3.602,0 4.281,-0.294 4.281,-0.978 V -4.789 C 4.281,-5.182 4.088,-5.475 3.504,-5.571 3.406,-5.67 2.919,-5.67 2.238,-5.67 H 0 c -1.46,0 -2.143,0.294 -2.143,0.881 v 3.811 c 0,0.39 0.295,0.684 0.782,0.783 C -1.169,-0.099 -0.683,0 0,0 M 2.238,1.466 H 0 c -2.629,0 -3.795,-0.782 -3.795,-2.444 0,-0.293 0,-0.782 -0.099,-1.465 V -4.008 -5.082 C -3.795,-6.451 -2.531,-7.233 0,-7.233 h 2.238 c 2.531,0 3.795,0.782 3.795,2.444 v 3.811 c 0,1.662 -1.264,2.444 -3.795,2.444"
             style="fill:#a7a5a6;fill-opacity:1;fill-rule:nonzero;stroke:none"
             id="path136"
             inkscape:connector-curvature="0" /></g><g
           id="g138"
           transform="translate(154.5205,61.9688)"><path
             d="m 0,0 c 0,0.39 0.291,0.684 0.778,0.782 0.291,0.097 0.68,0.196 1.363,0.196 H 4.378 C 5.741,0.978 6.425,0.684 6.425,0 V -3.812 C 6.425,-4.204 6.228,-4.497 5.644,-4.594 5.548,-4.692 5.062,-4.692 4.378,-4.692 H 2.141 C 0.681,-4.692 0,-4.398 0,-3.812 Z m -1.656,0 c 0,-0.294 0,-0.782 -0.095,-1.466 V -3.03 -4.104 c 0.095,-1.37 1.362,-2.152 3.892,-2.152 h 2.237 c 2.533,0 3.797,0.782 3.797,2.444 V 0 c 0,1.661 -1.264,2.443 -3.797,2.443 H 2.141 C -0.389,2.443 -1.656,1.661 -1.656,0"
             style="fill:#a7a5a6;fill-opacity:1;fill-rule:nonzero;stroke:none"
             id="path140"
             inkscape:connector-curvature="0" /></g><g
           id="g142"
           transform="translate(141.5762,61.9688)"><path
             d="M 0,0 C 0,0.39 0.291,0.684 0.777,0.782 1.07,0.879 1.46,0.978 2.141,0.978 H 4.379 C 5.743,0.978 6.423,0.684 6.423,0 V -3.812 C 6.423,-4.204 6.229,-4.497 5.645,-4.594 5.548,-4.692 5.061,-4.692 4.379,-4.692 H 2.141 C 0.682,-4.692 0,-4.398 0,-3.812 Z M 4.379,2.443 H 2.141 C -0.39,2.443 -1.654,1.661 -1.654,0 c 0,-0.294 0,-0.782 -0.098,-1.466 V -3.03 -4.104 c 0.098,-1.37 1.362,-2.152 3.893,-2.152 h 2.238 c 2.531,0 3.797,0.782 3.797,2.444 V 0 c 0,1.661 -1.266,2.443 -3.797,2.443"
             style="fill:#a7a5a6;fill-opacity:1;fill-rule:nonzero;stroke:none"
             id="path144"
             inkscape:connector-curvature="0" /></g><g
           id="g146"
           transform="translate(135.9316,64.4121)"><path
             d="m 0,0 c -0.486,0 -0.682,-0.195 -0.682,-0.685 v -7.33 c 0,-0.39 0.196,-0.684 0.682,-0.684 0.291,0 0.583,0 0.682,0.097 0.194,0 0.388,0.294 0.388,0.587 v 7.33 c 0,0.391 -0.194,0.586 -0.388,0.586 C 0.583,0 0.291,0 0,0"
             style="fill:#a7a5a6;fill-opacity:1;fill-rule:nonzero;stroke:none"
             id="path148"
             inkscape:connector-curvature="0" /></g><g
           id="g150"
           transform="translate(47.6177,83.1807)"><path
             d="m 0,0 c -0.266,-0.449 0.072,-1.117 0.292,-1.351 0.972,-0.555 2.116,-0.933 3.265,-1.127 4.018,0 6.425,-0.399 7.433,-1.001 0.011,-0.023 0.029,-0.044 0.041,-0.066 0.904,-0.383 1.724,-0.94 2.704,-1.153 1.257,-0.271 2.575,-0.31 3.846,-0.512 1.33,-0.21 2.607,-0.272 3.948,-0.182 0.157,0.009 0.316,0.016 0.475,0.025 0.08,0.026 0.161,0.049 0.23,0.085 1.207,0.196 2.01,0.196 2.813,0 0.97,-0.097 1.533,-0.515 2.453,-0.73 0.196,-0.02 0.393,-0.035 0.589,-0.048 0.851,-0.061 1.703,-0.114 2.546,-0.256 0.006,-0.001 0.011,-0.009 0.017,-0.01 l 5.697,0.056 c 2.864,-0.289 5.873,0.434 11.86,-0.128 L 30.288,-7.879 c -0.044,-0.346 -0.198,-0.892 -0.293,-1.274 -0.214,-0.721 -0.548,-1.44 -0.727,-2.162 -0.336,-1.213 -0.756,-2.447 -1.229,-3.696 2.617,0.077 3.656,0.126 8.008,0.338 l -8.412,-1.387 c -1.797,-4.44 -4.421,-9.124 -7.807,-14.132 5.02,-1.607 10.438,-2.411 16.468,-2.209 1.861,5.038 3.229,9.397 4.169,13.121 l -11.12,-0.53 11.431,1.786 c 0.602,2.574 0.986,4.818 1.143,6.709 l 0.265,0.668 c 0.496,0.35 0.629,0.087 1.142,0.339 3.815,0.397 7.027,0.603 9.436,0.8 2.009,0 3.214,0 3.613,0.205 0.808,0 1.41,0.4 2.012,0.402 2.006,0.401 4.017,1.003 5.825,1.61 0.605,0 1.205,0 1.604,0.196 2.009,0.403 3.723,0.997 4.326,1.398 0.033,0 0.048,0.083 0.058,0.194 0.292,0.347 0.47,0.708 0.64,1.222 1.202,0.399 1.807,0.802 1.807,1.205 0.2,1.002 0.2,1.804 -0.402,2.209 -0.203,0.196 -0.804,0.401 -1.004,0.602 -0.401,0.803 -2.008,1.206 -4.418,1.206 -0.202,0.4 -0.402,0.6 -0.402,0.6 -0.203,0.402 -0.605,0.402 -1.205,0.603 h -1.005 c 0,0 -0.198,0.203 -0.397,0.203 -1.611,0.603 -5.427,0.804 -11.856,0.402 -1.806,-0.202 -3.814,-0.202 -5.42,0 -1.839,0.168 -3.522,0.194 -4.964,0.2 -0.424,-0.06 -0.901,-0.145 -1.199,-0.092 -0.065,0.011 0.133,0.137 0.192,0.167 0.053,0.027 0.099,0.045 0.148,0.07 v 0.057 c 0.804,0.6 5.019,1.001 12.652,1.001 0.602,0.202 1.404,0.202 2.412,0.403 1.2,0.402 1.804,0.603 2.408,0.803 0.578,0.191 0.973,0.383 1.537,0.399 0.024,0.007 0.052,0.009 0.077,0.014 l 0.197,0.19 c 2.81,0.398 4.819,0.804 6.024,1.603 0.802,0.606 1.405,1.408 1.605,2.212 0.199,0.8 -0.404,1.603 -1.81,2.006 -1.605,0.603 -3.612,0.803 -6.025,0.803 -1.403,0 -2.607,0 -3.814,-0.199 h -3.817 -4.818 c -1.808,-0.2 -3.212,-0.4 -4.622,-0.603 -1.607,-0.028 -3.199,0.266 -4.418,0.403 -0.344,0.323 -1.5,0.682 -0.401,1.203 4.818,0.203 8.837,0.606 11.446,1.408 3.013,0.602 4.422,1.405 4.621,2.41 0,0.343 -0.165,0.69 -0.592,1.038 -0.083,0.017 -0.164,0.037 -0.225,0.076 -0.101,0.125 -0.216,0.174 -0.309,0.281 -0.34,-0.03 -0.671,-0.06 -1.032,-0.095 -4.621,-0.401 -8.434,-0.401 -11.451,-0.2 l 11.532,1.126 c -0.321,0.152 -0.622,0.339 -0.939,0.491 -0.076,0.027 -0.151,0.057 -0.227,0.074 -0.158,0.081 -0.243,0.142 -0.384,0.198 -0.011,0.017 -0.061,0.008 -0.074,0.024 -0.004,0.008 -0.005,0.016 -0.006,0.024 -1.25,0.384 -4.013,0.575 -7.945,0.575 -2.206,0 -4.216,-0.197 -5.822,-0.197 0.155,1.404 5.304,1.174 7.227,1.808 1.406,0.199 2.614,0.601 4.019,1.003 2.009,0.802 3.242,1.096 3.448,1.699 -0.751,1.25 -0.806,0.905 -1.053,1.219 -3.678,-0.082 -6.772,-0.644 -10.016,-0.719 -0.307,-0.002 0.724,0.412 1.02,0.495 l 7.805,0.967 c -0.283,0.333 -0.685,0.307 -1.096,0.707 -0.235,0.792 -2.334,1.152 -2.919,1.456 -0.17,0.056 -0.305,0.112 -0.429,0.164 -0.351,0.118 -0.959,0.119 -1.223,0.21 0.04,0.102 0.349,0.272 0.551,0.272 0.197,0.203 0.697,0.359 0.697,0.559 0.024,0.023 0.034,0.036 0.052,0.054 0,0.03 0.003,0.061 -0.001,0.091 -10e-4,0.011 -0.002,0.019 -0.003,0.03 -0.003,0.017 -0.007,0.034 -0.009,0.054 -0.01,0.045 -0.006,0.087 0.008,0.126 -0.015,0.492 -0.032,1.034 -0.445,1.255 -0.803,0.398 -3.212,0.024 -5.018,0.024 0.202,0 1.803,0.777 2.001,0.979 -0.198,0.403 -0.802,0.603 -1.202,0.805 -0.202,0.2 -0.602,0.401 -0.806,0.599 -0.802,0.605 -2.209,1.005 -4.416,1.005 -1.88,0 -3.402,-0.372 -4.741,-1.24 -0.018,-0.025 -0.051,-0.031 -0.078,-0.047 -0.112,-0.115 -0.146,-0.186 0.09,-0.407 0.6,-0.598 1.328,-0.917 3.323,-1.116 0.209,-0.04 0.411,-0.115 0.604,-0.203 0.454,-0.399 0.951,-0.612 0.889,-0.811 -0.591,-0.487 -1.227,-0.582 -1.906,-0.869 -0.614,0.133 -1.195,0.275 -1.798,0.076 -5.791,0.198 -8.799,-0.596 -9.03,-2.381 0,-0.004 0.004,-0.008 0.004,-0.012 -0.001,-0.114 -0.006,-0.228 0.004,-0.341 0.106,0 0.211,0.001 0.318,0.001 3.46,0.416 7.302,-0.087 10.55,0.116 L 22.471,27.148 c 0.492,-0.331 1.313,-0.5 2.575,-0.5 0,0 1.09,-0.142 1.607,-0.403 1.607,-0.602 3.014,-1.003 4.417,-1.406 0.332,-0.143 0.826,-0.284 0.883,-0.441 -0.105,-0.217 -0.682,-0.363 -0.682,-0.565 -0.8,0 -1.565,0.11 -2.972,-0.291 -1.404,0.401 -3.053,0.291 -5.062,0.291 h -3.614 -2.21 -1.204 -0.201 c -1.605,0 -3.016,-0.2 -4.017,-1.001 -0.16,-0.122 -0.407,-0.339 -0.407,-0.339 0,0 -0.096,-0.029 -0.033,-0.222 0.063,-0.192 1.746,-0.149 1.829,-0.153 L 23.691,21.52 11.003,21.103 c -0.107,-0.513 -0.899,-0.964 0.185,-1.687 0.603,-0.4 1.404,-0.803 2.608,-0.803 h 1.207 c 0.604,-0.603 1.205,-1.007 2.209,-1.206 1.607,-0.4 2.811,-0.602 3.616,-0.602 1.271,0.377 2.039,0.231 3.26,0.187 0.796,0 1.944,0.019 3.134,-0.77 0.431,-0.047 0.863,-0.09 1.29,-0.163 4.198,-0.485 3.886,-0.114 4.95,-0.724 l -4.739,-0.526 c -0.336,-0.073 -0.678,-0.133 -1.021,-0.126 -0.03,0 -0.05,0.022 -0.076,0.031 -0.016,0 -0.032,-0.006 -0.048,-0.003 -1.555,0.087 -5.867,0.649 -16.64,-1.169 C 10.094,13.259 9.342,13.074 9.178,12.585 8.376,12.186 7.973,11.584 7.973,11.181 7.773,10.378 8.176,9.574 9.783,9.171 11.188,8.773 13.767,8.575 15.981,8.368 18.792,7.767 21.823,7.365 26.645,7.365 26.695,7.341 26.742,7.332 26.771,7.302 26.852,7.283 26.859,7.243 26.927,7.222 26.991,7.203 27.033,7.148 27.066,7.125 27.203,7.074 27.331,7.021 27.45,6.962 h 0.005 V 6.96 C 28.947,6.228 28.978,4.949 27.25,5.661 26.9,5.711 26.552,5.763 26.251,5.763 24.243,6.561 22.232,6.962 20.022,6.962 h -6.024 c -1.002,0 -2.197,-10e-4 -2.999,-0.398 -0.134,-0.068 -0.288,-0.116 -0.473,-0.116 -0.052,0 -0.087,0.021 -0.135,0.027 C 10.344,6.469 10.309,6.448 10.257,6.448 10.069,6.448 9.915,6.497 9.781,6.567 7.238,6.715 4.695,5.925 2.15,4.555 1.554,4.316 0.771,2.854 0.602,2.461 L 33.273,0.695 C 32.383,0.262 6.794,0.145 0,0"
             style="fill:#cf181f;fill-opacity:1;fill-rule:nonzero;stroke:none"
             id="path152"
             inkscape:connector-curvature="0" /></g></g></g></g></svg>