<?xml version="1.0" encoding="UTF-8" standalone="no"?>
<!-- Created with Inkscape (http://www.inkscape.org/) -->

<svg
   xmlns:dc="http://purl.org/dc/elements/1.1/"
   xmlns:cc="http://creativecommons.org/ns#"
   xmlns:rdf="http://www.w3.org/1999/02/22-rdf-syntax-ns#"
   xmlns:svg="http://www.w3.org/2000/svg"
   xmlns="http://www.w3.org/2000/svg"
   xmlns:sodipodi="http://sodipodi.sourceforge.net/DTD/sodipodi-0.dtd"
   xmlns:inkscape="http://www.inkscape.org/namespaces/inkscape"
   width="512"
   height="512"
   id="svg2"
   version="1.1"
   inkscape:version="0.48.4 r9939"
   sodipodi:docname="logo.svg">
  <defs
     id="defs4">
    <filter
       id="filter2996"
       inkscape:label="Invert"
       x="0"
       y="0"
       width="1"
       height="1"
       inkscape:menu="Color"
       inkscape:menu-tooltip="Invert colors"
       color-interpolation-filters="sRGB">
      <feColorMatrix
         id="feColorMatrix2998"
         type="saturate"
         values="1"
         result="fbSourceGraphic" />
      <feColorMatrix
         id="feColorMatrix3000"
         in="fbSourceGraphic"
         values="-1 0 0 0 1 0 -1 0 0 1 0 0 -1 0 1 0 0 0 1 0 " />
    </filter>
  </defs>
  <sodipodi:namedview
     id="base"
     pagecolor="#ffffff"
     bordercolor="#666666"
     borderopacity="1.0"
     inkscape:pageopacity="0.0"
     inkscape:pageshadow="2"
     inkscape:zoom="0.718384"
     inkscape:cx="372.047"
     inkscape:cy="526.181"
     inkscape:document-units="px"
     inkscape:current-layer="layer1"
     showgrid="false"
     inkscape:window-width="1280"
     inkscape:window-height="964"
     inkscape:window-x="1280"
     inkscape:window-y="-3"
     inkscape:window-maximized="1"
     inkscape:snap-bbox="true"
     inkscape:object-nodes="true"
     inkscape:object-paths="true" />
  <metadata
     id="metadata7">
    <rdf:RDF>
      <cc:Work
         rdf:about="">
        <dc:format>image/svg+xml</dc:format>
        <dc:type
           rdf:resource="http://purl.org/dc/dcmitype/StillImage" />
        <dc:title></dc:title>
      </cc:Work>
    </rdf:RDF>
  </metadata>
  <g
     inkscape:label="Layer 1"
     inkscape:groupmode="layer"
     id="layer1"
     transform="translate(0,-540.362)">
    <g
       id="g3907"
       style="fill:#49666b;fill-opacity:1">
      <path
         inkscape:connector-curvature="0"
         id="path3772-0"
         d="m 419.322,553.884 a 3.83737,3.83737 0 0 0 -3.134,2.396 l -67.702,159.566 c -48.169,-20.761 -96.976,-28.565 -137.613,-23.612 -42.46,5.171 -76.462,24.12 -90.942,56.079 -14.492,31.959 -6.305,70.187 17.709,105.7 23.89,35.33 63.541,68.381 113.445,91.314 l -35.418,83.753 a 3.83737,3.83737 0 1 0 7.013,2.95 l 35.601,-83.934 c 48.187,20.779 96.775,28.565 137.429,23.612 42.467,-5.177 76.645,-24.126 91.132,-56.079 14.48,-31.959 6.304,-70.004 -17.71,-105.517 -23.919,-35.371 -63.658,-68.381 -113.634,-91.314 l 67.697,-159.566 a 3.83737,3.83737 0 0 0 -3.873,-5.348 z M 244.078,698.509 c 33.535,1.216 70.707,9.935 107.548,26.746 49.113,22.42 88.003,55.023 111.048,89.095 23.046,34.079 30.242,69.273 17.155,98.145 -13.087,28.866 -44.309,46.687 -85.04,51.651 -40.731,4.959 -90.712,-3.04 -139.831,-25.46 -49.108,-22.419 -87.82,-55.022 -110.866,-89.1 -23.04,-34.079 -30.241,-69.267 -17.154,-98.139 13.081,-28.872 44.308,-46.687 85.039,-51.651 10.183,-1.24 20.921,-1.695 32.101,-1.287 z"
         style="font-size:medium;font-style:normal;font-variant:normal;font-weight:normal;font-stretch:normal;text-indent:0;text-align:start;text-decoration:none;line-height:normal;letter-spacing:normal;word-spacing:normal;text-transform:none;direction:ltr;block-progression:tb;writing-mode:lr-tb;text-anchor:start;baseline-shift:baseline;color:#000000;fill:#49666b;fill-opacity:1;stroke:none;stroke-width:1.30000000000000004;marker:none;visibility:visible;display:inline;overflow:visible;enable-background:accumulate;font-family:Sans;-inkscape-font-specification:Sans" />
      <path
         inkscape:connector-curvature="0"
         id="path3772-0-9"
         d="M 212.349,614.939 C 196.765,615.293 181.565,616.58 167.155,619 109.5,628.681 62.3052,654.909 37.2881,695.74 8.24501,743.118 13.1918,801.771 43.9231,857.891 74.6603,914.006 131.218,967.983 206.257,1007.13 a 3.83737,3.83737 0 0 0 5.354,-2.03 l 0.177,-0.36 a 3.83737,3.83737 0 0 0 0,-0.35 l 20.478,-48.337 a 3.83737,3.83737 0 0 0 0.177,-0.531 3.83737,3.83737 0 0 0 -1.842,-4.982 C 177.055,922.595 137.056,883.711 115.492,843.913 93.922,804.12 90.8052,763.926 110.51,731.755 c 16.936,-27.65 49.137,-45.495 89.649,-51.835 40.366,-6.316 88.782,-1.116 137.247,16.605 a 3.83737,3.83737 0 0 0 0.354,0.177 c 0,0 0.118,0 0.177,0 a 3.83737,3.83737 0 0 0 0.177,0 3.83737,3.83737 0 0 0 0.177,0 3.83737,3.83737 0 0 0 0.177,0.177 3.83737,3.83737 0 0 0 0.177,0 3.83737,3.83737 0 0 0 0.177,0 3.83737,3.83737 0 0 0 0.177,0 3.83737,3.83737 0 0 0 0.177,0 3.83737,3.83737 0 0 0 0.178,0 3.83737,3.83737 0 0 0 0.177,0 3.83737,3.83737 0 0 0 0.177,0 3.83737,3.83737 0 0 0 0.732,-0.177 3.83737,3.83737 0 0 0 1.292,-0.738 3.83737,3.83737 0 0 0 0.178,-0.177 3.83737,3.83737 0 0 0 1.109,-2.213 l 19.923,-46.121 a 3.83737,3.83737 0 0 0 0.354,-0.738 l 0.177,-0.177 a 3.83737,3.83737 0 0 0 0,-0.177 3.83737,3.83737 0 0 0 0.178,-0.177 3.83737,3.83737 0 0 0 0,-0.177 3.83737,3.83737 0 0 0 0,-0.177 3.83737,3.83737 0 0 0 0,-0.177 3.83737,3.83737 0 0 0 0.177,-0.177 3.83737,3.83737 0 0 0 0,-0.177 3.83737,3.83737 0 0 0 0,-0.178 3.83737,3.83737 0 0 0 0,-0.177 3.83737,3.83737 0 0 0 -0.177,-1.109 3.83737,3.83737 0 0 0 -0.178,-0.738 3.83737,3.83737 0 0 0 -0.177,-0.177 3.83737,3.83737 0 0 0 -0.177,-0.178 3.83737,3.83737 0 0 0 -0.354,-0.531 3.83737,3.83737 0 0 0 -0.354,-0.354 3.83737,3.83737 0 0 0 -0.177,0 3.83737,3.83737 0 0 0 -0.738,-0.531 3.83737,3.83737 0 0 0 -0.177,0 3.83737,3.83737 0 0 0 -0.531,-0.177 c -0.119,0 -0.237,0 -0.355,0 C 309.561,622.56 258.771,614.113 212.302,615.134 z m 0,7.751 c 44.521,-0.974 93.576,7.019 142.595,24.533 l -17.893,41.138 c -48.57,-17.26 -96.916,-22.479 -137.984,-16.05 -42.071,6.582 -76.568,25.241 -95.004,55.341 -21.3804,34.917 -17.8504,78.452 4.611,119.909 22.03,40.648 62.324,79.479 115.481,107.914 l -18.081,42.614 C 134.157,959.737 80.0439,907.684 50.7529,854.196 20.9307,799.746 16.5624,744.446 43.9231,699.796 67.4586,661.39 112.334,635.983 168.442,626.562 c 14.026,-2.355 28.677,-3.542 43.907,-3.872 z"
         style="font-size:medium;font-style:normal;font-variant:normal;font-weight:normal;font-stretch:normal;text-indent:0;text-align:start;text-decoration:none;line-height:normal;letter-spacing:normal;word-spacing:normal;text-transform:none;direction:ltr;block-progression:tb;writing-mode:lr-tb;text-anchor:start;baseline-shift:baseline;color:#000000;fill:#49666b;fill-opacity:1;stroke:none;stroke-width:1.30000000000000004;marker:none;visibility:visible;display:inline;overflow:visible;enable-background:accumulate;font-family:Sans;-inkscape-font-specification:Sans" />
      <path
         style="font-size:medium;font-style:normal;font-variant:normal;font-weight:normal;font-stretch:normal;text-indent:0;text-align:start;text-decoration:none;line-height:normal;letter-spacing:normal;word-spacing:normal;text-transform:none;direction:ltr;block-progression:tb;writing-mode:lr-tb;text-anchor:start;baseline-shift:baseline;color:#000000;fill:#49666b;fill-opacity:1;stroke:none;stroke-width:1.30000000000000004;marker:none;visibility:visible;display:inline;overflow:visible;enable-background:accumulate;font-family:Sans;-inkscape-font-specification:Sans"
         d="m 183.565,854.868 -7.873,-2.457 1.478,-4.427 -4.428,-4.918 -4.922,-14.268 11.808,-24.108 7.382,-6.884 6.395,4.918 4.426,-1.968 2.95,2.948 11.809,-6.393 4.426,0 1.968,-5.905 7.872,-1.968 4.922,-14.267 8.854,-2.458 8.855,-10.823 16.236,0.491 0.986,8.364 7.376,0 4.921,-8.364 4.428,0.492 4.917,-4.918 4.432,10.821 2.459,0 -0.491,2.955 6.395,0.492 0.982,8.852 -2.951,4.427 4.428,0.986 2.949,-2.458 5.904,3.936 3.936,-8.858 7.382,-1.474 0.49,-3.444 10.332,2.458 1.968,-2.949 4.916,0 7.873,8.853 7.872,-4.426 -1.967,-3.446 3.444,-0.981 2.46,2.459 3.935,-3.935 6.886,3.443 8.363,-1.967 5.904,6.396 2.954,-1.969 4.918,2.949 3.936,8.859 21.648,8.854 -8.363,14.266 -2.463,12.3 -7.868,6.885 -0.496,11.317 -3.439,1.969 -15.745,0.49 -4.426,-10.331 -2.955,0 -4.426,-5.412 -14.267,5.412 -11.313,-6.395 -13.285,1.477 -10.821,17.708 -8.364,0.496 -9.349,7.377 -3.446,-3.441 -2.458,1.472 0.491,-2.459 -7.377,-3.935 -4.923,2.459 -2.949,7.872 -28.044,0 -4.427,9.84 4.427,4.918 -10.821,3.935 -37.389,-2.458 -21.647,-19.682"
         id="path3880"
         inkscape:connector-curvature="0" />
    </g>
  </g>
</svg>
