<?xml version="1.0" encoding="UTF-8" standalone="no"?>
<svg
   xmlns:dc="http://purl.org/dc/elements/1.1/"
   xmlns:cc="http://creativecommons.org/ns#"
   xmlns:rdf="http://www.w3.org/1999/02/22-rdf-syntax-ns#"
   xmlns:svg="http://www.w3.org/2000/svg"
   xmlns="http://www.w3.org/2000/svg"
   xmlns:sodipodi="http://sodipodi.sourceforge.net/DTD/sodipodi-0.dtd"
   xmlns:inkscape="http://www.inkscape.org/namespaces/inkscape"
   id="Layer_1"
   data-name="Layer 1"
   viewBox="0 0 900 180.00001"
   version="1.1"
   sodipodi:docname="logo-amavet962.svg"
   inkscape:version="0.92.4 (5da689c313, 2019-01-14)"
   width="900"
   height="180">
  <metadata
     id="metadata863">
    <rdf:RDF>
      <cc:Work
         rdf:about="">
        <dc:format>image/svg+xml</dc:format>
        <dc:type
           rdf:resource="http://purl.org/dc/dcmitype/StillImage" />
        <dc:title></dc:title>
      </cc:Work>
    </rdf:RDF>
  </metadata>
  <sodipodi:namedview
     pagecolor="#ffffff"
     bordercolor="#666666"
     borderopacity="1"
     objecttolerance="10"
     gridtolerance="10"
     guidetolerance="10"
     inkscape:pageopacity="0"
     inkscape:pageshadow="2"
     inkscape:window-width="1920"
     inkscape:window-height="1001"
     id="namedview861"
     showgrid="false"
     inkscape:zoom="1.3788362"
     inkscape:cx="429.935"
     inkscape:cy="78.005007"
     inkscape:window-x="-9"
     inkscape:window-y="-9"
     inkscape:window-maximized="1"
     inkscape:current-layer="Layer_1"
     fit-margin-top="0"
     fit-margin-left="0"
     fit-margin-right="0"
     fit-margin-bottom="0"
     inkscape:showpageshadow="false" />
  <defs
     id="defs842">
    <style
       id="style840">.cls-1{fill:#00174f;}</style>
  </defs>
  <g
     id="g873"
     transform="translate(-58.974999,-66.124979)">
    <path
       id="path844"
       d="m 293.88,156.16 h -39 a 19.52,19.52 0 0 1 -19.52,-19.52 v -39 A 19.52,19.52 0 0 0 215.8,78.08 H 176.75 A 19.52,19.52 0 0 0 157.23,97.6 v 39 a 19.52,19.52 0 0 1 -19.52,19.52 h -39 a 19.52,19.52 0 0 0 -19.52,19.53 v 39 a 19.52,19.52 0 0 0 19.52,19.52 h 39 a 19.52,19.52 0 0 0 19.52,-19.52 v -39 a 19.52,19.52 0 0 1 19.52,-19.53 h 39.05 a 19.52,19.52 0 0 1 19.51,19.53 v 39 a 19.52,19.52 0 0 0 19.52,19.52 h 39 a 19.52,19.52 0 0 0 19.52,-19.52 v -39 a 19.52,19.52 0 0 0 -19.47,-19.49 z"
       class="cls-1"
       inkscape:connector-curvature="0"
       style="fill:#00174f" />
    <path
       id="path846"
       d="M 404.87,226.73 H 376.24 V 86.57 h 28.63 v 80.68 L 435,133.78 h 35.88 l -34.95,36.81 33.84,56.14 H 436.66 L 415.83,192 l -11,11.53 z"
       class="cls-1"
       inkscape:connector-curvature="0"
       style="fill:#00174f" />
    <path
       id="path848"
       d="M 511.2,226.73 H 482.57 V 86.57 h 28.63 z"
       class="cls-1"
       inkscape:connector-curvature="0"
       style="fill:#00174f" />
    <path
       id="path850"
       d="m 594.48,133.78 h 28.63 v 92.95 h -27 l -1.86,-10.41 a 29.88,29.88 0 0 1 -12.17,9.3 39.55,39.55 0 0 1 -16.27,3.53 q -15.79,0 -25,-9.94 -9.21,-9.94 -9.2,-27.05 v -58.38 h 28.63 v 48 q 0,11.34 4.09,16.63 4.09,5.29 12.82,5.3 9.3,0 13.29,-5.11 3.99,-5.11 4,-16.45 z"
       class="cls-1"
       inkscape:connector-curvature="0"
       style="fill:#00174f" />
    <path
       id="path852"
       d="m 671.63,226.73 h -27 V 86.57 h 28.67 v 58 q 4.28,-6.33 12.74,-10.14 a 44.62,44.62 0 0 1 18.49,-3.81 q 13,0 22.59,6.32 a 41.23,41.23 0 0 1 14.78,17.67 q 5.21,11.34 5.2,26.58 0,14.31 -5.67,25.19 a 41,41 0 0 1 -15.8,16.82 45.16,45.16 0 0 1 -23.33,6 38.32,38.32 0 0 1 -17.57,-4 27.21,27.21 0 0 1 -11.62,-10.31 z m 1.86,-47 a 25.08,25.08 0 0 0 2.88,12.18 20.3,20.3 0 0 0 8,8.18 23.67,23.67 0 0 0 11.81,2.88 22.43,22.43 0 0 0 11.8,-3 20.31,20.31 0 0 0 7.62,-8.18 28.4,28.4 0 0 0 0,-24.17 20.24,20.24 0 0 0 -7.62,-8.18 22.43,22.43 0 0 0 -11.8,-3 23.67,23.67 0 0 0 -11.81,2.89 20.43,20.43 0 0 0 -8,8.08 25,25 0 0 0 -2.88,12.29 z"
       class="cls-1"
       inkscape:connector-curvature="0"
       style="fill:#00174f" />
    <path
       id="path854"
       d="m 801,140.85 -13,17.47 h -18.59 l 18.41,-24.54 5.2,-0.37 a 11.6,11.6 0 0 1 -4.65,2.88 17,17 0 0 1 -6.13,1.21 q -11.16,0 -17.85,-6.41 -6.69,-6.41 -6.69,-17.2 0,-11.52 7.62,-18.77 7.62,-7.25 19.52,-7.25 a 29,29 0 0 1 14.16,3.34 25.79,25.79 0 0 1 9.76,9.21 25,25 0 0 1 3.62,13.47 31.59,31.59 0 0 1 -2.38,12.27 q -2.29,5.58 -9,14.69 z m -4.64,-27.7 a 10.46,10.46 0 0 0 -3.16,-8 11.7,11.7 0 0 0 -8.37,-3 11.12,11.12 0 0 0 -8.09,3 10.62,10.62 0 0 0 -3.06,8 11.35,11.35 0 0 0 3.16,8.27 10.65,10.65 0 0 0 8,3.25 11.14,11.14 0 0 0 11.53,-11.52 z"
       class="cls-1"
       inkscape:connector-curvature="0"
       style="fill:#00174f" />
    <path
       id="path856"
       d="m 833.36,106.64 13,-17.47 H 865 l -18.4,24.54 -5.21,0.37 a 11.6,11.6 0 0 1 4.61,-2.88 17,17 0 0 1 6.14,-1.21 q 11.15,0 17.84,6.41 6.69,6.41 6.69,17.2 0,11.52 -7.52,18.77 -7.52,7.25 -19.62,7.25 a 29.17,29.17 0 0 1 -14,-3.34 25.22,25.22 0 0 1 -13.53,-22.68 31.59,31.59 0 0 1 2.32,-12.27 q 2.35,-5.58 9.04,-14.69 z m 4.65,27.7 a 10.46,10.46 0 0 0 3.16,8 11.69,11.69 0 0 0 8.36,3 11.13,11.13 0 0 0 8.09,-3 10.62,10.62 0 0 0 3.07,-8 11.42,11.42 0 0 0 -3.16,-8.27 10.69,10.69 0 0 0 -8,-3.25 11.12,11.12 0 0 0 -11.53,11.52 z"
       class="cls-1"
       inkscape:connector-curvature="0"
       style="fill:#00174f" />
    <path
       id="path858"
       d="m 938.76,158.32 h -50.93 v -11.71 l 22.86,-17.85 a 30.25,30.25 0 0 0 7.25,-8 16,16 0 0 0 2.42,-8.18 11.6,11.6 0 0 0 -2.36,-7.58 8.11,8.11 0 0 0 -6.6,-2.79 9.42,9.42 0 0 0 -7.25,2.79 10.71,10.71 0 0 0 -2.61,7.62 h -16 q 0,-11 7.25,-17.85 7.25,-6.85 18.77,-6.87 11.53,0 18.13,6.41 6.6,6.41 6.6,17.38 a 28.15,28.15 0 0 1 -3.72,14 44.31,44.31 0 0 1 -11.15,12.55 l -11.72,9.29 -7.19,-3.53 h 36.25 z"
       class="cls-1"
       inkscape:connector-curvature="0"
       style="fill:#00174f" />
  </g>
</svg>
