<svg xmlns="http://www.w3.org/2000/svg" width="236.667" height="236.667" xmlns:v="https://vecta.io/nano"><path d="M118.365 143.917a25.453 25.453 0 0 1-9.757-1.947c-13.032-5.399-19.243-20.393-13.845-33.428a25.413 25.413 0 0 1 13.845-13.845 25.42 25.42 0 0 1 19.581 0 25.41 25.41 0 0 1 13.845 13.845 25.427 25.427 0 0 1 0 19.581c-4.076 9.841-13.627 15.793-23.669 15.793m-.032-135.933c-60.848 0-110.35 49.502-110.35 110.35s49.503 110.351 110.351 110.351 110.351-49.504 110.351-110.351S179.181 7.983 118.333 7.983m0 223.684C55.841 231.667 5 180.825 5 118.333S55.841 5 118.333 5s113.333 50.841 113.333 113.333-50.841 113.333-113.333 113.333M71.252 51.927l3.028 1.656a1.53 1.53 0 0 1 .595.593l1.657 3.031 1.657-3.031a1.52 1.52 0 0 1 .592-.593l3.031-1.656-3.031-1.657a1.507 1.507 0 0 1-.592-.592l-1.657-3.032-1.657 3.032a1.51 1.51 0 0 1-.595.592zm5.28 9.879c-.545 0-1.047-.296-1.308-.776l-2.757-5.039-5.037-2.756a1.49 1.49 0 0 1 0-2.616l5.037-2.757 2.757-5.039a1.49 1.49 0 0 1 1.308-.776 1.493 1.493 0 0 1 1.308.776l2.756 5.039 5.039 2.757a1.49 1.49 0 0 1 .776 1.308 1.493 1.493 0 0 1-.776 1.308l-5.039 2.756-2.756 5.039c-.261.48-.763.776-1.308.776m78.211-9.879l3.028 1.656a1.53 1.53 0 0 1 .595.593l1.656 3.031 1.657-3.031a1.52 1.52 0 0 1 .592-.593l3.031-1.656-3.031-1.657a1.507 1.507 0 0 1-.592-.592l-1.657-3.031-1.656 3.031a1.51 1.51 0 0 1-.595.592zm5.279 9.879c-.544 0-1.047-.296-1.307-.776l-2.757-5.039-5.039-2.756a1.493 1.493 0 0 1-.776-1.308 1.49 1.49 0 0 1 .776-1.308l5.039-2.757 2.757-5.039c.523-.957 2.093-.957 2.616 0l2.756 5.039 5.039 2.757a1.49 1.49 0 0 1 .776 1.308 1.493 1.493 0 0 1-.776 1.308l-5.039 2.756-2.756 5.039a1.493 1.493 0 0 1-1.309.776M77.057 208.581a1.48 1.48 0 0 1-1.065-.448 1.493 1.493 0 0 1 .021-2.108l31.415-30.768c6.015-5.889 15.796-5.887 21.809 0l31.415 30.768a1.493 1.493 0 0 1 .023 2.108 1.493 1.493 0 0 1-2.109.023l-31.416-30.769c-4.86-4.761-12.772-4.759-17.633 0l-31.415 30.769a1.493 1.493 0 0 1-1.044.425"/><path d="M148.825 198.021a1.49 1.49 0 0 1-1.067-.448 1.493 1.493 0 0 1 .023-2.109l11.416-11.173c4.581-4.487 12.037-4.488 16.619.001l7.348 7.196a1.493 1.493 0 0 1 .021 2.108 1.49 1.49 0 0 1-2.111.021l-7.345-7.195a8.94 8.94 0 0 0-12.444 0l-11.419 11.175a1.48 1.48 0 0 1-1.041.424m-60.984-.001c-.375 0-.752-.14-1.043-.425l-11.408-11.172a8.947 8.947 0 0 0-12.445 0l-7.352 7.199a1.49 1.49 0 0 1-2.108-.021 1.493 1.493 0 0 1 .023-2.108l7.351-7.2c4.583-4.488 12.037-4.488 16.619 0l11.408 11.172a1.49 1.49 0 0 1-1.044 2.556"/><path d="M118.333 21.964c-53.139 0-96.369 43.231-96.369 96.369s43.231 96.372 96.369 96.372 96.369-43.232 96.369-96.372-43.231-96.369-96.369-96.369m0 195.723c-54.784 0-99.355-44.569-99.355-99.353s44.571-99.352 99.355-99.352 99.355 44.568 99.355 99.352-44.571 99.353-99.355 99.353m3.919-43.305a1.373 1.373 0 0 1-.208-.015 1.493 1.493 0 0 1-1.269-1.683l3.277-23.368c.115-.817.867-1.393 1.684-1.269a1.49 1.49 0 0 1 1.268 1.684l-3.277 23.367a1.49 1.49 0 0 1-1.475 1.284m-7.908 0a1.493 1.493 0 0 1-1.476-1.287l-3.229-23.38a1.49 1.49 0 0 1 1.273-1.681 1.48 1.48 0 0 1 1.68 1.272l3.231 23.381a1.493 1.493 0 0 1-1.273 1.68c-.069.011-.137.015-.205.015m-46.199-1.687a1.467 1.467 0 0 1-.549-.105 1.493 1.493 0 0 1-.92-1.639c.092-.539 2.321-13.259 7.245-18.32 2.875-2.956 5.885-3.943 8.303-4.736 1.836-.601 3.285-1.076 4.369-2.195 1.183-1.223 1.551-3.465 1.976-6.06.253-1.532.513-3.117.975-4.728a1.493 1.493 0 0 1 1.079-1.037l8.501-2.077a1.493 1.493 0 0 1 1.803 1.095 1.493 1.493 0 0 1-1.093 1.804l-7.641 1.865c-.289 1.183-.487 2.388-.68 3.561-.485 2.961-.945 5.759-2.776 7.652-1.596 1.648-3.533 2.283-5.583 2.955-2.325.763-4.729 1.551-7.093 3.983-2.065 2.121-3.633 6.065-4.705 9.593 1.163-1.457 2.444-2.953 3.701-4.209 3.951-3.952 8.352-4.512 12.235-5.005 3.067-.391 5.716-.727 7.653-2.665 2.029-2.031 2.657-4.396 3.321-6.901.648-2.44 1.315-4.959 3.307-7.105l.391-1.581c.197-.8 1-1.292 1.805-1.091a1.493 1.493 0 0 1 1.091 1.805l-.487 1.971a1.48 1.48 0 0 1-.42.724c-1.635 1.639-2.176 3.679-2.804 6.041-.7 2.648-1.497 5.649-4.095 8.247-2.659 2.659-6.08 3.093-9.385 3.515-3.575.453-7.272.924-10.503 4.156-3.66 3.66-7.736 9.763-7.777 9.824a1.493 1.493 0 0 1-1.243.665m47.384-76.79a1.49 1.49 0 0 1-1.277-.72l-4.392-7.271a1.48 1.48 0 0 1-.2-.979l7.26-51.76a1.49 1.49 0 0 1 1.476-1.284 1.493 1.493 0 0 1 1.477 1.287l7.153 51.773a1.5 1.5 0 0 1-.201.98l-4.397 7.243a1.493 1.493 0 0 1-2.049.5 1.49 1.49 0 0 1-.5-2.048l4.123-6.791-5.616-40.639-5.7 40.628 4.119 6.819a1.493 1.493 0 0 1-.505 2.047 1.49 1.49 0 0 1-.769.215m-16.047 9a1.52 1.52 0 0 1-.36-.044l-1.809-.447a1.493 1.493 0 0 1-.692-.389c-1.636-1.619-3.667-2.157-6.021-2.783-2.647-.701-5.648-1.497-8.248-4.096-2.659-2.659-3.092-6.079-3.512-9.385-.455-3.575-.925-7.272-4.157-10.503-3.664-3.665-9.763-7.736-9.825-7.777a1.493 1.493 0 0 1 1.079-2.712c.539.093 13.259 2.323 18.321 7.245 2.957 2.876 3.943 5.885 4.736 8.303.601 1.836 1.077 3.285 2.195 4.369 1.224 1.183 3.465 1.551 6.06 1.976 1.457.24 2.964.488 4.497.911.521.143.925.557 1.052 1.083l2.067 8.455a1.493 1.493 0 0 1-1.095 1.804 1.493 1.493 0 0 1-1.803-1.095l-1.853-7.585c-1.115-.261-2.245-.447-3.348-.628-2.961-.487-5.757-.945-7.649-2.777-1.651-1.596-2.284-3.532-2.956-5.583-.763-2.325-1.552-4.729-3.983-7.093-2.121-2.065-6.067-3.632-9.593-4.704 1.456 1.163 2.952 2.444 4.208 3.7 3.953 3.952 4.512 8.353 5.005 12.235.391 3.067.727 5.716 2.664 7.653 2.032 2.031 4.397 2.659 6.904 3.323 2.417.641 4.912 1.303 7.045 3.253l1.429.352a1.493 1.493 0 0 1-.357 2.94m-12.851 22.423a1.507 1.507 0 0 1-.219-.016l-51.249-7.568a1.493 1.493 0 0 1 .004-2.952l51.271-7.46a1.5 1.5 0 0 1 .989.2l7.813 4.745a1.493 1.493 0 0 1 .5 2.049 1.49 1.49 0 0 1-2.048.5l-7.356-4.467-40.675 5.919 40.657 6.005 7.375-4.456a1.49 1.49 0 0 1 2.047.505 1.493 1.493 0 0 1-.505 2.047l-7.833 4.733a1.493 1.493 0 0 1-.771.215m63.38.02c-.272 0-.54-.075-.775-.216l-7.695-4.671a1.493 1.493 0 0 1-.5-2.048 1.493 1.493 0 0 1 2.051-.501l7.233 4.392 40.675-5.919-40.656-6.004-7.255 4.384a1.493 1.493 0 0 1-2.049-.505 1.493 1.493 0 0 1 .507-2.049l7.715-4.66a1.5 1.5 0 0 1 .989-.197l51.248 7.569a1.49 1.49 0 0 1 1.273 1.476 1.493 1.493 0 0 1-1.277 1.475l-51.271 7.459a1.43 1.43 0 0 1-.213.016m21.097 42.897a1.51 1.51 0 0 1-.252-.021c-.537-.092-13.195-2.311-18.231-7.211-2.943-2.861-3.925-5.856-4.713-8.261-.6-1.825-1.072-3.268-2.184-4.344-1.215-1.176-3.443-1.541-6.024-1.965-1.527-.251-3.105-.508-4.709-.969a1.493 1.493 0 0 1-1.036-1.08l-2.141-8.756a1.493 1.493 0 0 1 1.096-1.804 1.493 1.493 0 0 1 1.803 1.096l1.929 7.896c1.176.285 2.376.484 3.543.675 2.947.484 5.729.94 7.615 2.765 1.641 1.588 2.273 3.516 2.943 5.557.757 2.312 1.541 4.703 3.957 7.053 2.104 2.045 6.005 3.601 9.504 4.667-1.439-1.152-2.915-2.416-4.157-3.657-3.933-3.935-4.489-8.313-4.981-12.177-.387-3.049-.721-5.683-2.649-7.608-2.017-2.019-4.371-2.644-6.861-3.304-2.536-.672-5.16-1.367-7.359-3.565a7.08 7.08 0 0 1-.237-.251l-1.029-.255a1.491 1.491 0 1 1 .713-2.896l1.495.369a1.48 1.48 0 0 1 .801.509 5.507 5.507 0 0 0 .367.413c1.629 1.631 3.661 2.168 6.012 2.792 2.636.699 5.623 1.491 8.208 4.077 2.649 2.647 3.081 6.051 3.499 9.34.452 3.556.919 7.232 4.132 10.445 3.641 3.641 9.713 7.696 9.775 7.737a1.49 1.49 0 0 1 .559 1.792c-.228.576-.781.94-1.384.94m-33.815-65.361a1.493 1.493 0 0 1-.353-2.94l7.84-1.916.624-3.329c.484-2.947.941-5.731 2.765-7.615 1.591-1.641 3.517-2.275 5.557-2.943 2.313-.759 4.704-1.543 7.055-3.959 2.049-2.107 3.604-6.008 4.669-9.507l-3.66 4.16c-3.933 3.933-8.313 4.491-12.177 4.981-3.049.388-5.683.723-7.608 2.649-2.017 2.017-2.643 4.372-3.304 6.863-.672 2.536-1.368 5.16-3.565 7.359l-.201.191-.213.864a1.493 1.493 0 0 1-1.804 1.091 1.493 1.493 0 0 1-1.092-1.807l.328-1.321c.076-.309.251-.588.499-.792l.375-.335c1.629-1.631 2.169-3.663 2.792-6.013.699-2.636 1.492-5.621 4.077-8.209 2.647-2.647 6.049-3.079 9.341-3.497 3.555-.451 7.232-.919 10.444-4.132 3.641-3.641 7.696-9.712 7.736-9.773a1.493 1.493 0 0 1 2.712 1.077c-.092.537-2.309 13.195-7.209 18.231-2.864 2.943-5.857 3.925-8.264 4.713-1.825.6-3.267 1.072-4.343 2.184-1.175 1.213-1.543 3.443-1.965 6.025-.239 1.451-.484 2.949-.905 4.476a1.493 1.493 0 0 1-1.083 1.052l-8.711 2.129a1.493 1.493 0 0 1-.356.043"/><path d="M101.349 92.503a1.493 1.493 0 0 1-1.447-1.137l-8.236-33.699a1.493 1.493 0 0 1 2.725-1.125l18.023 29.832a1.493 1.493 0 0 1-.505 2.048 1.493 1.493 0 0 1-2.048-.505L96.877 66.423l5.923 24.235a1.493 1.493 0 0 1-1.093 1.803 1.507 1.507 0 0 1-.357.043m34.06 55.031a1.493 1.493 0 0 1-1.448-1.139l-2.14-8.756a1.493 1.493 0 0 1 1.095-1.803 1.493 1.493 0 0 1 1.803 1.095l2.14 8.756a1.493 1.493 0 0 1-1.095 1.804 1.547 1.547 0 0 1-.355.043"/><path d="M143.552 180.847c-.508 0-1-.26-1.276-.72l-22.407-37.087a1.493 1.493 0 0 1 .505-2.048 1.493 1.493 0 0 1 2.048.505l17.367 28.748-5.828-23.849a1.493 1.493 0 0 1 1.093-1.803 1.493 1.493 0 0 1 1.803 1.095L145 179.001a1.493 1.493 0 0 1-.879 1.733 1.5 1.5 0 0 1-.569.112m-22.399-84.953a1.493 1.493 0 0 1-1.273-2.265l4.397-7.244a1.493 1.493 0 0 1 2.048-.501 1.493 1.493 0 0 1 .501 2.049l-4.397 7.244a1.493 1.493 0 0 1-1.276.717m12.125 4.984a1.58 1.58 0 0 1-.36-.043 1.493 1.493 0 0 1-1.091-1.807l.327-1.321a1.49 1.49 0 0 1 1.807-1.089 1.493 1.493 0 0 1 1.089 1.804l-.327 1.321a1.49 1.49 0 0 1-1.445 1.135"/><path d="M133.604 99.556a1.6 1.6 0 0 1-.36-.043 1.493 1.493 0 0 1-1.089-1.807l7.712-31.251-13.04 21.476c-.428.705-1.343.929-2.048.5a1.493 1.493 0 0 1-.501-2.048l18.097-29.804a1.493 1.493 0 0 1 2.723 1.131l-10.047 40.711a1.493 1.493 0 0 1-1.447 1.135m8.716 17.424a1.49 1.49 0 0 1-1.277-.72 1.493 1.493 0 0 1 .507-2.048l7.713-4.66a1.493 1.493 0 0 1 2.047.507 1.49 1.49 0 0 1-.505 2.047l-7.713 4.66a1.493 1.493 0 0 1-.771.215"/><path d="M150.035 112.32a1.49 1.49 0 0 1-1.277-.72 1.493 1.493 0 0 1 .505-2.048l20.981-12.675-23.883 5.836a1.49 1.49 0 0 1-1.803-1.093 1.493 1.493 0 0 1 1.095-1.804L179 91.667a1.493 1.493 0 0 1 1.732.88 1.49 1.49 0 0 1-.608 1.845l-29.32 17.713a1.49 1.49 0 0 1-.769.215m-92.724 32.723a1.493 1.493 0 0 1-1.377-.921 1.49 1.49 0 0 1 .608-1.845l29.32-17.713a1.49 1.49 0 0 1 2.047.505 1.493 1.493 0 0 1-.505 2.047l-20.981 12.676 24.201-5.916c.799-.193 1.607.296 1.804 1.095a1.493 1.493 0 0 1-1.095 1.804l-33.665 8.228a1.56 1.56 0 0 1-.356.041"/><path d="M86.635 127.329a1.49 1.49 0 0 1-.772-2.767l7.833-4.733a1.49 1.49 0 0 1 2.047.505 1.493 1.493 0 0 1-.505 2.047l-7.833 4.733c-.241.145-.507.215-.769.215m4.341 9.487a1.493 1.493 0 0 1-.353-2.941l8.501-2.077a1.493 1.493 0 0 1 1.803 1.096 1.493 1.493 0 0 1-1.093 1.803l-8.501 2.077c-.119.028-.239.043-.356.043m88.339 8.325a1.507 1.507 0 0 1-.36-.043l-40.527-10.003a1.49 1.49 0 0 1 .715-2.896l31.068 7.668-20.973-12.736a1.493 1.493 0 0 1-.501-2.048c.429-.703 1.347-.928 2.051-.501l29.301 17.793a1.49 1.49 0 0 1-.773 2.765m-84.848-28.096a1.49 1.49 0 0 1-.772-.217l-7.813-4.745a1.49 1.49 0 0 1-.5-2.048 1.493 1.493 0 0 1 2.048-.501l7.813 4.745a1.493 1.493 0 0 1 .5 2.049c-.28.463-.771.717-1.276.717"/><path d="M86.653 112.3a1.493 1.493 0 0 1-.773-.217L56.577 94.291a1.493 1.493 0 0 1-.601-1.847 1.49 1.49 0 0 1 1.735-.876l40.317 9.951a1.493 1.493 0 0 1 .699.393l-1.076 1.139-.336 1.364-30.859-7.616 20.972 12.735a1.493 1.493 0 0 1-.775 2.767"/><path d="M99.484 104.907a1.52 1.52 0 0 1-.36-.044l-1.809-.447.339-1.371-1.039.972a1.52 1.52 0 0 1-.215-1.789c.333-.569.987-.869 1.628-.708l1.813.447a1.493 1.493 0 0 1-.357 2.94m3.441 35.752a1.507 1.507 0 0 1-.359-.044 1.493 1.493 0 0 1-1.091-1.805l.487-1.971c.197-.801 1-1.293 1.805-1.092a1.493 1.493 0 0 1 1.091 1.805l-.487 1.971a1.493 1.493 0 0 1-1.447 1.136"/><path d="M93.016 180.805a1.48 1.48 0 0 1-.571-.113 1.493 1.493 0 0 1-.876-1.735l9.908-40.148c.197-.8 1.003-1.293 1.804-1.091a1.493 1.493 0 0 1 1.092 1.804L96.8 170.213l17.447-28.735a1.493 1.493 0 0 1 2.048-.501 1.493 1.493 0 0 1 .501 2.048l-22.504 37.063a1.493 1.493 0 0 1-1.276.717"/><path d="M118.399 95.721a22.56 22.56 0 0 0-8.648 1.732 22.44 22.44 0 0 0-12.232 12.232c-4.769 11.512.717 24.76 12.232 29.529s24.76-.719 29.528-12.232c2.311-5.576 2.311-11.721 0-17.297a22.453 22.453 0 0 0-12.232-12.232 22.57 22.57 0 0 0-8.648-1.732" fill="#fff"/></svg>